<svg xmlns="http://www.w3.org/2000/svg" xmlns:xlink="http://www.w3.org/1999/xlink" viewBox="0 0 194.62 133.24"><defs><style>.cls-1{fill:none;}.cls-2{font-size:18px;font-family:Lato-Bold, Lato;}.cls-2,.cls-7{font-weight:700;}.cls-3{letter-spacing:-0.01em;}.cls-4{letter-spacing:-0.01em;}.cls-5{letter-spacing:-0.01em;}.cls-6{letter-spacing:0em;}.cls-16,.cls-7{font-size:12px;}.cls-7{font-family:Lato-Semibold, Lato;}.cls-8{letter-spacing:-0.01em;}.cls-9{letter-spacing:-0.03em;}.cls-10{letter-spacing:-0.02em;}.cls-11{fill:#fff;}.cls-12{isolation:isolate;font-size:12.49px;font-family:ArialMT, Arial;}.cls-13{font-size:32px;font-family:Lato-Heavy, Lato;}.cls-14{clip-path:url(#clip-path);}.cls-15{fill:#008143;}.cls-16{font-family:Lato-Italic, Lato;font-style:italic;}</style><clipPath id="clip-path" transform="translate(-5.67 -4.82)"><polygon class="cls-1" points="5.67 34.02 34.02 34.02 34.02 5.67 5.67 5.67 5.67 34.02 5.67 34.02"/></clipPath></defs><title>label</title><g id="Info"><text class="cls-2" transform="translate(31.18 15.51)"><tspan class="cls-3">B</tspan><tspan x="11.71" y="0">auernb</tspan><tspan class="cls-4" x="67.69" y="0">r</tspan><tspan class="cls-5" x="74.14" y="0">o</tspan><tspan class="cls-6" x="84.3" y="0">t</tspan></text><text class="cls-7" transform="translate(34.02 28.51)">aus <tspan class="cls-8" x="20.99" y="0">D</tspan><tspan x="30.01" y="0">in</tspan><tspan class="cls-9" x="39.71" y="0">k</tspan><tspan x="45.65" y="0">el</tspan><tspan class="cls-10" x="54.93" y="0">v</tspan><tspan x="61.02" y="0">oll</tspan><tspan class="cls-9" x="73.69" y="0">k</tspan><tspan x="79.63" y="0">orn</tspan></text></g><g id="EAN-Barcode"><rect class="cls-11" x="62.33" y="73.25" width="132.29" height="58.53"/><rect x="75.21" y="73.25" width="1.17" height="50.97"/><rect x="77.55" y="73.25" width="1.17" height="50.97"/><rect x="79.8" y="73.25" width="3.6" height="44.66"/><rect x="84.48" y="73.25" width="2.43" height="44.66"/><rect x="90.52" y="73.25" width="1.08" height="44.66"/><rect x="94.03" y="73.25" width="1.08" height="44.66"/><rect x="96.28" y="73.25" width="1.17" height="44.66"/><rect x="99.79" y="73.25" width="3.51" height="44.66"/><rect x="105.74" y="73.25" width="1.08" height="44.66"/><rect x="109.25" y="73.25" width="2.25" height="44.66"/><rect x="112.67" y="73.25" width="1.17" height="44.66"/><rect x="116.18" y="73.25" width="3.51" height="44.66"/><rect x="122.13" y="73.25" width="2.25" height="44.66"/><rect x="126.81" y="73.25" width="1.08" height="44.66"/><rect x="129.06" y="73.25" width="1.17" height="50.97"/><rect x="131.4" y="73.25" width="1.17" height="50.97"/><rect x="133.74" y="73.25" width="1.17" height="44.66"/><rect x="139.6" y="73.25" width="1.17" height="44.66"/><rect x="141.94" y="73.25" width="1.08" height="44.66"/><rect x="146.62" y="73.25" width="1.08" height="44.66"/><rect x="150.13" y="73.25" width="3.51" height="44.66"/><rect x="154.82" y="73.25" width="1.17" height="44.66"/><rect x="158.33" y="73.25" width="1.17" height="44.66"/><rect x="160.67" y="73.25" width="1.17" height="44.66"/><rect x="166.52" y="73.25" width="2.43" height="44.66"/><rect x="170.04" y="73.25" width="2.43" height="44.66"/><rect x="174.72" y="73.25" width="1.17" height="44.66"/><rect x="177.06" y="73.25" width="3.51" height="44.66"/><rect x="182.91" y="73.25" width="1.17" height="50.97"/><rect x="185.26" y="73.25" width="1.17" height="50.97"/><text class="cls-12" transform="translate(65.3 129.19)">9</text><text class="cls-12" transform="translate(83.06 129.19)">780201</text><text class="cls-12" transform="translate(136.91 129.19)">379624</text><text class="cls-13" transform="translate(124.17 60.47)">2,50</text></g><g id="QR-Code"><rect class="cls-11" y="69.91" width="61.33" height="61.33"/><rect x="16.58" y="73.23" width="1.66" height="1.66"/><rect x="18.23" y="73.23" width="1.66" height="1.66"/><rect x="19.89" y="73.23" width="1.66" height="1.66"/><rect x="21.55" y="73.23" width="1.66" height="1.66"/><rect x="24.86" y="73.23" width="1.66" height="1.66"/><rect x="31.49" y="73.23" width="1.66" height="1.66"/><rect x="33.15" y="73.23" width="1.66" height="1.66"/><rect x="34.81" y="73.23" width="1.66" height="1.66"/><rect x="38.12" y="73.23" width="1.66" height="1.66"/><rect x="41.44" y="73.23" width="1.66" height="1.66"/><rect x="16.58" y="74.89" width="1.66" height="1.66"/><rect x="18.23" y="74.89" width="1.66" height="1.66"/><rect x="19.89" y="74.89" width="1.66" height="1.66"/><rect x="23.21" y="74.89" width="1.66" height="1.66"/><rect x="24.86" y="74.89" width="1.66" height="1.66"/><rect x="33.15" y="74.89" width="1.66" height="1.66"/><rect x="36.47" y="74.89" width="1.66" height="1.66"/><rect x="39.78" y="74.89" width="1.66" height="1.66"/><rect x="41.44" y="74.89" width="1.66" height="1.66"/><rect x="18.23" y="76.54" width="1.66" height="1.66"/><rect x="23.21" y="76.54" width="1.66" height="1.66"/><rect x="31.49" y="76.54" width="1.66" height="1.66"/><rect x="34.81" y="76.54" width="1.66" height="1.66"/><rect x="39.78" y="76.54" width="1.66" height="1.66"/><rect x="16.58" y="78.2" width="1.66" height="1.66"/><rect x="18.23" y="78.2" width="1.66" height="1.66"/><rect x="19.89" y="78.2" width="1.66" height="1.66"/><rect x="21.55" y="78.2" width="1.66" height="1.66"/><rect x="26.52" y="78.2" width="1.66" height="1.66"/><rect x="28.18" y="78.2" width="1.66" height="1.66"/><rect x="29.84" y="78.2" width="1.66" height="1.66"/><rect x="41.44" y="78.2" width="1.66" height="1.66"/><rect x="18.23" y="79.86" width="1.66" height="1.66"/><rect x="19.89" y="79.86" width="1.66" height="1.66"/><rect x="23.21" y="79.86" width="1.66" height="1.66"/><rect x="24.86" y="79.86" width="1.66" height="1.66"/><rect x="26.52" y="79.86" width="1.66" height="1.66"/><rect x="36.47" y="79.86" width="1.66" height="1.66"/><rect x="38.12" y="79.86" width="1.66" height="1.66"/><rect x="39.78" y="79.86" width="1.66" height="1.66"/><rect x="23.21" y="81.52" width="1.66" height="1.66"/><rect x="26.52" y="81.52" width="1.66" height="1.66"/><rect x="31.49" y="81.52" width="1.66" height="1.66"/><rect x="33.15" y="81.52" width="1.66" height="1.66"/><rect x="34.81" y="81.52" width="1.66" height="1.66"/><rect x="36.47" y="81.52" width="1.66" height="1.66"/><rect x="38.12" y="81.52" width="1.66" height="1.66"/><rect x="16.58" y="83.17" width="1.66" height="1.66"/><rect x="19.89" y="83.17" width="1.66" height="1.66"/><rect x="23.21" y="83.17" width="1.66" height="1.66"/><rect x="26.52" y="83.17" width="1.66" height="1.66"/><rect x="29.84" y="83.17" width="1.66" height="1.66"/><rect x="33.15" y="83.17" width="1.66" height="1.66"/><rect x="36.47" y="83.17" width="1.66" height="1.66"/><rect x="39.78" y="83.17" width="1.66" height="1.66"/><rect x="43.1" y="83.17" width="1.66" height="1.66"/><rect x="16.58" y="84.83" width="1.66" height="1.66"/><rect x="19.89" y="84.83" width="1.66" height="1.66"/><rect x="21.55" y="84.83" width="1.66" height="1.66"/><rect x="26.52" y="84.83" width="1.66" height="1.66"/><rect x="31.49" y="84.83" width="1.66" height="1.66"/><rect x="33.15" y="84.83" width="1.66" height="1.66"/><rect x="36.47" y="84.83" width="1.66" height="1.66"/><rect x="39.78" y="84.83" width="1.66" height="1.66"/><rect x="3.32" y="86.49" width="1.66" height="1.66"/><rect x="6.63" y="86.49" width="1.66" height="1.66"/><rect x="8.29" y="86.49" width="1.66" height="1.66"/><rect x="11.6" y="86.49" width="1.66" height="1.66"/><rect x="13.26" y="86.49" width="1.66" height="1.66"/><rect x="14.92" y="86.49" width="1.66" height="1.66"/><rect x="18.23" y="86.49" width="1.66" height="1.66"/><rect x="19.89" y="86.49" width="1.66" height="1.66"/><rect x="21.55" y="86.49" width="1.66" height="1.66"/><rect x="26.52" y="86.49" width="1.66" height="1.66"/><rect x="31.49" y="86.49" width="1.66" height="1.66"/><rect x="33.15" y="86.49" width="1.66" height="1.66"/><rect x="36.47" y="86.49" width="1.66" height="1.66"/><rect x="38.12" y="86.49" width="1.66" height="1.66"/><rect x="46.41" y="86.49" width="1.66" height="1.66"/><rect x="51.39" y="86.49" width="1.66" height="1.66"/><rect x="54.7" y="86.49" width="1.66" height="1.66"/><rect x="56.36" y="86.49" width="1.66" height="1.66"/><rect x="6.63" y="88.15" width="1.66" height="1.66"/><rect x="14.92" y="88.15" width="1.66" height="1.66"/><rect x="16.58" y="88.15" width="1.66" height="1.66"/><rect x="19.89" y="88.15" width="1.66" height="1.66"/><rect x="29.84" y="88.15" width="1.66" height="1.66"/><rect x="34.81" y="88.15" width="1.66" height="1.66"/><rect x="38.12" y="88.15" width="1.66" height="1.66"/><rect x="39.78" y="88.15" width="1.66" height="1.66"/><rect x="41.44" y="88.15" width="1.66" height="1.66"/><rect x="46.41" y="88.15" width="1.66" height="1.66"/><rect x="51.39" y="88.15" width="1.66" height="1.66"/><rect x="53.04" y="88.15" width="1.66" height="1.66"/><rect x="56.36" y="88.15" width="1.66" height="1.66"/><rect x="4.97" y="89.8" width="1.66" height="1.66"/><rect x="9.95" y="89.8" width="1.66" height="1.66"/><rect x="13.26" y="89.8" width="1.66" height="1.66"/><rect x="16.58" y="89.8" width="1.66" height="1.66"/><rect x="18.23" y="89.8" width="1.66" height="1.66"/><rect x="21.55" y="89.8" width="1.66" height="1.66"/><rect x="23.21" y="89.8" width="1.66" height="1.66"/><rect x="26.52" y="89.8" width="1.66" height="1.66"/><rect x="29.84" y="89.8" width="1.66" height="1.66"/><rect x="31.49" y="89.8" width="1.66" height="1.66"/><rect x="36.47" y="89.8" width="1.66" height="1.66"/><rect x="38.12" y="89.8" width="1.66" height="1.66"/><rect x="39.78" y="89.8" width="1.66" height="1.66"/><rect x="41.44" y="89.8" width="1.66" height="1.66"/><rect x="44.75" y="89.8" width="1.66" height="1.66"/><rect x="48.07" y="89.8" width="1.66" height="1.66"/><rect x="49.73" y="89.8" width="1.66" height="1.66"/><rect x="51.39" y="89.8" width="1.66" height="1.66"/><rect x="54.7" y="89.8" width="1.66" height="1.66"/><rect x="56.36" y="89.8" width="1.66" height="1.66"/><rect x="6.63" y="91.46" width="1.66" height="1.66"/><rect x="16.58" y="91.46" width="1.66" height="1.66"/><rect x="19.89" y="91.46" width="1.66" height="1.66"/><rect x="23.21" y="91.46" width="1.66" height="1.66"/><rect x="24.86" y="91.46" width="1.66" height="1.66"/><rect x="26.52" y="91.46" width="1.66" height="1.66"/><rect x="28.18" y="91.46" width="1.66" height="1.66"/><rect x="29.84" y="91.46" width="1.66" height="1.66"/><rect x="33.15" y="91.46" width="1.66" height="1.66"/><rect x="34.81" y="91.46" width="1.66" height="1.66"/><rect x="43.1" y="91.46" width="1.66" height="1.66"/><rect x="48.07" y="91.46" width="1.66" height="1.66"/><rect x="51.39" y="91.46" width="1.66" height="1.66"/><rect x="3.32" y="93.12" width="1.66" height="1.66"/><rect x="9.95" y="93.12" width="1.66" height="1.66"/><rect x="13.26" y="93.12" width="1.66" height="1.66"/><rect x="19.89" y="93.12" width="1.66" height="1.66"/><rect x="28.18" y="93.12" width="1.66" height="1.66"/><rect x="33.15" y="93.12" width="1.66" height="1.66"/><rect x="34.81" y="93.12" width="1.66" height="1.66"/><rect x="36.47" y="93.12" width="1.66" height="1.66"/><rect x="41.44" y="93.12" width="1.66" height="1.66"/><rect x="49.73" y="93.12" width="1.66" height="1.66"/><rect x="51.39" y="93.12" width="1.66" height="1.66"/><rect x="54.7" y="93.12" width="1.66" height="1.66"/><rect x="56.36" y="93.12" width="1.66" height="1.66"/><rect x="3.32" y="94.78" width="1.66" height="1.66"/><rect x="4.97" y="94.78" width="1.66" height="1.66"/><rect x="6.63" y="94.78" width="1.66" height="1.66"/><rect x="9.95" y="94.78" width="1.66" height="1.66"/><rect x="16.58" y="94.78" width="1.66" height="1.66"/><rect x="18.23" y="94.78" width="1.66" height="1.66"/><rect x="23.21" y="94.78" width="1.66" height="1.66"/><rect x="24.86" y="94.78" width="1.66" height="1.66"/><rect x="29.84" y="94.78" width="1.66" height="1.66"/><rect x="31.49" y="94.78" width="1.66" height="1.66"/><rect x="33.15" y="94.78" width="1.66" height="1.66"/><rect x="34.81" y="94.78" width="1.66" height="1.66"/><rect x="36.47" y="94.78" width="1.66" height="1.66"/><rect x="39.78" y="94.78" width="1.66" height="1.66"/><rect x="44.75" y="94.78" width="1.66" height="1.66"/><rect x="53.04" y="94.78" width="1.66" height="1.66"/><rect x="54.7" y="94.78" width="1.66" height="1.66"/><rect x="3.32" y="96.43" width="1.66" height="1.66"/><rect x="4.97" y="96.43" width="1.66" height="1.66"/><rect x="6.63" y="96.43" width="1.66" height="1.66"/><rect x="8.29" y="96.43" width="1.66" height="1.66"/><rect x="11.6" y="96.43" width="1.66" height="1.66"/><rect x="13.26" y="96.43" width="1.66" height="1.66"/><rect x="16.58" y="96.43" width="1.66" height="1.66"/><rect x="19.89" y="96.43" width="1.66" height="1.66"/><rect x="21.55" y="96.43" width="1.66" height="1.66"/><rect x="23.21" y="96.43" width="1.66" height="1.66"/><rect x="26.52" y="96.43" width="1.66" height="1.66"/><rect x="28.18" y="96.43" width="1.66" height="1.66"/><rect x="29.84" y="96.43" width="1.66" height="1.66"/><rect x="34.81" y="96.43" width="1.66" height="1.66"/><rect x="36.47" y="96.43" width="1.66" height="1.66"/><rect x="38.12" y="96.43" width="1.66" height="1.66"/><rect x="39.78" y="96.43" width="1.66" height="1.66"/><rect x="46.41" y="96.43" width="1.66" height="1.66"/><rect x="49.73" y="96.43" width="1.66" height="1.66"/><rect x="3.32" y="98.09" width="1.66" height="1.66"/><rect x="8.29" y="98.09" width="1.66" height="1.66"/><rect x="19.89" y="98.09" width="1.66" height="1.66"/><rect x="21.55" y="98.09" width="1.66" height="1.66"/><rect x="29.84" y="98.09" width="1.66" height="1.66"/><rect x="33.15" y="98.09" width="1.66" height="1.66"/><rect x="38.12" y="98.09" width="1.66" height="1.66"/><rect x="39.78" y="98.09" width="1.66" height="1.66"/><rect x="41.44" y="98.09" width="1.66" height="1.66"/><rect x="53.04" y="98.09" width="1.66" height="1.66"/><rect x="3.32" y="99.75" width="1.66" height="1.66"/><rect x="6.63" y="99.75" width="1.66" height="1.66"/><rect x="8.29" y="99.75" width="1.66" height="1.66"/><rect x="11.6" y="99.75" width="1.66" height="1.66"/><rect x="13.26" y="99.75" width="1.66" height="1.66"/><rect x="14.92" y="99.75" width="1.66" height="1.66"/><rect x="16.58" y="99.75" width="1.66" height="1.66"/><rect x="18.23" y="99.75" width="1.66" height="1.66"/><rect x="21.55" y="99.75" width="1.66" height="1.66"/><rect x="24.86" y="99.75" width="1.66" height="1.66"/><rect x="28.18" y="99.75" width="1.66" height="1.66"/><rect x="33.15" y="99.75" width="1.66" height="1.66"/><rect x="38.12" y="99.75" width="1.66" height="1.66"/><rect x="39.78" y="99.75" width="1.66" height="1.66"/><rect x="41.44" y="99.75" width="1.66" height="1.66"/><rect x="44.75" y="99.75" width="1.66" height="1.66"/><rect x="46.41" y="99.75" width="1.66" height="1.66"/><rect x="49.73" y="99.75" width="1.66" height="1.66"/><rect x="53.04" y="99.75" width="1.66" height="1.66"/><rect x="3.32" y="101.41" width="1.66" height="1.66"/><rect x="4.97" y="101.41" width="1.66" height="1.66"/><rect x="14.92" y="101.41" width="1.66" height="1.66"/><rect x="16.58" y="101.41" width="1.66" height="1.66"/><rect x="18.23" y="101.41" width="1.66" height="1.66"/><rect x="19.89" y="101.41" width="1.66" height="1.66"/><rect x="21.55" y="101.41" width="1.66" height="1.66"/><rect x="26.52" y="101.41" width="1.66" height="1.66"/><rect x="28.18" y="101.41" width="1.66" height="1.66"/><rect x="31.49" y="101.41" width="1.66" height="1.66"/><rect x="33.15" y="101.41" width="1.66" height="1.66"/><rect x="38.12" y="101.41" width="1.66" height="1.66"/><rect x="41.44" y="101.41" width="1.66" height="1.66"/><rect x="43.1" y="101.41" width="1.66" height="1.66"/><rect x="44.75" y="101.41" width="1.66" height="1.66"/><rect x="46.41" y="101.41" width="1.66" height="1.66"/><rect x="49.73" y="101.41" width="1.66" height="1.66"/><rect x="51.39" y="101.41" width="1.66" height="1.66"/><rect x="54.7" y="101.41" width="1.66" height="1.66"/><rect x="56.36" y="101.41" width="1.66" height="1.66"/><rect x="6.63" y="103.06" width="1.66" height="1.66"/><rect x="8.29" y="103.06" width="1.66" height="1.66"/><rect x="13.26" y="103.06" width="1.66" height="1.66"/><rect x="14.92" y="103.06" width="1.66" height="1.66"/><rect x="16.58" y="103.06" width="1.66" height="1.66"/><rect x="23.21" y="103.06" width="1.66" height="1.66"/><rect x="24.86" y="103.06" width="1.66" height="1.66"/><rect x="26.52" y="103.06" width="1.66" height="1.66"/><rect x="28.18" y="103.06" width="1.66" height="1.66"/><rect x="29.84" y="103.06" width="1.66" height="1.66"/><rect x="31.49" y="103.06" width="1.66" height="1.66"/><rect x="38.12" y="103.06" width="1.66" height="1.66"/><rect x="49.73" y="103.06" width="1.66" height="1.66"/><rect x="53.04" y="103.06" width="1.66" height="1.66"/><rect x="54.7" y="103.06" width="1.66" height="1.66"/><rect x="3.32" y="104.72" width="1.66" height="1.66"/><rect x="4.97" y="104.72" width="1.66" height="1.66"/><rect x="9.95" y="104.72" width="1.66" height="1.66"/><rect x="14.92" y="104.72" width="1.66" height="1.66"/><rect x="23.21" y="104.72" width="1.66" height="1.66"/><rect x="24.86" y="104.72" width="1.66" height="1.66"/><rect x="29.84" y="104.72" width="1.66" height="1.66"/><rect x="36.47" y="104.72" width="1.66" height="1.66"/><rect x="41.44" y="104.72" width="1.66" height="1.66"/><rect x="44.75" y="104.72" width="1.66" height="1.66"/><rect x="48.07" y="104.72" width="1.66" height="1.66"/><rect x="49.73" y="104.72" width="1.66" height="1.66"/><rect x="56.36" y="104.72" width="1.66" height="1.66"/><rect x="4.97" y="106.38" width="1.66" height="1.66"/><rect x="6.63" y="106.38" width="1.66" height="1.66"/><rect x="8.29" y="106.38" width="1.66" height="1.66"/><rect x="11.6" y="106.38" width="1.66" height="1.66"/><rect x="13.26" y="106.38" width="1.66" height="1.66"/><rect x="14.92" y="106.38" width="1.66" height="1.66"/><rect x="16.58" y="106.38" width="1.66" height="1.66"/><rect x="24.86" y="106.38" width="1.66" height="1.66"/><rect x="26.52" y="106.38" width="1.66" height="1.66"/><rect x="33.15" y="106.38" width="1.66" height="1.66"/><rect x="34.81" y="106.38" width="1.66" height="1.66"/><rect x="36.47" y="106.38" width="1.66" height="1.66"/><rect x="38.12" y="106.38" width="1.66" height="1.66"/><rect x="39.78" y="106.38" width="1.66" height="1.66"/><rect x="43.1" y="106.38" width="1.66" height="1.66"/><rect x="44.75" y="106.38" width="1.66" height="1.66"/><rect x="51.39" y="106.38" width="1.66" height="1.66"/><rect x="53.04" y="106.38" width="1.66" height="1.66"/><rect x="3.32" y="108.04" width="1.66" height="1.66"/><rect x="9.95" y="108.04" width="1.66" height="1.66"/><rect x="14.92" y="108.04" width="1.66" height="1.66"/><rect x="18.23" y="108.04" width="1.66" height="1.66"/><rect x="19.89" y="108.04" width="1.66" height="1.66"/><rect x="21.55" y="108.04" width="1.66" height="1.66"/><rect x="23.21" y="108.04" width="1.66" height="1.66"/><rect x="24.86" y="108.04" width="1.66" height="1.66"/><rect x="26.52" y="108.04" width="1.66" height="1.66"/><rect x="28.18" y="108.04" width="1.66" height="1.66"/><rect x="33.15" y="108.04" width="1.66" height="1.66"/><rect x="34.81" y="108.04" width="1.66" height="1.66"/><rect x="38.12" y="108.04" width="1.66" height="1.66"/><rect x="39.78" y="108.04" width="1.66" height="1.66"/><rect x="41.44" y="108.04" width="1.66" height="1.66"/><rect x="43.1" y="108.04" width="1.66" height="1.66"/><rect x="44.75" y="108.04" width="1.66" height="1.66"/><rect x="46.41" y="108.04" width="1.66" height="1.66"/><rect x="51.39" y="108.04" width="1.66" height="1.66"/><rect x="56.36" y="108.04" width="1.66" height="1.66"/><rect x="6.63" y="109.7" width="1.66" height="1.66"/><rect x="9.95" y="109.7" width="1.66" height="1.66"/><rect x="11.6" y="109.7" width="1.66" height="1.66"/><rect x="13.26" y="109.7" width="1.66" height="1.66"/><rect x="14.92" y="109.7" width="1.66" height="1.66"/><rect x="16.58" y="109.7" width="1.66" height="1.66"/><rect x="19.89" y="109.7" width="1.66" height="1.66"/><rect x="21.55" y="109.7" width="1.66" height="1.66"/><rect x="26.52" y="109.7" width="1.66" height="1.66"/><rect x="29.84" y="109.7" width="1.66" height="1.66"/><rect x="36.47" y="109.7" width="1.66" height="1.66"/><rect x="39.78" y="109.7" width="1.66" height="1.66"/><rect x="41.44" y="109.7" width="1.66" height="1.66"/><rect x="43.1" y="109.7" width="1.66" height="1.66"/><rect x="44.75" y="109.7" width="1.66" height="1.66"/><rect x="48.07" y="109.7" width="1.66" height="1.66"/><rect x="53.04" y="109.7" width="1.66" height="1.66"/><rect x="54.7" y="109.7" width="1.66" height="1.66"/><rect x="56.36" y="109.7" width="1.66" height="1.66"/><rect x="4.97" y="111.35" width="1.66" height="1.66"/><rect x="9.95" y="111.35" width="1.66" height="1.66"/><rect x="14.92" y="111.35" width="1.66" height="1.66"/><rect x="16.58" y="111.35" width="1.66" height="1.66"/><rect x="18.23" y="111.35" width="1.66" height="1.66"/><rect x="19.89" y="111.35" width="1.66" height="1.66"/><rect x="23.21" y="111.35" width="1.66" height="1.66"/><rect x="29.84" y="111.35" width="1.66" height="1.66"/><rect x="34.81" y="111.35" width="1.66" height="1.66"/><rect x="39.78" y="111.35" width="1.66" height="1.66"/><rect x="46.41" y="111.35" width="1.66" height="1.66"/><rect x="51.39" y="111.35" width="1.66" height="1.66"/><rect x="54.7" y="111.35" width="1.66" height="1.66"/><rect x="3.32" y="113.01" width="1.66" height="1.66"/><rect x="6.63" y="113.01" width="1.66" height="1.66"/><rect x="11.6" y="113.01" width="1.66" height="1.66"/><rect x="13.26" y="113.01" width="1.66" height="1.66"/><rect x="23.21" y="113.01" width="1.66" height="1.66"/><rect x="28.18" y="113.01" width="1.66" height="1.66"/><rect x="29.84" y="113.01" width="1.66" height="1.66"/><rect x="31.49" y="113.01" width="1.66" height="1.66"/><rect x="36.47" y="113.01" width="1.66" height="1.66"/><rect x="41.44" y="113.01" width="1.66" height="1.66"/><rect x="43.1" y="113.01" width="1.66" height="1.66"/><rect x="44.75" y="113.01" width="1.66" height="1.66"/><rect x="46.41" y="113.01" width="1.66" height="1.66"/><rect x="48.07" y="113.01" width="1.66" height="1.66"/><rect x="49.73" y="113.01" width="1.66" height="1.66"/><rect x="51.39" y="113.01" width="1.66" height="1.66"/><rect x="54.7" y="113.01" width="1.66" height="1.66"/><rect x="16.58" y="114.67" width="1.66" height="1.66"/><rect x="19.89" y="114.67" width="1.66" height="1.66"/><rect x="21.55" y="114.67" width="1.66" height="1.66"/><rect x="23.21" y="114.67" width="1.66" height="1.66"/><rect x="28.18" y="114.67" width="1.66" height="1.66"/><rect x="29.84" y="114.67" width="1.66" height="1.66"/><rect x="31.49" y="114.67" width="1.66" height="1.66"/><rect x="34.81" y="114.67" width="1.66" height="1.66"/><rect x="36.47" y="114.67" width="1.66" height="1.66"/><rect x="39.78" y="114.67" width="1.66" height="1.66"/><rect x="41.44" y="114.67" width="1.66" height="1.66"/><rect x="43.1" y="114.67" width="1.66" height="1.66"/><rect x="49.73" y="114.67" width="1.66" height="1.66"/><rect x="51.39" y="114.67" width="1.66" height="1.66"/><rect x="54.7" y="114.67" width="1.66" height="1.66"/><rect x="16.58" y="116.33" width="1.66" height="1.66"/><rect x="18.23" y="116.33" width="1.66" height="1.66"/><rect x="24.86" y="116.33" width="1.66" height="1.66"/><rect x="26.52" y="116.33" width="1.66" height="1.66"/><rect x="29.84" y="116.33" width="1.66" height="1.66"/><rect x="34.81" y="116.33" width="1.66" height="1.66"/><rect x="39.78" y="116.33" width="1.66" height="1.66"/><rect x="41.44" y="116.33" width="1.66" height="1.66"/><rect x="43.1" y="116.33" width="1.66" height="1.66"/><rect x="46.41" y="116.33" width="1.66" height="1.66"/><rect x="49.73" y="116.33" width="1.66" height="1.66"/><rect x="16.58" y="117.98" width="1.66" height="1.66"/><rect x="19.89" y="117.98" width="1.66" height="1.66"/><rect x="24.86" y="117.98" width="1.66" height="1.66"/><rect x="28.18" y="117.98" width="1.66" height="1.66"/><rect x="29.84" y="117.98" width="1.66" height="1.66"/><rect x="38.12" y="117.98" width="1.66" height="1.66"/><rect x="41.44" y="117.98" width="1.66" height="1.66"/><rect x="43.1" y="117.98" width="1.66" height="1.66"/><rect x="49.73" y="117.98" width="1.66" height="1.66"/><rect x="53.04" y="117.98" width="1.66" height="1.66"/><rect x="18.23" y="119.64" width="1.66" height="1.66"/><rect x="19.89" y="119.64" width="1.66" height="1.66"/><rect x="21.55" y="119.64" width="1.66" height="1.66"/><rect x="26.52" y="119.64" width="1.66" height="1.66"/><rect x="31.49" y="119.64" width="1.66" height="1.66"/><rect x="34.81" y="119.64" width="1.66" height="1.66"/><rect x="38.12" y="119.64" width="1.66" height="1.66"/><rect x="41.44" y="119.64" width="1.66" height="1.66"/><rect x="43.1" y="119.64" width="1.66" height="1.66"/><rect x="44.75" y="119.64" width="1.66" height="1.66"/><rect x="46.41" y="119.64" width="1.66" height="1.66"/><rect x="48.07" y="119.64" width="1.66" height="1.66"/><rect x="49.73" y="119.64" width="1.66" height="1.66"/><rect x="53.04" y="119.64" width="1.66" height="1.66"/><rect x="16.58" y="121.3" width="1.66" height="1.66"/><rect x="18.23" y="121.3" width="1.66" height="1.66"/><rect x="19.89" y="121.3" width="1.66" height="1.66"/><rect x="21.55" y="121.3" width="1.66" height="1.66"/><rect x="31.49" y="121.3" width="1.66" height="1.66"/><rect x="33.15" y="121.3" width="1.66" height="1.66"/><rect x="38.12" y="121.3" width="1.66" height="1.66"/><rect x="41.44" y="121.3" width="1.66" height="1.66"/><rect x="43.1" y="121.3" width="1.66" height="1.66"/><rect x="56.36" y="121.3" width="1.66" height="1.66"/><rect x="16.58" y="122.96" width="1.66" height="1.66"/><rect x="18.23" y="122.96" width="1.66" height="1.66"/><rect x="19.89" y="122.96" width="1.66" height="1.66"/><rect x="31.49" y="122.96" width="1.66" height="1.66"/><rect x="43.1" y="122.96" width="1.66" height="1.66"/><rect x="46.41" y="122.96" width="1.66" height="1.66"/><rect x="48.07" y="122.96" width="1.66" height="1.66"/><rect x="53.04" y="122.96" width="1.66" height="1.66"/><rect x="19.89" y="124.61" width="1.66" height="1.66"/><rect x="21.55" y="124.61" width="1.66" height="1.66"/><rect x="24.86" y="124.61" width="1.66" height="1.66"/><rect x="28.18" y="124.61" width="1.66" height="1.66"/><rect x="29.84" y="124.61" width="1.66" height="1.66"/><rect x="31.49" y="124.61" width="1.66" height="1.66"/><rect x="33.15" y="124.61" width="1.66" height="1.66"/><rect x="34.81" y="124.61" width="1.66" height="1.66"/><rect x="36.47" y="124.61" width="1.66" height="1.66"/><rect x="43.1" y="124.61" width="1.66" height="1.66"/><rect x="44.75" y="124.61" width="1.66" height="1.66"/><rect x="46.41" y="124.61" width="1.66" height="1.66"/><rect x="49.73" y="124.61" width="1.66" height="1.66"/><rect x="56.36" y="124.61" width="1.66" height="1.66"/><rect x="16.58" y="126.27" width="1.66" height="1.66"/><rect x="18.23" y="126.27" width="1.66" height="1.66"/><rect x="21.55" y="126.27" width="1.66" height="1.66"/><rect x="23.21" y="126.27" width="1.66" height="1.66"/><rect x="24.86" y="126.27" width="1.66" height="1.66"/><rect x="28.18" y="126.27" width="1.66" height="1.66"/><rect x="29.84" y="126.27" width="1.66" height="1.66"/><rect x="31.49" y="126.27" width="1.66" height="1.66"/><rect x="33.15" y="126.27" width="1.66" height="1.66"/><rect x="34.81" y="126.27" width="1.66" height="1.66"/><rect x="36.47" y="126.27" width="1.66" height="1.66"/><rect x="38.12" y="126.27" width="1.66" height="1.66"/><rect x="39.78" y="126.27" width="1.66" height="1.66"/><rect x="46.41" y="126.27" width="1.66" height="1.66"/><rect x="53.04" y="126.27" width="1.66" height="1.66"/><rect class="cls-1" x="5.06" y="74.97" width="8.12" height="8.12"/><path d="M18.85,78.05H9v11.6H20.59V78.05Zm0,9.86H10.72V79.79h8.13Z" transform="translate(-5.67 -4.82)"/><rect class="cls-1" x="48.15" y="74.97" width="8.12" height="8.12"/><path d="M61.94,78.05H52.08v11.6h11.6V78.05Zm0,9.86H53.82V79.79h8.12Z" transform="translate(-5.67 -4.82)"/><rect class="cls-1" x="5.06" y="118.07" width="8.12" height="8.12"/><path d="M18.85,121.14H9v11.61H20.59V121.14Zm0,9.87H10.72v-8.12h8.13Z" transform="translate(-5.67 -4.82)"/><rect x="6.63" y="76.54" width="4.97" height="4.97"/><rect x="49.73" y="76.54" width="4.97" height="4.97"/><rect x="6.63" y="119.64" width="4.97" height="4.97"/></g><g id="Isolationsmodus"><g class="cls-14"><path id="path3063" class="cls-11" d="M6.48,5.67H33.2a.82.82,0,0,1,.82.81V33.21a.82.82,0,0,1-.82.81H6.48a.81.81,0,0,1-.81-.81V6.48a.81.81,0,0,1,.81-.81" transform="translate(-5.67 -4.82)"/><path id="path3067" class="cls-15" d="M6.75,6.34H32.94a.41.41,0,0,1,.4.41V32.94a.4.4,0,0,1-.4.4H6.75a.41.41,0,0,1-.41-.4V6.75a.42.42,0,0,1,.41-.41" transform="translate(-5.67 -4.82)"/><path id="path3071" class="cls-11" d="M19.9,25.41c0,.7,0,5.14,0,5.14.06.19.25.43.08.59a.17.17,0,0,1-.13.07,4.15,4.15,0,0,1-1.27,0,.31.31,0,0,1-.21-.19c-.05-.32.18-.35.18-.56,0,0,0-2.4,0-4,0-.28-.42-.39-.23-.7a1.6,1.6,0,0,1,.87-.51c.15-.05.69-.12.7.13" transform="translate(-5.67 -4.82)"/><path id="path3075" class="cls-11" d="M27.05,27.51a2.49,2.49,0,0,1,.41,1.59c0,.46,0,.79.06,1.39,0,.2.36.41.14.65s-.42.09-.64.09-.94.1-1-.19.27-.36.23-.6a8.13,8.13,0,0,0-.14-2.16.34.34,0,0,0-.33-.21c-.09,0-.2.09-.2.16,0,.53,0,2.3,0,2.3.06.18.33.32.19.55s-.26.13-.4.16h-1a.32.32,0,0,1-.22-.17c-.1-.4.2-.32.21-.75,0-.8,0-1.34,0-2,0-.2-.34-.22-.32-.39a.34.34,0,0,1,.21-.28c.33-.13.65-.32,1-.43a.26.26,0,0,1,.3.16l0,0c.09.27.51-.25.82-.2a.89.89,0,0,1,.7.35" transform="translate(-5.67 -4.82)"/><path id="path3079" class="cls-11" d="M23.17,27.48a1.05,1.05,0,0,1,.22.74l0,2.09a.22.22,0,0,0,.16.15c.08,0,.15,0,.21,0s-.06.38-.17.54a.76.76,0,0,1-.72.3,1.1,1.1,0,0,1-.54-.31c-.19-.16-.46.24-.72.29a1.1,1.1,0,0,1-1.05-.33,1.31,1.31,0,0,1-.06-1.48c.34-.57.92-.6,1.47-.91.2-.11.21-.31.21-.5a.29.29,0,0,0-.13-.24.24.24,0,0,0-.27,0c-.09.1,0,.22,0,.35a.57.57,0,0,1-.39.38.67.67,0,0,1-.63-.05.7.7,0,0,1-.14-.71,1.16,1.16,0,0,1,.93-.69,1.6,1.6,0,0,1,1.62.38" transform="translate(-5.67 -4.82)"/><path id="path3083" class="cls-11" d="M17.72,28a2.63,2.63,0,0,1-.1,2.72,1.45,1.45,0,0,1-1.21.65,1.55,1.55,0,0,1-1.21-.85,2.66,2.66,0,0,1,.09-2.67,1.41,1.41,0,0,1,1.4-.66,1.55,1.55,0,0,1,1,.81" transform="translate(-5.67 -4.82)"/><path id="path3087" class="cls-11" d="M11.63,25.71a1.43,1.43,0,0,1,.43,1.37,1.3,1.3,0,0,1-.47.65,2.07,2.07,0,0,1,1,2,1.78,1.78,0,0,1-1.26,1.43,3.55,3.55,0,0,1-.55.09H8.65a.39.39,0,0,1-.3-.2c-.1-.21.22-.33.22-.56,0-1,0-2.72,0-2.72s0-1.05,0-1.84c0-.23-.35-.31-.23-.54a.44.44,0,0,1,.33-.22c1-.13,2.2-.25,3,.56" transform="translate(-5.67 -4.82)"/><path id="path3091" class="cls-11" d="M13.08,26.59a.68.68,0,0,1,.33-.89.68.68,0,0,1,.95.06.69.69,0,0,1-.33.89.69.69,0,0,1-.95-.06" transform="translate(-5.67 -4.82)"/><path id="path3095" class="cls-11" d="M14.43,27.53V30.6c.06.19.31.33.12.6s-.23.08-.38.09a5.85,5.85,0,0,1-1,0,.23.23,0,0,1-.21-.18c-.06-.19.13-.31.16-.48V28.39c0-.22-.33-.33-.22-.58s.79-.51,1-.54.46,0,.5.26" transform="translate(-5.67 -4.82)"/><path id="path3099" class="cls-11" d="M31.18,25.29c.14.17.07.47.07.7l0,4.29c.07.15.27.26.21.45a.45.45,0,0,1-.25.22,4.68,4.68,0,0,1-1,.35c-.12,0-.22-.13-.29-.22s-.1,0-.1,0a.43.43,0,0,1-.16.12.94.94,0,0,1-1-.06,2.14,2.14,0,0,1-.61-2.29,2.06,2.06,0,0,1,1.16-1.69.74.74,0,0,1,.66.1s.05,0,.06-.05a8.69,8.69,0,0,0,0-.92c0-.21-.33-.29-.2-.52a.77.77,0,0,1,.15-.13,4,4,0,0,1,1-.46.23.23,0,0,1,.26.07" transform="translate(-5.67 -4.82)"/></g><path class="cls-15" d="M10.62,26.4a1.11,1.11,0,0,1,0,.82.37.37,0,0,1-.45.19.13.13,0,0,1-.11-.15V26.08c0-.06,0-.09.13-.09s.36.15.46.41" transform="translate(-5.67 -4.82)"/><path class="cls-15" d="M10.82,28.73a1.49,1.49,0,0,1-.11,1.61.64.64,0,0,1-.54.1c-.13,0-.11-.1-.12-.39,0-.7,0-1.7,0-1.7s0-.11.12-.12c.31,0,.51.26.63.5" transform="translate(-5.67 -4.82)"/><path class="cls-15" d="M16.68,28.71a3.23,3.23,0,0,1,.44,1.34c0,.13,0,.29-.22.31s-.46-.26-.57-.45a2.63,2.63,0,0,1-.45-1.66.21.21,0,0,1,.32-.14,1.49,1.49,0,0,1,.48.6" transform="translate(-5.67 -4.82)"/><path class="cls-15" d="M22.21,29.12c0,.34,0,.7,0,1.05a.3.3,0,0,1-.22.23.29.29,0,0,1-.27,0,.68.68,0,0,1-.09-.68,1.15,1.15,0,0,1,.6-.55" transform="translate(-5.67 -4.82)"/><path class="cls-15" d="M29.83,28.11a4.54,4.54,0,0,1,.07,2c0,.14-.06.24-.18.28s-.22,0-.3-.22a2.36,2.36,0,0,1-.12-.75,3,3,0,0,1,.2-1.4c.08-.13.27-.18.33.05" transform="translate(-5.67 -4.82)"/></g><g id="_Ebene_" data-name="&lt;Ebene&gt;"><text class="cls-16" transform="translate(34.02 45.16)">500 g<tspan x="0" y="14.4">(1 kg = 5,00)</tspan></text></g></svg>