<?xml version="1.0" encoding="UTF-8" standalone="no"?><svg xmlns="http://www.w3.org/2000/svg" xmlns:xlink="http://www.w3.org/1999/xlink" contentScriptType="application/ecmascript" contentStyleType="text/css" height="648px" preserveAspectRatio="none" style="width:994px;height:648px;" version="1.1" viewBox="0 0 994 648" width="994px" zoomAndPan="magnify"><defs><filter height="300%" id="f13x9dkbhapqcf" width="300%" x="-1" y="-1"><feGaussianBlur result="blurOut" stdDeviation="2.0"/><feColorMatrix in="blurOut" result="blurOut2" type="matrix" values="0 0 0 0 0 0 0 0 0 0 0 0 0 0 0 0 0 0 .4 0"/><feOffset dx="4.0" dy="4.0" in="blurOut2" result="blurOut3"/><feBlend in="SourceGraphic" in2="blurOut3" mode="normal"/></filter></defs><g><rect fill="#FFFFFF" filter="url(#f13x9dkbhapqcf)" height="530.2578" style="stroke: #000000; stroke-width: 1.0;" width="10" x="46" y="69.4297"/><rect fill="#FFFFFF" filter="url(#f13x9dkbhapqcf)" height="521.2578" style="stroke: #000000; stroke-width: 1.0;" width="10" x="228" y="69.4297"/><rect fill="#FFFFFF" filter="url(#f13x9dkbhapqcf)" height="192.9297" style="stroke: #000000; stroke-width: 1.0;" width="10" x="233" y="397.7578"/><rect fill="#FFFFFF" filter="url(#f13x9dkbhapqcf)" height="150.7969" style="stroke: #000000; stroke-width: 1.0;" width="10" x="238" y="439.8906"/><rect fill="#FFFFFF" filter="url(#f13x9dkbhapqcf)" height="262.1953" style="stroke: #000000; stroke-width: 1.0;" width="10" x="575" y="98.5625"/><rect fill="#FFFFFF" filter="url(#f13x9dkbhapqcf)" height="203.9297" style="stroke: #000000; stroke-width: 1.0;" width="10" x="830" y="127.6953"/><rect fill="#FFFFFF" filter="url(#f13x9dkbhapqcf)" height="29.1328" style="stroke: #000000; stroke-width: 1.0;" width="10" x="931" y="532.4219"/><line style="stroke: #000000; stroke-width: 1.0; stroke-dasharray: 5.0,5.0;" x1="51" x2="51" y1="38.2969" y2="608.6875"/><line style="stroke: #000000; stroke-width: 1.0; stroke-dasharray: 5.0,5.0;" x1="232.5" x2="232.5" y1="38.2969" y2="608.6875"/><line style="stroke: #000000; stroke-width: 1.0; stroke-dasharray: 5.0,5.0;" x1="580" x2="580" y1="38.2969" y2="608.6875"/><line style="stroke: #000000; stroke-width: 1.0; stroke-dasharray: 5.0,5.0;" x1="835" x2="835" y1="38.2969" y2="608.6875"/><line style="stroke: #000000; stroke-width: 1.0; stroke-dasharray: 5.0,5.0;" x1="936" x2="936" y1="38.2969" y2="608.6875"/><rect fill="#FFFFFF" filter="url(#f13x9dkbhapqcf)" height="30.2969" style="stroke: #006400; stroke-width: 1.5;" width="82" x="8" y="3"/><text fill="#000000" font-family="sans-serif" font-size="14" font-weight="bold" lengthAdjust="spacingAndGlyphs" textLength="68" x="15" y="22.9951">Manager</text><rect fill="#FFFFFF" filter="url(#f13x9dkbhapqcf)" height="30.2969" style="stroke: #006400; stroke-width: 1.5;" width="82" x="8" y="607.6875"/><text fill="#000000" font-family="sans-serif" font-size="14" font-weight="bold" lengthAdjust="spacingAndGlyphs" textLength="68" x="15" y="627.6826">Manager</text><rect fill="#FFFFFF" filter="url(#f13x9dkbhapqcf)" height="30.2969" style="stroke: #006400; stroke-width: 1.5;" width="133" x="164.5" y="3"/><text fill="#000000" font-family="sans-serif" font-size="14" font-weight="bold" lengthAdjust="spacingAndGlyphs" textLength="119" x="171.5" y="22.9951">OrderAssistant</text><rect fill="#FFFFFF" filter="url(#f13x9dkbhapqcf)" height="30.2969" style="stroke: #006400; stroke-width: 1.5;" width="133" x="164.5" y="607.6875"/><text fill="#000000" font-family="sans-serif" font-size="14" font-weight="bold" lengthAdjust="spacingAndGlyphs" textLength="119" x="171.5" y="627.6826">OrderAssistant</text><rect fill="#FFFFFF" filter="url(#f13x9dkbhapqcf)" height="30.2969" style="stroke: #006400; stroke-width: 1.5;" width="164" x="496" y="3"/><text fill="#000000" font-family="sans-serif" font-size="14" font-weight="bold" lengthAdjust="spacingAndGlyphs" textLength="150" x="503" y="22.9951">OrderableProducts</text><rect fill="#FFFFFF" filter="url(#f13x9dkbhapqcf)" height="30.2969" style="stroke: #006400; stroke-width: 1.5;" width="164" x="496" y="607.6875"/><text fill="#000000" font-family="sans-serif" font-size="14" font-weight="bold" lengthAdjust="spacingAndGlyphs" textLength="150" x="503" y="627.6826">OrderableProducts</text><rect fill="#FFFFFF" filter="url(#f13x9dkbhapqcf)" height="30.2969" style="stroke: #006400; stroke-width: 1.5;" width="76" x="795" y="3"/><text fill="#000000" font-family="sans-serif" font-size="14" font-weight="bold" lengthAdjust="spacingAndGlyphs" textLength="62" x="802" y="22.9951">Product</text><rect fill="#FFFFFF" filter="url(#f13x9dkbhapqcf)" height="30.2969" style="stroke: #006400; stroke-width: 1.5;" width="76" x="795" y="607.6875"/><text fill="#000000" font-family="sans-serif" font-size="14" font-weight="bold" lengthAdjust="spacingAndGlyphs" textLength="62" x="802" y="627.6826">Product</text><rect fill="#FFFFFF" filter="url(#f13x9dkbhapqcf)" height="30.2969" style="stroke: #006400; stroke-width: 1.5;" width="98" x="885" y="3"/><text fill="#000000" font-family="sans-serif" font-size="14" font-weight="bold" lengthAdjust="spacingAndGlyphs" textLength="84" x="892" y="22.9951">Distributor</text><rect fill="#FFFFFF" filter="url(#f13x9dkbhapqcf)" height="30.2969" style="stroke: #006400; stroke-width: 1.5;" width="98" x="885" y="607.6875"/><text fill="#000000" font-family="sans-serif" font-size="14" font-weight="bold" lengthAdjust="spacingAndGlyphs" textLength="84" x="892" y="627.6826">Distributor</text><rect fill="#FFFFFF" filter="url(#f13x9dkbhapqcf)" height="530.2578" style="stroke: #000000; stroke-width: 1.0;" width="10" x="46" y="69.4297"/><rect fill="#FFFFFF" filter="url(#f13x9dkbhapqcf)" height="521.2578" style="stroke: #000000; stroke-width: 1.0;" width="10" x="228" y="69.4297"/><rect fill="#FFFFFF" filter="url(#f13x9dkbhapqcf)" height="192.9297" style="stroke: #000000; stroke-width: 1.0;" width="10" x="233" y="397.7578"/><rect fill="#FFFFFF" filter="url(#f13x9dkbhapqcf)" height="150.7969" style="stroke: #000000; stroke-width: 1.0;" width="10" x="238" y="439.8906"/><rect fill="#FFFFFF" filter="url(#f13x9dkbhapqcf)" height="262.1953" style="stroke: #000000; stroke-width: 1.0;" width="10" x="575" y="98.5625"/><rect fill="#FFFFFF" filter="url(#f13x9dkbhapqcf)" height="203.9297" style="stroke: #000000; stroke-width: 1.0;" width="10" x="830" y="127.6953"/><rect fill="#FFFFFF" filter="url(#f13x9dkbhapqcf)" height="29.1328" style="stroke: #000000; stroke-width: 1.0;" width="10" x="931" y="532.4219"/><polygon fill="#006400" points="216,65.4297,226,69.4297,216,73.4297,220,69.4297" style="stroke: #006400; stroke-width: 1.0;"/><line style="stroke: #006400; stroke-width: 1.0;" x1="56" x2="222" y1="69.4297" y2="69.4297"/><text fill="#000000" font-family="sans-serif" font-size="13" lengthAdjust="spacingAndGlyphs" textLength="106" x="63" y="64.3638">chooses product</text><polygon fill="#006400" points="563,94.5625,573,98.5625,563,102.5625,567,98.5625" style="stroke: #006400; stroke-width: 1.0;"/><line style="stroke: #006400; stroke-width: 1.0;" x1="238" x2="569" y1="98.5625" y2="98.5625"/><text fill="#000000" font-family="sans-serif" font-size="13" lengthAdjust="spacingAndGlyphs" textLength="189" x="245" y="93.4966">Request for prices for product</text><polygon fill="#006400" points="818,123.6953,828,127.6953,818,131.6953,822,127.6953" style="stroke: #006400; stroke-width: 1.0;"/><line style="stroke: #006400; stroke-width: 1.0;" x1="585" x2="824" y1="127.6953" y2="127.6953"/><text fill="#000000" font-family="sans-serif" font-size="13" lengthAdjust="spacingAndGlyphs" textLength="108" x="592" y="122.6294">Request for price</text><polygon fill="#006400" points="596,152.8281,586,156.8281,596,160.8281,592,156.8281" style="stroke: #006400; stroke-width: 1.0;"/><line style="stroke: #006400; stroke-width: 1.0;" x1="590" x2="829" y1="156.8281" y2="156.8281"/><text fill="#000000" font-family="sans-serif" font-size="13" lengthAdjust="spacingAndGlyphs" textLength="97" x="602" y="151.7622">Response price</text><polygon fill="#006400" points="249,181.9609,239,185.9609,249,189.9609,245,185.9609" style="stroke: #006400; stroke-width: 1.0;"/><line style="stroke: #006400; stroke-width: 1.0;" x1="243" x2="574" y1="185.9609" y2="185.9609"/><text fill="#000000" font-family="sans-serif" font-size="13" lengthAdjust="spacingAndGlyphs" textLength="178" x="255" y="180.895">Response prices for product</text><polygon fill="#006400" points="67,211.0938,57,215.0938,67,219.0938,63,215.0938" style="stroke: #006400; stroke-width: 1.0;"/><line style="stroke: #006400; stroke-width: 1.0;" x1="61" x2="227" y1="215.0938" y2="215.0938"/><text fill="#000000" font-family="sans-serif" font-size="13" lengthAdjust="spacingAndGlyphs" textLength="108" x="73" y="210.0278">Request quantity</text><polygon fill="#006400" points="216,240.2266,226,244.2266,216,248.2266,220,244.2266" style="stroke: #006400; stroke-width: 1.0;"/><line style="stroke: #006400; stroke-width: 1.0;" x1="56" x2="222" y1="244.2266" y2="244.2266"/><text fill="#000000" font-family="sans-serif" font-size="13" lengthAdjust="spacingAndGlyphs" textLength="118" x="63" y="239.1606">Response quantity</text><polygon fill="#006400" points="563,269.3594,573,273.3594,563,277.3594,567,273.3594" style="stroke: #006400; stroke-width: 1.0;"/><line style="stroke: #006400; stroke-width: 1.0;" x1="238" x2="569" y1="273.3594" y2="273.3594"/><text fill="#000000" font-family="sans-serif" font-size="13" lengthAdjust="spacingAndGlyphs" textLength="211" x="245" y="268.2935">Request minimum order quantity</text><polygon fill="#006400" points="818,298.4922,828,302.4922,818,306.4922,822,302.4922" style="stroke: #006400; stroke-width: 1.0;"/><line style="stroke: #006400; stroke-width: 1.0;" x1="585" x2="824" y1="302.4922" y2="302.4922"/><text fill="#000000" font-family="sans-serif" font-size="13" lengthAdjust="spacingAndGlyphs" textLength="211" x="592" y="297.4263">Request minimum order quantity</text><polygon fill="#006400" points="596,327.625,586,331.625,596,335.625,592,331.625" style="stroke: #006400; stroke-width: 1.0;"/><line style="stroke: #006400; stroke-width: 1.0;" x1="590" x2="834" y1="331.625" y2="331.625"/><text fill="#000000" font-family="sans-serif" font-size="13" lengthAdjust="spacingAndGlyphs" textLength="221" x="602" y="326.5591">Response minimum order quantity</text><polygon fill="#006400" points="249,356.7578,239,360.7578,249,364.7578,245,360.7578" style="stroke: #006400; stroke-width: 1.0;"/><line style="stroke: #006400; stroke-width: 1.0;" x1="243" x2="579" y1="360.7578" y2="360.7578"/><text fill="#000000" font-family="sans-serif" font-size="13" lengthAdjust="spacingAndGlyphs" textLength="221" x="255" y="355.6919">Response minimum order quantity</text><line style="stroke: #006400; stroke-width: 1.0;" x1="238" x2="285" y1="384.8906" y2="384.8906"/><line style="stroke: #006400; stroke-width: 1.0;" x1="285" x2="285" y1="384.8906" y2="397.8906"/><line style="stroke: #006400; stroke-width: 1.0;" x1="244" x2="285" y1="397.8906" y2="397.8906"/><polygon fill="#006400" points="254,393.8906,244,397.8906,254,401.8906,250,397.8906" style="stroke: #006400; stroke-width: 1.0;"/><text fill="#000000" font-family="sans-serif" font-size="13" lengthAdjust="spacingAndGlyphs" textLength="323" x="250" y="379.8247">checks if order quantity &gt; minimum order quantity</text><line style="stroke: #006400; stroke-width: 1.0;" x1="243" x2="290" y1="427.0234" y2="427.0234"/><line style="stroke: #006400; stroke-width: 1.0;" x1="290" x2="290" y1="427.0234" y2="440.0234"/><line style="stroke: #006400; stroke-width: 1.0;" x1="249" x2="290" y1="440.0234" y2="440.0234"/><polygon fill="#006400" points="259,436.0234,249,440.0234,259,444.0234,255,440.0234" style="stroke: #006400; stroke-width: 1.0;"/><text fill="#000000" font-family="sans-serif" font-size="13" lengthAdjust="spacingAndGlyphs" textLength="132" x="255" y="421.9575">chooses lowest price</text><polygon fill="#006400" points="67,470.1563,57,474.1563,67,478.1563,63,474.1563" style="stroke: #006400; stroke-width: 1.0;"/><line style="stroke: #006400; stroke-width: 1.0;" x1="61" x2="237" y1="474.1563" y2="474.1563"/><text fill="#000000" font-family="sans-serif" font-size="13" lengthAdjust="spacingAndGlyphs" textLength="138" x="73" y="469.0903">Request Confirmation</text><polygon fill="#006400" points="226,499.2891,236,503.2891,226,507.2891,230,503.2891" style="stroke: #006400; stroke-width: 1.0;"/><line style="stroke: #006400; stroke-width: 1.0;" x1="56" x2="232" y1="503.2891" y2="503.2891"/><text fill="#000000" font-family="sans-serif" font-size="13" lengthAdjust="spacingAndGlyphs" textLength="148" x="63" y="498.2231">Response Confirmation</text><polygon fill="#006400" points="919,528.4219,929,532.4219,919,536.4219,923,532.4219" style="stroke: #006400; stroke-width: 1.0;"/><line style="stroke: #006400; stroke-width: 1.0;" x1="248" x2="925" y1="532.4219" y2="532.4219"/><text fill="#000000" font-family="sans-serif" font-size="13" lengthAdjust="spacingAndGlyphs" textLength="89" x="255" y="527.356">Request EMail</text><polygon fill="#006400" points="259,557.5547,249,561.5547,259,565.5547,255,561.5547" style="stroke: #006400; stroke-width: 1.0;"/><line style="stroke: #006400; stroke-width: 1.0;" x1="253" x2="935" y1="561.5547" y2="561.5547"/><text fill="#000000" font-family="sans-serif" font-size="13" lengthAdjust="spacingAndGlyphs" textLength="99" x="265" y="556.4888">Response EMail</text><polygon fill="#006400" points="924,586.6875,934,590.6875,924,594.6875,928,590.6875" style="stroke: #006400; stroke-width: 1.0;"/><line style="stroke: #006400; stroke-width: 1.0;" x1="233" x2="930" y1="590.6875" y2="590.6875"/><text fill="#000000" font-family="sans-serif" font-size="13" lengthAdjust="spacingAndGlyphs" textLength="76" x="240" y="585.6216">sends order</text><!--
@startuml

skinparam linetype ortho
hide circle

skinparam participant{
    BorderColor darkgreen
    BackgroundColor white
    FontStyle bold
}

skinparam arrow{
    Color darkgreen
}

skinparam sequence{
    LifeLineBorderColor black
}

Manager -> OrderAssistant: chooses product
activate Manager
activate OrderAssistant
OrderAssistant -> OrderableProducts: Request for prices for product
activate OrderableProducts
OrderableProducts -> Product: Request for price
activate Product
OrderableProducts <- Product: Response price
OrderAssistant <- OrderableProducts: Response prices for product

Manager <- OrderAssistant: Request quantity
Manager -> OrderAssistant: Response quantity
OrderAssistant -> OrderableProducts: Request minimum order quantity
OrderableProducts -> Product: Request minimum order quantity
Product -> OrderableProducts: Response minimum order quantity
deactivate Product
OrderableProducts -> OrderAssistant: Response minimum order quantity
deactivate OrderableProducts

OrderAssistant -> OrderAssistant: checks if order quantity > minimum order quantity
activate OrderAssistant
OrderAssistant -> OrderAssistant: chooses lowest price
activate OrderAssistant
Manager <- OrderAssistant: Request Confirmation
Manager -> OrderAssistant: Response Confirmation
OrderAssistant -> Distributor: Request EMail
activate Distributor
OrderAssistant <- Distributor: Response EMail
deactivate Distributor
OrderAssistant -> Distributor: sends order
deactivate OrderAssistant
deactivate OrderAssistant
deactivate OrderAssistant

@enduml

PlantUML version 1.2018.12(Sun Oct 21 12:15:15 CEST 2018)
(GPL source distribution)
Java Runtime: OpenJDK Runtime Environment
JVM: OpenJDK 64-Bit Server VM
Java Version: 10.0.2+13-Debian-1
Operating System: Linux
OS Version: 4.18.0-parrot10-amd64
Default Encoding: UTF-8
Language: en
Country: US
--></g></svg>