<?xml version="1.0" encoding="UTF-8" standalone="no"?><svg xmlns="http://www.w3.org/2000/svg" xmlns:xlink="http://www.w3.org/1999/xlink" contentScriptType="application/ecmascript" contentStyleType="text/css" height="2031px" preserveAspectRatio="none" style="width:1377px;height:2031px;" version="1.1" viewBox="0 0 1377 2031" width="1377px" zoomAndPan="magnify"><defs><filter height="300%" id="feqbrjxm9gj5y" width="300%" x="-1" y="-1"><feGaussianBlur result="blurOut" stdDeviation="2.0"/><feColorMatrix in="blurOut" result="blurOut2" type="matrix" values="0 0 0 0 0 0 0 0 0 0 0 0 0 0 0 0 0 0 .4 0"/><feOffset dx="4.0" dy="4.0" in="blurOut2" result="blurOut3"/><feBlend in="SourceGraphic" in2="blurOut3" mode="normal"/></filter></defs><g><rect fill="#FFFFFF" filter="url(#feqbrjxm9gj5y)" height="1838.9688" style="stroke: #000000; stroke-width: 1.0;" width="10" x="62.5" y="96.2969"/><rect fill="#FFFFFF" filter="url(#feqbrjxm9gj5y)" height="1838.9688" style="stroke: #000000; stroke-width: 1.0;" width="10" x="241.5" y="96.2969"/><rect fill="#FFFFFF" filter="url(#feqbrjxm9gj5y)" height="1306.8438" style="stroke: #000000; stroke-width: 1.0;" width="10" x="408.5" y="175.6953"/><rect fill="#FFFFFF" filter="url(#feqbrjxm9gj5y)" height="1838.9688" style="stroke: #000000; stroke-width: 1.0;" width="10" x="696.5" y="96.2969"/><rect fill="#FFFFFF" filter="url(#feqbrjxm9gj5y)" height="1838.9688" style="stroke: #000000; stroke-width: 1.0;" width="10" x="893.5" y="96.2969"/><rect fill="#FFFFFF" filter="url(#feqbrjxm9gj5y)" height="1838.9688" style="stroke: #000000; stroke-width: 1.0;" width="10" x="1010.5" y="96.2969"/><rect fill="#FFFFFF" filter="url(#feqbrjxm9gj5y)" height="1692.3047" style="stroke: #000000; stroke-width: 1.0;" width="10" x="1149.5" y="204.8281"/><rect fill="#FFFFFF" filter="url(#feqbrjxm9gj5y)" height="1838.9688" style="stroke: #000000; stroke-width: 1.0;" width="10" x="1341.5" y="96.2969"/><line style="stroke: #000000; stroke-width: 1.0; stroke-dasharray: 5.0,5.0;" x1="67" x2="67" y1="86.2969" y2="1944.2656"/><line style="stroke: #000000; stroke-width: 1.0; stroke-dasharray: 5.0,5.0;" x1="246.5" x2="246.5" y1="86.2969" y2="1944.2656"/><line style="stroke: #000000; stroke-width: 1.0; stroke-dasharray: 5.0,5.0;" x1="413" x2="413" y1="86.2969" y2="1944.2656"/><line style="stroke: #000000; stroke-width: 1.0; stroke-dasharray: 5.0,5.0;" x1="701" x2="701" y1="86.2969" y2="1944.2656"/><line style="stroke: #000000; stroke-width: 1.0; stroke-dasharray: 5.0,5.0;" x1="898.5" x2="898.5" y1="86.2969" y2="1944.2656"/><line style="stroke: #000000; stroke-width: 1.0; stroke-dasharray: 5.0,5.0;" x1="1015.5" x2="1015.5" y1="86.2969" y2="1944.2656"/><line style="stroke: #000000; stroke-width: 1.0; stroke-dasharray: 5.0,5.0;" x1="1154.5" x2="1154.5" y1="86.2969" y2="1944.2656"/><line style="stroke: #000000; stroke-width: 1.0; stroke-dasharray: 5.0,5.0;" x1="1346" x2="1346" y1="86.2969" y2="1944.2656"/><text fill="#000000" font-family="sans-serif" font-size="14" lengthAdjust="spacingAndGlyphs" textLength="113" x="8" y="82.9951">HouseCustomer</text><ellipse cx="67.5" cy="13" fill="#FFFFFF" filter="url(#feqbrjxm9gj5y)" rx="8" ry="8" style="stroke: #000000; stroke-width: 2.0;"/><path d="M67.5,21 L67.5,48 M54.5,29 L80.5,29 M67.5,48 L54.5,63 M67.5,48 L80.5,63 " fill="none" filter="url(#feqbrjxm9gj5y)" style="stroke: #000000; stroke-width: 2.0;"/><text fill="#000000" font-family="sans-serif" font-size="14" lengthAdjust="spacingAndGlyphs" textLength="113" x="8" y="1956.2607">HouseCustomer</text><ellipse cx="67.5" cy="1969.5625" fill="#FFFFFF" filter="url(#feqbrjxm9gj5y)" rx="8" ry="8" style="stroke: #000000; stroke-width: 2.0;"/><path d="M67.5,1977.5625 L67.5,2004.5625 M54.5,1985.5625 L80.5,1985.5625 M67.5,2004.5625 L54.5,2019.5625 M67.5,2004.5625 L80.5,2019.5625 " fill="none" filter="url(#feqbrjxm9gj5y)" style="stroke: #000000; stroke-width: 2.0;"/><text fill="#000000" font-family="sans-serif" font-size="14" lengthAdjust="spacingAndGlyphs" textLength="30" x="228.5" y="82.9951">Staff</text><ellipse cx="246.5" cy="13" fill="#FFFFFF" filter="url(#feqbrjxm9gj5y)" rx="8" ry="8" style="stroke: #000000; stroke-width: 2.0;"/><path d="M246.5,21 L246.5,48 M233.5,29 L259.5,29 M246.5,48 L233.5,63 M246.5,48 L259.5,63 " fill="none" filter="url(#feqbrjxm9gj5y)" style="stroke: #000000; stroke-width: 2.0;"/><text fill="#000000" font-family="sans-serif" font-size="14" lengthAdjust="spacingAndGlyphs" textLength="30" x="228.5" y="1956.2607">Staff</text><ellipse cx="246.5" cy="1969.5625" fill="#FFFFFF" filter="url(#feqbrjxm9gj5y)" rx="8" ry="8" style="stroke: #000000; stroke-width: 2.0;"/><path d="M246.5,1977.5625 L246.5,2004.5625 M233.5,1985.5625 L259.5,1985.5625 M246.5,2004.5625 L233.5,2019.5625 M246.5,2004.5625 L259.5,2019.5625 " fill="none" filter="url(#feqbrjxm9gj5y)" style="stroke: #000000; stroke-width: 2.0;"/><rect fill="#FFFFFF" filter="url(#feqbrjxm9gj5y)" height="30.2969" style="stroke: #006400; stroke-width: 1.5;" width="121" x="351" y="51"/><text fill="#000000" font-family="sans-serif" font-size="14" font-weight="bold" lengthAdjust="spacingAndGlyphs" textLength="107" x="358" y="70.9951">ShoppingCart</text><rect fill="#FFFFFF" filter="url(#feqbrjxm9gj5y)" height="30.2969" style="stroke: #006400; stroke-width: 1.5;" width="121" x="351" y="1943.2656"/><text fill="#000000" font-family="sans-serif" font-size="14" font-weight="bold" lengthAdjust="spacingAndGlyphs" textLength="107" x="358" y="1963.2607">ShoppingCart</text><rect fill="#FFFFFF" filter="url(#feqbrjxm9gj5y)" height="30.2969" style="stroke: #006400; stroke-width: 1.5;" width="89" x="655" y="51"/><text fill="#000000" font-family="sans-serif" font-size="14" font-weight="bold" lengthAdjust="spacingAndGlyphs" textLength="75" x="662" y="70.9951">Inventory</text><rect fill="#FFFFFF" filter="url(#feqbrjxm9gj5y)" height="30.2969" style="stroke: #006400; stroke-width: 1.5;" width="89" x="655" y="1943.2656"/><text fill="#000000" font-family="sans-serif" font-size="14" font-weight="bold" lengthAdjust="spacingAndGlyphs" textLength="75" x="662" y="1963.2607">Inventory</text><rect fill="#FFFFFF" filter="url(#feqbrjxm9gj5y)" height="46.5938" style="stroke: #006400; stroke-width: 1.5;" width="88" x="852.5" y="34.7031"/><text fill="#000000" font-family="sans-serif" font-size="14" font-weight="bold" lengthAdjust="spacingAndGlyphs" textLength="30" x="879" y="54.6982">Milk</text><text fill="#000000" font-family="sans-serif" font-size="14" font-weight="bold" lengthAdjust="spacingAndGlyphs" textLength="74" x="859.5" y="70.9951">(Product)</text><rect fill="#FFFFFF" filter="url(#feqbrjxm9gj5y)" height="46.5938" style="stroke: #006400; stroke-width: 1.5;" width="88" x="852.5" y="1943.2656"/><text fill="#000000" font-family="sans-serif" font-size="14" font-weight="bold" lengthAdjust="spacingAndGlyphs" textLength="30" x="879" y="1963.2607">Milk</text><text fill="#000000" font-family="sans-serif" font-size="14" font-weight="bold" lengthAdjust="spacingAndGlyphs" textLength="74" x="859.5" y="1979.5576">(Product)</text><rect fill="#FFFFFF" filter="url(#feqbrjxm9gj5y)" height="46.5938" style="stroke: #006400; stroke-width: 1.5;" width="118" x="954.5" y="34.7031"/><text fill="#000000" font-family="sans-serif" font-size="14" font-weight="bold" lengthAdjust="spacingAndGlyphs" textLength="99" x="961.5" y="54.6982">Empty Bottle</text><text fill="#000000" font-family="sans-serif" font-size="14" font-weight="bold" lengthAdjust="spacingAndGlyphs" textLength="74" x="974" y="70.9951">(Product)</text><rect fill="#FFFFFF" filter="url(#feqbrjxm9gj5y)" height="46.5938" style="stroke: #006400; stroke-width: 1.5;" width="118" x="954.5" y="1943.2656"/><text fill="#000000" font-family="sans-serif" font-size="14" font-weight="bold" lengthAdjust="spacingAndGlyphs" textLength="99" x="961.5" y="1963.2607">Empty Bottle</text><text fill="#000000" font-family="sans-serif" font-size="14" font-weight="bold" lengthAdjust="spacingAndGlyphs" textLength="74" x="974" y="1979.5576">(Product)</text><rect fill="#FFFFFF" filter="url(#feqbrjxm9gj5y)" height="30.2969" style="stroke: #006400; stroke-width: 1.5;" width="132" x="1086.5" y="51"/><text fill="#000000" font-family="sans-serif" font-size="14" font-weight="bold" lengthAdjust="spacingAndGlyphs" textLength="118" x="1093.5" y="70.9951">CashierSystem</text><rect fill="#FFFFFF" filter="url(#feqbrjxm9gj5y)" height="30.2969" style="stroke: #006400; stroke-width: 1.5;" width="132" x="1086.5" y="1943.2656"/><text fill="#000000" font-family="sans-serif" font-size="14" font-weight="bold" lengthAdjust="spacingAndGlyphs" textLength="118" x="1093.5" y="1963.2607">CashierSystem</text><rect fill="#FFFFFF" filter="url(#feqbrjxm9gj5y)" height="30.2969" style="stroke: #006400; stroke-width: 1.5;" width="43" x="1323" y="51"/><text fill="#000000" font-family="sans-serif" font-size="14" font-weight="bold" lengthAdjust="spacingAndGlyphs" textLength="29" x="1330" y="70.9951">Log</text><rect fill="#FFFFFF" filter="url(#feqbrjxm9gj5y)" height="30.2969" style="stroke: #006400; stroke-width: 1.5;" width="43" x="1323" y="1943.2656"/><text fill="#000000" font-family="sans-serif" font-size="14" font-weight="bold" lengthAdjust="spacingAndGlyphs" textLength="29" x="1330" y="1963.2607">Log</text><rect fill="#FFFFFF" filter="url(#feqbrjxm9gj5y)" height="1838.9688" style="stroke: #000000; stroke-width: 1.0;" width="10" x="62.5" y="96.2969"/><rect fill="#FFFFFF" filter="url(#feqbrjxm9gj5y)" height="1838.9688" style="stroke: #000000; stroke-width: 1.0;" width="10" x="241.5" y="96.2969"/><rect fill="#FFFFFF" filter="url(#feqbrjxm9gj5y)" height="1306.8438" style="stroke: #000000; stroke-width: 1.0;" width="10" x="408.5" y="175.6953"/><rect fill="#FFFFFF" filter="url(#feqbrjxm9gj5y)" height="1838.9688" style="stroke: #000000; stroke-width: 1.0;" width="10" x="696.5" y="96.2969"/><rect fill="#FFFFFF" filter="url(#feqbrjxm9gj5y)" height="1838.9688" style="stroke: #000000; stroke-width: 1.0;" width="10" x="893.5" y="96.2969"/><rect fill="#FFFFFF" filter="url(#feqbrjxm9gj5y)" height="1838.9688" style="stroke: #000000; stroke-width: 1.0;" width="10" x="1010.5" y="96.2969"/><rect fill="#FFFFFF" filter="url(#feqbrjxm9gj5y)" height="1692.3047" style="stroke: #000000; stroke-width: 1.0;" width="10" x="1149.5" y="204.8281"/><rect fill="#FFFFFF" filter="url(#feqbrjxm9gj5y)" height="1838.9688" style="stroke: #000000; stroke-width: 1.0;" width="10" x="1341.5" y="96.2969"/><polygon fill="#006400" points="83.5,113.4297,73.5,117.4297,83.5,121.4297,79.5,117.4297" style="stroke: #006400; stroke-width: 1.0;"/><line style="stroke: #006400; stroke-width: 1.0;" x1="77.5" x2="240.5" y1="117.4297" y2="117.4297"/><text fill="#000000" font-family="sans-serif" font-size="13" font-weight="bold" lengthAdjust="spacingAndGlyphs" textLength="9" x="89.5" y="112.3638">1</text><text fill="#000000" font-family="sans-serif" font-size="13" lengthAdjust="spacingAndGlyphs" textLength="132" x="102.5" y="112.3638">Request customer id</text><polygon fill="#006400" points="229.5,142.5625,239.5,146.5625,229.5,150.5625,233.5,146.5625" style="stroke: #006400; stroke-width: 1.0;"/><line style="stroke: #006400; stroke-width: 1.0;" x1="72.5" x2="235.5" y1="146.5625" y2="146.5625"/><text fill="#000000" font-family="sans-serif" font-size="13" font-weight="bold" lengthAdjust="spacingAndGlyphs" textLength="9" x="79.5" y="141.4966">2</text><text fill="#000000" font-family="sans-serif" font-size="13" lengthAdjust="spacingAndGlyphs" textLength="76" x="92.5" y="141.4966">customer id</text><polygon fill="#006400" points="396.5,171.6953,406.5,175.6953,396.5,179.6953,400.5,175.6953" style="stroke: #006400; stroke-width: 1.0;"/><line style="stroke: #006400; stroke-width: 1.0;" x1="251.5" x2="402.5" y1="175.6953" y2="175.6953"/><text fill="#000000" font-family="sans-serif" font-size="13" font-weight="bold" lengthAdjust="spacingAndGlyphs" textLength="9" x="258.5" y="170.6294">3</text><text fill="#000000" font-family="sans-serif" font-size="13" lengthAdjust="spacingAndGlyphs" textLength="100" x="271.5" y="170.6294">set customer id</text><polygon fill="#006400" points="1137.5,200.8281,1147.5,204.8281,1137.5,208.8281,1141.5,204.8281" style="stroke: #006400; stroke-width: 1.0;"/><line style="stroke: #006400; stroke-width: 1.0;" x1="418.5" x2="1143.5" y1="204.8281" y2="204.8281"/><text fill="#000000" font-family="sans-serif" font-size="13" font-weight="bold" lengthAdjust="spacingAndGlyphs" textLength="9" x="425.5" y="199.7622">4</text><text fill="#000000" font-family="sans-serif" font-size="13" lengthAdjust="spacingAndGlyphs" textLength="160" x="438.5" y="199.7622">initialize with customer id</text><polygon fill="#006400" points="429.5,229.9609,419.5,233.9609,429.5,237.9609,425.5,233.9609" style="stroke: #006400; stroke-width: 1.0;"/><line style="stroke: #006400; stroke-width: 1.0; stroke-dasharray: 2.0,2.0;" x1="423.5" x2="1148.5" y1="233.9609" y2="233.9609"/><text fill="#000000" font-family="sans-serif" font-size="13" font-weight="bold" lengthAdjust="spacingAndGlyphs" textLength="9" x="435.5" y="228.895">5</text><text fill="#000000" font-family="sans-serif" font-size="13" lengthAdjust="spacingAndGlyphs" textLength="0" x="452.5" y="228.895"/><polygon fill="#006400" points="262.5,259.0938,252.5,263.0938,262.5,267.0938,258.5,263.0938" style="stroke: #006400; stroke-width: 1.0;"/><line style="stroke: #006400; stroke-width: 1.0; stroke-dasharray: 2.0,2.0;" x1="256.5" x2="407.5" y1="263.0938" y2="263.0938"/><text fill="#000000" font-family="sans-serif" font-size="13" font-weight="bold" lengthAdjust="spacingAndGlyphs" textLength="9" x="268.5" y="258.0278">6</text><text fill="#000000" font-family="sans-serif" font-size="13" lengthAdjust="spacingAndGlyphs" textLength="0" x="285.5" y="258.0278"/><polygon fill="#006400" points="229.5,288.2266,239.5,292.2266,229.5,296.2266,233.5,292.2266" style="stroke: #006400; stroke-width: 1.0;"/><line style="stroke: #006400; stroke-width: 1.0;" x1="72.5" x2="235.5" y1="292.2266" y2="292.2266"/><text fill="#000000" font-family="sans-serif" font-size="13" font-weight="bold" lengthAdjust="spacingAndGlyphs" textLength="9" x="79.5" y="287.1606">7</text><text fill="#000000" font-family="sans-serif" font-size="13" lengthAdjust="spacingAndGlyphs" textLength="61" x="92.5" y="287.1606">gives Milk</text><polygon fill="#006400" points="396.5,317.3594,406.5,321.3594,396.5,325.3594,400.5,321.3594" style="stroke: #006400; stroke-width: 1.0;"/><line style="stroke: #006400; stroke-width: 1.0;" x1="251.5" x2="402.5" y1="321.3594" y2="321.3594"/><text fill="#000000" font-family="sans-serif" font-size="13" font-weight="bold" lengthAdjust="spacingAndGlyphs" textLength="9" x="258.5" y="316.2935">8</text><text fill="#000000" font-family="sans-serif" font-size="13" lengthAdjust="spacingAndGlyphs" textLength="52" x="271.5" y="316.2935">add Milk</text><polygon fill="#006400" points="684.5,346.4922,694.5,350.4922,684.5,354.4922,688.5,350.4922" style="stroke: #006400; stroke-width: 1.0;"/><line style="stroke: #006400; stroke-width: 1.0;" x1="418.5" x2="690.5" y1="350.4922" y2="350.4922"/><text fill="#000000" font-family="sans-serif" font-size="13" font-weight="bold" lengthAdjust="spacingAndGlyphs" textLength="9" x="425.5" y="345.4263">9</text><text fill="#000000" font-family="sans-serif" font-size="13" lengthAdjust="spacingAndGlyphs" textLength="136" x="438.5" y="345.4263">Price Request for Milk</text><polygon fill="#006400" points="881.5,375.625,891.5,379.625,881.5,383.625,885.5,379.625" style="stroke: #006400; stroke-width: 1.0;"/><line style="stroke: #006400; stroke-width: 1.0;" x1="706.5" x2="887.5" y1="379.625" y2="379.625"/><text fill="#000000" font-family="sans-serif" font-size="13" font-weight="bold" lengthAdjust="spacingAndGlyphs" textLength="18" x="713.5" y="374.5591">10</text><text fill="#000000" font-family="sans-serif" font-size="13" lengthAdjust="spacingAndGlyphs" textLength="87" x="735.5" y="374.5591">Price Request</text><polygon fill="#006400" points="717.5,404.7578,707.5,408.7578,717.5,412.7578,713.5,408.7578" style="stroke: #006400; stroke-width: 1.0;"/><line style="stroke: #006400; stroke-width: 1.0;" x1="711.5" x2="892.5" y1="408.7578" y2="408.7578"/><text fill="#000000" font-family="sans-serif" font-size="13" font-weight="bold" lengthAdjust="spacingAndGlyphs" textLength="18" x="723.5" y="403.6919">11</text><text fill="#000000" font-family="sans-serif" font-size="13" lengthAdjust="spacingAndGlyphs" textLength="97" x="745.5" y="403.6919">Price Response</text><polygon fill="#006400" points="429.5,433.8906,419.5,437.8906,429.5,441.8906,425.5,437.8906" style="stroke: #006400; stroke-width: 1.0;"/><line style="stroke: #006400; stroke-width: 1.0;" x1="423.5" x2="695.5" y1="437.8906" y2="437.8906"/><text fill="#000000" font-family="sans-serif" font-size="13" font-weight="bold" lengthAdjust="spacingAndGlyphs" textLength="18" x="435.5" y="432.8247">12</text><text fill="#000000" font-family="sans-serif" font-size="13" lengthAdjust="spacingAndGlyphs" textLength="146" x="457.5" y="432.8247">Price Response for Milk</text><polygon fill="#006400" points="684.5,463.0234,694.5,467.0234,684.5,471.0234,688.5,467.0234" style="stroke: #006400; stroke-width: 1.0;"/><line style="stroke: #006400; stroke-width: 1.0;" x1="418.5" x2="690.5" y1="467.0234" y2="467.0234"/><text fill="#000000" font-family="sans-serif" font-size="13" font-weight="bold" lengthAdjust="spacingAndGlyphs" textLength="18" x="425.5" y="461.9575">13</text><text fill="#000000" font-family="sans-serif" font-size="13" lengthAdjust="spacingAndGlyphs" textLength="163" x="447.5" y="461.9575">Category Request for Milk</text><polygon fill="#006400" points="881.5,492.1563,891.5,496.1563,881.5,500.1563,885.5,496.1563" style="stroke: #006400; stroke-width: 1.0;"/><line style="stroke: #006400; stroke-width: 1.0;" x1="706.5" x2="887.5" y1="496.1563" y2="496.1563"/><text fill="#000000" font-family="sans-serif" font-size="13" font-weight="bold" lengthAdjust="spacingAndGlyphs" textLength="18" x="713.5" y="491.0903">14</text><text fill="#000000" font-family="sans-serif" font-size="13" lengthAdjust="spacingAndGlyphs" textLength="114" x="735.5" y="491.0903">Category Request</text><polygon fill="#006400" points="717.5,521.2891,707.5,525.2891,717.5,529.2891,713.5,525.2891" style="stroke: #006400; stroke-width: 1.0;"/><line style="stroke: #006400; stroke-width: 1.0;" x1="711.5" x2="892.5" y1="525.2891" y2="525.2891"/><text fill="#000000" font-family="sans-serif" font-size="13" font-weight="bold" lengthAdjust="spacingAndGlyphs" textLength="18" x="723.5" y="520.2231">15</text><text fill="#000000" font-family="sans-serif" font-size="13" lengthAdjust="spacingAndGlyphs" textLength="124" x="745.5" y="520.2231">Category Response</text><polygon fill="#006400" points="429.5,550.4219,419.5,554.4219,429.5,558.4219,425.5,554.4219" style="stroke: #006400; stroke-width: 1.0;"/><line style="stroke: #006400; stroke-width: 1.0;" x1="423.5" x2="695.5" y1="554.4219" y2="554.4219"/><text fill="#000000" font-family="sans-serif" font-size="13" font-weight="bold" lengthAdjust="spacingAndGlyphs" textLength="18" x="435.5" y="549.356">16</text><text fill="#000000" font-family="sans-serif" font-size="13" lengthAdjust="spacingAndGlyphs" textLength="173" x="457.5" y="549.356">Category Response for Milk</text><polygon fill="#006400" points="1137.5,579.5547,1147.5,583.5547,1137.5,587.5547,1141.5,583.5547" style="stroke: #006400; stroke-width: 1.0;"/><line style="stroke: #006400; stroke-width: 1.0;" x1="418.5" x2="1143.5" y1="583.5547" y2="583.5547"/><text fill="#000000" font-family="sans-serif" font-size="13" font-weight="bold" lengthAdjust="spacingAndGlyphs" textLength="18" x="425.5" y="578.4888">17</text><text fill="#000000" font-family="sans-serif" font-size="13" lengthAdjust="spacingAndGlyphs" textLength="112" x="447.5" y="578.4888">add product price</text><polygon fill="#006400" points="717.5,608.6875,707.5,612.6875,717.5,616.6875,713.5,612.6875" style="stroke: #006400; stroke-width: 1.0;"/><line style="stroke: #006400; stroke-width: 1.0;" x1="711.5" x2="1148.5" y1="612.6875" y2="612.6875"/><text fill="#000000" font-family="sans-serif" font-size="13" font-weight="bold" lengthAdjust="spacingAndGlyphs" textLength="18" x="723.5" y="607.6216">18</text><text fill="#000000" font-family="sans-serif" font-size="13" lengthAdjust="spacingAndGlyphs" textLength="222" x="745.5" y="607.6216">remove Milk from display inventory</text><polygon fill="#006400" points="881.5,637.8203,891.5,641.8203,881.5,645.8203,885.5,641.8203" style="stroke: #006400; stroke-width: 1.0;"/><line style="stroke: #006400; stroke-width: 1.0;" x1="706.5" x2="887.5" y1="641.8203" y2="641.8203"/><text fill="#000000" font-family="sans-serif" font-size="13" font-weight="bold" lengthAdjust="spacingAndGlyphs" textLength="18" x="713.5" y="636.7544">19</text><text fill="#000000" font-family="sans-serif" font-size="13" lengthAdjust="spacingAndGlyphs" textLength="141" x="735.5" y="636.7544">remove one displayed</text><polygon fill="#006400" points="717.5,666.9531,707.5,670.9531,717.5,674.9531,713.5,670.9531" style="stroke: #006400; stroke-width: 1.0;"/><line style="stroke: #006400; stroke-width: 1.0; stroke-dasharray: 2.0,2.0;" x1="711.5" x2="892.5" y1="670.9531" y2="670.9531"/><text fill="#000000" font-family="sans-serif" font-size="13" font-weight="bold" lengthAdjust="spacingAndGlyphs" textLength="18" x="723.5" y="665.8872">20</text><text fill="#000000" font-family="sans-serif" font-size="13" lengthAdjust="spacingAndGlyphs" textLength="0" x="749.5" y="665.8872"/><polygon fill="#006400" points="1137.5,696.0859,1147.5,700.0859,1137.5,704.0859,1141.5,700.0859" style="stroke: #006400; stroke-width: 1.0;"/><line style="stroke: #006400; stroke-width: 1.0; stroke-dasharray: 2.0,2.0;" x1="706.5" x2="1143.5" y1="700.0859" y2="700.0859"/><text fill="#000000" font-family="sans-serif" font-size="13" font-weight="bold" lengthAdjust="spacingAndGlyphs" textLength="18" x="713.5" y="695.02">21</text><text fill="#000000" font-family="sans-serif" font-size="13" lengthAdjust="spacingAndGlyphs" textLength="0" x="739.5" y="695.02"/><polygon fill="#006400" points="1329.5,725.2188,1339.5,729.2188,1329.5,733.2188,1333.5,729.2188" style="stroke: #006400; stroke-width: 1.0;"/><line style="stroke: #006400; stroke-width: 1.0;" x1="1159.5" x2="1335.5" y1="729.2188" y2="729.2188"/><text fill="#000000" font-family="sans-serif" font-size="13" font-weight="bold" lengthAdjust="spacingAndGlyphs" textLength="18" x="1166.5" y="724.1528">22</text><text fill="#000000" font-family="sans-serif" font-size="13" lengthAdjust="spacingAndGlyphs" textLength="75" x="1188.5" y="724.1528">log removal</text><polygon fill="#006400" points="1170.5,754.3516,1160.5,758.3516,1170.5,762.3516,1166.5,758.3516" style="stroke: #006400; stroke-width: 1.0;"/><line style="stroke: #006400; stroke-width: 1.0; stroke-dasharray: 2.0,2.0;" x1="1164.5" x2="1340.5" y1="758.3516" y2="758.3516"/><text fill="#000000" font-family="sans-serif" font-size="13" font-weight="bold" lengthAdjust="spacingAndGlyphs" textLength="18" x="1176.5" y="753.2856">23</text><text fill="#000000" font-family="sans-serif" font-size="13" lengthAdjust="spacingAndGlyphs" textLength="0" x="1202.5" y="753.2856"/><polygon fill="#006400" points="429.5,783.4844,419.5,787.4844,429.5,791.4844,425.5,787.4844" style="stroke: #006400; stroke-width: 1.0;"/><line style="stroke: #006400; stroke-width: 1.0; stroke-dasharray: 2.0,2.0;" x1="423.5" x2="1148.5" y1="787.4844" y2="787.4844"/><text fill="#000000" font-family="sans-serif" font-size="13" font-weight="bold" lengthAdjust="spacingAndGlyphs" textLength="18" x="435.5" y="782.4185">24</text><text fill="#000000" font-family="sans-serif" font-size="13" lengthAdjust="spacingAndGlyphs" textLength="0" x="461.5" y="782.4185"/><polygon fill="#006400" points="262.5,812.6172,252.5,816.6172,262.5,820.6172,258.5,816.6172" style="stroke: #006400; stroke-width: 1.0;"/><line style="stroke: #006400; stroke-width: 1.0; stroke-dasharray: 2.0,2.0;" x1="256.5" x2="407.5" y1="816.6172" y2="816.6172"/><text fill="#000000" font-family="sans-serif" font-size="13" font-weight="bold" lengthAdjust="spacingAndGlyphs" textLength="18" x="268.5" y="811.5513">25</text><text fill="#000000" font-family="sans-serif" font-size="13" lengthAdjust="spacingAndGlyphs" textLength="0" x="294.5" y="811.5513"/><polygon fill="#006400" points="229.5,841.75,239.5,845.75,229.5,849.75,233.5,845.75" style="stroke: #006400; stroke-width: 1.0;"/><line style="stroke: #006400; stroke-width: 1.0;" x1="72.5" x2="235.5" y1="845.75" y2="845.75"/><text fill="#000000" font-family="sans-serif" font-size="13" font-weight="bold" lengthAdjust="spacingAndGlyphs" textLength="18" x="79.5" y="840.6841">26</text><text fill="#000000" font-family="sans-serif" font-size="13" lengthAdjust="spacingAndGlyphs" textLength="120" x="101.5" y="840.6841">gives Empty Bottle</text><polygon fill="#006400" points="396.5,870.8828,406.5,874.8828,396.5,878.8828,400.5,874.8828" style="stroke: #006400; stroke-width: 1.0;"/><line style="stroke: #006400; stroke-width: 1.0;" x1="251.5" x2="402.5" y1="874.8828" y2="874.8828"/><text fill="#000000" font-family="sans-serif" font-size="13" font-weight="bold" lengthAdjust="spacingAndGlyphs" textLength="18" x="258.5" y="869.8169">27</text><text fill="#000000" font-family="sans-serif" font-size="13" lengthAdjust="spacingAndGlyphs" textLength="111" x="280.5" y="869.8169">add Empty Bottle</text><polygon fill="#006400" points="684.5,900.0156,694.5,904.0156,684.5,908.0156,688.5,904.0156" style="stroke: #006400; stroke-width: 1.0;"/><line style="stroke: #006400; stroke-width: 1.0;" x1="418.5" x2="690.5" y1="904.0156" y2="904.0156"/><text fill="#000000" font-family="sans-serif" font-size="13" font-weight="bold" lengthAdjust="spacingAndGlyphs" textLength="18" x="425.5" y="898.9497">28</text><text fill="#000000" font-family="sans-serif" font-size="13" lengthAdjust="spacingAndGlyphs" textLength="195" x="447.5" y="898.9497">Price Request for Empty Bottle</text><polygon fill="#006400" points="998.5,929.1484,1008.5,933.1484,998.5,937.1484,1002.5,933.1484" style="stroke: #006400; stroke-width: 1.0;"/><line style="stroke: #006400; stroke-width: 1.0;" x1="706.5" x2="1004.5" y1="933.1484" y2="933.1484"/><text fill="#000000" font-family="sans-serif" font-size="13" font-weight="bold" lengthAdjust="spacingAndGlyphs" textLength="18" x="713.5" y="928.0825">29</text><text fill="#000000" font-family="sans-serif" font-size="13" lengthAdjust="spacingAndGlyphs" textLength="87" x="735.5" y="928.0825">Price Request</text><polygon fill="#006400" points="717.5,958.2813,707.5,962.2813,717.5,966.2813,713.5,962.2813" style="stroke: #006400; stroke-width: 1.0;"/><line style="stroke: #006400; stroke-width: 1.0;" x1="711.5" x2="1009.5" y1="962.2813" y2="962.2813"/><text fill="#000000" font-family="sans-serif" font-size="13" font-weight="bold" lengthAdjust="spacingAndGlyphs" textLength="18" x="723.5" y="957.2153">30</text><text fill="#000000" font-family="sans-serif" font-size="13" lengthAdjust="spacingAndGlyphs" textLength="97" x="745.5" y="957.2153">Price Response</text><polygon fill="#006400" points="429.5,987.4141,419.5,991.4141,429.5,995.4141,425.5,991.4141" style="stroke: #006400; stroke-width: 1.0;"/><line style="stroke: #006400; stroke-width: 1.0;" x1="423.5" x2="695.5" y1="991.4141" y2="991.4141"/><text fill="#000000" font-family="sans-serif" font-size="13" font-weight="bold" lengthAdjust="spacingAndGlyphs" textLength="18" x="435.5" y="986.3481">31</text><text fill="#000000" font-family="sans-serif" font-size="13" lengthAdjust="spacingAndGlyphs" textLength="205" x="457.5" y="986.3481">Price Response for Empty Bottle</text><polygon fill="#006400" points="684.5,1016.5469,694.5,1020.5469,684.5,1024.5469,688.5,1020.5469" style="stroke: #006400; stroke-width: 1.0;"/><line style="stroke: #006400; stroke-width: 1.0;" x1="418.5" x2="690.5" y1="1020.5469" y2="1020.5469"/><text fill="#000000" font-family="sans-serif" font-size="13" font-weight="bold" lengthAdjust="spacingAndGlyphs" textLength="18" x="425.5" y="1015.481">32</text><text fill="#000000" font-family="sans-serif" font-size="13" lengthAdjust="spacingAndGlyphs" textLength="222" x="447.5" y="1015.481">Category Request for Empty Bottle</text><polygon fill="#006400" points="998.5,1045.6797,1008.5,1049.6797,998.5,1053.6797,1002.5,1049.6797" style="stroke: #006400; stroke-width: 1.0;"/><line style="stroke: #006400; stroke-width: 1.0;" x1="706.5" x2="1004.5" y1="1049.6797" y2="1049.6797"/><text fill="#000000" font-family="sans-serif" font-size="13" font-weight="bold" lengthAdjust="spacingAndGlyphs" textLength="18" x="713.5" y="1044.6138">33</text><text fill="#000000" font-family="sans-serif" font-size="13" lengthAdjust="spacingAndGlyphs" textLength="114" x="735.5" y="1044.6138">Category Request</text><polygon fill="#006400" points="717.5,1074.8125,707.5,1078.8125,717.5,1082.8125,713.5,1078.8125" style="stroke: #006400; stroke-width: 1.0;"/><line style="stroke: #006400; stroke-width: 1.0;" x1="711.5" x2="1009.5" y1="1078.8125" y2="1078.8125"/><text fill="#000000" font-family="sans-serif" font-size="13" font-weight="bold" lengthAdjust="spacingAndGlyphs" textLength="18" x="723.5" y="1073.7466">34</text><text fill="#000000" font-family="sans-serif" font-size="13" lengthAdjust="spacingAndGlyphs" textLength="124" x="745.5" y="1073.7466">Category Response</text><polygon fill="#006400" points="429.5,1103.9453,419.5,1107.9453,429.5,1111.9453,425.5,1107.9453" style="stroke: #006400; stroke-width: 1.0;"/><line style="stroke: #006400; stroke-width: 1.0;" x1="423.5" x2="695.5" y1="1107.9453" y2="1107.9453"/><text fill="#000000" font-family="sans-serif" font-size="13" font-weight="bold" lengthAdjust="spacingAndGlyphs" textLength="18" x="435.5" y="1102.8794">35</text><text fill="#000000" font-family="sans-serif" font-size="13" lengthAdjust="spacingAndGlyphs" textLength="232" x="457.5" y="1102.8794">Category Response for Empty Bottle</text><polygon fill="#006400" points="1137.5,1133.0781,1147.5,1137.0781,1137.5,1141.0781,1141.5,1137.0781" style="stroke: #006400; stroke-width: 1.0;"/><line style="stroke: #006400; stroke-width: 1.0;" x1="418.5" x2="1143.5" y1="1137.0781" y2="1137.0781"/><text fill="#000000" font-family="sans-serif" font-size="13" font-weight="bold" lengthAdjust="spacingAndGlyphs" textLength="18" x="425.5" y="1132.0122">36</text><text fill="#000000" font-family="sans-serif" font-size="13" lengthAdjust="spacingAndGlyphs" textLength="112" x="447.5" y="1132.0122">add product price</text><polygon fill="#006400" points="717.5,1162.2109,707.5,1166.2109,717.5,1170.2109,713.5,1166.2109" style="stroke: #006400; stroke-width: 1.0;"/><line style="stroke: #006400; stroke-width: 1.0;" x1="711.5" x2="1148.5" y1="1166.2109" y2="1166.2109"/><text fill="#000000" font-family="sans-serif" font-size="13" font-weight="bold" lengthAdjust="spacingAndGlyphs" textLength="18" x="723.5" y="1161.145">37</text><text fill="#000000" font-family="sans-serif" font-size="13" lengthAdjust="spacingAndGlyphs" textLength="281" x="745.5" y="1161.145">remove Empty Bottle from display inventory</text><polygon fill="#006400" points="998.5,1191.3438,1008.5,1195.3438,998.5,1199.3438,1002.5,1195.3438" style="stroke: #006400; stroke-width: 1.0;"/><line style="stroke: #006400; stroke-width: 1.0;" x1="706.5" x2="1004.5" y1="1195.3438" y2="1195.3438"/><text fill="#000000" font-family="sans-serif" font-size="13" font-weight="bold" lengthAdjust="spacingAndGlyphs" textLength="18" x="713.5" y="1190.2778">38</text><text fill="#000000" font-family="sans-serif" font-size="13" lengthAdjust="spacingAndGlyphs" textLength="141" x="735.5" y="1190.2778">remove one displayed</text><polygon fill="#006400" points="717.5,1220.4766,707.5,1224.4766,717.5,1228.4766,713.5,1224.4766" style="stroke: #006400; stroke-width: 1.0;"/><line style="stroke: #006400; stroke-width: 1.0; stroke-dasharray: 2.0,2.0;" x1="711.5" x2="1009.5" y1="1224.4766" y2="1224.4766"/><text fill="#000000" font-family="sans-serif" font-size="13" font-weight="bold" lengthAdjust="spacingAndGlyphs" textLength="18" x="723.5" y="1219.4106">39</text><text fill="#000000" font-family="sans-serif" font-size="13" lengthAdjust="spacingAndGlyphs" textLength="0" x="749.5" y="1219.4106"/><polygon fill="#006400" points="1137.5,1249.6094,1147.5,1253.6094,1137.5,1257.6094,1141.5,1253.6094" style="stroke: #006400; stroke-width: 1.0;"/><line style="stroke: #006400; stroke-width: 1.0; stroke-dasharray: 2.0,2.0;" x1="706.5" x2="1143.5" y1="1253.6094" y2="1253.6094"/><text fill="#000000" font-family="sans-serif" font-size="13" font-weight="bold" lengthAdjust="spacingAndGlyphs" textLength="18" x="713.5" y="1248.5435">40</text><text fill="#000000" font-family="sans-serif" font-size="13" lengthAdjust="spacingAndGlyphs" textLength="0" x="739.5" y="1248.5435"/><polygon fill="#006400" points="1329.5,1278.7422,1339.5,1282.7422,1329.5,1286.7422,1333.5,1282.7422" style="stroke: #006400; stroke-width: 1.0;"/><line style="stroke: #006400; stroke-width: 1.0;" x1="1159.5" x2="1335.5" y1="1282.7422" y2="1282.7422"/><text fill="#000000" font-family="sans-serif" font-size="13" font-weight="bold" lengthAdjust="spacingAndGlyphs" textLength="18" x="1166.5" y="1277.6763">41</text><text fill="#000000" font-family="sans-serif" font-size="13" lengthAdjust="spacingAndGlyphs" textLength="75" x="1188.5" y="1277.6763">log removal</text><polygon fill="#006400" points="1170.5,1307.875,1160.5,1311.875,1170.5,1315.875,1166.5,1311.875" style="stroke: #006400; stroke-width: 1.0;"/><line style="stroke: #006400; stroke-width: 1.0; stroke-dasharray: 2.0,2.0;" x1="1164.5" x2="1340.5" y1="1311.875" y2="1311.875"/><text fill="#000000" font-family="sans-serif" font-size="13" font-weight="bold" lengthAdjust="spacingAndGlyphs" textLength="18" x="1176.5" y="1306.8091">42</text><text fill="#000000" font-family="sans-serif" font-size="13" lengthAdjust="spacingAndGlyphs" textLength="0" x="1202.5" y="1306.8091"/><polygon fill="#006400" points="429.5,1337.0078,419.5,1341.0078,429.5,1345.0078,425.5,1341.0078" style="stroke: #006400; stroke-width: 1.0;"/><line style="stroke: #006400; stroke-width: 1.0; stroke-dasharray: 2.0,2.0;" x1="423.5" x2="1148.5" y1="1341.0078" y2="1341.0078"/><text fill="#000000" font-family="sans-serif" font-size="13" font-weight="bold" lengthAdjust="spacingAndGlyphs" textLength="18" x="435.5" y="1335.9419">43</text><text fill="#000000" font-family="sans-serif" font-size="13" lengthAdjust="spacingAndGlyphs" textLength="0" x="461.5" y="1335.9419"/><polygon fill="#006400" points="262.5,1366.1406,252.5,1370.1406,262.5,1374.1406,258.5,1370.1406" style="stroke: #006400; stroke-width: 1.0;"/><line style="stroke: #006400; stroke-width: 1.0; stroke-dasharray: 2.0,2.0;" x1="256.5" x2="407.5" y1="1370.1406" y2="1370.1406"/><text fill="#000000" font-family="sans-serif" font-size="13" font-weight="bold" lengthAdjust="spacingAndGlyphs" textLength="18" x="268.5" y="1365.0747">44</text><text fill="#000000" font-family="sans-serif" font-size="13" lengthAdjust="spacingAndGlyphs" textLength="0" x="294.5" y="1365.0747"/><polygon fill="#006400" points="1137.5,1420.2734,1147.5,1424.2734,1137.5,1428.2734,1141.5,1424.2734" style="stroke: #006400; stroke-width: 1.0;"/><line style="stroke: #006400; stroke-width: 1.0;" x1="251.5" x2="1143.5" y1="1424.2734" y2="1424.2734"/><text fill="#000000" font-family="sans-serif" font-size="13" font-weight="bold" lengthAdjust="spacingAndGlyphs" textLength="18" x="258.5" y="1419.2075">45</text><text fill="#000000" font-family="sans-serif" font-size="13" lengthAdjust="spacingAndGlyphs" textLength="85" x="280.5" y="1419.2075">Scan finished</text><polygon fill="#006400" points="429.5,1449.4063,419.5,1453.4063,429.5,1457.4063,425.5,1453.4063" style="stroke: #006400; stroke-width: 1.0;"/><line style="stroke: #006400; stroke-width: 1.0;" x1="423.5" x2="1148.5" y1="1453.4063" y2="1453.4063"/><text fill="#000000" font-family="sans-serif" font-size="13" font-weight="bold" lengthAdjust="spacingAndGlyphs" textLength="18" x="435.5" y="1448.3403">46</text><text fill="#000000" font-family="sans-serif" font-size="13" lengthAdjust="spacingAndGlyphs" textLength="105" x="457.5" y="1448.3403">Product Request</text><polygon fill="#006400" points="1137.5,1478.5391,1147.5,1482.5391,1137.5,1486.5391,1141.5,1482.5391" style="stroke: #006400; stroke-width: 1.0;"/><line style="stroke: #006400; stroke-width: 1.0;" x1="413.5" x2="1143.5" y1="1482.5391" y2="1482.5391"/><text fill="#000000" font-family="sans-serif" font-size="13" font-weight="bold" lengthAdjust="spacingAndGlyphs" textLength="18" x="420.5" y="1477.4731">47</text><text fill="#000000" font-family="sans-serif" font-size="13" lengthAdjust="spacingAndGlyphs" textLength="115" x="442.5" y="1477.4731">Product Response</text><line style="stroke: #006400; stroke-width: 1.0;" x1="1159.5" x2="1201.5" y1="1511.6719" y2="1511.6719"/><line style="stroke: #006400; stroke-width: 1.0;" x1="1201.5" x2="1201.5" y1="1511.6719" y2="1524.6719"/><line style="stroke: #006400; stroke-width: 1.0;" x1="1160.5" x2="1201.5" y1="1524.6719" y2="1524.6719"/><polygon fill="#006400" points="1170.5,1520.6719,1160.5,1524.6719,1170.5,1528.6719,1166.5,1524.6719" style="stroke: #006400; stroke-width: 1.0;"/><text fill="#000000" font-family="sans-serif" font-size="13" font-weight="bold" lengthAdjust="spacingAndGlyphs" textLength="18" x="1166.5" y="1506.606">48</text><text fill="#000000" font-family="sans-serif" font-size="13" lengthAdjust="spacingAndGlyphs" textLength="123" x="1188.5" y="1506.606">Sum of base prices</text><line style="stroke: #006400; stroke-width: 1.0;" x1="1159.5" x2="1201.5" y1="1553.8047" y2="1553.8047"/><line style="stroke: #006400; stroke-width: 1.0;" x1="1201.5" x2="1201.5" y1="1553.8047" y2="1566.8047"/><line style="stroke: #006400; stroke-width: 1.0;" x1="1160.5" x2="1201.5" y1="1566.8047" y2="1566.8047"/><polygon fill="#006400" points="1170.5,1562.8047,1160.5,1566.8047,1170.5,1570.8047,1166.5,1566.8047" style="stroke: #006400; stroke-width: 1.0;"/><text fill="#000000" font-family="sans-serif" font-size="13" font-weight="bold" lengthAdjust="spacingAndGlyphs" textLength="18" x="1166.5" y="1548.7388">49</text><text fill="#000000" font-family="sans-serif" font-size="13" lengthAdjust="spacingAndGlyphs" textLength="146" x="1188.5" y="1548.7388">Calculate with discount</text><line style="stroke: #006400; stroke-width: 1.0;" x1="1159.5" x2="1201.5" y1="1595.9375" y2="1595.9375"/><line style="stroke: #006400; stroke-width: 1.0;" x1="1201.5" x2="1201.5" y1="1595.9375" y2="1608.9375"/><line style="stroke: #006400; stroke-width: 1.0;" x1="1160.5" x2="1201.5" y1="1608.9375" y2="1608.9375"/><polygon fill="#006400" points="1170.5,1604.9375,1160.5,1608.9375,1170.5,1612.9375,1166.5,1608.9375" style="stroke: #006400; stroke-width: 1.0;"/><text fill="#000000" font-family="sans-serif" font-size="13" font-weight="bold" lengthAdjust="spacingAndGlyphs" textLength="18" x="1166.5" y="1590.8716">50</text><text fill="#000000" font-family="sans-serif" font-size="13" lengthAdjust="spacingAndGlyphs" textLength="130" x="1188.5" y="1590.8716">Calculate with MwSt.</text><line style="stroke: #006400; stroke-width: 1.0;" x1="1159.5" x2="1201.5" y1="1638.0703" y2="1638.0703"/><line style="stroke: #006400; stroke-width: 1.0;" x1="1201.5" x2="1201.5" y1="1638.0703" y2="1651.0703"/><line style="stroke: #006400; stroke-width: 1.0;" x1="1160.5" x2="1201.5" y1="1651.0703" y2="1651.0703"/><polygon fill="#006400" points="1170.5,1647.0703,1160.5,1651.0703,1170.5,1655.0703,1166.5,1651.0703" style="stroke: #006400; stroke-width: 1.0;"/><text fill="#000000" font-family="sans-serif" font-size="13" font-weight="bold" lengthAdjust="spacingAndGlyphs" textLength="18" x="1166.5" y="1633.0044">51</text><text fill="#000000" font-family="sans-serif" font-size="13" lengthAdjust="spacingAndGlyphs" textLength="128" x="1188.5" y="1633.0044">add/substract Pfand</text><polygon fill="#006400" points="262.5,1676.2031,252.5,1680.2031,262.5,1684.2031,258.5,1680.2031" style="stroke: #006400; stroke-width: 1.0;"/><line style="stroke: #006400; stroke-width: 1.0;" x1="256.5" x2="1148.5" y1="1680.2031" y2="1680.2031"/><text fill="#000000" font-family="sans-serif" font-size="13" font-weight="bold" lengthAdjust="spacingAndGlyphs" textLength="18" x="268.5" y="1675.1372">52</text><text fill="#000000" font-family="sans-serif" font-size="13" lengthAdjust="spacingAndGlyphs" textLength="64" x="290.5" y="1675.1372">send total</text><polygon fill="#006400" points="83.5,1705.3359,73.5,1709.3359,83.5,1713.3359,79.5,1709.3359" style="stroke: #006400; stroke-width: 1.0;"/><line style="stroke: #006400; stroke-width: 1.0;" x1="77.5" x2="240.5" y1="1709.3359" y2="1709.3359"/><text fill="#000000" font-family="sans-serif" font-size="13" font-weight="bold" lengthAdjust="spacingAndGlyphs" textLength="18" x="89.5" y="1704.27">53</text><text fill="#000000" font-family="sans-serif" font-size="13" lengthAdjust="spacingAndGlyphs" textLength="52" x="111.5" y="1704.27">tell total</text><polygon fill="#006400" points="229.5,1734.4688,239.5,1738.4688,229.5,1742.4688,233.5,1738.4688" style="stroke: #006400; stroke-width: 1.0;"/><line style="stroke: #006400; stroke-width: 1.0;" x1="72.5" x2="235.5" y1="1738.4688" y2="1738.4688"/><text fill="#000000" font-family="sans-serif" font-size="13" font-weight="bold" lengthAdjust="spacingAndGlyphs" textLength="18" x="79.5" y="1733.4028">54</text><text fill="#000000" font-family="sans-serif" font-size="13" lengthAdjust="spacingAndGlyphs" textLength="74" x="101.5" y="1733.4028">give money</text><polygon fill="#006400" points="1137.5,1763.6016,1147.5,1767.6016,1137.5,1771.6016,1141.5,1767.6016" style="stroke: #006400; stroke-width: 1.0;"/><line style="stroke: #006400; stroke-width: 1.0;" x1="251.5" x2="1143.5" y1="1767.6016" y2="1767.6016"/><text fill="#000000" font-family="sans-serif" font-size="13" font-weight="bold" lengthAdjust="spacingAndGlyphs" textLength="18" x="258.5" y="1762.5356">55</text><text fill="#000000" font-family="sans-serif" font-size="13" lengthAdjust="spacingAndGlyphs" textLength="120" x="280.5" y="1762.5356">enter given money</text><line style="stroke: #006400; stroke-width: 1.0;" x1="1159.5" x2="1201.5" y1="1796.7344" y2="1796.7344"/><line style="stroke: #006400; stroke-width: 1.0;" x1="1201.5" x2="1201.5" y1="1796.7344" y2="1809.7344"/><line style="stroke: #006400; stroke-width: 1.0;" x1="1160.5" x2="1201.5" y1="1809.7344" y2="1809.7344"/><polygon fill="#006400" points="1170.5,1805.7344,1160.5,1809.7344,1170.5,1813.7344,1166.5,1809.7344" style="stroke: #006400; stroke-width: 1.0;"/><text fill="#000000" font-family="sans-serif" font-size="13" font-weight="bold" lengthAdjust="spacingAndGlyphs" textLength="18" x="1166.5" y="1791.6685">56</text><text fill="#000000" font-family="sans-serif" font-size="13" lengthAdjust="spacingAndGlyphs" textLength="108" x="1188.5" y="1791.6685">calculate change</text><polygon fill="#006400" points="1329.5,1834.8672,1339.5,1838.8672,1329.5,1842.8672,1333.5,1838.8672" style="stroke: #006400; stroke-width: 1.0;"/><line style="stroke: #006400; stroke-width: 1.0;" x1="1159.5" x2="1335.5" y1="1838.8672" y2="1838.8672"/><text fill="#000000" font-family="sans-serif" font-size="13" font-weight="bold" lengthAdjust="spacingAndGlyphs" textLength="18" x="1166.5" y="1833.8013">57</text><text fill="#000000" font-family="sans-serif" font-size="13" lengthAdjust="spacingAndGlyphs" textLength="95" x="1188.5" y="1833.8013">log transaction</text><polygon fill="#006400" points="1170.5,1864,1160.5,1868,1170.5,1872,1166.5,1868" style="stroke: #006400; stroke-width: 1.0;"/><line style="stroke: #006400; stroke-width: 1.0; stroke-dasharray: 2.0,2.0;" x1="1164.5" x2="1340.5" y1="1868" y2="1868"/><text fill="#000000" font-family="sans-serif" font-size="13" font-weight="bold" lengthAdjust="spacingAndGlyphs" textLength="18" x="1176.5" y="1862.9341">58</text><text fill="#000000" font-family="sans-serif" font-size="13" lengthAdjust="spacingAndGlyphs" textLength="0" x="1202.5" y="1862.9341"/><polygon fill="#006400" points="262.5,1893.1328,252.5,1897.1328,262.5,1901.1328,258.5,1897.1328" style="stroke: #006400; stroke-width: 1.0;"/><line style="stroke: #006400; stroke-width: 1.0;" x1="256.5" x2="1153.5" y1="1897.1328" y2="1897.1328"/><text fill="#000000" font-family="sans-serif" font-size="13" font-weight="bold" lengthAdjust="spacingAndGlyphs" textLength="18" x="268.5" y="1892.0669">59</text><text fill="#000000" font-family="sans-serif" font-size="13" lengthAdjust="spacingAndGlyphs" textLength="136" x="290.5" y="1892.0669">send change amount</text><polygon fill="#006400" points="83.5,1922.2656,73.5,1926.2656,83.5,1930.2656,79.5,1926.2656" style="stroke: #006400; stroke-width: 1.0;"/><line style="stroke: #006400; stroke-width: 1.0;" x1="77.5" x2="240.5" y1="1926.2656" y2="1926.2656"/><text fill="#000000" font-family="sans-serif" font-size="13" font-weight="bold" lengthAdjust="spacingAndGlyphs" textLength="18" x="89.5" y="1921.1997">60</text><text fill="#000000" font-family="sans-serif" font-size="13" lengthAdjust="spacingAndGlyphs" textLength="77" x="111.5" y="1921.1997">give change</text><!--
@startuml

skinparam linetype ortho
hide circle

skinparam participant{
    BorderColor darkgreen
    BackgroundColor white
    FontStyle bold
}

skinparam arrow{
    Color darkgreen
}

skinparam sequence{
    LifeLineBorderColor black
}

skinparam Actor{
    BorderColor black
    BackgroundColor white
}

autonumber

actor HouseCustomer
actor Staff
participant ShoppingCart
participant Inventory
participant "Milk \n(Product)" as Product1
participant "Empty Bottle \n(Product) " as Product2
participant CashierSystem
participant Log

activate Staff
activate HouseCustomer
activate Product1
activate Product2
activate Inventory
activate Log


HouseCustomer <- Staff: Request customer id
HouseCustomer -> Staff:  customer id
Staff -> ShoppingCart: set customer id
activate ShoppingCart

ShoppingCart -> CashierSystem: initialize with customer id
activate CashierSystem

CashierSystem - -> ShoppingCart
ShoppingCart - -> Staff




    HouseCustomer -> Staff: gives Milk
    ShoppingCart <- Staff: add Milk
    ShoppingCart -> Inventory: Price Request for Milk
    Inventory -> Product1: Price Request
    Inventory <- Product1: Price Response
    Inventory -> ShoppingCart: Price Response for Milk

    ShoppingCart -> Inventory: Category Request for Milk
    Inventory -> Product1: Category Request
    Inventory <- Product1: Category Response
    Inventory -> ShoppingCart: Category Response for Milk

    ShoppingCart -> CashierSystem: add product price
    CashierSystem -> Inventory: remove Milk from display inventory
    Inventory -> Product1: remove one displayed
    Inventory <- - Product1
    Inventory - -> CashierSystem
    CashierSystem -> Log: log removal
    Log - -> CashierSystem
    CashierSystem - -> ShoppingCart

    ShoppingCart - -> Staff



    HouseCustomer -> Staff: gives Empty Bottle
    ShoppingCart <- Staff: add Empty Bottle
    ShoppingCart -> Inventory: Price Request for Empty Bottle
    Inventory -> Product2: Price Request
    Inventory <- Product2: Price Response
    Inventory -> ShoppingCart: Price Response for Empty Bottle

    ShoppingCart -> Inventory: Category Request for Empty Bottle
    Inventory -> Product2: Category Request
    Inventory <- Product2: Category Response
    Inventory -> ShoppingCart: Category Response for Empty Bottle

    ShoppingCart -> CashierSystem: add product price
    CashierSystem -> Inventory: remove Empty Bottle from display inventory
    Inventory -> Product2: remove one displayed
    Inventory <- - Product2
    Inventory - -> CashierSystem
    CashierSystem -> Log: log removal
    Log - -> CashierSystem
    CashierSystem - -> ShoppingCart

    ShoppingCart - -> Staff

|||
Staff -> CashierSystem: Scan finished
CashierSystem -> ShoppingCart: Product Request
CashierSystem <- ShoppingCart: Product Response
deactivate ShoppingCart
CashierSystem -> CashierSystem: Sum of base prices
CashierSystem -> CashierSystem: Calculate with discount
CashierSystem -> CashierSystem: Calculate with MwSt.
CashierSystem -> CashierSystem: add/substract Pfand
CashierSystem -> Staff: send total
Staff -> HouseCustomer: tell total
HouseCustomer -> Staff: give money
Staff -> CashierSystem: enter given money
CashierSystem -> CashierSystem: calculate change
CashierSystem -> Log: log transaction
CashierSystem <- - Log
CashierSystem -> Staff: send change amount
deactivate CashierSystem
Staff -> HouseCustomer: give change


@enduml

PlantUML version 1.2018.12(Sun Oct 21 12:15:15 CEST 2018)
(GPL source distribution)
Java Runtime: OpenJDK Runtime Environment
JVM: OpenJDK 64-Bit Server VM
Java Version: 10.0.2+13-Debian-1
Operating System: Linux
OS Version: 4.18.0-parrot10-amd64
Default Encoding: UTF-8
Language: en
Country: US
--></g></svg>