<?xml version="1.0" encoding="UTF-8" standalone="no"?><svg xmlns="http://www.w3.org/2000/svg" xmlns:xlink="http://www.w3.org/1999/xlink" contentScriptType="application/ecmascript" contentStyleType="text/css" height="2061px" preserveAspectRatio="none" style="width:1377px;height:2061px;" version="1.1" viewBox="0 0 1377 2061" width="1377px" zoomAndPan="magnify"><defs><filter height="300%" id="f1f3nv68j3sga0" width="300%" x="-1" y="-1"><feGaussianBlur result="blurOut" stdDeviation="2.0"/><feColorMatrix in="blurOut" result="blurOut2" type="matrix" values="0 0 0 0 0 0 0 0 0 0 0 0 0 0 0 0 0 0 .4 0"/><feOffset dx="4.0" dy="4.0" in="blurOut2" result="blurOut3"/><feBlend in="SourceGraphic" in2="blurOut3" mode="normal"/></filter></defs><g><rect fill="#FFFFFF" filter="url(#f1f3nv68j3sga0)" height="1869.2344" style="stroke: #000000; stroke-width: 1.0;" width="10" x="62.5" y="96.2969"/><rect fill="#FFFFFF" filter="url(#f1f3nv68j3sga0)" height="1869.2344" style="stroke: #000000; stroke-width: 1.0;" width="10" x="241.5" y="96.2969"/><rect fill="#FFFFFF" filter="url(#f1f3nv68j3sga0)" height="1337.1094" style="stroke: #000000; stroke-width: 1.0;" width="10" x="408.5" y="175.6953"/><rect fill="#FFFFFF" filter="url(#f1f3nv68j3sga0)" height="1869.2344" style="stroke: #000000; stroke-width: 1.0;" width="10" x="696.5" y="96.2969"/><rect fill="#FFFFFF" filter="url(#f1f3nv68j3sga0)" height="1869.2344" style="stroke: #000000; stroke-width: 1.0;" width="10" x="893.5" y="96.2969"/><rect fill="#FFFFFF" filter="url(#f1f3nv68j3sga0)" height="1869.2344" style="stroke: #000000; stroke-width: 1.0;" width="10" x="1010.5" y="96.2969"/><rect fill="#FFFFFF" filter="url(#f1f3nv68j3sga0)" height="1722.5703" style="stroke: #000000; stroke-width: 1.0;" width="10" x="1149.5" y="204.8281"/><rect fill="#FFFFFF" filter="url(#f1f3nv68j3sga0)" height="1869.2344" style="stroke: #000000; stroke-width: 1.0;" width="10" x="1341.5" y="96.2969"/><line style="stroke: #000000; stroke-width: 1.0; stroke-dasharray: 5.0,5.0;" x1="67" x2="67" y1="86.2969" y2="1974.5313"/><line style="stroke: #000000; stroke-width: 1.0; stroke-dasharray: 5.0,5.0;" x1="246.5" x2="246.5" y1="86.2969" y2="1974.5313"/><line style="stroke: #000000; stroke-width: 1.0; stroke-dasharray: 5.0,5.0;" x1="413" x2="413" y1="86.2969" y2="1974.5313"/><line style="stroke: #000000; stroke-width: 1.0; stroke-dasharray: 5.0,5.0;" x1="701" x2="701" y1="86.2969" y2="1974.5313"/><line style="stroke: #000000; stroke-width: 1.0; stroke-dasharray: 5.0,5.0;" x1="898.5" x2="898.5" y1="86.2969" y2="1974.5313"/><line style="stroke: #000000; stroke-width: 1.0; stroke-dasharray: 5.0,5.0;" x1="1015.5" x2="1015.5" y1="86.2969" y2="1974.5313"/><line style="stroke: #000000; stroke-width: 1.0; stroke-dasharray: 5.0,5.0;" x1="1154.5" x2="1154.5" y1="86.2969" y2="1974.5313"/><line style="stroke: #000000; stroke-width: 1.0; stroke-dasharray: 5.0,5.0;" x1="1346" x2="1346" y1="86.2969" y2="1974.5313"/><text fill="#000000" font-family="sans-serif" font-size="14" lengthAdjust="spacingAndGlyphs" textLength="113" x="8" y="82.9951">HouseCustomer</text><ellipse cx="67.5" cy="13" fill="#FFFFFF" filter="url(#f1f3nv68j3sga0)" rx="8" ry="8" style="stroke: #000000; stroke-width: 2.0;"/><path d="M67.5,21 L67.5,48 M54.5,29 L80.5,29 M67.5,48 L54.5,63 M67.5,48 L80.5,63 " fill="none" filter="url(#f1f3nv68j3sga0)" style="stroke: #000000; stroke-width: 2.0;"/><text fill="#000000" font-family="sans-serif" font-size="14" lengthAdjust="spacingAndGlyphs" textLength="113" x="8" y="1986.5264">HouseCustomer</text><ellipse cx="67.5" cy="1999.8281" fill="#FFFFFF" filter="url(#f1f3nv68j3sga0)" rx="8" ry="8" style="stroke: #000000; stroke-width: 2.0;"/><path d="M67.5,2007.8281 L67.5,2034.8281 M54.5,2015.8281 L80.5,2015.8281 M67.5,2034.8281 L54.5,2049.8281 M67.5,2034.8281 L80.5,2049.8281 " fill="none" filter="url(#f1f3nv68j3sga0)" style="stroke: #000000; stroke-width: 2.0;"/><text fill="#000000" font-family="sans-serif" font-size="14" lengthAdjust="spacingAndGlyphs" textLength="30" x="228.5" y="82.9951">Staff</text><ellipse cx="246.5" cy="13" fill="#FFFFFF" filter="url(#f1f3nv68j3sga0)" rx="8" ry="8" style="stroke: #000000; stroke-width: 2.0;"/><path d="M246.5,21 L246.5,48 M233.5,29 L259.5,29 M246.5,48 L233.5,63 M246.5,48 L259.5,63 " fill="none" filter="url(#f1f3nv68j3sga0)" style="stroke: #000000; stroke-width: 2.0;"/><text fill="#000000" font-family="sans-serif" font-size="14" lengthAdjust="spacingAndGlyphs" textLength="30" x="228.5" y="1986.5264">Staff</text><ellipse cx="246.5" cy="1999.8281" fill="#FFFFFF" filter="url(#f1f3nv68j3sga0)" rx="8" ry="8" style="stroke: #000000; stroke-width: 2.0;"/><path d="M246.5,2007.8281 L246.5,2034.8281 M233.5,2015.8281 L259.5,2015.8281 M246.5,2034.8281 L233.5,2049.8281 M246.5,2034.8281 L259.5,2049.8281 " fill="none" filter="url(#f1f3nv68j3sga0)" style="stroke: #000000; stroke-width: 2.0;"/><rect fill="#FFFFFF" filter="url(#f1f3nv68j3sga0)" height="30.2969" style="stroke: #006400; stroke-width: 1.5;" width="121" x="351" y="51"/><text fill="#000000" font-family="sans-serif" font-size="14" font-weight="bold" lengthAdjust="spacingAndGlyphs" textLength="107" x="358" y="70.9951">ShoppingCart</text><rect fill="#FFFFFF" filter="url(#f1f3nv68j3sga0)" height="30.2969" style="stroke: #006400; stroke-width: 1.5;" width="121" x="351" y="1973.5313"/><text fill="#000000" font-family="sans-serif" font-size="14" font-weight="bold" lengthAdjust="spacingAndGlyphs" textLength="107" x="358" y="1993.5264">ShoppingCart</text><rect fill="#FFFFFF" filter="url(#f1f3nv68j3sga0)" height="30.2969" style="stroke: #006400; stroke-width: 1.5;" width="89" x="655" y="51"/><text fill="#000000" font-family="sans-serif" font-size="14" font-weight="bold" lengthAdjust="spacingAndGlyphs" textLength="75" x="662" y="70.9951">Inventory</text><rect fill="#FFFFFF" filter="url(#f1f3nv68j3sga0)" height="30.2969" style="stroke: #006400; stroke-width: 1.5;" width="89" x="655" y="1973.5313"/><text fill="#000000" font-family="sans-serif" font-size="14" font-weight="bold" lengthAdjust="spacingAndGlyphs" textLength="75" x="662" y="1993.5264">Inventory</text><rect fill="#FFFFFF" filter="url(#f1f3nv68j3sga0)" height="46.5938" style="stroke: #006400; stroke-width: 1.5;" width="88" x="852.5" y="34.7031"/><text fill="#000000" font-family="sans-serif" font-size="14" font-weight="bold" lengthAdjust="spacingAndGlyphs" textLength="30" x="879" y="54.6982">Milk</text><text fill="#000000" font-family="sans-serif" font-size="14" font-weight="bold" lengthAdjust="spacingAndGlyphs" textLength="74" x="859.5" y="70.9951">(Product)</text><rect fill="#FFFFFF" filter="url(#f1f3nv68j3sga0)" height="46.5938" style="stroke: #006400; stroke-width: 1.5;" width="88" x="852.5" y="1973.5313"/><text fill="#000000" font-family="sans-serif" font-size="14" font-weight="bold" lengthAdjust="spacingAndGlyphs" textLength="30" x="879" y="1993.5264">Milk</text><text fill="#000000" font-family="sans-serif" font-size="14" font-weight="bold" lengthAdjust="spacingAndGlyphs" textLength="74" x="859.5" y="2009.8232">(Product)</text><rect fill="#FFFFFF" filter="url(#f1f3nv68j3sga0)" height="46.5938" style="stroke: #006400; stroke-width: 1.5;" width="118" x="954.5" y="34.7031"/><text fill="#000000" font-family="sans-serif" font-size="14" font-weight="bold" lengthAdjust="spacingAndGlyphs" textLength="99" x="961.5" y="54.6982">Empty Bottle</text><text fill="#000000" font-family="sans-serif" font-size="14" font-weight="bold" lengthAdjust="spacingAndGlyphs" textLength="74" x="974" y="70.9951">(Product)</text><rect fill="#FFFFFF" filter="url(#f1f3nv68j3sga0)" height="46.5938" style="stroke: #006400; stroke-width: 1.5;" width="118" x="954.5" y="1973.5313"/><text fill="#000000" font-family="sans-serif" font-size="14" font-weight="bold" lengthAdjust="spacingAndGlyphs" textLength="99" x="961.5" y="1993.5264">Empty Bottle</text><text fill="#000000" font-family="sans-serif" font-size="14" font-weight="bold" lengthAdjust="spacingAndGlyphs" textLength="74" x="974" y="2009.8232">(Product)</text><rect fill="#FFFFFF" filter="url(#f1f3nv68j3sga0)" height="30.2969" style="stroke: #006400; stroke-width: 1.5;" width="132" x="1086.5" y="51"/><text fill="#000000" font-family="sans-serif" font-size="14" font-weight="bold" lengthAdjust="spacingAndGlyphs" textLength="118" x="1093.5" y="70.9951">CashierSystem</text><rect fill="#FFFFFF" filter="url(#f1f3nv68j3sga0)" height="30.2969" style="stroke: #006400; stroke-width: 1.5;" width="132" x="1086.5" y="1973.5313"/><text fill="#000000" font-family="sans-serif" font-size="14" font-weight="bold" lengthAdjust="spacingAndGlyphs" textLength="118" x="1093.5" y="1993.5264">CashierSystem</text><rect fill="#FFFFFF" filter="url(#f1f3nv68j3sga0)" height="30.2969" style="stroke: #006400; stroke-width: 1.5;" width="43" x="1323" y="51"/><text fill="#000000" font-family="sans-serif" font-size="14" font-weight="bold" lengthAdjust="spacingAndGlyphs" textLength="29" x="1330" y="70.9951">Log</text><rect fill="#FFFFFF" filter="url(#f1f3nv68j3sga0)" height="30.2969" style="stroke: #006400; stroke-width: 1.5;" width="43" x="1323" y="1973.5313"/><text fill="#000000" font-family="sans-serif" font-size="14" font-weight="bold" lengthAdjust="spacingAndGlyphs" textLength="29" x="1330" y="1993.5264">Log</text><rect fill="#FFFFFF" filter="url(#f1f3nv68j3sga0)" height="1869.2344" style="stroke: #000000; stroke-width: 1.0;" width="10" x="62.5" y="96.2969"/><rect fill="#FFFFFF" filter="url(#f1f3nv68j3sga0)" height="1869.2344" style="stroke: #000000; stroke-width: 1.0;" width="10" x="241.5" y="96.2969"/><rect fill="#FFFFFF" filter="url(#f1f3nv68j3sga0)" height="1337.1094" style="stroke: #000000; stroke-width: 1.0;" width="10" x="408.5" y="175.6953"/><rect fill="#FFFFFF" filter="url(#f1f3nv68j3sga0)" height="1869.2344" style="stroke: #000000; stroke-width: 1.0;" width="10" x="696.5" y="96.2969"/><rect fill="#FFFFFF" filter="url(#f1f3nv68j3sga0)" height="1869.2344" style="stroke: #000000; stroke-width: 1.0;" width="10" x="893.5" y="96.2969"/><rect fill="#FFFFFF" filter="url(#f1f3nv68j3sga0)" height="1869.2344" style="stroke: #000000; stroke-width: 1.0;" width="10" x="1010.5" y="96.2969"/><rect fill="#FFFFFF" filter="url(#f1f3nv68j3sga0)" height="1722.5703" style="stroke: #000000; stroke-width: 1.0;" width="10" x="1149.5" y="204.8281"/><rect fill="#FFFFFF" filter="url(#f1f3nv68j3sga0)" height="1869.2344" style="stroke: #000000; stroke-width: 1.0;" width="10" x="1341.5" y="96.2969"/><polygon fill="#006400" points="83.5,113.4297,73.5,117.4297,83.5,121.4297,79.5,117.4297" style="stroke: #006400; stroke-width: 1.0;"/><line style="stroke: #006400; stroke-width: 1.0;" x1="77.5" x2="240.5" y1="117.4297" y2="117.4297"/><text fill="#000000" font-family="sans-serif" font-size="13" font-weight="bold" lengthAdjust="spacingAndGlyphs" textLength="9" x="89.5" y="112.3638">1</text><text fill="#000000" font-family="sans-serif" font-size="13" lengthAdjust="spacingAndGlyphs" textLength="132" x="102.5" y="112.3638">Request customer id</text><polygon fill="#006400" points="229.5,142.5625,239.5,146.5625,229.5,150.5625,233.5,146.5625" style="stroke: #006400; stroke-width: 1.0;"/><line style="stroke: #006400; stroke-width: 1.0;" x1="72.5" x2="235.5" y1="146.5625" y2="146.5625"/><text fill="#000000" font-family="sans-serif" font-size="13" font-weight="bold" lengthAdjust="spacingAndGlyphs" textLength="9" x="79.5" y="141.4966">2</text><text fill="#000000" font-family="sans-serif" font-size="13" lengthAdjust="spacingAndGlyphs" textLength="76" x="92.5" y="141.4966">customer id</text><polygon fill="#006400" points="396.5,171.6953,406.5,175.6953,396.5,179.6953,400.5,175.6953" style="stroke: #006400; stroke-width: 1.0;"/><line style="stroke: #006400; stroke-width: 1.0;" x1="251.5" x2="402.5" y1="175.6953" y2="175.6953"/><text fill="#000000" font-family="sans-serif" font-size="13" font-weight="bold" lengthAdjust="spacingAndGlyphs" textLength="9" x="258.5" y="170.6294">3</text><text fill="#000000" font-family="sans-serif" font-size="13" lengthAdjust="spacingAndGlyphs" textLength="100" x="271.5" y="170.6294">set customer id</text><polygon fill="#006400" points="1137.5,200.8281,1147.5,204.8281,1137.5,208.8281,1141.5,204.8281" style="stroke: #006400; stroke-width: 1.0;"/><line style="stroke: #006400; stroke-width: 1.0;" x1="418.5" x2="1143.5" y1="204.8281" y2="204.8281"/><text fill="#000000" font-family="sans-serif" font-size="13" font-weight="bold" lengthAdjust="spacingAndGlyphs" textLength="9" x="425.5" y="199.7622">4</text><text fill="#000000" font-family="sans-serif" font-size="13" lengthAdjust="spacingAndGlyphs" textLength="160" x="438.5" y="199.7622">initialize with customer id</text><polygon fill="#006400" points="429.5,229.9609,419.5,233.9609,429.5,237.9609,425.5,233.9609" style="stroke: #006400; stroke-width: 1.0;"/><line style="stroke: #006400; stroke-width: 1.0; stroke-dasharray: 2.0,2.0;" x1="423.5" x2="1148.5" y1="233.9609" y2="233.9609"/><text fill="#000000" font-family="sans-serif" font-size="13" font-weight="bold" lengthAdjust="spacingAndGlyphs" textLength="9" x="435.5" y="228.895">5</text><text fill="#000000" font-family="sans-serif" font-size="13" lengthAdjust="spacingAndGlyphs" textLength="0" x="452.5" y="228.895"/><polygon fill="#006400" points="262.5,259.0938,252.5,263.0938,262.5,267.0938,258.5,263.0938" style="stroke: #006400; stroke-width: 1.0;"/><line style="stroke: #006400; stroke-width: 1.0; stroke-dasharray: 2.0,2.0;" x1="256.5" x2="407.5" y1="263.0938" y2="263.0938"/><text fill="#000000" font-family="sans-serif" font-size="13" font-weight="bold" lengthAdjust="spacingAndGlyphs" textLength="9" x="268.5" y="258.0278">6</text><text fill="#000000" font-family="sans-serif" font-size="13" lengthAdjust="spacingAndGlyphs" textLength="0" x="285.5" y="258.0278"/><polygon fill="#006400" points="229.5,288.2266,239.5,292.2266,229.5,296.2266,233.5,292.2266" style="stroke: #006400; stroke-width: 1.0;"/><line style="stroke: #006400; stroke-width: 1.0;" x1="72.5" x2="235.5" y1="292.2266" y2="292.2266"/><text fill="#000000" font-family="sans-serif" font-size="13" font-weight="bold" lengthAdjust="spacingAndGlyphs" textLength="9" x="79.5" y="287.1606">7</text><text fill="#000000" font-family="sans-serif" font-size="13" lengthAdjust="spacingAndGlyphs" textLength="61" x="92.5" y="287.1606">gives Milk</text><polygon fill="#006400" points="396.5,317.3594,406.5,321.3594,396.5,325.3594,400.5,321.3594" style="stroke: #006400; stroke-width: 1.0;"/><line style="stroke: #006400; stroke-width: 1.0;" x1="251.5" x2="402.5" y1="321.3594" y2="321.3594"/><text fill="#000000" font-family="sans-serif" font-size="13" font-weight="bold" lengthAdjust="spacingAndGlyphs" textLength="9" x="258.5" y="316.2935">8</text><text fill="#000000" font-family="sans-serif" font-size="13" lengthAdjust="spacingAndGlyphs" textLength="52" x="271.5" y="316.2935">add Milk</text><polygon fill="#006400" points="684.5,346.4922,694.5,350.4922,684.5,354.4922,688.5,350.4922" style="stroke: #006400; stroke-width: 1.0;"/><line style="stroke: #006400; stroke-width: 1.0;" x1="418.5" x2="690.5" y1="350.4922" y2="350.4922"/><text fill="#000000" font-family="sans-serif" font-size="13" font-weight="bold" lengthAdjust="spacingAndGlyphs" textLength="9" x="425.5" y="345.4263">9</text><text fill="#000000" font-family="sans-serif" font-size="13" lengthAdjust="spacingAndGlyphs" textLength="136" x="438.5" y="345.4263">Price Request for Milk</text><polygon fill="#006400" points="881.5,375.625,891.5,379.625,881.5,383.625,885.5,379.625" style="stroke: #006400; stroke-width: 1.0;"/><line style="stroke: #006400; stroke-width: 1.0;" x1="706.5" x2="887.5" y1="379.625" y2="379.625"/><text fill="#000000" font-family="sans-serif" font-size="13" font-weight="bold" lengthAdjust="spacingAndGlyphs" textLength="18" x="713.5" y="374.5591">10</text><text fill="#000000" font-family="sans-serif" font-size="13" lengthAdjust="spacingAndGlyphs" textLength="87" x="735.5" y="374.5591">Price Request</text><polygon fill="#006400" points="717.5,404.7578,707.5,408.7578,717.5,412.7578,713.5,408.7578" style="stroke: #006400; stroke-width: 1.0;"/><line style="stroke: #006400; stroke-width: 1.0;" x1="711.5" x2="892.5" y1="408.7578" y2="408.7578"/><text fill="#000000" font-family="sans-serif" font-size="13" font-weight="bold" lengthAdjust="spacingAndGlyphs" textLength="18" x="723.5" y="403.6919">11</text><text fill="#000000" font-family="sans-serif" font-size="13" lengthAdjust="spacingAndGlyphs" textLength="97" x="745.5" y="403.6919">Price Response</text><polygon fill="#006400" points="429.5,433.8906,419.5,437.8906,429.5,441.8906,425.5,437.8906" style="stroke: #006400; stroke-width: 1.0;"/><line style="stroke: #006400; stroke-width: 1.0;" x1="423.5" x2="695.5" y1="437.8906" y2="437.8906"/><text fill="#000000" font-family="sans-serif" font-size="13" font-weight="bold" lengthAdjust="spacingAndGlyphs" textLength="18" x="435.5" y="432.8247">12</text><text fill="#000000" font-family="sans-serif" font-size="13" lengthAdjust="spacingAndGlyphs" textLength="146" x="457.5" y="432.8247">Price Response for Milk</text><polygon fill="#006400" points="684.5,463.0234,694.5,467.0234,684.5,471.0234,688.5,467.0234" style="stroke: #006400; stroke-width: 1.0;"/><line style="stroke: #006400; stroke-width: 1.0;" x1="418.5" x2="690.5" y1="467.0234" y2="467.0234"/><text fill="#000000" font-family="sans-serif" font-size="13" font-weight="bold" lengthAdjust="spacingAndGlyphs" textLength="18" x="425.5" y="461.9575">13</text><text fill="#000000" font-family="sans-serif" font-size="13" lengthAdjust="spacingAndGlyphs" textLength="163" x="447.5" y="461.9575">Category Request for Milk</text><polygon fill="#006400" points="881.5,492.1563,891.5,496.1563,881.5,500.1563,885.5,496.1563" style="stroke: #006400; stroke-width: 1.0;"/><line style="stroke: #006400; stroke-width: 1.0;" x1="706.5" x2="887.5" y1="496.1563" y2="496.1563"/><text fill="#000000" font-family="sans-serif" font-size="13" font-weight="bold" lengthAdjust="spacingAndGlyphs" textLength="18" x="713.5" y="491.0903">14</text><text fill="#000000" font-family="sans-serif" font-size="13" lengthAdjust="spacingAndGlyphs" textLength="114" x="735.5" y="491.0903">Category Request</text><polygon fill="#006400" points="717.5,521.2891,707.5,525.2891,717.5,529.2891,713.5,525.2891" style="stroke: #006400; stroke-width: 1.0;"/><line style="stroke: #006400; stroke-width: 1.0;" x1="711.5" x2="892.5" y1="525.2891" y2="525.2891"/><text fill="#000000" font-family="sans-serif" font-size="13" font-weight="bold" lengthAdjust="spacingAndGlyphs" textLength="18" x="723.5" y="520.2231">15</text><text fill="#000000" font-family="sans-serif" font-size="13" lengthAdjust="spacingAndGlyphs" textLength="124" x="745.5" y="520.2231">Category Response</text><polygon fill="#006400" points="429.5,550.4219,419.5,554.4219,429.5,558.4219,425.5,554.4219" style="stroke: #006400; stroke-width: 1.0;"/><line style="stroke: #006400; stroke-width: 1.0;" x1="423.5" x2="695.5" y1="554.4219" y2="554.4219"/><text fill="#000000" font-family="sans-serif" font-size="13" font-weight="bold" lengthAdjust="spacingAndGlyphs" textLength="18" x="435.5" y="549.356">16</text><text fill="#000000" font-family="sans-serif" font-size="13" lengthAdjust="spacingAndGlyphs" textLength="173" x="457.5" y="549.356">Category Response for Milk</text><polygon fill="#006400" points="1137.5,579.5547,1147.5,583.5547,1137.5,587.5547,1141.5,583.5547" style="stroke: #006400; stroke-width: 1.0;"/><line style="stroke: #006400; stroke-width: 1.0;" x1="418.5" x2="1143.5" y1="583.5547" y2="583.5547"/><text fill="#000000" font-family="sans-serif" font-size="13" font-weight="bold" lengthAdjust="spacingAndGlyphs" textLength="18" x="425.5" y="578.4888">17</text><text fill="#000000" font-family="sans-serif" font-size="13" lengthAdjust="spacingAndGlyphs" textLength="112" x="447.5" y="578.4888">add product price</text><polygon fill="#006400" points="717.5,608.6875,707.5,612.6875,717.5,616.6875,713.5,612.6875" style="stroke: #006400; stroke-width: 1.0;"/><line style="stroke: #006400; stroke-width: 1.0;" x1="711.5" x2="1148.5" y1="612.6875" y2="612.6875"/><text fill="#000000" font-family="sans-serif" font-size="13" font-weight="bold" lengthAdjust="spacingAndGlyphs" textLength="18" x="723.5" y="607.6216">18</text><text fill="#000000" font-family="sans-serif" font-size="13" lengthAdjust="spacingAndGlyphs" textLength="222" x="745.5" y="607.6216">remove Milk from display inventory</text><polygon fill="#006400" points="881.5,637.8203,891.5,641.8203,881.5,645.8203,885.5,641.8203" style="stroke: #006400; stroke-width: 1.0;"/><line style="stroke: #006400; stroke-width: 1.0;" x1="706.5" x2="887.5" y1="641.8203" y2="641.8203"/><text fill="#000000" font-family="sans-serif" font-size="13" font-weight="bold" lengthAdjust="spacingAndGlyphs" textLength="18" x="713.5" y="636.7544">19</text><text fill="#000000" font-family="sans-serif" font-size="13" lengthAdjust="spacingAndGlyphs" textLength="141" x="735.5" y="636.7544">remove one displayed</text><polygon fill="#006400" points="717.5,666.9531,707.5,670.9531,717.5,674.9531,713.5,670.9531" style="stroke: #006400; stroke-width: 1.0;"/><line style="stroke: #006400; stroke-width: 1.0; stroke-dasharray: 2.0,2.0;" x1="711.5" x2="892.5" y1="670.9531" y2="670.9531"/><text fill="#000000" font-family="sans-serif" font-size="13" font-weight="bold" lengthAdjust="spacingAndGlyphs" textLength="18" x="723.5" y="665.8872">20</text><text fill="#000000" font-family="sans-serif" font-size="13" lengthAdjust="spacingAndGlyphs" textLength="0" x="749.5" y="665.8872"/><polygon fill="#006400" points="1137.5,696.0859,1147.5,700.0859,1137.5,704.0859,1141.5,700.0859" style="stroke: #006400; stroke-width: 1.0;"/><line style="stroke: #006400; stroke-width: 1.0; stroke-dasharray: 2.0,2.0;" x1="706.5" x2="1143.5" y1="700.0859" y2="700.0859"/><text fill="#000000" font-family="sans-serif" font-size="13" font-weight="bold" lengthAdjust="spacingAndGlyphs" textLength="18" x="713.5" y="695.02">21</text><text fill="#000000" font-family="sans-serif" font-size="13" lengthAdjust="spacingAndGlyphs" textLength="0" x="739.5" y="695.02"/><polygon fill="#006400" points="1329.5,740.3516,1339.5,744.3516,1329.5,748.3516,1333.5,744.3516" style="stroke: #006400; stroke-width: 1.0;"/><line style="stroke: #006400; stroke-width: 1.0;" x1="1159.5" x2="1335.5" y1="744.3516" y2="744.3516"/><text fill="#000000" font-family="sans-serif" font-size="13" font-weight="bold" lengthAdjust="spacingAndGlyphs" textLength="18" x="1166.5" y="731.7192">22</text><text fill="#000000" font-family="sans-serif" font-size="13" lengthAdjust="spacingAndGlyphs" textLength="100" x="1188.5" y="724.1528">log the removal</text><text fill="#000000" font-family="sans-serif" font-size="13" lengthAdjust="spacingAndGlyphs" textLength="118" x="1188.5" y="739.2856">from the inventory</text><polygon fill="#006400" points="1170.5,769.4844,1160.5,773.4844,1170.5,777.4844,1166.5,773.4844" style="stroke: #006400; stroke-width: 1.0;"/><line style="stroke: #006400; stroke-width: 1.0; stroke-dasharray: 2.0,2.0;" x1="1164.5" x2="1340.5" y1="773.4844" y2="773.4844"/><text fill="#000000" font-family="sans-serif" font-size="13" font-weight="bold" lengthAdjust="spacingAndGlyphs" textLength="18" x="1176.5" y="768.4185">23</text><text fill="#000000" font-family="sans-serif" font-size="13" lengthAdjust="spacingAndGlyphs" textLength="0" x="1202.5" y="768.4185"/><polygon fill="#006400" points="429.5,798.6172,419.5,802.6172,429.5,806.6172,425.5,802.6172" style="stroke: #006400; stroke-width: 1.0;"/><line style="stroke: #006400; stroke-width: 1.0; stroke-dasharray: 2.0,2.0;" x1="423.5" x2="1148.5" y1="802.6172" y2="802.6172"/><text fill="#000000" font-family="sans-serif" font-size="13" font-weight="bold" lengthAdjust="spacingAndGlyphs" textLength="18" x="435.5" y="797.5513">24</text><text fill="#000000" font-family="sans-serif" font-size="13" lengthAdjust="spacingAndGlyphs" textLength="0" x="461.5" y="797.5513"/><polygon fill="#006400" points="262.5,827.75,252.5,831.75,262.5,835.75,258.5,831.75" style="stroke: #006400; stroke-width: 1.0;"/><line style="stroke: #006400; stroke-width: 1.0; stroke-dasharray: 2.0,2.0;" x1="256.5" x2="407.5" y1="831.75" y2="831.75"/><text fill="#000000" font-family="sans-serif" font-size="13" font-weight="bold" lengthAdjust="spacingAndGlyphs" textLength="18" x="268.5" y="826.6841">25</text><text fill="#000000" font-family="sans-serif" font-size="13" lengthAdjust="spacingAndGlyphs" textLength="0" x="294.5" y="826.6841"/><polygon fill="#006400" points="229.5,856.8828,239.5,860.8828,229.5,864.8828,233.5,860.8828" style="stroke: #006400; stroke-width: 1.0;"/><line style="stroke: #006400; stroke-width: 1.0;" x1="72.5" x2="235.5" y1="860.8828" y2="860.8828"/><text fill="#000000" font-family="sans-serif" font-size="13" font-weight="bold" lengthAdjust="spacingAndGlyphs" textLength="18" x="79.5" y="855.8169">26</text><text fill="#000000" font-family="sans-serif" font-size="13" lengthAdjust="spacingAndGlyphs" textLength="120" x="101.5" y="855.8169">gives Empty Bottle</text><polygon fill="#006400" points="396.5,886.0156,406.5,890.0156,396.5,894.0156,400.5,890.0156" style="stroke: #006400; stroke-width: 1.0;"/><line style="stroke: #006400; stroke-width: 1.0;" x1="251.5" x2="402.5" y1="890.0156" y2="890.0156"/><text fill="#000000" font-family="sans-serif" font-size="13" font-weight="bold" lengthAdjust="spacingAndGlyphs" textLength="18" x="258.5" y="884.9497">27</text><text fill="#000000" font-family="sans-serif" font-size="13" lengthAdjust="spacingAndGlyphs" textLength="111" x="280.5" y="884.9497">add Empty Bottle</text><polygon fill="#006400" points="684.5,915.1484,694.5,919.1484,684.5,923.1484,688.5,919.1484" style="stroke: #006400; stroke-width: 1.0;"/><line style="stroke: #006400; stroke-width: 1.0;" x1="418.5" x2="690.5" y1="919.1484" y2="919.1484"/><text fill="#000000" font-family="sans-serif" font-size="13" font-weight="bold" lengthAdjust="spacingAndGlyphs" textLength="18" x="425.5" y="914.0825">28</text><text fill="#000000" font-family="sans-serif" font-size="13" lengthAdjust="spacingAndGlyphs" textLength="195" x="447.5" y="914.0825">Price Request for Empty Bottle</text><polygon fill="#006400" points="998.5,944.2813,1008.5,948.2813,998.5,952.2813,1002.5,948.2813" style="stroke: #006400; stroke-width: 1.0;"/><line style="stroke: #006400; stroke-width: 1.0;" x1="706.5" x2="1004.5" y1="948.2813" y2="948.2813"/><text fill="#000000" font-family="sans-serif" font-size="13" font-weight="bold" lengthAdjust="spacingAndGlyphs" textLength="18" x="713.5" y="943.2153">29</text><text fill="#000000" font-family="sans-serif" font-size="13" lengthAdjust="spacingAndGlyphs" textLength="87" x="735.5" y="943.2153">Price Request</text><polygon fill="#006400" points="717.5,973.4141,707.5,977.4141,717.5,981.4141,713.5,977.4141" style="stroke: #006400; stroke-width: 1.0;"/><line style="stroke: #006400; stroke-width: 1.0;" x1="711.5" x2="1009.5" y1="977.4141" y2="977.4141"/><text fill="#000000" font-family="sans-serif" font-size="13" font-weight="bold" lengthAdjust="spacingAndGlyphs" textLength="18" x="723.5" y="972.3481">30</text><text fill="#000000" font-family="sans-serif" font-size="13" lengthAdjust="spacingAndGlyphs" textLength="97" x="745.5" y="972.3481">Price Response</text><polygon fill="#006400" points="429.5,1002.5469,419.5,1006.5469,429.5,1010.5469,425.5,1006.5469" style="stroke: #006400; stroke-width: 1.0;"/><line style="stroke: #006400; stroke-width: 1.0;" x1="423.5" x2="695.5" y1="1006.5469" y2="1006.5469"/><text fill="#000000" font-family="sans-serif" font-size="13" font-weight="bold" lengthAdjust="spacingAndGlyphs" textLength="18" x="435.5" y="1001.481">31</text><text fill="#000000" font-family="sans-serif" font-size="13" lengthAdjust="spacingAndGlyphs" textLength="205" x="457.5" y="1001.481">Price Response for Empty Bottle</text><polygon fill="#006400" points="684.5,1031.6797,694.5,1035.6797,684.5,1039.6797,688.5,1035.6797" style="stroke: #006400; stroke-width: 1.0;"/><line style="stroke: #006400; stroke-width: 1.0;" x1="418.5" x2="690.5" y1="1035.6797" y2="1035.6797"/><text fill="#000000" font-family="sans-serif" font-size="13" font-weight="bold" lengthAdjust="spacingAndGlyphs" textLength="18" x="425.5" y="1030.6138">32</text><text fill="#000000" font-family="sans-serif" font-size="13" lengthAdjust="spacingAndGlyphs" textLength="222" x="447.5" y="1030.6138">Category Request for Empty Bottle</text><polygon fill="#006400" points="998.5,1060.8125,1008.5,1064.8125,998.5,1068.8125,1002.5,1064.8125" style="stroke: #006400; stroke-width: 1.0;"/><line style="stroke: #006400; stroke-width: 1.0;" x1="706.5" x2="1004.5" y1="1064.8125" y2="1064.8125"/><text fill="#000000" font-family="sans-serif" font-size="13" font-weight="bold" lengthAdjust="spacingAndGlyphs" textLength="18" x="713.5" y="1059.7466">33</text><text fill="#000000" font-family="sans-serif" font-size="13" lengthAdjust="spacingAndGlyphs" textLength="114" x="735.5" y="1059.7466">Category Request</text><polygon fill="#006400" points="717.5,1089.9453,707.5,1093.9453,717.5,1097.9453,713.5,1093.9453" style="stroke: #006400; stroke-width: 1.0;"/><line style="stroke: #006400; stroke-width: 1.0;" x1="711.5" x2="1009.5" y1="1093.9453" y2="1093.9453"/><text fill="#000000" font-family="sans-serif" font-size="13" font-weight="bold" lengthAdjust="spacingAndGlyphs" textLength="18" x="723.5" y="1088.8794">34</text><text fill="#000000" font-family="sans-serif" font-size="13" lengthAdjust="spacingAndGlyphs" textLength="124" x="745.5" y="1088.8794">Category Response</text><polygon fill="#006400" points="429.5,1119.0781,419.5,1123.0781,429.5,1127.0781,425.5,1123.0781" style="stroke: #006400; stroke-width: 1.0;"/><line style="stroke: #006400; stroke-width: 1.0;" x1="423.5" x2="695.5" y1="1123.0781" y2="1123.0781"/><text fill="#000000" font-family="sans-serif" font-size="13" font-weight="bold" lengthAdjust="spacingAndGlyphs" textLength="18" x="435.5" y="1118.0122">35</text><text fill="#000000" font-family="sans-serif" font-size="13" lengthAdjust="spacingAndGlyphs" textLength="232" x="457.5" y="1118.0122">Category Response for Empty Bottle</text><polygon fill="#006400" points="1137.5,1148.2109,1147.5,1152.2109,1137.5,1156.2109,1141.5,1152.2109" style="stroke: #006400; stroke-width: 1.0;"/><line style="stroke: #006400; stroke-width: 1.0;" x1="418.5" x2="1143.5" y1="1152.2109" y2="1152.2109"/><text fill="#000000" font-family="sans-serif" font-size="13" font-weight="bold" lengthAdjust="spacingAndGlyphs" textLength="18" x="425.5" y="1147.145">36</text><text fill="#000000" font-family="sans-serif" font-size="13" lengthAdjust="spacingAndGlyphs" textLength="112" x="447.5" y="1147.145">add product price</text><polygon fill="#006400" points="717.5,1177.3438,707.5,1181.3438,717.5,1185.3438,713.5,1181.3438" style="stroke: #006400; stroke-width: 1.0;"/><line style="stroke: #006400; stroke-width: 1.0;" x1="711.5" x2="1148.5" y1="1181.3438" y2="1181.3438"/><text fill="#000000" font-family="sans-serif" font-size="13" font-weight="bold" lengthAdjust="spacingAndGlyphs" textLength="18" x="723.5" y="1176.2778">37</text><text fill="#000000" font-family="sans-serif" font-size="13" lengthAdjust="spacingAndGlyphs" textLength="281" x="745.5" y="1176.2778">remove Empty Bottle from display inventory</text><polygon fill="#006400" points="998.5,1206.4766,1008.5,1210.4766,998.5,1214.4766,1002.5,1210.4766" style="stroke: #006400; stroke-width: 1.0;"/><line style="stroke: #006400; stroke-width: 1.0;" x1="706.5" x2="1004.5" y1="1210.4766" y2="1210.4766"/><text fill="#000000" font-family="sans-serif" font-size="13" font-weight="bold" lengthAdjust="spacingAndGlyphs" textLength="18" x="713.5" y="1205.4106">38</text><text fill="#000000" font-family="sans-serif" font-size="13" lengthAdjust="spacingAndGlyphs" textLength="141" x="735.5" y="1205.4106">remove one displayed</text><polygon fill="#006400" points="717.5,1235.6094,707.5,1239.6094,717.5,1243.6094,713.5,1239.6094" style="stroke: #006400; stroke-width: 1.0;"/><line style="stroke: #006400; stroke-width: 1.0; stroke-dasharray: 2.0,2.0;" x1="711.5" x2="1009.5" y1="1239.6094" y2="1239.6094"/><text fill="#000000" font-family="sans-serif" font-size="13" font-weight="bold" lengthAdjust="spacingAndGlyphs" textLength="18" x="723.5" y="1234.5435">39</text><text fill="#000000" font-family="sans-serif" font-size="13" lengthAdjust="spacingAndGlyphs" textLength="0" x="749.5" y="1234.5435"/><polygon fill="#006400" points="1137.5,1264.7422,1147.5,1268.7422,1137.5,1272.7422,1141.5,1268.7422" style="stroke: #006400; stroke-width: 1.0;"/><line style="stroke: #006400; stroke-width: 1.0; stroke-dasharray: 2.0,2.0;" x1="706.5" x2="1143.5" y1="1268.7422" y2="1268.7422"/><text fill="#000000" font-family="sans-serif" font-size="13" font-weight="bold" lengthAdjust="spacingAndGlyphs" textLength="18" x="713.5" y="1263.6763">40</text><text fill="#000000" font-family="sans-serif" font-size="13" lengthAdjust="spacingAndGlyphs" textLength="0" x="739.5" y="1263.6763"/><polygon fill="#006400" points="1329.5,1309.0078,1339.5,1313.0078,1329.5,1317.0078,1333.5,1313.0078" style="stroke: #006400; stroke-width: 1.0;"/><line style="stroke: #006400; stroke-width: 1.0;" x1="1159.5" x2="1335.5" y1="1313.0078" y2="1313.0078"/><text fill="#000000" font-family="sans-serif" font-size="13" font-weight="bold" lengthAdjust="spacingAndGlyphs" textLength="18" x="1166.5" y="1300.3755">41</text><text fill="#000000" font-family="sans-serif" font-size="13" lengthAdjust="spacingAndGlyphs" textLength="100" x="1188.5" y="1292.8091">log the removal</text><text fill="#000000" font-family="sans-serif" font-size="13" lengthAdjust="spacingAndGlyphs" textLength="118" x="1188.5" y="1307.9419">from the inventory</text><polygon fill="#006400" points="1170.5,1338.1406,1160.5,1342.1406,1170.5,1346.1406,1166.5,1342.1406" style="stroke: #006400; stroke-width: 1.0;"/><line style="stroke: #006400; stroke-width: 1.0; stroke-dasharray: 2.0,2.0;" x1="1164.5" x2="1340.5" y1="1342.1406" y2="1342.1406"/><text fill="#000000" font-family="sans-serif" font-size="13" font-weight="bold" lengthAdjust="spacingAndGlyphs" textLength="18" x="1176.5" y="1337.0747">42</text><text fill="#000000" font-family="sans-serif" font-size="13" lengthAdjust="spacingAndGlyphs" textLength="0" x="1202.5" y="1337.0747"/><polygon fill="#006400" points="429.5,1367.2734,419.5,1371.2734,429.5,1375.2734,425.5,1371.2734" style="stroke: #006400; stroke-width: 1.0;"/><line style="stroke: #006400; stroke-width: 1.0; stroke-dasharray: 2.0,2.0;" x1="423.5" x2="1148.5" y1="1371.2734" y2="1371.2734"/><text fill="#000000" font-family="sans-serif" font-size="13" font-weight="bold" lengthAdjust="spacingAndGlyphs" textLength="18" x="435.5" y="1366.2075">43</text><text fill="#000000" font-family="sans-serif" font-size="13" lengthAdjust="spacingAndGlyphs" textLength="0" x="461.5" y="1366.2075"/><polygon fill="#006400" points="262.5,1396.4063,252.5,1400.4063,262.5,1404.4063,258.5,1400.4063" style="stroke: #006400; stroke-width: 1.0;"/><line style="stroke: #006400; stroke-width: 1.0; stroke-dasharray: 2.0,2.0;" x1="256.5" x2="407.5" y1="1400.4063" y2="1400.4063"/><text fill="#000000" font-family="sans-serif" font-size="13" font-weight="bold" lengthAdjust="spacingAndGlyphs" textLength="18" x="268.5" y="1395.3403">44</text><text fill="#000000" font-family="sans-serif" font-size="13" lengthAdjust="spacingAndGlyphs" textLength="0" x="294.5" y="1395.3403"/><polygon fill="#006400" points="1137.5,1450.5391,1147.5,1454.5391,1137.5,1458.5391,1141.5,1454.5391" style="stroke: #006400; stroke-width: 1.0;"/><line style="stroke: #006400; stroke-width: 1.0;" x1="251.5" x2="1143.5" y1="1454.5391" y2="1454.5391"/><text fill="#000000" font-family="sans-serif" font-size="13" font-weight="bold" lengthAdjust="spacingAndGlyphs" textLength="18" x="258.5" y="1449.4731">45</text><text fill="#000000" font-family="sans-serif" font-size="13" lengthAdjust="spacingAndGlyphs" textLength="85" x="280.5" y="1449.4731">Scan finished</text><polygon fill="#006400" points="429.5,1479.6719,419.5,1483.6719,429.5,1487.6719,425.5,1483.6719" style="stroke: #006400; stroke-width: 1.0;"/><line style="stroke: #006400; stroke-width: 1.0;" x1="423.5" x2="1148.5" y1="1483.6719" y2="1483.6719"/><text fill="#000000" font-family="sans-serif" font-size="13" font-weight="bold" lengthAdjust="spacingAndGlyphs" textLength="18" x="435.5" y="1478.606">46</text><text fill="#000000" font-family="sans-serif" font-size="13" lengthAdjust="spacingAndGlyphs" textLength="105" x="457.5" y="1478.606">Product Request</text><polygon fill="#006400" points="1137.5,1508.8047,1147.5,1512.8047,1137.5,1516.8047,1141.5,1512.8047" style="stroke: #006400; stroke-width: 1.0;"/><line style="stroke: #006400; stroke-width: 1.0;" x1="413.5" x2="1143.5" y1="1512.8047" y2="1512.8047"/><text fill="#000000" font-family="sans-serif" font-size="13" font-weight="bold" lengthAdjust="spacingAndGlyphs" textLength="18" x="420.5" y="1507.7388">47</text><text fill="#000000" font-family="sans-serif" font-size="13" lengthAdjust="spacingAndGlyphs" textLength="115" x="442.5" y="1507.7388">Product Response</text><line style="stroke: #006400; stroke-width: 1.0;" x1="1159.5" x2="1201.5" y1="1541.9375" y2="1541.9375"/><line style="stroke: #006400; stroke-width: 1.0;" x1="1201.5" x2="1201.5" y1="1541.9375" y2="1554.9375"/><line style="stroke: #006400; stroke-width: 1.0;" x1="1160.5" x2="1201.5" y1="1554.9375" y2="1554.9375"/><polygon fill="#006400" points="1170.5,1550.9375,1160.5,1554.9375,1170.5,1558.9375,1166.5,1554.9375" style="stroke: #006400; stroke-width: 1.0;"/><text fill="#000000" font-family="sans-serif" font-size="13" font-weight="bold" lengthAdjust="spacingAndGlyphs" textLength="18" x="1166.5" y="1536.8716">48</text><text fill="#000000" font-family="sans-serif" font-size="13" lengthAdjust="spacingAndGlyphs" textLength="123" x="1188.5" y="1536.8716">Sum of base prices</text><line style="stroke: #006400; stroke-width: 1.0;" x1="1159.5" x2="1201.5" y1="1584.0703" y2="1584.0703"/><line style="stroke: #006400; stroke-width: 1.0;" x1="1201.5" x2="1201.5" y1="1584.0703" y2="1597.0703"/><line style="stroke: #006400; stroke-width: 1.0;" x1="1160.5" x2="1201.5" y1="1597.0703" y2="1597.0703"/><polygon fill="#006400" points="1170.5,1593.0703,1160.5,1597.0703,1170.5,1601.0703,1166.5,1597.0703" style="stroke: #006400; stroke-width: 1.0;"/><text fill="#000000" font-family="sans-serif" font-size="13" font-weight="bold" lengthAdjust="spacingAndGlyphs" textLength="18" x="1166.5" y="1579.0044">49</text><text fill="#000000" font-family="sans-serif" font-size="13" lengthAdjust="spacingAndGlyphs" textLength="146" x="1188.5" y="1579.0044">Calculate with discount</text><line style="stroke: #006400; stroke-width: 1.0;" x1="1159.5" x2="1201.5" y1="1626.2031" y2="1626.2031"/><line style="stroke: #006400; stroke-width: 1.0;" x1="1201.5" x2="1201.5" y1="1626.2031" y2="1639.2031"/><line style="stroke: #006400; stroke-width: 1.0;" x1="1160.5" x2="1201.5" y1="1639.2031" y2="1639.2031"/><polygon fill="#006400" points="1170.5,1635.2031,1160.5,1639.2031,1170.5,1643.2031,1166.5,1639.2031" style="stroke: #006400; stroke-width: 1.0;"/><text fill="#000000" font-family="sans-serif" font-size="13" font-weight="bold" lengthAdjust="spacingAndGlyphs" textLength="18" x="1166.5" y="1621.1372">50</text><text fill="#000000" font-family="sans-serif" font-size="13" lengthAdjust="spacingAndGlyphs" textLength="130" x="1188.5" y="1621.1372">Calculate with MwSt.</text><line style="stroke: #006400; stroke-width: 1.0;" x1="1159.5" x2="1201.5" y1="1668.3359" y2="1668.3359"/><line style="stroke: #006400; stroke-width: 1.0;" x1="1201.5" x2="1201.5" y1="1668.3359" y2="1681.3359"/><line style="stroke: #006400; stroke-width: 1.0;" x1="1160.5" x2="1201.5" y1="1681.3359" y2="1681.3359"/><polygon fill="#006400" points="1170.5,1677.3359,1160.5,1681.3359,1170.5,1685.3359,1166.5,1681.3359" style="stroke: #006400; stroke-width: 1.0;"/><text fill="#000000" font-family="sans-serif" font-size="13" font-weight="bold" lengthAdjust="spacingAndGlyphs" textLength="18" x="1166.5" y="1663.27">51</text><text fill="#000000" font-family="sans-serif" font-size="13" lengthAdjust="spacingAndGlyphs" textLength="128" x="1188.5" y="1663.27">add/substract Pfand</text><polygon fill="#006400" points="262.5,1706.4688,252.5,1710.4688,262.5,1714.4688,258.5,1710.4688" style="stroke: #006400; stroke-width: 1.0;"/><line style="stroke: #006400; stroke-width: 1.0;" x1="256.5" x2="1148.5" y1="1710.4688" y2="1710.4688"/><text fill="#000000" font-family="sans-serif" font-size="13" font-weight="bold" lengthAdjust="spacingAndGlyphs" textLength="18" x="268.5" y="1705.4028">52</text><text fill="#000000" font-family="sans-serif" font-size="13" lengthAdjust="spacingAndGlyphs" textLength="64" x="290.5" y="1705.4028">send total</text><polygon fill="#006400" points="83.5,1735.6016,73.5,1739.6016,83.5,1743.6016,79.5,1739.6016" style="stroke: #006400; stroke-width: 1.0;"/><line style="stroke: #006400; stroke-width: 1.0;" x1="77.5" x2="240.5" y1="1739.6016" y2="1739.6016"/><text fill="#000000" font-family="sans-serif" font-size="13" font-weight="bold" lengthAdjust="spacingAndGlyphs" textLength="18" x="89.5" y="1734.5356">53</text><text fill="#000000" font-family="sans-serif" font-size="13" lengthAdjust="spacingAndGlyphs" textLength="52" x="111.5" y="1734.5356">tell total</text><polygon fill="#006400" points="229.5,1764.7344,239.5,1768.7344,229.5,1772.7344,233.5,1768.7344" style="stroke: #006400; stroke-width: 1.0;"/><line style="stroke: #006400; stroke-width: 1.0;" x1="72.5" x2="235.5" y1="1768.7344" y2="1768.7344"/><text fill="#000000" font-family="sans-serif" font-size="13" font-weight="bold" lengthAdjust="spacingAndGlyphs" textLength="18" x="79.5" y="1763.6685">54</text><text fill="#000000" font-family="sans-serif" font-size="13" lengthAdjust="spacingAndGlyphs" textLength="74" x="101.5" y="1763.6685">give money</text><polygon fill="#006400" points="1137.5,1793.8672,1147.5,1797.8672,1137.5,1801.8672,1141.5,1797.8672" style="stroke: #006400; stroke-width: 1.0;"/><line style="stroke: #006400; stroke-width: 1.0;" x1="251.5" x2="1143.5" y1="1797.8672" y2="1797.8672"/><text fill="#000000" font-family="sans-serif" font-size="13" font-weight="bold" lengthAdjust="spacingAndGlyphs" textLength="18" x="258.5" y="1792.8013">55</text><text fill="#000000" font-family="sans-serif" font-size="13" lengthAdjust="spacingAndGlyphs" textLength="120" x="280.5" y="1792.8013">enter given money</text><line style="stroke: #006400; stroke-width: 1.0;" x1="1159.5" x2="1201.5" y1="1827" y2="1827"/><line style="stroke: #006400; stroke-width: 1.0;" x1="1201.5" x2="1201.5" y1="1827" y2="1840"/><line style="stroke: #006400; stroke-width: 1.0;" x1="1160.5" x2="1201.5" y1="1840" y2="1840"/><polygon fill="#006400" points="1170.5,1836,1160.5,1840,1170.5,1844,1166.5,1840" style="stroke: #006400; stroke-width: 1.0;"/><text fill="#000000" font-family="sans-serif" font-size="13" font-weight="bold" lengthAdjust="spacingAndGlyphs" textLength="18" x="1166.5" y="1821.9341">56</text><text fill="#000000" font-family="sans-serif" font-size="13" lengthAdjust="spacingAndGlyphs" textLength="108" x="1188.5" y="1821.9341">calculate change</text><polygon fill="#006400" points="1329.5,1865.1328,1339.5,1869.1328,1329.5,1873.1328,1333.5,1869.1328" style="stroke: #006400; stroke-width: 1.0;"/><line style="stroke: #006400; stroke-width: 1.0;" x1="1159.5" x2="1335.5" y1="1869.1328" y2="1869.1328"/><text fill="#000000" font-family="sans-serif" font-size="13" font-weight="bold" lengthAdjust="spacingAndGlyphs" textLength="18" x="1166.5" y="1864.0669">57</text><text fill="#000000" font-family="sans-serif" font-size="13" lengthAdjust="spacingAndGlyphs" textLength="95" x="1188.5" y="1864.0669">log transaction</text><polygon fill="#006400" points="1170.5,1894.2656,1160.5,1898.2656,1170.5,1902.2656,1166.5,1898.2656" style="stroke: #006400; stroke-width: 1.0;"/><line style="stroke: #006400; stroke-width: 1.0; stroke-dasharray: 2.0,2.0;" x1="1164.5" x2="1340.5" y1="1898.2656" y2="1898.2656"/><text fill="#000000" font-family="sans-serif" font-size="13" font-weight="bold" lengthAdjust="spacingAndGlyphs" textLength="18" x="1176.5" y="1893.1997">58</text><text fill="#000000" font-family="sans-serif" font-size="13" lengthAdjust="spacingAndGlyphs" textLength="0" x="1202.5" y="1893.1997"/><polygon fill="#006400" points="262.5,1923.3984,252.5,1927.3984,262.5,1931.3984,258.5,1927.3984" style="stroke: #006400; stroke-width: 1.0;"/><line style="stroke: #006400; stroke-width: 1.0;" x1="256.5" x2="1153.5" y1="1927.3984" y2="1927.3984"/><text fill="#000000" font-family="sans-serif" font-size="13" font-weight="bold" lengthAdjust="spacingAndGlyphs" textLength="18" x="268.5" y="1922.3325">59</text><text fill="#000000" font-family="sans-serif" font-size="13" lengthAdjust="spacingAndGlyphs" textLength="136" x="290.5" y="1922.3325">send change amount</text><polygon fill="#006400" points="83.5,1952.5313,73.5,1956.5313,83.5,1960.5313,79.5,1956.5313" style="stroke: #006400; stroke-width: 1.0;"/><line style="stroke: #006400; stroke-width: 1.0;" x1="77.5" x2="240.5" y1="1956.5313" y2="1956.5313"/><text fill="#000000" font-family="sans-serif" font-size="13" font-weight="bold" lengthAdjust="spacingAndGlyphs" textLength="18" x="89.5" y="1951.4653">60</text><text fill="#000000" font-family="sans-serif" font-size="13" lengthAdjust="spacingAndGlyphs" textLength="77" x="111.5" y="1951.4653">give change</text><!--
@startuml

skinparam linetype ortho
hide circle

skinparam participant{
    BorderColor darkgreen
    BackgroundColor white
    FontStyle bold
}

skinparam arrow{
    Color darkgreen
}

skinparam sequence{
    LifeLineBorderColor black
}

skinparam Actor{
    BorderColor black
    BackgroundColor white
}

autonumber

actor HouseCustomer
actor Staff
participant ShoppingCart
participant Inventory
participant "Milk \n(Product)" as Product1
participant "Empty Bottle \n(Product) " as Product2
participant CashierSystem
participant Log

activate Staff
activate HouseCustomer
activate Product1
activate Product2
activate Inventory
activate Log


HouseCustomer <- Staff: Request customer id
HouseCustomer -> Staff:  customer id
Staff -> ShoppingCart: set customer id
activate ShoppingCart

ShoppingCart -> CashierSystem: initialize with customer id
activate CashierSystem

CashierSystem - -> ShoppingCart
ShoppingCart - -> Staff




    HouseCustomer -> Staff: gives Milk
    ShoppingCart <- Staff: add Milk
    ShoppingCart -> Inventory: Price Request for Milk
    Inventory -> Product1: Price Request
    Inventory <- Product1: Price Response
    Inventory -> ShoppingCart: Price Response for Milk

    ShoppingCart -> Inventory: Category Request for Milk
    Inventory -> Product1: Category Request
    Inventory <- Product1: Category Response
    Inventory -> ShoppingCart: Category Response for Milk

    ShoppingCart -> CashierSystem: add product price
    CashierSystem -> Inventory: remove Milk from display inventory
    Inventory -> Product1: remove one displayed
    Inventory <- - Product1
    Inventory - -> CashierSystem
    CashierSystem -> Log: log the removal \nfrom the inventory
    Log - -> CashierSystem
    CashierSystem - -> ShoppingCart

    ShoppingCart - -> Staff



    HouseCustomer -> Staff: gives Empty Bottle
    ShoppingCart <- Staff: add Empty Bottle
    ShoppingCart -> Inventory: Price Request for Empty Bottle
    Inventory -> Product2: Price Request
    Inventory <- Product2: Price Response
    Inventory -> ShoppingCart: Price Response for Empty Bottle

    ShoppingCart -> Inventory: Category Request for Empty Bottle
    Inventory -> Product2: Category Request
    Inventory <- Product2: Category Response
    Inventory -> ShoppingCart: Category Response for Empty Bottle

    ShoppingCart -> CashierSystem: add product price
    CashierSystem -> Inventory: remove Empty Bottle from display inventory
    Inventory -> Product2: remove one displayed
    Inventory <- - Product2
    Inventory - -> CashierSystem
    CashierSystem -> Log: log the removal \nfrom the inventory
    Log - -> CashierSystem
    CashierSystem - -> ShoppingCart

    ShoppingCart - -> Staff

|||
Staff -> CashierSystem: Scan finished
CashierSystem -> ShoppingCart: Product Request
CashierSystem <- ShoppingCart: Product Response
deactivate ShoppingCart
CashierSystem -> CashierSystem: Sum of base prices
CashierSystem -> CashierSystem: Calculate with discount
CashierSystem -> CashierSystem: Calculate with MwSt.
CashierSystem -> CashierSystem: add/substract Pfand
CashierSystem -> Staff: send total
Staff -> HouseCustomer: tell total
HouseCustomer -> Staff: give money
Staff -> CashierSystem: enter given money
CashierSystem -> CashierSystem: calculate change
CashierSystem -> Log: log transaction
CashierSystem <- - Log
CashierSystem -> Staff: send change amount
deactivate CashierSystem
Staff -> HouseCustomer: give change


@enduml

PlantUML version 1.2018.12(Sun Oct 21 12:15:15 CEST 2018)
(GPL source distribution)
Java Runtime: OpenJDK Runtime Environment
JVM: OpenJDK 64-Bit Server VM
Java Version: 11.0.1+13-Debian-2
Operating System: Linux
OS Version: 4.18.0-parrot10-amd64
Default Encoding: UTF-8
Language: en
Country: US
--></g></svg>