<?xml version="1.0" encoding="UTF-8" standalone="no"?><svg xmlns="http://www.w3.org/2000/svg" xmlns:xlink="http://www.w3.org/1999/xlink" contentScriptType="application/ecmascript" contentStyleType="text/css" height="710px" preserveAspectRatio="none" style="width:481px;height:710px;" version="1.1" viewBox="0 0 481 710" width="481px" zoomAndPan="magnify"><defs><filter height="300%" id="f1flb388novt7z" width="300%" x="-1" y="-1"><feGaussianBlur result="blurOut" stdDeviation="2.0"/><feColorMatrix in="blurOut" result="blurOut2" type="matrix" values="0 0 0 0 0 0 0 0 0 0 0 0 0 0 0 0 0 0 .4 0"/><feOffset dx="4.0" dy="4.0" in="blurOut2" result="blurOut3"/><feBlend in="SourceGraphic" in2="blurOut3" mode="normal"/></filter></defs><g><rect fill="#FFFFFF" filter="url(#f1flb388novt7z)" height="591.6563" style="stroke: #000000; stroke-width: 1.0;" width="10" x="46" y="69.4297"/><rect fill="#FFFFFF" filter="url(#f1flb388novt7z)" height="591.6563" style="stroke: #000000; stroke-width: 1.0;" width="10" x="239" y="69.4297"/><line style="stroke: #000000; stroke-width: 1.0; stroke-dasharray: 5.0,5.0;" x1="51" x2="51" y1="38.2969" y2="670.0859"/><line style="stroke: #000000; stroke-width: 1.0; stroke-dasharray: 5.0,5.0;" x1="243.5" x2="243.5" y1="38.2969" y2="670.0859"/><line style="stroke: #000000; stroke-width: 1.0; stroke-dasharray: 5.0,5.0;" x1="437" x2="437" y1="38.2969" y2="670.0859"/><rect fill="#FFFFFF" filter="url(#f1flb388novt7z)" height="30.2969" style="stroke: #006400; stroke-width: 1.5;" width="82" x="8" y="3"/><text fill="#000000" font-family="sans-serif" font-size="14" font-weight="bold" lengthAdjust="spacingAndGlyphs" textLength="68" x="15" y="22.9951">Manager</text><rect fill="#FFFFFF" filter="url(#f1flb388novt7z)" height="30.2969" style="stroke: #006400; stroke-width: 1.5;" width="82" x="8" y="669.0859"/><text fill="#000000" font-family="sans-serif" font-size="14" font-weight="bold" lengthAdjust="spacingAndGlyphs" textLength="68" x="15" y="689.0811">Manager</text><rect fill="#FFFFFF" filter="url(#f1flb388novt7z)" height="30.2969" style="stroke: #006400; stroke-width: 1.5;" width="79" x="202.5" y="3"/><text fill="#000000" font-family="sans-serif" font-size="14" font-weight="bold" lengthAdjust="spacingAndGlyphs" textLength="65" x="209.5" y="22.9951">UserList</text><rect fill="#FFFFFF" filter="url(#f1flb388novt7z)" height="30.2969" style="stroke: #006400; stroke-width: 1.5;" width="79" x="202.5" y="669.0859"/><text fill="#000000" font-family="sans-serif" font-size="14" font-weight="bold" lengthAdjust="spacingAndGlyphs" textLength="65" x="209.5" y="689.0811">UserList</text><rect fill="#FFFFFF" filter="url(#f1flb388novt7z)" height="30.2969" style="stroke: #006400; stroke-width: 1.5;" width="70" x="400" y="3"/><text fill="#000000" font-family="sans-serif" font-size="14" font-weight="bold" lengthAdjust="spacingAndGlyphs" textLength="56" x="407" y="22.9951">Person</text><rect fill="#FFFFFF" filter="url(#f1flb388novt7z)" height="30.2969" style="stroke: #006400; stroke-width: 1.5;" width="70" x="400" y="669.0859"/><text fill="#000000" font-family="sans-serif" font-size="14" font-weight="bold" lengthAdjust="spacingAndGlyphs" textLength="56" x="407" y="689.0811">Person</text><rect fill="#FFFFFF" filter="url(#f1flb388novt7z)" height="591.6563" style="stroke: #000000; stroke-width: 1.0;" width="10" x="46" y="69.4297"/><rect fill="#FFFFFF" filter="url(#f1flb388novt7z)" height="591.6563" style="stroke: #000000; stroke-width: 1.0;" width="10" x="239" y="69.4297"/><polygon fill="#006400" points="227,65.4297,237,69.4297,227,73.4297,231,69.4297" style="stroke: #006400; stroke-width: 1.0;"/><line style="stroke: #006400; stroke-width: 1.0;" x1="56" x2="233" y1="69.4297" y2="69.4297"/><text fill="#000000" font-family="sans-serif" font-size="13" lengthAdjust="spacingAndGlyphs" textLength="91" x="63" y="64.3638">add Customer</text><polygon fill="#006400" points="67,94.5625,57,98.5625,67,102.5625,63,98.5625" style="stroke: #006400; stroke-width: 1.0;"/><line style="stroke: #006400; stroke-width: 1.0;" x1="61" x2="238" y1="98.5625" y2="98.5625"/><text fill="#000000" font-family="sans-serif" font-size="13" lengthAdjust="spacingAndGlyphs" textLength="149" x="73" y="93.4966">Request type customer</text><polygon fill="#006400" points="227,123.6953,237,127.6953,227,131.6953,231,127.6953" style="stroke: #006400; stroke-width: 1.0;"/><line style="stroke: #006400; stroke-width: 1.0;" x1="56" x2="233" y1="127.6953" y2="127.6953"/><text fill="#000000" font-family="sans-serif" font-size="13" lengthAdjust="spacingAndGlyphs" textLength="159" x="63" y="122.6294">Response type customer</text><polygon fill="#006400" points="425,152.8281,435,156.8281,425,160.8281,429,156.8281" style="stroke: #006400; stroke-width: 1.0;"/><line style="stroke: #006400; stroke-width: 1.0;" x1="249" x2="431" y1="156.8281" y2="156.8281"/><text fill="#000000" font-family="sans-serif" font-size="13" lengthAdjust="spacingAndGlyphs" textLength="102" x="256" y="151.7622">Add new person</text><polygon fill="#006400" points="260,181.9609,250,185.9609,260,189.9609,256,185.9609" style="stroke: #006400; stroke-width: 1.0;"/><line style="stroke: #006400; stroke-width: 1.0;" x1="254" x2="436" y1="185.9609" y2="185.9609"/><text fill="#000000" font-family="sans-serif" font-size="13" lengthAdjust="spacingAndGlyphs" textLength="93" x="266" y="180.895">Request name</text><polygon fill="#006400" points="67,211.0938,57,215.0938,67,219.0938,63,215.0938" style="stroke: #006400; stroke-width: 1.0;"/><line style="stroke: #006400; stroke-width: 1.0;" x1="61" x2="238" y1="215.0938" y2="215.0938"/><text fill="#000000" font-family="sans-serif" font-size="13" lengthAdjust="spacingAndGlyphs" textLength="93" x="73" y="210.0278">Request name</text><polygon fill="#006400" points="227,240.2266,237,244.2266,227,248.2266,231,244.2266" style="stroke: #006400; stroke-width: 1.0;"/><line style="stroke: #006400; stroke-width: 1.0;" x1="56" x2="233" y1="244.2266" y2="244.2266"/><text fill="#000000" font-family="sans-serif" font-size="13" lengthAdjust="spacingAndGlyphs" textLength="103" x="63" y="239.1606">Response name</text><polygon fill="#006400" points="425,269.3594,435,273.3594,425,277.3594,429,273.3594" style="stroke: #006400; stroke-width: 1.0;"/><line style="stroke: #006400; stroke-width: 1.0;" x1="249" x2="431" y1="273.3594" y2="273.3594"/><text fill="#000000" font-family="sans-serif" font-size="13" lengthAdjust="spacingAndGlyphs" textLength="103" x="256" y="268.2935">Response name</text><polygon fill="#006400" points="260,298.4922,250,302.4922,260,306.4922,256,302.4922" style="stroke: #006400; stroke-width: 1.0;"/><line style="stroke: #006400; stroke-width: 1.0;" x1="254" x2="436" y1="302.4922" y2="302.4922"/><text fill="#000000" font-family="sans-serif" font-size="13" lengthAdjust="spacingAndGlyphs" textLength="107" x="266" y="297.4263">Request address</text><polygon fill="#006400" points="67,327.625,57,331.625,67,335.625,63,331.625" style="stroke: #006400; stroke-width: 1.0;"/><line style="stroke: #006400; stroke-width: 1.0;" x1="61" x2="238" y1="331.625" y2="331.625"/><text fill="#000000" font-family="sans-serif" font-size="13" lengthAdjust="spacingAndGlyphs" textLength="107" x="73" y="326.5591">Request address</text><polygon fill="#006400" points="227,356.7578,237,360.7578,227,364.7578,231,360.7578" style="stroke: #006400; stroke-width: 1.0;"/><line style="stroke: #006400; stroke-width: 1.0;" x1="56" x2="233" y1="360.7578" y2="360.7578"/><text fill="#000000" font-family="sans-serif" font-size="13" lengthAdjust="spacingAndGlyphs" textLength="117" x="63" y="355.6919">Response address</text><polygon fill="#006400" points="425,385.8906,435,389.8906,425,393.8906,429,389.8906" style="stroke: #006400; stroke-width: 1.0;"/><line style="stroke: #006400; stroke-width: 1.0;" x1="249" x2="431" y1="389.8906" y2="389.8906"/><text fill="#000000" font-family="sans-serif" font-size="13" lengthAdjust="spacingAndGlyphs" textLength="117" x="256" y="384.8247">Response address</text><polygon fill="#006400" points="260,415.0234,250,419.0234,260,423.0234,256,419.0234" style="stroke: #006400; stroke-width: 1.0;"/><line style="stroke: #006400; stroke-width: 1.0;" x1="254" x2="436" y1="419.0234" y2="419.0234"/><text fill="#000000" font-family="sans-serif" font-size="13" lengthAdjust="spacingAndGlyphs" textLength="91" x="266" y="413.9575">Request email</text><polygon fill="#006400" points="67,444.1563,57,448.1563,67,452.1563,63,448.1563" style="stroke: #006400; stroke-width: 1.0;"/><line style="stroke: #006400; stroke-width: 1.0;" x1="61" x2="238" y1="448.1563" y2="448.1563"/><text fill="#000000" font-family="sans-serif" font-size="13" lengthAdjust="spacingAndGlyphs" textLength="91" x="73" y="443.0903">Request email</text><polygon fill="#006400" points="227,473.2891,237,477.2891,227,481.2891,231,477.2891" style="stroke: #006400; stroke-width: 1.0;"/><line style="stroke: #006400; stroke-width: 1.0;" x1="56" x2="233" y1="477.2891" y2="477.2891"/><text fill="#000000" font-family="sans-serif" font-size="13" lengthAdjust="spacingAndGlyphs" textLength="101" x="63" y="472.2231">Response email</text><polygon fill="#006400" points="425,502.4219,435,506.4219,425,510.4219,429,506.4219" style="stroke: #006400; stroke-width: 1.0;"/><line style="stroke: #006400; stroke-width: 1.0;" x1="249" x2="431" y1="506.4219" y2="506.4219"/><text fill="#000000" font-family="sans-serif" font-size="13" lengthAdjust="spacingAndGlyphs" textLength="101" x="256" y="501.356">Response email</text><polygon fill="#006400" points="260,531.5547,250,535.5547,260,539.5547,256,535.5547" style="stroke: #006400; stroke-width: 1.0;"/><line style="stroke: #006400; stroke-width: 1.0;" x1="254" x2="436" y1="535.5547" y2="535.5547"/><text fill="#000000" font-family="sans-serif" font-size="13" lengthAdjust="spacingAndGlyphs" textLength="111" x="266" y="530.4888">Request phoneNr</text><polygon fill="#006400" points="67,560.6875,57,564.6875,67,568.6875,63,564.6875" style="stroke: #006400; stroke-width: 1.0;"/><line style="stroke: #006400; stroke-width: 1.0;" x1="61" x2="238" y1="564.6875" y2="564.6875"/><text fill="#000000" font-family="sans-serif" font-size="13" lengthAdjust="spacingAndGlyphs" textLength="111" x="73" y="559.6216">Request phoneNr</text><polygon fill="#006400" points="227,589.8203,237,593.8203,227,597.8203,231,593.8203" style="stroke: #006400; stroke-width: 1.0;"/><line style="stroke: #006400; stroke-width: 1.0;" x1="56" x2="233" y1="593.8203" y2="593.8203"/><text fill="#000000" font-family="sans-serif" font-size="13" lengthAdjust="spacingAndGlyphs" textLength="121" x="63" y="588.7544">Response phoneNr</text><polygon fill="#006400" points="425,618.9531,435,622.9531,425,626.9531,429,622.9531" style="stroke: #006400; stroke-width: 1.0;"/><line style="stroke: #006400; stroke-width: 1.0;" x1="249" x2="431" y1="622.9531" y2="622.9531"/><text fill="#000000" font-family="sans-serif" font-size="13" lengthAdjust="spacingAndGlyphs" textLength="121" x="256" y="617.8872">Response phoneNr</text><polygon fill="#006400" points="260,648.0859,250,652.0859,260,656.0859,256,652.0859" style="stroke: #006400; stroke-width: 1.0;"/><line style="stroke: #006400; stroke-width: 1.0;" x1="254" x2="436" y1="652.0859" y2="652.0859"/><text fill="#000000" font-family="sans-serif" font-size="13" lengthAdjust="spacingAndGlyphs" textLength="164" x="266" y="647.02">gets added as a new user</text><!--
@startuml

skinparam linetype ortho
hide circle

skinparam participant{
    BorderColor darkgreen
    BackgroundColor white
    FontStyle bold
}

skinparam arrow{
    Color darkgreen
}

skinparam sequence{
    LifeLineBorderColor black
}

Manager -> UserList: add Customer
activate Manager
activate UserList
Manager <- UserList: Request type customer
Manager -> UserList: Response type customer
UserList -> Person: Add new person
Person -> UserList: Request name
UserList -> Manager: Request name
UserList <- Manager: Response name
UserList -> Person: Response name
Person -> UserList: Request address
UserList -> Manager: Request address
UserList <- Manager: Response address
UserList -> Person: Response address
Person -> UserList: Request email
UserList -> Manager: Request email
UserList <- Manager: Response email
UserList -> Person: Response email
Person -> UserList: Request phoneNr
UserList -> Manager: Request phoneNr
UserList <- Manager: Response phoneNr
UserList -> Person: Response phoneNr
Person -> UserList: gets added as a new user

@enduml

PlantUML version 1.2018.12(Sun Oct 21 12:15:15 CEST 2018)
(GPL source distribution)
Java Runtime: OpenJDK Runtime Environment
JVM: OpenJDK 64-Bit Server VM
Java Version: 10.0.2+13-Debian-1
Operating System: Linux
OS Version: 4.18.0-parrot10-amd64
Default Encoding: UTF-8
Language: en
Country: US
--></g></svg>