<?xml version="1.0" encoding="UTF-8" standalone="no"?><svg xmlns="http://www.w3.org/2000/svg" xmlns:xlink="http://www.w3.org/1999/xlink" contentScriptType="application/ecmascript" contentStyleType="text/css" height="879px" preserveAspectRatio="none" style="width:871px;height:879px;" version="1.1" viewBox="0 0 871 879" width="871px" zoomAndPan="magnify"><defs><filter height="300%" id="f19jb2ytdgub3m" width="300%" x="-1" y="-1"><feGaussianBlur result="blurOut" stdDeviation="2.0"/><feColorMatrix in="blurOut" result="blurOut2" type="matrix" values="0 0 0 0 0 0 0 0 0 0 0 0 0 0 0 0 0 0 .4 0"/><feOffset dx="4.0" dy="4.0" in="blurOut2" result="blurOut3"/><feBlend in="SourceGraphic" in2="blurOut3" mode="normal"/></filter></defs><g><rect fill="#FFFFFF" filter="url(#f19jb2ytdgub3m)" height="761.0547" style="stroke: #000000; stroke-width: 1.0;" width="10" x="50.5" y="69.4297"/><rect fill="#FFFFFF" filter="url(#f19jb2ytdgub3m)" height="761.0547" style="stroke: #000000; stroke-width: 1.0;" width="10" x="203.5" y="69.4297"/><rect fill="#FFFFFF" filter="url(#f19jb2ytdgub3m)" height="524.3906" style="stroke: #000000; stroke-width: 1.0;" width="10" x="410.5" y="98.5625"/><rect fill="#FFFFFF" filter="url(#f19jb2ytdgub3m)" height="87.3984" style="stroke: #000000; stroke-width: 1.0;" width="10" x="568.5" y="127.6953"/><rect fill="#FFFFFF" filter="url(#f19jb2ytdgub3m)" height="87.3984" style="stroke: #000000; stroke-width: 1.0;" width="10" x="568.5" y="331.625"/><rect fill="#FFFFFF" filter="url(#f19jb2ytdgub3m)" height="278.7969" style="stroke: #000000; stroke-width: 1.0;" width="10" x="686.5" y="535.5547"/><rect fill="#FFFFFF" filter="url(#f19jb2ytdgub3m)" height="154.3984" style="stroke: #000000; stroke-width: 1.0;" width="10" x="691.5" y="659.9531"/><rect fill="#FFFFFF" filter="url(#f19jb2ytdgub3m)" height="112.2656" style="stroke: #000000; stroke-width: 1.0;" width="10" x="696.5" y="702.0859"/><rect fill="#FFFFFF" filter="url(#f19jb2ytdgub3m)" height="70.1328" style="stroke: #000000; stroke-width: 1.0;" width="10" x="701.5" y="744.2188"/><rect fill="#FFFFFF" filter="url(#f19jb2ytdgub3m)" height="28" style="stroke: #000000; stroke-width: 1.0;" width="10" x="706.5" y="786.3516"/><line style="stroke: #000000; stroke-width: 1.0; stroke-dasharray: 5.0,5.0;" x1="55" x2="55" y1="38.2969" y2="839.4844"/><line style="stroke: #000000; stroke-width: 1.0; stroke-dasharray: 5.0,5.0;" x1="208" x2="208" y1="38.2969" y2="839.4844"/><line style="stroke: #000000; stroke-width: 1.0; stroke-dasharray: 5.0,5.0;" x1="415" x2="415" y1="38.2969" y2="839.4844"/><line style="stroke: #000000; stroke-width: 1.0; stroke-dasharray: 5.0,5.0;" x1="573.5" x2="573.5" y1="38.2969" y2="839.4844"/><line style="stroke: #000000; stroke-width: 1.0; stroke-dasharray: 5.0,5.0;" x1="691.5" x2="691.5" y1="38.2969" y2="839.4844"/><rect fill="#FFFFFF" filter="url(#f19jb2ytdgub3m)" height="30.2969" style="stroke: #006400; stroke-width: 1.5;" width="91" x="8" y="3"/><text fill="#000000" font-family="sans-serif" font-size="14" font-weight="bold" lengthAdjust="spacingAndGlyphs" textLength="77" x="15" y="22.9951">Customer</text><rect fill="#FFFFFF" filter="url(#f19jb2ytdgub3m)" height="30.2969" style="stroke: #006400; stroke-width: 1.5;" width="91" x="8" y="838.4844"/><text fill="#000000" font-family="sans-serif" font-size="14" font-weight="bold" lengthAdjust="spacingAndGlyphs" textLength="77" x="15" y="858.4795">Customer</text><rect fill="#FFFFFF" filter="url(#f19jb2ytdgub3m)" height="30.2969" style="stroke: #006400; stroke-width: 1.5;" width="51" x="181" y="3"/><text fill="#000000" font-family="sans-serif" font-size="14" font-weight="bold" lengthAdjust="spacingAndGlyphs" textLength="37" x="188" y="22.9951">Staff</text><rect fill="#FFFFFF" filter="url(#f19jb2ytdgub3m)" height="30.2969" style="stroke: #006400; stroke-width: 1.5;" width="51" x="181" y="838.4844"/><text fill="#000000" font-family="sans-serif" font-size="14" font-weight="bold" lengthAdjust="spacingAndGlyphs" textLength="37" x="188" y="858.4795">Staff</text><rect fill="#FFFFFF" filter="url(#f19jb2ytdgub3m)" height="30.2969" style="stroke: #006400; stroke-width: 1.5;" width="121" x="353" y="3"/><text fill="#000000" font-family="sans-serif" font-size="14" font-weight="bold" lengthAdjust="spacingAndGlyphs" textLength="107" x="360" y="22.9951">ShoppingCart</text><rect fill="#FFFFFF" filter="url(#f19jb2ytdgub3m)" height="30.2969" style="stroke: #006400; stroke-width: 1.5;" width="121" x="353" y="838.4844"/><text fill="#000000" font-family="sans-serif" font-size="14" font-weight="bold" lengthAdjust="spacingAndGlyphs" textLength="107" x="360" y="858.4795">ShoppingCart</text><rect fill="#FFFFFF" filter="url(#f19jb2ytdgub3m)" height="30.2969" style="stroke: #006400; stroke-width: 1.5;" width="76" x="533.5" y="3"/><text fill="#000000" font-family="sans-serif" font-size="14" font-weight="bold" lengthAdjust="spacingAndGlyphs" textLength="62" x="540.5" y="22.9951">Product</text><rect fill="#FFFFFF" filter="url(#f19jb2ytdgub3m)" height="30.2969" style="stroke: #006400; stroke-width: 1.5;" width="76" x="533.5" y="838.4844"/><text fill="#000000" font-family="sans-serif" font-size="14" font-weight="bold" lengthAdjust="spacingAndGlyphs" textLength="62" x="540.5" y="858.4795">Product</text><rect fill="#FFFFFF" filter="url(#f19jb2ytdgub3m)" height="30.2969" style="stroke: #006400; stroke-width: 1.5;" width="132" x="623.5" y="3"/><text fill="#000000" font-family="sans-serif" font-size="14" font-weight="bold" lengthAdjust="spacingAndGlyphs" textLength="118" x="630.5" y="22.9951">CashierSystem</text><rect fill="#FFFFFF" filter="url(#f19jb2ytdgub3m)" height="30.2969" style="stroke: #006400; stroke-width: 1.5;" width="132" x="623.5" y="838.4844"/><text fill="#000000" font-family="sans-serif" font-size="14" font-weight="bold" lengthAdjust="spacingAndGlyphs" textLength="118" x="630.5" y="858.4795">CashierSystem</text><rect fill="#FFFFFF" filter="url(#f19jb2ytdgub3m)" height="761.0547" style="stroke: #000000; stroke-width: 1.0;" width="10" x="50.5" y="69.4297"/><rect fill="#FFFFFF" filter="url(#f19jb2ytdgub3m)" height="761.0547" style="stroke: #000000; stroke-width: 1.0;" width="10" x="203.5" y="69.4297"/><rect fill="#FFFFFF" filter="url(#f19jb2ytdgub3m)" height="524.3906" style="stroke: #000000; stroke-width: 1.0;" width="10" x="410.5" y="98.5625"/><rect fill="#FFFFFF" filter="url(#f19jb2ytdgub3m)" height="87.3984" style="stroke: #000000; stroke-width: 1.0;" width="10" x="568.5" y="127.6953"/><rect fill="#FFFFFF" filter="url(#f19jb2ytdgub3m)" height="87.3984" style="stroke: #000000; stroke-width: 1.0;" width="10" x="568.5" y="331.625"/><rect fill="#FFFFFF" filter="url(#f19jb2ytdgub3m)" height="278.7969" style="stroke: #000000; stroke-width: 1.0;" width="10" x="686.5" y="535.5547"/><rect fill="#FFFFFF" filter="url(#f19jb2ytdgub3m)" height="154.3984" style="stroke: #000000; stroke-width: 1.0;" width="10" x="691.5" y="659.9531"/><rect fill="#FFFFFF" filter="url(#f19jb2ytdgub3m)" height="112.2656" style="stroke: #000000; stroke-width: 1.0;" width="10" x="696.5" y="702.0859"/><rect fill="#FFFFFF" filter="url(#f19jb2ytdgub3m)" height="70.1328" style="stroke: #000000; stroke-width: 1.0;" width="10" x="701.5" y="744.2188"/><rect fill="#FFFFFF" filter="url(#f19jb2ytdgub3m)" height="28" style="stroke: #000000; stroke-width: 1.0;" width="10" x="706.5" y="786.3516"/><polygon fill="#006400" points="191.5,65.4297,201.5,69.4297,191.5,73.4297,195.5,69.4297" style="stroke: #006400; stroke-width: 1.0;"/><line style="stroke: #006400; stroke-width: 1.0;" x1="60.5" x2="197.5" y1="69.4297" y2="69.4297"/><text fill="#000000" font-family="sans-serif" font-size="13" lengthAdjust="spacingAndGlyphs" textLength="128" x="67.5" y="64.3638">buys milk in a bottle</text><polygon fill="#006400" points="398.5,94.5625,408.5,98.5625,398.5,102.5625,402.5,98.5625" style="stroke: #006400; stroke-width: 1.0;"/><line style="stroke: #006400; stroke-width: 1.0;" x1="213.5" x2="404.5" y1="98.5625" y2="98.5625"/><text fill="#000000" font-family="sans-serif" font-size="13" lengthAdjust="spacingAndGlyphs" textLength="54" x="220.5" y="93.4966">add milk</text><polygon fill="#006400" points="556.5,123.6953,566.5,127.6953,556.5,131.6953,560.5,127.6953" style="stroke: #006400; stroke-width: 1.0;"/><line style="stroke: #006400; stroke-width: 1.0;" x1="420.5" x2="562.5" y1="127.6953" y2="127.6953"/><text fill="#000000" font-family="sans-serif" font-size="13" lengthAdjust="spacingAndGlyphs" textLength="87" x="427.5" y="122.6294">Price Request</text><polygon fill="#006400" points="431.5,152.8281,421.5,156.8281,431.5,160.8281,427.5,156.8281" style="stroke: #006400; stroke-width: 1.0;"/><line style="stroke: #006400; stroke-width: 1.0;" x1="425.5" x2="567.5" y1="156.8281" y2="156.8281"/><text fill="#000000" font-family="sans-serif" font-size="13" lengthAdjust="spacingAndGlyphs" textLength="97" x="437.5" y="151.7622">Price Response</text><polygon fill="#006400" points="556.5,181.9609,566.5,185.9609,556.5,189.9609,560.5,185.9609" style="stroke: #006400; stroke-width: 1.0;"/><line style="stroke: #006400; stroke-width: 1.0;" x1="420.5" x2="562.5" y1="185.9609" y2="185.9609"/><text fill="#000000" font-family="sans-serif" font-size="13" lengthAdjust="spacingAndGlyphs" textLength="114" x="427.5" y="180.895">Category Request</text><polygon fill="#006400" points="431.5,211.0938,421.5,215.0938,431.5,219.0938,427.5,215.0938" style="stroke: #006400; stroke-width: 1.0;"/><line style="stroke: #006400; stroke-width: 1.0;" x1="425.5" x2="572.5" y1="215.0938" y2="215.0938"/><text fill="#000000" font-family="sans-serif" font-size="13" lengthAdjust="spacingAndGlyphs" textLength="124" x="437.5" y="210.0278">Category Response</text><polygon fill="#006400" points="224.5,240.2266,214.5,244.2266,224.5,248.2266,220.5,244.2266" style="stroke: #006400; stroke-width: 1.0;"/><line style="stroke: #006400; stroke-width: 1.0;" x1="218.5" x2="409.5" y1="244.2266" y2="244.2266"/><text fill="#000000" font-family="sans-serif" font-size="13" lengthAdjust="spacingAndGlyphs" textLength="173" x="230.5" y="239.1606">successfully added product</text><polygon fill="#006400" points="191.5,269.3594,201.5,273.3594,191.5,277.3594,195.5,273.3594" style="stroke: #006400; stroke-width: 1.0;"/><line style="stroke: #006400; stroke-width: 1.0;" x1="60.5" x2="197.5" y1="273.3594" y2="273.3594"/><text fill="#000000" font-family="sans-serif" font-size="13" lengthAdjust="spacingAndGlyphs" textLength="119" x="67.5" y="268.2935">gives empty bottle</text><polygon fill="#006400" points="398.5,298.4922,408.5,302.4922,398.5,306.4922,402.5,302.4922" style="stroke: #006400; stroke-width: 1.0;"/><line style="stroke: #006400; stroke-width: 1.0;" x1="213.5" x2="404.5" y1="302.4922" y2="302.4922"/><text fill="#000000" font-family="sans-serif" font-size="13" lengthAdjust="spacingAndGlyphs" textLength="110" x="220.5" y="297.4263">add empty bottle</text><polygon fill="#006400" points="556.5,327.625,566.5,331.625,556.5,335.625,560.5,331.625" style="stroke: #006400; stroke-width: 1.0;"/><line style="stroke: #006400; stroke-width: 1.0;" x1="420.5" x2="562.5" y1="331.625" y2="331.625"/><text fill="#000000" font-family="sans-serif" font-size="13" lengthAdjust="spacingAndGlyphs" textLength="87" x="427.5" y="326.5591">Price Request</text><polygon fill="#006400" points="431.5,356.7578,421.5,360.7578,431.5,364.7578,427.5,360.7578" style="stroke: #006400; stroke-width: 1.0;"/><line style="stroke: #006400; stroke-width: 1.0;" x1="425.5" x2="567.5" y1="360.7578" y2="360.7578"/><text fill="#000000" font-family="sans-serif" font-size="13" lengthAdjust="spacingAndGlyphs" textLength="97" x="437.5" y="355.6919">Price Response</text><polygon fill="#006400" points="556.5,385.8906,566.5,389.8906,556.5,393.8906,560.5,389.8906" style="stroke: #006400; stroke-width: 1.0;"/><line style="stroke: #006400; stroke-width: 1.0;" x1="420.5" x2="562.5" y1="389.8906" y2="389.8906"/><text fill="#000000" font-family="sans-serif" font-size="13" lengthAdjust="spacingAndGlyphs" textLength="114" x="427.5" y="384.8247">Category Request</text><polygon fill="#006400" points="431.5,415.0234,421.5,419.0234,431.5,423.0234,427.5,419.0234" style="stroke: #006400; stroke-width: 1.0;"/><line style="stroke: #006400; stroke-width: 1.0;" x1="425.5" x2="572.5" y1="419.0234" y2="419.0234"/><text fill="#000000" font-family="sans-serif" font-size="13" lengthAdjust="spacingAndGlyphs" textLength="124" x="437.5" y="413.9575">Category Response</text><polygon fill="#006400" points="224.5,444.1563,214.5,448.1563,224.5,452.1563,220.5,448.1563" style="stroke: #006400; stroke-width: 1.0;"/><line style="stroke: #006400; stroke-width: 1.0;" x1="218.5" x2="409.5" y1="448.1563" y2="448.1563"/><text fill="#000000" font-family="sans-serif" font-size="13" lengthAdjust="spacingAndGlyphs" textLength="173" x="230.5" y="443.0903">successfully added product</text><polygon fill="#006400" points="71.5,473.2891,61.5,477.2891,71.5,481.2891,67.5,477.2891" style="stroke: #006400; stroke-width: 1.0;"/><line style="stroke: #006400; stroke-width: 1.0;" x1="65.5" x2="202.5" y1="477.2891" y2="477.2891"/><text fill="#000000" font-family="sans-serif" font-size="13" lengthAdjust="spacingAndGlyphs" textLength="67" x="77.5" y="472.2231">Id Request</text><polygon fill="#006400" points="191.5,502.4219,201.5,506.4219,191.5,510.4219,195.5,506.4219" style="stroke: #006400; stroke-width: 1.0;"/><line style="stroke: #006400; stroke-width: 1.0;" x1="60.5" x2="197.5" y1="506.4219" y2="506.4219"/><text fill="#000000" font-family="sans-serif" font-size="13" lengthAdjust="spacingAndGlyphs" textLength="77" x="67.5" y="501.356">Id Response</text><polygon fill="#006400" points="674.5,531.5547,684.5,535.5547,674.5,539.5547,678.5,535.5547" style="stroke: #006400; stroke-width: 1.0;"/><line style="stroke: #006400; stroke-width: 1.0;" x1="213.5" x2="680.5" y1="535.5547" y2="535.5547"/><text fill="#000000" font-family="sans-serif" font-size="13" lengthAdjust="spacingAndGlyphs" textLength="56" x="220.5" y="530.4888">enters id</text><polygon fill="#006400" points="674.5,560.6875,684.5,564.6875,674.5,568.6875,678.5,564.6875" style="stroke: #006400; stroke-width: 1.0;"/><line style="stroke: #006400; stroke-width: 1.0;" x1="213.5" x2="680.5" y1="564.6875" y2="564.6875"/><text fill="#000000" font-family="sans-serif" font-size="13" lengthAdjust="spacingAndGlyphs" textLength="85" x="220.5" y="559.6216">Scan finished</text><polygon fill="#006400" points="431.5,589.8203,421.5,593.8203,431.5,597.8203,427.5,593.8203" style="stroke: #006400; stroke-width: 1.0;"/><line style="stroke: #006400; stroke-width: 1.0;" x1="425.5" x2="685.5" y1="593.8203" y2="593.8203"/><text fill="#000000" font-family="sans-serif" font-size="13" lengthAdjust="spacingAndGlyphs" textLength="105" x="437.5" y="588.7544">Product Request</text><polygon fill="#006400" points="674.5,618.9531,684.5,622.9531,674.5,626.9531,678.5,622.9531" style="stroke: #006400; stroke-width: 1.0;"/><line style="stroke: #006400; stroke-width: 1.0;" x1="415.5" x2="680.5" y1="622.9531" y2="622.9531"/><text fill="#000000" font-family="sans-serif" font-size="13" lengthAdjust="spacingAndGlyphs" textLength="115" x="422.5" y="617.8872">Product Response</text><line style="stroke: #006400; stroke-width: 1.0;" x1="696.5" x2="743.5" y1="647.0859" y2="647.0859"/><line style="stroke: #006400; stroke-width: 1.0;" x1="743.5" x2="743.5" y1="647.0859" y2="660.0859"/><line style="stroke: #006400; stroke-width: 1.0;" x1="702.5" x2="743.5" y1="660.0859" y2="660.0859"/><polygon fill="#006400" points="712.5,656.0859,702.5,660.0859,712.5,664.0859,708.5,660.0859" style="stroke: #006400; stroke-width: 1.0;"/><text fill="#000000" font-family="sans-serif" font-size="13" lengthAdjust="spacingAndGlyphs" textLength="123" x="708.5" y="642.02">Sum of base prices</text><line style="stroke: #006400; stroke-width: 1.0;" x1="701.5" x2="748.5" y1="689.2188" y2="689.2188"/><line style="stroke: #006400; stroke-width: 1.0;" x1="748.5" x2="748.5" y1="689.2188" y2="702.2188"/><line style="stroke: #006400; stroke-width: 1.0;" x1="707.5" x2="748.5" y1="702.2188" y2="702.2188"/><polygon fill="#006400" points="717.5,698.2188,707.5,702.2188,717.5,706.2188,713.5,702.2188" style="stroke: #006400; stroke-width: 1.0;"/><text fill="#000000" font-family="sans-serif" font-size="13" lengthAdjust="spacingAndGlyphs" textLength="146" x="713.5" y="684.1528">Calculate with discount</text><line style="stroke: #006400; stroke-width: 1.0;" x1="706.5" x2="753.5" y1="731.3516" y2="731.3516"/><line style="stroke: #006400; stroke-width: 1.0;" x1="753.5" x2="753.5" y1="731.3516" y2="744.3516"/><line style="stroke: #006400; stroke-width: 1.0;" x1="712.5" x2="753.5" y1="744.3516" y2="744.3516"/><polygon fill="#006400" points="722.5,740.3516,712.5,744.3516,722.5,748.3516,718.5,744.3516" style="stroke: #006400; stroke-width: 1.0;"/><text fill="#000000" font-family="sans-serif" font-size="13" lengthAdjust="spacingAndGlyphs" textLength="130" x="718.5" y="726.2856">Calculate with MwSt.</text><line style="stroke: #006400; stroke-width: 1.0;" x1="716.5" x2="758.5" y1="778.4844" y2="778.4844"/><line style="stroke: #006400; stroke-width: 1.0;" x1="758.5" x2="758.5" y1="778.4844" y2="791.4844"/><line style="stroke: #006400; stroke-width: 1.0;" x1="717.5" x2="758.5" y1="791.4844" y2="791.4844"/><polygon fill="#006400" points="727.5,787.4844,717.5,791.4844,727.5,795.4844,723.5,791.4844" style="stroke: #006400; stroke-width: 1.0;"/><text fill="#000000" font-family="sans-serif" font-size="13" lengthAdjust="spacingAndGlyphs" textLength="128" x="723.5" y="773.4185">add/substract Pfand</text><!--
@startuml

skinparam linetype ortho
hide circle

skinparam participant{
    BorderColor darkgreen
    BackgroundColor white
    FontStyle bold
}

skinparam arrow{
    Color darkgreen
}

skinparam sequence{
    LifeLineBorderColor black
}

Customer -> Staff: buys milk in a bottle
activate Staff
activate Customer
ShoppingCart <- Staff: add milk
activate ShoppingCart
ShoppingCart -> Product: Price Request
activate Product
ShoppingCart <- Product: Price Response
ShoppingCart -> Product: Category Request
ShoppingCart <- Product: Category Response
deactivate Product
ShoppingCart -> Staff: successfully added product
Customer -> Staff: gives empty bottle
Staff -> ShoppingCart: add empty bottle
ShoppingCart -> Product: Price Request
activate Product
ShoppingCart <- Product: Price Response
ShoppingCart -> Product: Category Request
ShoppingCart <- Product: Category Response
deactivate Product
ShoppingCart -> Staff: successfully added product
Customer <- Staff: Id Request
Customer -> Staff: Id Response
Staff -> CashierSystem: enters id
activate CashierSystem
Staff -> CashierSystem: Scan finished
CashierSystem -> ShoppingCart: Product Request
CashierSystem <- ShoppingCart: Product Response
deactivate ShoppingCart
CashierSystem -> CashierSystem: Sum of base prices
activate CashierSystem
CashierSystem -> CashierSystem: Calculate with discount
activate CashierSystem
CashierSystem -> CashierSystem: Calculate with MwSt.
activate CashierSystem
CashierSystem -> CashierSystem: add/substract Pfand
activate CashierSystem
deactivate CashierSystem
deactivate CashierSystem
deactivate CashierSystem
deactivate CashierSystem
deactivate CashierSystem

@enduml

PlantUML version 1.2018.12(Sun Oct 21 12:15:15 CEST 2018)
(GPL source distribution)
Java Runtime: OpenJDK Runtime Environment
JVM: OpenJDK 64-Bit Server VM
Java Version: 10.0.2+13-Debian-1
Operating System: Linux
OS Version: 4.18.0-parrot10-amd64
Default Encoding: UTF-8
Language: en
Country: US
--></g></svg>