<?xml version="1.0" encoding="UTF-8" standalone="no"?><svg xmlns="http://www.w3.org/2000/svg" xmlns:xlink="http://www.w3.org/1999/xlink" contentScriptType="application/ecmascript" contentStyleType="text/css" height="860px" preserveAspectRatio="none" style="width:816px;height:860px;" version="1.1" viewBox="0 0 816 860" width="816px" zoomAndPan="magnify"><defs><filter height="300%" id="f13xcup8ld1dq1" width="300%" x="-1" y="-1"><feGaussianBlur result="blurOut" stdDeviation="2.0"/><feColorMatrix in="blurOut" result="blurOut2" type="matrix" values="0 0 0 0 0 0 0 0 0 0 0 0 0 0 0 0 0 0 .4 0"/><feOffset dx="4.0" dy="4.0" in="blurOut2" result="blurOut3"/><feBlend in="SourceGraphic" in2="blurOut3" mode="normal"/></filter></defs><g><rect fill="#FFFFFF" filter="url(#f13xcup8ld1dq1)" height="667.9219" style="stroke: #000000; stroke-width: 1.0;" width="10" x="40" y="96.2969"/><rect fill="#FFFFFF" filter="url(#f13xcup8ld1dq1)" height="658.9219" style="stroke: #000000; stroke-width: 1.0;" width="10" x="188" y="96.2969"/><rect fill="#FFFFFF" filter="url(#f13xcup8ld1dq1)" height="667.9219" style="stroke: #000000; stroke-width: 1.0;" width="10" x="457" y="96.2969"/><rect fill="#FFFFFF" filter="url(#f13xcup8ld1dq1)" height="667.9219" style="stroke: #000000; stroke-width: 1.0;" width="10" x="628" y="96.2969"/><rect fill="#FFFFFF" filter="url(#f13xcup8ld1dq1)" height="667.9219" style="stroke: #000000; stroke-width: 1.0;" width="10" x="744" y="96.2969"/><line style="stroke: #000000; stroke-width: 1.0; stroke-dasharray: 5.0,5.0;" x1="45" x2="45" y1="86.2969" y2="773.2188"/><line style="stroke: #000000; stroke-width: 1.0; stroke-dasharray: 5.0,5.0;" x1="193" x2="193" y1="86.2969" y2="773.2188"/><line style="stroke: #000000; stroke-width: 1.0; stroke-dasharray: 5.0,5.0;" x1="462" x2="462" y1="86.2969" y2="773.2188"/><line style="stroke: #000000; stroke-width: 1.0; stroke-dasharray: 5.0,5.0;" x1="632.5" x2="632.5" y1="86.2969" y2="773.2188"/><line style="stroke: #000000; stroke-width: 1.0; stroke-dasharray: 5.0,5.0;" x1="748.5" x2="748.5" y1="86.2969" y2="773.2188"/><text fill="#000000" font-family="sans-serif" font-size="14" lengthAdjust="spacingAndGlyphs" textLength="68" x="8" y="82.9951">Customer</text><ellipse cx="45" cy="13" fill="#FFFFFF" filter="url(#f13xcup8ld1dq1)" rx="8" ry="8" style="stroke: #000000; stroke-width: 2.0;"/><path d="M45,21 L45,48 M32,29 L58,29 M45,48 L32,63 M45,48 L58,63 " fill="none" filter="url(#f13xcup8ld1dq1)" style="stroke: #000000; stroke-width: 2.0;"/><text fill="#000000" font-family="sans-serif" font-size="14" lengthAdjust="spacingAndGlyphs" textLength="68" x="8" y="785.2139">Customer</text><ellipse cx="45" cy="798.5156" fill="#FFFFFF" filter="url(#f13xcup8ld1dq1)" rx="8" ry="8" style="stroke: #000000; stroke-width: 2.0;"/><path d="M45,806.5156 L45,833.5156 M32,814.5156 L58,814.5156 M45,833.5156 L32,848.5156 M45,833.5156 L58,848.5156 " fill="none" filter="url(#f13xcup8ld1dq1)" style="stroke: #000000; stroke-width: 2.0;"/><rect fill="#FFFFFF" filter="url(#f13xcup8ld1dq1)" height="30.2969" style="stroke: #006400; stroke-width: 1.5;" width="120" x="131" y="51"/><text fill="#000000" font-family="sans-serif" font-size="14" font-weight="bold" lengthAdjust="spacingAndGlyphs" textLength="106" x="138" y="70.9951">ShoppingCart</text><rect fill="#FFFFFF" filter="url(#f13xcup8ld1dq1)" height="30.2969" style="stroke: #006400; stroke-width: 1.5;" width="120" x="131" y="772.2188"/><text fill="#000000" font-family="sans-serif" font-size="14" font-weight="bold" lengthAdjust="spacingAndGlyphs" textLength="106" x="138" y="792.2139">ShoppingCart</text><rect fill="#FFFFFF" filter="url(#f13xcup8ld1dq1)" height="30.2969" style="stroke: #006400; stroke-width: 1.5;" width="86" x="417" y="51"/><text fill="#000000" font-family="sans-serif" font-size="14" font-weight="bold" lengthAdjust="spacingAndGlyphs" textLength="72" x="424" y="70.9951">Inventory</text><rect fill="#FFFFFF" filter="url(#f13xcup8ld1dq1)" height="30.2969" style="stroke: #006400; stroke-width: 1.5;" width="86" x="417" y="772.2188"/><text fill="#000000" font-family="sans-serif" font-size="14" font-weight="bold" lengthAdjust="spacingAndGlyphs" textLength="72" x="424" y="792.2139">Inventory</text><rect fill="#FFFFFF" filter="url(#f13xcup8ld1dq1)" height="46.5938" style="stroke: #006400; stroke-width: 1.5;" width="87" x="587.5" y="34.7031"/><text fill="#000000" font-family="sans-serif" font-size="14" font-weight="bold" lengthAdjust="spacingAndGlyphs" textLength="30" x="614" y="54.6982">Milk</text><text fill="#000000" font-family="sans-serif" font-size="14" font-weight="bold" lengthAdjust="spacingAndGlyphs" textLength="73" x="594.5" y="70.9951">(Product)</text><rect fill="#FFFFFF" filter="url(#f13xcup8ld1dq1)" height="46.5938" style="stroke: #006400; stroke-width: 1.5;" width="87" x="587.5" y="772.2188"/><text fill="#000000" font-family="sans-serif" font-size="14" font-weight="bold" lengthAdjust="spacingAndGlyphs" textLength="30" x="614" y="792.2139">Milk</text><text fill="#000000" font-family="sans-serif" font-size="14" font-weight="bold" lengthAdjust="spacingAndGlyphs" textLength="73" x="594.5" y="808.5107">(Product)</text><rect fill="#FFFFFF" filter="url(#f13xcup8ld1dq1)" height="46.5938" style="stroke: #006400; stroke-width: 1.5;" width="117" x="688.5" y="34.7031"/><text fill="#000000" font-family="sans-serif" font-size="14" font-weight="bold" lengthAdjust="spacingAndGlyphs" textLength="99" x="695.5" y="54.6982">Empty Bottle</text><text fill="#000000" font-family="sans-serif" font-size="14" font-weight="bold" lengthAdjust="spacingAndGlyphs" textLength="73" x="708.5" y="70.9951">(Product)</text><rect fill="#FFFFFF" filter="url(#f13xcup8ld1dq1)" height="46.5938" style="stroke: #006400; stroke-width: 1.5;" width="117" x="688.5" y="772.2188"/><text fill="#000000" font-family="sans-serif" font-size="14" font-weight="bold" lengthAdjust="spacingAndGlyphs" textLength="99" x="695.5" y="792.2139">Empty Bottle</text><text fill="#000000" font-family="sans-serif" font-size="14" font-weight="bold" lengthAdjust="spacingAndGlyphs" textLength="73" x="708.5" y="808.5107">(Product)</text><rect fill="#FFFFFF" filter="url(#f13xcup8ld1dq1)" height="667.9219" style="stroke: #000000; stroke-width: 1.0;" width="10" x="40" y="96.2969"/><rect fill="#FFFFFF" filter="url(#f13xcup8ld1dq1)" height="658.9219" style="stroke: #000000; stroke-width: 1.0;" width="10" x="188" y="96.2969"/><rect fill="#FFFFFF" filter="url(#f13xcup8ld1dq1)" height="667.9219" style="stroke: #000000; stroke-width: 1.0;" width="10" x="457" y="96.2969"/><rect fill="#FFFFFF" filter="url(#f13xcup8ld1dq1)" height="667.9219" style="stroke: #000000; stroke-width: 1.0;" width="10" x="628" y="96.2969"/><rect fill="#FFFFFF" filter="url(#f13xcup8ld1dq1)" height="667.9219" style="stroke: #000000; stroke-width: 1.0;" width="10" x="744" y="96.2969"/><polygon fill="#006400" points="176,113.4297,186,117.4297,176,121.4297,180,117.4297" style="stroke: #006400; stroke-width: 1.0;"/><line style="stroke: #006400; stroke-width: 1.0;" x1="50" x2="182" y1="117.4297" y2="117.4297"/><text fill="#000000" font-family="sans-serif" font-size="13" font-weight="bold" lengthAdjust="spacingAndGlyphs" textLength="9" x="57" y="112.3638">1</text><text fill="#000000" font-family="sans-serif" font-size="13" lengthAdjust="spacingAndGlyphs" textLength="52" x="70" y="112.3638">add Milk</text><polygon fill="#006400" points="445,142.5625,455,146.5625,445,150.5625,449,146.5625" style="stroke: #006400; stroke-width: 1.0;"/><line style="stroke: #006400; stroke-width: 1.0;" x1="198" x2="451" y1="146.5625" y2="146.5625"/><text fill="#000000" font-family="sans-serif" font-size="13" font-weight="bold" lengthAdjust="spacingAndGlyphs" textLength="9" x="205" y="141.4966">2</text><text fill="#000000" font-family="sans-serif" font-size="13" lengthAdjust="spacingAndGlyphs" textLength="136" x="218" y="141.4966">Price Request for Milk</text><polygon fill="#006400" points="616,171.6953,626,175.6953,616,179.6953,620,175.6953" style="stroke: #006400; stroke-width: 1.0;"/><line style="stroke: #006400; stroke-width: 1.0;" x1="467" x2="622" y1="175.6953" y2="175.6953"/><text fill="#000000" font-family="sans-serif" font-size="13" font-weight="bold" lengthAdjust="spacingAndGlyphs" textLength="9" x="474" y="170.6294">3</text><text fill="#000000" font-family="sans-serif" font-size="13" lengthAdjust="spacingAndGlyphs" textLength="87" x="487" y="170.6294">Price Request</text><polygon fill="#006400" points="478,200.8281,468,204.8281,478,208.8281,474,204.8281" style="stroke: #006400; stroke-width: 1.0;"/><line style="stroke: #006400; stroke-width: 1.0;" x1="472" x2="627" y1="204.8281" y2="204.8281"/><text fill="#000000" font-family="sans-serif" font-size="13" font-weight="bold" lengthAdjust="spacingAndGlyphs" textLength="9" x="484" y="199.7622">4</text><text fill="#000000" font-family="sans-serif" font-size="13" lengthAdjust="spacingAndGlyphs" textLength="97" x="497" y="199.7622">Price Response</text><polygon fill="#006400" points="209,229.9609,199,233.9609,209,237.9609,205,233.9609" style="stroke: #006400; stroke-width: 1.0;"/><line style="stroke: #006400; stroke-width: 1.0;" x1="203" x2="456" y1="233.9609" y2="233.9609"/><text fill="#000000" font-family="sans-serif" font-size="13" font-weight="bold" lengthAdjust="spacingAndGlyphs" textLength="9" x="215" y="228.895">5</text><text fill="#000000" font-family="sans-serif" font-size="13" lengthAdjust="spacingAndGlyphs" textLength="146" x="228" y="228.895">Price Response for Milk</text><polygon fill="#006400" points="445,259.0938,455,263.0938,445,267.0938,449,263.0938" style="stroke: #006400; stroke-width: 1.0;"/><line style="stroke: #006400; stroke-width: 1.0;" x1="198" x2="451" y1="263.0938" y2="263.0938"/><text fill="#000000" font-family="sans-serif" font-size="13" font-weight="bold" lengthAdjust="spacingAndGlyphs" textLength="9" x="205" y="258.0278">6</text><text fill="#000000" font-family="sans-serif" font-size="13" lengthAdjust="spacingAndGlyphs" textLength="163" x="218" y="258.0278">Category Request for Milk</text><polygon fill="#006400" points="616,288.2266,626,292.2266,616,296.2266,620,292.2266" style="stroke: #006400; stroke-width: 1.0;"/><line style="stroke: #006400; stroke-width: 1.0;" x1="467" x2="622" y1="292.2266" y2="292.2266"/><text fill="#000000" font-family="sans-serif" font-size="13" font-weight="bold" lengthAdjust="spacingAndGlyphs" textLength="9" x="474" y="287.1606">7</text><text fill="#000000" font-family="sans-serif" font-size="13" lengthAdjust="spacingAndGlyphs" textLength="114" x="487" y="287.1606">Category Request</text><polygon fill="#006400" points="478,317.3594,468,321.3594,478,325.3594,474,321.3594" style="stroke: #006400; stroke-width: 1.0;"/><line style="stroke: #006400; stroke-width: 1.0;" x1="472" x2="627" y1="321.3594" y2="321.3594"/><text fill="#000000" font-family="sans-serif" font-size="13" font-weight="bold" lengthAdjust="spacingAndGlyphs" textLength="9" x="484" y="316.2935">8</text><text fill="#000000" font-family="sans-serif" font-size="13" lengthAdjust="spacingAndGlyphs" textLength="124" x="497" y="316.2935">Category Response</text><polygon fill="#006400" points="209,346.4922,199,350.4922,209,354.4922,205,350.4922" style="stroke: #006400; stroke-width: 1.0;"/><line style="stroke: #006400; stroke-width: 1.0;" x1="203" x2="456" y1="350.4922" y2="350.4922"/><text fill="#000000" font-family="sans-serif" font-size="13" font-weight="bold" lengthAdjust="spacingAndGlyphs" textLength="9" x="215" y="345.4263">9</text><text fill="#000000" font-family="sans-serif" font-size="13" lengthAdjust="spacingAndGlyphs" textLength="173" x="228" y="345.4263">Category Response for Milk</text><line style="stroke: #006400; stroke-width: 1.0;" x1="198" x2="240" y1="379.625" y2="379.625"/><line style="stroke: #006400; stroke-width: 1.0;" x1="240" x2="240" y1="379.625" y2="392.625"/><line style="stroke: #006400; stroke-width: 1.0;" x1="199" x2="240" y1="392.625" y2="392.625"/><polygon fill="#006400" points="209,388.625,199,392.625,209,396.625,205,392.625" style="stroke: #006400; stroke-width: 1.0;"/><text fill="#000000" font-family="sans-serif" font-size="13" font-weight="bold" lengthAdjust="spacingAndGlyphs" textLength="18" x="205" y="374.5591">10</text><text fill="#000000" font-family="sans-serif" font-size="13" lengthAdjust="spacingAndGlyphs" textLength="126" x="227" y="374.5591">calculate basic sum</text><polygon fill="#006400" points="61,417.7578,51,421.7578,61,425.7578,57,421.7578" style="stroke: #006400; stroke-width: 1.0;"/><line style="stroke: #006400; stroke-width: 1.0;" x1="55" x2="187" y1="421.7578" y2="421.7578"/><text fill="#000000" font-family="sans-serif" font-size="13" font-weight="bold" lengthAdjust="spacingAndGlyphs" textLength="18" x="67" y="416.6919">11</text><text fill="#000000" font-family="sans-serif" font-size="13" lengthAdjust="spacingAndGlyphs" textLength="61" x="89" y="416.6919">print sum</text><polygon fill="#006400" points="176,446.8906,186,450.8906,176,454.8906,180,450.8906" style="stroke: #006400; stroke-width: 1.0;"/><line style="stroke: #006400; stroke-width: 1.0;" x1="50" x2="182" y1="450.8906" y2="450.8906"/><text fill="#000000" font-family="sans-serif" font-size="13" font-weight="bold" lengthAdjust="spacingAndGlyphs" textLength="18" x="57" y="445.8247">12</text><text fill="#000000" font-family="sans-serif" font-size="13" lengthAdjust="spacingAndGlyphs" textLength="92" x="79" y="445.8247">add Chocolate</text><polygon fill="#006400" points="445,476.0234,455,480.0234,445,484.0234,449,480.0234" style="stroke: #006400; stroke-width: 1.0;"/><line style="stroke: #006400; stroke-width: 1.0;" x1="198" x2="451" y1="480.0234" y2="480.0234"/><text fill="#000000" font-family="sans-serif" font-size="13" font-weight="bold" lengthAdjust="spacingAndGlyphs" textLength="18" x="205" y="474.9575">13</text><text fill="#000000" font-family="sans-serif" font-size="13" lengthAdjust="spacingAndGlyphs" textLength="176" x="227" y="474.9575">Price Request for Chocolate</text><polygon fill="#006400" points="732,505.1563,742,509.1563,732,513.1563,736,509.1563" style="stroke: #006400; stroke-width: 1.0;"/><line style="stroke: #006400; stroke-width: 1.0;" x1="467" x2="738" y1="509.1563" y2="509.1563"/><text fill="#000000" font-family="sans-serif" font-size="13" font-weight="bold" lengthAdjust="spacingAndGlyphs" textLength="18" x="474" y="504.0903">14</text><text fill="#000000" font-family="sans-serif" font-size="13" lengthAdjust="spacingAndGlyphs" textLength="87" x="496" y="504.0903">Price Request</text><polygon fill="#006400" points="478,534.2891,468,538.2891,478,542.2891,474,538.2891" style="stroke: #006400; stroke-width: 1.0;"/><line style="stroke: #006400; stroke-width: 1.0;" x1="472" x2="743" y1="538.2891" y2="538.2891"/><text fill="#000000" font-family="sans-serif" font-size="13" font-weight="bold" lengthAdjust="spacingAndGlyphs" textLength="18" x="484" y="533.2231">15</text><text fill="#000000" font-family="sans-serif" font-size="13" lengthAdjust="spacingAndGlyphs" textLength="97" x="506" y="533.2231">Price Response</text><polygon fill="#006400" points="209,563.4219,199,567.4219,209,571.4219,205,567.4219" style="stroke: #006400; stroke-width: 1.0;"/><line style="stroke: #006400; stroke-width: 1.0;" x1="203" x2="456" y1="567.4219" y2="567.4219"/><text fill="#000000" font-family="sans-serif" font-size="13" font-weight="bold" lengthAdjust="spacingAndGlyphs" textLength="18" x="215" y="562.356">16</text><text fill="#000000" font-family="sans-serif" font-size="13" lengthAdjust="spacingAndGlyphs" textLength="186" x="237" y="562.356">Price Response for Chocolate</text><polygon fill="#006400" points="445,592.5547,455,596.5547,445,600.5547,449,596.5547" style="stroke: #006400; stroke-width: 1.0;"/><line style="stroke: #006400; stroke-width: 1.0;" x1="198" x2="451" y1="596.5547" y2="596.5547"/><text fill="#000000" font-family="sans-serif" font-size="13" font-weight="bold" lengthAdjust="spacingAndGlyphs" textLength="18" x="205" y="591.4888">17</text><text fill="#000000" font-family="sans-serif" font-size="13" lengthAdjust="spacingAndGlyphs" textLength="203" x="227" y="591.4888">Category Request for Chocolate</text><polygon fill="#006400" points="732,621.6875,742,625.6875,732,629.6875,736,625.6875" style="stroke: #006400; stroke-width: 1.0;"/><line style="stroke: #006400; stroke-width: 1.0;" x1="467" x2="738" y1="625.6875" y2="625.6875"/><text fill="#000000" font-family="sans-serif" font-size="13" font-weight="bold" lengthAdjust="spacingAndGlyphs" textLength="18" x="474" y="620.6216">18</text><text fill="#000000" font-family="sans-serif" font-size="13" lengthAdjust="spacingAndGlyphs" textLength="114" x="496" y="620.6216">Category Request</text><polygon fill="#006400" points="478,650.8203,468,654.8203,478,658.8203,474,654.8203" style="stroke: #006400; stroke-width: 1.0;"/><line style="stroke: #006400; stroke-width: 1.0;" x1="472" x2="743" y1="654.8203" y2="654.8203"/><text fill="#000000" font-family="sans-serif" font-size="13" font-weight="bold" lengthAdjust="spacingAndGlyphs" textLength="18" x="484" y="649.7544">19</text><text fill="#000000" font-family="sans-serif" font-size="13" lengthAdjust="spacingAndGlyphs" textLength="124" x="506" y="649.7544">Category Response</text><polygon fill="#006400" points="209,679.9531,199,683.9531,209,687.9531,205,683.9531" style="stroke: #006400; stroke-width: 1.0;"/><line style="stroke: #006400; stroke-width: 1.0;" x1="203" x2="456" y1="683.9531" y2="683.9531"/><text fill="#000000" font-family="sans-serif" font-size="13" font-weight="bold" lengthAdjust="spacingAndGlyphs" textLength="18" x="215" y="678.8872">20</text><text fill="#000000" font-family="sans-serif" font-size="13" lengthAdjust="spacingAndGlyphs" textLength="213" x="237" y="678.8872">Category Response for Chocolate</text><line style="stroke: #006400; stroke-width: 1.0;" x1="198" x2="240" y1="713.0859" y2="713.0859"/><line style="stroke: #006400; stroke-width: 1.0;" x1="240" x2="240" y1="713.0859" y2="726.0859"/><line style="stroke: #006400; stroke-width: 1.0;" x1="199" x2="240" y1="726.0859" y2="726.0859"/><polygon fill="#006400" points="209,722.0859,199,726.0859,209,730.0859,205,726.0859" style="stroke: #006400; stroke-width: 1.0;"/><text fill="#000000" font-family="sans-serif" font-size="13" font-weight="bold" lengthAdjust="spacingAndGlyphs" textLength="18" x="205" y="708.02">21</text><text fill="#000000" font-family="sans-serif" font-size="13" lengthAdjust="spacingAndGlyphs" textLength="126" x="227" y="708.02">calculate basic sum</text><polygon fill="#006400" points="61,751.2188,51,755.2188,61,759.2188,57,755.2188" style="stroke: #006400; stroke-width: 1.0;"/><line style="stroke: #006400; stroke-width: 1.0;" x1="55" x2="192" y1="755.2188" y2="755.2188"/><text fill="#000000" font-family="sans-serif" font-size="13" font-weight="bold" lengthAdjust="spacingAndGlyphs" textLength="18" x="67" y="750.1528">22</text><text fill="#000000" font-family="sans-serif" font-size="13" lengthAdjust="spacingAndGlyphs" textLength="61" x="89" y="750.1528">print sum</text><!--
@startuml

skinparam linetype ortho
hide circle

skinparam participant{
    BorderColor darkgreen
    BackgroundColor white
    FontStyle bold
}

skinparam Actor{
    BorderColor black
    BackgroundColor white
}

skinparam arrow{
    Color darkgreen
}

skinparam sequence{
    LifeLineBorderColor black
}

autonumber

actor Customer
participant ShoppingCart
participant Inventory
participant "Milk \n(Product)" as Product1
participant "Empty Bottle \n(Product) " as Product2

activate Customer
activate Product1
activate Product2
activate Inventory



activate ShoppingCart





    Customer -> ShoppingCart: add Milk
    ShoppingCart -> Inventory: Price Request for Milk
    Inventory -> Product1: Price Request
    Inventory <- Product1: Price Response
    Inventory -> ShoppingCart: Price Response for Milk

    ShoppingCart -> Inventory: Category Request for Milk
    Inventory -> Product1: Category Request
    Inventory <- Product1: Category Response
    Inventory -> ShoppingCart: Category Response for Milk

    ShoppingCart -> ShoppingCart: calculate basic sum
    ShoppingCart -> Customer: print sum



    Customer -> ShoppingCart: add Chocolate
    ShoppingCart -> Inventory: Price Request for Chocolate
    Inventory -> Product2: Price Request
    Inventory <- Product2: Price Response
    Inventory -> ShoppingCart: Price Response for Chocolate

    ShoppingCart -> Inventory: Category Request for Chocolate
    Inventory -> Product2: Category Request
    Inventory <- Product2: Category Response
    Inventory -> ShoppingCart: Category Response for Chocolate

    ShoppingCart -> ShoppingCart: calculate basic sum
    ShoppingCart -> Customer: print sum



deactivate ShoppingCart


@enduml

PlantUML version 1.2018.12(Sun Oct 21 12:15:15 CEST 2018)
(GPL source distribution)
Java Runtime: OpenJDK Runtime Environment
JVM: OpenJDK 64-Bit Server VM
Java Version: 11+28-Ubuntu-3ubuntu2
Operating System: Linux
OS Version: 4.18.0-10-generic
Default Encoding: UTF-8
Language: de
Country: DE
--></g></svg>