<?xml version="1.0" encoding="UTF-8" standalone="no"?><svg xmlns="http://www.w3.org/2000/svg" xmlns:xlink="http://www.w3.org/1999/xlink" contentScriptType="application/ecmascript" contentStyleType="text/css" height="765px" preserveAspectRatio="none" style="width:826px;height:765px;" version="1.1" viewBox="0 0 826 765" width="826px" zoomAndPan="magnify"><defs><filter height="300%" id="f18unn4ul363xa" width="300%" x="-1" y="-1"><feGaussianBlur result="blurOut" stdDeviation="2.0"/><feColorMatrix in="blurOut" result="blurOut2" type="matrix" values="0 0 0 0 0 0 0 0 0 0 0 0 0 0 0 0 0 0 .4 0"/><feOffset dx="4.0" dy="4.0" in="blurOut2" result="blurOut3"/><feBlend in="SourceGraphic" in2="blurOut3" mode="normal"/></filter></defs><g><rect fill="#FFFFFF" filter="url(#f18unn4ul363xa)" height="646.7891" style="stroke: #A80036; stroke-width: 1.0;" width="10" x="46" y="69.4297"/><rect fill="#FFFFFF" filter="url(#f18unn4ul363xa)" height="646.7891" style="stroke: #A80036; stroke-width: 1.0;" width="10" x="199" y="69.4297"/><rect fill="#FFFFFF" filter="url(#f18unn4ul363xa)" height="524.3906" style="stroke: #A80036; stroke-width: 1.0;" width="10" x="406" y="98.5625"/><rect fill="#FFFFFF" filter="url(#f18unn4ul363xa)" height="87.3984" style="stroke: #A80036; stroke-width: 1.0;" width="10" x="563" y="127.6953"/><rect fill="#FFFFFF" filter="url(#f18unn4ul363xa)" height="87.3984" style="stroke: #A80036; stroke-width: 1.0;" width="10" x="563" y="331.625"/><rect fill="#FFFFFF" filter="url(#f18unn4ul363xa)" height="180.6641" style="stroke: #A80036; stroke-width: 1.0;" width="10" x="669.5" y="535.5547"/><rect fill="#FFFFFF" filter="url(#f18unn4ul363xa)" height="56.2656" style="stroke: #A80036; stroke-width: 1.0;" width="10" x="674.5" y="659.9531"/><line style="stroke: #A80036; stroke-width: 1.0; stroke-dasharray: 5.0,5.0;" x1="51" x2="51" y1="38.2969" y2="725.2188"/><line style="stroke: #A80036; stroke-width: 1.0; stroke-dasharray: 5.0,5.0;" x1="204" x2="204" y1="38.2969" y2="725.2188"/><line style="stroke: #A80036; stroke-width: 1.0; stroke-dasharray: 5.0,5.0;" x1="411" x2="411" y1="38.2969" y2="725.2188"/><line style="stroke: #A80036; stroke-width: 1.0; stroke-dasharray: 5.0,5.0;" x1="568" x2="568" y1="38.2969" y2="725.2188"/><line style="stroke: #A80036; stroke-width: 1.0; stroke-dasharray: 5.0,5.0;" x1="674" x2="674" y1="38.2969" y2="725.2188"/><rect fill="#FEFECE" filter="url(#f18unn4ul363xa)" height="30.2969" style="stroke: #A80036; stroke-width: 1.5;" width="82" x="8" y="3"/><text fill="#000000" font-family="sans-serif" font-size="14" lengthAdjust="spacingAndGlyphs" textLength="68" x="15" y="22.9951">Customer</text><rect fill="#FEFECE" filter="url(#f18unn4ul363xa)" height="30.2969" style="stroke: #A80036; stroke-width: 1.5;" width="82" x="8" y="724.2188"/><text fill="#000000" font-family="sans-serif" font-size="14" lengthAdjust="spacingAndGlyphs" textLength="68" x="15" y="744.2139">Customer</text><rect fill="#FEFECE" filter="url(#f18unn4ul363xa)" height="30.2969" style="stroke: #A80036; stroke-width: 1.5;" width="44" x="180" y="3"/><text fill="#000000" font-family="sans-serif" font-size="14" lengthAdjust="spacingAndGlyphs" textLength="30" x="187" y="22.9951">Staff</text><rect fill="#FEFECE" filter="url(#f18unn4ul363xa)" height="30.2969" style="stroke: #A80036; stroke-width: 1.5;" width="44" x="180" y="724.2188"/><text fill="#000000" font-family="sans-serif" font-size="14" lengthAdjust="spacingAndGlyphs" textLength="30" x="187" y="744.2139">Staff</text><rect fill="#FEFECE" filter="url(#f18unn4ul363xa)" height="30.2969" style="stroke: #A80036; stroke-width: 1.5;" width="108" x="355" y="3"/><text fill="#000000" font-family="sans-serif" font-size="14" lengthAdjust="spacingAndGlyphs" textLength="94" x="362" y="22.9951">ShoppingCart</text><rect fill="#FEFECE" filter="url(#f18unn4ul363xa)" height="30.2969" style="stroke: #A80036; stroke-width: 1.5;" width="108" x="355" y="724.2188"/><text fill="#000000" font-family="sans-serif" font-size="14" lengthAdjust="spacingAndGlyphs" textLength="94" x="362" y="744.2139">ShoppingCart</text><rect fill="#FEFECE" filter="url(#f18unn4ul363xa)" height="30.2969" style="stroke: #A80036; stroke-width: 1.5;" width="68" x="532" y="3"/><text fill="#000000" font-family="sans-serif" font-size="14" lengthAdjust="spacingAndGlyphs" textLength="54" x="539" y="22.9951">Product</text><rect fill="#FEFECE" filter="url(#f18unn4ul363xa)" height="30.2969" style="stroke: #A80036; stroke-width: 1.5;" width="68" x="532" y="724.2188"/><text fill="#000000" font-family="sans-serif" font-size="14" lengthAdjust="spacingAndGlyphs" textLength="54" x="539" y="744.2139">Product</text><rect fill="#FEFECE" filter="url(#f18unn4ul363xa)" height="30.2969" style="stroke: #A80036; stroke-width: 1.5;" width="117" x="614" y="3"/><text fill="#000000" font-family="sans-serif" font-size="14" lengthAdjust="spacingAndGlyphs" textLength="103" x="621" y="22.9951">CashierSystem</text><rect fill="#FEFECE" filter="url(#f18unn4ul363xa)" height="30.2969" style="stroke: #A80036; stroke-width: 1.5;" width="117" x="614" y="724.2188"/><text fill="#000000" font-family="sans-serif" font-size="14" lengthAdjust="spacingAndGlyphs" textLength="103" x="621" y="744.2139">CashierSystem</text><rect fill="#FFFFFF" filter="url(#f18unn4ul363xa)" height="646.7891" style="stroke: #A80036; stroke-width: 1.0;" width="10" x="46" y="69.4297"/><rect fill="#FFFFFF" filter="url(#f18unn4ul363xa)" height="646.7891" style="stroke: #A80036; stroke-width: 1.0;" width="10" x="199" y="69.4297"/><rect fill="#FFFFFF" filter="url(#f18unn4ul363xa)" height="524.3906" style="stroke: #A80036; stroke-width: 1.0;" width="10" x="406" y="98.5625"/><rect fill="#FFFFFF" filter="url(#f18unn4ul363xa)" height="87.3984" style="stroke: #A80036; stroke-width: 1.0;" width="10" x="563" y="127.6953"/><rect fill="#FFFFFF" filter="url(#f18unn4ul363xa)" height="87.3984" style="stroke: #A80036; stroke-width: 1.0;" width="10" x="563" y="331.625"/><rect fill="#FFFFFF" filter="url(#f18unn4ul363xa)" height="180.6641" style="stroke: #A80036; stroke-width: 1.0;" width="10" x="669.5" y="535.5547"/><rect fill="#FFFFFF" filter="url(#f18unn4ul363xa)" height="56.2656" style="stroke: #A80036; stroke-width: 1.0;" width="10" x="674.5" y="659.9531"/><polygon fill="#A80036" points="187,65.4297,197,69.4297,187,73.4297,191,69.4297" style="stroke: #A80036; stroke-width: 1.0;"/><line style="stroke: #A80036; stroke-width: 1.0;" x1="56" x2="193" y1="69.4297" y2="69.4297"/><text fill="#000000" font-family="sans-serif" font-size="13" lengthAdjust="spacingAndGlyphs" textLength="128" x="63" y="64.3638">buys milk in a bottle</text><polygon fill="#A80036" points="394,94.5625,404,98.5625,394,102.5625,398,98.5625" style="stroke: #A80036; stroke-width: 1.0;"/><line style="stroke: #A80036; stroke-width: 1.0;" x1="209" x2="400" y1="98.5625" y2="98.5625"/><text fill="#000000" font-family="sans-serif" font-size="13" lengthAdjust="spacingAndGlyphs" textLength="54" x="216" y="93.4966">add milk</text><polygon fill="#A80036" points="551,123.6953,561,127.6953,551,131.6953,555,127.6953" style="stroke: #A80036; stroke-width: 1.0;"/><line style="stroke: #A80036; stroke-width: 1.0;" x1="416" x2="557" y1="127.6953" y2="127.6953"/><text fill="#000000" font-family="sans-serif" font-size="13" lengthAdjust="spacingAndGlyphs" textLength="87" x="423" y="122.6294">Price Request</text><polygon fill="#A80036" points="427,152.8281,417,156.8281,427,160.8281,423,156.8281" style="stroke: #A80036; stroke-width: 1.0;"/><line style="stroke: #A80036; stroke-width: 1.0;" x1="421" x2="562" y1="156.8281" y2="156.8281"/><text fill="#000000" font-family="sans-serif" font-size="13" lengthAdjust="spacingAndGlyphs" textLength="97" x="433" y="151.7622">Price Response</text><polygon fill="#A80036" points="551,181.9609,561,185.9609,551,189.9609,555,185.9609" style="stroke: #A80036; stroke-width: 1.0;"/><line style="stroke: #A80036; stroke-width: 1.0;" x1="416" x2="557" y1="185.9609" y2="185.9609"/><text fill="#000000" font-family="sans-serif" font-size="13" lengthAdjust="spacingAndGlyphs" textLength="113" x="423" y="180.895">Kategory Request</text><polygon fill="#A80036" points="427,211.0938,417,215.0938,427,219.0938,423,215.0938" style="stroke: #A80036; stroke-width: 1.0;"/><line style="stroke: #A80036; stroke-width: 1.0;" x1="421" x2="567" y1="215.0938" y2="215.0938"/><text fill="#000000" font-family="sans-serif" font-size="13" lengthAdjust="spacingAndGlyphs" textLength="123" x="433" y="210.0278">Kategory Response</text><polygon fill="#A80036" points="220,240.2266,210,244.2266,220,248.2266,216,244.2266" style="stroke: #A80036; stroke-width: 1.0;"/><line style="stroke: #A80036; stroke-width: 1.0;" x1="214" x2="405" y1="244.2266" y2="244.2266"/><text fill="#000000" font-family="sans-serif" font-size="13" lengthAdjust="spacingAndGlyphs" textLength="173" x="226" y="239.1606">successfully added product</text><polygon fill="#A80036" points="187,269.3594,197,273.3594,187,277.3594,191,273.3594" style="stroke: #A80036; stroke-width: 1.0;"/><line style="stroke: #A80036; stroke-width: 1.0;" x1="56" x2="193" y1="273.3594" y2="273.3594"/><text fill="#000000" font-family="sans-serif" font-size="13" lengthAdjust="spacingAndGlyphs" textLength="119" x="63" y="268.2935">gives empty bottle</text><polygon fill="#A80036" points="394,298.4922,404,302.4922,394,306.4922,398,302.4922" style="stroke: #A80036; stroke-width: 1.0;"/><line style="stroke: #A80036; stroke-width: 1.0;" x1="209" x2="400" y1="302.4922" y2="302.4922"/><text fill="#000000" font-family="sans-serif" font-size="13" lengthAdjust="spacingAndGlyphs" textLength="110" x="216" y="297.4263">add empty bottle</text><polygon fill="#A80036" points="551,327.625,561,331.625,551,335.625,555,331.625" style="stroke: #A80036; stroke-width: 1.0;"/><line style="stroke: #A80036; stroke-width: 1.0;" x1="416" x2="557" y1="331.625" y2="331.625"/><text fill="#000000" font-family="sans-serif" font-size="13" lengthAdjust="spacingAndGlyphs" textLength="87" x="423" y="326.5591">Price Request</text><polygon fill="#A80036" points="427,356.7578,417,360.7578,427,364.7578,423,360.7578" style="stroke: #A80036; stroke-width: 1.0;"/><line style="stroke: #A80036; stroke-width: 1.0;" x1="421" x2="562" y1="360.7578" y2="360.7578"/><text fill="#000000" font-family="sans-serif" font-size="13" lengthAdjust="spacingAndGlyphs" textLength="97" x="433" y="355.6919">Price Response</text><polygon fill="#A80036" points="551,385.8906,561,389.8906,551,393.8906,555,389.8906" style="stroke: #A80036; stroke-width: 1.0;"/><line style="stroke: #A80036; stroke-width: 1.0;" x1="416" x2="557" y1="389.8906" y2="389.8906"/><text fill="#000000" font-family="sans-serif" font-size="13" lengthAdjust="spacingAndGlyphs" textLength="113" x="423" y="384.8247">Kategory Request</text><polygon fill="#A80036" points="427,415.0234,417,419.0234,427,423.0234,423,419.0234" style="stroke: #A80036; stroke-width: 1.0;"/><line style="stroke: #A80036; stroke-width: 1.0;" x1="421" x2="567" y1="419.0234" y2="419.0234"/><text fill="#000000" font-family="sans-serif" font-size="13" lengthAdjust="spacingAndGlyphs" textLength="123" x="433" y="413.9575">Kategory Response</text><polygon fill="#A80036" points="220,444.1563,210,448.1563,220,452.1563,216,448.1563" style="stroke: #A80036; stroke-width: 1.0;"/><line style="stroke: #A80036; stroke-width: 1.0;" x1="214" x2="405" y1="448.1563" y2="448.1563"/><text fill="#000000" font-family="sans-serif" font-size="13" lengthAdjust="spacingAndGlyphs" textLength="173" x="226" y="443.0903">successfully added product</text><polygon fill="#A80036" points="67,473.2891,57,477.2891,67,481.2891,63,477.2891" style="stroke: #A80036; stroke-width: 1.0;"/><line style="stroke: #A80036; stroke-width: 1.0;" x1="61" x2="198" y1="477.2891" y2="477.2891"/><text fill="#000000" font-family="sans-serif" font-size="13" lengthAdjust="spacingAndGlyphs" textLength="67" x="73" y="472.2231">Id Request</text><polygon fill="#A80036" points="187,502.4219,197,506.4219,187,510.4219,191,506.4219" style="stroke: #A80036; stroke-width: 1.0;"/><line style="stroke: #A80036; stroke-width: 1.0;" x1="56" x2="193" y1="506.4219" y2="506.4219"/><text fill="#000000" font-family="sans-serif" font-size="13" lengthAdjust="spacingAndGlyphs" textLength="77" x="63" y="501.356">Id Response</text><polygon fill="#A80036" points="657.5,531.5547,667.5,535.5547,657.5,539.5547,661.5,535.5547" style="stroke: #A80036; stroke-width: 1.0;"/><line style="stroke: #A80036; stroke-width: 1.0;" x1="209" x2="663.5" y1="535.5547" y2="535.5547"/><text fill="#000000" font-family="sans-serif" font-size="13" lengthAdjust="spacingAndGlyphs" textLength="56" x="216" y="530.4888">enters id</text><polygon fill="#A80036" points="657.5,560.6875,667.5,564.6875,657.5,568.6875,661.5,564.6875" style="stroke: #A80036; stroke-width: 1.0;"/><line style="stroke: #A80036; stroke-width: 1.0;" x1="209" x2="663.5" y1="564.6875" y2="564.6875"/><text fill="#000000" font-family="sans-serif" font-size="13" lengthAdjust="spacingAndGlyphs" textLength="85" x="216" y="559.6216">Scan finished</text><polygon fill="#A80036" points="427,589.8203,417,593.8203,427,597.8203,423,593.8203" style="stroke: #A80036; stroke-width: 1.0;"/><line style="stroke: #A80036; stroke-width: 1.0;" x1="421" x2="668.5" y1="593.8203" y2="593.8203"/><text fill="#000000" font-family="sans-serif" font-size="13" lengthAdjust="spacingAndGlyphs" textLength="105" x="433" y="588.7544">Product Request</text><polygon fill="#A80036" points="657.5,618.9531,667.5,622.9531,657.5,626.9531,661.5,622.9531" style="stroke: #A80036; stroke-width: 1.0;"/><line style="stroke: #A80036; stroke-width: 1.0;" x1="411" x2="663.5" y1="622.9531" y2="622.9531"/><text fill="#000000" font-family="sans-serif" font-size="13" lengthAdjust="spacingAndGlyphs" textLength="115" x="418" y="617.8872">Product Response</text><line style="stroke: #A80036; stroke-width: 1.0;" x1="679.5" x2="726.5" y1="647.0859" y2="647.0859"/><line style="stroke: #A80036; stroke-width: 1.0;" x1="726.5" x2="726.5" y1="647.0859" y2="660.0859"/><line style="stroke: #A80036; stroke-width: 1.0;" x1="685.5" x2="726.5" y1="660.0859" y2="660.0859"/><polygon fill="#A80036" points="695.5,656.0859,685.5,660.0859,695.5,664.0859,691.5,660.0859" style="stroke: #A80036; stroke-width: 1.0;"/><text fill="#000000" font-family="sans-serif" font-size="13" lengthAdjust="spacingAndGlyphs" textLength="123" x="691.5" y="642.02">Sum of base prices</text><line style="stroke: #A80036; stroke-width: 1.0;" x1="684.5" x2="726.5" y1="694.2188" y2="694.2188"/><line style="stroke: #A80036; stroke-width: 1.0;" x1="726.5" x2="726.5" y1="694.2188" y2="707.2188"/><line style="stroke: #A80036; stroke-width: 1.0;" x1="685.5" x2="726.5" y1="707.2188" y2="707.2188"/><polygon fill="#A80036" points="695.5,703.2188,685.5,707.2188,695.5,711.2188,691.5,707.2188" style="stroke: #A80036; stroke-width: 1.0;"/><text fill="#000000" font-family="sans-serif" font-size="13" lengthAdjust="spacingAndGlyphs" textLength="64" x="691.5" y="689.1528">add Pfand</text><!--
@startuml

Customer -> Staff: buys milk in a bottle
activate Staff
activate Customer
ShoppingCart <- Staff: add milk
activate ShoppingCart
ShoppingCart -> Product: Price Request
activate Product
ShoppingCart <- Product: Price Response
ShoppingCart -> Product: Kategory Request
ShoppingCart <- Product: Kategory Response
deactivate Product
ShoppingCart -> Staff: successfully added product
Customer -> Staff: gives empty bottle
Staff -> ShoppingCart: add empty bottle
ShoppingCart -> Product: Price Request
activate Product
ShoppingCart <- Product: Price Response
ShoppingCart -> Product: Kategory Request
ShoppingCart <- Product: Kategory Response
deactivate Product
ShoppingCart -> Staff: successfully added product
Customer <- Staff: Id Request
Customer -> Staff: Id Response
Staff -> CashierSystem: enters id
activate CashierSystem
Staff -> CashierSystem: Scan finished
CashierSystem -> ShoppingCart: Product Request
CashierSystem <- ShoppingCart: Product Response
deactivate ShoppingCart
CashierSystem -> CashierSystem: Sum of base prices
activate CashierSystem
CashierSystem -> CashierSystem: add Pfand

@enduml

PlantUML version 1.2018.12(Sun Oct 21 12:15:15 CEST 2018)
(GPL source distribution)
Java Runtime: OpenJDK Runtime Environment
JVM: OpenJDK 64-Bit Server VM
Java Version: 10.0.2+13-Ubuntu-1ubuntu0.18.04.1
Operating System: Linux
OS Version: 4.15.0-33-generic
Default Encoding: UTF-8
Language: en
Country: US
--></g></svg>