<?xml version="1.0" encoding="UTF-8" standalone="no"?><svg xmlns="http://www.w3.org/2000/svg" xmlns:xlink="http://www.w3.org/1999/xlink" contentScriptType="application/ecmascript" contentStyleType="text/css" height="1074px" preserveAspectRatio="none" style="width:1451px;height:1074px;" version="1.1" viewBox="0 0 1451 1074" width="1451px" zoomAndPan="magnify"><defs><linearGradient id="g1t7hbfud4yte80" x1="0%" x2="100%" y1="0%" y2="100%"><stop offset="0%" stop-color="#ADFF2F"/><stop offset="100%" stop-color="#FAFAD2"/></linearGradient><filter height="300%" id="f1t7hbfud4yte8" width="300%" x="-1" y="-1"><feGaussianBlur result="blurOut" stdDeviation="2.0"/><feColorMatrix in="blurOut" result="blurOut2" type="matrix" values="0 0 0 0 0 0 0 0 0 0 0 0 0 0 0 0 0 0 .4 0"/><feOffset dx="4.0" dy="4.0" in="blurOut2" result="blurOut3"/><feBlend in="SourceGraphic" in2="blurOut3" mode="normal"/></filter></defs><g><!--cluster UserDepartment--><polygon fill="#FFFFFF" points="765,132,901,132,908,154.2969,1054,154.2969,1054,1047.5,765,1047.5,765,132" style="stroke: #008000; stroke-width: 1.5;"/><line style="stroke: #008000; stroke-width: 1.5;" x1="765" x2="908" y1="154.2969" y2="154.2969"/><text fill="#808080" font-family="sans-serif" font-size="14" font-weight="bold" lengthAdjust="spacingAndGlyphs" textLength="130" x="769" y="146.9951">UserDepartment</text><!--cluster ProductDepartment--><polygon fill="#FFFFFF" points="14,353,175,353,182,375.2969,746,375.2969,746,1062,14,1062,14,353" style="stroke: #008000; stroke-width: 1.5;"/><line style="stroke: #008000; stroke-width: 1.5;" x1="14" x2="182" y1="375.2969" y2="375.2969"/><text fill="#808080" font-family="sans-serif" font-size="14" font-weight="bold" lengthAdjust="spacingAndGlyphs" textLength="155" x="18" y="367.9951">ProductDepartment</text><!--cluster InventoryDepartment--><polygon fill="#FFFFFF" points="22,764,196,764,203,786.2969,410,786.2969,410,1054,22,1054,22,764" style="stroke: #008000; stroke-width: 1.5;"/><line style="stroke: #008000; stroke-width: 1.5;" x1="22" x2="203" y1="786.2969" y2="786.2969"/><text fill="#808080" font-family="sans-serif" font-size="14" font-weight="bold" lengthAdjust="spacingAndGlyphs" textLength="168" x="26" y="778.9951">InventoryDepartment</text><!--cluster DataDepartment--><polygon fill="#FFFFFF" points="1062,283,1196,283,1203,305.2969,1242,305.2969,1242,681.5,1062,681.5,1062,283" style="stroke: #008000; stroke-width: 1.5;"/><line style="stroke: #008000; stroke-width: 1.5;" x1="1062" x2="1203" y1="305.2969" y2="305.2969"/><text fill="#808080" font-family="sans-serif" font-size="14" font-weight="bold" lengthAdjust="spacingAndGlyphs" textLength="128" x="1066" y="297.9951">DataDepartment</text><!--cluster FinancesDepartment--><polygon fill="#FFFFFF" points="1250,587,1419,587,1426,609.2969,1429,609.2969,1429,896.5,1250,896.5,1250,587" style="stroke: #008000; stroke-width: 1.5;"/><line style="stroke: #008000; stroke-width: 1.5;" x1="1250" x2="1426" y1="609.2969" y2="609.2969"/><text fill="#808080" font-family="sans-serif" font-size="14" font-weight="bold" lengthAdjust="spacingAndGlyphs" textLength="163" x="1254" y="601.9951">FinancesDepartment</text><!--class CustomerList--><rect fill="url(#g1t7hbfud4yte80)" filter="url(#f1t7hbfud4yte8)" height="78.3828" id="CustomerList" style="stroke: #000000; stroke-width: 1.5;" width="165" x="874.5" y="165.5"/><text fill="#000000" font-family="sans-serif" font-size="12" lengthAdjust="spacingAndGlyphs" textLength="81" x="916.5" y="181.6387">CustomerList</text><line style="stroke: #000000; stroke-width: 1.5;" x1="875.5" x2="1038.5" y1="189.4688" y2="189.4688"/><line style="stroke: #000000; stroke-width: 1.5;" x1="875.5" x2="1038.5" y1="197.4688" y2="197.4688"/><text fill="#000000" font-family="sans-serif" font-size="11" lengthAdjust="spacingAndGlyphs" textLength="85" x="880.5" y="211.6792">addCustomer()</text><text fill="#000000" font-family="sans-serif" font-size="11" lengthAdjust="spacingAndGlyphs" textLength="99" x="880.5" y="224.4839">deleteCustomer()</text><text fill="#000000" font-family="sans-serif" font-size="11" lengthAdjust="spacingAndGlyphs" textLength="153" x="880.5" y="237.2886">setCustomerPermissions()</text><!--class Person--><rect fill="url(#g1t7hbfud4yte80)" filter="url(#f1t7hbfud4yte8)" height="91.1875" id="Person" style="stroke: #000000; stroke-width: 1.5;" width="60" x="779" y="159"/><text fill="#000000" font-family="sans-serif" font-size="12" lengthAdjust="spacingAndGlyphs" textLength="44" x="787" y="175.1387">Person</text><line style="stroke: #000000; stroke-width: 1.5;" x1="780" x2="838" y1="182.9688" y2="182.9688"/><text fill="#000000" font-family="sans-serif" font-size="11" lengthAdjust="spacingAndGlyphs" textLength="32" x="785" y="197.1792">name</text><text fill="#000000" font-family="sans-serif" font-size="11" lengthAdjust="spacingAndGlyphs" textLength="47" x="785" y="209.9839">adresse</text><text fill="#000000" font-family="sans-serif" font-size="11" lengthAdjust="spacingAndGlyphs" textLength="31" x="785" y="222.7886">email</text><text fill="#000000" font-family="sans-serif" font-size="11" lengthAdjust="spacingAndGlyphs" textLength="48" x="785" y="235.5933">phoneNr</text><line style="stroke: #000000; stroke-width: 1.5;" x1="780" x2="838" y1="242.1875" y2="242.1875"/><!--class Customer--><rect fill="url(#g1t7hbfud4yte80)" filter="url(#f1t7hbfud4yte8)" height="129.6016" id="Customer" style="stroke: #000000; stroke-width: 1.5;" width="87" x="913.5" y="348"/><text fill="#000000" font-family="sans-serif" font-size="12" lengthAdjust="spacingAndGlyphs" textLength="60" x="927" y="364.1387">Customer</text><line style="stroke: #000000; stroke-width: 1.5;" x1="914.5" x2="999.5" y1="371.9688" y2="371.9688"/><text fill="#000000" font-family="sans-serif" font-size="11" lengthAdjust="spacingAndGlyphs" textLength="69" x="919.5" y="386.1792">preferences</text><text fill="#000000" font-family="sans-serif" font-size="11" lengthAdjust="spacingAndGlyphs" textLength="48" x="919.5" y="398.9839">discount</text><text fill="#000000" font-family="sans-serif" font-size="11" lengthAdjust="spacingAndGlyphs" textLength="10" x="919.5" y="411.7886">id</text><text fill="#000000" font-family="sans-serif" font-size="11" lengthAdjust="spacingAndGlyphs" textLength="71" x="919.5" y="424.5933">permissions</text><line style="stroke: #000000; stroke-width: 1.5;" x1="914.5" x2="999.5" y1="431.1875" y2="431.1875"/><text fill="#000000" font-family="sans-serif" font-size="11" lengthAdjust="spacingAndGlyphs" textLength="69" x="919.5" y="445.3979">getCatalog()</text><text fill="#000000" font-family="sans-serif" font-size="11" lengthAdjust="spacingAndGlyphs" textLength="75" x="919.5" y="458.2026">setDiscount()</text><text fill="#000000" font-family="sans-serif" font-size="11" lengthAdjust="spacingAndGlyphs" textLength="75" x="919.5" y="471.0073">getDiscount()</text><!--class Manager--><rect fill="url(#g1t7hbfud4yte80)" filter="url(#f1t7hbfud4yte8)" height="78.3828" id="Manager" style="stroke: #000000; stroke-width: 1.5;" width="101" x="849.5" y="961.5"/><text fill="#000000" font-family="sans-serif" font-size="12" lengthAdjust="spacingAndGlyphs" textLength="55" x="872.5" y="977.6387">Manager</text><line style="stroke: #000000; stroke-width: 1.5;" x1="850.5" x2="949.5" y1="985.4688" y2="985.4688"/><line style="stroke: #000000; stroke-width: 1.5;" x1="850.5" x2="949.5" y1="993.4688" y2="993.4688"/><text fill="#000000" font-family="sans-serif" font-size="11" lengthAdjust="spacingAndGlyphs" textLength="68" x="855.5" y="1007.6792">resetLogin()</text><text fill="#000000" font-family="sans-serif" font-size="11" lengthAdjust="spacingAndGlyphs" textLength="59" x="855.5" y="1020.4839">addLogin()</text><text fill="#000000" font-family="sans-serif" font-size="11" lengthAdjust="spacingAndGlyphs" textLength="89" x="855.5" y="1033.2886">orderProducts()</text><!--class Staff--><rect fill="url(#g1t7hbfud4yte80)" filter="url(#f1t7hbfud4yte8)" height="91.1875" id="Staff" style="stroke: #000000; stroke-width: 1.5;" width="138" x="908" y="791"/><text fill="#000000" font-family="sans-serif" font-size="12" lengthAdjust="spacingAndGlyphs" textLength="29" x="962.5" y="807.1387">Staff</text><line style="stroke: #000000; stroke-width: 1.5;" x1="909" x2="1045" y1="814.9688" y2="814.9688"/><text fill="#000000" font-family="sans-serif" font-size="11" lengthAdjust="spacingAndGlyphs" textLength="58" x="914" y="829.1792">username</text><text fill="#000000" font-family="sans-serif" font-size="11" lengthAdjust="spacingAndGlyphs" textLength="56" x="914" y="841.9839">password</text><line style="stroke: #000000; stroke-width: 1.5;" x1="909" x2="1045" y1="848.5781" y2="848.5781"/><text fill="#000000" font-family="sans-serif" font-size="11" lengthAdjust="spacingAndGlyphs" textLength="35" x="914" y="862.7886">login()</text><text fill="#000000" font-family="sans-serif" font-size="11" lengthAdjust="spacingAndGlyphs" textLength="126" x="914" y="875.5933">addNormalCustomer()</text><!--class NormalCustomer--><rect fill="url(#g1t7hbfud4yte80)" filter="url(#f1t7hbfud4yte8)" height="39.9688" id="NormalCustomer" style="stroke: #000000; stroke-width: 1.5;" width="110" x="776" y="627"/><text fill="#000000" font-family="sans-serif" font-size="12" lengthAdjust="spacingAndGlyphs" textLength="104" x="779" y="643.1387">NormalCustomer</text><line style="stroke: #000000; stroke-width: 1.5;" x1="777" x2="885" y1="650.9688" y2="650.9688"/><line style="stroke: #000000; stroke-width: 1.5;" x1="777" x2="885" y1="658.9688" y2="658.9688"/><!--class HouseCustomer--><rect fill="url(#g1t7hbfud4yte80)" filter="url(#f1t7hbfud4yte8)" height="39.9688" id="HouseCustomer" style="stroke: #000000; stroke-width: 1.5;" width="106" x="921" y="627"/><text fill="#000000" font-family="sans-serif" font-size="12" lengthAdjust="spacingAndGlyphs" textLength="100" x="924" y="643.1387">HouseCustomer</text><line style="stroke: #000000; stroke-width: 1.5;" x1="922" x2="1026" y1="650.9688" y2="650.9688"/><line style="stroke: #000000; stroke-width: 1.5;" x1="922" x2="1026" y1="658.9688" y2="658.9688"/><!--class MajorCustomer--><rect fill="url(#g1t7hbfud4yte80)" filter="url(#f1t7hbfud4yte8)" height="39.9688" id="MajorCustomer" style="stroke: #000000; stroke-width: 1.5;" width="100" x="773" y="816.5"/><text fill="#000000" font-family="sans-serif" font-size="12" lengthAdjust="spacingAndGlyphs" textLength="94" x="776" y="832.6387">MajorCustomer</text><line style="stroke: #000000; stroke-width: 1.5;" x1="774" x2="872" y1="840.4688" y2="840.4688"/><line style="stroke: #000000; stroke-width: 1.5;" x1="774" x2="872" y1="848.4688" y2="848.4688"/><!--class Product--><rect fill="url(#g1t7hbfud4yte80)" filter="url(#f1t7hbfud4yte8)" height="142.4063" id="Product" style="stroke: #000000; stroke-width: 1.5;" width="112" x="471" y="576"/><text fill="#000000" font-family="sans-serif" font-size="12" lengthAdjust="spacingAndGlyphs" textLength="49" x="502.5" y="592.1387">Product</text><line style="stroke: #000000; stroke-width: 1.5;" x1="472" x2="582" y1="599.9688" y2="599.9688"/><text fill="#000000" font-family="sans-serif" font-size="11" lengthAdjust="spacingAndGlyphs" textLength="63" x="477" y="614.1792">description</text><text fill="#000000" font-family="sans-serif" font-size="11" lengthAdjust="spacingAndGlyphs" textLength="42" x="477" y="626.9839">bnnInfo</text><text fill="#000000" font-family="sans-serif" font-size="11" lengthAdjust="spacingAndGlyphs" textLength="21" x="477" y="639.7886">ean</text><text fill="#000000" font-family="sans-serif" font-size="11" lengthAdjust="spacingAndGlyphs" textLength="83" x="477" y="652.5933">quantityStored</text><text fill="#000000" font-family="sans-serif" font-size="11" lengthAdjust="spacingAndGlyphs" textLength="100" x="477" y="665.3979">quantityDisplayed</text><text fill="#000000" font-family="sans-serif" font-size="11" lengthAdjust="spacingAndGlyphs" textLength="28" x="477" y="678.2026">price</text><line style="stroke: #000000; stroke-width: 1.5;" x1="472" x2="582" y1="684.7969" y2="684.7969"/><text fill="#000000" font-family="sans-serif" font-size="11" lengthAdjust="spacingAndGlyphs" textLength="54" x="477" y="699.0073">getPrice()</text><text fill="#000000" font-family="sans-serif" font-size="11" lengthAdjust="spacingAndGlyphs" textLength="90" x="477" y="711.812">getProductInfo()</text><!--class ProductList--><rect fill="url(#g1t7hbfud4yte80)" filter="url(#f1t7hbfud4yte8)" height="65.5781" id="ProductList" style="stroke: #000000; stroke-width: 1.5;" width="98" x="380" y="380"/><text fill="#000000" font-family="sans-serif" font-size="12" lengthAdjust="spacingAndGlyphs" textLength="70" x="394" y="396.1387">ProductList</text><line style="stroke: #000000; stroke-width: 1.5;" x1="381" x2="477" y1="403.9688" y2="403.9688"/><line style="stroke: #000000; stroke-width: 1.5;" x1="381" x2="477" y1="411.9688" y2="411.9688"/><text fill="#000000" font-family="sans-serif" font-size="11" lengthAdjust="spacingAndGlyphs" textLength="72" x="386" y="426.1792">addProduct()</text><text fill="#000000" font-family="sans-serif" font-size="11" lengthAdjust="spacingAndGlyphs" textLength="86" x="386" y="438.9839">deleteProduct()</text><!--class DistributorList--><rect fill="url(#g1t7hbfud4yte80)" filter="url(#f1t7hbfud4yte8)" height="39.9688" id="DistributorList" style="stroke: #000000; stroke-width: 1.5;" width="93" x="618.5" y="627"/><text fill="#000000" font-family="sans-serif" font-size="12" lengthAdjust="spacingAndGlyphs" textLength="87" x="621.5" y="643.1387">DistributorList</text><line style="stroke: #000000; stroke-width: 1.5;" x1="619.5" x2="710.5" y1="650.9688" y2="650.9688"/><line style="stroke: #000000; stroke-width: 1.5;" x1="619.5" x2="710.5" y1="658.9688" y2="658.9688"/><!--class OrderableProducts--><rect fill="url(#g1t7hbfud4yte80)" filter="url(#f1t7hbfud4yte8)" height="39.9688" id="OrderableProducts" style="stroke: #000000; stroke-width: 1.5;" width="124" x="312" y="627"/><text fill="#000000" font-family="sans-serif" font-size="12" lengthAdjust="spacingAndGlyphs" textLength="118" x="315" y="643.1387">OrderableProducts</text><line style="stroke: #000000; stroke-width: 1.5;" x1="313" x2="435" y1="650.9688" y2="650.9688"/><line style="stroke: #000000; stroke-width: 1.5;" x1="313" x2="435" y1="658.9688" y2="658.9688"/><!--class LabelGenerator--><rect fill="url(#g1t7hbfud4yte80)" filter="url(#f1t7hbfud4yte8)" height="78.3828" id="LabelGenerator" style="stroke: #000000; stroke-width: 1.5;" width="120" x="437" y="797.5"/><text fill="#000000" font-family="sans-serif" font-size="12" lengthAdjust="spacingAndGlyphs" textLength="97" x="448.5" y="813.6387">LabelGenerator</text><line style="stroke: #000000; stroke-width: 1.5;" x1="438" x2="556" y1="821.4688" y2="821.4688"/><line style="stroke: #000000; stroke-width: 1.5;" x1="438" x2="556" y1="829.4688" y2="829.4688"/><text fill="#000000" font-family="sans-serif" font-size="11" lengthAdjust="spacingAndGlyphs" textLength="77" x="443" y="843.6792">printLabelAll()</text><text fill="#000000" font-family="sans-serif" font-size="11" lengthAdjust="spacingAndGlyphs" textLength="107" x="443" y="856.4839">printLabelProduct()</text><text fill="#000000" font-family="sans-serif" font-size="11" lengthAdjust="spacingAndGlyphs" textLength="108" x="443" y="869.2886">generateBarCode()</text><!--class Distributor--><rect fill="url(#g1t7hbfud4yte80)" filter="url(#f1t7hbfud4yte8)" height="116.7969" id="Distributor" style="stroke: #000000; stroke-width: 1.5;" width="145" x="592.5" y="778"/><text fill="#000000" font-family="sans-serif" font-size="12" lengthAdjust="spacingAndGlyphs" textLength="66" x="632" y="794.1387">Distributor</text><line style="stroke: #000000; stroke-width: 1.5;" x1="593.5" x2="736.5" y1="801.9688" y2="801.9688"/><text fill="#000000" font-family="sans-serif" font-size="11" lengthAdjust="spacingAndGlyphs" textLength="84" x="598.5" y="816.1792">companyName</text><text fill="#000000" font-family="sans-serif" font-size="11" lengthAdjust="spacingAndGlyphs" textLength="47" x="598.5" y="828.9839">address</text><text fill="#000000" font-family="sans-serif" font-size="11" lengthAdjust="spacingAndGlyphs" textLength="83" x="598.5" y="841.7886">contactPartner</text><text fill="#000000" font-family="sans-serif" font-size="11" lengthAdjust="spacingAndGlyphs" textLength="133" x="598.5" y="854.5933">minimumOrderQuantity</text><text fill="#000000" font-family="sans-serif" font-size="11" lengthAdjust="spacingAndGlyphs" textLength="97" x="598.5" y="867.3979">paymentMethods</text><text fill="#000000" font-family="sans-serif" font-size="11" lengthAdjust="spacingAndGlyphs" textLength="62" x="598.5" y="880.2026">taxNumber</text><line style="stroke: #000000; stroke-width: 1.5;" x1="593.5" x2="736.5" y1="886.7969" y2="886.7969"/><!--class Order--><rect fill="url(#g1t7hbfud4yte80)" filter="url(#f1t7hbfud4yte8)" height="91.1875" id="Order" style="stroke: #000000; stroke-width: 1.5;" width="156" x="37" y="955"/><text fill="#000000" font-family="sans-serif" font-size="12" lengthAdjust="spacingAndGlyphs" textLength="35" x="97.5" y="971.1387">Order</text><line style="stroke: #000000; stroke-width: 1.5;" x1="38" x2="192" y1="978.9688" y2="978.9688"/><text fill="#000000" font-family="sans-serif" font-size="11" lengthAdjust="spacingAndGlyphs" textLength="10" x="43" y="993.1792">id</text><text fill="#000000" font-family="sans-serif" font-size="11" lengthAdjust="spacingAndGlyphs" textLength="40" x="43" y="1005.9839">arrived</text><text fill="#000000" font-family="sans-serif" font-size="11" lengthAdjust="spacingAndGlyphs" textLength="42" x="43" y="1018.7886">content</text><line style="stroke: #000000; stroke-width: 1.5;" x1="38" x2="192" y1="1025.3828" y2="1025.3828"/><text fill="#000000" font-family="sans-serif" font-size="11" lengthAdjust="spacingAndGlyphs" textLength="144" x="43" y="1039.5933">placeContentInInventory()</text><!--class OrderAssistant--><rect fill="url(#g1t7hbfud4yte80)" filter="url(#f1t7hbfud4yte8)" height="65.5781" id="OrderAssistant" style="stroke: #000000; stroke-width: 1.5;" width="167" x="235.5" y="803.5"/><text fill="#000000" font-family="sans-serif" font-size="12" lengthAdjust="spacingAndGlyphs" textLength="93" x="272.5" y="819.6387">OrderAssistant</text><line style="stroke: #000000; stroke-width: 1.5;" x1="236.5" x2="401.5" y1="827.4688" y2="827.4688"/><line style="stroke: #000000; stroke-width: 1.5;" x1="236.5" x2="401.5" y1="835.4688" y2="835.4688"/><text fill="#000000" font-family="sans-serif" font-size="11" lengthAdjust="spacingAndGlyphs" textLength="155" x="241.5" y="849.6792">getLowestPriceForProduct()</text><text fill="#000000" font-family="sans-serif" font-size="11" lengthAdjust="spacingAndGlyphs" textLength="39" x="241.5" y="862.4839">order()</text><!--class Inventory--><rect fill="url(#g1t7hbfud4yte80)" filter="url(#f1t7hbfud4yte8)" height="91.1875" id="Inventory" style="stroke: #000000; stroke-width: 1.5;" width="170" x="30" y="791"/><text fill="#000000" font-family="sans-serif" font-size="12" lengthAdjust="spacingAndGlyphs" textLength="57" x="86.5" y="807.1387">Inventory</text><line style="stroke: #000000; stroke-width: 1.5;" x1="31" x2="199" y1="814.9688" y2="814.9688"/><text fill="#000000" font-family="sans-serif" font-size="11" lengthAdjust="spacingAndGlyphs" textLength="61" x="36" y="829.1792">profitValue</text><line style="stroke: #000000; stroke-width: 1.5;" x1="31" x2="199" y1="835.7734" y2="835.7734"/><text fill="#000000" font-family="sans-serif" font-size="11" lengthAdjust="spacingAndGlyphs" textLength="87" x="36" y="849.9839">setProfitValue()</text><text fill="#000000" font-family="sans-serif" font-size="11" lengthAdjust="spacingAndGlyphs" textLength="87" x="36" y="862.7886">getProfitValue()</text><text fill="#000000" font-family="sans-serif" font-size="11" lengthAdjust="spacingAndGlyphs" textLength="158" x="36" y="875.5933">getValueOfStoredProducts()</text><!--class Log--><rect fill="url(#g1t7hbfud4yte80)" filter="url(#f1t7hbfud4yte8)" height="206.4297" id="Log" style="stroke: #000000; stroke-width: 1.5;" width="163" x="1070.5" y="310"/><text fill="#000000" font-family="sans-serif" font-size="12" lengthAdjust="spacingAndGlyphs" textLength="22" x="1141" y="326.1387">Log</text><line style="stroke: #000000; stroke-width: 1.5;" x1="1071.5" x2="1232.5" y1="333.9688" y2="333.9688"/><text fill="#000000" font-family="sans-serif" font-size="11" lengthAdjust="spacingAndGlyphs" textLength="31" x="1076.5" y="348.1792">sales</text><text fill="#000000" font-family="sans-serif" font-size="11" lengthAdjust="spacingAndGlyphs" textLength="60" x="1076.5" y="360.9839">purchases</text><text fill="#000000" font-family="sans-serif" font-size="11" lengthAdjust="spacingAndGlyphs" textLength="25" x="1076.5" y="373.7886">time</text><text fill="#000000" font-family="sans-serif" font-size="11" lengthAdjust="spacingAndGlyphs" textLength="59" x="1076.5" y="386.5933">soldWares</text><text fill="#000000" font-family="sans-serif" font-size="11" lengthAdjust="spacingAndGlyphs" textLength="95" x="1076.5" y="399.3979">purchasedWares</text><text fill="#000000" font-family="sans-serif" font-size="11" lengthAdjust="spacingAndGlyphs" textLength="85" x="1076.5" y="412.2026">stolenProducts</text><line style="stroke: #000000; stroke-width: 1.5;" x1="1071.5" x2="1232.5" y1="418.7969" y2="418.7969"/><text fill="#000000" font-family="sans-serif" font-size="11" lengthAdjust="spacingAndGlyphs" textLength="58" x="1076.5" y="433.0073">getSales()</text><text fill="#000000" font-family="sans-serif" font-size="11" lengthAdjust="spacingAndGlyphs" textLength="86" x="1076.5" y="445.812">getPurchases()</text><text fill="#000000" font-family="sans-serif" font-size="11" lengthAdjust="spacingAndGlyphs" textLength="54" x="1076.5" y="458.6167">getTime()</text><text fill="#000000" font-family="sans-serif" font-size="11" lengthAdjust="spacingAndGlyphs" textLength="86" x="1076.5" y="471.4214">getSoldWares()</text><text fill="#000000" font-family="sans-serif" font-size="11" lengthAdjust="spacingAndGlyphs" textLength="121" x="1076.5" y="484.2261">getPurchasedWares()</text><text fill="#000000" font-family="sans-serif" font-size="11" lengthAdjust="spacingAndGlyphs" textLength="151" x="1076.5" y="497.0308">getCustomerPreferences()</text><text fill="#000000" font-family="sans-serif" font-size="11" lengthAdjust="spacingAndGlyphs" textLength="112" x="1076.5" y="509.8354">getStolenProducts()</text><!--class Statistic--><rect fill="url(#g1t7hbfud4yte80)" filter="url(#f1t7hbfud4yte8)" height="52.7734" id="Statistic" style="stroke: #000000; stroke-width: 1.5;" width="77" x="1113.5" y="620.5"/><text fill="#000000" font-family="sans-serif" font-size="12" lengthAdjust="spacingAndGlyphs" textLength="51" x="1126.5" y="636.6387">Statistic</text><line style="stroke: #000000; stroke-width: 1.5;" x1="1114.5" x2="1189.5" y1="644.4688" y2="644.4688"/><line style="stroke: #000000; stroke-width: 1.5;" x1="1114.5" x2="1189.5" y1="652.4688" y2="652.4688"/><text fill="#000000" font-family="sans-serif" font-size="11" lengthAdjust="spacingAndGlyphs" textLength="65" x="1119.5" y="666.6792">getStatics()</text><!--class ShoppingCart--><rect fill="url(#g1t7hbfud4yte80)" filter="url(#f1t7hbfud4yte8)" height="65.5781" id="ShoppingCart" style="stroke: #000000; stroke-width: 1.5;" width="98" x="1293" y="614"/><text fill="#000000" font-family="sans-serif" font-size="12" lengthAdjust="spacingAndGlyphs" textLength="85" x="1299.5" y="630.1387">ShoppingCart</text><line style="stroke: #000000; stroke-width: 1.5;" x1="1294" x2="1390" y1="637.9688" y2="637.9688"/><line style="stroke: #000000; stroke-width: 1.5;" x1="1294" x2="1390" y1="645.9688" y2="645.9688"/><text fill="#000000" font-family="sans-serif" font-size="11" lengthAdjust="spacingAndGlyphs" textLength="72" x="1299" y="660.1792">addProduct()</text><text fill="#000000" font-family="sans-serif" font-size="11" lengthAdjust="spacingAndGlyphs" textLength="86" x="1299" y="672.9839">deleteProduct()</text><!--class CashierSystem--><rect fill="url(#g1t7hbfud4yte80)" filter="url(#f1t7hbfud4yte8)" height="103.9922" id="CashierSystem" style="stroke: #000000; stroke-width: 1.5;" width="116" x="1284" y="784.5"/><text fill="#000000" font-family="sans-serif" font-size="12" lengthAdjust="spacingAndGlyphs" textLength="92" x="1296" y="800.6387">CashierSystem</text><line style="stroke: #000000; stroke-width: 1.5;" x1="1285" x2="1399" y1="808.4688" y2="808.4688"/><line style="stroke: #000000; stroke-width: 1.5;" x1="1285" x2="1399" y1="816.4688" y2="816.4688"/><text fill="#000000" font-family="sans-serif" font-size="11" lengthAdjust="spacingAndGlyphs" textLength="86" x="1290" y="830.6792">calculatePrice()</text><text fill="#000000" font-family="sans-serif" font-size="11" lengthAdjust="spacingAndGlyphs" textLength="74" x="1290" y="843.4839">giveChange()</text><text fill="#000000" font-family="sans-serif" font-size="11" lengthAdjust="spacingAndGlyphs" textLength="57" x="1290" y="856.2886">cancelAll()</text><text fill="#000000" font-family="sans-serif" font-size="11" lengthAdjust="spacingAndGlyphs" textLength="87" x="1290" y="869.0933">cancelProduct()</text><text fill="#000000" font-family="sans-serif" font-size="11" lengthAdjust="spacingAndGlyphs" textLength="104" x="1290" y="881.8979">enterCustomerId()</text><!--class Database--><rect fill="url(#g1t7hbfud4yte80)" filter="url(#f1t7hbfud4yte8)" height="91.1875" id="Database" style="stroke: #000000; stroke-width: 1.5;" width="67" x="631.5" y="8"/><text fill="#000000" font-family="sans-serif" font-size="12" lengthAdjust="spacingAndGlyphs" textLength="61" x="634.5" y="24.1387">Database</text><line style="stroke: #000000; stroke-width: 1.5;" x1="632.5" x2="697.5" y1="31.9688" y2="31.9688"/><line style="stroke: #000000; stroke-width: 1.5;" x1="632.5" x2="697.5" y1="39.9688" y2="39.9688"/><text fill="#000000" font-family="sans-serif" font-size="11" lengthAdjust="spacingAndGlyphs" textLength="31" x="637.5" y="54.1792">sort()</text><text fill="#000000" font-family="sans-serif" font-size="11" lengthAdjust="spacingAndGlyphs" textLength="29" x="637.5" y="66.9839">add()</text><text fill="#000000" font-family="sans-serif" font-size="11" lengthAdjust="spacingAndGlyphs" textLength="43" x="637.5" y="79.7886">delete()</text><text fill="#000000" font-family="sans-serif" font-size="11" lengthAdjust="spacingAndGlyphs" textLength="47" x="637.5" y="92.5933">search()</text><!--link Person to Customer--><path d="M809,270.2063 C809,270.2063 809,364 809,364 C809,364 869.7393,364 913.3956,364 " fill="none" id="Person-Customer" style="stroke: #000000; stroke-width: 1.0;"/><polygon fill="none" points="802.0001,270.2063,809,250.2063,816.0001,270.2063,802.0001,270.2063" style="stroke: #000000; stroke-width: 1.0;"/><!--link Staff to Manager--><path d="M929.25,902.1831 C929.25,902.1831 929.25,961.4539 929.25,961.4539 " fill="none" id="Staff-Manager" style="stroke: #000000; stroke-width: 1.0;"/><polygon fill="none" points="922.2501,902.1832,929.25,882.1831,936.2501,902.1831,922.2501,902.1832" style="stroke: #000000; stroke-width: 1.0;"/><!--link Customer to NormalCustomer--><path d="M893.2443,462 C893.2443,462 880.25,462 880.25,462 C880.25,462 880.25,578.9016 880.25,626.8496 " fill="none" id="Customer-NormalCustomer" style="stroke: #000000; stroke-width: 1.0;"/><polygon fill="none" points="893.2444,454.9999,913.2443,462,893.2443,468.9999,893.2444,454.9999" style="stroke: #000000; stroke-width: 1.0;"/><!--link Customer to HouseCustomer--><path d="M960.75,498.182 C960.75,498.182 960.75,626.7928 960.75,626.7928 " fill="none" id="Customer-HouseCustomer" style="stroke: #000000; stroke-width: 1.0;"/><polygon fill="none" points="953.7501,498.1821,960.75,478.182,967.7501,498.182,953.7501,498.1821" style="stroke: #000000; stroke-width: 1.0;"/><!--link HouseCustomer to MajorCustomer--><path d="M900.9412,647 C900.9412,647 897,647 897,647 C897,647 897,837 897,837 C897,837 886.3758,837 873.1786,837 " fill="none" id="HouseCustomer-MajorCustomer" style="stroke: #000000; stroke-width: 1.0;"/><polygon fill="none" points="900.9412,639.9999,920.9412,647,900.9412,653.9999,900.9412,639.9999" style="stroke: #000000; stroke-width: 1.0;"/><!--link HouseCustomer to Staff--><path d="M974,687.2798 C974,687.2798 974,790.9367 974,790.9367 " fill="none" id="HouseCustomer-Staff" style="stroke: #000000; stroke-width: 1.0;"/><polygon fill="none" points="967.0001,687.2799,974,667.2798,981.0001,687.2798,967.0001,687.2799" style="stroke: #000000; stroke-width: 1.0;"/><!--link CustomerList to Customer--><path d="M957,243.7173 C957,272.9722 957,313.6034 957,347.7263 " fill="none" id="CustomerList-Customer" style="stroke: #000000; stroke-width: 1.0;"/><text fill="#000000" font-family="sans-serif" font-size="13" lengthAdjust="spacingAndGlyphs" textLength="8" x="948.2875" y="264.0834">1</text><text fill="#000000" font-family="sans-serif" font-size="13" lengthAdjust="spacingAndGlyphs" textLength="23" x="932.7422" y="336.8626">0..*</text><!--link Database to CustomerList--><path d="M718.7814,54 C718.7814,54 957,54 957,54 C957,54 957,120.7583 957,165.3508 " fill="none" id="Database-CustomerList" style="stroke: #000000; stroke-width: 1.0;"/><polygon fill="none" points="718.7814,60.9999,698.7814,54,718.7813,46.9999,718.7814,60.9999" style="stroke: #000000; stroke-width: 1.0;"/><!--link Staff to FinancesDepartment--><path d="M1046.1002,837 C1087.701,837 1140.6759,837 1183.2507,837 C1204.538,837 1223.2254,837 1236.5909,837 C1239.9322,837 1242.941,837 1245.5746,837 C1246.8914,837 1248.1144,837 1249.2384,837 C1249.3788,837 1249.5178,837 1249.6552,837 " fill="none" id="Staff-FinancesDepartment" style="stroke: #000000; stroke-width: 1.0;"/><polygon fill="#000000" points="1249.6552,837,1240.6552,833,1244.6552,837,1240.6552,841,1249.6552,837" style="stroke: #000000; stroke-width: 1.0;"/><!--link OrderableProducts to DistributorList--><path d="M417.3333,626.5611 C417.3333,597.0486 417.3333,546 417.3333,546 C417.3333,546 625,546 625,546 C625,546 625,613.5611 625,613.5611 " fill="none" id="OrderableProducts-DistributorList" style="stroke: #000000; stroke-width: 1.0;"/><polygon fill="#FFFFFF" points="625,626.5611,629,620.5611,625,614.5611,621,620.5611,625,626.5611" style="stroke: #000000; stroke-width: 1.0;"/><text fill="#000000" font-family="sans-serif" font-size="13" lengthAdjust="spacingAndGlyphs" textLength="8" x="420.3958" y="615.7933">1</text><text fill="#000000" font-family="sans-serif" font-size="13" lengthAdjust="spacingAndGlyphs" textLength="8" x="604.625" y="615.7933">1</text><!--link DistributorList to Distributor--><path d="M665,680.2798 C665,680.2798 665,777.7579 665,777.7579 " fill="none" id="DistributorList-Distributor" style="stroke: #000000; stroke-width: 1.0;"/><polygon fill="#FFFFFF" points="665,667.2798,661,673.2798,665,679.2798,669,673.2798,665,667.2798" style="stroke: #000000; stroke-width: 1.0;"/><text fill="#000000" font-family="sans-serif" font-size="13" lengthAdjust="spacingAndGlyphs" textLength="8" x="655.875" y="687.1828">1</text><text fill="#000000" font-family="sans-serif" font-size="13" lengthAdjust="spacingAndGlyphs" textLength="23" x="640.5984" y="766.772">0..*</text><!--link Database to DistributorList--><path d="M676.1667,119.0855 C676.1667,119.0855 676.1667,626.9504 676.1667,626.9504 " fill="none" id="Database-DistributorList" style="stroke: #000000; stroke-width: 1.0;"/><polygon fill="none" points="669.1668,119.0855,676.1667,99.0855,683.1668,119.0854,669.1668,119.0855" style="stroke: #000000; stroke-width: 1.0;"/><!--link Database to ProductList--><path d="M653.8333,119.0309 C653.8333,119.0309 653.8333,413 653.8333,413 C653.8333,413 544.2176,413 478.0628,413 " fill="none" id="Database-ProductList" style="stroke: #000000; stroke-width: 1.0;"/><polygon fill="none" points="646.8334,119.031,653.8333,99.0309,660.8334,119.0309,646.8334,119.031" style="stroke: #000000; stroke-width: 1.0;"/><!--link ProductList to Product--><path d="M474.5,459.0302 C474.5,459.0302 474.5,575.6079 474.5,575.6079 " fill="none" id="ProductList-Product" style="stroke: #000000; stroke-width: 1.0;"/><polygon fill="#FFFFFF" points="474.5,446.0302,470.5,452.0302,474.5,458.0302,478.5,452.0302,474.5,446.0302" style="stroke: #000000; stroke-width: 1.0;"/><text fill="#000000" font-family="sans-serif" font-size="13" lengthAdjust="spacingAndGlyphs" textLength="8" x="474.1516" y="465.621">1</text><text fill="#000000" font-family="sans-serif" font-size="13" lengthAdjust="spacingAndGlyphs" textLength="23" x="445.2" y="564.8954">0..*</text><!--link Product to LabelGenerator--><path d="M514,731.102 C514,731.102 514,797.4652 514,797.4652 " fill="none" id="Product-LabelGenerator" style="stroke: #000000; stroke-width: 1.0;"/><polygon fill="#000000" points="514,718.102,510,724.102,514,730.102,518,724.102,514,718.102" style="stroke: #000000; stroke-width: 1.0;"/><text fill="#000000" font-family="sans-serif" font-size="13" lengthAdjust="spacingAndGlyphs" textLength="23" x="488.4734" y="738.2606">1..*</text><text fill="#000000" font-family="sans-serif" font-size="13" lengthAdjust="spacingAndGlyphs" textLength="8" x="508.2344" y="786.5124">1</text><!--link ProductList to OrderableProducts--><path d="M398.6667,466.0302 C398.6667,466.0302 398.6667,626.8856 398.6667,626.8856 " fill="none" id="ProductList-OrderableProducts" style="stroke: #000000; stroke-width: 1.0;"/><polygon fill="none" points="391.6668,466.0302,398.6667,446.0302,405.6668,466.0301,391.6668,466.0302" style="stroke: #000000; stroke-width: 1.0;"/><!--link Product to Distributor--><path d="M570,718.0212 C570,751.8345 570,785 570,785 C570,785 579.0337,785 579.0337,785 " fill="none" id="Product-Distributor" style="stroke: #000000; stroke-width: 1.0;"/><polygon fill="#000000" points="592.0337,785,586.0337,781,580.0337,785,586.0337,789,592.0337,785" style="stroke: #000000; stroke-width: 1.0;"/><text fill="#000000" font-family="sans-serif" font-size="13" lengthAdjust="spacingAndGlyphs" textLength="23" x="550.4453" y="738.6614">1..*</text><text fill="#000000" font-family="sans-serif" font-size="13" lengthAdjust="spacingAndGlyphs" textLength="8" x="576.4573" y="776.2756">1</text><!--link Inventory to Order--><path d="M115,887.1831 C115,887.1831 115,954.7777 115,954.7777 " fill="none" id="Inventory-Order" style="stroke: #000000; stroke-width: 1.0;"/><polygon fill="#000000" points="115,882.1831,111,891.1831,115,887.1831,119,891.1831,115,882.1831" style="stroke: #000000; stroke-width: 1.0;"/><!--link OrderableProducts to OrderAssistant--><path d="M357.25,672.2798 C357.25,672.2798 357.25,803.3765 357.25,803.3765 " fill="none" id="OrderableProducts-OrderAssistant" style="stroke: #000000; stroke-width: 1.0;"/><polygon fill="#000000" points="357.25,667.2798,353.25,676.2798,357.25,672.2798,361.25,676.2798,357.25,667.2798" style="stroke: #000000; stroke-width: 1.0;"/><!--link ProductList to Inventory--><path d="M359.9375,413 C359.9375,413 115,413 115,413 C115,413 115,681.2679 115,790.7757 " fill="none" id="ProductList-Inventory" style="stroke: #000000; stroke-width: 1.0;"/><polygon fill="none" points="359.9375,405.9999,379.9375,413,359.9375,419.9999,359.9375,405.9999" style="stroke: #000000; stroke-width: 1.0;"/><!--link OrderAssistant to Manager--><path d="M319,874.789 C319,874.789 319,1001 319,1001 C319,1001 708.1027,1001 849.4564,1001 " fill="none" id="OrderAssistant-Manager" style="stroke: #000000; stroke-width: 1.0;"/><polygon fill="#000000" points="319,869.789,315,878.789,319,874.789,323,878.789,319,869.789" style="stroke: #000000; stroke-width: 1.0;"/><!--link Log to Statistic--><path d="M1152,529.317 C1152,529.317 1152,620.2427 1152,620.2427 " fill="none" id="Log-Statistic" style="stroke: #000000; stroke-width: 1.0;"/><polygon fill="#000000" points="1152,516.317,1148,522.317,1152,528.317,1156,522.317,1152,516.317" style="stroke: #000000; stroke-width: 1.0;"/><text fill="#000000" font-family="sans-serif" font-size="13" lengthAdjust="spacingAndGlyphs" textLength="8" x="1143.7063" y="536.5111">1</text><text fill="#000000" font-family="sans-serif" font-size="13" lengthAdjust="spacingAndGlyphs" textLength="8" x="1143.075" y="609.4291">1</text><!--link Log to Customer--><path d="M1070.4323,413 C1070.4323,413 1005.7504,413 1005.7504,413 " fill="none" id="Log-Customer" style="stroke: #000000; stroke-width: 1.0;"/><polygon fill="#000000" points="1000.7504,413,1009.7504,417,1005.7504,413,1009.7504,409,1000.7504,413" style="stroke: #000000; stroke-width: 1.0;"/><!--link Log to ShoppingCart--><path d="M1212,521.0592 C1212,521.0592 1212,634 1212,634 C1212,634 1256.0388,634 1292.8526,634 " fill="none" id="Log-ShoppingCart" style="stroke: #000000; stroke-width: 1.0;"/><polygon fill="#000000" points="1212,516.0592,1208,525.0592,1212,521.0592,1216,525.0592,1212,516.0592" style="stroke: #000000; stroke-width: 1.0;"/><!--link ShoppingCart to CashierSystem--><path d="M1342,693.0084 C1342,693.0084 1342,784.2245 1342,784.2245 " fill="none" id="ShoppingCart-CashierSystem" style="stroke: #000000; stroke-width: 1.0;"/><polygon fill="#000000" points="1342,680.0084,1338,686.0084,1342,692.0084,1346,686.0084,1342,680.0084" style="stroke: #000000; stroke-width: 1.0;"/><text fill="#000000" font-family="sans-serif" font-size="13" lengthAdjust="spacingAndGlyphs" textLength="8" x="1333.2625" y="699.5952">1</text><text fill="#000000" font-family="sans-serif" font-size="13" lengthAdjust="spacingAndGlyphs" textLength="8" x="1333.4625" y="773.2685">1</text><!--link ShoppingCart to Product--><path d="M1342,613.7732 C1342,603.582 1342,595 1342,595 C1342,595 596.0183,595 596.0183,595 " fill="none" id="ShoppingCart-Product" style="stroke: #000000; stroke-width: 1.0;"/><polygon fill="#000000" points="583.0183,595,589.0183,599,595.0183,595,589.0183,591,583.0183,595" style="stroke: #000000; stroke-width: 1.0;"/><text fill="#000000" font-family="sans-serif" font-size="13" lengthAdjust="spacingAndGlyphs" textLength="8" x="1333.2125" y="602.8766">1</text><text fill="#000000" font-family="sans-serif" font-size="13" lengthAdjust="spacingAndGlyphs" textLength="23" x="590.8251" y="585.1714">1..*</text><!--
@startuml
skinparam linetype ortho
hide circle

skinparam class {
	BackgroundColor #GreenYellow/LightGoldenRodYellow
    BorderColor Black
    ArrowColor  Black
}

skinparam package {
    FontColor Grey
    BorderColor Green
    shadowing false
}

class Database{
    sort()
    add()
    delete()
    search()
}

package UserDepartment {

class CustomerList{
    addCustomer()
    deleteCustomer()
    setCustomerPermissions()
}

class Person{
    name
    adresse
    email
    phoneNr
}


class Customer{
    preferences
    discount
    id
    permissions
    getCatalog()
    setDiscount()
    getDiscount()
}

class Manager{
    resetLogin()
    addLogin()
    orderProducts()
}


Person ^- - Customer


Staff ^- - Manager


Customer ^- - NormalCustomer
Customer ^- - HouseCustomer
HouseCustomer ^- - MajorCustomer
HouseCustomer ^- - Staff


class Staff{
    username
    password

    login()
    addNormalCustomer()
}


CustomerList "1" - - "0..*" Customer
Database ^- - CustomerList

Staff - -> FinancesDepartment

}






package ProductDepartment{
    class Product{
        description
        bnnInfo
        ean
        quantityStored
        quantityDisplayed
        price

        getPrice()
        getProductInfo()

    }

    class ProductList{
        addProduct()
        deleteProduct()
    }

    class DistributorList{

    }

    class OrderableProducts{

    }

    class LabelGenerator{
        printLabelAll()
        printLabelProduct()
        generateBarCode()
    }

    class Distributor{
        companyName
        address
        contactPartner
        minimumOrderQuantity
        paymentMethods
        taxNumber
    }

    OrderableProducts "1" -left-o "1" DistributorList
    DistributorList "1" o- - "0..*" Distributor

    Database ^- - DistributorList




    ProductList -up-^ Database
    ProductList "1" o- - "0..*" Product
    Product "1..*" *- - "1" LabelGenerator
    ProductList ^- - OrderableProducts

    Product "1..*" - -* "1" Distributor

    package InventoryDepartment{

        class Order{
            id
            arrived
            content

            placeContentInInventory()
        }

        class OrderAssistant{
            getLowestPriceForProduct()
            order()
        }

        class Inventory {
            profitValue

            setProfitValue()
            getProfitValue()
            getValueOfStoredProducts()
        }

        Order -up-> Inventory
        OrderableProducts <- - OrderAssistant
        ProductList ^- - Inventory
        OrderAssistant <- - Manager

    }

}

package DataDepartment {


    class Log{
        sales
        purchases
        time
        soldWares
        purchasedWares
        stolenProducts


        getSales()
        getPurchases()
        getTime()
        getSoldWares()
        getPurchasedWares()
        getCustomerPreferences()
        getStolenProducts()
    }

    class Statistic{
        getStatics()
    }

    Log "1" *- - "1" Statistic
    Log -right-> Customer


}

package FinancesDepartment {


    class ShoppingCart{
        addProduct()
        deleteProduct()

    }

    class CashierSystem{
        calculatePrice()
        giveChange()
        cancelAll()
        cancelProduct()
        enterCustomerId()
    }

    Log <- - ShoppingCart

    ShoppingCart "1" *- - "1" CashierSystem

    ShoppingCart "1" - -* "1..*" Product



}

@enduml

PlantUML version 1.2018.12(Sun Oct 21 12:15:15 CEST 2018)
(GPL source distribution)
Java Runtime: OpenJDK Runtime Environment
JVM: OpenJDK 64-Bit Server VM
Java Version: 10.0.2+13-Ubuntu-1ubuntu0.18.04.1
Operating System: Linux
OS Version: 4.15.0-33-generic
Default Encoding: UTF-8
Language: en
Country: US
--></g></svg>