<?xml version="1.0" encoding="UTF-8" standalone="no"?><svg xmlns="http://www.w3.org/2000/svg" xmlns:xlink="http://www.w3.org/1999/xlink" contentScriptType="application/ecmascript" contentStyleType="text/css" height="1652px" preserveAspectRatio="none" style="width:1425px;height:1652px;" version="1.1" viewBox="0 0 1425 1652" width="1425px" zoomAndPan="magnify"><defs><linearGradient id="g1ws4frkcu2i950" x1="0%" x2="100%" y1="0%" y2="100%"><stop offset="0%" stop-color="#ADFF2F"/><stop offset="100%" stop-color="#FAFAD2"/></linearGradient><filter height="300%" id="f1ws4frkcu2i95" width="300%" x="-1" y="-1"><feGaussianBlur result="blurOut" stdDeviation="2.0"/><feColorMatrix in="blurOut" result="blurOut2" type="matrix" values="0 0 0 0 0 0 0 0 0 0 0 0 0 0 0 0 0 0 .4 0"/><feOffset dx="4.0" dy="4.0" in="blurOut2" result="blurOut3"/><feBlend in="SourceGraphic" in2="blurOut3" mode="normal"/></filter></defs><g><!--cluster UserDepartment--><polygon fill="#FFFFFF" points="888,151,1024,151,1031,173.2969,1177,173.2969,1177,1381,888,1381,888,151" style="stroke: #008000; stroke-width: 1.5;"/><line style="stroke: #008000; stroke-width: 1.5;" x1="888" x2="1031" y1="173.2969" y2="173.2969"/><text fill="#808080" font-family="sans-serif" font-size="14" font-weight="bold" lengthAdjust="spacingAndGlyphs" textLength="130" x="892" y="165.9951">UserDepartment</text><!--cluster ProductDepartment--><polygon fill="#FFFFFF" points="51,647,212,647,219,669.2969,880,669.2969,880,1640,51,1640,51,647" style="stroke: #008000; stroke-width: 1.5;"/><line style="stroke: #008000; stroke-width: 1.5;" x1="51" x2="219" y1="669.2969" y2="669.2969"/><text fill="#808080" font-family="sans-serif" font-size="14" font-weight="bold" lengthAdjust="spacingAndGlyphs" textLength="155" x="55" y="661.9951">ProductDepartment</text><!--cluster InventoryDepartment--><polygon fill="#FFFFFF" points="319,931,493,931,500,953.2969,707,953.2969,707,1627,319,1627,319,931" style="stroke: #008000; stroke-width: 1.5;"/><line style="stroke: #008000; stroke-width: 1.5;" x1="319" x2="500" y1="953.2969" y2="953.2969"/><text fill="#808080" font-family="sans-serif" font-size="14" font-weight="bold" lengthAdjust="spacingAndGlyphs" textLength="168" x="323" y="945.9951">InventoryDepartment</text><!--cluster DataDepartment--><polygon fill="#FFFFFF" points="1259,387.5,1393,387.5,1400,409.7969,1403,409.7969,1403,735,1259,735,1259,387.5" style="stroke: #008000; stroke-width: 1.5;"/><line style="stroke: #008000; stroke-width: 1.5;" x1="1259" x2="1400" y1="409.7969" y2="409.7969"/><text fill="#808080" font-family="sans-serif" font-size="14" font-weight="bold" lengthAdjust="spacingAndGlyphs" textLength="128" x="1263" y="402.4951">DataDepartment</text><!--cluster FinancesDepartment--><polygon fill="#FFFFFF" points="1185,766,1354,766,1361,788.2969,1364,788.2969,1364,1235,1185,1235,1185,766" style="stroke: #008000; stroke-width: 1.5;"/><line style="stroke: #008000; stroke-width: 1.5;" x1="1185" x2="1361" y1="788.2969" y2="788.2969"/><text fill="#808080" font-family="sans-serif" font-size="14" font-weight="bold" lengthAdjust="spacingAndGlyphs" textLength="163" x="1189" y="780.9951">FinancesDepartment</text><!--class UserList--><rect fill="url(#g1ws4frkcu2i950)" filter="url(#f1ws4frkcu2i95)" height="52.7734" id="UserList" style="stroke: #000000; stroke-width: 1.5;" width="92" x="1019" y="197"/><text fill="#000000" font-family="sans-serif" font-size="12" lengthAdjust="spacingAndGlyphs" textLength="50" x="1040" y="213.1387">UserList</text><line style="stroke: #000000; stroke-width: 1.5;" x1="1020" x2="1110" y1="220.9688" y2="220.9688"/><line style="stroke: #000000; stroke-width: 1.5;" x1="1020" x2="1110" y1="228.9688" y2="228.9688"/><text fill="#000000" font-family="sans-serif" font-size="11" lengthAdjust="spacingAndGlyphs" textLength="80" x="1025" y="243.1792">setUserType()</text><!--class Person--><rect fill="url(#g1ws4frkcu2i950)" filter="url(#f1ws4frkcu2i95)" height="91.1875" id="Person" style="stroke: #000000; stroke-width: 1.5;" width="60" x="924" y="178"/><text fill="#000000" font-family="sans-serif" font-size="12" lengthAdjust="spacingAndGlyphs" textLength="44" x="932" y="194.1387">Person</text><line style="stroke: #000000; stroke-width: 1.5;" x1="925" x2="983" y1="201.9688" y2="201.9688"/><text fill="#000000" font-family="sans-serif" font-size="11" lengthAdjust="spacingAndGlyphs" textLength="32" x="930" y="216.1792">name</text><text fill="#000000" font-family="sans-serif" font-size="11" lengthAdjust="spacingAndGlyphs" textLength="47" x="930" y="228.9839">address</text><text fill="#000000" font-family="sans-serif" font-size="11" lengthAdjust="spacingAndGlyphs" textLength="31" x="930" y="241.7886">email</text><text fill="#000000" font-family="sans-serif" font-size="11" lengthAdjust="spacingAndGlyphs" textLength="48" x="930" y="254.5933">phoneNr</text><line style="stroke: #000000; stroke-width: 1.5;" x1="925" x2="983" y1="261.1875" y2="261.1875"/><!--class Customer--><rect fill="url(#g1ws4frkcu2i950)" filter="url(#f1ws4frkcu2i95)" height="129.6016" id="Customer" style="stroke: #000000; stroke-width: 1.5;" width="87" x="1021.5" y="408"/><text fill="#000000" font-family="sans-serif" font-size="12" lengthAdjust="spacingAndGlyphs" textLength="60" x="1035" y="424.1387">Customer</text><line style="stroke: #000000; stroke-width: 1.5;" x1="1022.5" x2="1107.5" y1="431.9688" y2="431.9688"/><text fill="#000000" font-family="sans-serif" font-size="11" lengthAdjust="spacingAndGlyphs" textLength="69" x="1027.5" y="446.1792">preferences</text><text fill="#000000" font-family="sans-serif" font-size="11" lengthAdjust="spacingAndGlyphs" textLength="48" x="1027.5" y="458.9839">discount</text><text fill="#000000" font-family="sans-serif" font-size="11" lengthAdjust="spacingAndGlyphs" textLength="10" x="1027.5" y="471.7886">id</text><text fill="#000000" font-family="sans-serif" font-size="11" lengthAdjust="spacingAndGlyphs" textLength="71" x="1027.5" y="484.5933">permissions</text><line style="stroke: #000000; stroke-width: 1.5;" x1="1022.5" x2="1107.5" y1="491.1875" y2="491.1875"/><text fill="#000000" font-family="sans-serif" font-size="11" lengthAdjust="spacingAndGlyphs" textLength="69" x="1027.5" y="505.3979">getCatalog()</text><text fill="#000000" font-family="sans-serif" font-size="11" lengthAdjust="spacingAndGlyphs" textLength="75" x="1027.5" y="518.2026">setDiscount()</text><text fill="#000000" font-family="sans-serif" font-size="11" lengthAdjust="spacingAndGlyphs" textLength="75" x="1027.5" y="531.0073">getDiscount()</text><!--class Manager--><rect fill="url(#g1ws4frkcu2i950)" filter="url(#f1ws4frkcu2i95)" height="65.5781" id="Manager" style="stroke: #000000; stroke-width: 1.5;" width="101" x="910.5" y="1307"/><text fill="#000000" font-family="sans-serif" font-size="12" lengthAdjust="spacingAndGlyphs" textLength="55" x="933.5" y="1323.1387">Manager</text><line style="stroke: #000000; stroke-width: 1.5;" x1="911.5" x2="1010.5" y1="1330.9688" y2="1330.9688"/><line style="stroke: #000000; stroke-width: 1.5;" x1="911.5" x2="1010.5" y1="1338.9688" y2="1338.9688"/><text fill="#000000" font-family="sans-serif" font-size="11" lengthAdjust="spacingAndGlyphs" textLength="68" x="916.5" y="1353.1792">resetLogin()</text><text fill="#000000" font-family="sans-serif" font-size="11" lengthAdjust="spacingAndGlyphs" textLength="89" x="916.5" y="1365.9839">orderProducts()</text><!--class Staff--><rect fill="url(#g1ws4frkcu2i950)" filter="url(#f1ws4frkcu2i95)" height="91.1875" id="Staff" style="stroke: #000000; stroke-width: 1.5;" width="138" x="896" y="945.5"/><text fill="#000000" font-family="sans-serif" font-size="12" lengthAdjust="spacingAndGlyphs" textLength="29" x="950.5" y="961.6387">Staff</text><line style="stroke: #000000; stroke-width: 1.5;" x1="897" x2="1033" y1="969.4688" y2="969.4688"/><text fill="#000000" font-family="sans-serif" font-size="11" lengthAdjust="spacingAndGlyphs" textLength="58" x="902" y="983.6792">username</text><text fill="#000000" font-family="sans-serif" font-size="11" lengthAdjust="spacingAndGlyphs" textLength="56" x="902" y="996.4839">password</text><line style="stroke: #000000; stroke-width: 1.5;" x1="897" x2="1033" y1="1003.0781" y2="1003.0781"/><text fill="#000000" font-family="sans-serif" font-size="11" lengthAdjust="spacingAndGlyphs" textLength="35" x="902" y="1017.2886">login()</text><text fill="#000000" font-family="sans-serif" font-size="11" lengthAdjust="spacingAndGlyphs" textLength="126" x="902" y="1030.0933">addNormalCustomer()</text><!--class NormalCustomer--><rect fill="url(#g1ws4frkcu2i950)" filter="url(#f1ws4frkcu2i95)" height="39.9688" id="NormalCustomer" style="stroke: #000000; stroke-width: 1.5;" width="110" x="897" y="674"/><text fill="#000000" font-family="sans-serif" font-size="12" lengthAdjust="spacingAndGlyphs" textLength="104" x="900" y="690.1387">NormalCustomer</text><line style="stroke: #000000; stroke-width: 1.5;" x1="898" x2="1006" y1="697.9688" y2="697.9688"/><line style="stroke: #000000; stroke-width: 1.5;" x1="898" x2="1006" y1="705.9688" y2="705.9688"/><!--class HouseCustomer--><rect fill="url(#g1ws4frkcu2i950)" filter="url(#f1ws4frkcu2i95)" height="39.9688" id="HouseCustomer" style="stroke: #000000; stroke-width: 1.5;" width="106" x="1042" y="674"/><text fill="#000000" font-family="sans-serif" font-size="12" lengthAdjust="spacingAndGlyphs" textLength="100" x="1045" y="690.1387">HouseCustomer</text><line style="stroke: #000000; stroke-width: 1.5;" x1="1043" x2="1147" y1="697.9688" y2="697.9688"/><line style="stroke: #000000; stroke-width: 1.5;" x1="1043" x2="1147" y1="705.9688" y2="705.9688"/><!--class MajorCustomer--><rect fill="url(#g1ws4frkcu2i950)" filter="url(#f1ws4frkcu2i95)" height="39.9688" id="MajorCustomer" style="stroke: #000000; stroke-width: 1.5;" width="100" x="1069" y="971"/><text fill="#000000" font-family="sans-serif" font-size="12" lengthAdjust="spacingAndGlyphs" textLength="94" x="1072" y="987.1387">MajorCustomer</text><line style="stroke: #000000; stroke-width: 1.5;" x1="1070" x2="1168" y1="994.9688" y2="994.9688"/><line style="stroke: #000000; stroke-width: 1.5;" x1="1070" x2="1168" y1="1002.9688" y2="1002.9688"/><!--class Product--><rect fill="url(#g1ws4frkcu2i950)" filter="url(#f1ws4frkcu2i95)" height="142.4063" id="Product" style="stroke: #000000; stroke-width: 1.5;" width="112" x="741" y="920"/><text fill="#000000" font-family="sans-serif" font-size="12" lengthAdjust="spacingAndGlyphs" textLength="49" x="772.5" y="936.1387">Product</text><line style="stroke: #000000; stroke-width: 1.5;" x1="742" x2="852" y1="943.9688" y2="943.9688"/><text fill="#000000" font-family="sans-serif" font-size="11" lengthAdjust="spacingAndGlyphs" textLength="63" x="747" y="958.1792">description</text><text fill="#000000" font-family="sans-serif" font-size="11" lengthAdjust="spacingAndGlyphs" textLength="42" x="747" y="970.9839">bnnInfo</text><text fill="#000000" font-family="sans-serif" font-size="11" lengthAdjust="spacingAndGlyphs" textLength="21" x="747" y="983.7886">ean</text><text fill="#000000" font-family="sans-serif" font-size="11" lengthAdjust="spacingAndGlyphs" textLength="83" x="747" y="996.5933">quantityStored</text><text fill="#000000" font-family="sans-serif" font-size="11" lengthAdjust="spacingAndGlyphs" textLength="100" x="747" y="1009.3979">quantityDisplayed</text><text fill="#000000" font-family="sans-serif" font-size="11" lengthAdjust="spacingAndGlyphs" textLength="28" x="747" y="1022.2026">price</text><line style="stroke: #000000; stroke-width: 1.5;" x1="742" x2="852" y1="1028.7969" y2="1028.7969"/><text fill="#000000" font-family="sans-serif" font-size="11" lengthAdjust="spacingAndGlyphs" textLength="54" x="747" y="1043.0073">getPrice()</text><text fill="#000000" font-family="sans-serif" font-size="11" lengthAdjust="spacingAndGlyphs" textLength="90" x="747" y="1055.812">getProductInfo()</text><!--class ProductList--><rect fill="url(#g1ws4frkcu2i950)" filter="url(#f1ws4frkcu2i95)" height="39.9688" id="ProductList" style="stroke: #000000; stroke-width: 1.5;" width="76" x="374" y="674"/><text fill="#000000" font-family="sans-serif" font-size="12" lengthAdjust="spacingAndGlyphs" textLength="70" x="377" y="690.1387">ProductList</text><line style="stroke: #000000; stroke-width: 1.5;" x1="375" x2="449" y1="697.9688" y2="697.9688"/><line style="stroke: #000000; stroke-width: 1.5;" x1="375" x2="449" y1="705.9688" y2="705.9688"/><!--class DistributorList--><rect fill="url(#g1ws4frkcu2i950)" filter="url(#f1ws4frkcu2i95)" height="39.9688" id="DistributorList" style="stroke: #000000; stroke-width: 1.5;" width="93" x="74.5" y="1320"/><text fill="#000000" font-family="sans-serif" font-size="12" lengthAdjust="spacingAndGlyphs" textLength="87" x="77.5" y="1336.1387">DistributorList</text><line style="stroke: #000000; stroke-width: 1.5;" x1="75.5" x2="166.5" y1="1343.9688" y2="1343.9688"/><line style="stroke: #000000; stroke-width: 1.5;" x1="75.5" x2="166.5" y1="1351.9688" y2="1351.9688"/><!--class OrderableProducts--><rect fill="url(#g1ws4frkcu2i950)" filter="url(#f1ws4frkcu2i95)" height="39.9688" id="OrderableProducts" style="stroke: #000000; stroke-width: 1.5;" width="124" x="59" y="971"/><text fill="#000000" font-family="sans-serif" font-size="12" lengthAdjust="spacingAndGlyphs" textLength="118" x="62" y="987.1387">OrderableProducts</text><line style="stroke: #000000; stroke-width: 1.5;" x1="60" x2="182" y1="994.9688" y2="994.9688"/><line style="stroke: #000000; stroke-width: 1.5;" x1="60" x2="182" y1="1002.9688" y2="1002.9688"/><!--class LabelGenerator--><rect fill="url(#g1ws4frkcu2i950)" filter="url(#f1ws4frkcu2i95)" height="103.9922" id="LabelGenerator" style="stroke: #000000; stroke-width: 1.5;" width="120" x="752" y="1288"/><text fill="#000000" font-family="sans-serif" font-size="12" lengthAdjust="spacingAndGlyphs" textLength="97" x="763.5" y="1304.1387">LabelGenerator</text><line style="stroke: #000000; stroke-width: 1.5;" x1="753" x2="871" y1="1311.9688" y2="1311.9688"/><line style="stroke: #000000; stroke-width: 1.5;" x1="753" x2="871" y1="1319.9688" y2="1319.9688"/><text fill="#000000" font-family="sans-serif" font-size="11" lengthAdjust="spacingAndGlyphs" textLength="77" x="758" y="1334.1792">printLabelAll()</text><text fill="#000000" font-family="sans-serif" font-size="11" lengthAdjust="spacingAndGlyphs" textLength="107" x="758" y="1346.9839">printLabelProduct()</text><text fill="#000000" font-family="sans-serif" font-size="11" lengthAdjust="spacingAndGlyphs" textLength="108" x="758" y="1359.7886">generateBarCode()</text><text fill="#000000" font-family="sans-serif" font-size="11" lengthAdjust="spacingAndGlyphs" textLength="104" x="758" y="1372.5933">generateQRCode()</text><text fill="#000000" font-family="sans-serif" font-size="11" lengthAdjust="spacingAndGlyphs" textLength="40" x="758" y="1385.3979">setup()</text><!--class Distributor--><rect fill="url(#g1ws4frkcu2i950)" filter="url(#f1ws4frkcu2i95)" height="116.7969" id="Distributor" style="stroke: #000000; stroke-width: 1.5;" width="145" x="715.5" y="1515"/><text fill="#000000" font-family="sans-serif" font-size="12" lengthAdjust="spacingAndGlyphs" textLength="66" x="755" y="1531.1387">Distributor</text><line style="stroke: #000000; stroke-width: 1.5;" x1="716.5" x2="859.5" y1="1538.9688" y2="1538.9688"/><text fill="#000000" font-family="sans-serif" font-size="11" lengthAdjust="spacingAndGlyphs" textLength="84" x="721.5" y="1553.1792">companyName</text><text fill="#000000" font-family="sans-serif" font-size="11" lengthAdjust="spacingAndGlyphs" textLength="47" x="721.5" y="1565.9839">address</text><text fill="#000000" font-family="sans-serif" font-size="11" lengthAdjust="spacingAndGlyphs" textLength="83" x="721.5" y="1578.7886">contactPartner</text><text fill="#000000" font-family="sans-serif" font-size="11" lengthAdjust="spacingAndGlyphs" textLength="133" x="721.5" y="1591.5933">minimumOrderQuantity</text><text fill="#000000" font-family="sans-serif" font-size="11" lengthAdjust="spacingAndGlyphs" textLength="97" x="721.5" y="1604.3979">paymentMethods</text><text fill="#000000" font-family="sans-serif" font-size="11" lengthAdjust="spacingAndGlyphs" textLength="62" x="721.5" y="1617.2026">taxNumber</text><line style="stroke: #000000; stroke-width: 1.5;" x1="716.5" x2="859.5" y1="1623.7969" y2="1623.7969"/><!--class Order--><rect fill="url(#g1ws4frkcu2i950)" filter="url(#f1ws4frkcu2i95)" height="91.1875" id="Order" style="stroke: #000000; stroke-width: 1.5;" width="156" x="334" y="1528"/><text fill="#000000" font-family="sans-serif" font-size="12" lengthAdjust="spacingAndGlyphs" textLength="35" x="394.5" y="1544.1387">Order</text><line style="stroke: #000000; stroke-width: 1.5;" x1="335" x2="489" y1="1551.9688" y2="1551.9688"/><text fill="#000000" font-family="sans-serif" font-size="11" lengthAdjust="spacingAndGlyphs" textLength="10" x="340" y="1566.1792">id</text><text fill="#000000" font-family="sans-serif" font-size="11" lengthAdjust="spacingAndGlyphs" textLength="40" x="340" y="1578.9839">arrived</text><text fill="#000000" font-family="sans-serif" font-size="11" lengthAdjust="spacingAndGlyphs" textLength="42" x="340" y="1591.7886">content</text><line style="stroke: #000000; stroke-width: 1.5;" x1="335" x2="489" y1="1598.3828" y2="1598.3828"/><text fill="#000000" font-family="sans-serif" font-size="11" lengthAdjust="spacingAndGlyphs" textLength="144" x="340" y="1612.5933">placeContentInInventory()</text><!--class OrderAssistant--><rect fill="url(#g1ws4frkcu2i950)" filter="url(#f1ws4frkcu2i95)" height="65.5781" id="OrderAssistant" style="stroke: #000000; stroke-width: 1.5;" width="167" x="532.5" y="958"/><text fill="#000000" font-family="sans-serif" font-size="12" lengthAdjust="spacingAndGlyphs" textLength="93" x="569.5" y="974.1387">OrderAssistant</text><line style="stroke: #000000; stroke-width: 1.5;" x1="533.5" x2="698.5" y1="981.9688" y2="981.9688"/><line style="stroke: #000000; stroke-width: 1.5;" x1="533.5" x2="698.5" y1="989.9688" y2="989.9688"/><text fill="#000000" font-family="sans-serif" font-size="11" lengthAdjust="spacingAndGlyphs" textLength="155" x="538.5" y="1004.1792">getLowestPriceForProduct()</text><text fill="#000000" font-family="sans-serif" font-size="11" lengthAdjust="spacingAndGlyphs" textLength="39" x="538.5" y="1016.9839">order()</text><!--class Inventory--><rect fill="url(#g1ws4frkcu2i950)" filter="url(#f1ws4frkcu2i95)" height="65.5781" id="Inventory" style="stroke: #000000; stroke-width: 1.5;" width="170" x="327" y="958"/><text fill="#000000" font-family="sans-serif" font-size="12" lengthAdjust="spacingAndGlyphs" textLength="57" x="383.5" y="974.1387">Inventory</text><line style="stroke: #000000; stroke-width: 1.5;" x1="328" x2="496" y1="981.9688" y2="981.9688"/><text fill="#000000" font-family="sans-serif" font-size="11" lengthAdjust="spacingAndGlyphs" textLength="61" x="333" y="996.1792">profitValue</text><line style="stroke: #000000; stroke-width: 1.5;" x1="328" x2="496" y1="1002.7734" y2="1002.7734"/><text fill="#000000" font-family="sans-serif" font-size="11" lengthAdjust="spacingAndGlyphs" textLength="158" x="333" y="1016.9839">getValueOfStoredProducts()</text><!--class Log--><rect fill="url(#g1ws4frkcu2i950)" filter="url(#f1ws4frkcu2i95)" height="116.7969" id="Log" style="stroke: #000000; stroke-width: 1.5;" width="122" x="1267" y="414.5"/><text fill="#000000" font-family="sans-serif" font-size="12" lengthAdjust="spacingAndGlyphs" textLength="22" x="1317" y="430.6387">Log</text><line style="stroke: #000000; stroke-width: 1.5;" x1="1268" x2="1388" y1="438.4688" y2="438.4688"/><text fill="#000000" font-family="sans-serif" font-size="11" lengthAdjust="spacingAndGlyphs" textLength="31" x="1273" y="452.6792">sales</text><text fill="#000000" font-family="sans-serif" font-size="11" lengthAdjust="spacingAndGlyphs" textLength="60" x="1273" y="465.4839">purchases</text><text fill="#000000" font-family="sans-serif" font-size="11" lengthAdjust="spacingAndGlyphs" textLength="25" x="1273" y="478.2886">time</text><text fill="#000000" font-family="sans-serif" font-size="11" lengthAdjust="spacingAndGlyphs" textLength="59" x="1273" y="491.0933">soldWares</text><text fill="#000000" font-family="sans-serif" font-size="11" lengthAdjust="spacingAndGlyphs" textLength="110" x="1273" y="503.8979">purchasedProducts</text><text fill="#000000" font-family="sans-serif" font-size="11" lengthAdjust="spacingAndGlyphs" textLength="85" x="1273" y="516.7026">stolenProducts</text><line style="stroke: #000000; stroke-width: 1.5;" x1="1268" x2="1388" y1="523.2969" y2="523.2969"/><!--class Statistic--><rect fill="url(#g1ws4frkcu2i950)" filter="url(#f1ws4frkcu2i95)" height="65.5781" id="Statistic" style="stroke: #000000; stroke-width: 1.5;" width="119" x="1275.5" y="661"/><text fill="#000000" font-family="sans-serif" font-size="12" lengthAdjust="spacingAndGlyphs" textLength="51" x="1309.5" y="677.1387">Statistic</text><line style="stroke: #000000; stroke-width: 1.5;" x1="1276.5" x2="1393.5" y1="684.9688" y2="684.9688"/><line style="stroke: #000000; stroke-width: 1.5;" x1="1276.5" x2="1393.5" y1="692.9688" y2="692.9688"/><text fill="#000000" font-family="sans-serif" font-size="11" lengthAdjust="spacingAndGlyphs" textLength="65" x="1281.5" y="707.1792">getStatics()</text><text fill="#000000" font-family="sans-serif" font-size="11" lengthAdjust="spacingAndGlyphs" textLength="107" x="1281.5" y="719.9839">generateDiagram()</text><!--class ShoppingCart--><rect fill="url(#g1ws4frkcu2i950)" filter="url(#f1ws4frkcu2i95)" height="65.5781" id="ShoppingCart" style="stroke: #000000; stroke-width: 1.5;" width="98" x="1193" y="793"/><text fill="#000000" font-family="sans-serif" font-size="12" lengthAdjust="spacingAndGlyphs" textLength="85" x="1199.5" y="809.1387">ShoppingCart</text><line style="stroke: #000000; stroke-width: 1.5;" x1="1194" x2="1290" y1="816.9688" y2="816.9688"/><line style="stroke: #000000; stroke-width: 1.5;" x1="1194" x2="1290" y1="824.9688" y2="824.9688"/><text fill="#000000" font-family="sans-serif" font-size="11" lengthAdjust="spacingAndGlyphs" textLength="72" x="1199" y="839.1792">addProduct()</text><text fill="#000000" font-family="sans-serif" font-size="11" lengthAdjust="spacingAndGlyphs" textLength="86" x="1199" y="851.9839">deleteProduct()</text><!--class CashierSystem--><rect fill="url(#g1ws4frkcu2i950)" filter="url(#f1ws4frkcu2i95)" height="103.9922" id="CashierSystem" style="stroke: #000000; stroke-width: 1.5;" width="116" x="1193" y="1123"/><text fill="#000000" font-family="sans-serif" font-size="12" lengthAdjust="spacingAndGlyphs" textLength="92" x="1205" y="1139.1387">CashierSystem</text><line style="stroke: #000000; stroke-width: 1.5;" x1="1194" x2="1308" y1="1146.9688" y2="1146.9688"/><line style="stroke: #000000; stroke-width: 1.5;" x1="1194" x2="1308" y1="1154.9688" y2="1154.9688"/><text fill="#000000" font-family="sans-serif" font-size="11" lengthAdjust="spacingAndGlyphs" textLength="86" x="1199" y="1169.1792">calculatePrice()</text><text fill="#000000" font-family="sans-serif" font-size="11" lengthAdjust="spacingAndGlyphs" textLength="74" x="1199" y="1181.9839">giveChange()</text><text fill="#000000" font-family="sans-serif" font-size="11" lengthAdjust="spacingAndGlyphs" textLength="57" x="1199" y="1194.7886">cancelAll()</text><text fill="#000000" font-family="sans-serif" font-size="11" lengthAdjust="spacingAndGlyphs" textLength="87" x="1199" y="1207.5933">cancelProduct()</text><text fill="#000000" font-family="sans-serif" font-size="11" lengthAdjust="spacingAndGlyphs" textLength="104" x="1199" y="1220.3979">enterCustomerId()</text><!--class Database--><rect fill="url(#g1ws4frkcu2i950)" filter="url(#f1ws4frkcu2i95)" height="103.9922" id="Database" style="stroke: #000000; stroke-width: 1.5;" width="92" x="366" y="8"/><text fill="#000000" font-family="sans-serif" font-size="12" lengthAdjust="spacingAndGlyphs" textLength="61" x="381.5" y="24.1387">Database</text><line style="stroke: #000000; stroke-width: 1.5;" x1="367" x2="457" y1="31.9688" y2="31.9688"/><line style="stroke: #000000; stroke-width: 1.5;" x1="367" x2="457" y1="39.9688" y2="39.9688"/><text fill="#000000" font-family="sans-serif" font-size="11" lengthAdjust="spacingAndGlyphs" textLength="64" x="372" y="54.1792">getSorted()</text><text fill="#000000" font-family="sans-serif" font-size="11" lengthAdjust="spacingAndGlyphs" textLength="29" x="372" y="66.9839">add()</text><text fill="#000000" font-family="sans-serif" font-size="11" lengthAdjust="spacingAndGlyphs" textLength="43" x="372" y="79.7886">delete()</text><text fill="#000000" font-family="sans-serif" font-size="11" lengthAdjust="spacingAndGlyphs" textLength="80" x="372" y="92.5933">getSearched()</text><text fill="#000000" font-family="sans-serif" font-size="11" lengthAdjust="spacingAndGlyphs" textLength="68" x="372" y="105.3979">getFiltered()</text><!--link Person to Customer--><path d="M982.5179,287.601 C998.9282,324.4872 1019.4977,370.7223 1035.9901,407.7931 " fill="none" id="Person-Customer" style="stroke: #000000; stroke-width: 1.0;"/><polygon fill="none" points="976.0931,290.3807,974.3591,269.2621,988.8844,284.69,976.0931,290.3807" style="stroke: #000000; stroke-width: 1.0;"/><!--link Staff to Manager--><path d="M964.2454,1056.8406 C963.3917,1131.3217 962.0353,1249.6715 961.3796,1306.8818 " fill="none" id="Staff-Manager" style="stroke: #000000; stroke-width: 1.0;"/><polygon fill="none" points="957.2482,1056.5441,964.4771,1036.6257,971.2473,1056.7046,957.2482,1056.5441" style="stroke: #000000; stroke-width: 1.0;"/><!--link Customer to NormalCustomer--><path d="M1022.5795,555.964 C1000.7568,598.6438 975.9411,647.1772 962.3181,673.8203 " fill="none" id="Customer-NormalCustomer" style="stroke: #000000; stroke-width: 1.0;"/><polygon fill="none" points="1016.3698,552.7324,1031.7075,538.112,1028.8349,559.106,1016.3698,552.7324" style="stroke: #000000; stroke-width: 1.0;"/><!--link Customer to HouseCustomer--><path d="M1076.5342,557.9688 C1082.2609,600.1551 1088.7005,647.5935 1092.2607,673.8203 " fill="none" id="Customer-HouseCustomer" style="stroke: #000000; stroke-width: 1.0;"/><polygon fill="none" points="1069.5927,558.8718,1073.8387,538.112,1083.4655,556.9886,1069.5927,558.8718" style="stroke: #000000; stroke-width: 1.0;"/><!--link HouseCustomer to MajorCustomer--><path d="M1098.2747,734.5247 C1103.4819,798.9632 1113.4599,922.4412 1117.3706,970.8359 " fill="none" id="HouseCustomer-MajorCustomer" style="stroke: #000000; stroke-width: 1.0;"/><polygon fill="none" points="1091.2834,734.9129,1096.6496,714.414,1105.2379,733.7852,1091.2834,734.9129" style="stroke: #000000; stroke-width: 1.0;"/><!--link HouseCustomer to Staff--><path d="M1077.9126,733.0382 C1053.9397,787.8069 1010.4144,887.2457 984.9755,945.3638 " fill="none" id="HouseCustomer-Staff" style="stroke: #000000; stroke-width: 1.0;"/><polygon fill="none" points="1071.6323,729.9289,1086.0646,714.414,1084.4575,735.5426,1071.6323,729.9289" style="stroke: #000000; stroke-width: 1.0;"/><!--link UserList to Customer--><path d="M1065,263.2678 C1065,302.1558 1065,362.0442 1065,407.8846 " fill="none" id="UserList-Customer" style="stroke: #000000; stroke-width: 1.0;"/><polygon fill="#FFFFFF" points="1065,250.2009,1061,256.2009,1065,262.2009,1069,256.2009,1065,250.2009" style="stroke: #000000; stroke-width: 1.0;"/><text fill="#000000" font-family="sans-serif" font-size="13" lengthAdjust="spacingAndGlyphs" textLength="35" x="1066" y="343.0669">users</text><text fill="#000000" font-family="sans-serif" font-size="13" lengthAdjust="spacingAndGlyphs" textLength="8" x="1056.125" y="269.7885">1</text><text fill="#000000" font-family="sans-serif" font-size="13" lengthAdjust="spacingAndGlyphs" textLength="23" x="1040.7422" y="397.0382">0..*</text><!--link Database to UserList--><path d="M478.3754,64.4916 C612.9782,74.5202 912.8493,101.8079 1002,151 C1021.4179,161.7145 1037.6639,180.8646 1048.7926,196.7933 " fill="none" id="Database-UserList" style="stroke: #000000; stroke-width: 1.0;"/><polygon fill="none" points="477.6892,71.4603,458.249,63.0296,478.7036,57.4971,477.6892,71.4603" style="stroke: #000000; stroke-width: 1.0;"/><!--link OrderableProducts to DistributorList--><path d="M121,1011.0173 C121,1072.4293 121,1257.7411 121,1319.6278 " fill="none" id="OrderableProducts-DistributorList" style="stroke: #000000; stroke-width: 1.0;"/><text fill="#000000" font-family="sans-serif" font-size="13" lengthAdjust="spacingAndGlyphs" textLength="8" x="111.825" y="1031.1915">n</text><text fill="#000000" font-family="sans-serif" font-size="13" lengthAdjust="spacingAndGlyphs" textLength="8" x="111.875" y="1308.8787">1</text><!--link DistributorList to Distributor--><path d="M173.0755,1365.8952 C210.689,1383.8154 263.0895,1407.1926 311,1423 C484.6453,1480.292 546.6237,1436.9888 712,1515 C713.0541,1515.4973 714.1075,1516.0111 715.1592,1516.5401 " fill="none" id="DistributorList-Distributor" style="stroke: #000000; stroke-width: 1.0;"/><polygon fill="#FFFFFF" points="160.9144,1360.0459,164.5876,1366.2514,171.7285,1365.2474,168.0553,1359.042,160.9144,1360.0459" style="stroke: #000000; stroke-width: 1.0;"/><text fill="#000000" font-family="sans-serif" font-size="13" lengthAdjust="spacingAndGlyphs" textLength="8" x="163.0153" y="1379.8832">1</text><text fill="#000000" font-family="sans-serif" font-size="13" lengthAdjust="spacingAndGlyphs" textLength="23" x="684.384" y="1507.6801">0..*</text><!--link Database to DistributorList--><path d="M346.041,72.3827 C231.0494,95.8695 6,151.0856 6,223.5 C6,223.5 6,223.5 6,1175 C6,1236.6285 60.6647,1291.7091 94.6167,1319.9759 " fill="none" id="Database-DistributorList" style="stroke: #000000; stroke-width: 1.0;"/><polygon fill="none" points="344.8385,65.4847,365.8219,68.434,347.5793,79.2139,344.8385,65.4847" style="stroke: #000000; stroke-width: 1.0;"/><!--link Database to ProductList--><path d="M412,132.5177 C412,160.8956 412,193.723 412,223.5 C412,223.5 412,223.5 412,599.5 C412,625.0937 412,654.5865 412,673.7225 " fill="none" id="Database-ProductList" style="stroke: #000000; stroke-width: 1.0;"/><polygon fill="none" points="405.0001,132.2798,412,112.2798,419.0001,132.2798,405.0001,132.2798" style="stroke: #000000; stroke-width: 1.0;"/><!--link ProductList to Product--><path d="M451.0968,721.7687 C509.4879,763.5514 622.5123,845.6299 715,920 C723.5116,926.8442 732.3754,934.2316 740.995,941.5647 " fill="none" id="ProductList-Product" style="stroke: #000000; stroke-width: 1.0;"/><polygon fill="#FFFFFF" points="440.5079,714.2051,443.0652,720.9475,450.2726,721.1801,447.7152,714.4377,440.5079,714.2051" style="stroke: #000000; stroke-width: 1.0;"/><text fill="#000000" font-family="sans-serif" font-size="13" lengthAdjust="spacingAndGlyphs" textLength="8" x="439.4007" y="734.0871">1</text><text fill="#000000" font-family="sans-serif" font-size="13" lengthAdjust="spacingAndGlyphs" textLength="23" x="710.1897" y="932.0326">0..*</text><!--link Product to LabelGenerator--><path d="M800.6263,1075.372 C803.4721,1141.5834 807.3434,1231.6565 809.7559,1287.7865 " fill="none" id="Product-LabelGenerator" style="stroke: #000000; stroke-width: 1.0;"/><polygon fill="#000000" points="800.0536,1062.046,796.315,1068.2122,800.5689,1074.0349,804.3076,1067.8687,800.0536,1062.046" style="stroke: #000000; stroke-width: 1.0;"/><text fill="#000000" font-family="sans-serif" font-size="13" lengthAdjust="spacingAndGlyphs" textLength="8" x="791.9501" y="1082.6889">n</text><text fill="#000000" font-family="sans-serif" font-size="13" lengthAdjust="spacingAndGlyphs" textLength="8" x="800.9168" y="1276.8388">1</text><!--link ProductList to OrderableProducts--><path d="M377.9179,728.7848 C316.6224,791.3441 189.6232,920.9619 140.7568,970.8359 " fill="none" id="ProductList-OrderableProducts" style="stroke: #000000; stroke-width: 1.0;"/><polygon fill="none" points="373.0013,723.8007,391.9984,714.414,383.0013,733.5987,373.0013,723.8007" style="stroke: #000000; stroke-width: 1.0;"/><!--link Product to Distributor--><path d="M749.4134,1062.1787 C731.782,1095.0876 716,1135.5599 716,1175 C716,1175 716,1175 716,1453.5 C716,1470.8277 721.5883,1487.8144 729.6511,1503.3052 " fill="none" id="Product-Distributor" style="stroke: #000000; stroke-width: 1.0;"/><polygon fill="#000000" points="736.2476,1514.8404,736.7414,1507.6462,730.2905,1504.4234,729.7967,1511.6176,736.2476,1514.8404" style="stroke: #000000; stroke-width: 1.0;"/><text fill="#000000" font-family="sans-serif" font-size="13" lengthAdjust="spacingAndGlyphs" textLength="23" x="720.3201" y="1082.3452">1..*</text><text fill="#000000" font-family="sans-serif" font-size="13" lengthAdjust="spacingAndGlyphs" textLength="8" x="721.4528" y="1503.8646">1</text><!--link Inventory to Order--><path d="M412,1029.5793 C412,1066.8093 412,1124.7624 412,1175 C412,1175 412,1175 412,1453.5 C412,1478.0833 412,1505.4995 412,1527.9139 " fill="none" id="Inventory-Order" style="stroke: #000000; stroke-width: 1.0;"/><polygon fill="#000000" points="412,1024.2401,408,1033.2401,412,1029.2401,416,1033.2401,412,1024.2401" style="stroke: #000000; stroke-width: 1.0;"/><!--link OrderableProducts to OrderAssistant--><path d="M154.6353,968.1628 C221.2456,925.9273 374.166,843.9001 497.5,889.5 C534.3403,903.1208 567.4642,933.8747 589.2626,957.9832 " fill="none" id="OrderableProducts-OrderAssistant" style="stroke: #000000; stroke-width: 1.0;"/><polygon fill="#000000" points="150.3738,970.8855,160.1116,969.4106,154.5872,968.1935,155.8044,962.6691,150.3738,970.8855" style="stroke: #000000; stroke-width: 1.0;"/><!--link ProductList to Inventory--><path d="M412,734.4433 C412,793.6558 412,902.8445 412,957.703 " fill="none" id="ProductList-Inventory" style="stroke: #000000; stroke-width: 1.0;"/><polygon fill="none" points="405.0001,734.414,412,714.414,419.0001,734.414,405.0001,734.414" style="stroke: #000000; stroke-width: 1.0;"/><!--link OrderAssistant to Manager--><path d="M658.1228,1033.6112 C727.7228,1104.0181 865.281,1243.1713 928.199,1306.8187 " fill="none" id="OrderAssistant-Manager" style="stroke: #000000; stroke-width: 1.0;"/><polygon fill="#FFFFFF" points="648.7678,1024.1477,650.1412,1031.2268,657.204,1032.6818,655.8306,1025.6027,648.7678,1024.1477" style="stroke: #000000; stroke-width: 1.0;"/><text fill="#000000" font-family="sans-serif" font-size="13" lengthAdjust="spacingAndGlyphs" textLength="20" x="632.9656" y="1043.7601">0,1</text><text fill="#000000" font-family="sans-serif" font-size="13" lengthAdjust="spacingAndGlyphs" textLength="8" x="912.9538" y="1295.9311">1</text><!--link Log to Statistic--><path d="M1330.2754,544.8366 C1331.5119,583.8757 1332.9818,630.2821 1333.9499,660.8478 " fill="none" id="Log-Statistic" style="stroke: #000000; stroke-width: 1.0;"/><polygon fill="#000000" points="1329.8575,531.6437,1326.0495,537.7674,1330.2375,543.6377,1334.0455,537.514,1329.8575,531.6437" style="stroke: #000000; stroke-width: 1.0;"/><text fill="#000000" font-family="sans-serif" font-size="13" lengthAdjust="spacingAndGlyphs" textLength="8" x="1321.6098" y="551.3779">1</text><text fill="#000000" font-family="sans-serif" font-size="13" lengthAdjust="spacingAndGlyphs" textLength="8" x="1324.9557" y="649.9659">1</text><!--link Log to Customer--><path d="M1266.7396,473 C1215.7967,473 1164.8537,473 1113.9108,473 " fill="none" id="Log-Customer" style="stroke: #000000; stroke-width: 1.0;"/><polygon fill="#000000" points="1108.6621,473,1117.6621,477,1113.6621,473,1117.6621,469,1108.6621,473" style="stroke: #000000; stroke-width: 1.0;"/><!--link Log to ShoppingCart--><path d="M1297.3148,536.2891 C1282.9788,568.6601 1267.0999,609.1291 1258,647 C1246.0087,696.904 1242.8216,756.5839 1242.0752,792.8704 " fill="none" id="Log-ShoppingCart" style="stroke: #000000; stroke-width: 1.0;"/><polygon fill="#000000" points="1299.4178,531.5731,1292.0992,538.1639,1297.3815,536.1397,1299.4057,541.422,1299.4178,531.5731" style="stroke: #000000; stroke-width: 1.0;"/><!--link ShoppingCart to CashierSystem--><path d="M1243.1904,872.1617 C1244.8649,937.0939 1247.9066,1055.0465 1249.659,1122.9971 " fill="none" id="ShoppingCart-CashierSystem" style="stroke: #000000; stroke-width: 1.0;"/><polygon fill="#000000" points="1242.8548,859.1477,1239.0108,865.2488,1243.1642,871.1437,1247.0082,865.0426,1242.8548,859.1477" style="stroke: #000000; stroke-width: 1.0;"/><text fill="#000000" font-family="sans-serif" font-size="13" lengthAdjust="spacingAndGlyphs" textLength="8" x="1234.2749" y="878.7601">1</text><text fill="#000000" font-family="sans-serif" font-size="13" lengthAdjust="spacingAndGlyphs" textLength="8" x="1240.9413" y="1112.0777">1</text><!--link ShoppingCart to Product--><path d="M1192.9278,831.6009 C1120.8739,841.3624 983.7673,865.8661 880,920 C874.5097,922.8642 869.0696,926.153 863.7561,929.7115 " fill="none" id="ShoppingCart-Product" style="stroke: #000000; stroke-width: 1.0;"/><polygon fill="#000000" points="853.0518,937.3448,860.2593,937.1179,862.822,930.3775,855.6144,930.6044,853.0518,937.3448" style="stroke: #000000; stroke-width: 1.0;"/><text fill="#000000" font-family="sans-serif" font-size="13" lengthAdjust="spacingAndGlyphs" textLength="8" x="1177.1328" y="828.4296">1</text><text fill="#000000" font-family="sans-serif" font-size="13" lengthAdjust="spacingAndGlyphs" textLength="23" x="860.8625" y="927.3248">1..*</text><!--link Staff to CashierSystem--><path d="M1027.2387,1044.8957 C1035.3459,1050.9804 1043.7166,1056.8384 1052,1062 C1107.1934,1096.3923 1129.5134,1089.0828 1185,1123 C1187.6137,1124.5977 1190.2428,1126.2832 1192.867,1128.0313 " fill="none" id="Staff-CashierSystem" style="stroke: #000000; stroke-width: 1.0;"/><polygon fill="#FFFFFF" points="1016.7624,1036.8057,1019.0665,1043.6388,1026.2602,1044.14,1023.9561,1037.307,1016.7624,1036.8057" style="stroke: #000000; stroke-width: 1.0;"/><text fill="#000000" font-family="sans-serif" font-size="13" lengthAdjust="spacingAndGlyphs" textLength="8" x="1015.7775" y="1056.6979">n</text><text fill="#000000" font-family="sans-serif" font-size="13" lengthAdjust="spacingAndGlyphs" textLength="20" x="1164.9891" y="1118.8084">0,1</text><!--link Inventory to OrderableProducts--><path d="M326.8442,991 C282.6924,991 229.5309,991 188.2939,991 " fill="none" id="Inventory-OrderableProducts" style="stroke: #000000; stroke-width: 1.0;"/><polygon fill="#000000" points="183.0699,991,192.0699,995,188.0699,991,192.0699,987,183.0699,991" style="stroke: #000000; stroke-width: 1.0;"/><text fill="#000000" font-family="sans-serif" font-size="13" lengthAdjust="spacingAndGlyphs" textLength="103" x="201.5" y="969.0669">uses referenced</text><text fill="#000000" font-family="sans-serif" font-size="13" lengthAdjust="spacingAndGlyphs" textLength="76" x="217" y="984.1997">elements of</text><!--
@startuml
hide circle

skinparam class {
	BackgroundColor #GreenYellow/LightGoldenRodYellow
    BorderColor Black
    ArrowColor  Black
}

skinparam package {
    FontColor Grey
    BorderColor Green
    shadowing false
}

class Database{
    getSorted()
    add()
    delete()
    getSearched()
    getFiltered()
}

package UserDepartment {

class UserList{
    setUserType()
}

class Person{
    name
    address
    email
    phoneNr
}


class Customer{
    preferences
    discount
    id
    permissions
    getCatalog()
    setDiscount()
    getDiscount()
}

class Manager{
    resetLogin()
    orderProducts()
}


Person ^- - Customer


Staff ^- - Manager


Customer ^- - NormalCustomer
Customer ^- - HouseCustomer
HouseCustomer ^- - MajorCustomer
HouseCustomer ^- - Staff


class Staff{
    username
    password

    login()
    addNormalCustomer()
}


UserList "1" o- - "0..*" Customer: users
Database ^- - UserList



}






package ProductDepartment{
    class Product{
        description
        bnnInfo
        ean
        quantityStored
        quantityDisplayed
        price

        getPrice()
        getProductInfo()

    }

    class ProductList{

    }

    class DistributorList{

    }

    class OrderableProducts{

    }

    class LabelGenerator{
        printLabelAll()
        printLabelProduct()
        generateBarCode()
        generateQRCode()
        setup()
    }

    class Distributor{
        companyName
        address
        contactPartner
        minimumOrderQuantity
        paymentMethods
        taxNumber
    }

    OrderableProducts "n" - - "1" DistributorList
    DistributorList "1" o- - "0..*" Distributor

    Database ^- - DistributorList




    ProductList -up-^ Database
    ProductList "1" o- - "0..*" Product
    Product "n" *- - "1" LabelGenerator
    ProductList ^- - OrderableProducts

    Product "1..*" - -* "1" Distributor



    package InventoryDepartment{

        class Order{
            id
            arrived
            content

            placeContentInInventory()
        }

        class OrderAssistant{
            getLowestPriceForProduct()
            order()
        }

        class Inventory {
            profitValue

            getValueOfStoredProducts()
        }

        Order -up-> Inventory
        OrderableProducts <- - OrderAssistant
        ProductList ^- - Inventory
        OrderAssistant "0,1" o- - "1" Manager

    }

}

package DataDepartment {


    class Log{
        sales
        purchases
        time
        soldWares
        purchasedProducts
        stolenProducts


    }

    class Statistic{
        getStatics()
        generateDiagram()
    }

    Log "1" *- - "1" Statistic
    Log -right-> Customer


}

package FinancesDepartment {


    class ShoppingCart{
        addProduct()
        deleteProduct()

    }

    class CashierSystem{
        calculatePrice()
        giveChange()
        cancelAll()
        cancelProduct()
        enterCustomerId()
    }

    Log <- - ShoppingCart

    ShoppingCart "1" *- - "1" CashierSystem

    ShoppingCart "1" - -* "1..*" Product



}
Staff "n" o- - "0,1" CashierSystem
Inventory - -> OrderableProducts: uses referenced \nelements of

@enduml

PlantUML version 1.2018.12(Sun Oct 21 12:15:15 CEST 2018)
(GPL source distribution)
Java Runtime: OpenJDK Runtime Environment
JVM: OpenJDK 64-Bit Server VM
Java Version: 10.0.2+13-Debian-1
Operating System: Linux
OS Version: 4.18.0-parrot10-amd64
Default Encoding: UTF-8
Language: en
Country: US
--></g></svg>