<?xml version="1.0" encoding="UTF-8" standalone="no"?><svg xmlns="http://www.w3.org/2000/svg" xmlns:xlink="http://www.w3.org/1999/xlink" contentScriptType="application/ecmascript" contentStyleType="text/css" height="1505px" preserveAspectRatio="none" style="width:1771px;height:1505px;" version="1.1" viewBox="0 0 1771 1505" width="1771px" zoomAndPan="magnify"><defs><linearGradient id="gdiubiqfm2ok20" x1="0%" x2="100%" y1="0%" y2="100%"><stop offset="0%" stop-color="#ADFF2F"/><stop offset="100%" stop-color="#FAFAD2"/></linearGradient><filter height="300%" id="fdiubiqfm2ok2" width="300%" x="-1" y="-1"><feGaussianBlur result="blurOut" stdDeviation="2.0"/><feColorMatrix in="blurOut" result="blurOut2" type="matrix" values="0 0 0 0 0 0 0 0 0 0 0 0 0 0 0 0 0 0 .4 0"/><feOffset dx="4.0" dy="4.0" in="blurOut2" result="blurOut3"/><feBlend in="SourceGraphic" in2="blurOut3" mode="normal"/></filter></defs><g><!--cluster UserDepartment--><polygon fill="#FFFFFF" points="14,151.5,149,151.5,156,173.7969,303,173.7969,303,1493,14,1493,14,151.5" style="stroke: #008000; stroke-width: 1.5;"/><line style="stroke: #008000; stroke-width: 1.5;" x1="14" x2="156" y1="173.7969" y2="173.7969"/><text fill="#808080" font-family="sans-serif" font-size="14" font-weight="bold" lengthAdjust="spacingAndGlyphs" textLength="129" x="18" y="166.4951">UserDepartment</text><!--cluster ProductDepartment--><polygon fill="#FFFFFF" points="915,177,1075,177,1082,199.2969,1722,199.2969,1722,1304,915,1304,915,177" style="stroke: #008000; stroke-width: 1.5;"/><line style="stroke: #008000; stroke-width: 1.5;" x1="915" x2="1082" y1="199.2969" y2="199.2969"/><text fill="#808080" font-family="sans-serif" font-size="14" font-weight="bold" lengthAdjust="spacingAndGlyphs" textLength="154" x="919" y="191.9951">ProductDepartment</text><!--cluster InventoryDepartment--><polygon fill="#FFFFFF" points="1326,462,1497,462,1504,484.2969,1714,484.2969,1714,1284.5,1326,1284.5,1326,462" style="stroke: #008000; stroke-width: 1.5;"/><line style="stroke: #008000; stroke-width: 1.5;" x1="1326" x2="1504" y1="484.2969" y2="484.2969"/><text fill="#808080" font-family="sans-serif" font-size="14" font-weight="bold" lengthAdjust="spacingAndGlyphs" textLength="165" x="1330" y="476.9951">InventoryDepartment</text><!--cluster DataDepartment--><polygon fill="#FFFFFF" points="311,436.5,446,436.5,453,458.7969,456,458.7969,456,929,311,929,311,436.5" style="stroke: #008000; stroke-width: 1.5;"/><line style="stroke: #008000; stroke-width: 1.5;" x1="311" x2="453" y1="458.7969" y2="458.7969"/><text fill="#808080" font-family="sans-serif" font-size="14" font-weight="bold" lengthAdjust="spacingAndGlyphs" textLength="129" x="315" y="451.4951">DataDepartment</text><!--cluster FinancesDepartment--><polygon fill="#FFFFFF" points="464,651,633,651,640,673.2969,643,673.2969,643,1113,464,1113,464,651" style="stroke: #008000; stroke-width: 1.5;"/><line style="stroke: #008000; stroke-width: 1.5;" x1="464" x2="640" y1="673.2969" y2="673.2969"/><text fill="#808080" font-family="sans-serif" font-size="14" font-weight="bold" lengthAdjust="spacingAndGlyphs" textLength="163" x="468" y="665.9951">FinancesDepartment</text><!--class UserList--><rect fill="url(#gdiubiqfm2ok20)" filter="url(#fdiubiqfm2ok2)" height="52.7734" id="UserList" style="stroke: #000000; stroke-width: 1.5;" width="92" x="108" y="216.5"/><text fill="#000000" font-family="sans-serif" font-size="12" lengthAdjust="spacingAndGlyphs" textLength="50" x="129" y="232.6387">UserList</text><line style="stroke: #000000; stroke-width: 1.5;" x1="109" x2="199" y1="240.4688" y2="240.4688"/><line style="stroke: #000000; stroke-width: 1.5;" x1="109" x2="199" y1="248.4688" y2="248.4688"/><text fill="#000000" font-family="sans-serif" font-size="11" lengthAdjust="spacingAndGlyphs" textLength="80" x="114" y="262.6792">setUserType()</text><!--class Person--><rect fill="url(#gdiubiqfm2ok20)" filter="url(#fdiubiqfm2ok2)" height="91.1875" id="Person" style="stroke: #000000; stroke-width: 1.5;" width="60" x="235" y="197.5"/><text fill="#000000" font-family="sans-serif" font-size="12" lengthAdjust="spacingAndGlyphs" textLength="44" x="243" y="213.6387">Person</text><line style="stroke: #000000; stroke-width: 1.5;" x1="236" x2="294" y1="221.4688" y2="221.4688"/><text fill="#000000" font-family="sans-serif" font-size="11" lengthAdjust="spacingAndGlyphs" textLength="32" x="241" y="235.6792">name</text><text fill="#000000" font-family="sans-serif" font-size="11" lengthAdjust="spacingAndGlyphs" textLength="47" x="241" y="248.4839">address</text><text fill="#000000" font-family="sans-serif" font-size="11" lengthAdjust="spacingAndGlyphs" textLength="31" x="241" y="261.2886">email</text><text fill="#000000" font-family="sans-serif" font-size="11" lengthAdjust="spacingAndGlyphs" textLength="48" x="241" y="274.0933">phoneNr</text><line style="stroke: #000000; stroke-width: 1.5;" x1="236" x2="294" y1="280.6875" y2="280.6875"/><!--class Customer--><rect fill="url(#gdiubiqfm2ok20)" filter="url(#fdiubiqfm2ok2)" height="129.6016" id="Customer" style="stroke: #000000; stroke-width: 1.5;" width="87" x="194.5" y="476"/><text fill="#000000" font-family="sans-serif" font-size="12" lengthAdjust="spacingAndGlyphs" textLength="60" x="208" y="492.1387">Customer</text><line style="stroke: #000000; stroke-width: 1.5;" x1="195.5" x2="280.5" y1="499.9688" y2="499.9688"/><text fill="#000000" font-family="sans-serif" font-size="11" lengthAdjust="spacingAndGlyphs" textLength="69" x="200.5" y="514.1792">preferences</text><text fill="#000000" font-family="sans-serif" font-size="11" lengthAdjust="spacingAndGlyphs" textLength="48" x="200.5" y="526.9839">discount</text><text fill="#000000" font-family="sans-serif" font-size="11" lengthAdjust="spacingAndGlyphs" textLength="10" x="200.5" y="539.7886">id</text><text fill="#000000" font-family="sans-serif" font-size="11" lengthAdjust="spacingAndGlyphs" textLength="71" x="200.5" y="552.5933">permissions</text><line style="stroke: #000000; stroke-width: 1.5;" x1="195.5" x2="280.5" y1="559.1875" y2="559.1875"/><text fill="#000000" font-family="sans-serif" font-size="11" lengthAdjust="spacingAndGlyphs" textLength="69" x="200.5" y="573.3979">getCatalog()</text><text fill="#000000" font-family="sans-serif" font-size="11" lengthAdjust="spacingAndGlyphs" textLength="75" x="200.5" y="586.2026">setDiscount()</text><text fill="#000000" font-family="sans-serif" font-size="11" lengthAdjust="spacingAndGlyphs" textLength="75" x="200.5" y="599.0073">getDiscount()</text><!--class Manager--><rect fill="url(#gdiubiqfm2ok20)" filter="url(#fdiubiqfm2ok2)" height="65.5781" id="Manager" style="stroke: #000000; stroke-width: 1.5;" width="101" x="193.5" y="1419"/><text fill="#000000" font-family="sans-serif" font-size="12" lengthAdjust="spacingAndGlyphs" textLength="55" x="216.5" y="1435.1387">Manager</text><line style="stroke: #000000; stroke-width: 1.5;" x1="194.5" x2="293.5" y1="1442.9688" y2="1442.9688"/><line style="stroke: #000000; stroke-width: 1.5;" x1="194.5" x2="293.5" y1="1450.9688" y2="1450.9688"/><text fill="#000000" font-family="sans-serif" font-size="11" lengthAdjust="spacingAndGlyphs" textLength="68" x="199.5" y="1465.1792">resetLogin()</text><text fill="#000000" font-family="sans-serif" font-size="11" lengthAdjust="spacingAndGlyphs" textLength="89" x="199.5" y="1477.9839">orderProducts()</text><!--class Staff--><rect fill="url(#gdiubiqfm2ok20)" filter="url(#fdiubiqfm2ok2)" height="91.1875" id="Staff" style="stroke: #000000; stroke-width: 1.5;" width="138" x="157" y="1185.5"/><text fill="#000000" font-family="sans-serif" font-size="12" lengthAdjust="spacingAndGlyphs" textLength="29" x="211.5" y="1201.6387">Staff</text><line style="stroke: #000000; stroke-width: 1.5;" x1="158" x2="294" y1="1209.4688" y2="1209.4688"/><text fill="#000000" font-family="sans-serif" font-size="11" lengthAdjust="spacingAndGlyphs" textLength="58" x="163" y="1223.6792">username</text><text fill="#000000" font-family="sans-serif" font-size="11" lengthAdjust="spacingAndGlyphs" textLength="56" x="163" y="1236.4839">password</text><line style="stroke: #000000; stroke-width: 1.5;" x1="158" x2="294" y1="1243.0781" y2="1243.0781"/><text fill="#000000" font-family="sans-serif" font-size="11" lengthAdjust="spacingAndGlyphs" textLength="35" x="163" y="1257.2886">login()</text><text fill="#000000" font-family="sans-serif" font-size="11" lengthAdjust="spacingAndGlyphs" textLength="126" x="163" y="1270.0933">addNormalCustomer()</text><!--class NormalCustomer--><rect fill="url(#gdiubiqfm2ok20)" filter="url(#fdiubiqfm2ok2)" height="39.9688" id="NormalCustomer" style="stroke: #000000; stroke-width: 1.5;" width="110" x="183" y="868"/><text fill="#000000" font-family="sans-serif" font-size="12" lengthAdjust="spacingAndGlyphs" textLength="104" x="186" y="884.1387">NormalCustomer</text><line style="stroke: #000000; stroke-width: 1.5;" x1="184" x2="292" y1="891.9688" y2="891.9688"/><line style="stroke: #000000; stroke-width: 1.5;" x1="184" x2="292" y1="899.9688" y2="899.9688"/><!--class HouseCustomer--><rect fill="url(#gdiubiqfm2ok20)" filter="url(#fdiubiqfm2ok2)" height="39.9688" id="HouseCustomer" style="stroke: #000000; stroke-width: 1.5;" width="106" x="42" y="868"/><text fill="#000000" font-family="sans-serif" font-size="12" lengthAdjust="spacingAndGlyphs" textLength="100" x="45" y="884.1387">HouseCustomer</text><line style="stroke: #000000; stroke-width: 1.5;" x1="43" x2="147" y1="891.9688" y2="891.9688"/><line style="stroke: #000000; stroke-width: 1.5;" x1="43" x2="147" y1="899.9688" y2="899.9688"/><!--class MajorCustomer--><rect fill="url(#gdiubiqfm2ok20)" filter="url(#fdiubiqfm2ok2)" height="39.9688" id="MajorCustomer" style="stroke: #000000; stroke-width: 1.5;" width="100" x="22" y="1211"/><text fill="#000000" font-family="sans-serif" font-size="12" lengthAdjust="spacingAndGlyphs" textLength="94" x="25" y="1227.1387">MajorCustomer</text><line style="stroke: #000000; stroke-width: 1.5;" x1="23" x2="121" y1="1234.9688" y2="1234.9688"/><line style="stroke: #000000; stroke-width: 1.5;" x1="23" x2="121" y1="1242.9688" y2="1242.9688"/><!--class Product--><rect fill="url(#gdiubiqfm2ok20)" filter="url(#fdiubiqfm2ok2)" height="142.4063" id="Product" style="stroke: #000000; stroke-width: 1.5;" width="112" x="923" y="470"/><text fill="#000000" font-family="sans-serif" font-size="12" lengthAdjust="spacingAndGlyphs" textLength="49" x="954.5" y="486.1387">Product</text><line style="stroke: #000000; stroke-width: 1.5;" x1="924" x2="1034" y1="493.9688" y2="493.9688"/><text fill="#000000" font-family="sans-serif" font-size="11" lengthAdjust="spacingAndGlyphs" textLength="63" x="929" y="508.1792">description</text><text fill="#000000" font-family="sans-serif" font-size="11" lengthAdjust="spacingAndGlyphs" textLength="42" x="929" y="520.9839">bnnInfo</text><text fill="#000000" font-family="sans-serif" font-size="11" lengthAdjust="spacingAndGlyphs" textLength="21" x="929" y="533.7886">ean</text><text fill="#000000" font-family="sans-serif" font-size="11" lengthAdjust="spacingAndGlyphs" textLength="83" x="929" y="546.5933">quantityStored</text><text fill="#000000" font-family="sans-serif" font-size="11" lengthAdjust="spacingAndGlyphs" textLength="100" x="929" y="559.3979">quantityDisplayed</text><text fill="#000000" font-family="sans-serif" font-size="11" lengthAdjust="spacingAndGlyphs" textLength="28" x="929" y="572.2026">price</text><line style="stroke: #000000; stroke-width: 1.5;" x1="924" x2="1034" y1="578.7969" y2="578.7969"/><text fill="#000000" font-family="sans-serif" font-size="11" lengthAdjust="spacingAndGlyphs" textLength="54" x="929" y="593.0073">getPrice()</text><text fill="#000000" font-family="sans-serif" font-size="11" lengthAdjust="spacingAndGlyphs" textLength="90" x="929" y="605.812">getProductInfo()</text><!--class ProductList--><rect fill="url(#gdiubiqfm2ok20)" filter="url(#fdiubiqfm2ok2)" height="39.9688" id="ProductList" style="stroke: #000000; stroke-width: 1.5;" width="76" x="1378" y="223"/><text fill="#000000" font-family="sans-serif" font-size="12" lengthAdjust="spacingAndGlyphs" textLength="70" x="1381" y="239.1387">ProductList</text><line style="stroke: #000000; stroke-width: 1.5;" x1="1379" x2="1453" y1="246.9688" y2="246.9688"/><line style="stroke: #000000; stroke-width: 1.5;" x1="1379" x2="1453" y1="254.9688" y2="254.9688"/><!--class DistributorList--><rect fill="url(#gdiubiqfm2ok20)" filter="url(#fdiubiqfm2ok2)" height="39.9688" id="DistributorList" style="stroke: #000000; stroke-width: 1.5;" width="93" x="1225.5" y="868"/><text fill="#000000" font-family="sans-serif" font-size="12" lengthAdjust="spacingAndGlyphs" textLength="87" x="1228.5" y="884.1387">DistributorList</text><line style="stroke: #000000; stroke-width: 1.5;" x1="1226.5" x2="1317.5" y1="891.9688" y2="891.9688"/><line style="stroke: #000000; stroke-width: 1.5;" x1="1226.5" x2="1317.5" y1="899.9688" y2="899.9688"/><!--class OrderableProducts--><rect fill="url(#gdiubiqfm2ok20)" filter="url(#fdiubiqfm2ok2)" height="52.7734" id="OrderableProducts" style="stroke: #000000; stroke-width: 1.5;" width="124" x="1070" y="514.5"/><text fill="#000000" font-family="sans-serif" font-size="12" lengthAdjust="spacingAndGlyphs" textLength="118" x="1073" y="530.6387">OrderableProducts</text><line style="stroke: #000000; stroke-width: 1.5;" x1="1071" x2="1193" y1="538.4688" y2="538.4688"/><line style="stroke: #000000; stroke-width: 1.5;" x1="1071" x2="1193" y1="546.4688" y2="546.4688"/><text fill="#000000" font-family="sans-serif" font-size="11" lengthAdjust="spacingAndGlyphs" textLength="56" x="1076" y="560.6792">readBnn()</text><!--class LabelGenerator--><rect fill="url(#gdiubiqfm2ok20)" filter="url(#fdiubiqfm2ok2)" height="103.9922" id="LabelGenerator" style="stroke: #000000; stroke-width: 1.5;" width="120" x="1070" y="836"/><text fill="#000000" font-family="sans-serif" font-size="12" lengthAdjust="spacingAndGlyphs" textLength="97" x="1081.5" y="852.1387">LabelGenerator</text><line style="stroke: #000000; stroke-width: 1.5;" x1="1071" x2="1189" y1="859.9688" y2="859.9688"/><line style="stroke: #000000; stroke-width: 1.5;" x1="1071" x2="1189" y1="867.9688" y2="867.9688"/><text fill="#000000" font-family="sans-serif" font-size="11" lengthAdjust="spacingAndGlyphs" textLength="77" x="1076" y="882.1792">printLabelAll()</text><text fill="#000000" font-family="sans-serif" font-size="11" lengthAdjust="spacingAndGlyphs" textLength="107" x="1076" y="894.9839">printLabelProduct()</text><text fill="#000000" font-family="sans-serif" font-size="11" lengthAdjust="spacingAndGlyphs" textLength="108" x="1076" y="907.7886">generateBarCode()</text><text fill="#000000" font-family="sans-serif" font-size="11" lengthAdjust="spacingAndGlyphs" textLength="104" x="1076" y="920.5933">generateQRCode()</text><text fill="#000000" font-family="sans-serif" font-size="11" lengthAdjust="spacingAndGlyphs" textLength="40" x="1076" y="933.3979">setup()</text><!--class Distributor--><rect fill="url(#gdiubiqfm2ok20)" filter="url(#fdiubiqfm2ok2)" height="129.6016" id="Distributor" style="stroke: #000000; stroke-width: 1.5;" width="145" x="961.5" y="1166"/><text fill="#000000" font-family="sans-serif" font-size="12" lengthAdjust="spacingAndGlyphs" textLength="66" x="1001" y="1182.1387">Distributor</text><line style="stroke: #000000; stroke-width: 1.5;" x1="962.5" x2="1105.5" y1="1189.9688" y2="1189.9688"/><text fill="#000000" font-family="sans-serif" font-size="11" lengthAdjust="spacingAndGlyphs" textLength="84" x="967.5" y="1204.1792">companyName</text><text fill="#000000" font-family="sans-serif" font-size="11" lengthAdjust="spacingAndGlyphs" textLength="47" x="967.5" y="1216.9839">address</text><text fill="#000000" font-family="sans-serif" font-size="11" lengthAdjust="spacingAndGlyphs" textLength="83" x="967.5" y="1229.7886">contactPartner</text><text fill="#000000" font-family="sans-serif" font-size="11" lengthAdjust="spacingAndGlyphs" textLength="133" x="967.5" y="1242.5933">minimumOrderQuantity</text><text fill="#000000" font-family="sans-serif" font-size="11" lengthAdjust="spacingAndGlyphs" textLength="97" x="967.5" y="1255.3979">paymentMethods</text><text fill="#000000" font-family="sans-serif" font-size="11" lengthAdjust="spacingAndGlyphs" textLength="62" x="967.5" y="1268.2026">taxNumber</text><line style="stroke: #000000; stroke-width: 1.5;" x1="962.5" x2="1105.5" y1="1274.7969" y2="1274.7969"/><text fill="#000000" font-family="sans-serif" font-size="11" lengthAdjust="spacingAndGlyphs" textLength="67" x="967.5" y="1289.0073">sendEmail()</text><!--class Order--><rect fill="url(#gdiubiqfm2ok20)" filter="url(#fdiubiqfm2ok2)" height="91.1875" id="Order" style="stroke: #000000; stroke-width: 1.5;" width="156" x="1543" y="1185.5"/><text fill="#000000" font-family="sans-serif" font-size="12" lengthAdjust="spacingAndGlyphs" textLength="35" x="1603.5" y="1201.6387">Order</text><line style="stroke: #000000; stroke-width: 1.5;" x1="1544" x2="1698" y1="1209.4688" y2="1209.4688"/><text fill="#000000" font-family="sans-serif" font-size="11" lengthAdjust="spacingAndGlyphs" textLength="10" x="1549" y="1223.6792">id</text><text fill="#000000" font-family="sans-serif" font-size="11" lengthAdjust="spacingAndGlyphs" textLength="40" x="1549" y="1236.4839">arrived</text><text fill="#000000" font-family="sans-serif" font-size="11" lengthAdjust="spacingAndGlyphs" textLength="42" x="1549" y="1249.2886">content</text><line style="stroke: #000000; stroke-width: 1.5;" x1="1544" x2="1698" y1="1255.8828" y2="1255.8828"/><text fill="#000000" font-family="sans-serif" font-size="11" lengthAdjust="spacingAndGlyphs" textLength="144" x="1549" y="1270.0933">placeContentInInventory()</text><!--class OrderAssistant--><rect fill="url(#gdiubiqfm2ok20)" filter="url(#fdiubiqfm2ok2)" height="65.5781" id="OrderAssistant" style="stroke: #000000; stroke-width: 1.5;" width="167" x="1333.5" y="508"/><text fill="#000000" font-family="sans-serif" font-size="12" lengthAdjust="spacingAndGlyphs" textLength="93" x="1370.5" y="524.1387">OrderAssistant</text><line style="stroke: #000000; stroke-width: 1.5;" x1="1334.5" x2="1499.5" y1="531.9688" y2="531.9688"/><line style="stroke: #000000; stroke-width: 1.5;" x1="1334.5" x2="1499.5" y1="539.9688" y2="539.9688"/><text fill="#000000" font-family="sans-serif" font-size="11" lengthAdjust="spacingAndGlyphs" textLength="155" x="1339.5" y="554.1792">getLowestPriceForProduct()</text><text fill="#000000" font-family="sans-serif" font-size="11" lengthAdjust="spacingAndGlyphs" textLength="39" x="1339.5" y="566.9839">order()</text><!--class Inventory--><rect fill="url(#gdiubiqfm2ok20)" filter="url(#fdiubiqfm2ok2)" height="65.5781" id="Inventory" style="stroke: #000000; stroke-width: 1.5;" width="170" x="1536" y="508"/><text fill="#000000" font-family="sans-serif" font-size="12" lengthAdjust="spacingAndGlyphs" textLength="57" x="1592.5" y="524.1387">Inventory</text><line style="stroke: #000000; stroke-width: 1.5;" x1="1537" x2="1705" y1="531.9688" y2="531.9688"/><text fill="#000000" font-family="sans-serif" font-size="11" lengthAdjust="spacingAndGlyphs" textLength="61" x="1542" y="546.1792">profitValue</text><line style="stroke: #000000; stroke-width: 1.5;" x1="1537" x2="1705" y1="552.7734" y2="552.7734"/><text fill="#000000" font-family="sans-serif" font-size="11" lengthAdjust="spacingAndGlyphs" textLength="158" x="1542" y="566.9839">getValueOfStoredProducts()</text><!--class Log--><rect fill="url(#gdiubiqfm2ok20)" filter="url(#fdiubiqfm2ok2)" height="116.7969" id="Log" style="stroke: #000000; stroke-width: 1.5;" width="122" x="326" y="482.5"/><text fill="#000000" font-family="sans-serif" font-size="12" lengthAdjust="spacingAndGlyphs" textLength="22" x="376" y="498.6387">Log</text><line style="stroke: #000000; stroke-width: 1.5;" x1="327" x2="447" y1="506.4688" y2="506.4688"/><text fill="#000000" font-family="sans-serif" font-size="11" lengthAdjust="spacingAndGlyphs" textLength="31" x="332" y="520.6792">sales</text><text fill="#000000" font-family="sans-serif" font-size="11" lengthAdjust="spacingAndGlyphs" textLength="60" x="332" y="533.4839">purchases</text><text fill="#000000" font-family="sans-serif" font-size="11" lengthAdjust="spacingAndGlyphs" textLength="25" x="332" y="546.2886">time</text><text fill="#000000" font-family="sans-serif" font-size="11" lengthAdjust="spacingAndGlyphs" textLength="59" x="332" y="559.0933">soldWares</text><text fill="#000000" font-family="sans-serif" font-size="11" lengthAdjust="spacingAndGlyphs" textLength="110" x="332" y="571.8979">purchasedProducts</text><text fill="#000000" font-family="sans-serif" font-size="11" lengthAdjust="spacingAndGlyphs" textLength="85" x="332" y="584.7026">stolenProducts</text><line style="stroke: #000000; stroke-width: 1.5;" x1="327" x2="447" y1="591.2969" y2="591.2969"/><!--class Statistic--><rect fill="url(#gdiubiqfm2ok20)" filter="url(#fdiubiqfm2ok2)" height="65.5781" id="Statistic" style="stroke: #000000; stroke-width: 1.5;" width="119" x="328.5" y="855"/><text fill="#000000" font-family="sans-serif" font-size="12" lengthAdjust="spacingAndGlyphs" textLength="51" x="362.5" y="871.1387">Statistic</text><line style="stroke: #000000; stroke-width: 1.5;" x1="329.5" x2="446.5" y1="878.9688" y2="878.9688"/><line style="stroke: #000000; stroke-width: 1.5;" x1="329.5" x2="446.5" y1="886.9688" y2="886.9688"/><text fill="#000000" font-family="sans-serif" font-size="11" lengthAdjust="spacingAndGlyphs" textLength="65" x="334.5" y="901.1792">getStatics()</text><text fill="#000000" font-family="sans-serif" font-size="11" lengthAdjust="spacingAndGlyphs" textLength="107" x="334.5" y="913.9839">generateDiagram()</text><!--class ShoppingCart--><rect fill="url(#gdiubiqfm2ok20)" filter="url(#fdiubiqfm2ok2)" height="78.3828" id="ShoppingCart" style="stroke: #000000; stroke-width: 1.5;" width="98" x="481" y="697"/><text fill="#000000" font-family="sans-serif" font-size="12" lengthAdjust="spacingAndGlyphs" textLength="85" x="487.5" y="713.1387">ShoppingCart</text><line style="stroke: #000000; stroke-width: 1.5;" x1="482" x2="578" y1="720.9688" y2="720.9688"/><line style="stroke: #000000; stroke-width: 1.5;" x1="482" x2="578" y1="728.9688" y2="728.9688"/><text fill="#000000" font-family="sans-serif" font-size="11" lengthAdjust="spacingAndGlyphs" textLength="72" x="487" y="743.1792">addProduct()</text><text fill="#000000" font-family="sans-serif" font-size="11" lengthAdjust="spacingAndGlyphs" textLength="86" x="487" y="755.9839">deleteProduct()</text><text fill="#000000" font-family="sans-serif" font-size="11" lengthAdjust="spacingAndGlyphs" textLength="64" x="487" y="768.7886">basicSum()</text><!--class CashierSystem--><rect fill="url(#gdiubiqfm2ok20)" filter="url(#fdiubiqfm2ok2)" height="103.9922" id="CashierSystem" style="stroke: #000000; stroke-width: 1.5;" width="116" x="472" y="1001"/><text fill="#000000" font-family="sans-serif" font-size="12" lengthAdjust="spacingAndGlyphs" textLength="92" x="484" y="1017.1387">CashierSystem</text><line style="stroke: #000000; stroke-width: 1.5;" x1="473" x2="587" y1="1024.9688" y2="1024.9688"/><line style="stroke: #000000; stroke-width: 1.5;" x1="473" x2="587" y1="1032.9688" y2="1032.9688"/><text fill="#000000" font-family="sans-serif" font-size="11" lengthAdjust="spacingAndGlyphs" textLength="86" x="478" y="1047.1792">calculatePrice()</text><text fill="#000000" font-family="sans-serif" font-size="11" lengthAdjust="spacingAndGlyphs" textLength="74" x="478" y="1059.9839">giveChange()</text><text fill="#000000" font-family="sans-serif" font-size="11" lengthAdjust="spacingAndGlyphs" textLength="57" x="478" y="1072.7886">cancelAll()</text><text fill="#000000" font-family="sans-serif" font-size="11" lengthAdjust="spacingAndGlyphs" textLength="87" x="478" y="1085.5933">cancelProduct()</text><text fill="#000000" font-family="sans-serif" font-size="11" lengthAdjust="spacingAndGlyphs" textLength="104" x="478" y="1098.3979">enterCustomerId()</text><!--class Database--><rect fill="url(#gdiubiqfm2ok20)" filter="url(#fdiubiqfm2ok2)" height="103.9922" id="Database" style="stroke: #000000; stroke-width: 1.5;" width="92" x="1370" y="8.5"/><text fill="#000000" font-family="sans-serif" font-size="12" lengthAdjust="spacingAndGlyphs" textLength="61" x="1385.5" y="24.6387">Database</text><line style="stroke: #000000; stroke-width: 1.5;" x1="1371" x2="1461" y1="32.4688" y2="32.4688"/><line style="stroke: #000000; stroke-width: 1.5;" x1="1371" x2="1461" y1="40.4688" y2="40.4688"/><text fill="#000000" font-family="sans-serif" font-size="11" lengthAdjust="spacingAndGlyphs" textLength="64" x="1376" y="54.6792">getSorted()</text><text fill="#000000" font-family="sans-serif" font-size="11" lengthAdjust="spacingAndGlyphs" textLength="29" x="1376" y="67.4839">add()</text><text fill="#000000" font-family="sans-serif" font-size="11" lengthAdjust="spacingAndGlyphs" textLength="43" x="1376" y="80.2886">delete()</text><text fill="#000000" font-family="sans-serif" font-size="11" lengthAdjust="spacingAndGlyphs" textLength="80" x="1376" y="93.0933">getSearched()</text><text fill="#000000" font-family="sans-serif" font-size="11" lengthAdjust="spacingAndGlyphs" textLength="68" x="1376" y="105.8979">getFiltered()</text><!--link Person to Customer--><path d="M259.0516,308.653 C254.5504,358.3326 248.398,426.2364 243.907,475.8037 " fill="none" id="Person-Customer" style="stroke: #000000; stroke-width: 1.0;"/><polygon fill="none" points="252.0937,307.8709,260.8699,288.5842,266.0366,309.1343,252.0937,307.8709" style="stroke: #000000; stroke-width: 1.0;"/><!--link Staff to Manager--><path d="M231.3376,1296.5338 C234.6126,1336.7435 238.6677,1386.531 241.2929,1418.7623 " fill="none" id="Staff-Manager" style="stroke: #000000; stroke-width: 1.0;"/><polygon fill="none" points="224.3546,1297.0257,229.7078,1276.5234,238.3084,1295.8891,224.3546,1297.0257" style="stroke: #000000; stroke-width: 1.0;"/><!--link Customer to NormalCustomer--><path d="M238,626.4285 C238,706.882 238,821.7193 238,867.7644 " fill="none" id="Customer-NormalCustomer" style="stroke: #000000; stroke-width: 1.0;"/><polygon fill="none" points="231.0001,626.2681,238,606.268,245.0001,626.268,231.0001,626.2681" style="stroke: #000000; stroke-width: 1.0;"/><!--link Customer to HouseCustomer--><path d="M203.4264,624.8954 C170.2434,705.4164 122.4354,821.426 103.3391,867.7644 " fill="none" id="Customer-HouseCustomer" style="stroke: #000000; stroke-width: 1.0;"/><polygon fill="none" points="197.0104,622.0923,211.1028,606.268,209.9544,627.4266,197.0104,622.0923" style="stroke: #000000; stroke-width: 1.0;"/><!--link HouseCustomer to MajorCustomer--><path d="M92.2817,928.5376 C87.3419,1002.2052 77.0615,1155.5183 73.3627,1210.678 " fill="none" id="HouseCustomer-MajorCustomer" style="stroke: #000000; stroke-width: 1.0;"/><polygon fill="none" points="85.3076,927.9158,93.6301,908.429,99.2762,928.8526,85.3076,927.9158" style="stroke: #000000; stroke-width: 1.0;"/><!--link HouseCustomer to Staff--><path d="M109.9677,927.1903 C134.3855,991.124 182.6615,1117.5259 208.5799,1185.3886 " fill="none" id="HouseCustomer-Staff" style="stroke: #000000; stroke-width: 1.0;"/><polygon fill="none" points="103.3989,929.6103,102.8023,908.429,116.4775,924.6152,103.3989,929.6103" style="stroke: #000000; stroke-width: 1.0;"/><!--link UserList to Customer--><path d="M165.0828,282.3175 C178.9828,331.6296 203.009,416.8654 219.6647,475.9533 " fill="none" id="UserList-Customer" style="stroke: #000000; stroke-width: 1.0;"/><polygon fill="#FFFFFF" points="161.5284,269.7078,159.3063,276.568,164.7842,281.2577,167.0063,274.3975,161.5284,269.7078" style="stroke: #000000; stroke-width: 1.0;"/><text fill="#000000" font-family="sans-serif" font-size="13" lengthAdjust="spacingAndGlyphs" textLength="35" x="190" y="362.5669">users</text><text fill="#000000" font-family="sans-serif" font-size="13" lengthAdjust="spacingAndGlyphs" textLength="8" x="154.3002" y="289.297">1</text><text fill="#000000" font-family="sans-serif" font-size="13" lengthAdjust="spacingAndGlyphs" textLength="23" x="193.4015" y="465.1145">0..*</text><!--link Database to UserList--><path d="M1349.7105,62.2102 C1112.5985,68.7785 315.4395,94.9041 217,151.5 C191.9197,165.9195 174.601,194.8552 164.559,216.3453 " fill="none" id="Database-UserList" style="stroke: #000000; stroke-width: 1.0;"/><polygon fill="none" points="1349.7453,55.2067,1369.9283,61.6602,1350.1261,69.2015,1349.7453,55.2067" style="stroke: #000000; stroke-width: 1.0;"/><!--link OrderableProducts to DistributorList--><path d="M1142.7531,567.6523 C1169.7733,634.6237 1240.0545,808.8208 1263.9279,867.9927 " fill="none" id="OrderableProducts-DistributorList" style="stroke: #000000; stroke-width: 1.0;"/><text fill="#000000" font-family="sans-serif" font-size="13" lengthAdjust="spacingAndGlyphs" textLength="8" x="1136.2303" y="587.2293">n</text><text fill="#000000" font-family="sans-serif" font-size="13" lengthAdjust="spacingAndGlyphs" textLength="8" x="1252.3817" y="857.0034">1</text><!--link DistributorList to Distributor--><path d="M1250.2561,919.3368 C1211.6272,975.0079 1130.296,1092.2205 1079.1224,1165.9707 " fill="none" id="DistributorList-Distributor" style="stroke: #000000; stroke-width: 1.0;"/><polygon fill="#FFFFFF" points="1257.8248,908.429,1251.118,911.0782,1250.9838,918.288,1257.6906,915.6389,1257.8248,908.429" style="stroke: #000000; stroke-width: 1.0;"/><text fill="#000000" font-family="sans-serif" font-size="13" lengthAdjust="spacingAndGlyphs" textLength="8" x="1244.9402" y="928.0239">1</text><text fill="#000000" font-family="sans-serif" font-size="13" lengthAdjust="spacingAndGlyphs" textLength="23" x="1059.7998" y="1155.1338">0..*</text><!--link Database to DistributorList--><path d="M1482.2672,66.2521 C1581.9636,78.942 1759,118.9417 1759,243 C1759,243 1759,243 1759,736 C1759,827.6711 1440.5878,870.4741 1318.6956,883.5011 " fill="none" id="Database-DistributorList" style="stroke: #000000; stroke-width: 1.0;"/><polygon fill="none" points="1481.322,73.1895,1462.2585,63.9383,1482.9303,59.2822,1481.322,73.1895" style="stroke: #000000; stroke-width: 1.0;"/><!--link Database to ProductList--><path d="M1416,132.9154 C1416,165.3294 1416,201.0585 1416,222.7638 " fill="none" id="Database-ProductList" style="stroke: #000000; stroke-width: 1.0;"/><polygon fill="none" points="1409.0001,132.7972,1416,112.7972,1423.0001,132.7971,1409.0001,132.7972" style="stroke: #000000; stroke-width: 1.0;"/><!--link ProductList to Product--><path d="M1409.025,276.1824 C1397.8731,328.883 1376.9745,426.0624 1374,428.5 C1360.2025,439.8072 1068.7417,428.1081 1053,436.5 C1038.2872,444.3434 1025.8437,456.5603 1015.6026,469.915 " fill="none" id="ProductList-Product" style="stroke: #000000; stroke-width: 1.0;"/><polygon fill="#FFFFFF" points="1411.7615,263.219,1406.6085,268.2635,1409.283,274.9603,1414.436,269.9158,1411.7615,263.219" style="stroke: #000000; stroke-width: 1.0;"/><text fill="#000000" font-family="sans-serif" font-size="13" lengthAdjust="spacingAndGlyphs" textLength="8" x="1401.4444" y="283.1049">1</text><text fill="#000000" font-family="sans-serif" font-size="13" lengthAdjust="spacingAndGlyphs" textLength="23" x="995.1913" y="458.8637">0..*</text><!--link Product to LabelGenerator--><path d="M1033.488,623.7694 C1036.8598,629.8539 1040.0695,635.97 1043,642 C1074.2851,706.3755 1100.0927,784.9939 1115.267,835.7522 " fill="none" id="Product-LabelGenerator" style="stroke: #000000; stroke-width: 1.0;"/><polygon fill="#000000" points="1026.8347,612.1386,1026.3419,619.3328,1032.7932,622.5548,1033.286,615.3605,1026.8347,612.1386" style="stroke: #000000; stroke-width: 1.0;"/><text fill="#000000" font-family="sans-serif" font-size="13" lengthAdjust="spacingAndGlyphs" textLength="8" x="1023.3552" y="632.301">n</text><text fill="#000000" font-family="sans-serif" font-size="13" lengthAdjust="spacingAndGlyphs" textLength="8" x="1104.7498" y="824.7999">1</text><!--link ProductList to OrderableProducts--><path d="M1422.6476,283.3046 C1427.1224,325.7375 1426.4377,391.4225 1388,428.5 C1376.7314,439.3699 1332.8969,431.6815 1318,436.5 C1262.4948,454.4535 1204.8835,489.8705 1168.7671,514.467 " fill="none" id="ProductList-OrderableProducts" style="stroke: #000000; stroke-width: 1.0;"/><polygon fill="none" points="1415.6778,283.9955,1419.9672,263.2445,1429.5545,282.1412,1415.6778,283.9955" style="stroke: #000000; stroke-width: 1.0;"/><!--link Product to Distributor--><path d="M1009.2352,612.346 C1022.0155,648.6842 1034,693.9659 1034,736 C1034,736 1034,736 1034,1053 C1034,1085.5723 1034,1121.4972 1034,1152.4925 " fill="none" id="Product-Distributor" style="stroke: #000000; stroke-width: 1.0;"/><polygon fill="#000000" points="1034,1165.902,1038,1159.902,1034,1153.902,1030,1159.902,1034,1165.902" style="stroke: #000000; stroke-width: 1.0;"/><text fill="#000000" font-family="sans-serif" font-size="13" lengthAdjust="spacingAndGlyphs" textLength="23" x="988.1673" y="632.5298">1..*</text><text fill="#000000" font-family="sans-serif" font-size="13" lengthAdjust="spacingAndGlyphs" textLength="8" x="1025.5625" y="1155.0575">1</text><!--link Inventory to Order--><path d="M1621,579.2728 C1621,618.5913 1621,681.5688 1621,736 C1621,736 1621,736 1621,1053 C1621,1097.9635 1621,1149.3159 1621,1185.2702 " fill="none" id="Inventory-Order" style="stroke: #000000; stroke-width: 1.0;"/><polygon fill="#000000" points="1621,574.1229,1617,583.1229,1621,579.1229,1625,583.1229,1621,574.1229" style="stroke: #000000; stroke-width: 1.0;"/><!--link OrderableProducts to OrderAssistant--><path d="M1199.236,541 C1243.9572,541 1288.6784,541 1333.3995,541 " fill="none" id="OrderableProducts-OrderAssistant" style="stroke: #000000; stroke-width: 1.0;"/><polygon fill="#000000" points="1194.0654,541,1203.0654,545,1199.0654,541,1203.0654,537,1194.0654,541" style="stroke: #000000; stroke-width: 1.0;"/><!--link ProductList to Inventory--><path d="M1441.1769,279.5987 C1481.4142,338.0899 1559.6052,451.753 1598.252,507.9321 " fill="none" id="ProductList-Inventory" style="stroke: #000000; stroke-width: 1.0;"/><polygon fill="none" points="1435.3371,283.4603,1429.7689,263.0153,1446.8714,275.5256,1435.3371,283.4603" style="stroke: #000000; stroke-width: 1.0;"/><!--link OrderAssistant to Manager--><path d="M1372.1928,582.4666 C1359.2278,593.0667 1344.6135,603.7781 1330,612 C1186.1717,692.9209 980,570.9704 980,736 C980,736 980,736 980,970.5 C980,1036.654 975.1982,1058.9885 937,1113 C927.4529,1126.4995 917.5592,1122.2766 907,1135 C836.7961,1219.5929 873.7991,1276.5247 800,1358 C782.1926,1377.6596 774.0498,1380.2757 749,1389 C665.7709,1417.9868 405.5738,1440.0551 294.7753,1448.3842 " fill="none" id="OrderAssistant-Manager" style="stroke: #000000; stroke-width: 1.0;"/><polygon fill="#FFFFFF" points="1382.2054,574.0391,1375.0392,574.8426,1373.0246,581.7666,1380.1908,580.9631,1382.2054,574.0391" style="stroke: #000000; stroke-width: 1.0;"/><text fill="#000000" font-family="sans-serif" font-size="13" lengthAdjust="spacingAndGlyphs" textLength="20" x="1353.9464" y="593.6315">0,1</text><text fill="#000000" font-family="sans-serif" font-size="13" lengthAdjust="spacingAndGlyphs" textLength="8" x="302.4781" y="1443.9269">1</text><!--link Log to Statistic--><path d="M387.2082,613.2316 C387.4216,687.3039 387.7443,799.2649 387.9038,854.6076 " fill="none" id="Log-Statistic" style="stroke: #000000; stroke-width: 1.0;"/><polygon fill="#000000" points="387.1696,599.8638,383.187,605.8753,387.2043,611.8637,391.1869,605.8522,387.1696,599.8638" style="stroke: #000000; stroke-width: 1.0;"/><text fill="#000000" font-family="sans-serif" font-size="13" lengthAdjust="spacingAndGlyphs" textLength="8" x="378.7507" y="619.2076">1</text><text fill="#000000" font-family="sans-serif" font-size="13" lengthAdjust="spacingAndGlyphs" textLength="8" x="379.123" y="843.9322">1</text><!--link Log to Customer--><path d="M325.6844,541 C312.727,541 299.7697,541 286.8123,541 " fill="none" id="Log-Customer" style="stroke: #000000; stroke-width: 1.0;"/><polygon fill="#000000" points="281.6523,541,290.6523,545,286.6523,541,290.6523,537,281.6523,541" style="stroke: #000000; stroke-width: 1.0;"/><!--link Log to ShoppingCart--><path d="M432.9102,603.6048 C455.4055,634.2802 481.7938,670.2643 501.3774,696.9691 " fill="none" id="Log-ShoppingCart" style="stroke: #000000; stroke-width: 1.0;"/><polygon fill="#000000" points="429.9047,599.5064,432.0014,609.1295,432.8616,603.5384,438.4526,604.3985,429.9047,599.5064" style="stroke: #000000; stroke-width: 1.0;"/><!--link ShoppingCart to CashierSystem--><path d="M530,788.2329 C530,847.0169 530,941.9575 530,1000.749 " fill="none" id="ShoppingCart-CashierSystem" style="stroke: #000000; stroke-width: 1.0;"/><polygon fill="#000000" points="530,775.1884,526,781.1884,530,787.1884,534,781.1884,530,775.1884" style="stroke: #000000; stroke-width: 1.0;"/><text fill="#000000" font-family="sans-serif" font-size="13" lengthAdjust="spacingAndGlyphs" textLength="8" x="521.2875" y="795.5494">1</text><text fill="#000000" font-family="sans-serif" font-size="13" lengthAdjust="spacingAndGlyphs" textLength="8" x="521.4625" y="989.7963">1</text><!--link ShoppingCart to Product--><path d="M574.7053,696.9929 C594.6054,681.0933 618.9473,663.542 643,651 C730.3043,605.4763 840.1236,573.8135 909.9629,556.5152 " fill="none" id="ShoppingCart-Product" style="stroke: #000000; stroke-width: 1.0;"/><polygon fill="#000000" points="922.9512,553.3498,916.1747,550.8843,911.2925,556.1913,918.069,558.6568,922.9512,553.3498" style="stroke: #000000; stroke-width: 1.0;"/><text fill="#000000" font-family="sans-serif" font-size="13" lengthAdjust="spacingAndGlyphs" textLength="8" x="573.7015" y="686.0449">1</text><text fill="#000000" font-family="sans-serif" font-size="13" lengthAdjust="spacingAndGlyphs" textLength="23" x="892.1409" y="550.9616">1..*</text><!--link Staff to CashierSystem--><path d="M306.7613,1183.7121 C358.6856,1153.3091 424.9428,1114.5138 471.7454,1087.1096 " fill="none" id="Staff-CashierSystem" style="stroke: #000000; stroke-width: 1.0;"/><polygon fill="#FFFFFF" points="295.2408,1190.4577,302.4397,1190.8778,305.5962,1184.3943,298.3974,1183.9742,295.2408,1190.4577" style="stroke: #000000; stroke-width: 1.0;"/><text fill="#000000" font-family="sans-serif" font-size="13" lengthAdjust="spacingAndGlyphs" textLength="8" x="302.7938" y="1182.5674">n</text><text fill="#000000" font-family="sans-serif" font-size="13" lengthAdjust="spacingAndGlyphs" textLength="20" x="443.8535" y="1087.2614">0,1</text><!--link Inventory to OrderableProducts--><path d="M1598.5402,507.9879 C1580.0125,483.6938 1551.405,452.2619 1518,436.5 C1466.7855,412.3349 1316.4065,403.3065 1263.5,423.5 C1218.2443,440.7733 1178.6986,481.5775 1155.0915,510.2285 " fill="none" id="Inventory-OrderableProducts" style="stroke: #000000; stroke-width: 1.0;"/><polygon fill="#000000" points="1151.7253,514.3632,1160.5095,509.9092,1154.8821,510.4857,1154.3055,504.8583,1151.7253,514.3632" style="stroke: #000000; stroke-width: 1.0;"/><text fill="#000000" font-family="sans-serif" font-size="13" lengthAdjust="spacingAndGlyphs" textLength="103" x="1264.5" y="409.5669">uses referenced</text><text fill="#000000" font-family="sans-serif" font-size="13" lengthAdjust="spacingAndGlyphs" textLength="76" x="1280" y="424.6997">elements of</text><!--link OrderableProducts to Manager--><path d="M1104.0449,571.6966 C1089.9128,585.6671 1071.7962,601.4077 1053,612 C1012.9463,634.5716 988.2269,611.3032 954,642 C780.194,797.8801 774,902.0324 774,1135.5 C774,1135.5 774,1135.5 774,1357.5 C774,1405.8682 427.4734,1437.8023 294.8186,1448.255 " fill="none" id="OrderableProducts-Manager" style="stroke: #000000; stroke-width: 1.0;"/><polygon fill="#000000" points="1107.9225,567.8089,1098.7347,571.3563,1104.3915,571.349,1104.3989,577.0059,1107.9225,567.8089" style="stroke: #000000; stroke-width: 1.0;"/><text fill="#000000" font-family="sans-serif" font-size="13" lengthAdjust="spacingAndGlyphs" textLength="151" x="777" y="1057.5669">adds/removes products</text><!--link Distributor to Person--><path d="M948.4861,1218.3334 C880.7081,1203.972 788.1893,1174.0629 731,1113 C685.5994,1064.5243 686,1036.9162 686,970.5 C686,358 686,358 686,358 C686,276.9282 391.8088,251.0373 295.2773,244.724 " fill="none" id="Distributor-Person" style="stroke: #000000; stroke-width: 1.0;"/><polygon fill="#000000" points="961.2664,1220.9206,956.1794,1215.8096,949.505,1218.5396,954.592,1223.6506,961.2664,1220.9206" style="stroke: #000000; stroke-width: 1.0;"/><text fill="#000000" font-family="sans-serif" font-size="13" lengthAdjust="spacingAndGlyphs" textLength="98" x="687" y="740.5669">Contact person</text><text fill="#000000" font-family="sans-serif" font-size="13" lengthAdjust="spacingAndGlyphs" textLength="8" x="945.3532" y="1216.202">n</text><text fill="#000000" font-family="sans-serif" font-size="13" lengthAdjust="spacingAndGlyphs" textLength="8" x="303.2039" y="240.4489">1</text><!--
@startuml
hide circle

skinparam class {
	BackgroundColor #GreenYellow/LightGoldenRodYellow
    BorderColor Black
    ArrowColor  Black
}

skinparam package {
    FontColor Grey
    BorderColor Green
    shadowing false
}

class Database{
    getSorted()
    add()
    delete()
    getSearched()
    getFiltered()
}

package UserDepartment {

class UserList{
    setUserType()
}

class Person{
    name
    address
    email
    phoneNr
}


class Customer{
    preferences
    discount
    id
    permissions
    getCatalog()
    setDiscount()
    getDiscount()
}

class Manager{
    resetLogin()
    orderProducts()
}


Person ^- - Customer


Staff ^- - Manager


Customer ^- - NormalCustomer
Customer ^- - HouseCustomer
HouseCustomer ^- - MajorCustomer
HouseCustomer ^- - Staff


class Staff{
    username
    password

    login()
    addNormalCustomer()
}


UserList "1" o- - "0..*" Customer: users
Database ^- - UserList



}






package ProductDepartment{
    class Product{
        description
        bnnInfo
        ean
        quantityStored
        quantityDisplayed
        price

        getPrice()
        getProductInfo()

    }

    class ProductList{

    }

    class DistributorList{

    }

    class OrderableProducts{
        readBnn()
    }

    class LabelGenerator{
        printLabelAll()
        printLabelProduct()
        generateBarCode()
        generateQRCode()
        setup()
    }

    class Distributor{
        companyName
        address
        contactPartner
        minimumOrderQuantity
        paymentMethods
        taxNumber

        sendEmail()
    }

    OrderableProducts "n" - - "1" DistributorList
    DistributorList "1" o- - "0..*" Distributor

    Database ^- - DistributorList




    ProductList -up-^ Database
    ProductList "1" o- - "0..*" Product
    Product "n" *- - "1" LabelGenerator
    ProductList ^- - OrderableProducts

    Product "1..*" - -* "1" Distributor



    package InventoryDepartment{

        class Order{
            id
            arrived
            content

            placeContentInInventory()
        }

        class OrderAssistant{
            getLowestPriceForProduct()
            order()
        }

        class Inventory {
            profitValue

            getValueOfStoredProducts()
        }

        Order -up-> Inventory
        OrderableProducts <- - OrderAssistant
        ProductList ^- - Inventory
        OrderAssistant "0,1" o- - "1" Manager

    }

}

package DataDepartment {


    class Log{
        sales
        purchases
        time
        soldWares
        purchasedProducts
        stolenProducts


    }

    class Statistic{
        getStatics()
        generateDiagram()
    }

    Log "1" *- - "1" Statistic
    Log -right-> Customer


}

package FinancesDepartment {


    class ShoppingCart{
        addProduct()
        deleteProduct()
        basicSum()

    }

    class CashierSystem{
        calculatePrice()
        giveChange()
        cancelAll()
        cancelProduct()
        enterCustomerId()
    }

    Log <- - ShoppingCart

    ShoppingCart "1" *- - "1" CashierSystem

    ShoppingCart "1" - -* "1..*" Product



}
Staff "n" o- - "0,1" CashierSystem
Inventory - -> OrderableProducts: uses referenced \nelements of
Manager -up-> OrderableProducts: adds/removes products
Distributor "n" *-down- "1" Person: Contact person

@enduml

PlantUML version 1.2018.12(Sun Oct 21 12:15:15 CEST 2018)
(GPL source distribution)
Java Runtime: OpenJDK Runtime Environment
JVM: OpenJDK 64-Bit Server VM
Java Version: 11+28-Ubuntu-3ubuntu2
Operating System: Linux
OS Version: 4.18.0-10-generic
Default Encoding: UTF-8
Language: de
Country: DE
--></g></svg>