<?xml version="1.0" encoding="UTF-8" standalone="no"?><svg xmlns="http://www.w3.org/2000/svg" xmlns:xlink="http://www.w3.org/1999/xlink" contentScriptType="application/ecmascript" contentStyleType="text/css" height="1176px" preserveAspectRatio="none" style="width:1422px;height:1176px;" version="1.1" viewBox="0 0 1422 1176" width="1422px" zoomAndPan="magnify"><defs><filter height="300%" id="fx03e1jua4n2u" width="300%" x="-1" y="-1"><feGaussianBlur result="blurOut" stdDeviation="2.0"/><feColorMatrix in="blurOut" result="blurOut2" type="matrix" values="0 0 0 0 0 0 0 0 0 0 0 0 0 0 0 0 0 0 .4 0"/><feOffset dx="4.0" dy="4.0" in="blurOut2" result="blurOut3"/><feBlend in="SourceGraphic" in2="blurOut3" mode="normal"/></filter><linearGradient id="gx03e1jua4n2u0" x1="0%" x2="100%" y1="0%" y2="100%"><stop offset="0%" stop-color="#ADFF2F"/><stop offset="100%" stop-color="#FAFAD2"/></linearGradient></defs><g><!--cluster UserResort--><polygon fill="#FFFFFF" points="14,370,109,370,116,392.2969,521,392.2969,521,1164,14,1164,14,370" style="stroke: #008000; stroke-width: 1.5;"/><line style="stroke: #008000; stroke-width: 1.5;" x1="14" x2="116" y1="392.2969" y2="392.2969"/><text fill="#808080" font-family="sans-serif" font-size="14" font-weight="bold" lengthAdjust="spacingAndGlyphs" textLength="89" x="18" y="384.9951">UserResort</text><!--cluster ProductResort--><polygon fill="#FFFFFF" points="533,382.5,653,382.5,660,404.7969,1265,404.7969,1265,1034,533,1034,533,382.5" style="stroke: #008000; stroke-width: 1.5;"/><line style="stroke: #008000; stroke-width: 1.5;" x1="533" x2="660" y1="404.7969" y2="404.7969"/><text fill="#808080" font-family="sans-serif" font-size="14" font-weight="bold" lengthAdjust="spacingAndGlyphs" textLength="114" x="537" y="397.4951">ProductResort</text><!--cluster InventoryResort--><polygon fill="#FFFFFF" points="541,736,674,736,681,758.2969,929,758.2969,929,1026,541,1026,541,736" style="stroke: #008000; stroke-width: 1.5;"/><line style="stroke: #008000; stroke-width: 1.5;" x1="541" x2="681" y1="758.2969" y2="758.2969"/><text fill="#808080" font-family="sans-serif" font-size="14" font-weight="bold" lengthAdjust="spacingAndGlyphs" textLength="127" x="545" y="750.9951">InventoryResort</text><!--cluster DataResort--><polygon fill="#FFFFFF" points="540,16,633,16,640,38.2969,861,38.2969,861,181,540,181,540,16" style="stroke: #008000; stroke-width: 1.5;"/><line style="stroke: #008000; stroke-width: 1.5;" x1="540" x2="640" y1="38.2969" y2="38.2969"/><text fill="#808080" font-family="sans-serif" font-size="14" font-weight="bold" lengthAdjust="spacingAndGlyphs" textLength="87" x="544" y="30.9951">DataResort</text><!--cluster FinancesResort--><rect fill="#FFFFFF" filter="url(#fx03e1jua4n2u)" height="277.5" style="stroke: #008000; stroke-width: 1.5;" width="138" x="1273" y="206"/><text fill="#808080" font-family="sans-serif" font-size="14" font-weight="bold" lengthAdjust="spacingAndGlyphs" textLength="122" x="1281" y="220.9951">FinancesResort</text><!--class CustomerList--><rect fill="url(#gx03e1jua4n2u0)" filter="url(#fx03e1jua4n2u)" height="78.3828" id="CustomerList" style="stroke: #000000; stroke-width: 1.5;" width="165" x="347.5" y="403.5"/><text fill="#000000" font-family="sans-serif" font-size="12" lengthAdjust="spacingAndGlyphs" textLength="81" x="389.5" y="419.6387">CustomerList</text><line style="stroke: #000000; stroke-width: 1.5;" x1="348.5" x2="511.5" y1="427.4688" y2="427.4688"/><line style="stroke: #000000; stroke-width: 1.5;" x1="348.5" x2="511.5" y1="435.4688" y2="435.4688"/><text fill="#000000" font-family="sans-serif" font-size="11" lengthAdjust="spacingAndGlyphs" textLength="85" x="353.5" y="449.6792">addCustomer()</text><text fill="#000000" font-family="sans-serif" font-size="11" lengthAdjust="spacingAndGlyphs" textLength="99" x="353.5" y="462.4839">deleteCustomer()</text><text fill="#000000" font-family="sans-serif" font-size="11" lengthAdjust="spacingAndGlyphs" textLength="153" x="353.5" y="475.2886">setCustomerPermissions()</text><!--class Person--><rect fill="url(#gx03e1jua4n2u0)" filter="url(#fx03e1jua4n2u)" height="91.1875" id="Person" style="stroke: #000000; stroke-width: 1.5;" width="60" x="252" y="397"/><text fill="#000000" font-family="sans-serif" font-size="12" lengthAdjust="spacingAndGlyphs" textLength="44" x="260" y="413.1387">Person</text><line style="stroke: #000000; stroke-width: 1.5;" x1="253" x2="311" y1="420.9688" y2="420.9688"/><text fill="#000000" font-family="sans-serif" font-size="11" lengthAdjust="spacingAndGlyphs" textLength="32" x="258" y="435.1792">name</text><text fill="#000000" font-family="sans-serif" font-size="11" lengthAdjust="spacingAndGlyphs" textLength="47" x="258" y="447.9839">adresse</text><text fill="#000000" font-family="sans-serif" font-size="11" lengthAdjust="spacingAndGlyphs" textLength="31" x="258" y="460.7886">email</text><text fill="#000000" font-family="sans-serif" font-size="11" lengthAdjust="spacingAndGlyphs" textLength="48" x="258" y="473.5933">phoneNr</text><line style="stroke: #000000; stroke-width: 1.5;" x1="253" x2="311" y1="480.1875" y2="480.1875"/><!--class Customer--><rect fill="url(#gx03e1jua4n2u0)" filter="url(#fx03e1jua4n2u)" height="129.6016" id="Customer" style="stroke: #000000; stroke-width: 1.5;" width="87" x="238.5" y="554"/><text fill="#000000" font-family="sans-serif" font-size="12" lengthAdjust="spacingAndGlyphs" textLength="60" x="252" y="570.1387">Customer</text><line style="stroke: #000000; stroke-width: 1.5;" x1="239.5" x2="324.5" y1="577.9688" y2="577.9688"/><text fill="#000000" font-family="sans-serif" font-size="11" lengthAdjust="spacingAndGlyphs" textLength="69" x="244.5" y="592.1792">preferences</text><text fill="#000000" font-family="sans-serif" font-size="11" lengthAdjust="spacingAndGlyphs" textLength="48" x="244.5" y="604.9839">discount</text><text fill="#000000" font-family="sans-serif" font-size="11" lengthAdjust="spacingAndGlyphs" textLength="10" x="244.5" y="617.7886">id</text><text fill="#000000" font-family="sans-serif" font-size="11" lengthAdjust="spacingAndGlyphs" textLength="71" x="244.5" y="630.5933">permissions</text><line style="stroke: #000000; stroke-width: 1.5;" x1="239.5" x2="324.5" y1="637.1875" y2="637.1875"/><text fill="#000000" font-family="sans-serif" font-size="11" lengthAdjust="spacingAndGlyphs" textLength="69" x="244.5" y="651.3979">getCatalog()</text><text fill="#000000" font-family="sans-serif" font-size="11" lengthAdjust="spacingAndGlyphs" textLength="75" x="244.5" y="664.2026">setDiscount()</text><text fill="#000000" font-family="sans-serif" font-size="11" lengthAdjust="spacingAndGlyphs" textLength="75" x="244.5" y="677.0073">getDiscount()</text><!--class Manager--><rect fill="url(#gx03e1jua4n2u0)" filter="url(#fx03e1jua4n2u)" height="78.3828" id="Manager" style="stroke: #000000; stroke-width: 1.5;" width="101" x="262.5" y="933.5"/><text fill="#000000" font-family="sans-serif" font-size="12" lengthAdjust="spacingAndGlyphs" textLength="55" x="285.5" y="949.6387">Manager</text><line style="stroke: #000000; stroke-width: 1.5;" x1="263.5" x2="362.5" y1="957.4688" y2="957.4688"/><line style="stroke: #000000; stroke-width: 1.5;" x1="263.5" x2="362.5" y1="965.4688" y2="965.4688"/><text fill="#000000" font-family="sans-serif" font-size="11" lengthAdjust="spacingAndGlyphs" textLength="68" x="268.5" y="979.6792">resetLogin()</text><text fill="#000000" font-family="sans-serif" font-size="11" lengthAdjust="spacingAndGlyphs" textLength="59" x="268.5" y="992.4839">addLogin()</text><text fill="#000000" font-family="sans-serif" font-size="11" lengthAdjust="spacingAndGlyphs" textLength="89" x="268.5" y="1005.2886">orderProducts()</text><!--class Staff--><rect fill="url(#gx03e1jua4n2u0)" filter="url(#fx03e1jua4n2u)" height="78.3828" id="Staff" style="stroke: #000000; stroke-width: 1.5;" width="70" x="22" y="769.5"/><text fill="#000000" font-family="sans-serif" font-size="12" lengthAdjust="spacingAndGlyphs" textLength="29" x="42.5" y="785.6387">Staff</text><line style="stroke: #000000; stroke-width: 1.5;" x1="23" x2="91" y1="793.4688" y2="793.4688"/><text fill="#000000" font-family="sans-serif" font-size="11" lengthAdjust="spacingAndGlyphs" textLength="58" x="28" y="807.6792">username</text><text fill="#000000" font-family="sans-serif" font-size="11" lengthAdjust="spacingAndGlyphs" textLength="56" x="28" y="820.4839">password</text><line style="stroke: #000000; stroke-width: 1.5;" x1="23" x2="91" y1="827.0781" y2="827.0781"/><text fill="#000000" font-family="sans-serif" font-size="11" lengthAdjust="spacingAndGlyphs" textLength="35" x="28" y="841.2886">login()</text><!--class SalesStaff--><rect fill="url(#gx03e1jua4n2u0)" filter="url(#fx03e1jua4n2u)" height="39.9688" id="SalesStaff" style="stroke: #000000; stroke-width: 1.5;" width="69" x="22.5" y="952.5"/><text fill="#000000" font-family="sans-serif" font-size="12" lengthAdjust="spacingAndGlyphs" textLength="63" x="25.5" y="968.6387">SalesStaff</text><line style="stroke: #000000; stroke-width: 1.5;" x1="23.5" x2="90.5" y1="976.4688" y2="976.4688"/><line style="stroke: #000000; stroke-width: 1.5;" x1="23.5" x2="90.5" y1="984.4688" y2="984.4688"/><!--class NormalCustomer--><rect fill="url(#gx03e1jua4n2u0)" filter="url(#fx03e1jua4n2u)" height="39.9688" id="NormalCustomer" style="stroke: #000000; stroke-width: 1.5;" width="110" x="127" y="788.5"/><text fill="#000000" font-family="sans-serif" font-size="12" lengthAdjust="spacingAndGlyphs" textLength="104" x="130" y="804.6387">NormalCustomer</text><line style="stroke: #000000; stroke-width: 1.5;" x1="128" x2="236" y1="812.4688" y2="812.4688"/><line style="stroke: #000000; stroke-width: 1.5;" x1="128" x2="236" y1="820.4688" y2="820.4688"/><!--class HouseCustomer--><rect fill="url(#gx03e1jua4n2u0)" filter="url(#fx03e1jua4n2u)" height="39.9688" id="HouseCustomer" style="stroke: #000000; stroke-width: 1.5;" width="106" x="272" y="788.5"/><text fill="#000000" font-family="sans-serif" font-size="12" lengthAdjust="spacingAndGlyphs" textLength="100" x="275" y="804.6387">HouseCustomer</text><line style="stroke: #000000; stroke-width: 1.5;" x1="273" x2="377" y1="812.4688" y2="812.4688"/><line style="stroke: #000000; stroke-width: 1.5;" x1="273" x2="377" y1="820.4688" y2="820.4688"/><!--class MajorCustomer--><rect fill="url(#gx03e1jua4n2u0)" filter="url(#fx03e1jua4n2u)" height="39.9688" id="MajorCustomer" style="stroke: #000000; stroke-width: 1.5;" width="100" x="413" y="788.5"/><text fill="#000000" font-family="sans-serif" font-size="12" lengthAdjust="spacingAndGlyphs" textLength="94" x="416" y="804.6387">MajorCustomer</text><line style="stroke: #000000; stroke-width: 1.5;" x1="414" x2="512" y1="812.4688" y2="812.4688"/><line style="stroke: #000000; stroke-width: 1.5;" x1="414" x2="512" y1="820.4688" y2="820.4688"/><!--class Calendar--><rect fill="url(#gx03e1jua4n2u0)" filter="url(#fx03e1jua4n2u)" height="78.3828" id="Calendar" style="stroke: #000000; stroke-width: 1.5;" width="126" x="250" y="1078"/><text fill="#000000" font-family="sans-serif" font-size="12" lengthAdjust="spacingAndGlyphs" textLength="56" x="285" y="1094.1387">Calendar</text><line style="stroke: #000000; stroke-width: 1.5;" x1="251" x2="375" y1="1101.9688" y2="1101.9688"/><line style="stroke: #000000; stroke-width: 1.5;" x1="251" x2="375" y1="1109.9688" y2="1109.9688"/><text fill="#000000" font-family="sans-serif" font-size="11" lengthAdjust="spacingAndGlyphs" textLength="100" x="256" y="1124.1792">addAppointment()</text><text fill="#000000" font-family="sans-serif" font-size="11" lengthAdjust="spacingAndGlyphs" textLength="100" x="256" y="1136.9839">editAppointment()</text><text fill="#000000" font-family="sans-serif" font-size="11" lengthAdjust="spacingAndGlyphs" textLength="114" x="256" y="1149.7886">deleteAppointment()</text><!--class Product--><rect fill="url(#gx03e1jua4n2u0)" filter="url(#fx03e1jua4n2u)" height="142.4063" id="Product" style="stroke: #000000; stroke-width: 1.5;" width="112" x="1075" y="548"/><text fill="#000000" font-family="sans-serif" font-size="12" lengthAdjust="spacingAndGlyphs" textLength="49" x="1106.5" y="564.1387">Product</text><line style="stroke: #000000; stroke-width: 1.5;" x1="1076" x2="1186" y1="571.9688" y2="571.9688"/><text fill="#000000" font-family="sans-serif" font-size="11" lengthAdjust="spacingAndGlyphs" textLength="63" x="1081" y="586.1792">description</text><text fill="#000000" font-family="sans-serif" font-size="11" lengthAdjust="spacingAndGlyphs" textLength="42" x="1081" y="598.9839">bnnInfo</text><text fill="#000000" font-family="sans-serif" font-size="11" lengthAdjust="spacingAndGlyphs" textLength="21" x="1081" y="611.7886">ean</text><text fill="#000000" font-family="sans-serif" font-size="11" lengthAdjust="spacingAndGlyphs" textLength="83" x="1081" y="624.5933">quantityStored</text><text fill="#000000" font-family="sans-serif" font-size="11" lengthAdjust="spacingAndGlyphs" textLength="100" x="1081" y="637.3979">quantityDisplayed</text><text fill="#000000" font-family="sans-serif" font-size="11" lengthAdjust="spacingAndGlyphs" textLength="28" x="1081" y="650.2026">price</text><line style="stroke: #000000; stroke-width: 1.5;" x1="1076" x2="1186" y1="656.7969" y2="656.7969"/><text fill="#000000" font-family="sans-serif" font-size="11" lengthAdjust="spacingAndGlyphs" textLength="54" x="1081" y="671.0073">getPrice()</text><text fill="#000000" font-family="sans-serif" font-size="11" lengthAdjust="spacingAndGlyphs" textLength="90" x="1081" y="683.812">getProductInfo()</text><!--class ProductList--><rect fill="url(#gx03e1jua4n2u0)" filter="url(#fx03e1jua4n2u)" height="65.5781" id="ProductList" style="stroke: #000000; stroke-width: 1.5;" width="98" x="777" y="409.5"/><text fill="#000000" font-family="sans-serif" font-size="12" lengthAdjust="spacingAndGlyphs" textLength="70" x="791" y="425.6387">ProductList</text><line style="stroke: #000000; stroke-width: 1.5;" x1="778" x2="874" y1="433.4688" y2="433.4688"/><line style="stroke: #000000; stroke-width: 1.5;" x1="778" x2="874" y1="441.4688" y2="441.4688"/><text fill="#000000" font-family="sans-serif" font-size="11" lengthAdjust="spacingAndGlyphs" textLength="72" x="783" y="455.6792">addProduct()</text><text fill="#000000" font-family="sans-serif" font-size="11" lengthAdjust="spacingAndGlyphs" textLength="86" x="783" y="468.4839">deleteProduct()</text><!--class DistributorList--><rect fill="url(#gx03e1jua4n2u0)" filter="url(#fx03e1jua4n2u)" height="39.9688" id="DistributorList" style="stroke: #000000; stroke-width: 1.5;" width="93" x="881.5" y="599"/><text fill="#000000" font-family="sans-serif" font-size="12" lengthAdjust="spacingAndGlyphs" textLength="87" x="884.5" y="615.1387">DistributorList</text><line style="stroke: #000000; stroke-width: 1.5;" x1="882.5" x2="973.5" y1="622.9688" y2="622.9688"/><line style="stroke: #000000; stroke-width: 1.5;" x1="882.5" x2="973.5" y1="630.9688" y2="630.9688"/><!--class OrderableProducts--><rect fill="url(#gx03e1jua4n2u0)" filter="url(#fx03e1jua4n2u)" height="39.9688" id="OrderableProducts" style="stroke: #000000; stroke-width: 1.5;" width="124" x="676" y="599"/><text fill="#000000" font-family="sans-serif" font-size="12" lengthAdjust="spacingAndGlyphs" textLength="118" x="679" y="615.1387">OrderableProducts</text><line style="stroke: #000000; stroke-width: 1.5;" x1="677" x2="799" y1="622.9688" y2="622.9688"/><line style="stroke: #000000; stroke-width: 1.5;" x1="677" x2="799" y1="630.9688" y2="630.9688"/><!--class LabelGenerator--><rect fill="url(#gx03e1jua4n2u0)" filter="url(#fx03e1jua4n2u)" height="78.3828" id="LabelGenerator" style="stroke: #000000; stroke-width: 1.5;" width="120" x="1137" y="769.5"/><text fill="#000000" font-family="sans-serif" font-size="12" lengthAdjust="spacingAndGlyphs" textLength="97" x="1148.5" y="785.6387">LabelGenerator</text><line style="stroke: #000000; stroke-width: 1.5;" x1="1138" x2="1256" y1="793.4688" y2="793.4688"/><line style="stroke: #000000; stroke-width: 1.5;" x1="1138" x2="1256" y1="801.4688" y2="801.4688"/><text fill="#000000" font-family="sans-serif" font-size="11" lengthAdjust="spacingAndGlyphs" textLength="77" x="1143" y="815.6792">printLabelAll()</text><text fill="#000000" font-family="sans-serif" font-size="11" lengthAdjust="spacingAndGlyphs" textLength="107" x="1143" y="828.4839">printLabelProduct()</text><text fill="#000000" font-family="sans-serif" font-size="11" lengthAdjust="spacingAndGlyphs" textLength="108" x="1143" y="841.2886">generateBarCode()</text><!--class Distributor--><rect fill="url(#gx03e1jua4n2u0)" filter="url(#fx03e1jua4n2u)" height="116.7969" id="Distributor" style="stroke: #000000; stroke-width: 1.5;" width="145" x="956.5" y="750"/><text fill="#000000" font-family="sans-serif" font-size="12" lengthAdjust="spacingAndGlyphs" textLength="66" x="996" y="766.1387">Distributor</text><line style="stroke: #000000; stroke-width: 1.5;" x1="957.5" x2="1100.5" y1="773.9688" y2="773.9688"/><text fill="#000000" font-family="sans-serif" font-size="11" lengthAdjust="spacingAndGlyphs" textLength="84" x="962.5" y="788.1792">companyName</text><text fill="#000000" font-family="sans-serif" font-size="11" lengthAdjust="spacingAndGlyphs" textLength="47" x="962.5" y="800.9839">address</text><text fill="#000000" font-family="sans-serif" font-size="11" lengthAdjust="spacingAndGlyphs" textLength="83" x="962.5" y="813.7886">contactPartner</text><text fill="#000000" font-family="sans-serif" font-size="11" lengthAdjust="spacingAndGlyphs" textLength="133" x="962.5" y="826.5933">minimumOrderQuantity</text><text fill="#000000" font-family="sans-serif" font-size="11" lengthAdjust="spacingAndGlyphs" textLength="97" x="962.5" y="839.3979">paymentMethods</text><text fill="#000000" font-family="sans-serif" font-size="11" lengthAdjust="spacingAndGlyphs" textLength="62" x="962.5" y="852.2026">taxNumber</text><line style="stroke: #000000; stroke-width: 1.5;" x1="957.5" x2="1100.5" y1="858.7969" y2="858.7969"/><!--class Order--><rect fill="url(#gx03e1jua4n2u0)" filter="url(#fx03e1jua4n2u)" height="91.1875" id="Order" style="stroke: #000000; stroke-width: 1.5;" width="156" x="758" y="927"/><text fill="#000000" font-family="sans-serif" font-size="12" lengthAdjust="spacingAndGlyphs" textLength="35" x="818.5" y="943.1387">Order</text><line style="stroke: #000000; stroke-width: 1.5;" x1="759" x2="913" y1="950.9688" y2="950.9688"/><text fill="#000000" font-family="sans-serif" font-size="11" lengthAdjust="spacingAndGlyphs" textLength="10" x="764" y="965.1792">id</text><text fill="#000000" font-family="sans-serif" font-size="11" lengthAdjust="spacingAndGlyphs" textLength="40" x="764" y="977.9839">arrived</text><text fill="#000000" font-family="sans-serif" font-size="11" lengthAdjust="spacingAndGlyphs" textLength="42" x="764" y="990.7886">content</text><line style="stroke: #000000; stroke-width: 1.5;" x1="759" x2="913" y1="997.3828" y2="997.3828"/><text fill="#000000" font-family="sans-serif" font-size="11" lengthAdjust="spacingAndGlyphs" textLength="144" x="764" y="1011.5933">placeContentInInventory()</text><!--class OrderAssistant--><rect fill="url(#gx03e1jua4n2u0)" filter="url(#fx03e1jua4n2u)" height="65.5781" id="OrderAssistant" style="stroke: #000000; stroke-width: 1.5;" width="167" x="548.5" y="775.5"/><text fill="#000000" font-family="sans-serif" font-size="12" lengthAdjust="spacingAndGlyphs" textLength="93" x="585.5" y="791.6387">OrderAssistant</text><line style="stroke: #000000; stroke-width: 1.5;" x1="549.5" x2="714.5" y1="799.4688" y2="799.4688"/><line style="stroke: #000000; stroke-width: 1.5;" x1="549.5" x2="714.5" y1="807.4688" y2="807.4688"/><text fill="#000000" font-family="sans-serif" font-size="11" lengthAdjust="spacingAndGlyphs" textLength="155" x="554.5" y="821.6792">getLowestPriceForProduct()</text><text fill="#000000" font-family="sans-serif" font-size="11" lengthAdjust="spacingAndGlyphs" textLength="39" x="554.5" y="834.4839">order()</text><!--class Inventory--><rect fill="url(#gx03e1jua4n2u0)" filter="url(#fx03e1jua4n2u)" height="91.1875" id="Inventory" style="stroke: #000000; stroke-width: 1.5;" width="170" x="751" y="763"/><text fill="#000000" font-family="sans-serif" font-size="12" lengthAdjust="spacingAndGlyphs" textLength="57" x="807.5" y="779.1387">Inventory</text><line style="stroke: #000000; stroke-width: 1.5;" x1="752" x2="920" y1="786.9688" y2="786.9688"/><text fill="#000000" font-family="sans-serif" font-size="11" lengthAdjust="spacingAndGlyphs" textLength="61" x="757" y="801.1792">profitValue</text><line style="stroke: #000000; stroke-width: 1.5;" x1="752" x2="920" y1="807.7734" y2="807.7734"/><text fill="#000000" font-family="sans-serif" font-size="11" lengthAdjust="spacingAndGlyphs" textLength="87" x="757" y="821.9839">setProfitValue()</text><text fill="#000000" font-family="sans-serif" font-size="11" lengthAdjust="spacingAndGlyphs" textLength="87" x="757" y="834.7886">getProfitValue()</text><text fill="#000000" font-family="sans-serif" font-size="11" lengthAdjust="spacingAndGlyphs" textLength="158" x="757" y="847.5933">getValueOfStoredProducts()</text><!--class Statistic--><rect fill="url(#gx03e1jua4n2u0)" filter="url(#fx03e1jua4n2u)" height="129.6016" id="Statistic" style="stroke: #000000; stroke-width: 1.5;" width="107" x="547.5" y="43"/><text fill="#000000" font-family="sans-serif" font-size="12" lengthAdjust="spacingAndGlyphs" textLength="51" x="575.5" y="59.1387">Statistic</text><line style="stroke: #000000; stroke-width: 1.5;" x1="548.5" x2="653.5" y1="66.9688" y2="66.9688"/><text fill="#000000" font-family="sans-serif" font-size="11" lengthAdjust="spacingAndGlyphs" textLength="31" x="553.5" y="81.1792">sales</text><text fill="#000000" font-family="sans-serif" font-size="11" lengthAdjust="spacingAndGlyphs" textLength="60" x="553.5" y="93.9839">purchases</text><text fill="#000000" font-family="sans-serif" font-size="11" lengthAdjust="spacingAndGlyphs" textLength="25" x="553.5" y="106.7886">time</text><text fill="#000000" font-family="sans-serif" font-size="11" lengthAdjust="spacingAndGlyphs" textLength="59" x="553.5" y="119.5933">soldWares</text><text fill="#000000" font-family="sans-serif" font-size="11" lengthAdjust="spacingAndGlyphs" textLength="95" x="553.5" y="132.3979">purchasedWares</text><text fill="#000000" font-family="sans-serif" font-size="11" lengthAdjust="spacingAndGlyphs" textLength="85" x="553.5" y="145.2026">stolenProducts</text><line style="stroke: #000000; stroke-width: 1.5;" x1="548.5" x2="653.5" y1="151.7969" y2="151.7969"/><text fill="#000000" font-family="sans-serif" font-size="11" lengthAdjust="spacingAndGlyphs" textLength="65" x="553.5" y="166.0073">getStatics()</text><!--class Log--><rect fill="url(#gx03e1jua4n2u0)" filter="url(#fx03e1jua4n2u)" height="129.6016" id="Log" style="stroke: #000000; stroke-width: 1.5;" width="163" x="689.5" y="43"/><text fill="#000000" font-family="sans-serif" font-size="12" lengthAdjust="spacingAndGlyphs" textLength="22" x="760" y="59.1387">Log</text><line style="stroke: #000000; stroke-width: 1.5;" x1="690.5" x2="851.5" y1="66.9688" y2="66.9688"/><line style="stroke: #000000; stroke-width: 1.5;" x1="690.5" x2="851.5" y1="74.9688" y2="74.9688"/><text fill="#000000" font-family="sans-serif" font-size="11" lengthAdjust="spacingAndGlyphs" textLength="58" x="695.5" y="89.1792">getSales()</text><text fill="#000000" font-family="sans-serif" font-size="11" lengthAdjust="spacingAndGlyphs" textLength="86" x="695.5" y="101.9839">getPurchases()</text><text fill="#000000" font-family="sans-serif" font-size="11" lengthAdjust="spacingAndGlyphs" textLength="54" x="695.5" y="114.7886">getTime()</text><text fill="#000000" font-family="sans-serif" font-size="11" lengthAdjust="spacingAndGlyphs" textLength="86" x="695.5" y="127.5933">getSoldWares()</text><text fill="#000000" font-family="sans-serif" font-size="11" lengthAdjust="spacingAndGlyphs" textLength="121" x="695.5" y="140.3979">getPurchasedWares()</text><text fill="#000000" font-family="sans-serif" font-size="11" lengthAdjust="spacingAndGlyphs" textLength="151" x="695.5" y="153.2026">getCustomerPreferences()</text><text fill="#000000" font-family="sans-serif" font-size="11" lengthAdjust="spacingAndGlyphs" textLength="112" x="695.5" y="166.0073">getStolenProducts()</text><!--class CashRegister--><rect fill="url(#gx03e1jua4n2u0)" filter="url(#fx03e1jua4n2u)" height="103.9922" id="CashRegister" style="stroke: #000000; stroke-width: 1.5;" width="116" x="1281" y="233"/><text fill="#000000" font-family="sans-serif" font-size="12" lengthAdjust="spacingAndGlyphs" textLength="83" x="1297.5" y="249.1387">CashRegister</text><line style="stroke: #000000; stroke-width: 1.5;" x1="1282" x2="1396" y1="256.9688" y2="256.9688"/><line style="stroke: #000000; stroke-width: 1.5;" x1="1282" x2="1396" y1="264.9688" y2="264.9688"/><text fill="#000000" font-family="sans-serif" font-size="11" lengthAdjust="spacingAndGlyphs" textLength="86" x="1287" y="279.1792">calculatePrice()</text><text fill="#000000" font-family="sans-serif" font-size="11" lengthAdjust="spacingAndGlyphs" textLength="74" x="1287" y="291.9839">giveChange()</text><text fill="#000000" font-family="sans-serif" font-size="11" lengthAdjust="spacingAndGlyphs" textLength="57" x="1287" y="304.7886">cancelAll()</text><text fill="#000000" font-family="sans-serif" font-size="11" lengthAdjust="spacingAndGlyphs" textLength="87" x="1287" y="317.5933">cancelProduct()</text><text fill="#000000" font-family="sans-serif" font-size="11" lengthAdjust="spacingAndGlyphs" textLength="104" x="1287" y="330.3979">enterCustomerId()</text><!--class ShoppingCart--><rect fill="url(#gx03e1jua4n2u0)" filter="url(#fx03e1jua4n2u)" height="65.5781" id="ShoppingCart" style="stroke: #000000; stroke-width: 1.5;" width="98" x="1285" y="409.5"/><text fill="#000000" font-family="sans-serif" font-size="12" lengthAdjust="spacingAndGlyphs" textLength="85" x="1291.5" y="425.6387">ShoppingCart</text><line style="stroke: #000000; stroke-width: 1.5;" x1="1286" x2="1382" y1="433.4688" y2="433.4688"/><line style="stroke: #000000; stroke-width: 1.5;" x1="1286" x2="1382" y1="441.4688" y2="441.4688"/><text fill="#000000" font-family="sans-serif" font-size="11" lengthAdjust="spacingAndGlyphs" textLength="72" x="1291" y="455.6792">addProduct()</text><text fill="#000000" font-family="sans-serif" font-size="11" lengthAdjust="spacingAndGlyphs" textLength="86" x="1291" y="468.4839">deleteProduct()</text><!--class Database--><rect fill="url(#gx03e1jua4n2u0)" filter="url(#fx03e1jua4n2u)" height="91.1875" id="Database" style="stroke: #000000; stroke-width: 1.5;" width="67" x="792.5" y="239.5"/><text fill="#000000" font-family="sans-serif" font-size="12" lengthAdjust="spacingAndGlyphs" textLength="61" x="795.5" y="255.6387">Database</text><line style="stroke: #000000; stroke-width: 1.5;" x1="793.5" x2="858.5" y1="263.4688" y2="263.4688"/><line style="stroke: #000000; stroke-width: 1.5;" x1="793.5" x2="858.5" y1="271.4688" y2="271.4688"/><text fill="#000000" font-family="sans-serif" font-size="11" lengthAdjust="spacingAndGlyphs" textLength="31" x="798.5" y="285.6792">sort()</text><text fill="#000000" font-family="sans-serif" font-size="11" lengthAdjust="spacingAndGlyphs" textLength="29" x="798.5" y="298.4839">add()</text><text fill="#000000" font-family="sans-serif" font-size="11" lengthAdjust="spacingAndGlyphs" textLength="43" x="798.5" y="311.2886">delete()</text><text fill="#000000" font-family="sans-serif" font-size="11" lengthAdjust="spacingAndGlyphs" textLength="47" x="798.5" y="324.0933">search()</text><!--link Person to Customer--><path d="M282,508.4125 C282,508.4125 282,553.7158 282,553.7158 " fill="none" id="Person-Customer" style="stroke: #000000; stroke-width: 1.0;"/><polygon fill="none" points="275.0001,508.4126,282,488.4125,289.0001,508.4125,275.0001,508.4126" style="stroke: #000000; stroke-width: 1.0;"/><!--link Staff to Manager--><path d="M112.1911,838 C112.1911,838 267.25,838 267.25,838 C267.25,838 267.25,893.5359 267.25,933.2355 " fill="none" id="Staff-Manager" style="stroke: #000000; stroke-width: 1.0;"/><polygon fill="none" points="112.1912,844.9999,92.1911,838,112.1911,830.9999,112.1912,844.9999" style="stroke: #000000; stroke-width: 1.0;"/><!--link Staff to SalesStaff--><path d="M57,867.7821 C57,867.7821 57,952.4596 57,952.4596 " fill="none" id="Staff-SalesStaff" style="stroke: #000000; stroke-width: 1.0;"/><polygon fill="none" points="50.0001,867.7821,57,847.7821,64.0001,867.7821,50.0001,867.7821" style="stroke: #000000; stroke-width: 1.0;"/><!--link Customer to NormalCustomer--><path d="M246.1667,704.1214 C246.1667,704.1214 246.1667,809 246.1667,809 C246.1667,809 242.6419,809 237.2446,809 " fill="none" id="Customer-NormalCustomer" style="stroke: #000000; stroke-width: 1.0;"/><polygon fill="none" points="239.1668,704.1214,246.1667,684.1214,253.1668,704.1214,239.1668,704.1214" style="stroke: #000000; stroke-width: 1.0;"/><!--link Customer to HouseCustomer--><path d="M298.75,704.2151 C298.75,704.2151 298.75,788.1696 298.75,788.1696 " fill="none" id="Customer-HouseCustomer" style="stroke: #000000; stroke-width: 1.0;"/><polygon fill="none" points="291.7501,704.2152,298.75,684.2151,305.7501,704.2151,291.7501,704.2152" style="stroke: #000000; stroke-width: 1.0;"/><!--link Customer to MajorCustomer--><path d="M345.7545,662 C345.7545,662 462.75,662 462.75,662 C462.75,662 462.75,748.3143 462.75,788.437 " fill="none" id="Customer-MajorCustomer" style="stroke: #000000; stroke-width: 1.0;"/><polygon fill="none" points="345.7546,668.9999,325.7545,662,345.7545,654.9999,345.7546,668.9999" style="stroke: #000000; stroke-width: 1.0;"/><!--link Customer to Staff--><path d="M242.3333,704.3591 C242.3333,704.3591 242.3333,782 242.3333,782 C242.3333,782 146.0688,782 92.296,782 " fill="none" id="Customer-Staff" style="stroke: #000000; stroke-width: 1.0;"/><polygon fill="none" points="235.3334,704.3592,242.3333,684.3591,249.3334,704.3591,235.3334,704.3592" style="stroke: #000000; stroke-width: 1.0;"/><!--link Manager to Calendar--><path d="M313,1011.6038 C313,1011.6038 313,1072.865 313,1072.865 " fill="none" id="Manager-Calendar" style="stroke: #000000; stroke-width: 1.0;"/><polygon fill="#000000" points="313,1077.865,317,1068.865,313,1072.865,309,1068.865,313,1077.865" style="stroke: #000000; stroke-width: 1.0;"/><text fill="#000000" font-family="sans-serif" font-size="13" lengthAdjust="spacingAndGlyphs" textLength="8" x="304.2875" y="1031.9497">1</text><text fill="#000000" font-family="sans-serif" font-size="13" lengthAdjust="spacingAndGlyphs" textLength="8" x="304.3125" y="1066.895">1</text><!--link CustomerList to Customer--><path d="M362.75,481.7645 C362.75,521.4641 362.75,577 362.75,577 C362.75,577 344.7101,577 325.6837,577 " fill="none" id="CustomerList-Customer" style="stroke: #000000; stroke-width: 1.0;"/><text fill="#000000" font-family="sans-serif" font-size="13" lengthAdjust="spacingAndGlyphs" textLength="8" x="342.5039" y="501.8476">1</text><text fill="#000000" font-family="sans-serif" font-size="13" lengthAdjust="spacingAndGlyphs" textLength="23" x="333.4439" y="567.1433">0..*</text><!--link Database to CustomerList--><path d="M772.2373,285 C772.2373,285 430,285 430,285 C430,285 430,356.512 430,403.1624 " fill="none" id="Database-CustomerList" style="stroke: #000000; stroke-width: 1.0;"/><polygon fill="none" points="772.2373,277.9999,792.2373,285,772.2372,291.9999,772.2373,277.9999" style="stroke: #000000; stroke-width: 1.0;"/><!--link OrderableProducts to DistributorList--><path d="M800.2131,619 C800.2131,619 868.3231,619 868.3231,619 " fill="none" id="OrderableProducts-DistributorList" style="stroke: #000000; stroke-width: 1.0;"/><polygon fill="#FFFFFF" points="881.3231,619,875.3231,615,869.3231,619,875.3231,623,881.3231,619" style="stroke: #000000; stroke-width: 1.0;"/><text fill="#000000" font-family="sans-serif" font-size="13" lengthAdjust="spacingAndGlyphs" textLength="8" x="807.869" y="615.2092">1</text><text fill="#000000" font-family="sans-serif" font-size="13" lengthAdjust="spacingAndGlyphs" textLength="8" x="865.5632" y="614.931">1</text><!--link DistributorList to Distributor--><path d="M965.5,652.2798 C965.5,652.2798 965.5,749.7579 965.5,749.7579 " fill="none" id="DistributorList-Distributor" style="stroke: #000000; stroke-width: 1.0;"/><polygon fill="#FFFFFF" points="965.5,639.2798,961.5,645.2798,965.5,651.2798,969.5,645.2798,965.5,639.2798" style="stroke: #000000; stroke-width: 1.0;"/><text fill="#000000" font-family="sans-serif" font-size="13" lengthAdjust="spacingAndGlyphs" textLength="8" x="966.9219" y="659.1828">1</text><text fill="#000000" font-family="sans-serif" font-size="13" lengthAdjust="spacingAndGlyphs" textLength="23" x="933.3594" y="738.772">0..*</text><!--link Database to DistributorList--><path d="M879.6813,285 C879.6813,285 928,285 928,285 C928,285 928,526.6478 928,598.859 " fill="none" id="Database-DistributorList" style="stroke: #000000; stroke-width: 1.0;"/><polygon fill="none" points="879.6813,291.9999,859.6813,285,879.6813,277.9999,879.6813,291.9999" style="stroke: #000000; stroke-width: 1.0;"/><!--link Database to ProductList--><path d="M826,350.5555 C826,350.5555 826,409.0562 826,409.0562 " fill="none" id="Database-ProductList" style="stroke: #000000; stroke-width: 1.0;"/><polygon fill="none" points="819.0001,350.5556,826,330.5555,833.0001,350.5555,819.0001,350.5556" style="stroke: #000000; stroke-width: 1.0;"/><!--link ProductList to Product--><path d="M850,488.5957 C850,488.5957 850,566 850,566 C850,566 992.8079,566 1074.8108,566 " fill="none" id="ProductList-Product" style="stroke: #000000; stroke-width: 1.0;"/><polygon fill="#FFFFFF" points="850,475.5957,846,481.5957,850,487.5957,854,481.5957,850,475.5957" style="stroke: #000000; stroke-width: 1.0;"/><text fill="#000000" font-family="sans-serif" font-size="13" lengthAdjust="spacingAndGlyphs" textLength="8" x="845.6875" y="495.1986">1</text><text fill="#000000" font-family="sans-serif" font-size="13" lengthAdjust="spacingAndGlyphs" textLength="23" x="1043.9842" y="556.0558">0..*</text><!--link Product to LabelGenerator--><path d="M1162,703.102 C1162,703.102 1162,769.4652 1162,769.4652 " fill="none" id="Product-LabelGenerator" style="stroke: #000000; stroke-width: 1.0;"/><polygon fill="#000000" points="1162,690.102,1158,696.102,1162,702.102,1166,696.102,1162,690.102" style="stroke: #000000; stroke-width: 1.0;"/><text fill="#000000" font-family="sans-serif" font-size="13" lengthAdjust="spacingAndGlyphs" textLength="23" x="1141.0109" y="710.2606">1..*</text><text fill="#000000" font-family="sans-serif" font-size="13" lengthAdjust="spacingAndGlyphs" textLength="8" x="1147.2969" y="758.5124">1</text><!--link ProductList to OrderableProducts--><path d="M788.5,495.6983 C788.5,495.6983 788.5,598.6159 788.5,598.6159 " fill="none" id="ProductList-OrderableProducts" style="stroke: #000000; stroke-width: 1.0;"/><polygon fill="none" points="781.5001,495.6983,788.5,475.6983,795.5001,495.6983,781.5001,495.6983" style="stroke: #000000; stroke-width: 1.0;"/><!--link Product to Distributor--><path d="M1088.25,703.102 C1088.25,703.102 1088.25,749.9884 1088.25,749.9884 " fill="none" id="Product-Distributor" style="stroke: #000000; stroke-width: 1.0;"/><polygon fill="#000000" points="1088.25,690.102,1084.25,696.102,1088.25,702.102,1092.25,696.102,1088.25,690.102" style="stroke: #000000; stroke-width: 1.0;"/><text fill="#000000" font-family="sans-serif" font-size="13" lengthAdjust="spacingAndGlyphs" textLength="23" x="1059.6555" y="710.2606">1..*</text><text fill="#000000" font-family="sans-serif" font-size="13" lengthAdjust="spacingAndGlyphs" textLength="8" x="1086.9836" y="739.0306">1</text><!--link Inventory to Order--><path d="M836,859.1831 C836,859.1831 836,926.7777 836,926.7777 " fill="none" id="Inventory-Order" style="stroke: #000000; stroke-width: 1.0;"/><polygon fill="#000000" points="836,854.1831,832,863.1831,836,859.1831,840,863.1831,836,854.1831" style="stroke: #000000; stroke-width: 1.0;"/><!--link OrderableProducts to OrderAssistant--><path d="M695.75,644.2798 C695.75,644.2798 695.75,775.3765 695.75,775.3765 " fill="none" id="OrderableProducts-OrderAssistant" style="stroke: #000000; stroke-width: 1.0;"/><polygon fill="#000000" points="695.75,639.2798,691.75,648.2798,695.75,644.2798,699.75,648.2798,695.75,639.2798" style="stroke: #000000; stroke-width: 1.0;"/><!--link ProductList to Inventory--><path d="M825,495.6256 C825,495.6256 825,762.7316 825,762.7316 " fill="none" id="ProductList-Inventory" style="stroke: #000000; stroke-width: 1.0;"/><polygon fill="none" points="818.0001,495.6256,825,475.6256,832.0001,495.6255,818.0001,495.6256" style="stroke: #000000; stroke-width: 1.0;"/><!--link OrderAssistant to Manager--><path d="M543.1996,833 C543.1996,833 317.75,833 317.75,833 C317.75,833 317.75,892.0096 317.75,933.2702 " fill="none" id="OrderAssistant-Manager" style="stroke: #000000; stroke-width: 1.0;"/><polygon fill="#000000" points="548.1996,833,539.1996,829,543.1996,833,539.1996,837,548.1996,833" style="stroke: #000000; stroke-width: 1.0;"/><!--link Statistic to Log--><path d="M654.7891,108 C654.7891,108 676.2988,108 676.2988,108 " fill="none" id="Statistic-Log" style="stroke: #000000; stroke-width: 1.0;"/><polygon fill="#000000" points="689.2988,108,683.2988,104,677.2988,108,683.2988,112,689.2988,108" style="stroke: #000000; stroke-width: 1.0;"/><text fill="#000000" font-family="sans-serif" font-size="13" lengthAdjust="spacingAndGlyphs" textLength="8" x="662.5545" y="104.0948">1</text><text fill="#000000" font-family="sans-serif" font-size="13" lengthAdjust="spacingAndGlyphs" textLength="8" x="673.3982" y="104.4">1</text><!--link Log to Customer--><path d="M733.25,173.2345 C733.25,304.4754 733.25,588 733.25,588 C733.25,588 330.6778,588 330.6778,588 " fill="none" id="Log-Customer" style="stroke: #000000; stroke-width: 1.0;"/><polygon fill="#000000" points="325.6778,588,334.6778,592,330.6778,588,334.6778,584,325.6778,588" style="stroke: #000000; stroke-width: 1.0;"/><!--link Log to CashRegister--><path d="M857.6828,108 C857.6828,108 1339,108 1339,108 C1339,108 1339,180.6409 1339,232.8515 " fill="none" id="Log-CashRegister" style="stroke: #000000; stroke-width: 1.0;"/><polygon fill="#000000" points="852.6828,108,861.6828,112,857.6828,108,861.6828,104,852.6828,108" style="stroke: #000000; stroke-width: 1.0;"/><!--link CashRegister to ShoppingCart--><path d="M1334,350.0079 C1334,350.0079 1334,409.3493 1334,409.3493 " fill="none" id="CashRegister-ShoppingCart" style="stroke: #000000; stroke-width: 1.0;"/><polygon fill="#000000" points="1334,337.0079,1330,343.0079,1334,349.0079,1338,343.0079,1334,337.0079" style="stroke: #000000; stroke-width: 1.0;"/><text fill="#000000" font-family="sans-serif" font-size="13" lengthAdjust="spacingAndGlyphs" textLength="8" x="1324.7906" y="357.0806">1</text><text fill="#000000" font-family="sans-serif" font-size="13" lengthAdjust="spacingAndGlyphs" textLength="8" x="1325.2125" y="398.4677">1</text><!--link ShoppingCart to Product--><path d="M1284.8594,443 C1224.7809,443 1131,443 1131,443 C1131,443 1131,534.9214 1131,534.9214 " fill="none" id="ShoppingCart-Product" style="stroke: #000000; stroke-width: 1.0;"/><polygon fill="#000000" points="1131,547.9214,1135,541.9214,1131,535.9214,1127,541.9214,1131,547.9214" style="stroke: #000000; stroke-width: 1.0;"/><text fill="#000000" font-family="sans-serif" font-size="13" lengthAdjust="spacingAndGlyphs" textLength="8" x="1269.0544" y="439.0795">1</text><text fill="#000000" font-family="sans-serif" font-size="13" lengthAdjust="spacingAndGlyphs" textLength="23" x="1106.8141" y="536.8708">1..*</text><!--
@startuml
skinparam linetype ortho
hide circle

skinparam class {
	BackgroundColor #GreenYellow/LightGoldenRodYellow
    BorderColor Black
    ArrowColor  Black
}

skinparam package {
    FontColor Grey
    BorderColor Green
    shadowing false
}

class Database{
    sort()
    add()
    delete()
    search()
}

package UserResort {

class CustomerList{
    addCustomer()
    deleteCustomer()
    setCustomerPermissions()
}

class Person{
    name
    adresse
    email
    phoneNr
}


class Customer{
    preferences
    discount
    id
    permissions
    getCatalog()
    setDiscount()
    getDiscount()
}

class Manager{
    resetLogin()
    addLogin()
    orderProducts()
}


Person ^- - Customer


Staff ^- - Manager
Staff ^- - SalesStaff

Customer ^- - NormalCustomer
Customer ^- - HouseCustomer
Customer ^- - MajorCustomer
Customer ^- - Staff


class Staff{
    username
    password

    login()
}

Manager "1" - -> "1" Calendar
CustomerList "1" - - "0..*" Customer
Database ^- - CustomerList

}









class Calendar{
    addAppointment()
    editAppointment()
    deleteAppointment()
}







package ProductResort{
    class Product{
        description
        bnnInfo
        ean
        quantityStored
        quantityDisplayed
        price

        getPrice()
        getProductInfo()

    }

    class ProductList{
        addProduct()
        deleteProduct()
    }

    class DistributorList{

    }

    class OrderableProducts{

    }

    class LabelGenerator{
        printLabelAll()
        printLabelProduct()
        generateBarCode()
    }

    class Distributor{
        companyName
        address
        contactPartner
        minimumOrderQuantity
        paymentMethods
        taxNumber
    }

    OrderableProducts "1" -left-o "1" DistributorList
    DistributorList "1" o- - "0..*" Distributor

    Database ^- - DistributorList




    ProductList -up-^ Database
    ProductList "1" o- - "0..*" Product
    Product "1..*" *- - "1" LabelGenerator
    ProductList ^- - OrderableProducts

    Product "1..*" *- - "1" Distributor

    package InventoryResort{

        class Order{
            id
            arrived
            content

            placeContentInInventory()
        }

        class OrderAssistant{
            getLowestPriceForProduct()
            order()
        }

        class Inventory {
            profitValue

            setProfitValue()
            getProfitValue()
            getValueOfStoredProducts()
        }

        Order -up-> Inventory
        OrderableProducts <- - OrderAssistant
        ProductList ^- - Inventory
        OrderAssistant <- - Manager

    }

}

package DataResort {

    class Statistic{
        sales
        purchases
        time
        soldWares
        purchasedWares
        stolenProducts

        getStatics()
    }

    class Log{
        getSales()
        getPurchases()
        getTime()
        getSoldWares()
        getPurchasedWares()
        getCustomerPreferences()
        getStolenProducts()
    }

    Log "1" *-left- "1" Statistic


    Log -right-> Customer


}

rectangle FinancesResort {
    class CashRegister{
        calculatePrice()
        giveChange()
        cancelAll()
        cancelProduct()
        enterCustomerId()

    }




    class ShoppingCart{
        addProduct()
        deleteProduct()
    }

    Log <- - CashRegister

    CashRegister "1" *-down- "1" ShoppingCart
    ShoppingCart "1" - -* "1..*" Product



}

@enduml

PlantUML version 1.2018.11(Sat Sep 22 18:43:53 CEST 2018)
(GPL source distribution)
Java Runtime: OpenJDK Runtime Environment
JVM: OpenJDK 64-Bit Server VM
Java Version: 10.0.2+13-Ubuntu-1ubuntu0.18.04.2
Operating System: Linux
OS Version: 4.15.0-36-generic
Default Encoding: UTF-8
Language: de
Country: DE
--></g></svg>