<?xml version="1.0" encoding="UTF-8" standalone="no"?><svg xmlns="http://www.w3.org/2000/svg" xmlns:xlink="http://www.w3.org/1999/xlink" contentScriptType="application/ecmascript" contentStyleType="text/css" height="1256px" preserveAspectRatio="none" style="width:1252px;height:1256px;" version="1.1" viewBox="0 0 1252 1256" width="1252px" zoomAndPan="magnify"><defs><linearGradient id="g12ievzitjgw0c0" x1="0%" x2="100%" y1="0%" y2="100%"><stop offset="0%" stop-color="#ADFF2F"/><stop offset="100%" stop-color="#FAFAD2"/></linearGradient><filter height="300%" id="f12ievzitjgw0c" width="300%" x="-1" y="-1"><feGaussianBlur result="blurOut" stdDeviation="2.0"/><feColorMatrix in="blurOut" result="blurOut2" type="matrix" values="0 0 0 0 0 0 0 0 0 0 0 0 0 0 0 0 0 0 .4 0"/><feOffset dx="4.0" dy="4.0" in="blurOut2" result="blurOut3"/><feBlend in="SourceGraphic" in2="blurOut3" mode="normal"/></filter></defs><g><!--cluster UserDepartment--><polygon fill="#FFFFFF" points="941,196,1077,196,1084,218.2969,1230,218.2969,1230,1244,941,1244,941,196" style="stroke: #008000; stroke-width: 1.5;"/><line style="stroke: #008000; stroke-width: 1.5;" x1="941" x2="1084" y1="218.2969" y2="218.2969"/><text fill="#808080" font-family="sans-serif" font-size="14" font-weight="bold" lengthAdjust="spacingAndGlyphs" textLength="130" x="945" y="210.9951">UserDepartment</text><!--cluster ProductDepartment--><polygon fill="#FFFFFF" points="14,443,175,443,182,465.2969,746,465.2969,746,1114,14,1114,14,443" style="stroke: #008000; stroke-width: 1.5;"/><line style="stroke: #008000; stroke-width: 1.5;" x1="14" x2="182" y1="465.2969" y2="465.2969"/><text fill="#808080" font-family="sans-serif" font-size="14" font-weight="bold" lengthAdjust="spacingAndGlyphs" textLength="155" x="18" y="457.9951">ProductDepartment</text><!--cluster InventoryDepartment--><polygon fill="#FFFFFF" points="22,816,196,816,203,838.2969,410,838.2969,410,1106,22,1106,22,816" style="stroke: #008000; stroke-width: 1.5;"/><line style="stroke: #008000; stroke-width: 1.5;" x1="22" x2="203" y1="838.2969" y2="838.2969"/><text fill="#808080" font-family="sans-serif" font-size="14" font-weight="bold" lengthAdjust="spacingAndGlyphs" textLength="168" x="26" y="830.9951">InventoryDepartment</text><!--cluster DataDepartment--><polygon fill="#FFFFFF" points="739,132,873,132,880,154.2969,919,154.2969,919,386,739,386,739,132" style="stroke: #008000; stroke-width: 1.5;"/><line style="stroke: #008000; stroke-width: 1.5;" x1="739" x2="880" y1="154.2969" y2="154.2969"/><text fill="#808080" font-family="sans-serif" font-size="14" font-weight="bold" lengthAdjust="spacingAndGlyphs" textLength="128" x="743" y="146.9951">DataDepartment</text><!--cluster FinancesDepartment--><polygon fill="#FFFFFF" points="754,411,923,411,930,433.2969,933,433.2969,933,576,754,576,754,411" style="stroke: #008000; stroke-width: 1.5;"/><line style="stroke: #008000; stroke-width: 1.5;" x1="754" x2="930" y1="433.2969" y2="433.2969"/><text fill="#808080" font-family="sans-serif" font-size="14" font-weight="bold" lengthAdjust="spacingAndGlyphs" textLength="163" x="758" y="425.9951">FinancesDepartment</text><!--class CustomerList--><rect fill="url(#g12ievzitjgw0c0)" filter="url(#f12ievzitjgw0c)" height="78.3828" id="CustomerList" style="stroke: #000000; stroke-width: 1.5;" width="165" x="949.5" y="229.5"/><text fill="#000000" font-family="sans-serif" font-size="12" lengthAdjust="spacingAndGlyphs" textLength="81" x="991.5" y="245.6387">CustomerList</text><line style="stroke: #000000; stroke-width: 1.5;" x1="950.5" x2="1113.5" y1="253.4688" y2="253.4688"/><line style="stroke: #000000; stroke-width: 1.5;" x1="950.5" x2="1113.5" y1="261.4688" y2="261.4688"/><text fill="#000000" font-family="sans-serif" font-size="11" lengthAdjust="spacingAndGlyphs" textLength="85" x="955.5" y="275.6792">addCustomer()</text><text fill="#000000" font-family="sans-serif" font-size="11" lengthAdjust="spacingAndGlyphs" textLength="99" x="955.5" y="288.4839">deleteCustomer()</text><text fill="#000000" font-family="sans-serif" font-size="11" lengthAdjust="spacingAndGlyphs" textLength="153" x="955.5" y="301.2886">setCustomerPermissions()</text><!--class Person--><rect fill="url(#g12ievzitjgw0c0)" filter="url(#f12ievzitjgw0c)" height="91.1875" id="Person" style="stroke: #000000; stroke-width: 1.5;" width="60" x="1150" y="223"/><text fill="#000000" font-family="sans-serif" font-size="12" lengthAdjust="spacingAndGlyphs" textLength="44" x="1158" y="239.1387">Person</text><line style="stroke: #000000; stroke-width: 1.5;" x1="1151" x2="1209" y1="246.9688" y2="246.9688"/><text fill="#000000" font-family="sans-serif" font-size="11" lengthAdjust="spacingAndGlyphs" textLength="32" x="1156" y="261.1792">name</text><text fill="#000000" font-family="sans-serif" font-size="11" lengthAdjust="spacingAndGlyphs" textLength="47" x="1156" y="273.9839">adresse</text><text fill="#000000" font-family="sans-serif" font-size="11" lengthAdjust="spacingAndGlyphs" textLength="31" x="1156" y="286.7886">email</text><text fill="#000000" font-family="sans-serif" font-size="11" lengthAdjust="spacingAndGlyphs" textLength="48" x="1156" y="299.5933">phoneNr</text><line style="stroke: #000000; stroke-width: 1.5;" x1="1151" x2="1209" y1="306.1875" y2="306.1875"/><!--class Customer--><rect fill="url(#g12ievzitjgw0c0)" filter="url(#f12ievzitjgw0c)" height="129.6016" id="Customer" style="stroke: #000000; stroke-width: 1.5;" width="87" x="988.5" y="438"/><text fill="#000000" font-family="sans-serif" font-size="12" lengthAdjust="spacingAndGlyphs" textLength="60" x="1002" y="454.1387">Customer</text><line style="stroke: #000000; stroke-width: 1.5;" x1="989.5" x2="1074.5" y1="461.9688" y2="461.9688"/><text fill="#000000" font-family="sans-serif" font-size="11" lengthAdjust="spacingAndGlyphs" textLength="69" x="994.5" y="476.1792">preferences</text><text fill="#000000" font-family="sans-serif" font-size="11" lengthAdjust="spacingAndGlyphs" textLength="48" x="994.5" y="488.9839">discount</text><text fill="#000000" font-family="sans-serif" font-size="11" lengthAdjust="spacingAndGlyphs" textLength="10" x="994.5" y="501.7886">id</text><text fill="#000000" font-family="sans-serif" font-size="11" lengthAdjust="spacingAndGlyphs" textLength="71" x="994.5" y="514.5933">permissions</text><line style="stroke: #000000; stroke-width: 1.5;" x1="989.5" x2="1074.5" y1="521.1875" y2="521.1875"/><text fill="#000000" font-family="sans-serif" font-size="11" lengthAdjust="spacingAndGlyphs" textLength="69" x="994.5" y="535.3979">getCatalog()</text><text fill="#000000" font-family="sans-serif" font-size="11" lengthAdjust="spacingAndGlyphs" textLength="75" x="994.5" y="548.2026">setDiscount()</text><text fill="#000000" font-family="sans-serif" font-size="11" lengthAdjust="spacingAndGlyphs" textLength="75" x="994.5" y="561.0073">getDiscount()</text><!--class Manager--><rect fill="url(#g12ievzitjgw0c0)" filter="url(#f12ievzitjgw0c)" height="78.3828" id="Manager" style="stroke: #000000; stroke-width: 1.5;" width="101" x="964.5" y="1013.5"/><text fill="#000000" font-family="sans-serif" font-size="12" lengthAdjust="spacingAndGlyphs" textLength="55" x="987.5" y="1029.6387">Manager</text><line style="stroke: #000000; stroke-width: 1.5;" x1="965.5" x2="1064.5" y1="1037.4688" y2="1037.4688"/><line style="stroke: #000000; stroke-width: 1.5;" x1="965.5" x2="1064.5" y1="1045.4688" y2="1045.4688"/><text fill="#000000" font-family="sans-serif" font-size="11" lengthAdjust="spacingAndGlyphs" textLength="68" x="970.5" y="1059.6792">resetLogin()</text><text fill="#000000" font-family="sans-serif" font-size="11" lengthAdjust="spacingAndGlyphs" textLength="59" x="970.5" y="1072.4839">addLogin()</text><text fill="#000000" font-family="sans-serif" font-size="11" lengthAdjust="spacingAndGlyphs" textLength="89" x="970.5" y="1085.2886">orderProducts()</text><!--class Staff--><rect fill="url(#g12ievzitjgw0c0)" filter="url(#f12ievzitjgw0c)" height="91.1875" id="Staff" style="stroke: #000000; stroke-width: 1.5;" width="138" x="949" y="843"/><text fill="#000000" font-family="sans-serif" font-size="12" lengthAdjust="spacingAndGlyphs" textLength="29" x="1003.5" y="859.1387">Staff</text><line style="stroke: #000000; stroke-width: 1.5;" x1="950" x2="1086" y1="866.9688" y2="866.9688"/><text fill="#000000" font-family="sans-serif" font-size="11" lengthAdjust="spacingAndGlyphs" textLength="58" x="955" y="881.1792">username</text><text fill="#000000" font-family="sans-serif" font-size="11" lengthAdjust="spacingAndGlyphs" textLength="56" x="955" y="893.9839">password</text><line style="stroke: #000000; stroke-width: 1.5;" x1="950" x2="1086" y1="900.5781" y2="900.5781"/><text fill="#000000" font-family="sans-serif" font-size="11" lengthAdjust="spacingAndGlyphs" textLength="35" x="955" y="914.7886">login()</text><text fill="#000000" font-family="sans-serif" font-size="11" lengthAdjust="spacingAndGlyphs" textLength="126" x="955" y="927.5933">addNormalCustomer()</text><!--class NormalCustomer--><rect fill="url(#g12ievzitjgw0c0)" filter="url(#f12ievzitjgw0c)" height="39.9688" id="NormalCustomer" style="stroke: #000000; stroke-width: 1.5;" width="110" x="960" y="679"/><text fill="#000000" font-family="sans-serif" font-size="12" lengthAdjust="spacingAndGlyphs" textLength="104" x="963" y="695.1387">NormalCustomer</text><line style="stroke: #000000; stroke-width: 1.5;" x1="961" x2="1069" y1="702.9688" y2="702.9688"/><line style="stroke: #000000; stroke-width: 1.5;" x1="961" x2="1069" y1="710.9688" y2="710.9688"/><!--class HouseCustomer--><rect fill="url(#g12ievzitjgw0c0)" filter="url(#f12ievzitjgw0c)" height="39.9688" id="HouseCustomer" style="stroke: #000000; stroke-width: 1.5;" width="106" x="1105" y="679"/><text fill="#000000" font-family="sans-serif" font-size="12" lengthAdjust="spacingAndGlyphs" textLength="100" x="1108" y="695.1387">HouseCustomer</text><line style="stroke: #000000; stroke-width: 1.5;" x1="1106" x2="1210" y1="702.9688" y2="702.9688"/><line style="stroke: #000000; stroke-width: 1.5;" x1="1106" x2="1210" y1="710.9688" y2="710.9688"/><!--class MajorCustomer--><rect fill="url(#g12ievzitjgw0c0)" filter="url(#f12ievzitjgw0c)" height="39.9688" id="MajorCustomer" style="stroke: #000000; stroke-width: 1.5;" width="100" x="1122" y="868.5"/><text fill="#000000" font-family="sans-serif" font-size="12" lengthAdjust="spacingAndGlyphs" textLength="94" x="1125" y="884.6387">MajorCustomer</text><line style="stroke: #000000; stroke-width: 1.5;" x1="1123" x2="1221" y1="892.4688" y2="892.4688"/><line style="stroke: #000000; stroke-width: 1.5;" x1="1123" x2="1221" y1="900.4688" y2="900.4688"/><!--class Calendar--><rect fill="url(#g12ievzitjgw0c0)" filter="url(#f12ievzitjgw0c)" height="78.3828" id="Calendar" style="stroke: #000000; stroke-width: 1.5;" width="126" x="952" y="1158"/><text fill="#000000" font-family="sans-serif" font-size="12" lengthAdjust="spacingAndGlyphs" textLength="56" x="987" y="1174.1387">Calendar</text><line style="stroke: #000000; stroke-width: 1.5;" x1="953" x2="1077" y1="1181.9688" y2="1181.9688"/><line style="stroke: #000000; stroke-width: 1.5;" x1="953" x2="1077" y1="1189.9688" y2="1189.9688"/><text fill="#000000" font-family="sans-serif" font-size="11" lengthAdjust="spacingAndGlyphs" textLength="100" x="958" y="1204.1792">addAppointment()</text><text fill="#000000" font-family="sans-serif" font-size="11" lengthAdjust="spacingAndGlyphs" textLength="100" x="958" y="1216.9839">editAppointment()</text><text fill="#000000" font-family="sans-serif" font-size="11" lengthAdjust="spacingAndGlyphs" textLength="114" x="958" y="1229.7886">deleteAppointment()</text><!--class Product--><rect fill="url(#g12ievzitjgw0c0)" filter="url(#f12ievzitjgw0c)" height="142.4063" id="Product" style="stroke: #000000; stroke-width: 1.5;" width="112" x="607" y="628"/><text fill="#000000" font-family="sans-serif" font-size="12" lengthAdjust="spacingAndGlyphs" textLength="49" x="638.5" y="644.1387">Product</text><line style="stroke: #000000; stroke-width: 1.5;" x1="608" x2="718" y1="651.9688" y2="651.9688"/><text fill="#000000" font-family="sans-serif" font-size="11" lengthAdjust="spacingAndGlyphs" textLength="63" x="613" y="666.1792">description</text><text fill="#000000" font-family="sans-serif" font-size="11" lengthAdjust="spacingAndGlyphs" textLength="42" x="613" y="678.9839">bnnInfo</text><text fill="#000000" font-family="sans-serif" font-size="11" lengthAdjust="spacingAndGlyphs" textLength="21" x="613" y="691.7886">ean</text><text fill="#000000" font-family="sans-serif" font-size="11" lengthAdjust="spacingAndGlyphs" textLength="83" x="613" y="704.5933">quantityStored</text><text fill="#000000" font-family="sans-serif" font-size="11" lengthAdjust="spacingAndGlyphs" textLength="100" x="613" y="717.3979">quantityDisplayed</text><text fill="#000000" font-family="sans-serif" font-size="11" lengthAdjust="spacingAndGlyphs" textLength="28" x="613" y="730.2026">price</text><line style="stroke: #000000; stroke-width: 1.5;" x1="608" x2="718" y1="736.7969" y2="736.7969"/><text fill="#000000" font-family="sans-serif" font-size="11" lengthAdjust="spacingAndGlyphs" textLength="54" x="613" y="751.0073">getPrice()</text><text fill="#000000" font-family="sans-serif" font-size="11" lengthAdjust="spacingAndGlyphs" textLength="90" x="613" y="763.812">getProductInfo()</text><!--class ProductList--><rect fill="url(#g12ievzitjgw0c0)" filter="url(#f12ievzitjgw0c)" height="65.5781" id="ProductList" style="stroke: #000000; stroke-width: 1.5;" width="98" x="335" y="470"/><text fill="#000000" font-family="sans-serif" font-size="12" lengthAdjust="spacingAndGlyphs" textLength="70" x="349" y="486.1387">ProductList</text><line style="stroke: #000000; stroke-width: 1.5;" x1="336" x2="432" y1="493.9688" y2="493.9688"/><line style="stroke: #000000; stroke-width: 1.5;" x1="336" x2="432" y1="501.9688" y2="501.9688"/><text fill="#000000" font-family="sans-serif" font-size="11" lengthAdjust="spacingAndGlyphs" textLength="72" x="341" y="516.1792">addProduct()</text><text fill="#000000" font-family="sans-serif" font-size="11" lengthAdjust="spacingAndGlyphs" textLength="86" x="341" y="528.9839">deleteProduct()</text><!--class DistributorList--><rect fill="url(#g12ievzitjgw0c0)" filter="url(#f12ievzitjgw0c)" height="39.9688" id="DistributorList" style="stroke: #000000; stroke-width: 1.5;" width="93" x="463.5" y="679"/><text fill="#000000" font-family="sans-serif" font-size="12" lengthAdjust="spacingAndGlyphs" textLength="87" x="466.5" y="695.1387">DistributorList</text><line style="stroke: #000000; stroke-width: 1.5;" x1="464.5" x2="555.5" y1="702.9688" y2="702.9688"/><line style="stroke: #000000; stroke-width: 1.5;" x1="464.5" x2="555.5" y1="710.9688" y2="710.9688"/><!--class OrderableProducts--><rect fill="url(#g12ievzitjgw0c0)" filter="url(#f12ievzitjgw0c)" height="39.9688" id="OrderableProducts" style="stroke: #000000; stroke-width: 1.5;" width="124" x="304" y="679"/><text fill="#000000" font-family="sans-serif" font-size="12" lengthAdjust="spacingAndGlyphs" textLength="118" x="307" y="695.1387">OrderableProducts</text><line style="stroke: #000000; stroke-width: 1.5;" x1="305" x2="427" y1="702.9688" y2="702.9688"/><line style="stroke: #000000; stroke-width: 1.5;" x1="305" x2="427" y1="710.9688" y2="710.9688"/><!--class LabelGenerator--><rect fill="url(#g12ievzitjgw0c0)" filter="url(#f12ievzitjgw0c)" height="78.3828" id="LabelGenerator" style="stroke: #000000; stroke-width: 1.5;" width="120" x="618" y="849.5"/><text fill="#000000" font-family="sans-serif" font-size="12" lengthAdjust="spacingAndGlyphs" textLength="97" x="629.5" y="865.6387">LabelGenerator</text><line style="stroke: #000000; stroke-width: 1.5;" x1="619" x2="737" y1="873.4688" y2="873.4688"/><line style="stroke: #000000; stroke-width: 1.5;" x1="619" x2="737" y1="881.4688" y2="881.4688"/><text fill="#000000" font-family="sans-serif" font-size="11" lengthAdjust="spacingAndGlyphs" textLength="77" x="624" y="895.6792">printLabelAll()</text><text fill="#000000" font-family="sans-serif" font-size="11" lengthAdjust="spacingAndGlyphs" textLength="107" x="624" y="908.4839">printLabelProduct()</text><text fill="#000000" font-family="sans-serif" font-size="11" lengthAdjust="spacingAndGlyphs" textLength="108" x="624" y="921.2886">generateBarCode()</text><!--class Distributor--><rect fill="url(#g12ievzitjgw0c0)" filter="url(#f12ievzitjgw0c)" height="116.7969" id="Distributor" style="stroke: #000000; stroke-width: 1.5;" width="145" x="437.5" y="830"/><text fill="#000000" font-family="sans-serif" font-size="12" lengthAdjust="spacingAndGlyphs" textLength="66" x="477" y="846.1387">Distributor</text><line style="stroke: #000000; stroke-width: 1.5;" x1="438.5" x2="581.5" y1="853.9688" y2="853.9688"/><text fill="#000000" font-family="sans-serif" font-size="11" lengthAdjust="spacingAndGlyphs" textLength="84" x="443.5" y="868.1792">companyName</text><text fill="#000000" font-family="sans-serif" font-size="11" lengthAdjust="spacingAndGlyphs" textLength="47" x="443.5" y="880.9839">address</text><text fill="#000000" font-family="sans-serif" font-size="11" lengthAdjust="spacingAndGlyphs" textLength="83" x="443.5" y="893.7886">contactPartner</text><text fill="#000000" font-family="sans-serif" font-size="11" lengthAdjust="spacingAndGlyphs" textLength="133" x="443.5" y="906.5933">minimumOrderQuantity</text><text fill="#000000" font-family="sans-serif" font-size="11" lengthAdjust="spacingAndGlyphs" textLength="97" x="443.5" y="919.3979">paymentMethods</text><text fill="#000000" font-family="sans-serif" font-size="11" lengthAdjust="spacingAndGlyphs" textLength="62" x="443.5" y="932.2026">taxNumber</text><line style="stroke: #000000; stroke-width: 1.5;" x1="438.5" x2="581.5" y1="938.7969" y2="938.7969"/><!--class Order--><rect fill="url(#g12ievzitjgw0c0)" filter="url(#f12ievzitjgw0c)" height="91.1875" id="Order" style="stroke: #000000; stroke-width: 1.5;" width="156" x="37" y="1007"/><text fill="#000000" font-family="sans-serif" font-size="12" lengthAdjust="spacingAndGlyphs" textLength="35" x="97.5" y="1023.1387">Order</text><line style="stroke: #000000; stroke-width: 1.5;" x1="38" x2="192" y1="1030.9688" y2="1030.9688"/><text fill="#000000" font-family="sans-serif" font-size="11" lengthAdjust="spacingAndGlyphs" textLength="10" x="43" y="1045.1792">id</text><text fill="#000000" font-family="sans-serif" font-size="11" lengthAdjust="spacingAndGlyphs" textLength="40" x="43" y="1057.9839">arrived</text><text fill="#000000" font-family="sans-serif" font-size="11" lengthAdjust="spacingAndGlyphs" textLength="42" x="43" y="1070.7886">content</text><line style="stroke: #000000; stroke-width: 1.5;" x1="38" x2="192" y1="1077.3828" y2="1077.3828"/><text fill="#000000" font-family="sans-serif" font-size="11" lengthAdjust="spacingAndGlyphs" textLength="144" x="43" y="1091.5933">placeContentInInventory()</text><!--class OrderAssistant--><rect fill="url(#g12ievzitjgw0c0)" filter="url(#f12ievzitjgw0c)" height="65.5781" id="OrderAssistant" style="stroke: #000000; stroke-width: 1.5;" width="167" x="235.5" y="855.5"/><text fill="#000000" font-family="sans-serif" font-size="12" lengthAdjust="spacingAndGlyphs" textLength="93" x="272.5" y="871.6387">OrderAssistant</text><line style="stroke: #000000; stroke-width: 1.5;" x1="236.5" x2="401.5" y1="879.4688" y2="879.4688"/><line style="stroke: #000000; stroke-width: 1.5;" x1="236.5" x2="401.5" y1="887.4688" y2="887.4688"/><text fill="#000000" font-family="sans-serif" font-size="11" lengthAdjust="spacingAndGlyphs" textLength="155" x="241.5" y="901.6792">getLowestPriceForProduct()</text><text fill="#000000" font-family="sans-serif" font-size="11" lengthAdjust="spacingAndGlyphs" textLength="39" x="241.5" y="914.4839">order()</text><!--class Inventory--><rect fill="url(#g12ievzitjgw0c0)" filter="url(#f12ievzitjgw0c)" height="91.1875" id="Inventory" style="stroke: #000000; stroke-width: 1.5;" width="170" x="30" y="843"/><text fill="#000000" font-family="sans-serif" font-size="12" lengthAdjust="spacingAndGlyphs" textLength="57" x="86.5" y="859.1387">Inventory</text><line style="stroke: #000000; stroke-width: 1.5;" x1="31" x2="199" y1="866.9688" y2="866.9688"/><text fill="#000000" font-family="sans-serif" font-size="11" lengthAdjust="spacingAndGlyphs" textLength="61" x="36" y="881.1792">profitValue</text><line style="stroke: #000000; stroke-width: 1.5;" x1="31" x2="199" y1="887.7734" y2="887.7734"/><text fill="#000000" font-family="sans-serif" font-size="11" lengthAdjust="spacingAndGlyphs" textLength="87" x="36" y="901.9839">setProfitValue()</text><text fill="#000000" font-family="sans-serif" font-size="11" lengthAdjust="spacingAndGlyphs" textLength="87" x="36" y="914.7886">getProfitValue()</text><text fill="#000000" font-family="sans-serif" font-size="11" lengthAdjust="spacingAndGlyphs" textLength="158" x="36" y="927.5933">getValueOfStoredProducts()</text><!--class Log--><rect fill="url(#g12ievzitjgw0c0)" filter="url(#f12ievzitjgw0c)" height="219.2344" id="Log" style="stroke: #000000; stroke-width: 1.5;" width="163" x="747.5" y="159"/><text fill="#000000" font-family="sans-serif" font-size="12" lengthAdjust="spacingAndGlyphs" textLength="22" x="818" y="175.1387">Log</text><line style="stroke: #000000; stroke-width: 1.5;" x1="748.5" x2="909.5" y1="182.9688" y2="182.9688"/><text fill="#000000" font-family="sans-serif" font-size="11" lengthAdjust="spacingAndGlyphs" textLength="31" x="753.5" y="197.1792">sales</text><text fill="#000000" font-family="sans-serif" font-size="11" lengthAdjust="spacingAndGlyphs" textLength="60" x="753.5" y="209.9839">purchases</text><text fill="#000000" font-family="sans-serif" font-size="11" lengthAdjust="spacingAndGlyphs" textLength="25" x="753.5" y="222.7886">time</text><text fill="#000000" font-family="sans-serif" font-size="11" lengthAdjust="spacingAndGlyphs" textLength="59" x="753.5" y="235.5933">soldWares</text><text fill="#000000" font-family="sans-serif" font-size="11" lengthAdjust="spacingAndGlyphs" textLength="95" x="753.5" y="248.3979">purchasedWares</text><text fill="#000000" font-family="sans-serif" font-size="11" lengthAdjust="spacingAndGlyphs" textLength="85" x="753.5" y="261.2026">stolenProducts</text><line style="stroke: #000000; stroke-width: 1.5;" x1="748.5" x2="909.5" y1="267.7969" y2="267.7969"/><text fill="#000000" font-family="sans-serif" font-size="11" lengthAdjust="spacingAndGlyphs" textLength="65" x="753.5" y="282.0073">getStatics()</text><text fill="#000000" font-family="sans-serif" font-size="11" lengthAdjust="spacingAndGlyphs" textLength="58" x="753.5" y="294.812">getSales()</text><text fill="#000000" font-family="sans-serif" font-size="11" lengthAdjust="spacingAndGlyphs" textLength="86" x="753.5" y="307.6167">getPurchases()</text><text fill="#000000" font-family="sans-serif" font-size="11" lengthAdjust="spacingAndGlyphs" textLength="54" x="753.5" y="320.4214">getTime()</text><text fill="#000000" font-family="sans-serif" font-size="11" lengthAdjust="spacingAndGlyphs" textLength="86" x="753.5" y="333.2261">getSoldWares()</text><text fill="#000000" font-family="sans-serif" font-size="11" lengthAdjust="spacingAndGlyphs" textLength="121" x="753.5" y="346.0308">getPurchasedWares()</text><text fill="#000000" font-family="sans-serif" font-size="11" lengthAdjust="spacingAndGlyphs" textLength="151" x="753.5" y="358.8354">getCustomerPreferences()</text><text fill="#000000" font-family="sans-serif" font-size="11" lengthAdjust="spacingAndGlyphs" textLength="112" x="753.5" y="371.6401">getStolenProducts()</text><!--class ShoppingCart--><rect fill="url(#g12ievzitjgw0c0)" filter="url(#f12ievzitjgw0c)" height="129.6016" id="ShoppingCart" style="stroke: #000000; stroke-width: 1.5;" width="116" x="768" y="438"/><text fill="#000000" font-family="sans-serif" font-size="12" lengthAdjust="spacingAndGlyphs" textLength="85" x="783.5" y="454.1387">ShoppingCart</text><line style="stroke: #000000; stroke-width: 1.5;" x1="769" x2="883" y1="461.9688" y2="461.9688"/><line style="stroke: #000000; stroke-width: 1.5;" x1="769" x2="883" y1="469.9688" y2="469.9688"/><text fill="#000000" font-family="sans-serif" font-size="11" lengthAdjust="spacingAndGlyphs" textLength="72" x="774" y="484.1792">addProduct()</text><text fill="#000000" font-family="sans-serif" font-size="11" lengthAdjust="spacingAndGlyphs" textLength="86" x="774" y="496.9839">deleteProduct()</text><text fill="#000000" font-family="sans-serif" font-size="11" lengthAdjust="spacingAndGlyphs" textLength="86" x="774" y="509.7886">calculatePrice()</text><text fill="#000000" font-family="sans-serif" font-size="11" lengthAdjust="spacingAndGlyphs" textLength="74" x="774" y="522.5933">giveChange()</text><text fill="#000000" font-family="sans-serif" font-size="11" lengthAdjust="spacingAndGlyphs" textLength="57" x="774" y="535.3979">cancelAll()</text><text fill="#000000" font-family="sans-serif" font-size="11" lengthAdjust="spacingAndGlyphs" textLength="87" x="774" y="548.2026">cancelProduct()</text><text fill="#000000" font-family="sans-serif" font-size="11" lengthAdjust="spacingAndGlyphs" textLength="104" x="774" y="561.0073">enterCustomerId()</text><!--class Database--><rect fill="url(#g12ievzitjgw0c0)" filter="url(#f12ievzitjgw0c)" height="91.1875" id="Database" style="stroke: #000000; stroke-width: 1.5;" width="67" x="476.5" y="8"/><text fill="#000000" font-family="sans-serif" font-size="12" lengthAdjust="spacingAndGlyphs" textLength="61" x="479.5" y="24.1387">Database</text><line style="stroke: #000000; stroke-width: 1.5;" x1="477.5" x2="542.5" y1="31.9688" y2="31.9688"/><line style="stroke: #000000; stroke-width: 1.5;" x1="477.5" x2="542.5" y1="39.9688" y2="39.9688"/><text fill="#000000" font-family="sans-serif" font-size="11" lengthAdjust="spacingAndGlyphs" textLength="31" x="482.5" y="54.1792">sort()</text><text fill="#000000" font-family="sans-serif" font-size="11" lengthAdjust="spacingAndGlyphs" textLength="29" x="482.5" y="66.9839">add()</text><text fill="#000000" font-family="sans-serif" font-size="11" lengthAdjust="spacingAndGlyphs" textLength="43" x="482.5" y="79.7886">delete()</text><text fill="#000000" font-family="sans-serif" font-size="11" lengthAdjust="spacingAndGlyphs" textLength="47" x="482.5" y="92.5933">search()</text><!--link Person to Customer--><path d="M1180,334.0392 C1180,334.0392 1180,482 1180,482 C1180,482 1119.2607,482 1075.6044,482 " fill="none" id="Person-Customer" style="stroke: #000000; stroke-width: 1.0;"/><polygon fill="none" points="1173.0001,334.0393,1180,314.0392,1187.0001,334.0392,1173.0001,334.0393" style="stroke: #000000; stroke-width: 1.0;"/><!--link Staff to Manager--><path d="M1015,954.1831 C1015,954.1831 1015,1013.4539 1015,1013.4539 " fill="none" id="Staff-Manager" style="stroke: #000000; stroke-width: 1.0;"/><polygon fill="none" points="1008.0001,954.1832,1015,934.1831,1022.0001,954.1831,1008.0001,954.1832" style="stroke: #000000; stroke-width: 1.0;"/><!--link Customer to NormalCustomer--><path d="M1029.25,588.2652 C1029.25,588.2652 1029.25,678.8343 1029.25,678.8343 " fill="none" id="Customer-NormalCustomer" style="stroke: #000000; stroke-width: 1.0;"/><polygon fill="none" points="1022.2501,588.2652,1029.25,568.2652,1036.2501,588.2651,1022.2501,588.2652" style="stroke: #000000; stroke-width: 1.0;"/><!--link Customer to HouseCustomer--><path d="M1095.8739,525 C1095.8739,525 1109.75,525 1109.75,525 C1109.75,525 1109.75,632.8002 1109.75,678.6995 " fill="none" id="Customer-HouseCustomer" style="stroke: #000000; stroke-width: 1.0;"/><polygon fill="none" points="1095.8739,531.9999,1075.8739,525,1095.8739,517.9999,1095.8739,531.9999" style="stroke: #000000; stroke-width: 1.0;"/><!--link HouseCustomer to MajorCustomer--><path d="M1166.5,739.2798 C1166.5,739.2798 1166.5,868.366 1166.5,868.366 " fill="none" id="HouseCustomer-MajorCustomer" style="stroke: #000000; stroke-width: 1.0;"/><polygon fill="none" points="1159.5001,739.2799,1166.5,719.2798,1173.5001,739.2798,1159.5001,739.2799" style="stroke: #000000; stroke-width: 1.0;"/><!--link HouseCustomer to Staff--><path d="M1113.5,739.2036 C1113.5,739.2036 1113.5,856 1113.5,856 C1113.5,856 1102.0867,856 1087.1514,856 " fill="none" id="HouseCustomer-Staff" style="stroke: #000000; stroke-width: 1.0;"/><polygon fill="none" points="1106.5001,739.2036,1113.5,719.2036,1120.5001,739.2036,1106.5001,739.2036" style="stroke: #000000; stroke-width: 1.0;"/><!--link Manager to Calendar--><path d="M1015,1091.6038 C1015,1091.6038 1015,1152.865 1015,1152.865 " fill="none" id="Manager-Calendar" style="stroke: #000000; stroke-width: 1.0;"/><polygon fill="#000000" points="1015,1157.865,1019,1148.865,1015,1152.865,1011,1148.865,1015,1157.865" style="stroke: #000000; stroke-width: 1.0;"/><text fill="#000000" font-family="sans-serif" font-size="13" lengthAdjust="spacingAndGlyphs" textLength="8" x="1006.2875" y="1111.9497">1</text><text fill="#000000" font-family="sans-serif" font-size="13" lengthAdjust="spacingAndGlyphs" textLength="8" x="1006.3125" y="1146.895">1</text><!--link CustomerList to Customer--><path d="M1046.5,307.75 C1046.5,343.2144 1046.5,396.1026 1046.5,437.8928 " fill="none" id="CustomerList-Customer" style="stroke: #000000; stroke-width: 1.0;"/><text fill="#000000" font-family="sans-serif" font-size="13" lengthAdjust="spacingAndGlyphs" textLength="8" x="1040.3047" y="327.8306">1</text><text fill="#000000" font-family="sans-serif" font-size="13" lengthAdjust="spacingAndGlyphs" textLength="23" x="1023.8281" y="427.0473">0..*</text><!--link Database to CustomerList--><path d="M563.8477,54 C563.8477,54 1032,54 1032,54 C1032,54 1032,167.2331 1032,229.1574 " fill="none" id="Database-CustomerList" style="stroke: #000000; stroke-width: 1.0;"/><polygon fill="none" points="563.8477,60.9999,543.8477,54,563.8476,46.9999,563.8477,60.9999" style="stroke: #000000; stroke-width: 1.0;"/><!--link OrderableProducts to DistributorList--><path d="M428.323,699 C428.323,699 450.2147,699 450.2147,699 " fill="none" id="OrderableProducts-DistributorList" style="stroke: #000000; stroke-width: 1.0;"/><polygon fill="#FFFFFF" points="463.2147,699,457.2147,695,451.2147,699,457.2147,703,463.2147,699" style="stroke: #000000; stroke-width: 1.0;"/><text fill="#000000" font-family="sans-serif" font-size="13" lengthAdjust="spacingAndGlyphs" textLength="8" x="435.9916" y="695.2092">1</text><text fill="#000000" font-family="sans-serif" font-size="13" lengthAdjust="spacingAndGlyphs" textLength="8" x="447.4382" y="694.931">1</text><!--link DistributorList to Distributor--><path d="M510,732.2798 C510,732.2798 510,829.7579 510,829.7579 " fill="none" id="DistributorList-Distributor" style="stroke: #000000; stroke-width: 1.0;"/><polygon fill="#FFFFFF" points="510,719.2798,506,725.2798,510,731.2798,514,725.2798,510,719.2798" style="stroke: #000000; stroke-width: 1.0;"/><text fill="#000000" font-family="sans-serif" font-size="13" lengthAdjust="spacingAndGlyphs" textLength="8" x="500.875" y="739.1828">1</text><text fill="#000000" font-family="sans-serif" font-size="13" lengthAdjust="spacingAndGlyphs" textLength="23" x="485.5984" y="818.772">0..*</text><!--link Database to DistributorList--><path d="M521.1667,119.1475 C521.1667,119.1475 521.1667,678.9647 521.1667,678.9647 " fill="none" id="Database-DistributorList" style="stroke: #000000; stroke-width: 1.0;"/><polygon fill="none" points="514.1668,119.1475,521.1667,99.1475,528.1668,119.1475,514.1668,119.1475" style="stroke: #000000; stroke-width: 1.0;"/><!--link Database to ProductList--><path d="M498.8333,119.0741 C498.8333,119.0741 498.8333,503 498.8333,503 C498.8333,503 464.2441,503 433.0328,503 " fill="none" id="Database-ProductList" style="stroke: #000000; stroke-width: 1.0;"/><polygon fill="none" points="491.8334,119.0742,498.8333,99.0741,505.8334,119.0741,491.8334,119.0742" style="stroke: #000000; stroke-width: 1.0;"/><!--link ProductList to Product--><path d="M397,549.1376 C397,549.1376 397,654 397,654 C397,654 528.8719,654 606.9133,654 " fill="none" id="ProductList-Product" style="stroke: #000000; stroke-width: 1.0;"/><polygon fill="#FFFFFF" points="397,536.1376,393,542.1376,397,548.1376,401,542.1376,397,536.1376" style="stroke: #000000; stroke-width: 1.0;"/><text fill="#000000" font-family="sans-serif" font-size="13" lengthAdjust="spacingAndGlyphs" textLength="8" x="390.6594" y="555.7482">1</text><text fill="#000000" font-family="sans-serif" font-size="13" lengthAdjust="spacingAndGlyphs" textLength="23" x="576.0986" y="644.9808">0..*</text><!--link Product to LabelGenerator--><path d="M668.5,783.102 C668.5,783.102 668.5,849.4652 668.5,849.4652 " fill="none" id="Product-LabelGenerator" style="stroke: #000000; stroke-width: 1.0;"/><polygon fill="#000000" points="668.5,770.102,664.5,776.102,668.5,782.102,672.5,776.102,668.5,770.102" style="stroke: #000000; stroke-width: 1.0;"/><text fill="#000000" font-family="sans-serif" font-size="13" lengthAdjust="spacingAndGlyphs" textLength="23" x="644.8813" y="790.2606">1..*</text><text fill="#000000" font-family="sans-serif" font-size="13" lengthAdjust="spacingAndGlyphs" textLength="8" x="658.1797" y="838.5124">1</text><!--link ProductList to OrderableProducts--><path d="M366,556.2487 C366,556.2487 366,678.8057 366,678.8057 " fill="none" id="ProductList-OrderableProducts" style="stroke: #000000; stroke-width: 1.0;"/><polygon fill="none" points="359.0001,556.2488,366,536.2487,373.0001,556.2487,359.0001,556.2488" style="stroke: #000000; stroke-width: 1.0;"/><!--link Product to Distributor--><path d="M612.5,770.0212 C612.5,803.8345 612.5,837 612.5,837 C612.5,837 595.5772,837 595.5772,837 " fill="none" id="Product-Distributor" style="stroke: #000000; stroke-width: 1.0;"/><polygon fill="#000000" points="582.5772,837,588.5772,841,594.5772,837,588.5772,833,582.5772,837" style="stroke: #000000; stroke-width: 1.0;"/><text fill="#000000" font-family="sans-serif" font-size="13" lengthAdjust="spacingAndGlyphs" textLength="23" x="582.7188" y="790.6614">1..*</text><text fill="#000000" font-family="sans-serif" font-size="13" lengthAdjust="spacingAndGlyphs" textLength="8" x="590.4742" y="827.9998">1</text><!--link Inventory to Order--><path d="M115,939.1831 C115,939.1831 115,1006.7777 115,1006.7777 " fill="none" id="Inventory-Order" style="stroke: #000000; stroke-width: 1.0;"/><polygon fill="#000000" points="115,934.1831,111,943.1831,115,939.1831,119,943.1831,115,934.1831" style="stroke: #000000; stroke-width: 1.0;"/><!--link OrderableProducts to OrderAssistant--><path d="M353.25,724.2798 C353.25,724.2798 353.25,855.3765 353.25,855.3765 " fill="none" id="OrderableProducts-OrderAssistant" style="stroke: #000000; stroke-width: 1.0;"/><polygon fill="#000000" points="353.25,719.2798,349.25,728.2798,353.25,724.2798,357.25,728.2798,353.25,719.2798" style="stroke: #000000; stroke-width: 1.0;"/><!--link ProductList to Inventory--><path d="M314.974,503 C314.974,503 115,503 115,503 C115,503 115,740.6493 115,842.7643 " fill="none" id="ProductList-Inventory" style="stroke: #000000; stroke-width: 1.0;"/><polygon fill="none" points="314.9741,495.9999,334.974,503,314.974,509.9999,314.9741,495.9999" style="stroke: #000000; stroke-width: 1.0;"/><!--link OrderAssistant to Manager--><path d="M319,926.789 C319,926.789 319,1053 319,1053 C319,1053 804.2232,1053 964.3848,1053 " fill="none" id="OrderAssistant-Manager" style="stroke: #000000; stroke-width: 1.0;"/><polygon fill="#000000" points="319,921.789,315,930.789,319,926.789,323,930.789,319,921.789" style="stroke: #000000; stroke-width: 1.0;"/><!--link Log to Customer--><path d="M910.5825,346 C961.5268,346 1017.5,346 1017.5,346 C1017.5,346 1017.5,432.7818 1017.5,432.7818 " fill="none" id="Log-Customer" style="stroke: #000000; stroke-width: 1.0;"/><polygon fill="#000000" points="1017.5,437.7818,1021.5,428.7818,1017.5,432.7818,1013.5,428.7818,1017.5,437.7818" style="stroke: #000000; stroke-width: 1.0;"/><!--link Log to ShoppingCart--><path d="M826,383.1975 C826,383.1975 826,437.787 826,437.787 " fill="none" id="Log-ShoppingCart" style="stroke: #000000; stroke-width: 1.0;"/><polygon fill="#000000" points="826,378.1975,822,387.1975,826,383.1975,830,387.1975,826,378.1975" style="stroke: #000000; stroke-width: 1.0;"/><!--link ShoppingCart to Product--><path d="M767.6137,552 C720.8425,552 663,552 663,552 C663,552 663,614.653 663,614.653 " fill="none" id="ShoppingCart-Product" style="stroke: #000000; stroke-width: 1.0;"/><polygon fill="#000000" points="663,627.653,667,621.653,663,615.653,659,621.653,663,627.653" style="stroke: #000000; stroke-width: 1.0;"/><text fill="#000000" font-family="sans-serif" font-size="13" lengthAdjust="spacingAndGlyphs" textLength="8" x="752.0104" y="554.1571">1</text><text fill="#000000" font-family="sans-serif" font-size="13" lengthAdjust="spacingAndGlyphs" textLength="23" x="638.868" y="616.9449">1..*</text><!--
@startuml
skinparam linetype ortho
hide circle

skinparam class {
	BackgroundColor #GreenYellow/LightGoldenRodYellow
    BorderColor Black
    ArrowColor  Black
}

skinparam package {
    FontColor Grey
    BorderColor Green
    shadowing false
}

class Database{
    sort()
    add()
    delete()
    search()
}

package UserDepartment {

class CustomerList{
    addCustomer()
    deleteCustomer()
    setCustomerPermissions()
}

class Person{
    name
    adresse
    email
    phoneNr
}


class Customer{
    preferences
    discount
    id
    permissions
    getCatalog()
    setDiscount()
    getDiscount()
}

class Manager{
    resetLogin()
    addLogin()
    orderProducts()
}


Person ^- - Customer


Staff ^- - Manager


Customer ^- - NormalCustomer
Customer ^- - HouseCustomer
HouseCustomer ^- - MajorCustomer
HouseCustomer ^- - Staff


class Staff{
    username
    password

    login()
    addNormalCustomer()
}

Manager "1" - -> "1" Calendar
CustomerList "1" - - "0..*" Customer
Database ^- - CustomerList

}


class Calendar{
    addAppointment()
    editAppointment()
    deleteAppointment()
}







package ProductDepartment{
    class Product{
        description
        bnnInfo
        ean
        quantityStored
        quantityDisplayed
        price

        getPrice()
        getProductInfo()

    }

    class ProductList{
        addProduct()
        deleteProduct()
    }

    class DistributorList{

    }

    class OrderableProducts{

    }

    class LabelGenerator{
        printLabelAll()
        printLabelProduct()
        generateBarCode()
    }

    class Distributor{
        companyName
        address
        contactPartner
        minimumOrderQuantity
        paymentMethods
        taxNumber
    }

    OrderableProducts "1" -left-o "1" DistributorList
    DistributorList "1" o- - "0..*" Distributor

    Database ^- - DistributorList




    ProductList -up-^ Database
    ProductList "1" o- - "0..*" Product
    Product "1..*" *- - "1" LabelGenerator
    ProductList ^- - OrderableProducts

    Product "1..*" - -* "1" Distributor

    package InventoryDepartment{

        class Order{
            id
            arrived
            content

            placeContentInInventory()
        }

        class OrderAssistant{
            getLowestPriceForProduct()
            order()
        }

        class Inventory {
            profitValue

            setProfitValue()
            getProfitValue()
            getValueOfStoredProducts()
        }

        Order -up-> Inventory
        OrderableProducts <- - OrderAssistant
        ProductList ^- - Inventory
        OrderAssistant <- - Manager

    }

}

package DataDepartment {


    class Log{
        sales
        purchases
        time
        soldWares
        purchasedWares
        stolenProducts

        getStatics()
        getSales()
        getPurchases()
        getTime()
        getSoldWares()
        getPurchasedWares()
        getCustomerPreferences()
        getStolenProducts()
    }


    Log -right-> Customer


}

package FinancesDepartment {


    class ShoppingCart{
        addProduct()
        deleteProduct()
        calculatePrice()
        giveChange()
        cancelAll()
        cancelProduct()
        enterCustomerId()
    }

    Log <- - ShoppingCart

    ShoppingCart "1" - -* "1..*" Product



}

@enduml

PlantUML version 1.2018.11(Sat Sep 22 18:43:53 CEST 2018)
(GPL source distribution)
Java Runtime: OpenJDK Runtime Environment
JVM: OpenJDK 64-Bit Server VM
Java Version: 10.0.2+13-Ubuntu-1ubuntu0.18.04.1
Operating System: Linux
OS Version: 4.15.0-33-generic
Default Encoding: UTF-8
Language: en
Country: US
--></g></svg>