<?xml version="1.0" encoding="UTF-8" standalone="no"?><svg xmlns="http://www.w3.org/2000/svg" xmlns:xlink="http://www.w3.org/1999/xlink" contentScriptType="application/ecmascript" contentStyleType="text/css" height="1505px" preserveAspectRatio="none" style="width:1770px;height:1505px;" version="1.1" viewBox="0 0 1770 1505" width="1770px" zoomAndPan="magnify"><defs><linearGradient id="gdiubiqfm2ok20" x1="0%" x2="100%" y1="0%" y2="100%"><stop offset="0%" stop-color="#ADFF2F"/><stop offset="100%" stop-color="#FAFAD2"/></linearGradient><filter height="300%" id="fdiubiqfm2ok2" width="300%" x="-1" y="-1"><feGaussianBlur result="blurOut" stdDeviation="2.0"/><feColorMatrix in="blurOut" result="blurOut2" type="matrix" values="0 0 0 0 0 0 0 0 0 0 0 0 0 0 0 0 0 0 .4 0"/><feOffset dx="4.0" dy="4.0" in="blurOut2" result="blurOut3"/><feBlend in="SourceGraphic" in2="blurOut3" mode="normal"/></filter></defs><g><!--cluster UserDepartment--><polygon fill="#FFFFFF" points="14,151.5,150,151.5,157,173.7969,303,173.7969,303,1493,14,1493,14,151.5" style="stroke: #008000; stroke-width: 1.5;"/><line style="stroke: #008000; stroke-width: 1.5;" x1="14" x2="157" y1="173.7969" y2="173.7969"/><text fill="#808080" font-family="sans-serif" font-size="14" font-weight="bold" lengthAdjust="spacingAndGlyphs" textLength="130" x="18" y="166.4951">UserDepartment</text><!--cluster ProductDepartment--><polygon fill="#FFFFFF" points="914,177,1075,177,1082,199.2969,1721,199.2969,1721,1304,914,1304,914,177" style="stroke: #008000; stroke-width: 1.5;"/><line style="stroke: #008000; stroke-width: 1.5;" x1="914" x2="1082" y1="199.2969" y2="199.2969"/><text fill="#808080" font-family="sans-serif" font-size="14" font-weight="bold" lengthAdjust="spacingAndGlyphs" textLength="155" x="918" y="191.9951">ProductDepartment</text><!--cluster InventoryDepartment--><polygon fill="#FFFFFF" points="1325,462,1499,462,1506,484.2969,1713,484.2969,1713,1284.5,1325,1284.5,1325,462" style="stroke: #008000; stroke-width: 1.5;"/><line style="stroke: #008000; stroke-width: 1.5;" x1="1325" x2="1506" y1="484.2969" y2="484.2969"/><text fill="#808080" font-family="sans-serif" font-size="14" font-weight="bold" lengthAdjust="spacingAndGlyphs" textLength="168" x="1329" y="476.9951">InventoryDepartment</text><!--cluster DataDepartment--><polygon fill="#FFFFFF" points="311,436.5,445,436.5,452,458.7969,455,458.7969,455,929,311,929,311,436.5" style="stroke: #008000; stroke-width: 1.5;"/><line style="stroke: #008000; stroke-width: 1.5;" x1="311" x2="452" y1="458.7969" y2="458.7969"/><text fill="#808080" font-family="sans-serif" font-size="14" font-weight="bold" lengthAdjust="spacingAndGlyphs" textLength="128" x="315" y="451.4951">DataDepartment</text><!--cluster FinancesDepartment--><polygon fill="#FFFFFF" points="463,651,632,651,639,673.2969,642,673.2969,642,1113,463,1113,463,651" style="stroke: #008000; stroke-width: 1.5;"/><line style="stroke: #008000; stroke-width: 1.5;" x1="463" x2="639" y1="673.2969" y2="673.2969"/><text fill="#808080" font-family="sans-serif" font-size="14" font-weight="bold" lengthAdjust="spacingAndGlyphs" textLength="163" x="467" y="665.9951">FinancesDepartment</text><!--class UserList--><rect fill="url(#gdiubiqfm2ok20)" filter="url(#fdiubiqfm2ok2)" height="52.7734" id="UserList" style="stroke: #000000; stroke-width: 1.5;" width="92" x="108" y="216.5"/><text fill="#000000" font-family="sans-serif" font-size="12" lengthAdjust="spacingAndGlyphs" textLength="50" x="129" y="232.6387">UserList</text><line style="stroke: #000000; stroke-width: 1.5;" x1="109" x2="199" y1="240.4688" y2="240.4688"/><line style="stroke: #000000; stroke-width: 1.5;" x1="109" x2="199" y1="248.4688" y2="248.4688"/><text fill="#000000" font-family="sans-serif" font-size="11" lengthAdjust="spacingAndGlyphs" textLength="80" x="114" y="262.6792">setUserType()</text><!--class Person--><rect fill="url(#gdiubiqfm2ok20)" filter="url(#fdiubiqfm2ok2)" height="91.1875" id="Person" style="stroke: #000000; stroke-width: 1.5;" width="60" x="235" y="197.5"/><text fill="#000000" font-family="sans-serif" font-size="12" lengthAdjust="spacingAndGlyphs" textLength="44" x="243" y="213.6387">Person</text><line style="stroke: #000000; stroke-width: 1.5;" x1="236" x2="294" y1="221.4688" y2="221.4688"/><text fill="#000000" font-family="sans-serif" font-size="11" lengthAdjust="spacingAndGlyphs" textLength="32" x="241" y="235.6792">name</text><text fill="#000000" font-family="sans-serif" font-size="11" lengthAdjust="spacingAndGlyphs" textLength="47" x="241" y="248.4839">address</text><text fill="#000000" font-family="sans-serif" font-size="11" lengthAdjust="spacingAndGlyphs" textLength="31" x="241" y="261.2886">email</text><text fill="#000000" font-family="sans-serif" font-size="11" lengthAdjust="spacingAndGlyphs" textLength="48" x="241" y="274.0933">phoneNr</text><line style="stroke: #000000; stroke-width: 1.5;" x1="236" x2="294" y1="280.6875" y2="280.6875"/><!--class Customer--><rect fill="url(#gdiubiqfm2ok20)" filter="url(#fdiubiqfm2ok2)" height="129.6016" id="Customer" style="stroke: #000000; stroke-width: 1.5;" width="87" x="193.5" y="476"/><text fill="#000000" font-family="sans-serif" font-size="12" lengthAdjust="spacingAndGlyphs" textLength="60" x="207" y="492.1387">Customer</text><line style="stroke: #000000; stroke-width: 1.5;" x1="194.5" x2="279.5" y1="499.9688" y2="499.9688"/><text fill="#000000" font-family="sans-serif" font-size="11" lengthAdjust="spacingAndGlyphs" textLength="69" x="199.5" y="514.1792">preferences</text><text fill="#000000" font-family="sans-serif" font-size="11" lengthAdjust="spacingAndGlyphs" textLength="48" x="199.5" y="526.9839">discount</text><text fill="#000000" font-family="sans-serif" font-size="11" lengthAdjust="spacingAndGlyphs" textLength="10" x="199.5" y="539.7886">id</text><text fill="#000000" font-family="sans-serif" font-size="11" lengthAdjust="spacingAndGlyphs" textLength="71" x="199.5" y="552.5933">permissions</text><line style="stroke: #000000; stroke-width: 1.5;" x1="194.5" x2="279.5" y1="559.1875" y2="559.1875"/><text fill="#000000" font-family="sans-serif" font-size="11" lengthAdjust="spacingAndGlyphs" textLength="69" x="199.5" y="573.3979">getCatalog()</text><text fill="#000000" font-family="sans-serif" font-size="11" lengthAdjust="spacingAndGlyphs" textLength="75" x="199.5" y="586.2026">setDiscount()</text><text fill="#000000" font-family="sans-serif" font-size="11" lengthAdjust="spacingAndGlyphs" textLength="75" x="199.5" y="599.0073">getDiscount()</text><!--class Manager--><rect fill="url(#gdiubiqfm2ok20)" filter="url(#fdiubiqfm2ok2)" height="65.5781" id="Manager" style="stroke: #000000; stroke-width: 1.5;" width="101" x="193.5" y="1419"/><text fill="#000000" font-family="sans-serif" font-size="12" lengthAdjust="spacingAndGlyphs" textLength="55" x="216.5" y="1435.1387">Manager</text><line style="stroke: #000000; stroke-width: 1.5;" x1="194.5" x2="293.5" y1="1442.9688" y2="1442.9688"/><line style="stroke: #000000; stroke-width: 1.5;" x1="194.5" x2="293.5" y1="1450.9688" y2="1450.9688"/><text fill="#000000" font-family="sans-serif" font-size="11" lengthAdjust="spacingAndGlyphs" textLength="68" x="199.5" y="1465.1792">resetLogin()</text><text fill="#000000" font-family="sans-serif" font-size="11" lengthAdjust="spacingAndGlyphs" textLength="89" x="199.5" y="1477.9839">orderProducts()</text><!--class Staff--><rect fill="url(#gdiubiqfm2ok20)" filter="url(#fdiubiqfm2ok2)" height="91.1875" id="Staff" style="stroke: #000000; stroke-width: 1.5;" width="138" x="157" y="1185.5"/><text fill="#000000" font-family="sans-serif" font-size="12" lengthAdjust="spacingAndGlyphs" textLength="29" x="211.5" y="1201.6387">Staff</text><line style="stroke: #000000; stroke-width: 1.5;" x1="158" x2="294" y1="1209.4688" y2="1209.4688"/><text fill="#000000" font-family="sans-serif" font-size="11" lengthAdjust="spacingAndGlyphs" textLength="58" x="163" y="1223.6792">username</text><text fill="#000000" font-family="sans-serif" font-size="11" lengthAdjust="spacingAndGlyphs" textLength="56" x="163" y="1236.4839">password</text><line style="stroke: #000000; stroke-width: 1.5;" x1="158" x2="294" y1="1243.0781" y2="1243.0781"/><text fill="#000000" font-family="sans-serif" font-size="11" lengthAdjust="spacingAndGlyphs" textLength="35" x="163" y="1257.2886">login()</text><text fill="#000000" font-family="sans-serif" font-size="11" lengthAdjust="spacingAndGlyphs" textLength="126" x="163" y="1270.0933">addNormalCustomer()</text><!--class NormalCustomer--><rect fill="url(#gdiubiqfm2ok20)" filter="url(#fdiubiqfm2ok2)" height="39.9688" id="NormalCustomer" style="stroke: #000000; stroke-width: 1.5;" width="110" x="182" y="868"/><text fill="#000000" font-family="sans-serif" font-size="12" lengthAdjust="spacingAndGlyphs" textLength="104" x="185" y="884.1387">NormalCustomer</text><line style="stroke: #000000; stroke-width: 1.5;" x1="183" x2="291" y1="891.9688" y2="891.9688"/><line style="stroke: #000000; stroke-width: 1.5;" x1="183" x2="291" y1="899.9688" y2="899.9688"/><!--class HouseCustomer--><rect fill="url(#gdiubiqfm2ok20)" filter="url(#fdiubiqfm2ok2)" height="39.9688" id="HouseCustomer" style="stroke: #000000; stroke-width: 1.5;" width="106" x="41" y="868"/><text fill="#000000" font-family="sans-serif" font-size="12" lengthAdjust="spacingAndGlyphs" textLength="100" x="44" y="884.1387">HouseCustomer</text><line style="stroke: #000000; stroke-width: 1.5;" x1="42" x2="146" y1="891.9688" y2="891.9688"/><line style="stroke: #000000; stroke-width: 1.5;" x1="42" x2="146" y1="899.9688" y2="899.9688"/><!--class MajorCustomer--><rect fill="url(#gdiubiqfm2ok20)" filter="url(#fdiubiqfm2ok2)" height="39.9688" id="MajorCustomer" style="stroke: #000000; stroke-width: 1.5;" width="100" x="22" y="1211"/><text fill="#000000" font-family="sans-serif" font-size="12" lengthAdjust="spacingAndGlyphs" textLength="94" x="25" y="1227.1387">MajorCustomer</text><line style="stroke: #000000; stroke-width: 1.5;" x1="23" x2="121" y1="1234.9688" y2="1234.9688"/><line style="stroke: #000000; stroke-width: 1.5;" x1="23" x2="121" y1="1242.9688" y2="1242.9688"/><!--class Product--><rect fill="url(#gdiubiqfm2ok20)" filter="url(#fdiubiqfm2ok2)" height="142.4063" id="Product" style="stroke: #000000; stroke-width: 1.5;" width="112" x="922" y="470"/><text fill="#000000" font-family="sans-serif" font-size="12" lengthAdjust="spacingAndGlyphs" textLength="49" x="953.5" y="486.1387">Product</text><line style="stroke: #000000; stroke-width: 1.5;" x1="923" x2="1033" y1="493.9688" y2="493.9688"/><text fill="#000000" font-family="sans-serif" font-size="11" lengthAdjust="spacingAndGlyphs" textLength="63" x="928" y="508.1792">description</text><text fill="#000000" font-family="sans-serif" font-size="11" lengthAdjust="spacingAndGlyphs" textLength="42" x="928" y="520.9839">bnnInfo</text><text fill="#000000" font-family="sans-serif" font-size="11" lengthAdjust="spacingAndGlyphs" textLength="21" x="928" y="533.7886">ean</text><text fill="#000000" font-family="sans-serif" font-size="11" lengthAdjust="spacingAndGlyphs" textLength="83" x="928" y="546.5933">quantityStored</text><text fill="#000000" font-family="sans-serif" font-size="11" lengthAdjust="spacingAndGlyphs" textLength="100" x="928" y="559.3979">quantityDisplayed</text><text fill="#000000" font-family="sans-serif" font-size="11" lengthAdjust="spacingAndGlyphs" textLength="28" x="928" y="572.2026">price</text><line style="stroke: #000000; stroke-width: 1.5;" x1="923" x2="1033" y1="578.7969" y2="578.7969"/><text fill="#000000" font-family="sans-serif" font-size="11" lengthAdjust="spacingAndGlyphs" textLength="54" x="928" y="593.0073">getPrice()</text><text fill="#000000" font-family="sans-serif" font-size="11" lengthAdjust="spacingAndGlyphs" textLength="90" x="928" y="605.812">getProductInfo()</text><!--class ProductList--><rect fill="url(#gdiubiqfm2ok20)" filter="url(#fdiubiqfm2ok2)" height="39.9688" id="ProductList" style="stroke: #000000; stroke-width: 1.5;" width="76" x="1377" y="223"/><text fill="#000000" font-family="sans-serif" font-size="12" lengthAdjust="spacingAndGlyphs" textLength="70" x="1380" y="239.1387">ProductList</text><line style="stroke: #000000; stroke-width: 1.5;" x1="1378" x2="1452" y1="246.9688" y2="246.9688"/><line style="stroke: #000000; stroke-width: 1.5;" x1="1378" x2="1452" y1="254.9688" y2="254.9688"/><!--class DistributorList--><rect fill="url(#gdiubiqfm2ok20)" filter="url(#fdiubiqfm2ok2)" height="39.9688" id="DistributorList" style="stroke: #000000; stroke-width: 1.5;" width="93" x="1224.5" y="868"/><text fill="#000000" font-family="sans-serif" font-size="12" lengthAdjust="spacingAndGlyphs" textLength="87" x="1227.5" y="884.1387">DistributorList</text><line style="stroke: #000000; stroke-width: 1.5;" x1="1225.5" x2="1316.5" y1="891.9688" y2="891.9688"/><line style="stroke: #000000; stroke-width: 1.5;" x1="1225.5" x2="1316.5" y1="899.9688" y2="899.9688"/><!--class OrderableProducts--><rect fill="url(#gdiubiqfm2ok20)" filter="url(#fdiubiqfm2ok2)" height="52.7734" id="OrderableProducts" style="stroke: #000000; stroke-width: 1.5;" width="124" x="1069" y="514.5"/><text fill="#000000" font-family="sans-serif" font-size="12" lengthAdjust="spacingAndGlyphs" textLength="118" x="1072" y="530.6387">OrderableProducts</text><line style="stroke: #000000; stroke-width: 1.5;" x1="1070" x2="1192" y1="538.4688" y2="538.4688"/><line style="stroke: #000000; stroke-width: 1.5;" x1="1070" x2="1192" y1="546.4688" y2="546.4688"/><text fill="#000000" font-family="sans-serif" font-size="11" lengthAdjust="spacingAndGlyphs" textLength="56" x="1075" y="560.6792">readBnn()</text><!--class LabelGenerator--><rect fill="url(#gdiubiqfm2ok20)" filter="url(#fdiubiqfm2ok2)" height="103.9922" id="LabelGenerator" style="stroke: #000000; stroke-width: 1.5;" width="120" x="1069" y="836"/><text fill="#000000" font-family="sans-serif" font-size="12" lengthAdjust="spacingAndGlyphs" textLength="97" x="1080.5" y="852.1387">LabelGenerator</text><line style="stroke: #000000; stroke-width: 1.5;" x1="1070" x2="1188" y1="859.9688" y2="859.9688"/><line style="stroke: #000000; stroke-width: 1.5;" x1="1070" x2="1188" y1="867.9688" y2="867.9688"/><text fill="#000000" font-family="sans-serif" font-size="11" lengthAdjust="spacingAndGlyphs" textLength="77" x="1075" y="882.1792">printLabelAll()</text><text fill="#000000" font-family="sans-serif" font-size="11" lengthAdjust="spacingAndGlyphs" textLength="107" x="1075" y="894.9839">printLabelProduct()</text><text fill="#000000" font-family="sans-serif" font-size="11" lengthAdjust="spacingAndGlyphs" textLength="108" x="1075" y="907.7886">generateBarCode()</text><text fill="#000000" font-family="sans-serif" font-size="11" lengthAdjust="spacingAndGlyphs" textLength="104" x="1075" y="920.5933">generateQRCode()</text><text fill="#000000" font-family="sans-serif" font-size="11" lengthAdjust="spacingAndGlyphs" textLength="40" x="1075" y="933.3979">setup()</text><!--class Distributor--><rect fill="url(#gdiubiqfm2ok20)" filter="url(#fdiubiqfm2ok2)" height="129.6016" id="Distributor" style="stroke: #000000; stroke-width: 1.5;" width="145" x="960.5" y="1166"/><text fill="#000000" font-family="sans-serif" font-size="12" lengthAdjust="spacingAndGlyphs" textLength="66" x="1000" y="1182.1387">Distributor</text><line style="stroke: #000000; stroke-width: 1.5;" x1="961.5" x2="1104.5" y1="1189.9688" y2="1189.9688"/><text fill="#000000" font-family="sans-serif" font-size="11" lengthAdjust="spacingAndGlyphs" textLength="84" x="966.5" y="1204.1792">companyName</text><text fill="#000000" font-family="sans-serif" font-size="11" lengthAdjust="spacingAndGlyphs" textLength="47" x="966.5" y="1216.9839">address</text><text fill="#000000" font-family="sans-serif" font-size="11" lengthAdjust="spacingAndGlyphs" textLength="83" x="966.5" y="1229.7886">contactPartner</text><text fill="#000000" font-family="sans-serif" font-size="11" lengthAdjust="spacingAndGlyphs" textLength="133" x="966.5" y="1242.5933">minimumOrderQuantity</text><text fill="#000000" font-family="sans-serif" font-size="11" lengthAdjust="spacingAndGlyphs" textLength="97" x="966.5" y="1255.3979">paymentMethods</text><text fill="#000000" font-family="sans-serif" font-size="11" lengthAdjust="spacingAndGlyphs" textLength="62" x="966.5" y="1268.2026">taxNumber</text><line style="stroke: #000000; stroke-width: 1.5;" x1="961.5" x2="1104.5" y1="1274.7969" y2="1274.7969"/><text fill="#000000" font-family="sans-serif" font-size="11" lengthAdjust="spacingAndGlyphs" textLength="67" x="966.5" y="1289.0073">sendEmail()</text><!--class Order--><rect fill="url(#gdiubiqfm2ok20)" filter="url(#fdiubiqfm2ok2)" height="91.1875" id="Order" style="stroke: #000000; stroke-width: 1.5;" width="156" x="1542" y="1185.5"/><text fill="#000000" font-family="sans-serif" font-size="12" lengthAdjust="spacingAndGlyphs" textLength="35" x="1602.5" y="1201.6387">Order</text><line style="stroke: #000000; stroke-width: 1.5;" x1="1543" x2="1697" y1="1209.4688" y2="1209.4688"/><text fill="#000000" font-family="sans-serif" font-size="11" lengthAdjust="spacingAndGlyphs" textLength="10" x="1548" y="1223.6792">id</text><text fill="#000000" font-family="sans-serif" font-size="11" lengthAdjust="spacingAndGlyphs" textLength="40" x="1548" y="1236.4839">arrived</text><text fill="#000000" font-family="sans-serif" font-size="11" lengthAdjust="spacingAndGlyphs" textLength="42" x="1548" y="1249.2886">content</text><line style="stroke: #000000; stroke-width: 1.5;" x1="1543" x2="1697" y1="1255.8828" y2="1255.8828"/><text fill="#000000" font-family="sans-serif" font-size="11" lengthAdjust="spacingAndGlyphs" textLength="144" x="1548" y="1270.0933">placeContentInInventory()</text><!--class OrderAssistant--><rect fill="url(#gdiubiqfm2ok20)" filter="url(#fdiubiqfm2ok2)" height="65.5781" id="OrderAssistant" style="stroke: #000000; stroke-width: 1.5;" width="167" x="1332.5" y="508"/><text fill="#000000" font-family="sans-serif" font-size="12" lengthAdjust="spacingAndGlyphs" textLength="93" x="1369.5" y="524.1387">OrderAssistant</text><line style="stroke: #000000; stroke-width: 1.5;" x1="1333.5" x2="1498.5" y1="531.9688" y2="531.9688"/><line style="stroke: #000000; stroke-width: 1.5;" x1="1333.5" x2="1498.5" y1="539.9688" y2="539.9688"/><text fill="#000000" font-family="sans-serif" font-size="11" lengthAdjust="spacingAndGlyphs" textLength="155" x="1338.5" y="554.1792">getLowestPriceForProduct()</text><text fill="#000000" font-family="sans-serif" font-size="11" lengthAdjust="spacingAndGlyphs" textLength="39" x="1338.5" y="566.9839">order()</text><!--class Inventory--><rect fill="url(#gdiubiqfm2ok20)" filter="url(#fdiubiqfm2ok2)" height="65.5781" id="Inventory" style="stroke: #000000; stroke-width: 1.5;" width="170" x="1535" y="508"/><text fill="#000000" font-family="sans-serif" font-size="12" lengthAdjust="spacingAndGlyphs" textLength="57" x="1591.5" y="524.1387">Inventory</text><line style="stroke: #000000; stroke-width: 1.5;" x1="1536" x2="1704" y1="531.9688" y2="531.9688"/><text fill="#000000" font-family="sans-serif" font-size="11" lengthAdjust="spacingAndGlyphs" textLength="61" x="1541" y="546.1792">profitValue</text><line style="stroke: #000000; stroke-width: 1.5;" x1="1536" x2="1704" y1="552.7734" y2="552.7734"/><text fill="#000000" font-family="sans-serif" font-size="11" lengthAdjust="spacingAndGlyphs" textLength="158" x="1541" y="566.9839">getValueOfStoredProducts()</text><!--class Log--><rect fill="url(#gdiubiqfm2ok20)" filter="url(#fdiubiqfm2ok2)" height="116.7969" id="Log" style="stroke: #000000; stroke-width: 1.5;" width="122" x="325" y="482.5"/><text fill="#000000" font-family="sans-serif" font-size="12" lengthAdjust="spacingAndGlyphs" textLength="22" x="375" y="498.6387">Log</text><line style="stroke: #000000; stroke-width: 1.5;" x1="326" x2="446" y1="506.4688" y2="506.4688"/><text fill="#000000" font-family="sans-serif" font-size="11" lengthAdjust="spacingAndGlyphs" textLength="31" x="331" y="520.6792">sales</text><text fill="#000000" font-family="sans-serif" font-size="11" lengthAdjust="spacingAndGlyphs" textLength="60" x="331" y="533.4839">purchases</text><text fill="#000000" font-family="sans-serif" font-size="11" lengthAdjust="spacingAndGlyphs" textLength="25" x="331" y="546.2886">time</text><text fill="#000000" font-family="sans-serif" font-size="11" lengthAdjust="spacingAndGlyphs" textLength="59" x="331" y="559.0933">soldWares</text><text fill="#000000" font-family="sans-serif" font-size="11" lengthAdjust="spacingAndGlyphs" textLength="110" x="331" y="571.8979">purchasedProducts</text><text fill="#000000" font-family="sans-serif" font-size="11" lengthAdjust="spacingAndGlyphs" textLength="85" x="331" y="584.7026">stolenProducts</text><line style="stroke: #000000; stroke-width: 1.5;" x1="326" x2="446" y1="591.2969" y2="591.2969"/><!--class Statistic--><rect fill="url(#gdiubiqfm2ok20)" filter="url(#fdiubiqfm2ok2)" height="65.5781" id="Statistic" style="stroke: #000000; stroke-width: 1.5;" width="119" x="327.5" y="855"/><text fill="#000000" font-family="sans-serif" font-size="12" lengthAdjust="spacingAndGlyphs" textLength="51" x="361.5" y="871.1387">Statistic</text><line style="stroke: #000000; stroke-width: 1.5;" x1="328.5" x2="445.5" y1="878.9688" y2="878.9688"/><line style="stroke: #000000; stroke-width: 1.5;" x1="328.5" x2="445.5" y1="886.9688" y2="886.9688"/><text fill="#000000" font-family="sans-serif" font-size="11" lengthAdjust="spacingAndGlyphs" textLength="65" x="333.5" y="901.1792">getStatics()</text><text fill="#000000" font-family="sans-serif" font-size="11" lengthAdjust="spacingAndGlyphs" textLength="107" x="333.5" y="913.9839">generateDiagram()</text><!--class ShoppingCart--><rect fill="url(#gdiubiqfm2ok20)" filter="url(#fdiubiqfm2ok2)" height="78.3828" id="ShoppingCart" style="stroke: #000000; stroke-width: 1.5;" width="98" x="480" y="697"/><text fill="#000000" font-family="sans-serif" font-size="12" lengthAdjust="spacingAndGlyphs" textLength="85" x="486.5" y="713.1387">ShoppingCart</text><line style="stroke: #000000; stroke-width: 1.5;" x1="481" x2="577" y1="720.9688" y2="720.9688"/><line style="stroke: #000000; stroke-width: 1.5;" x1="481" x2="577" y1="728.9688" y2="728.9688"/><text fill="#000000" font-family="sans-serif" font-size="11" lengthAdjust="spacingAndGlyphs" textLength="72" x="486" y="743.1792">addProduct()</text><text fill="#000000" font-family="sans-serif" font-size="11" lengthAdjust="spacingAndGlyphs" textLength="86" x="486" y="755.9839">deleteProduct()</text><text fill="#000000" font-family="sans-serif" font-size="11" lengthAdjust="spacingAndGlyphs" textLength="64" x="486" y="768.7886">basicSum()</text><!--class CashierSystem--><rect fill="url(#gdiubiqfm2ok20)" filter="url(#fdiubiqfm2ok2)" height="103.9922" id="CashierSystem" style="stroke: #000000; stroke-width: 1.5;" width="116" x="471" y="1001"/><text fill="#000000" font-family="sans-serif" font-size="12" lengthAdjust="spacingAndGlyphs" textLength="92" x="483" y="1017.1387">CashierSystem</text><line style="stroke: #000000; stroke-width: 1.5;" x1="472" x2="586" y1="1024.9688" y2="1024.9688"/><line style="stroke: #000000; stroke-width: 1.5;" x1="472" x2="586" y1="1032.9688" y2="1032.9688"/><text fill="#000000" font-family="sans-serif" font-size="11" lengthAdjust="spacingAndGlyphs" textLength="86" x="477" y="1047.1792">calculatePrice()</text><text fill="#000000" font-family="sans-serif" font-size="11" lengthAdjust="spacingAndGlyphs" textLength="74" x="477" y="1059.9839">giveChange()</text><text fill="#000000" font-family="sans-serif" font-size="11" lengthAdjust="spacingAndGlyphs" textLength="57" x="477" y="1072.7886">cancelAll()</text><text fill="#000000" font-family="sans-serif" font-size="11" lengthAdjust="spacingAndGlyphs" textLength="87" x="477" y="1085.5933">cancelProduct()</text><text fill="#000000" font-family="sans-serif" font-size="11" lengthAdjust="spacingAndGlyphs" textLength="104" x="477" y="1098.3979">enterCustomerId()</text><!--class Database--><rect fill="url(#gdiubiqfm2ok20)" filter="url(#fdiubiqfm2ok2)" height="103.9922" id="Database" style="stroke: #000000; stroke-width: 1.5;" width="92" x="1369" y="8.5"/><text fill="#000000" font-family="sans-serif" font-size="12" lengthAdjust="spacingAndGlyphs" textLength="61" x="1384.5" y="24.6387">Database</text><line style="stroke: #000000; stroke-width: 1.5;" x1="1370" x2="1460" y1="32.4688" y2="32.4688"/><line style="stroke: #000000; stroke-width: 1.5;" x1="1370" x2="1460" y1="40.4688" y2="40.4688"/><text fill="#000000" font-family="sans-serif" font-size="11" lengthAdjust="spacingAndGlyphs" textLength="64" x="1375" y="54.6792">getSorted()</text><text fill="#000000" font-family="sans-serif" font-size="11" lengthAdjust="spacingAndGlyphs" textLength="29" x="1375" y="67.4839">add()</text><text fill="#000000" font-family="sans-serif" font-size="11" lengthAdjust="spacingAndGlyphs" textLength="43" x="1375" y="80.2886">delete()</text><text fill="#000000" font-family="sans-serif" font-size="11" lengthAdjust="spacingAndGlyphs" textLength="80" x="1375" y="93.0933">getSearched()</text><text fill="#000000" font-family="sans-serif" font-size="11" lengthAdjust="spacingAndGlyphs" textLength="68" x="1375" y="105.8979">getFiltered()</text><!--link Person to Customer--><path d="M258.8313,308.653 C254.1634,358.3326 247.7832,426.2364 243.1258,475.8037 " fill="none" id="Person-Customer" style="stroke: #000000; stroke-width: 1.0;"/><polygon fill="none" points="251.8766,307.8416,260.7169,288.5842,265.8152,309.1513,251.8766,307.8416" style="stroke: #000000; stroke-width: 1.0;"/><!--link Staff to Manager--><path d="M231.3376,1296.5338 C234.6126,1336.7435 238.6677,1386.531 241.2929,1418.7623 " fill="none" id="Staff-Manager" style="stroke: #000000; stroke-width: 1.0;"/><polygon fill="none" points="224.3546,1297.0257,229.7078,1276.5234,238.3084,1295.8891,224.3546,1297.0257" style="stroke: #000000; stroke-width: 1.0;"/><!--link Customer to NormalCustomer--><path d="M237,626.4285 C237,706.882 237,821.7193 237,867.7644 " fill="none" id="Customer-NormalCustomer" style="stroke: #000000; stroke-width: 1.0;"/><polygon fill="none" points="230.0001,626.2681,237,606.268,244.0001,626.268,230.0001,626.2681" style="stroke: #000000; stroke-width: 1.0;"/><!--link Customer to HouseCustomer--><path d="M202.4264,624.8954 C169.2434,705.4164 121.4354,821.426 102.3391,867.7644 " fill="none" id="Customer-HouseCustomer" style="stroke: #000000; stroke-width: 1.0;"/><polygon fill="none" points="196.0104,622.0923,210.1028,606.268,208.9544,627.4266,196.0104,622.0923" style="stroke: #000000; stroke-width: 1.0;"/><!--link HouseCustomer to MajorCustomer--><path d="M91.3999,928.5376 C86.6749,1002.2052 76.8414,1155.5183 73.3034,1210.678 " fill="none" id="HouseCustomer-MajorCustomer" style="stroke: #000000; stroke-width: 1.0;"/><polygon fill="none" points="84.4238,927.9399,92.6897,908.429,98.3951,928.8361,84.4238,927.9399" style="stroke: #000000; stroke-width: 1.0;"/><!--link HouseCustomer to Staff--><path d="M109.082,927.1903 C133.6862,991.124 182.3307,1117.5259 208.4469,1185.3886 " fill="none" id="HouseCustomer-Staff" style="stroke: #000000; stroke-width: 1.0;"/><polygon fill="none" points="102.5123,929.6087,101.8619,908.429,115.5781,924.5804,102.5123,929.6087" style="stroke: #000000; stroke-width: 1.0;"/><!--link UserList to Customer--><path d="M164.9508,282.3175 C178.6854,331.6296 202.4256,416.8654 218.883,475.9533 " fill="none" id="UserList-Customer" style="stroke: #000000; stroke-width: 1.0;"/><polygon fill="#FFFFFF" points="161.4387,269.7078,159.1952,276.561,164.6584,281.2678,166.9019,274.4146,161.4387,269.7078" style="stroke: #000000; stroke-width: 1.0;"/><text fill="#000000" font-family="sans-serif" font-size="13" lengthAdjust="spacingAndGlyphs" textLength="35" x="190" y="362.5669">users</text><text fill="#000000" font-family="sans-serif" font-size="13" lengthAdjust="spacingAndGlyphs" textLength="8" x="154.1909" y="289.297">1</text><text fill="#000000" font-family="sans-serif" font-size="13" lengthAdjust="spacingAndGlyphs" textLength="23" x="192.6436" y="465.1145">0..*</text><!--link Database to UserList--><path d="M1348.7657,62.2131 C1111.8511,68.7916 315.3561,94.9479 217,151.5 C191.9201,165.9203 174.6014,194.8558 164.5592,216.3457 " fill="none" id="Database-UserList" style="stroke: #000000; stroke-width: 1.0;"/><polygon fill="none" points="1348.7832,55.2101,1368.9666,61.6623,1349.1649,69.2049,1348.7832,55.2101" style="stroke: #000000; stroke-width: 1.0;"/><!--link OrderableProducts to DistributorList--><path d="M1141.7531,567.6523 C1168.7733,634.6237 1239.0545,808.8208 1262.9279,867.9927 " fill="none" id="OrderableProducts-DistributorList" style="stroke: #000000; stroke-width: 1.0;"/><text fill="#000000" font-family="sans-serif" font-size="13" lengthAdjust="spacingAndGlyphs" textLength="8" x="1135.2303" y="587.2293">n</text><text fill="#000000" font-family="sans-serif" font-size="13" lengthAdjust="spacingAndGlyphs" textLength="8" x="1251.3817" y="857.0034">1</text><!--link DistributorList to Distributor--><path d="M1249.2561,919.3368 C1210.6272,975.0079 1129.296,1092.2205 1078.1224,1165.9707 " fill="none" id="DistributorList-Distributor" style="stroke: #000000; stroke-width: 1.0;"/><polygon fill="#FFFFFF" points="1256.8248,908.429,1250.118,911.0782,1249.9838,918.288,1256.6906,915.6389,1256.8248,908.429" style="stroke: #000000; stroke-width: 1.0;"/><text fill="#000000" font-family="sans-serif" font-size="13" lengthAdjust="spacingAndGlyphs" textLength="8" x="1243.9402" y="928.0239">1</text><text fill="#000000" font-family="sans-serif" font-size="13" lengthAdjust="spacingAndGlyphs" textLength="23" x="1058.7998" y="1155.1338">0..*</text><!--link Database to DistributorList--><path d="M1481.2672,66.2521 C1580.9636,78.942 1758,118.9417 1758,243 C1758,243 1758,243 1758,736 C1758,827.6711 1439.5878,870.4741 1317.6956,883.5011 " fill="none" id="Database-DistributorList" style="stroke: #000000; stroke-width: 1.0;"/><polygon fill="none" points="1480.322,73.1895,1461.2585,63.9383,1481.9303,59.2822,1480.322,73.1895" style="stroke: #000000; stroke-width: 1.0;"/><!--link Database to ProductList--><path d="M1415,132.9154 C1415,165.3294 1415,201.0585 1415,222.7638 " fill="none" id="Database-ProductList" style="stroke: #000000; stroke-width: 1.0;"/><polygon fill="none" points="1408.0001,132.7972,1415,112.7972,1422.0001,132.7971,1408.0001,132.7972" style="stroke: #000000; stroke-width: 1.0;"/><!--link ProductList to Product--><path d="M1408.025,276.1824 C1396.8731,328.883 1375.9745,426.0624 1373,428.5 C1359.2025,439.8072 1067.7417,428.1081 1052,436.5 C1037.2872,444.3434 1024.8437,456.5603 1014.6026,469.915 " fill="none" id="ProductList-Product" style="stroke: #000000; stroke-width: 1.0;"/><polygon fill="#FFFFFF" points="1410.7615,263.219,1405.6085,268.2635,1408.283,274.9603,1413.436,269.9158,1410.7615,263.219" style="stroke: #000000; stroke-width: 1.0;"/><text fill="#000000" font-family="sans-serif" font-size="13" lengthAdjust="spacingAndGlyphs" textLength="8" x="1400.4444" y="283.1049">1</text><text fill="#000000" font-family="sans-serif" font-size="13" lengthAdjust="spacingAndGlyphs" textLength="23" x="994.1913" y="458.8637">0..*</text><!--link Product to LabelGenerator--><path d="M1032.488,623.7694 C1035.8598,629.8539 1039.0695,635.97 1042,642 C1073.2851,706.3755 1099.0927,784.9939 1114.267,835.7522 " fill="none" id="Product-LabelGenerator" style="stroke: #000000; stroke-width: 1.0;"/><polygon fill="#000000" points="1025.8347,612.1386,1025.3419,619.3328,1031.7932,622.5548,1032.286,615.3605,1025.8347,612.1386" style="stroke: #000000; stroke-width: 1.0;"/><text fill="#000000" font-family="sans-serif" font-size="13" lengthAdjust="spacingAndGlyphs" textLength="8" x="1022.3552" y="632.301">n</text><text fill="#000000" font-family="sans-serif" font-size="13" lengthAdjust="spacingAndGlyphs" textLength="8" x="1103.7498" y="824.7999">1</text><!--link ProductList to OrderableProducts--><path d="M1421.6476,283.3046 C1426.1224,325.7375 1425.4377,391.4225 1387,428.5 C1375.7314,439.3699 1331.8969,431.6815 1317,436.5 C1261.4948,454.4535 1203.8835,489.8705 1167.7671,514.467 " fill="none" id="ProductList-OrderableProducts" style="stroke: #000000; stroke-width: 1.0;"/><polygon fill="none" points="1414.6778,283.9955,1418.9672,263.2445,1428.5545,282.1412,1414.6778,283.9955" style="stroke: #000000; stroke-width: 1.0;"/><!--link Product to Distributor--><path d="M1008.2352,612.346 C1021.0155,648.6842 1033,693.9659 1033,736 C1033,736 1033,736 1033,1053 C1033,1085.5723 1033,1121.4972 1033,1152.4925 " fill="none" id="Product-Distributor" style="stroke: #000000; stroke-width: 1.0;"/><polygon fill="#000000" points="1033,1165.902,1037,1159.902,1033,1153.902,1029,1159.902,1033,1165.902" style="stroke: #000000; stroke-width: 1.0;"/><text fill="#000000" font-family="sans-serif" font-size="13" lengthAdjust="spacingAndGlyphs" textLength="23" x="987.1673" y="632.5298">1..*</text><text fill="#000000" font-family="sans-serif" font-size="13" lengthAdjust="spacingAndGlyphs" textLength="8" x="1024.5625" y="1155.0575">1</text><!--link Inventory to Order--><path d="M1620,579.2728 C1620,618.5913 1620,681.5688 1620,736 C1620,736 1620,736 1620,1053 C1620,1097.9635 1620,1149.3159 1620,1185.2702 " fill="none" id="Inventory-Order" style="stroke: #000000; stroke-width: 1.0;"/><polygon fill="#000000" points="1620,574.1229,1616,583.1229,1620,579.1229,1624,583.1229,1620,574.1229" style="stroke: #000000; stroke-width: 1.0;"/><!--link OrderableProducts to OrderAssistant--><path d="M1198.236,541 C1242.9572,541 1287.6784,541 1332.3995,541 " fill="none" id="OrderableProducts-OrderAssistant" style="stroke: #000000; stroke-width: 1.0;"/><polygon fill="#000000" points="1193.0654,541,1202.0654,545,1198.0654,541,1202.0654,537,1193.0654,541" style="stroke: #000000; stroke-width: 1.0;"/><!--link ProductList to Inventory--><path d="M1440.1769,279.5987 C1480.4142,338.0899 1558.6052,451.753 1597.252,507.9321 " fill="none" id="ProductList-Inventory" style="stroke: #000000; stroke-width: 1.0;"/><polygon fill="none" points="1434.3371,283.4603,1428.7689,263.0153,1445.8714,275.5256,1434.3371,283.4603" style="stroke: #000000; stroke-width: 1.0;"/><!--link OrderAssistant to Manager--><path d="M1371.1928,582.4666 C1358.2278,593.0667 1343.6135,603.7781 1329,612 C1185.1717,692.9209 979,570.9704 979,736 C979,736 979,736 979,970.5 C979,1036.654 974.1982,1058.9885 936,1113 C926.4529,1126.4995 916.5592,1122.2766 906,1135 C835.7961,1219.5929 872.7991,1276.5247 799,1358 C781.1926,1377.6596 773.0487,1380.2727 748,1389 C664.9367,1417.9404 405.2543,1440.0346 294.6749,1448.3774 " fill="none" id="OrderAssistant-Manager" style="stroke: #000000; stroke-width: 1.0;"/><polygon fill="#FFFFFF" points="1381.2054,574.0391,1374.0392,574.8426,1372.0246,581.7666,1379.1908,580.9631,1381.2054,574.0391" style="stroke: #000000; stroke-width: 1.0;"/><text fill="#000000" font-family="sans-serif" font-size="13" lengthAdjust="spacingAndGlyphs" textLength="20" x="1352.9464" y="593.6315">0,1</text><text fill="#000000" font-family="sans-serif" font-size="13" lengthAdjust="spacingAndGlyphs" textLength="8" x="302.3636" y="1443.9192">1</text><!--link Log to Statistic--><path d="M386.2082,613.2316 C386.4216,687.3039 386.7443,799.2649 386.9038,854.6076 " fill="none" id="Log-Statistic" style="stroke: #000000; stroke-width: 1.0;"/><polygon fill="#000000" points="386.1696,599.8638,382.187,605.8753,386.2043,611.8637,390.1869,605.8522,386.1696,599.8638" style="stroke: #000000; stroke-width: 1.0;"/><text fill="#000000" font-family="sans-serif" font-size="13" lengthAdjust="spacingAndGlyphs" textLength="8" x="377.7507" y="619.2076">1</text><text fill="#000000" font-family="sans-serif" font-size="13" lengthAdjust="spacingAndGlyphs" textLength="8" x="378.123" y="843.9322">1</text><!--link Log to Customer--><path d="M324.6844,541 C311.727,541 298.7697,541 285.8123,541 " fill="none" id="Log-Customer" style="stroke: #000000; stroke-width: 1.0;"/><polygon fill="#000000" points="280.6523,541,289.6523,545,285.6523,541,289.6523,537,280.6523,541" style="stroke: #000000; stroke-width: 1.0;"/><!--link Log to ShoppingCart--><path d="M431.9102,603.6048 C454.4055,634.2802 480.7938,670.2643 500.3774,696.9691 " fill="none" id="Log-ShoppingCart" style="stroke: #000000; stroke-width: 1.0;"/><polygon fill="#000000" points="428.9047,599.5064,431.0014,609.1295,431.8616,603.5384,437.4526,604.3985,428.9047,599.5064" style="stroke: #000000; stroke-width: 1.0;"/><!--link ShoppingCart to CashierSystem--><path d="M529,788.2329 C529,847.0169 529,941.9575 529,1000.749 " fill="none" id="ShoppingCart-CashierSystem" style="stroke: #000000; stroke-width: 1.0;"/><polygon fill="#000000" points="529,775.1884,525,781.1884,529,787.1884,533,781.1884,529,775.1884" style="stroke: #000000; stroke-width: 1.0;"/><text fill="#000000" font-family="sans-serif" font-size="13" lengthAdjust="spacingAndGlyphs" textLength="8" x="520.2875" y="795.5494">1</text><text fill="#000000" font-family="sans-serif" font-size="13" lengthAdjust="spacingAndGlyphs" textLength="8" x="520.4625" y="989.7963">1</text><!--link ShoppingCart to Product--><path d="M573.7053,696.9929 C593.6054,681.0933 617.9473,663.542 642,651 C729.3043,605.4763 839.1236,573.8135 908.9629,556.5152 " fill="none" id="ShoppingCart-Product" style="stroke: #000000; stroke-width: 1.0;"/><polygon fill="#000000" points="921.9512,553.3498,915.1747,550.8843,910.2925,556.1913,917.069,558.6568,921.9512,553.3498" style="stroke: #000000; stroke-width: 1.0;"/><text fill="#000000" font-family="sans-serif" font-size="13" lengthAdjust="spacingAndGlyphs" textLength="8" x="572.7015" y="686.0449">1</text><text fill="#000000" font-family="sans-serif" font-size="13" lengthAdjust="spacingAndGlyphs" textLength="23" x="891.1409" y="550.9616">1..*</text><!--link Staff to CashierSystem--><path d="M306.4957,1183.7121 C358.2491,1153.3091 424.2884,1114.5138 470.9371,1087.1096 " fill="none" id="Staff-CashierSystem" style="stroke: #000000; stroke-width: 1.0;"/><polygon fill="#FFFFFF" points="295.013,1190.4577,302.2125,1190.8675,305.3597,1184.3794,298.1603,1183.9697,295.013,1190.4577" style="stroke: #000000; stroke-width: 1.0;"/><text fill="#000000" font-family="sans-serif" font-size="13" lengthAdjust="spacingAndGlyphs" textLength="8" x="302.9988" y="1182.267">n</text><text fill="#000000" font-family="sans-serif" font-size="13" lengthAdjust="spacingAndGlyphs" textLength="20" x="443.0673" y="1087.2614">0,1</text><!--link Inventory to OrderableProducts--><path d="M1597.5402,507.9879 C1579.0125,483.6938 1550.405,452.2619 1517,436.5 C1465.7855,412.3349 1315.4065,403.3065 1262.5,423.5 C1217.2443,440.7733 1177.6986,481.5775 1154.0915,510.2285 " fill="none" id="Inventory-OrderableProducts" style="stroke: #000000; stroke-width: 1.0;"/><polygon fill="#000000" points="1150.7253,514.3632,1159.5095,509.9092,1153.8821,510.4857,1153.3055,504.8583,1150.7253,514.3632" style="stroke: #000000; stroke-width: 1.0;"/><text fill="#000000" font-family="sans-serif" font-size="13" lengthAdjust="spacingAndGlyphs" textLength="103" x="1263.5" y="409.5669">uses referenced</text><text fill="#000000" font-family="sans-serif" font-size="13" lengthAdjust="spacingAndGlyphs" textLength="76" x="1279" y="424.6997">elements of</text><!--link OrderableProducts to Manager--><path d="M1103.0449,571.6966 C1088.9128,585.6671 1070.7962,601.4077 1052,612 C1011.9463,634.5716 987.2269,611.3032 953,642 C779.194,797.8801 773,902.0324 773,1135.5 C773,1135.5 773,1135.5 773,1357.5 C773,1405.7797 427.1272,1437.7684 294.7227,1448.2453 " fill="none" id="OrderableProducts-Manager" style="stroke: #000000; stroke-width: 1.0;"/><polygon fill="#000000" points="1106.9225,567.8089,1097.7347,571.3563,1103.3915,571.349,1103.3989,577.0059,1106.9225,567.8089" style="stroke: #000000; stroke-width: 1.0;"/><text fill="#000000" font-family="sans-serif" font-size="13" lengthAdjust="spacingAndGlyphs" textLength="151" x="776" y="1057.5669">adds/removes products</text><!--link Distributor to Person--><path d="M947.4861,1218.3334 C879.7081,1203.972 787.1893,1174.0629 730,1113 C684.5994,1064.5243 685,1036.9162 685,970.5 C685,358 685,358 685,358 C685,277.1073 391.5076,251.0961 295.2054,244.7385 " fill="none" id="Distributor-Person" style="stroke: #000000; stroke-width: 1.0;"/><polygon fill="#000000" points="960.2664,1220.9206,955.1794,1215.8096,948.505,1218.5396,953.592,1223.6506,960.2664,1220.9206" style="stroke: #000000; stroke-width: 1.0;"/><text fill="#000000" font-family="sans-serif" font-size="13" lengthAdjust="spacingAndGlyphs" textLength="98" x="686" y="740.5669">Contact person</text><text fill="#000000" font-family="sans-serif" font-size="13" lengthAdjust="spacingAndGlyphs" textLength="8" x="944.3532" y="1216.202">n</text><text fill="#000000" font-family="sans-serif" font-size="13" lengthAdjust="spacingAndGlyphs" textLength="8" x="303.1154" y="240.4667">1</text><!--
@startuml
hide circle

skinparam class {
	BackgroundColor #GreenYellow/LightGoldenRodYellow
    BorderColor Black
    ArrowColor  Black
}

skinparam package {
    FontColor Grey
    BorderColor Green
    shadowing false
}

class Database{
    getSorted()
    add()
    delete()
    getSearched()
    getFiltered()
}

package UserDepartment {

class UserList{
    setUserType()
}

class Person{
    name
    address
    email
    phoneNr
}


class Customer{
    preferences
    discount
    id
    permissions
    getCatalog()
    setDiscount()
    getDiscount()
}

class Manager{
    resetLogin()
    orderProducts()
}


Person ^- - Customer


Staff ^- - Manager


Customer ^- - NormalCustomer
Customer ^- - HouseCustomer
HouseCustomer ^- - MajorCustomer
HouseCustomer ^- - Staff


class Staff{
    username
    password

    login()
    addNormalCustomer()
}


UserList "1" o- - "0..*" Customer: users
Database ^- - UserList



}






package ProductDepartment{
    class Product{
        description
        bnnInfo
        ean
        quantityStored
        quantityDisplayed
        price

        getPrice()
        getProductInfo()

    }

    class ProductList{

    }

    class DistributorList{

    }

    class OrderableProducts{
        readBnn()
    }

    class LabelGenerator{
        printLabelAll()
        printLabelProduct()
        generateBarCode()
        generateQRCode()
        setup()
    }

    class Distributor{
        companyName
        address
        contactPartner
        minimumOrderQuantity
        paymentMethods
        taxNumber

        sendEmail()
    }

    OrderableProducts "n" - - "1" DistributorList
    DistributorList "1" o- - "0..*" Distributor

    Database ^- - DistributorList




    ProductList -up-^ Database
    ProductList "1" o- - "0..*" Product
    Product "n" *- - "1" LabelGenerator
    ProductList ^- - OrderableProducts

    Product "1..*" - -* "1" Distributor



    package InventoryDepartment{

        class Order{
            id
            arrived
            content

            placeContentInInventory()
        }

        class OrderAssistant{
            getLowestPriceForProduct()
            order()
        }

        class Inventory {
            profitValue

            getValueOfStoredProducts()
        }

        Order -up-> Inventory
        OrderableProducts <- - OrderAssistant
        ProductList ^- - Inventory
        OrderAssistant "0,1" o- - "1" Manager

    }

}

package DataDepartment {


    class Log{
        sales
        purchases
        time
        soldWares
        purchasedProducts
        stolenProducts


    }

    class Statistic{
        getStatics()
        generateDiagram()
    }

    Log "1" *- - "1" Statistic
    Log -right-> Customer


}

package FinancesDepartment {


    class ShoppingCart{
        addProduct()
        deleteProduct()
        basicSum()

    }

    class CashierSystem{
        calculatePrice()
        giveChange()
        cancelAll()
        cancelProduct()
        enterCustomerId()
    }

    Log <- - ShoppingCart

    ShoppingCart "1" *- - "1" CashierSystem

    ShoppingCart "1" - -* "1..*" Product



}
Staff "n" o- - "0,1" CashierSystem
Inventory - -> OrderableProducts: uses referenced \nelements of
Manager -up-> OrderableProducts: adds/removes products
Distributor "n" *-down- "1" Person: Contact person

@enduml

PlantUML version 1.2018.12(Sun Oct 21 12:15:15 CEST 2018)
(GPL source distribution)
Java Runtime: OpenJDK Runtime Environment
JVM: OpenJDK 64-Bit Server VM
Java Version: 10.0.2+13-Debian-1
Operating System: Linux
OS Version: 4.18.0-parrot10-amd64
Default Encoding: UTF-8
Language: en
Country: US
--></g></svg>