<?xml version="1.0" encoding="UTF-8" standalone="no"?><svg xmlns="http://www.w3.org/2000/svg" xmlns:xlink="http://www.w3.org/1999/xlink" contentScriptType="application/ecmascript" contentStyleType="text/css" height="178px" preserveAspectRatio="none" style="width:685px;height:178px;" version="1.1" viewBox="0 0 685 178" width="685px" zoomAndPan="magnify"><defs><filter height="300%" id="f1u2l7ghatxwqb" width="300%" x="-1" y="-1"><feGaussianBlur result="blurOut" stdDeviation="2.0"/><feColorMatrix in="blurOut" result="blurOut2" type="matrix" values="0 0 0 0 0 0 0 0 0 0 0 0 0 0 0 0 0 0 .4 0"/><feOffset dx="4.0" dy="4.0" in="blurOut2" result="blurOut3"/><feBlend in="SourceGraphic" in2="blurOut3" mode="normal"/></filter></defs><g><!--entity proc--><rect fill="#FEFECE" filter="url(#f1u2l7ghatxwqb)" height="62.5938" style="stroke: #A80036; stroke-width: 1.5;" width="218" x="165" y="8"/><rect fill="#FEFECE" height="10" style="stroke: #A80036; stroke-width: 1.5;" width="15" x="363" y="13"/><rect fill="#FEFECE" height="2" style="stroke: #A80036; stroke-width: 1.5;" width="4" x="361" y="15"/><rect fill="#FEFECE" height="2" style="stroke: #A80036; stroke-width: 1.5;" width="4" x="361" y="19"/><text fill="#000000" font-family="sans-serif" font-size="14" font-style="italic" lengthAdjust="spacingAndGlyphs" textLength="98" x="220" y="40.9951">«component»</text><text fill="#000000" font-family="sans-serif" font-size="14" lengthAdjust="spacingAndGlyphs" textLength="178" x="180" y="57.292">ShopManagementSystem</text><!--entity k1--><rect fill="#FEFECE" filter="url(#f1u2l7ghatxwqb)" height="36.2969" style="stroke: #000000; stroke-width: 1.5;" width="80" x="6" y="131"/><text fill="#000000" font-family="sans-serif" font-size="14" lengthAdjust="spacingAndGlyphs" textLength="60" x="16" y="153.9951">Manager</text><!--entity k2--><rect fill="#FEFECE" filter="url(#f1u2l7ghatxwqb)" height="36.2969" style="stroke: #000000; stroke-width: 1.5;" width="50" x="121" y="131"/><text fill="#000000" font-family="sans-serif" font-size="14" lengthAdjust="spacingAndGlyphs" textLength="30" x="131" y="153.9951">Staff</text><!--entity k3--><rect fill="#FEFECE" filter="url(#f1u2l7ghatxwqb)" height="36.2969" style="stroke: #000000; stroke-width: 1.5;" width="136" x="206" y="131"/><text fill="#000000" font-family="sans-serif" font-size="14" lengthAdjust="spacingAndGlyphs" textLength="116" x="216" y="153.9951">NormalCustomer</text><!--entity k4--><rect fill="#FEFECE" filter="url(#f1u2l7ghatxwqb)" height="36.2969" style="stroke: #000000; stroke-width: 1.5;" width="133" x="377.5" y="131"/><text fill="#000000" font-family="sans-serif" font-size="14" lengthAdjust="spacingAndGlyphs" textLength="113" x="387.5" y="153.9951">HouseCustomer</text><!--entity k5--><rect fill="#FEFECE" filter="url(#f1u2l7ghatxwqb)" height="36.2969" style="stroke: #000000; stroke-width: 1.5;" width="129" x="545.5" y="131"/><text fill="#000000" font-family="sans-serif" font-size="14" lengthAdjust="spacingAndGlyphs" textLength="109" x="555.5" y="153.9951">Major Customer</text><!--link proc to k2--><path d="M232.952,74.6153 C211.1241,93.2884 185.1903,115.4739 167.359,130.728 " fill="none" id="proc-k2" style="stroke: #A80036; stroke-width: 1.0;"/><rect fill="#FFFFFF" height="10" style="stroke: #A80036; stroke-width: 1.5;" width="10" x="231.9771" y="66.1719"/><path d="M188.687,103.1772 A10,10 0 0 0 197.8802 113.9236" fill="#FFFFFF" style="stroke: #A80036; stroke-width: 1.5;"/><ellipse cx="198.6568" cy="103.9538" fill="#FFFFFF" rx="6" ry="6" style="stroke: #A80036; stroke-width: 1.5;"/><!--link proc to k1--><path d="M203.5664,73.3267 C163.9185,92.3681 115.9951,115.3839 83.4879,130.9959 " fill="none" id="proc-k1" style="stroke: #A80036; stroke-width: 1.0;"/><rect fill="#FFFFFF" height="10" style="stroke: #A80036; stroke-width: 1.5;" width="10" x="203.3588" y="66.025"/><path d="M131.4141,100.1345 A10,10 0 0 0 137.5365 112.8826" fill="#FFFFFF" style="stroke: #A80036; stroke-width: 1.5;"/><ellipse cx="140.8494" cy="103.4473" fill="#FFFFFF" rx="6" ry="6" style="stroke: #A80036; stroke-width: 1.5;"/><!--link proc to k3--><path d="M274,76.251 C274,94.5713 274,115.917 274,130.728 " fill="none" id="proc-k3" style="stroke: #A80036; stroke-width: 1.0;"/><rect fill="#FFFFFF" height="10" style="stroke: #A80036; stroke-width: 1.5;" width="10" x="269" y="66.1719"/><path d="M266.9289,111.8766 A10,10 0 0 0 281.0711 111.8766" fill="#FFFFFF" style="stroke: #A80036; stroke-width: 1.5;"/><ellipse cx="274" cy="104.8055" fill="#FFFFFF" rx="6" ry="6" style="stroke: #A80036; stroke-width: 1.5;"/><!--link proc to k4--><path d="M327.4368,73.9196 C356.6479,92.735 391.6556,115.284 415.6326,130.728 " fill="none" id="proc-k4" style="stroke: #A80036; stroke-width: 1.0;"/><rect fill="#FFFFFF" height="10" style="stroke: #A80036; stroke-width: 1.5;" width="10" x="318.171" y="66.1719"/><path d="M375.6131,113.3617 A10,10 0 0 0 383.2711 101.4725" fill="#FFFFFF" style="stroke: #A80036; stroke-width: 1.5;"/><ellipse cx="373.4975" cy="103.5881" fill="#FFFFFF" rx="6" ry="6" style="stroke: #A80036; stroke-width: 1.5;"/><!--link proc to k5--><path d="M375.6648,72.6318 C434.4995,91.8056 506.2651,115.1935 554.7546,130.9959 " fill="none" id="proc-k5" style="stroke: #A80036; stroke-width: 1.0;"/><rect fill="#FFFFFF" height="10" style="stroke: #A80036; stroke-width: 1.5;" width="10" x="365.7343" y="66.025"/><path d="M473.6212,111.9922 A10,10 0 0 0 478.0032 98.5461" fill="#FFFFFF" style="stroke: #A80036; stroke-width: 1.5;"/><ellipse cx="469.0892" cy="103.0781" fill="#FFFFFF" rx="6" ry="6" style="stroke: #A80036; stroke-width: 1.5;"/><!--
@startuml
skinparam componentStyle uml2
skinparam componentStyle uml2



component [ShopManagementSystem] <<component>> as proc
rectangle "Manager" as k1
rectangle "Staff" as k2
rectangle "NormalCustomer" as k3
rectangle "HouseCustomer" as k4
rectangle "Major Customer" as k5

proc #-0)- k2

proc #-0)- k1

proc #-0)- k3

proc #-0)- k4

proc #-0)- k5


@enduml

PlantUML version 1.2018.11(Sat Sep 22 18:43:53 CEST 2018)
(GPL source distribution)
Java Runtime: OpenJDK Runtime Environment
JVM: OpenJDK 64-Bit Server VM
Java Version: 10.0.2+13-Debian-1
Operating System: Linux
OS Version: 4.18.0-parrot10-amd64
Default Encoding: UTF-8
Language: en
Country: US
--></g></svg>