<?xml version="1.0" encoding="UTF-8" standalone="no"?><svg xmlns="http://www.w3.org/2000/svg" xmlns:xlink="http://www.w3.org/1999/xlink" contentScriptType="application/ecmascript" contentStyleType="text/css" height="292px" preserveAspectRatio="none" style="width:546px;height:292px;" version="1.1" viewBox="0 0 546 292" width="546px" zoomAndPan="magnify"><defs><filter height="300%" id="fadbacpl8ssb6" width="300%" x="-1" y="-1"><feGaussianBlur result="blurOut" stdDeviation="2.0"/><feColorMatrix in="blurOut" result="blurOut2" type="matrix" values="0 0 0 0 0 0 0 0 0 0 0 0 0 0 0 0 0 0 .4 0"/><feOffset dx="4.0" dy="4.0" in="blurOut2" result="blurOut3"/><feBlend in="SourceGraphic" in2="blurOut3" mode="normal"/></filter></defs><g><polygon fill="#FEFECE" filter="url(#fadbacpl8ssb6)" points="302.479,147.9246,301.9097,151.884,299.7369,154.8967,297.2438,157.8981,295.1857,161.3842,291.3026,163.3719,287.7552,165.5077,283.5915,166.8858,279.0041,167.5461,275.0201,168.2229,269.6165,167.1581,266.1683,167.0397,261.7087,165.365,257.4177,163.0539,254.4111,160.9926,251.3902,158.1049,249.13,155.0372,247.259,151.5141,246.1691,147.9065,245.555,144.0304,245.8409,140.3172,246.8785,136.7423,248.9123,133.6155,251.0898,130.3549,253.8123,127.4144,258.294,125.9181,261.0428,123.1267,265.9147,122.3301,269.6316,120.955,274.8709,121.3088,279.0044,121.3308,282.7366,121.6824,287.4681,123.5804,291.1635,125.4025,294.3863,127.6412,297.2312,130.3844,299.8867,133.7768,301.3766,136.9869,303.0736,141.093,302.7734,144.2184" style="stroke: #A80036; stroke-width: 1.5;"/><text fill="#000000" font-family="sans-serif" font-size="14" lengthAdjust="spacingAndGlyphs" textLength="28" x="260.4947" y="140.1472">Pro-</text><text fill="#000000" font-family="sans-serif" font-size="14" lengthAdjust="spacingAndGlyphs" textLength="33" x="257.9947" y="156.4441">zess</text><!--entity k1--><polygon fill="#FEFECE" filter="url(#fadbacpl8ssb6)" points="117,8,117,8.2102,126.9167,7.5857,136.8333,8.1933,146.75,8.3997,156.6667,7.2866,166.5833,7.9223,176.5,7.5735,186.4167,7.6165,196.3333,7.9318,206.25,7.3086,216.1667,8.5536,226.0833,7.3697,236,8,235.9341,8,236.144,15.2594,235.9714,22.5188,236.0227,29.7781,235.9894,37.0375,236,44.2969,236,44.4754,226.0833,44.536,216.1667,44.8826,206.25,44.9679,196.3333,44.9761,186.4167,44.5515,176.5,44.7605,166.5833,44.9991,156.6667,43.5757,146.75,44.9754,136.8333,44.0004,126.9167,44.8307,117,44.2969,116.835,44.2969,116.9772,37.0375,117.2472,29.7781,116.9838,22.5187,117.0351,15.2594,117,8" style="stroke: #000000; stroke-width: 1.5;"/><text fill="#000000" font-family="sans-serif" font-size="14" lengthAdjust="spacingAndGlyphs" textLength="99" x="127" y="30.9951">Komponente1</text><!--entity k2--><polygon fill="#FEFECE" filter="url(#fadbacpl8ssb6)" points="312,8,312,8.2102,321.9167,7.5857,331.8333,8.1933,341.75,8.3997,351.6667,7.2866,361.5833,7.9223,371.5,7.5735,381.4167,7.6165,391.3333,7.9318,401.25,7.3086,411.1667,8.5536,421.0833,7.3697,431,8,430.9341,8,431.144,15.2594,430.9714,22.5188,431.0227,29.7781,430.9894,37.0375,431,44.2969,431,44.4754,421.0833,44.536,411.1667,44.8826,401.25,44.9679,391.3333,44.9761,381.4167,44.5515,371.5,44.7605,361.5833,44.9991,351.6667,43.5757,341.75,44.9754,331.8333,44.0004,321.9167,44.8307,312,44.2969,311.835,44.2969,311.9772,37.0375,312.2472,29.7781,311.9838,22.5187,312.0351,15.2594,312,8" style="stroke: #000000; stroke-width: 1.5;"/><text fill="#000000" font-family="sans-serif" font-size="14" lengthAdjust="spacingAndGlyphs" textLength="99" x="322" y="30.9951">Komponente2</text><!--entity k3--><polygon fill="#FEFECE" filter="url(#fadbacpl8ssb6)" points="416,126.5,416,126.7102,425.9167,126.0857,435.8333,126.6933,445.75,126.8997,455.6667,125.7866,465.5833,126.4223,475.5,126.0735,485.4167,126.1165,495.3333,126.4318,505.25,125.8086,515.1667,127.0536,525.0833,125.8697,535,126.5,534.9341,126.5,535.144,133.7594,534.9714,141.0188,535.0227,148.2781,534.9894,155.5375,535,162.7969,535,162.9754,525.0833,163.036,515.1667,163.3826,505.25,163.4679,495.3333,163.4761,485.4167,163.0515,475.5,163.2605,465.5833,163.4991,455.6667,162.0757,445.75,163.4754,435.8333,162.5004,425.9167,163.3307,416,162.7969,415.835,162.7969,415.9772,155.5375,416.2472,148.2781,415.9838,141.0188,416.0351,133.7594,416,126.5" style="stroke: #000000; stroke-width: 1.5;"/><text fill="#000000" font-family="sans-serif" font-size="14" lengthAdjust="spacingAndGlyphs" textLength="99" x="426" y="149.4951">Komponente3</text><!--entity k4--><polygon fill="#FEFECE" filter="url(#fadbacpl8ssb6)" points="117,245,117,245.2102,126.9167,244.5857,136.8333,245.1933,146.75,245.3997,156.6667,244.2866,166.5833,244.9223,176.5,244.5735,186.4167,244.6165,196.3333,244.9318,206.25,244.3086,216.1667,245.5536,226.0833,244.3697,236,245,235.9341,245,236.144,252.2594,235.9714,259.5188,236.0227,266.7781,235.9894,274.0375,236,281.2969,236,281.4754,226.0833,281.536,216.1667,281.8826,206.25,281.9679,196.3333,281.9761,186.4167,281.5515,176.5,281.7605,166.5833,281.9991,156.6667,280.5757,146.75,281.9754,136.8333,281.0004,126.9167,281.8307,117,281.2969,116.835,281.2969,116.9772,274.0375,117.2472,266.7781,116.9838,259.5188,117.0351,252.2594,117,245" style="stroke: #000000; stroke-width: 1.5;"/><text fill="#000000" font-family="sans-serif" font-size="14" lengthAdjust="spacingAndGlyphs" textLength="99" x="127" y="267.9951">Komponente4</text><!--entity k5--><polygon fill="#FEFECE" filter="url(#fadbacpl8ssb6)" points="312,245,312,245.2102,321.9167,244.5857,331.8333,245.1933,341.75,245.3997,351.6667,244.2866,361.5833,244.9223,371.5,244.5735,381.4167,244.6165,391.3333,244.9318,401.25,244.3086,411.1667,245.5536,421.0833,244.3697,431,245,430.9341,245,431.144,252.2594,430.9714,259.5188,431.0227,266.7781,430.9894,274.0375,431,281.2969,431,281.4754,421.0833,281.536,411.1667,281.8826,401.25,281.9679,391.3333,281.9761,381.4167,281.5515,371.5,281.7605,361.5833,281.9991,351.6667,280.5757,341.75,281.9754,331.8333,281.0004,321.9167,281.8307,312,281.2969,311.835,281.2969,311.9772,274.0375,312.2472,266.7781,311.9838,259.5188,312.0351,252.2594,312,245" style="stroke: #000000; stroke-width: 1.5;"/><text fill="#000000" font-family="sans-serif" font-size="14" lengthAdjust="spacingAndGlyphs" textLength="99" x="322" y="267.9951">Komponente5</text><!--entity k6--><polygon fill="#FEFECE" filter="url(#fadbacpl8ssb6)" points="6,126.5,6,126.7102,15.9167,126.0857,25.8333,126.6933,35.75,126.8997,45.6667,125.7866,55.5833,126.4223,65.5,126.0735,75.4167,126.1165,85.3333,126.4318,95.25,125.8086,105.1667,127.0536,115.0833,125.8697,125,126.5,124.9341,126.5,125.144,133.7594,124.9714,141.0188,125.0227,148.2781,124.9894,155.5375,125,162.7969,125,162.9754,115.0833,163.036,105.1667,163.3826,95.25,163.4679,85.3333,163.4761,75.4167,163.0515,65.5,163.2605,55.5833,163.4991,45.6667,162.0757,35.75,163.4754,25.8333,162.5004,15.9167,163.3307,6,162.7969,5.835,162.7969,5.9772,155.5375,6.2472,148.2781,5.9838,141.0188,6.0351,133.7594,6,126.5" style="stroke: #000000; stroke-width: 1.5;"/><text fill="#000000" font-family="sans-serif" font-size="14" lengthAdjust="spacingAndGlyphs" textLength="99" x="16" y="149.4951">Komponente6</text><!--link k2 to proc--><path d="M352.434,47.9876 L352.5051,48.0482 L350.1079,50.4352 L348.1276,53.1772 L346.0116,55.8037 L343.4491,58.0499 L341.5046,60.8224 L341.4781,60.8003 L339.1582,63.3364 L336.9719,65.9842 L334.8786,68.7096 L332.4651,71.1675 L330.5,74 L330.6913,74.1548 L326.0244,79.0848 L321.916,84.4667 L317.8758,89.9038 L313.4391,95.0201 L309.2109,100.3051 L309.2347,100.3239 L305.3582,105.1545 L301.5901,110.0708 L297.7697,114.9457 L294.049,119.8995 L290.0033,124.5963 " fill="none" style="stroke: #A80036; stroke-width: 1.0;"/><polygon fill="#A80036" points="355.7709,44.1053,355.8009,44.1686,353.9318,44.8241,352.2385,45.8507,350.488,46.7565,348.5491,47.2648,346.871,48.3233,346.869,48.2975,347.9884,48.0963,349.1177,48.0254,350.2537,48.045,351.3663,47.7526,352.5118,47.8971,352.6958,47.911,352.3875,49.0095,352.6165,50.1485,352.911,51.2925,352.8242,52.4076,352.9379,53.5379,352.9597,53.5445,353.4943,51.6483,354.1281,49.782,354.7141,47.9013,355.3913,46.048,355.7709,44.1053" style="stroke: #A80036; stroke-width: 1.0;"/><text fill="#000000" font-family="sans-serif" font-size="13" lengthAdjust="spacingAndGlyphs" textLength="76" x="331.5" y="87.0669">Datenfluss1</text><!--link k2 to proc--><path d="M395.3228,44.1693 L395.3904,44.2338 L397.231,46.18 L399.4678,48.5044 L401.5755,50.7057 L403.2592,52.502 L405.5299,54.8589 L405.501,54.84 L406.9164,57.1239 L408.4776,59.5029 L410.1403,61.9481 L411.4535,64.1654 L413.2561,66.7019 L413.4949,66.7612 L413.595,69.0912 L414.3923,71.5944 L415.2747,74.1188 L415.6622,76.5202 L416.3099,78.9863 L416.3388,78.9954 L415.5344,81.3847 L414.8616,83.8157 L414.1253,86.2266 L413.5101,88.6759 L412.5,91 L412.7133,91.2085 L411.4067,92.55 L409.9627,93.757 L408.7199,95.1609 L407.4866,96.5741 L405.9543,97.6948 L405.7773,97.4276 L404.135,99.2616 L401.9099,100.2156 L400.1279,101.8386 L397.8895,102.7727 L396.0252,104.2714 L396.0114,104.2443 L393.6607,105.8398 L390.9883,106.8009 L388.5057,108.1363 L386.0391,109.5031 L383.4575,110.6433 L383.5292,110.8138 L380.5646,111.8578 L377.7224,113.1931 L374.6821,114.0571 L371.9374,115.6242 L368.9962,116.7238 L369.0798,116.9526 L365.942,118.0499 L362.8457,119.2607 L359.5565,119.9437 L356.4087,121.0136 L353.3862,122.4264 L353.3003,122.1639 L350.1753,123.4492 L346.9535,124.4387 L343.8721,125.8572 L340.551,126.5432 L337.3724,127.6646 L337.3287,127.5185 L334.2669,128.6992 L331.0184,129.2555 L327.9027,130.2559 L324.917,131.6907 L321.6998,132.3518 L321.7516,132.5384 L318.8698,133.4763 L315.8269,133.8339 L312.9858,134.9183 L310.1008,135.8444 L307.1133,136.4015 " fill="none" style="stroke: #A80036; stroke-width: 1.0;"/><polygon fill="#A80036" points="301.835,137.8012,301.8461,137.8704,303.7581,137.9767,305.735,138.4886,307.6909,138.8685,309.577,138.8141,311.5596,139.3608,311.5466,139.3384,310.5099,138.6696,309.5387,138.1138,308.6132,137.6364,307.5305,136.8886,306.668,136.5196,306.8276,136.6123,307.0545,135.4358,307.7474,134.5299,308.4971,133.657,308.9161,132.592,309.5091,131.628,309.5234,131.6457,307.9676,132.8544,306.4768,134.1437,304.9546,135.394,303.4922,136.7187,301.835,137.8012" style="stroke: #A80036; stroke-width: 1.0;"/><text fill="#000000" font-family="sans-serif" font-size="13" lengthAdjust="spacingAndGlyphs" textLength="76" x="416.5" y="87.0669">Datenfluss2</text><!--link k1 to proc--><path d="M121.3986,46.3496 L121.4468,46.4296 L118.2086,48.0555 L115.2529,50.1505 L112.2052,52.0927 L108.8549,53.5326 L105.9235,55.6679 L105.8998,55.6428 L103.5351,57.6639 L101.2901,59.8116 L99.1281,62.0472 L96.6797,63.9797 L94.6326,66.3368 L94.8617,66.4265 L93.4452,68.6023 L92.6977,71.04 L92.0319,73.5096 L90.8911,75.7933 L90.0001,78.1748 L90.0287,78.1848 L90.8867,80.7351 L91.8749,83.3311 L92.8003,85.9051 L93.8456,88.5211 L94.5,91 L94.6987,91.2224 L96.6755,92.9895 L98.5242,94.6132 L100.5604,96.4468 L102.6055,98.2903 L104.3719,99.822 L104.2199,99.5398 L107.5304,101.7118 L110.3403,102.9546 L113.5308,104.9038 L116.3294,106.1256 L119.4492,107.9436 L119.4375,107.9155 L121.3929,109.0055 L123.0744,109.439 L124.9175,110.2599 L126.7741,111.1133 L128.5329,111.7322 L128.5962,111.906 L130.5117,112.4509 L132.5352,113.2929 L134.3839,113.6543 L136.4935,114.7326 L138.4296,115.3342 L138.5046,115.566 L140.5997,116.2046 L142.7322,116.9582 L144.6916,117.177 L146.7778,117.7878 L148.9764,118.746 L148.8991,118.4808 L151.1759,119.3644 L153.3656,119.9492 L155.6816,120.9673 L157.782,121.2456 L160.0105,121.9636 L159.9714,121.8163 L162.3083,122.6656 L164.4779,122.8851 L166.7665,123.5525 L169.1716,124.6581 L171.3692,124.9833 L171.4152,125.1714 L173.7509,125.864 L175.9434,125.9716 L178.3152,126.8119 L180.6479,127.4926 L182.8897,127.8013 L182.8432,127.5965 L185.1841,128.2822 L187.5098,128.9009 L189.8653,129.6513 L192.1047,129.8894 L194.409,130.4138 L194.4516,130.6149 L196.6292,130.6536 L198.8889,131.0805 L201.2687,132.0746 L203.4275,132.0245 L205.7646,132.8169 L205.8074,133.039 L210.0956,133.7397 L214.3693,134.3652 L218.6757,135.1603 L223.0578,136.3475 L227.3328,136.98 L227.3101,136.8489 L231.1695,137.8952 L234.8746,138.0499 L238.7551,139.2184 L242.5369,139.8162 L246.292,140.2601 " fill="none" style="stroke: #A80036; stroke-width: 1.0;"/><polygon fill="#A80036" points="125.9162,44.1161,125.9191,44.1861,123.9424,44.0587,121.9826,44.3417,120.0173,44.4911,118.034,44.201,116.0756,44.5192,116.0673,44.4946,117.1017,44.7471,118.178,45.1233,119.2834,45.5854,120.2885,45.7512,121.4341,46.3321,121.6089,46.3912,120.8725,47.3365,120.6465,48.4544,120.4827,49.5933,119.9567,50.6097,119.6212,51.6906,119.6387,51.7051,120.872,50.1689,122.185,48.6988,123.4595,47.1968,124.8073,45.7558,125.9162,44.1161" style="stroke: #A80036; stroke-width: 1.0;"/><text fill="#000000" font-family="sans-serif" font-size="13" lengthAdjust="spacingAndGlyphs" textLength="76" x="95.5" y="87.0669">Datenfluss3</text><!--link k1 to proc--><path d="M191.5977,44.2559 L191.8137,44.4345 L197.4991,51.5545 L204.4506,59.7215 L210.9898,67.5475 L216.1732,74.2523 L223.1535,82.4432 L229.1223,89.7975 L235.4936,97.4846 L242.1447,105.4033 L247.8315,112.5244 L254.869,120.7625 " fill="none" style="stroke: #A80036; stroke-width: 1.0;"/><polygon fill="#A80036" points="258.2417,124.8407,258.3092,124.8596,257.578,122.9066,257.2424,121.0642,256.7779,119.1858,255.8899,117.1889,255.5883,115.356,255.5625,115.3536,255.3401,116.4689,255.2477,117.5966,255.2458,118.7329,254.9323,119.8396,255.0551,120.9877,255.0725,121.1714,253.909,120.6719,252.7962,120.7088,251.6897,120.8111,250.5471,120.5327,249.4234,120.4545,249.4336,120.4749,251.1824,121.3222,252.9772,122.2623,254.7499,123.1576,256.565,124.1383,258.2417,124.8407" style="stroke: #A80036; stroke-width: 1.0;"/><text fill="#000000" font-family="sans-serif" font-size="13" lengthAdjust="spacingAndGlyphs" textLength="76" x="228.5" y="87.0669">Datenfluss4</text><!--link proc to k3--><path d="M303.2984,144.5 L303.2984,144.7802 L313.0355,143.9476 L322.7726,144.7577 L332.5096,145.0329 L342.2467,143.5488 L351.9838,144.3964 L361.7209,143.9313 L371.458,143.9887 L381.1951,144.4091 L390.9321,143.5782 L400.6692,145.2382 L410.4063,144.5 " fill="none" style="stroke: #A80036; stroke-width: 1.0;"/><polygon fill="#A80036" points="415.6845,144.5,415.713,144.564,413.8284,143.5738,412.1107,142.9589,410.3386,142.2217,408.3879,141.0827,406.6845,140.5,406.6662,140.4817,407.384,141.1995,408.1941,142.0096,409.0684,142.8839,409.7215,143.537,410.6845,144.5,410.815,144.6305,409.7359,145.1514,409.0379,146.0534,408.3863,147.0018,407.4643,147.6798,406.6845,148.5,406.6937,148.5208,408.4802,147.6903,410.3087,146.9544,412.1169,146.1728,413.9638,145.4784,415.6845,144.5" style="stroke: #A80036; stroke-width: 1.0;"/><text fill="#000000" font-family="sans-serif" font-size="13" lengthAdjust="spacingAndGlyphs" textLength="76" x="321.5" y="137.5669">Datenfluss5</text><!--link proc to k3--><path d="M303.6441,159.2788 L303.6717,159.368 L306.9608,160.1471 L310.4119,161.4493 L313.8102,162.5812 L317.035,163.1529 L320.5,164.5 L320.4943,164.4659 L322.8434,164.7076 L325.221,165.1211 L327.6185,165.654 L329.9476,165.7754 L332.3724,166.4732 L332.3949,166.7182 L334.7723,166.4168 L337.2154,166.8308 L339.6664,167.3321 L342.0709,167.3255 L344.4998,167.5861 L344.5007,167.6164 L346.9519,167.6411 L349.407,167.8038 L351.8602,167.8999 L354.317,168.1231 L356.7621,167.9321 L356.7701,168.2302 L359.2256,168.1684 L361.6759,167.9142 L364.1338,167.9416 L366.5921,167.9821 L369.0392,167.6047 L369.0153,167.285 L371.4959,167.7239 L373.8981,167.1102 L376.3598,167.2967 L378.7602,166.6592 L381.2109,166.6971 L381.2074,166.6669 L383.6384,166.7457 L385.9869,166.1179 L388.3841,165.9071 L390.7854,165.7313 L393.1572,165.3029 L393.1854,165.4858 L395.4771,164.9437 L397.817,164.7141 L400.079,163.979 L402.4572,163.9979 L404.7581,163.5155 L404.803,163.755 L407.0215,163.2922 L409.2624,162.9484 L411.3997,162.0521 L413.6128,161.5608 L415.8933,161.4282 " fill="none" style="stroke: #A80036; stroke-width: 1.0;"/><polygon fill="#A80036" points="298.714,157.2277,298.7649,157.2759,299.9684,158.5628,301.47,160.1321,302.8746,161.6094,303.9599,162.7843,305.4871,164.3779,305.4632,164.368,304.9243,163.2778,304.5063,162.2373,304.1721,161.2314,303.5487,160.1063,303.3304,159.1483,303.4008,159.3189,304.2962,158.5227,305.3971,158.2247,306.5231,157.9874,307.5032,157.3965,308.56,156.9916,308.5606,157.0143,306.5906,157.0282,304.623,157.1455,302.6543,157.2129,300.6879,157.3757,298.714,157.2277" style="stroke: #A80036; stroke-width: 1.0;"/><text fill="#000000" font-family="sans-serif" font-size="13" lengthAdjust="spacingAndGlyphs" textLength="76" x="321.5" y="160.5669">Datenfluss6</text><!--link proc to k4--><path d="M246.292,148.7399 L246.3079,148.8319 L242.4688,149.2145 L238.723,150.1366 L234.9468,150.883 L231.0706,151.0516 L227.3328,152.02 L227.3263,151.9861 L222.9832,152.6665 L218.6732,153.5179 L214.3861,154.4881 L210.02,155.0488 L205.7646,156.1831 L205.8155,156.4238 L203.4355,156.3897 L201.2041,157.0584 L198.991,157.8128 L196.6722,158.0683 L194.409,158.5862 L194.4157,158.6158 L192.102,159.0949 L189.8188,159.7086 L187.5209,160.2574 L185.2511,160.9301 L182.8897,161.1987 L182.9605,161.4884 L180.6573,162.0555 L178.3084,162.4358 L176.0263,163.0896 L173.7475,163.7563 L171.3692,164.0167 L171.2869,163.7069 L169.175,164.9121 L166.7919,165.0972 L164.615,166.0578 L162.2257,166.2198 L160.0105,167.0364 L160.002,167.0072 L157.896,167.9963 L155.5908,168.3026 L153.4031,169.0119 L151.2253,169.755 L148.9764,170.254 L149.0333,170.43 L146.8665,170.9347 L144.7969,171.7402 L142.57,172.059 L140.5778,173.1037 L138.4296,173.6658 L138.5129,173.8947 L136.5178,174.5718 L134.5641,175.3626 L132.4182,175.6253 L130.4131,176.2751 L128.5329,177.2678 L128.4266,177.0129 L126.7061,178.0014 L124.8658,178.7027 L123.1993,179.8205 L121.2361,180.2271 L119.4492,181.0564 L119.3769,180.9222 L116.4819,182.7701 L113.2778,184.0441 L110.2934,185.7262 L107.5241,187.8076 L104.3719,189.178 L104.5009,189.3224 L102.615,191.1858 L100.3278,192.6001 L98.5433,194.577 L96.6492,196.4313 L94.5,198 L94.3019,197.9305 L93.5598,200.5509 L92.7529,203.1486 L92.0734,205.791 L90.8983,208.2596 L90.0001,210.8252 L90.1915,210.9001 L90.6974,213.1031 L91.5728,215.4507 L92.988,218.0096 L93.4094,220.1795 L94.6326,222.6632 L94.788,222.8276 L96.9538,224.8637 L99.0672,226.8442 L101.2991,228.9503 L103.8053,231.3465 L105.9235,233.3321 L105.8548,233.2182 L109.1542,235.4211 L111.9868,236.849 L115.3501,239.1582 L118.4146,240.9711 L121.3986,242.6504 " fill="none" style="stroke: #A80036; stroke-width: 1.0;"/><polygon fill="#A80036" points="125.9162,244.8839,125.9701,244.9287,124.551,243.2807,123.4477,241.8953,122.2416,240.4244,120.6973,238.6723,119.6212,237.3094,119.5966,237.3011,119.8491,238.3356,120.2252,239.4119,120.6874,240.5172,120.8532,241.5224,121.4341,242.6679,121.4932,242.8427,120.2951,242.8315,119.2696,243.3306,118.2651,243.892,117.1381,244.0912,116.0756,244.4808,116.0765,244.5035,118.0433,244.5508,120.0143,244.7015,121.9832,244.8023,123.9561,244.9983,125.9162,244.8839" style="stroke: #A80036; stroke-width: 1.0;"/><text fill="#000000" font-family="sans-serif" font-size="13" lengthAdjust="spacingAndGlyphs" textLength="76" x="95.5" y="211.0669">Datenfluss7</text><!--link proc to k4--><path d="M254.9337,168.1593 L255.1497,168.3379 L248.1567,175.4871 L242.4297,183.6833 L236.2905,191.5386 L228.7955,198.2726 L223.0974,206.4927 L216.3877,213.8762 L210.0806,221.5926 L204.0533,229.5404 L197.0616,236.6907 L191.4207,244.9581 " fill="none" style="stroke: #A80036; stroke-width: 1.0;"/><polygon fill="#A80036" points="258.3173,164.0679,258.3485,164.1306,256.4922,164.8215,254.8187,165.8801,253.0857,166.819,251.1569,167.3641,249.4991,168.4543,249.4967,168.4285,250.6121,168.2061,251.7398,168.1137,252.876,168.1117,253.9827,167.7982,255.1308,167.921,255.3145,167.9384,255.0283,169.0275,255.2785,170.1674,255.5941,171.3136,255.529,172.4236,255.6641,173.5526,255.686,173.5588,256.1845,171.6528,256.7827,169.7748,257.3328,167.8833,257.9747,166.0174,258.3173,164.0679" style="stroke: #A80036; stroke-width: 1.0;"/><text fill="#000000" font-family="sans-serif" font-size="13" lengthAdjust="spacingAndGlyphs" textLength="76" x="228.5" y="211.0669">Datenfluss8</text><!--link proc to k5--><path d="M290.0033,164.4037 L290.0766,164.4616 L293.7004,169.1477 L297.7537,174.1735 L301.6672,179.0886 L305.1207,183.64 L309.2109,188.6949 L309.184,188.6732 L313.3214,193.8367 L317.594,199.1097 L321.9608,204.4589 L326.0033,209.5457 L330.5,215 L330.6889,215.1577 L332.4859,217.456 L334.8344,220.2147 L337.2501,223.0296 L339.2744,225.5176 L341.5046,228.1776 L341.5277,228.1972 L343.6797,230.7353 L345.9368,233.3629 L348.1432,235.9474 L350.4463,238.6142 L352.434,241.0124 " fill="none" style="stroke: #A80036; stroke-width: 1.0;"/><polygon fill="#A80036" points="355.7709,244.8947,355.838,244.9149,355.072,242.9685,354.6994,241.1402,354.1987,239.2734,353.2768,237.2802,352.9379,235.4621,352.9121,235.4601,352.7109,236.5795,352.64,237.7088,352.6596,238.8448,352.3672,239.9573,352.5118,241.1029,352.5257,241.2869,351.3678,240.8081,350.2505,240.8667,349.1381,240.9907,347.997,240.7334,346.871,240.6767,346.8807,240.6972,348.6464,241.5107,350.4564,242.4177,352.2451,243.2795,354.0745,244.2275,355.7709,244.8947" style="stroke: #A80036; stroke-width: 1.0;"/><text fill="#000000" font-family="sans-serif" font-size="13" lengthAdjust="spacingAndGlyphs" textLength="76" x="331.5" y="211.0669">Datenfluss9</text><!--link proc to k5--><path d="M307.1133,152.5985 L307.1383,152.6885 L309.9813,153.231 L312.9709,154.3011 L315.9127,155.1995 L318.6977,155.5327 L321.6998,156.6482 L321.6899,156.6151 L324.78,157.404 L327.92,158.3598 L331.0947,159.4315 L334.1498,160.1036 L337.3724,161.3354 L337.4489,161.5693 L340.4881,162.1168 L343.7506,163.3471 L347.0403,164.6608 L350.1716,165.4897 L353.3862,166.5736 L353.3966,166.6021 L356.5033,167.7008 L359.6574,168.9292 L362.7886,170.095 L365.9635,171.3802 L368.9962,172.2762 L369.1118,172.5512 L372.0055,173.7706 L374.8246,174.8127 L377.7528,176.1145 L380.6862,177.4283 L383.4575,178.3567 L383.3126,178.0708 L386.1074,179.9001 L388.425,180.7879 L391.1054,182.3914 L393.4122,183.258 L396.0252,184.7286 L396.0084,184.7032 L398.193,186.3187 L399.9849,187.3411 L402.0085,188.7135 L404.0516,190.1153 L405.9543,191.3052 L406.0866,191.4345 L407.2622,192.6429 L408.6639,194.0723 L409.6998,195.1442 L411.2812,196.7494 L412.5,198 L412.7322,198.0737 L413.4503,200.4625 L414.2837,202.8879 L414.5813,205.1433 L415.2716,207.5234 L416.3099,210.0137 L416.0419,209.9471 L415.6738,212.4643 L415.0036,214.9064 L414.7715,217.4574 L413.7915,219.8225 L413.2561,222.2981 L413.1284,222.2148 L411.7958,224.7222 L409.9174,226.8734 L408.4272,229.2779 L407.3167,231.9301 L405.5299,234.1411 L405.67,234.2749 L403.7246,236.5045 L401.3436,238.3182 L399.5083,240.6529 L397.554,242.874 L395.3228,244.8307 " fill="none" style="stroke: #A80036; stroke-width: 1.0;"/><polygon fill="#A80036" points="301.835,151.1988,301.8789,151.2534,303.2833,152.3258,304.945,153.7183,306.523,155.0065,307.8252,155.9521,309.5091,157.372,309.4867,157.359,308.8179,156.3223,308.2621,155.3511,307.7848,154.4256,307.0369,153.3429,306.668,152.4804,306.7607,152.6399,307.5408,151.7305,308.5915,151.2869,309.6753,150.9002,310.5669,150.1827,311.5596,149.6392,311.5632,149.6617,309.613,149.9406,307.6792,150.3218,305.7375,150.6537,303.8108,151.0797,301.835,151.1988" style="stroke: #A80036; stroke-width: 1.0;"/><text fill="#000000" font-family="sans-serif" font-size="13" lengthAdjust="spacingAndGlyphs" textLength="84" x="416.5" y="211.0669">Datenfluss10</text><!--link k6 to proc--><path d="M130.2691,144.5 L130.2691,144.7802 L139.8983,143.9476 L149.5275,144.7577 L159.1567,145.0329 L168.7859,143.5488 L178.4151,144.3964 L188.0444,143.9313 L197.6736,143.9887 L207.3028,144.4091 L216.932,143.5782 L226.5612,145.2382 L236.1904,143.6596 L245.8196,144.5 " fill="none" style="stroke: #A80036; stroke-width: 1.0;"/><polygon fill="#A80036" points="125.1113,144.5,125.1398,144.564,126.8552,145.1738,128.7375,146.1589,130.5654,147.0217,132.2147,147.4827,134.1113,148.5,134.093,148.4817,133.2108,147.5995,132.4209,146.8096,131.6952,146.0839,130.7483,145.137,130.1113,144.5,130.2418,144.6305,130.7627,143.5514,131.6647,142.8534,132.6131,142.2018,133.2911,141.2798,134.1113,140.5,134.1205,140.5208,132.307,141.2903,130.5355,142.1544,128.7437,142.9728,126.9906,143.8784,125.1113,144.5" style="stroke: #A80036; stroke-width: 1.0;"/><text fill="#000000" font-family="sans-serif" font-size="13" lengthAdjust="spacingAndGlyphs" textLength="84" x="143.5" y="137.5669">Datenfluss11</text><!--link k6 to proc--><path d="M125.3216,161.6069 L125.3371,161.699 L128.7267,162.0039 L132.2072,162.8489 L135.6581,163.5179 L139.0117,163.6087 L142.5,164.5 L142.4956,164.4657 L147.3096,164.9396 L152.1461,165.5861 L156.9982,166.3527 L161.7965,166.7056 L166.6701,167.6379 L166.6907,167.8831 L170.4496,167.6782 L174.2686,168.1891 L178.095,168.7875 L181.8786,168.8776 L185.6848,169.235 L185.686,169.2653 L189.4686,169.0668 L193.2569,169.0061 L197.0424,168.879 L200.8332,168.8788 L204.607,168.4647 L204.6481,168.7601 L206.8504,168.4574 L209.0261,167.9642 L211.2406,167.7499 L213.457,167.5487 L215.6157,166.9333 L215.5562,166.6183 L218.2485,166.743 L220.745,165.8305 L223.3903,165.7064 L225.8823,164.7705 L228.5,164.5 L228.491,164.4709 L231.9687,163.7706 L235.236,162.3908 L238.6274,161.412 L242.0293,160.4668 L245.3559,159.2788 " fill="none" style="stroke: #A80036; stroke-width: 1.0;"/><polygon fill="#A80036" points="250.286,157.2277,250.2877,157.2977,248.3135,157.0424,246.3491,157.1977,244.3816,157.2192,242.4035,156.8011,240.44,156.9916,240.4301,156.9676,241.4317,157.2915,242.4831,157.7361,243.5691,158.2646,244.5358,158.5039,245.6696,159.1483,245.8402,159.2186,245.044,160.1141,244.746,161.215,244.5087,162.3409,243.9178,163.321,243.5129,164.3779,243.5294,164.3935,244.8598,162.9405,246.2653,161.5587,247.6346,160.1426,249.0731,158.792,250.286,157.2277" style="stroke: #A80036; stroke-width: 1.0;"/><text fill="#000000" font-family="sans-serif" font-size="13" lengthAdjust="spacingAndGlyphs" textLength="84" x="143.5" y="160.5669">Datenfluss12</text><!--
@startuml
skinparam componentStyle uml2
skinparam handwritten true

(Pro-\nzess) as proc
rectangle "Komponente1" as k1
rectangle "Komponente2" as k2
rectangle "Komponente3" as k3
rectangle "Komponente4" as k4
rectangle "Komponente5" as k5
rectangle "Komponente6" as k6

proc -up-> k2: Datenfluss1
proc <-up- k2: Datenfluss2

proc -up-> k1: Datenfluss3
proc <-up- k1: Datenfluss4

proc -right-> k3: Datenfluss5
proc <-right- k3: Datenfluss6

proc -down-> k4: Datenfluss7
proc <-down- k4: Datenfluss8

proc -down-> k5: Datenfluss9
proc <-down- k5: Datenfluss10

proc -left-> k6: Datenfluss11
proc <-left- k6: Datenfluss12

@enduml

PlantUML version 1.2018.11(Sat Sep 22 18:43:53 CEST 2018)
(GPL source distribution)
Java Runtime: OpenJDK Runtime Environment
JVM: OpenJDK 64-Bit Server VM
Java Version: 10.0.2+13-Ubuntu-1ubuntu0.18.04.2
Operating System: Linux
OS Version: 4.15.0-36-generic
Default Encoding: UTF-8
Language: de
Country: DE
--></g></svg>