<?xml version="1.0" encoding="UTF-8" standalone="no"?><svg xmlns="http://www.w3.org/2000/svg" xmlns:xlink="http://www.w3.org/1999/xlink" contentScriptType="application/ecmascript" contentStyleType="text/css" height="225px" preserveAspectRatio="none" style="width:725px;height:225px;" version="1.1" viewBox="0 0 725 225" width="725px" zoomAndPan="magnify"><defs><linearGradient id="g1mj4jxagge3uc0" x1="0%" x2="100%" y1="0%" y2="100%"><stop offset="0%" stop-color="#ADFF2F"/><stop offset="100%" stop-color="#FAFAD2"/></linearGradient><filter height="300%" id="f1mj4jxagge3uc" width="300%" x="-1" y="-1"><feGaussianBlur result="blurOut" stdDeviation="2.0"/><feColorMatrix in="blurOut" result="blurOut2" type="matrix" values="0 0 0 0 0 0 0 0 0 0 0 0 0 0 0 0 0 0 .4 0"/><feOffset dx="4.0" dy="4.0" in="blurOut2" result="blurOut3"/><feBlend in="SourceGraphic" in2="blurOut3" mode="normal"/></filter></defs><g><!--entity proc--><rect fill="url(#g1mj4jxagge3uc0)" filter="url(#f1mj4jxagge3uc)" height="62.5938" style="stroke: #006400; stroke-width: 1.5;" width="138" x="274" y="8"/><rect fill="url(#g1mj4jxagge3uc0)" height="10" style="stroke: #006400; stroke-width: 1.5;" width="15" x="392" y="13"/><rect fill="url(#g1mj4jxagge3uc0)" height="2" style="stroke: #006400; stroke-width: 1.5;" width="4" x="390" y="15"/><rect fill="url(#g1mj4jxagge3uc0)" height="2" style="stroke: #006400; stroke-width: 1.5;" width="4" x="390" y="19"/><text fill="#000000" font-family="sans-serif" font-size="14" font-style="italic" lengthAdjust="spacingAndGlyphs" textLength="98" x="289" y="40.9951">«component»</text><text fill="#000000" font-family="sans-serif" font-size="14" font-weight="bold" lengthAdjust="spacingAndGlyphs" textLength="67" x="304.5" y="57.292">Bioladen</text><!--entity k1--><rect fill="url(#g1mj4jxagge3uc0)" filter="url(#f1mj4jxagge3uc)" height="36.2969" style="stroke: #000000; stroke-width: 1.5;" width="88" x="6" y="178"/><text fill="#000000" font-family="sans-serif" font-size="14" font-weight="bold" lengthAdjust="spacingAndGlyphs" textLength="68" x="16" y="200.9951">Manager</text><!--entity k2--><rect fill="url(#g1mj4jxagge3uc0)" filter="url(#f1mj4jxagge3uc)" height="36.2969" style="stroke: #000000; stroke-width: 1.5;" width="57" x="222.5" y="178"/><text fill="#000000" font-family="sans-serif" font-size="14" font-weight="bold" lengthAdjust="spacingAndGlyphs" textLength="37" x="232.5" y="200.9951">Staff</text><!--entity k3--><rect fill="url(#g1mj4jxagge3uc0)" filter="url(#f1mj4jxagge3uc)" height="36.2969" style="stroke: #000000; stroke-width: 1.5;" width="152" x="359" y="178"/><text fill="#000000" font-family="sans-serif" font-size="14" font-weight="bold" lengthAdjust="spacingAndGlyphs" textLength="132" x="369" y="200.9951">NormalCustomer</text><!--entity k4--><rect fill="url(#g1mj4jxagge3uc0)" filter="url(#f1mj4jxagge3uc)" height="36.2969" style="stroke: #000000; stroke-width: 1.5;" width="147" x="546.5" y="178"/><text fill="#000000" font-family="sans-serif" font-size="14" font-weight="bold" lengthAdjust="spacingAndGlyphs" textLength="127" x="556.5" y="200.9951">HouseCustomer</text><!--link proc to k2--><path d="M270.8826,74.4259 C261.7064,81.9124 253.5855,90.7304 248,101 C234.9123,125.0633 240.0591,157.8643 245.2956,177.9533 " fill="none" id="proc-k2" style="stroke: #006400; stroke-width: 1.0;"/><rect fill="#FFFFFF" height="10" style="stroke: #006400; stroke-width: 1.5;" width="10" x="269.8755" y="66.2986"/><text fill="#000000" font-family="sans-serif" font-size="13" lengthAdjust="spacingAndGlyphs" textLength="142" x="249" y="121.5669">add NormalCustomer,</text><text fill="#000000" font-family="sans-serif" font-size="13" lengthAdjust="spacingAndGlyphs" textLength="137" x="251.5" y="136.6997">operate cash register</text><path d="M232.8642,148.1936 A10,10 0 0 0 247.0029 147.879" fill="#FFFFFF" style="stroke: #006400; stroke-width: 1.5;"/><ellipse cx="239.7762" cy="140.967" fill="#FFFFFF" rx="6" ry="6" style="stroke: #006400; stroke-width: 1.5;"/><!--link proc to k1--><path d="M268.6708,47.3509 C197.9352,56.3533 98.348,73.5202 71,101 C50.7443,121.3534 48.1301,156.5679 48.6597,177.9308 " fill="none" id="proc-k1" style="stroke: #006400; stroke-width: 1.0;"/><rect fill="#FFFFFF" height="10" style="stroke: #006400; stroke-width: 1.5;" width="10" x="268.7125" y="41.7168"/><text fill="#000000" font-family="sans-serif" font-size="13" lengthAdjust="spacingAndGlyphs" textLength="98" x="100.5" y="114.0669">order Products,</text><text fill="#000000" font-family="sans-serif" font-size="13" lengthAdjust="spacingAndGlyphs" textLength="120" x="89.5" y="129.1997">add all Customers,</text><text fill="#000000" font-family="sans-serif" font-size="13" lengthAdjust="spacingAndGlyphs" textLength="159" x="72" y="144.3325">change database entries</text><path d="M145.0478,62.0065 A10,10 0 0 0 148.3252 75.7637" fill="#FFFFFF" style="stroke: #006400; stroke-width: 1.5;"/><ellipse cx="153.5651" cy="67.2464" fill="#FFFFFF" rx="6" ry="6" style="stroke: #006400; stroke-width: 1.5;"/><!--link proc to k3--><path d="M377.0284,75.1061 C383.8315,83.2437 390.5514,92.1216 396,101 C411.2935,125.9207 422.9978,157.8998 429.4351,177.6662 " fill="none" id="proc-k3" style="stroke: #006400; stroke-width: 1.0;"/><rect fill="#FFFFFF" height="10" style="stroke: #006400; stroke-width: 1.5;" width="10" x="368.6872" y="66.174"/><text fill="#000000" font-family="sans-serif" font-size="13" lengthAdjust="spacingAndGlyphs" textLength="116" x="420" y="121.5669">take products and</text><text fill="#000000" font-family="sans-serif" font-size="13" lengthAdjust="spacingAndGlyphs" textLength="74" x="443" y="136.6997">give money</text><path d="M412.2217,150.5089 A10,10 0 0 0 425.2815 145.0829" fill="#FFFFFF" style="stroke: #006400; stroke-width: 1.5;"/><ellipse cx="416.0386" cy="141.266" fill="#FFFFFF" rx="6" ry="6" style="stroke: #006400; stroke-width: 1.5;"/><!--link proc to k4--><path d="M417.2836,49.8727 C458.8731,58.4369 510.0364,73.7937 549,101 C577.6996,121.0395 599.592,156.357 611.0622,177.8245 " fill="none" id="proc-k4" style="stroke: #006400; stroke-width: 1.0;"/><rect fill="#FFFFFF" height="10" style="stroke: #006400; stroke-width: 1.5;" width="10" x="407.2607" y="43.8617"/><text fill="#000000" font-family="sans-serif" font-size="13" lengthAdjust="spacingAndGlyphs" textLength="116" x="593" y="121.5669">take products and</text><text fill="#000000" font-family="sans-serif" font-size="13" lengthAdjust="spacingAndGlyphs" textLength="74" x="616" y="136.6997">give money</text><path d="M550.7494,110.8458 A10,10 0 0 0 558.8458 99.2506" fill="#FFFFFF" style="stroke: #006400; stroke-width: 1.5;"/><ellipse cx="549" cy="101" fill="#FFFFFF" rx="6" ry="6" style="stroke: #006400; stroke-width: 1.5;"/><!--
@startuml
skinparam componentStyle uml2
skinparam componentStyle uml2

skinparam rectangle {
    fontStyle bold
	BackgroundColor #GreenYellow/LightGoldenRodYellow

}

skinparam component {
    fontStyle bold
	BackgroundColor #GreenYellow/LightGoldenRodYellow
    BorderColor darkgreen
}

skinparam Arrow {
    Color darkgreen
}




component [Bioladen] <<component>> as proc

rectangle "Manager" as k1
rectangle "Staff" as k2
rectangle "NormalCustomer" as k3
rectangle "HouseCustomer" as k4

proc #-0)- k2: add NormalCustomer,\noperate cash register

proc #-0)- k1: order Products, \nadd all Customers, \nchange database entries

proc #-0)- k3: take products and \ngive money

proc #-0)- k4: take products and \ngive money



@enduml

PlantUML version 1.2018.12(Sun Oct 21 12:15:15 CEST 2018)
(GPL source distribution)
Java Runtime: OpenJDK Runtime Environment
JVM: OpenJDK 64-Bit Server VM
Java Version: 10.0.2+13-Ubuntu-1ubuntu0.18.04.1
Operating System: Linux
OS Version: 4.15.0-33-generic
Default Encoding: UTF-8
Language: en
Country: US
--></g></svg>