<?xml version="1.0" encoding="UTF-8" standalone="no"?><svg xmlns="http://www.w3.org/2000/svg" xmlns:xlink="http://www.w3.org/1999/xlink" contentScriptType="application/ecmascript" contentStyleType="text/css" height="1155px" preserveAspectRatio="none" style="width:3094px;height:1155px;" version="1.1" viewBox="0 0 3094 1155" width="3094px" zoomAndPan="magnify"><defs><filter height="300%" id="f9pf4i0svyths" width="300%" x="-1" y="-1"><feGaussianBlur result="blurOut" stdDeviation="2.0"/><feColorMatrix in="blurOut" result="blurOut2" type="matrix" values="0 0 0 0 0 0 0 0 0 0 0 0 0 0 0 0 0 0 .4 0"/><feOffset dx="4.0" dy="4.0" in="blurOut2" result="blurOut3"/><feBlend in="SourceGraphic" in2="blurOut3" mode="normal"/></filter><linearGradient id="g9pf4i0svyths0" x1="0%" x2="100%" y1="0%" y2="100%"><stop offset="0%" stop-color="#ADFF2F"/><stop offset="100%" stop-color="#FAFAD2"/></linearGradient></defs><g><ellipse cx="1533" cy="20" fill="#000000" filter="url(#f9pf4i0svyths)" rx="10" ry="10" style="stroke: none; stroke-width: 1.0;"/><rect fill="url(#g9pf4i0svyths0)" filter="url(#f9pf4i0svyths)" height="33.9688" rx="12.5" ry="12.5" style="stroke: #000000; stroke-width: 1.5;" width="82" x="1492" y="94"/><text fill="#000000" font-family="sans-serif" font-size="12" lengthAdjust="spacingAndGlyphs" textLength="62" x="1502" y="115.1387">Startseite</text><rect fill="#000000" filter="url(#f9pf4i0svyths)" height="6" rx="2.5" ry="2.5" style="stroke: #000000; stroke-width: 1.0;" width="3046" x="10" y="147.9688"/><rect fill="url(#g9pf4i0svyths0)" filter="url(#f9pf4i0svyths)" height="33.9688" rx="12.5" ry="12.5" style="stroke: #000000; stroke-width: 1.5;" width="53" x="1215.5" y="173.9688"/><text fill="#000000" font-family="sans-serif" font-size="12" lengthAdjust="spacingAndGlyphs" textLength="33" x="1225.5" y="195.1074">Login</text><rect fill="url(#g9pf4i0svyths0)" filter="url(#f9pf4i0svyths)" height="33.9688" rx="12.5" ry="12.5" style="stroke: #000000; stroke-width: 1.5;" width="162" x="1161" y="283.6479"/><text fill="#000000" font-family="sans-serif" font-size="12" lengthAdjust="spacingAndGlyphs" textLength="142" x="1171" y="304.7866">Login erneut eingeben</text><polygon fill="#FEFECE" filter="url(#f9pf4i0svyths)" points="1191.5,227.9375,1292.5,227.9375,1304.5,239.9375,1292.5,251.9375,1191.5,251.9375,1179.5,239.9375,1191.5,227.9375" style="stroke: #A80036; stroke-width: 1.5;"/><text fill="#000000" font-family="sans-serif" font-size="11" lengthAdjust="spacingAndGlyphs" textLength="24" x="1246" y="262.1479">nein</text><text fill="#000000" font-family="sans-serif" font-size="11" lengthAdjust="spacingAndGlyphs" textLength="101" x="1191.5" y="243.7456">Login erfolgreich?</text><text fill="#000000" font-family="sans-serif" font-size="11" lengthAdjust="spacingAndGlyphs" textLength="10" x="1169.5" y="237.3433">ja</text><rect fill="url(#g9pf4i0svyths0)" filter="url(#f9pf4i0svyths)" height="47.9375" rx="12.5" ry="12.5" style="stroke: #000000; stroke-width: 1.5;" width="95" x="1194.5" y="403.6167"/><text fill="#000000" font-family="sans-serif" font-size="12" lengthAdjust="spacingAndGlyphs" textLength="62" x="1204.5" y="424.7554">Startseite</text><text fill="#000000" font-family="sans-serif" font-size="12" lengthAdjust="spacingAndGlyphs" textLength="75" x="1204.5" y="438.7241">(privilegiert)</text><rect fill="#000000" filter="url(#f9pf4i0svyths)" height="6" rx="2.5" ry="2.5" style="stroke: #000000; stroke-width: 1.0;" width="2436" x="24" y="486.5542"/><rect fill="url(#g9pf4i0svyths0)" filter="url(#f9pf4i0svyths)" height="47.9375" rx="12.5" ry="12.5" style="stroke: #000000; stroke-width: 1.5;" width="95" x="38" y="674.6167"/><text fill="#000000" font-family="sans-serif" font-size="12" lengthAdjust="spacingAndGlyphs" textLength="62" x="48" y="695.7554">Startseite</text><text fill="#000000" font-family="sans-serif" font-size="12" lengthAdjust="spacingAndGlyphs" textLength="75" x="48" y="709.7241">(privilegiert)</text><rect fill="url(#g9pf4i0svyths0)" filter="url(#f9pf4i0svyths)" height="33.9688" rx="12.5" ry="12.5" style="stroke: #000000; stroke-width: 1.5;" width="116" x="161" y="681.6011"/><text fill="#000000" font-family="sans-serif" font-size="12" lengthAdjust="spacingAndGlyphs" textLength="96" x="171" y="702.7397">Produktkatalog</text><rect fill="url(#g9pf4i0svyths0)" filter="url(#f9pf4i0svyths)" height="33.9688" rx="12.5" ry="12.5" style="stroke: #000000; stroke-width: 1.5;" width="57" x="305" y="681.6011"/><text fill="#000000" font-family="sans-serif" font-size="12" lengthAdjust="spacingAndGlyphs" textLength="37" x="315" y="702.7397">Kasse</text><path d="M390,686.019 L390,711.1519 A0,0 0 0 0 390,711.1519 L492,711.1519 A0,0 0 0 0 492,711.1519 L492,704.019 L512,698.5854 L492,696.019 L492,696.019 L482,686.019 L390,686.019 A0,0 0 0 0 390,686.019 " fill="#FFFFFF" filter="url(#f9pf4i0svyths)" style="stroke: #A80036; stroke-width: 1.0;"/><path d="M482,686.019 L482,696.019 L492,696.019 L482,686.019 " fill="#FFFFFF" style="stroke: #A80036; stroke-width: 1.0;"/><text fill="#000000" font-family="sans-serif" font-size="13" lengthAdjust="spacingAndGlyphs" textLength="81" x="396" y="703.0859">nur Manager</text><rect fill="url(#g9pf4i0svyths0)" filter="url(#f9pf4i0svyths)" height="33.9688" rx="12.5" ry="12.5" style="stroke: #000000; stroke-width: 1.5;" width="71" x="512" y="681.6011"/><text fill="#000000" font-family="sans-serif" font-size="12" lengthAdjust="spacingAndGlyphs" textLength="51" x="522" y="702.7397">Statistik</text><path d="M914,584.5542 L914,655.0854 A0,0 0 0 0 914,655.0854 L1107,655.0854 A0,0 0 0 0 1107,655.0854 L1107,623.8198 L1127,619.8198 L1107,615.8198 L1107,594.5542 L1097,584.5542 L914,584.5542 A0,0 0 0 0 914,584.5542 " fill="#FFFFFF" filter="url(#f9pf4i0svyths)" style="stroke: #A80036; stroke-width: 1.0;"/><path d="M1097,584.5542 L1097,594.5542 L1107,594.5542 L1097,584.5542 " fill="#FFFFFF" style="stroke: #A80036; stroke-width: 1.0;"/><text fill="#000000" font-family="sans-serif" font-size="13" lengthAdjust="spacingAndGlyphs" textLength="70" x="920" y="601.6211">Alles auser</text><text fill="#000000" font-family="sans-serif" font-size="13" lengthAdjust="spacingAndGlyphs" textLength="104" x="920" y="616.7539">User hinzufügen</text><text fill="#000000" font-family="sans-serif" font-size="13" lengthAdjust="spacingAndGlyphs" textLength="172" x="920" y="631.8867">und Großhändler verwalten</text><text fill="#000000" font-family="sans-serif" font-size="13" lengthAdjust="spacingAndGlyphs" textLength="81" x="920" y="647.0195">nur Manager</text><rect fill="url(#g9pf4i0svyths0)" filter="url(#f9pf4i0svyths)" height="33.9688" rx="12.5" ry="12.5" style="stroke: #000000; stroke-width: 1.5;" width="90" x="1127" y="602.8354"/><text fill="#000000" font-family="sans-serif" font-size="12" lengthAdjust="spacingAndGlyphs" textLength="70" x="1137" y="623.9741">Verwaltung</text><rect fill="#000000" filter="url(#f9pf4i0svyths)" height="6" rx="2.5" ry="2.5" style="stroke: #000000; stroke-width: 1.0;" width="1122" x="611" y="690.0854"/><path d="M625,716.0854 L625,786.6167 A0,0 0 0 0 625,786.6167 L757,786.6167 A0,0 0 0 0 757,786.6167 L757,755.3511 L777,751.3511 L757,747.3511 L757,726.0854 L747,716.0854 L625,716.0854 A0,0 0 0 0 625,716.0854 " fill="#FFFFFF" filter="url(#f9pf4i0svyths)" style="stroke: #A80036; stroke-width: 1.0;"/><path d="M747,716.0854 L747,726.0854 L757,726.0854 L747,716.0854 " fill="#FFFFFF" style="stroke: #A80036; stroke-width: 1.0;"/><text fill="#000000" font-family="sans-serif" font-size="13" lengthAdjust="spacingAndGlyphs" textLength="111" x="631" y="733.1523">Verkaufspersonal</text><text fill="#000000" font-family="sans-serif" font-size="13" lengthAdjust="spacingAndGlyphs" textLength="56" x="631" y="748.2852">kann nur</text><text fill="#000000" font-family="sans-serif" font-size="13" lengthAdjust="spacingAndGlyphs" textLength="80" x="631" y="763.418">Hauskunden</text><text fill="#000000" font-family="sans-serif" font-size="13" lengthAdjust="spacingAndGlyphs" textLength="70" x="631" y="778.5508">hinzufügen</text><rect fill="url(#g9pf4i0svyths0)" filter="url(#f9pf4i0svyths)" height="47.9375" rx="12.5" ry="12.5" style="stroke: #000000; stroke-width: 1.5;" width="88" x="777" y="727.3823"/><text fill="#000000" font-family="sans-serif" font-size="12" lengthAdjust="spacingAndGlyphs" textLength="29" x="787" y="748.521">User</text><text fill="#000000" font-family="sans-serif" font-size="12" lengthAdjust="spacingAndGlyphs" textLength="68" x="787" y="762.4897">hinzufügen</text><rect fill="url(#g9pf4i0svyths0)" filter="url(#f9pf4i0svyths)" height="47.9375" rx="12.5" ry="12.5" style="stroke: #000000; stroke-width: 1.5;" width="82" x="893" y="727.3823"/><text fill="#000000" font-family="sans-serif" font-size="12" lengthAdjust="spacingAndGlyphs" textLength="29" x="903" y="748.521">User</text><text fill="#000000" font-family="sans-serif" font-size="12" lengthAdjust="spacingAndGlyphs" textLength="62" x="903" y="762.4897">Verwalten</text><rect fill="url(#g9pf4i0svyths0)" filter="url(#f9pf4i0svyths)" height="47.9375" rx="12.5" ry="12.5" style="stroke: #000000; stroke-width: 1.5;" width="98" x="1003" y="727.3823"/><text fill="#000000" font-family="sans-serif" font-size="12" lengthAdjust="spacingAndGlyphs" textLength="78" x="1013" y="748.521">Großhändler</text><text fill="#000000" font-family="sans-serif" font-size="12" lengthAdjust="spacingAndGlyphs" textLength="68" x="1013" y="762.4897">hinzufügen</text><path d="M1129,723.6519 L1129,779.0503 A0,0 0 0 0 1129,779.0503 L1303,779.0503 A0,0 0 0 0 1303,779.0503 L1303,755.3511 L1323,751.3511 L1303,747.3511 L1303,733.6519 L1293,723.6519 L1129,723.6519 A0,0 0 0 0 1129,723.6519 " fill="#FFFFFF" filter="url(#f9pf4i0svyths)" style="stroke: #A80036; stroke-width: 1.0;"/><path d="M1293,723.6519 L1293,733.6519 L1303,733.6519 L1293,723.6519 " fill="#FFFFFF" style="stroke: #A80036; stroke-width: 1.0;"/><text fill="#000000" font-family="sans-serif" font-size="13" lengthAdjust="spacingAndGlyphs" textLength="111" x="1135" y="740.7188">Verkaufspersonal</text><text fill="#000000" font-family="sans-serif" font-size="13" lengthAdjust="spacingAndGlyphs" textLength="56" x="1135" y="755.8516">kann nur</text><text fill="#000000" font-family="sans-serif" font-size="13" lengthAdjust="spacingAndGlyphs" textLength="153" x="1135" y="770.9844">Ort und Name einsehen</text><rect fill="url(#g9pf4i0svyths0)" filter="url(#f9pf4i0svyths)" height="47.9375" rx="12.5" ry="12.5" style="stroke: #000000; stroke-width: 1.5;" width="98" x="1323" y="727.3823"/><text fill="#000000" font-family="sans-serif" font-size="12" lengthAdjust="spacingAndGlyphs" textLength="78" x="1333" y="748.521">Großhändler</text><text fill="#000000" font-family="sans-serif" font-size="12" lengthAdjust="spacingAndGlyphs" textLength="60" x="1333" y="762.4897">verwalten</text><rect fill="url(#g9pf4i0svyths0)" filter="url(#f9pf4i0svyths)" height="47.9375" rx="12.5" ry="12.5" style="stroke: #000000; stroke-width: 1.5;" width="92" x="1449" y="727.3823"/><text fill="#000000" font-family="sans-serif" font-size="12" lengthAdjust="spacingAndGlyphs" textLength="67" x="1459" y="748.521">BNN Listen</text><text fill="#000000" font-family="sans-serif" font-size="12" lengthAdjust="spacingAndGlyphs" textLength="72" x="1459" y="762.4897">importieren</text><rect fill="url(#g9pf4i0svyths0)" filter="url(#f9pf4i0svyths)" height="47.9375" rx="12.5" ry="12.5" style="stroke: #000000; stroke-width: 1.5;" width="122" x="1569" y="727.3823"/><text fill="#000000" font-family="sans-serif" font-size="12" lengthAdjust="spacingAndGlyphs" textLength="102" x="1579" y="748.521">Produkt manuell</text><text fill="#000000" font-family="sans-serif" font-size="12" lengthAdjust="spacingAndGlyphs" textLength="68" x="1579" y="762.4897">hinzufügen</text><rect fill="#000000" filter="url(#f9pf4i0svyths)" height="6" rx="2.5" ry="2.5" style="stroke: #000000; stroke-width: 1.0;" width="1122" x="611" y="806.6167"/><polygon fill="#FEFECE" filter="url(#f9pf4i0svyths)" points="1172,512.5542,1184,524.5542,1172,536.5542,1160,524.5542,1172,512.5542" style="stroke: #A80036; stroke-width: 1.5;"/><polygon fill="#FEFECE" filter="url(#f9pf4i0svyths)" points="1172,832.6167,1172,832.6167,1184,844.6167,1172,856.6167,1172,856.6167,1160,844.6167,1172,832.6167" style="stroke: #A80036; stroke-width: 1.5;"/><path d="M1785,670.8862 L1785,726.2847 A0,0 0 0 0 1785,726.2847 L2034,726.2847 A0,0 0 0 0 2034,726.2847 L2034,702.5854 L2054,698.5854 L2034,694.5854 L2034,680.8862 L2024,670.8862 L1785,670.8862 A0,0 0 0 0 1785,670.8862 " fill="#FFFFFF" filter="url(#f9pf4i0svyths)" style="stroke: #A80036; stroke-width: 1.0;"/><path d="M2024,670.8862 L2024,680.8862 L2034,680.8862 L2024,670.8862 " fill="#FFFFFF" style="stroke: #A80036; stroke-width: 1.0;"/><text fill="#000000" font-family="sans-serif" font-size="13" lengthAdjust="spacingAndGlyphs" textLength="118" x="1791" y="687.9531">Nur Manager kann</text><text fill="#000000" font-family="sans-serif" font-size="13" lengthAdjust="spacingAndGlyphs" textLength="150" x="1791" y="703.0859">Lagerbestand einsehen</text><text fill="#000000" font-family="sans-serif" font-size="13" lengthAdjust="spacingAndGlyphs" textLength="228" x="1791" y="718.2188">und Produkte zum Shop hinzufügen</text><rect fill="url(#g9pf4i0svyths0)" filter="url(#f9pf4i0svyths)" height="33.9688" rx="12.5" ry="12.5" style="stroke: #000000; stroke-width: 1.5;" width="128" x="2054" y="681.6011"/><text fill="#000000" font-family="sans-serif" font-size="12" lengthAdjust="spacingAndGlyphs" textLength="108" x="2064" y="702.7397">Produktübersicht</text><path d="M2210,686.019 L2210,711.1519 A0,0 0 0 0 2210,711.1519 L2312,711.1519 A0,0 0 0 0 2312,711.1519 L2312,704.019 L2332,698.5854 L2312,696.019 L2312,696.019 L2302,686.019 L2210,686.019 A0,0 0 0 0 2210,686.019 " fill="#FFFFFF" filter="url(#f9pf4i0svyths)" style="stroke: #A80036; stroke-width: 1.0;"/><path d="M2302,686.019 L2302,696.019 L2312,696.019 L2302,686.019 " fill="#FFFFFF" style="stroke: #A80036; stroke-width: 1.0;"/><text fill="#000000" font-family="sans-serif" font-size="13" lengthAdjust="spacingAndGlyphs" textLength="81" x="2216" y="703.0859">nur Manager</text><rect fill="url(#g9pf4i0svyths0)" filter="url(#f9pf4i0svyths)" height="33.9688" rx="12.5" ry="12.5" style="stroke: #000000; stroke-width: 1.5;" width="86" x="2332" y="681.6011"/><text fill="#000000" font-family="sans-serif" font-size="12" lengthAdjust="spacingAndGlyphs" textLength="66" x="2342" y="702.7397">Bestellung</text><rect fill="#000000" filter="url(#f9pf4i0svyths)" height="6" rx="2.5" ry="2.5" style="stroke: #000000; stroke-width: 1.0;" width="2436" x="24" y="876.6167"/><polygon fill="#FEFECE" filter="url(#f9pf4i0svyths)" points="1242,359.6167,1254,371.6167,1242,383.6167,1230,371.6167,1242,359.6167" style="stroke: #A80036; stroke-width: 1.5;"/><polygon fill="#FEFECE" filter="url(#f9pf4i0svyths)" points="1242,902.6167,1242,902.6167,1254,914.6167,1242,926.6167,1242,926.6167,1230,914.6167,1242,902.6167" style="stroke: #A80036; stroke-width: 1.5;"/><rect fill="url(#g9pf4i0svyths0)" filter="url(#f9pf4i0svyths)" height="33.9688" rx="12.5" ry="12.5" style="stroke: #000000; stroke-width: 1.5;" width="63" x="1210.5" y="946.6167"/><text fill="#000000" font-family="sans-serif" font-size="12" lengthAdjust="spacingAndGlyphs" textLength="43" x="1220.5" y="967.7554">Logout</text><rect fill="#000000" filter="url(#f9pf4i0svyths)" height="6" rx="2.5" ry="2.5" style="stroke: #000000; stroke-width: 1.0;" width="478" x="2512" y="530.2612"/><path d="M2674,560.0972 L2674,576.23 L2654,580.23 L2674,584.23 L2674,600.3628 A0,0 0 0 0 2674,600.3628 L2844,600.3628 A0,0 0 0 0 2844,600.3628 L2844,570.0972 L2834,560.0972 L2674,560.0972 A0,0 0 0 0 2674,560.0972 " fill="#FFFFFF" filter="url(#f9pf4i0svyths)" style="stroke: #A80036; stroke-width: 1.0;"/><path d="M2834,560.0972 L2834,570.0972 L2844,570.0972 L2834,560.0972 " fill="#FFFFFF" style="stroke: #A80036; stroke-width: 1.0;"/><text fill="#000000" font-family="sans-serif" font-size="13" lengthAdjust="spacingAndGlyphs" textLength="149" x="2680" y="577.1641">Für "normale" Benutzer</text><text fill="#000000" font-family="sans-serif" font-size="13" lengthAdjust="spacingAndGlyphs" textLength="109" x="2680" y="592.2969">ohne Anmeldung</text><rect fill="url(#g9pf4i0svyths0)" filter="url(#f9pf4i0svyths)" height="47.9375" rx="12.5" ry="12.5" style="stroke: #000000; stroke-width: 1.5;" width="128" x="2526" y="556.2612"/><text fill="#000000" font-family="sans-serif" font-size="12" lengthAdjust="spacingAndGlyphs" textLength="108" x="2536" y="577.3999">Produktübersicht</text><text fill="#000000" font-family="sans-serif" font-size="12" lengthAdjust="spacingAndGlyphs" textLength="69" x="2536" y="591.3687">(nur lesen)</text><rect fill="url(#g9pf4i0svyths0)" filter="url(#f9pf4i0svyths)" height="33.9688" rx="12.5" ry="12.5" style="stroke: #000000; stroke-width: 1.5;" width="76" x="2872" y="563.2456"/><text fill="#000000" font-family="sans-serif" font-size="12" lengthAdjust="spacingAndGlyphs" textLength="56" x="2882" y="584.3843">Merkliste</text><rect fill="#000000" filter="url(#f9pf4i0svyths)" height="6" rx="2.5" ry="2.5" style="stroke: #000000; stroke-width: 1.0;" width="478" x="2512" y="624.1987"/><polygon fill="#FEFECE" filter="url(#f9pf4i0svyths)" points="2751,458.2612,2763,470.2612,2751,482.2612,2739,470.2612,2751,458.2612" style="stroke: #A80036; stroke-width: 1.5;"/><polygon fill="#FEFECE" filter="url(#f9pf4i0svyths)" points="2751,678.1987,2751,678.1987,2763,690.1987,2751,702.1987,2751,702.1987,2739,690.1987,2751,678.1987" style="stroke: #A80036; stroke-width: 1.5;"/><rect fill="#000000" filter="url(#f9pf4i0svyths)" height="6" rx="2.5" ry="2.5" style="stroke: #000000; stroke-width: 1.0;" width="3046" x="10" y="1000.5854"/><polygon fill="#FEFECE" filter="url(#f9pf4i0svyths)" points="1533,50,1545,62,1533,74,1521,62,1533,50" style="stroke: #A80036; stroke-width: 1.5;"/><polygon fill="#FEFECE" filter="url(#f9pf4i0svyths)" points="1533,1026.5854,1533,1026.5854,1545,1038.5854,1533,1050.5854,1533,1050.5854,1521,1038.5854,1533,1026.5854" style="stroke: #A80036; stroke-width: 1.5;"/><rect fill="url(#g9pf4i0svyths0)" filter="url(#f9pf4i0svyths)" height="33.9688" rx="12.5" ry="12.5" style="stroke: #000000; stroke-width: 1.5;" width="134" x="1466" y="1070.5854"/><text fill="#000000" font-family="sans-serif" font-size="12" lengthAdjust="spacingAndGlyphs" textLength="34" x="1476" y="1091.7241">&#128163;&#128664;&#128165;</text><text fill="#000000" font-family="sans-serif" font-size="12" font-weight="bold" lengthAdjust="spacingAndGlyphs" textLength="46" x="1510" y="1091.7241">CRASH</text><text fill="#000000" font-family="sans-serif" font-size="12" lengthAdjust="spacingAndGlyphs" textLength="34" x="1556" y="1091.7241">&#128163;&#128664;&#128165;</text><ellipse cx="1533" cy="1134.5542" fill="#FFFFFF" filter="url(#f9pf4i0svyths)" rx="10" ry="10" style="stroke: #000000; stroke-width: 1.5;"/><line style="stroke: #000000; stroke-width: 2.5;" x1="1526.8128" x2="1539.1872" y1="1128.367" y2="1140.7414"/><line style="stroke: #000000; stroke-width: 2.5;" x1="1539.1872" x2="1526.8128" y1="1128.367" y2="1140.7414"/><line style="stroke: #000000; stroke-width: 1.5;" x1="1242" x2="1242" y1="251.9375" y2="283.6479"/><polygon fill="#000000" points="1238,273.6479,1242,283.6479,1246,273.6479,1242,277.6479" style="stroke: #000000; stroke-width: 1.0;"/><line style="stroke: #000000; stroke-width: 1.5;" x1="1242" x2="1242" y1="317.6167" y2="327.6167"/><line style="stroke: #000000; stroke-width: 1.5;" x1="1242" x2="1335" y1="327.6167" y2="327.6167"/><polygon fill="#000000" points="1331,292.23,1335,282.23,1339,292.23,1335,288.23" style="stroke: #000000; stroke-width: 1.5;"/><line style="stroke: #000000; stroke-width: 1.5;" x1="1335" x2="1335" y1="239.9375" y2="327.6167"/><line style="stroke: #000000; stroke-width: 1.5;" x1="1335" x2="1304.5" y1="239.9375" y2="239.9375"/><polygon fill="#000000" points="1314.5,235.9375,1304.5,239.9375,1314.5,243.9375,1310.5,239.9375" style="stroke: #000000; stroke-width: 1.0;"/><line style="stroke: #000000; stroke-width: 1.5;" x1="1179.5" x2="1149" y1="239.9375" y2="239.9375"/><polygon fill="#000000" points="1145,278.23,1149,288.23,1153,278.23,1149,282.23" style="stroke: #000000; stroke-width: 1.5;"/><line style="stroke: #000000; stroke-width: 1.5;" x1="1149" x2="1149" y1="239.9375" y2="339.6167"/><line style="stroke: #000000; stroke-width: 1.5;" x1="1149" x2="1242" y1="339.6167" y2="339.6167"/><line style="stroke: #000000; stroke-width: 1.5;" x1="1242" x2="1242" y1="339.6167" y2="359.6167"/><polygon fill="#000000" points="1238,349.6167,1242,359.6167,1246,349.6167,1242,353.6167" style="stroke: #000000; stroke-width: 1.0;"/><line style="stroke: #000000; stroke-width: 1.5;" x1="1242" x2="1242" y1="207.9375" y2="227.9375"/><polygon fill="#000000" points="1238,217.9375,1242,227.9375,1246,217.9375,1242,221.9375" style="stroke: #000000; stroke-width: 1.0;"/><line style="stroke: #000000; stroke-width: 1.5;" x1="821" x2="821" y1="696.0854" y2="727.3823"/><polygon fill="#000000" points="817,717.3823,821,727.3823,825,717.3823,821,721.3823" style="stroke: #000000; stroke-width: 1.0;"/><line style="stroke: #000000; stroke-width: 1.5;" x1="934" x2="934" y1="696.0854" y2="727.3823"/><polygon fill="#000000" points="930,717.3823,934,727.3823,938,717.3823,934,721.3823" style="stroke: #000000; stroke-width: 1.0;"/><line style="stroke: #000000; stroke-width: 1.5;" x1="1052" x2="1052" y1="696.0854" y2="727.3823"/><polygon fill="#000000" points="1048,717.3823,1052,727.3823,1056,717.3823,1052,721.3823" style="stroke: #000000; stroke-width: 1.0;"/><line style="stroke: #000000; stroke-width: 1.5;" x1="1372" x2="1372" y1="696.0854" y2="727.3823"/><polygon fill="#000000" points="1368,717.3823,1372,727.3823,1376,717.3823,1372,721.3823" style="stroke: #000000; stroke-width: 1.0;"/><line style="stroke: #000000; stroke-width: 1.5;" x1="1495" x2="1495" y1="696.0854" y2="727.3823"/><polygon fill="#000000" points="1491,717.3823,1495,727.3823,1499,717.3823,1495,721.3823" style="stroke: #000000; stroke-width: 1.0;"/><line style="stroke: #000000; stroke-width: 1.5;" x1="1630" x2="1630" y1="696.0854" y2="727.3823"/><polygon fill="#000000" points="1626,717.3823,1630,727.3823,1634,717.3823,1630,721.3823" style="stroke: #000000; stroke-width: 1.0;"/><line style="stroke: #000000; stroke-width: 1.5;" x1="1719" x2="1719" y1="696.0854" y2="806.6167"/><polygon fill="#000000" points="1715,796.6167,1719,806.6167,1723,796.6167,1719,800.6167" style="stroke: #000000; stroke-width: 1.0;"/><line style="stroke: #000000; stroke-width: 1.5;" x1="821" x2="821" y1="775.3198" y2="806.6167"/><polygon fill="#000000" points="817,796.6167,821,806.6167,825,796.6167,821,800.6167" style="stroke: #000000; stroke-width: 1.0;"/><line style="stroke: #000000; stroke-width: 1.5;" x1="934" x2="934" y1="775.3198" y2="806.6167"/><polygon fill="#000000" points="930,796.6167,934,806.6167,938,796.6167,934,800.6167" style="stroke: #000000; stroke-width: 1.0;"/><line style="stroke: #000000; stroke-width: 1.5;" x1="1052" x2="1052" y1="775.3198" y2="806.6167"/><polygon fill="#000000" points="1048,796.6167,1052,806.6167,1056,796.6167,1052,800.6167" style="stroke: #000000; stroke-width: 1.0;"/><line style="stroke: #000000; stroke-width: 1.5;" x1="1372" x2="1372" y1="775.3198" y2="806.6167"/><polygon fill="#000000" points="1368,796.6167,1372,806.6167,1376,796.6167,1372,800.6167" style="stroke: #000000; stroke-width: 1.0;"/><line style="stroke: #000000; stroke-width: 1.5;" x1="1495" x2="1495" y1="775.3198" y2="806.6167"/><polygon fill="#000000" points="1491,796.6167,1495,806.6167,1499,796.6167,1495,800.6167" style="stroke: #000000; stroke-width: 1.0;"/><line style="stroke: #000000; stroke-width: 1.5;" x1="1630" x2="1630" y1="775.3198" y2="806.6167"/><polygon fill="#000000" points="1626,796.6167,1630,806.6167,1634,796.6167,1630,800.6167" style="stroke: #000000; stroke-width: 1.0;"/><line style="stroke: #000000; stroke-width: 1.5;" x1="1172" x2="1172" y1="636.8042" y2="690.0854"/><polygon fill="#000000" points="1168,680.0854,1172,690.0854,1176,680.0854,1172,684.0854" style="stroke: #000000; stroke-width: 1.0;"/><line style="stroke: #000000; stroke-width: 1.5;" x1="1172" x2="1172" y1="536.5542" y2="602.8354"/><polygon fill="#000000" points="1168,592.8354,1172,602.8354,1176,592.8354,1172,596.8354" style="stroke: #000000; stroke-width: 1.0;"/><line style="stroke: #000000; stroke-width: 1.5;" x1="1184" x2="1745" y1="844.6167" y2="844.6167"/><polygon fill="#000000" points="1741,708.5854,1745,698.5854,1749,708.5854,1745,704.5854" style="stroke: #000000; stroke-width: 1.5;"/><line style="stroke: #000000; stroke-width: 1.5;" x1="1745" x2="1745" y1="524.5542" y2="844.6167"/><line style="stroke: #000000; stroke-width: 1.5;" x1="1745" x2="1184" y1="524.5542" y2="524.5542"/><polygon fill="#000000" points="1194,520.5542,1184,524.5542,1194,528.5542,1190,524.5542" style="stroke: #000000; stroke-width: 1.0;"/><line style="stroke: #000000; stroke-width: 1.5;" x1="1172" x2="1172" y1="812.6167" y2="832.6167"/><polygon fill="#000000" points="1168,822.6167,1172,832.6167,1176,822.6167,1172,826.6167" style="stroke: #000000; stroke-width: 1.0;"/><line style="stroke: #000000; stroke-width: 1.5;" x1="85.5" x2="85.5" y1="492.5542" y2="674.6167"/><polygon fill="#000000" points="81.5,664.6167,85.5,674.6167,89.5,664.6167,85.5,668.6167" style="stroke: #000000; stroke-width: 1.0;"/><line style="stroke: #000000; stroke-width: 1.5;" x1="219" x2="219" y1="492.5542" y2="681.6011"/><polygon fill="#000000" points="215,671.6011,219,681.6011,223,671.6011,219,675.6011" style="stroke: #000000; stroke-width: 1.0;"/><line style="stroke: #000000; stroke-width: 1.5;" x1="333.5" x2="333.5" y1="492.5542" y2="681.6011"/><polygon fill="#000000" points="329.5,671.6011,333.5,681.6011,337.5,671.6011,333.5,675.6011" style="stroke: #000000; stroke-width: 1.0;"/><line style="stroke: #000000; stroke-width: 1.5;" x1="547.5" x2="547.5" y1="492.5542" y2="681.6011"/><polygon fill="#000000" points="543.5,671.6011,547.5,681.6011,551.5,671.6011,547.5,675.6011" style="stroke: #000000; stroke-width: 1.0;"/><line style="stroke: #000000; stroke-width: 1.5;" x1="1172" x2="1172" y1="492.5542" y2="512.5542"/><polygon fill="#000000" points="1168,502.5542,1172,512.5542,1176,502.5542,1172,506.5542" style="stroke: #000000; stroke-width: 1.0;"/><line style="stroke: #000000; stroke-width: 1.5;" x1="2118" x2="2118" y1="492.5542" y2="681.6011"/><polygon fill="#000000" points="2114,671.6011,2118,681.6011,2122,671.6011,2118,675.6011" style="stroke: #000000; stroke-width: 1.0;"/><line style="stroke: #000000; stroke-width: 1.5;" x1="2375" x2="2375" y1="492.5542" y2="681.6011"/><polygon fill="#000000" points="2371,671.6011,2375,681.6011,2379,671.6011,2375,675.6011" style="stroke: #000000; stroke-width: 1.0;"/><line style="stroke: #000000; stroke-width: 1.5;" x1="2446" x2="2446" y1="492.5542" y2="876.6167"/><polygon fill="#000000" points="2442,866.6167,2446,876.6167,2450,866.6167,2446,870.6167" style="stroke: #000000; stroke-width: 1.0;"/><line style="stroke: #000000; stroke-width: 1.5;" x1="85.5" x2="85.5" y1="722.5542" y2="876.6167"/><polygon fill="#000000" points="81.5,866.6167,85.5,876.6167,89.5,866.6167,85.5,870.6167" style="stroke: #000000; stroke-width: 1.0;"/><line style="stroke: #000000; stroke-width: 1.5;" x1="219" x2="219" y1="715.5698" y2="876.6167"/><polygon fill="#000000" points="215,866.6167,219,876.6167,223,866.6167,219,870.6167" style="stroke: #000000; stroke-width: 1.0;"/><line style="stroke: #000000; stroke-width: 1.5;" x1="333.5" x2="333.5" y1="715.5698" y2="876.6167"/><polygon fill="#000000" points="329.5,866.6167,333.5,876.6167,337.5,866.6167,333.5,870.6167" style="stroke: #000000; stroke-width: 1.0;"/><line style="stroke: #000000; stroke-width: 1.5;" x1="547.5" x2="547.5" y1="715.5698" y2="876.6167"/><polygon fill="#000000" points="543.5,866.6167,547.5,876.6167,551.5,866.6167,547.5,870.6167" style="stroke: #000000; stroke-width: 1.0;"/><line style="stroke: #000000; stroke-width: 1.5;" x1="1172" x2="1172" y1="856.6167" y2="876.6167"/><polygon fill="#000000" points="1168,866.6167,1172,876.6167,1176,866.6167,1172,870.6167" style="stroke: #000000; stroke-width: 1.0;"/><line style="stroke: #000000; stroke-width: 1.5;" x1="2118" x2="2118" y1="715.5698" y2="876.6167"/><polygon fill="#000000" points="2114,866.6167,2118,876.6167,2122,866.6167,2118,870.6167" style="stroke: #000000; stroke-width: 1.0;"/><line style="stroke: #000000; stroke-width: 1.5;" x1="2375" x2="2375" y1="715.5698" y2="876.6167"/><polygon fill="#000000" points="2371,866.6167,2375,876.6167,2379,866.6167,2375,870.6167" style="stroke: #000000; stroke-width: 1.0;"/><line style="stroke: #000000; stroke-width: 1.5;" x1="1242" x2="1242" y1="451.5542" y2="486.5542"/><polygon fill="#000000" points="1238,476.5542,1242,486.5542,1246,476.5542,1242,480.5542" style="stroke: #000000; stroke-width: 1.0;"/><line style="stroke: #000000; stroke-width: 1.5;" x1="1242" x2="1242" y1="383.6167" y2="403.6167"/><polygon fill="#000000" points="1238,393.6167,1242,403.6167,1246,393.6167,1242,397.6167" style="stroke: #000000; stroke-width: 1.0;"/><line style="stroke: #000000; stroke-width: 1.5;" x1="1254" x2="2472" y1="914.6167" y2="914.6167"/><polygon fill="#000000" points="2468,667.1167,2472,657.1167,2476,667.1167,2472,663.1167" style="stroke: #000000; stroke-width: 1.5;"/><line style="stroke: #000000; stroke-width: 1.5;" x1="2472" x2="2472" y1="371.6167" y2="914.6167"/><line style="stroke: #000000; stroke-width: 1.5;" x1="2472" x2="1254" y1="371.6167" y2="371.6167"/><polygon fill="#000000" points="1264,367.6167,1254,371.6167,1264,375.6167,1260,371.6167" style="stroke: #000000; stroke-width: 1.0;"/><line style="stroke: #000000; stroke-width: 1.5;" x1="1242" x2="1242" y1="882.6167" y2="902.6167"/><polygon fill="#000000" points="1238,892.6167,1242,902.6167,1246,892.6167,1242,896.6167" style="stroke: #000000; stroke-width: 1.0;"/><line style="stroke: #000000; stroke-width: 1.5;" x1="1242" x2="1242" y1="926.6167" y2="946.6167"/><polygon fill="#000000" points="1238,936.6167,1242,946.6167,1246,936.6167,1242,940.6167" style="stroke: #000000; stroke-width: 1.0;"/><line style="stroke: #000000; stroke-width: 1.5;" x1="2590" x2="2590" y1="536.2612" y2="556.2612"/><polygon fill="#000000" points="2586,546.2612,2590,556.2612,2594,546.2612,2590,550.2612" style="stroke: #000000; stroke-width: 1.0;"/><line style="stroke: #000000; stroke-width: 1.5;" x1="2910" x2="2910" y1="536.2612" y2="563.2456"/><polygon fill="#000000" points="2906,553.2456,2910,563.2456,2914,553.2456,2910,557.2456" style="stroke: #000000; stroke-width: 1.0;"/><line style="stroke: #000000; stroke-width: 1.5;" x1="2976" x2="2976" y1="536.2612" y2="624.1987"/><polygon fill="#000000" points="2972,614.1987,2976,624.1987,2980,614.1987,2976,618.1987" style="stroke: #000000; stroke-width: 1.0;"/><line style="stroke: #000000; stroke-width: 1.5;" x1="2590" x2="2590" y1="604.1987" y2="624.1987"/><polygon fill="#000000" points="2586,614.1987,2590,624.1987,2594,614.1987,2590,618.1987" style="stroke: #000000; stroke-width: 1.0;"/><line style="stroke: #000000; stroke-width: 1.5;" x1="2910" x2="2910" y1="597.2144" y2="624.1987"/><polygon fill="#000000" points="2906,614.1987,2910,624.1987,2914,614.1987,2910,618.1987" style="stroke: #000000; stroke-width: 1.0;"/><line style="stroke: #000000; stroke-width: 1.5;" x1="2751" x2="2751" y1="482.2612" y2="530.2612"/><polygon fill="#000000" points="2747,520.2612,2751,530.2612,2755,520.2612,2751,524.2612" style="stroke: #000000; stroke-width: 1.0;"/><line style="stroke: #000000; stroke-width: 1.5;" x1="2763" x2="3002" y1="690.1987" y2="690.1987"/><polygon fill="#000000" points="2998,590.23,3002,580.23,3006,590.23,3002,586.23" style="stroke: #000000; stroke-width: 1.5;"/><line style="stroke: #000000; stroke-width: 1.5;" x1="3002" x2="3002" y1="470.2612" y2="690.1987"/><line style="stroke: #000000; stroke-width: 1.5;" x1="3002" x2="2763" y1="470.2612" y2="470.2612"/><polygon fill="#000000" points="2773,466.2612,2763,470.2612,2773,474.2612,2769,470.2612" style="stroke: #000000; stroke-width: 1.0;"/><line style="stroke: #000000; stroke-width: 1.5;" x1="2751" x2="2751" y1="630.1987" y2="678.1987"/><polygon fill="#000000" points="2747,668.1987,2751,678.1987,2755,668.1987,2751,672.1987" style="stroke: #000000; stroke-width: 1.0;"/><line style="stroke: #000000; stroke-width: 1.5;" x1="1242" x2="1242" y1="153.9688" y2="173.9688"/><polygon fill="#000000" points="1238,163.9688,1242,173.9688,1246,163.9688,1242,167.9688" style="stroke: #000000; stroke-width: 1.0;"/><line style="stroke: #000000; stroke-width: 1.5;" x1="2751" x2="2751" y1="153.9688" y2="458.2612"/><polygon fill="#000000" points="2747,448.2612,2751,458.2612,2755,448.2612,2751,452.2612" style="stroke: #000000; stroke-width: 1.0;"/><line style="stroke: #000000; stroke-width: 1.5;" x1="3042" x2="3042" y1="153.9688" y2="1000.5854"/><polygon fill="#000000" points="3038,990.5854,3042,1000.5854,3046,990.5854,3042,994.5854" style="stroke: #000000; stroke-width: 1.0;"/><line style="stroke: #000000; stroke-width: 1.5;" x1="1242" x2="1242" y1="980.5854" y2="1000.5854"/><polygon fill="#000000" points="1238,990.5854,1242,1000.5854,1246,990.5854,1242,994.5854" style="stroke: #000000; stroke-width: 1.0;"/><line style="stroke: #000000; stroke-width: 1.5;" x1="2751" x2="2751" y1="702.1987" y2="1000.5854"/><polygon fill="#000000" points="2747,990.5854,2751,1000.5854,2755,990.5854,2751,994.5854" style="stroke: #000000; stroke-width: 1.0;"/><line style="stroke: #000000; stroke-width: 1.5;" x1="1533" x2="1533" y1="127.9688" y2="147.9688"/><polygon fill="#000000" points="1529,137.9688,1533,147.9688,1537,137.9688,1533,141.9688" style="stroke: #000000; stroke-width: 1.0;"/><line style="stroke: #000000; stroke-width: 1.5;" x1="1533" x2="1533" y1="74" y2="94"/><polygon fill="#000000" points="1529,84,1533,94,1537,84,1533,88" style="stroke: #000000; stroke-width: 1.0;"/><line style="stroke: #000000; stroke-width: 1.5;" x1="1545" x2="3068" y1="1038.5854" y2="1038.5854"/><polygon fill="#000000" points="3064,555.7456,3068,545.7456,3072,555.7456,3068,551.7456" style="stroke: #000000; stroke-width: 1.5;"/><line style="stroke: #000000; stroke-width: 1.5;" x1="3068" x2="3068" y1="62" y2="1038.5854"/><line style="stroke: #000000; stroke-width: 1.5;" x1="3068" x2="1545" y1="62" y2="62"/><polygon fill="#000000" points="1555,58,1545,62,1555,66,1551,62" style="stroke: #000000; stroke-width: 1.0;"/><line style="stroke: #000000; stroke-width: 1.5;" x1="1533" x2="1533" y1="1006.5854" y2="1026.5854"/><polygon fill="#000000" points="1529,1016.5854,1533,1026.5854,1537,1016.5854,1533,1020.5854" style="stroke: #000000; stroke-width: 1.0;"/><line style="stroke: #000000; stroke-width: 1.5;" x1="1533" x2="1533" y1="30" y2="50"/><polygon fill="#000000" points="1529,40,1533,50,1537,40,1533,44" style="stroke: #000000; stroke-width: 1.0;"/><line style="stroke: #000000; stroke-width: 1.5;" x1="1533" x2="1533" y1="1050.5854" y2="1070.5854"/><polygon fill="#000000" points="1529,1060.5854,1533,1070.5854,1537,1060.5854,1533,1064.5854" style="stroke: #000000; stroke-width: 1.0;"/><line style="stroke: #000000; stroke-width: 1.5;" x1="1533" x2="1533" y1="1104.5542" y2="1124.5542"/><polygon fill="#000000" points="1529,1114.5542,1533,1124.5542,1537,1114.5542,1533,1118.5542" style="stroke: #000000; stroke-width: 1.0;"/><!--
@startuml

skinparam activity {
    BackgroundColor #GreenYellow/LightGoldenRodYellow
    BorderColor Black
    ArrowColor  Black
}
skinparam note {
    BackgroundColor white
    BorderBolor Black
}

start
repeat
:Startseite;
fork
    :Login;

    while (Login erfolgreich?) is (nein)
    :Login erneut eingeben;
    endwhile (ja)

    repeat
    :Startseite
    (privilegiert);
    fork
        :Startseite
        (privilegiert);
    fork again
        :Produktkatalog;
    fork again
        :Kasse;
    fork again
        :Statistik;
        note
            nur Manager
        end note

    fork again
        repeat
        :Verwaltung;
        note
            Alles auser
            User hinzufügen
            und Großhändler verwalten
            nur Manager
        end Note
        fork
            :User
            hinzufügen;
            note
                Verkaufspersonal
                kann nur
                Hauskunden
                hinzufügen
            end note
        fork again
            :User
            Verwalten;
        fork again
            :Großhändler
            hinzufügen;
        fork again
            :Großhändler
            verwalten;
            Note
                Verkaufspersonal
                kann nur
                Ort und Name einsehen
            end Note
        fork again
            :BNN Listen
            importieren;
        fork again
            :Produkt manuell
            hinzufügen;
        fork again
        endfork

    repeat while
    fork again
        :Produktübersicht;
        note
            Nur Manager kann
            Lagerbestand einsehen
            und Produkte zum Shop hinzufügen
        end note
    fork again
        :Bestellung;
        note
        nur Manager
        end Note

    fork again

    endfork
    repeat while
    :Logout;

fork again
    repeat

    fork
    :Produktübersicht
    (nur lesen);
    note right
        Für "normale" Benutzer
        ohne Anmeldung
    end note
    fork again
    :Merkliste;
    fork again

    endfork
    repeat while

fork again
endfork
repeat while

:💣🚘💥**CRASH**💣🚘💥;
end






@enduml

PlantUML version 1.2018.12(Sun Oct 21 12:15:15 CEST 2018)
(GPL source distribution)
Java Runtime: OpenJDK Runtime Environment
JVM: OpenJDK 64-Bit Server VM
Java Version: 11+28-Ubuntu-3ubuntu2
Operating System: Linux
OS Version: 4.18.0-10-generic
Default Encoding: UTF-8
Language: de
Country: DE
--></g></svg>