<?xml version="1.0" encoding="UTF-8" standalone="no"?><svg xmlns="http://www.w3.org/2000/svg" xmlns:xlink="http://www.w3.org/1999/xlink" contentScriptType="application/ecmascript" contentStyleType="text/css" height="1316px" preserveAspectRatio="none" style="width:2989px;height:1316px;" version="1.1" viewBox="0 0 2989 1316" width="2989px" zoomAndPan="magnify"><defs><filter height="300%" id="f1888415r683aj" width="300%" x="-1" y="-1"><feGaussianBlur result="blurOut" stdDeviation="2.0"/><feColorMatrix in="blurOut" result="blurOut2" type="matrix" values="0 0 0 0 0 0 0 0 0 0 0 0 0 0 0 0 0 0 .4 0"/><feOffset dx="4.0" dy="4.0" in="blurOut2" result="blurOut3"/><feBlend in="SourceGraphic" in2="blurOut3" mode="normal"/></filter><linearGradient id="g1888415r683aj0" x1="0%" x2="100%" y1="0%" y2="100%"><stop offset="0%" stop-color="#ADFF2F"/><stop offset="100%" stop-color="#FAFAD2"/></linearGradient></defs><g><ellipse cx="1471.5" cy="20" fill="#000000" filter="url(#f1888415r683aj)" rx="10" ry="10" style="stroke: none; stroke-width: 1.0;"/><rect fill="url(#g1888415r683aj0)" filter="url(#f1888415r683aj)" height="33.9688" rx="12.5" ry="12.5" style="stroke: #000000; stroke-width: 1.5;" width="82" x="1430.5" y="94"/><text fill="#000000" font-family="sans-serif" font-size="12" lengthAdjust="spacingAndGlyphs" textLength="62" x="1440.5" y="115.1387">Startseite</text><rect fill="#000000" filter="url(#f1888415r683aj)" height="6" rx="2.5" ry="2.5" style="stroke: #000000; stroke-width: 1.0;" width="2923" x="10" y="191.9688"/><rect fill="url(#g1888415r683aj0)" filter="url(#f1888415r683aj)" height="33.9688" rx="12.5" ry="12.5" style="stroke: #000000; stroke-width: 1.5;" width="53" x="1154" y="217.9688"/><text fill="#000000" font-family="sans-serif" font-size="12" lengthAdjust="spacingAndGlyphs" textLength="33" x="1164" y="239.1074">Login</text><rect fill="url(#g1888415r683aj0)" filter="url(#f1888415r683aj)" height="33.9688" rx="12.5" ry="12.5" style="stroke: #000000; stroke-width: 1.5;" width="162" x="1099.5" y="327.6479"/><text fill="#000000" font-family="sans-serif" font-size="12" lengthAdjust="spacingAndGlyphs" textLength="142" x="1109.5" y="348.7866">Login erneut eingeben</text><polygon fill="#FEFECE" filter="url(#f1888415r683aj)" points="1130,271.9375,1231,271.9375,1243,283.9375,1231,295.9375,1130,295.9375,1118,283.9375,1130,271.9375" style="stroke: #A80036; stroke-width: 1.5;"/><text fill="#000000" font-family="sans-serif" font-size="11" lengthAdjust="spacingAndGlyphs" textLength="24" x="1184.5" y="306.1479">nein</text><text fill="#000000" font-family="sans-serif" font-size="11" lengthAdjust="spacingAndGlyphs" textLength="101" x="1130" y="287.7456">Login erfolgreich?</text><text fill="#000000" font-family="sans-serif" font-size="11" lengthAdjust="spacingAndGlyphs" textLength="10" x="1108" y="281.3433">ja</text><rect fill="url(#g1888415r683aj0)" filter="url(#f1888415r683aj)" height="47.9375" rx="12.5" ry="12.5" style="stroke: #000000; stroke-width: 1.5;" width="95" x="1133" y="447.6167"/><text fill="#000000" font-family="sans-serif" font-size="12" lengthAdjust="spacingAndGlyphs" textLength="62" x="1143" y="468.7554">Startseite</text><text fill="#000000" font-family="sans-serif" font-size="12" lengthAdjust="spacingAndGlyphs" textLength="75" x="1143" y="482.7241">(privilegiert)</text><rect fill="#000000" filter="url(#f1888415r683aj)" height="6" rx="2.5" ry="2.5" style="stroke: #000000; stroke-width: 1.0;" width="2313" x="24" y="559.5542"/><rect fill="url(#g1888415r683aj0)" filter="url(#f1888415r683aj)" height="33.9688" rx="12.5" ry="12.5" style="stroke: #000000; stroke-width: 1.5;" width="116" x="38" y="754.6011"/><text fill="#000000" font-family="sans-serif" font-size="12" lengthAdjust="spacingAndGlyphs" textLength="96" x="48" y="775.7397">Produktkatalog</text><rect fill="url(#g1888415r683aj0)" filter="url(#f1888415r683aj)" height="33.9688" rx="12.5" ry="12.5" style="stroke: #000000; stroke-width: 1.5;" width="57" x="182" y="754.6011"/><text fill="#000000" font-family="sans-serif" font-size="12" lengthAdjust="spacingAndGlyphs" textLength="37" x="192" y="775.7397">Kasse</text><path d="M267,759.019 L267,784.1519 A0,0 0 0 0 267,784.1519 L369,784.1519 A0,0 0 0 0 369,784.1519 L369,777.019 L389,771.5854 L369,769.019 L369,769.019 L359,759.019 L267,759.019 A0,0 0 0 0 267,759.019 " fill="#FFFFFF" filter="url(#f1888415r683aj)" style="stroke: #A80036; stroke-width: 1.0;"/><path d="M359,759.019 L359,769.019 L369,769.019 L359,759.019 " fill="#FFFFFF" style="stroke: #A80036; stroke-width: 1.0;"/><text fill="#000000" font-family="sans-serif" font-size="13" lengthAdjust="spacingAndGlyphs" textLength="81" x="273" y="776.0859">nur Manager</text><rect fill="url(#g1888415r683aj0)" filter="url(#f1888415r683aj)" height="33.9688" rx="12.5" ry="12.5" style="stroke: #000000; stroke-width: 1.5;" width="71" x="389" y="754.6011"/><text fill="#000000" font-family="sans-serif" font-size="12" lengthAdjust="spacingAndGlyphs" textLength="51" x="399" y="775.7397">Statistik</text><path d="M791,657.5542 L791,728.0854 A0,0 0 0 0 791,728.0854 L984,728.0854 A0,0 0 0 0 984,728.0854 L984,696.8198 L1004,692.8198 L984,688.8198 L984,667.5542 L974,657.5542 L791,657.5542 A0,0 0 0 0 791,657.5542 " fill="#FFFFFF" filter="url(#f1888415r683aj)" style="stroke: #A80036; stroke-width: 1.0;"/><path d="M974,657.5542 L974,667.5542 L984,667.5542 L974,657.5542 " fill="#FFFFFF" style="stroke: #A80036; stroke-width: 1.0;"/><text fill="#000000" font-family="sans-serif" font-size="13" lengthAdjust="spacingAndGlyphs" textLength="70" x="797" y="674.6211">Alles auser</text><text fill="#000000" font-family="sans-serif" font-size="13" lengthAdjust="spacingAndGlyphs" textLength="104" x="797" y="689.7539">User hinzufügen</text><text fill="#000000" font-family="sans-serif" font-size="13" lengthAdjust="spacingAndGlyphs" textLength="172" x="797" y="704.8867">und Großhändler verwalten</text><text fill="#000000" font-family="sans-serif" font-size="13" lengthAdjust="spacingAndGlyphs" textLength="81" x="797" y="720.0195">nur Manager</text><rect fill="url(#g1888415r683aj0)" filter="url(#f1888415r683aj)" height="33.9688" rx="12.5" ry="12.5" style="stroke: #000000; stroke-width: 1.5;" width="90" x="1004" y="675.8354"/><text fill="#000000" font-family="sans-serif" font-size="12" lengthAdjust="spacingAndGlyphs" textLength="70" x="1014" y="696.9741">Verwaltung</text><rect fill="#000000" filter="url(#f1888415r683aj)" height="6" rx="2.5" ry="2.5" style="stroke: #000000; stroke-width: 1.0;" width="1122" x="488" y="763.0854"/><path d="M502,789.0854 L502,859.6167 A0,0 0 0 0 502,859.6167 L634,859.6167 A0,0 0 0 0 634,859.6167 L634,828.3511 L654,824.3511 L634,820.3511 L634,799.0854 L624,789.0854 L502,789.0854 A0,0 0 0 0 502,789.0854 " fill="#FFFFFF" filter="url(#f1888415r683aj)" style="stroke: #A80036; stroke-width: 1.0;"/><path d="M624,789.0854 L624,799.0854 L634,799.0854 L624,789.0854 " fill="#FFFFFF" style="stroke: #A80036; stroke-width: 1.0;"/><text fill="#000000" font-family="sans-serif" font-size="13" lengthAdjust="spacingAndGlyphs" textLength="111" x="508" y="806.1523">Verkaufspersonal</text><text fill="#000000" font-family="sans-serif" font-size="13" lengthAdjust="spacingAndGlyphs" textLength="56" x="508" y="821.2852">kann nur</text><text fill="#000000" font-family="sans-serif" font-size="13" lengthAdjust="spacingAndGlyphs" textLength="80" x="508" y="836.418">Hauskunden</text><text fill="#000000" font-family="sans-serif" font-size="13" lengthAdjust="spacingAndGlyphs" textLength="70" x="508" y="851.5508">hinzufügen</text><rect fill="url(#g1888415r683aj0)" filter="url(#f1888415r683aj)" height="47.9375" rx="12.5" ry="12.5" style="stroke: #000000; stroke-width: 1.5;" width="88" x="654" y="800.3823"/><text fill="#000000" font-family="sans-serif" font-size="12" lengthAdjust="spacingAndGlyphs" textLength="29" x="664" y="821.521">User</text><text fill="#000000" font-family="sans-serif" font-size="12" lengthAdjust="spacingAndGlyphs" textLength="68" x="664" y="835.4897">hinzufügen</text><rect fill="url(#g1888415r683aj0)" filter="url(#f1888415r683aj)" height="47.9375" rx="12.5" ry="12.5" style="stroke: #000000; stroke-width: 1.5;" width="82" x="770" y="800.3823"/><text fill="#000000" font-family="sans-serif" font-size="12" lengthAdjust="spacingAndGlyphs" textLength="29" x="780" y="821.521">User</text><text fill="#000000" font-family="sans-serif" font-size="12" lengthAdjust="spacingAndGlyphs" textLength="62" x="780" y="835.4897">Verwalten</text><rect fill="url(#g1888415r683aj0)" filter="url(#f1888415r683aj)" height="47.9375" rx="12.5" ry="12.5" style="stroke: #000000; stroke-width: 1.5;" width="98" x="880" y="800.3823"/><text fill="#000000" font-family="sans-serif" font-size="12" lengthAdjust="spacingAndGlyphs" textLength="78" x="890" y="821.521">Großhändler</text><text fill="#000000" font-family="sans-serif" font-size="12" lengthAdjust="spacingAndGlyphs" textLength="68" x="890" y="835.4897">hinzufügen</text><path d="M1006,796.6519 L1006,852.0503 A0,0 0 0 0 1006,852.0503 L1180,852.0503 A0,0 0 0 0 1180,852.0503 L1180,828.3511 L1200,824.3511 L1180,820.3511 L1180,806.6519 L1170,796.6519 L1006,796.6519 A0,0 0 0 0 1006,796.6519 " fill="#FFFFFF" filter="url(#f1888415r683aj)" style="stroke: #A80036; stroke-width: 1.0;"/><path d="M1170,796.6519 L1170,806.6519 L1180,806.6519 L1170,796.6519 " fill="#FFFFFF" style="stroke: #A80036; stroke-width: 1.0;"/><text fill="#000000" font-family="sans-serif" font-size="13" lengthAdjust="spacingAndGlyphs" textLength="111" x="1012" y="813.7188">Verkaufspersonal</text><text fill="#000000" font-family="sans-serif" font-size="13" lengthAdjust="spacingAndGlyphs" textLength="56" x="1012" y="828.8516">kann nur</text><text fill="#000000" font-family="sans-serif" font-size="13" lengthAdjust="spacingAndGlyphs" textLength="153" x="1012" y="843.9844">Ort und Name einsehen</text><rect fill="url(#g1888415r683aj0)" filter="url(#f1888415r683aj)" height="47.9375" rx="12.5" ry="12.5" style="stroke: #000000; stroke-width: 1.5;" width="98" x="1200" y="800.3823"/><text fill="#000000" font-family="sans-serif" font-size="12" lengthAdjust="spacingAndGlyphs" textLength="78" x="1210" y="821.521">Großhändler</text><text fill="#000000" font-family="sans-serif" font-size="12" lengthAdjust="spacingAndGlyphs" textLength="60" x="1210" y="835.4897">verwalten</text><rect fill="url(#g1888415r683aj0)" filter="url(#f1888415r683aj)" height="47.9375" rx="12.5" ry="12.5" style="stroke: #000000; stroke-width: 1.5;" width="92" x="1326" y="800.3823"/><text fill="#000000" font-family="sans-serif" font-size="12" lengthAdjust="spacingAndGlyphs" textLength="67" x="1336" y="821.521">BNN Listen</text><text fill="#000000" font-family="sans-serif" font-size="12" lengthAdjust="spacingAndGlyphs" textLength="72" x="1336" y="835.4897">importieren</text><rect fill="url(#g1888415r683aj0)" filter="url(#f1888415r683aj)" height="47.9375" rx="12.5" ry="12.5" style="stroke: #000000; stroke-width: 1.5;" width="122" x="1446" y="800.3823"/><text fill="#000000" font-family="sans-serif" font-size="12" lengthAdjust="spacingAndGlyphs" textLength="102" x="1456" y="821.521">Produkt manuell</text><text fill="#000000" font-family="sans-serif" font-size="12" lengthAdjust="spacingAndGlyphs" textLength="68" x="1456" y="835.4897">hinzufügen</text><rect fill="#000000" filter="url(#f1888415r683aj)" height="6" rx="2.5" ry="2.5" style="stroke: #000000; stroke-width: 1.0;" width="1122" x="488" y="879.6167"/><polygon fill="#FEFECE" filter="url(#f1888415r683aj)" points="1049,585.5542,1061,597.5542,1049,609.5542,1037,597.5542,1049,585.5542" style="stroke: #A80036; stroke-width: 1.5;"/><polygon fill="#FEFECE" filter="url(#f1888415r683aj)" points="1049,905.6167,1049,905.6167,1061,917.6167,1049,929.6167,1049,929.6167,1037,917.6167,1049,905.6167" style="stroke: #A80036; stroke-width: 1.5;"/><path d="M1662,743.8862 L1662,799.2847 A0,0 0 0 0 1662,799.2847 L1911,799.2847 A0,0 0 0 0 1911,799.2847 L1911,775.5854 L1931,771.5854 L1911,767.5854 L1911,753.8862 L1901,743.8862 L1662,743.8862 A0,0 0 0 0 1662,743.8862 " fill="#FFFFFF" filter="url(#f1888415r683aj)" style="stroke: #A80036; stroke-width: 1.0;"/><path d="M1901,743.8862 L1901,753.8862 L1911,753.8862 L1901,743.8862 " fill="#FFFFFF" style="stroke: #A80036; stroke-width: 1.0;"/><text fill="#000000" font-family="sans-serif" font-size="13" lengthAdjust="spacingAndGlyphs" textLength="118" x="1668" y="760.9531">Nur Manager kann</text><text fill="#000000" font-family="sans-serif" font-size="13" lengthAdjust="spacingAndGlyphs" textLength="150" x="1668" y="776.0859">Lagerbestand einsehen</text><text fill="#000000" font-family="sans-serif" font-size="13" lengthAdjust="spacingAndGlyphs" textLength="228" x="1668" y="791.2188">und Produkte zum Shop hinzufügen</text><rect fill="url(#g1888415r683aj0)" filter="url(#f1888415r683aj)" height="33.9688" rx="12.5" ry="12.5" style="stroke: #000000; stroke-width: 1.5;" width="128" x="1931" y="754.6011"/><text fill="#000000" font-family="sans-serif" font-size="12" lengthAdjust="spacingAndGlyphs" textLength="108" x="1941" y="775.7397">Produktübersicht</text><path d="M2087,759.019 L2087,784.1519 A0,0 0 0 0 2087,784.1519 L2189,784.1519 A0,0 0 0 0 2189,784.1519 L2189,777.019 L2209,771.5854 L2189,769.019 L2189,769.019 L2179,759.019 L2087,759.019 A0,0 0 0 0 2087,759.019 " fill="#FFFFFF" filter="url(#f1888415r683aj)" style="stroke: #A80036; stroke-width: 1.0;"/><path d="M2179,759.019 L2179,769.019 L2189,769.019 L2179,759.019 " fill="#FFFFFF" style="stroke: #A80036; stroke-width: 1.0;"/><text fill="#000000" font-family="sans-serif" font-size="13" lengthAdjust="spacingAndGlyphs" textLength="81" x="2093" y="776.0859">nur Manager</text><rect fill="url(#g1888415r683aj0)" filter="url(#f1888415r683aj)" height="33.9688" rx="12.5" ry="12.5" style="stroke: #000000; stroke-width: 1.5;" width="86" x="2209" y="754.6011"/><text fill="#000000" font-family="sans-serif" font-size="12" lengthAdjust="spacingAndGlyphs" textLength="66" x="2219" y="775.7397">Bestellung</text><rect fill="#000000" filter="url(#f1888415r683aj)" height="6" rx="2.5" ry="2.5" style="stroke: #000000; stroke-width: 1.0;" width="2313" x="24" y="949.6167"/><polygon fill="#FEFECE" filter="url(#f1888415r683aj)" points="1180.5,515.5542,1192.5,527.5542,1180.5,539.5542,1168.5,527.5542,1180.5,515.5542" style="stroke: #A80036; stroke-width: 1.5;"/><polygon fill="#FEFECE" filter="url(#f1888415r683aj)" points="1180.5,975.6167,1180.5,975.6167,1192.5,987.6167,1180.5,999.6167,1180.5,999.6167,1168.5,987.6167,1180.5,975.6167" style="stroke: #A80036; stroke-width: 1.5;"/><polygon fill="#FEFECE" filter="url(#f1888415r683aj)" points="1180.5,403.6167,1192.5,415.6167,1180.5,427.6167,1168.5,415.6167,1180.5,403.6167" style="stroke: #A80036; stroke-width: 1.5;"/><polygon fill="#FEFECE" filter="url(#f1888415r683aj)" points="1180.5,1019.6167,1180.5,1019.6167,1192.5,1031.6167,1180.5,1043.6167,1180.5,1043.6167,1168.5,1031.6167,1180.5,1019.6167" style="stroke: #A80036; stroke-width: 1.5;"/><rect fill="url(#g1888415r683aj0)" filter="url(#f1888415r683aj)" height="33.9688" rx="12.5" ry="12.5" style="stroke: #000000; stroke-width: 1.5;" width="63" x="1149" y="1063.6167"/><text fill="#000000" font-family="sans-serif" font-size="12" lengthAdjust="spacingAndGlyphs" textLength="43" x="1159" y="1084.7554">Logout</text><rect fill="#000000" filter="url(#f1888415r683aj)" height="6" rx="2.5" ry="2.5" style="stroke: #000000; stroke-width: 1.0;" width="478" x="2413" y="603.2612"/><path d="M2575,633.0972 L2575,649.23 L2555,653.23 L2575,657.23 L2575,673.3628 A0,0 0 0 0 2575,673.3628 L2745,673.3628 A0,0 0 0 0 2745,673.3628 L2745,643.0972 L2735,633.0972 L2575,633.0972 A0,0 0 0 0 2575,633.0972 " fill="#FFFFFF" filter="url(#f1888415r683aj)" style="stroke: #A80036; stroke-width: 1.0;"/><path d="M2735,633.0972 L2735,643.0972 L2745,643.0972 L2735,633.0972 " fill="#FFFFFF" style="stroke: #A80036; stroke-width: 1.0;"/><text fill="#000000" font-family="sans-serif" font-size="13" lengthAdjust="spacingAndGlyphs" textLength="149" x="2581" y="650.1641">Für "normale" Benutzer</text><text fill="#000000" font-family="sans-serif" font-size="13" lengthAdjust="spacingAndGlyphs" textLength="109" x="2581" y="665.2969">ohne Anmeldung</text><rect fill="url(#g1888415r683aj0)" filter="url(#f1888415r683aj)" height="47.9375" rx="12.5" ry="12.5" style="stroke: #000000; stroke-width: 1.5;" width="128" x="2427" y="629.2612"/><text fill="#000000" font-family="sans-serif" font-size="12" lengthAdjust="spacingAndGlyphs" textLength="108" x="2437" y="650.3999">Produktübersicht</text><text fill="#000000" font-family="sans-serif" font-size="12" lengthAdjust="spacingAndGlyphs" textLength="69" x="2437" y="664.3687">(nur lesen)</text><rect fill="url(#g1888415r683aj0)" filter="url(#f1888415r683aj)" height="33.9688" rx="12.5" ry="12.5" style="stroke: #000000; stroke-width: 1.5;" width="76" x="2773" y="636.2456"/><text fill="#000000" font-family="sans-serif" font-size="12" lengthAdjust="spacingAndGlyphs" textLength="56" x="2783" y="657.3843">Merkliste</text><rect fill="#000000" filter="url(#f1888415r683aj)" height="6" rx="2.5" ry="2.5" style="stroke: #000000; stroke-width: 1.0;" width="478" x="2413" y="697.1987"/><rect fill="#000000" filter="url(#f1888415r683aj)" height="6" rx="2.5" ry="2.5" style="stroke: #000000; stroke-width: 1.0;" width="2923" x="10" y="1117.5854"/><polygon fill="#FEFECE" filter="url(#f1888415r683aj)" points="1471.5,147.9688,1483.5,159.9688,1471.5,171.9688,1459.5,159.9688,1471.5,147.9688" style="stroke: #A80036; stroke-width: 1.5;"/><polygon fill="#FEFECE" filter="url(#f1888415r683aj)" points="1471.5,1143.5854,1471.5,1143.5854,1483.5,1155.5854,1471.5,1167.5854,1471.5,1167.5854,1459.5,1155.5854,1471.5,1143.5854" style="stroke: #A80036; stroke-width: 1.5;"/><polygon fill="#FEFECE" filter="url(#f1888415r683aj)" points="1471.5,50,1483.5,62,1471.5,74,1459.5,62,1471.5,50" style="stroke: #A80036; stroke-width: 1.5;"/><polygon fill="#FEFECE" filter="url(#f1888415r683aj)" points="1471.5,1187.5854,1471.5,1187.5854,1483.5,1199.5854,1471.5,1211.5854,1471.5,1211.5854,1459.5,1199.5854,1471.5,1187.5854" style="stroke: #A80036; stroke-width: 1.5;"/><rect fill="url(#g1888415r683aj0)" filter="url(#f1888415r683aj)" height="33.9688" rx="12.5" ry="12.5" style="stroke: #000000; stroke-width: 1.5;" width="134" x="1404.5" y="1231.5854"/><text fill="#000000" font-family="sans-serif" font-size="12" lengthAdjust="spacingAndGlyphs" textLength="34" x="1414.5" y="1252.7241">&#128163;&#128664;&#128165;</text><text fill="#000000" font-family="sans-serif" font-size="12" font-weight="bold" lengthAdjust="spacingAndGlyphs" textLength="46" x="1448.5" y="1252.7241">CRASH</text><text fill="#000000" font-family="sans-serif" font-size="12" lengthAdjust="spacingAndGlyphs" textLength="34" x="1494.5" y="1252.7241">&#128163;&#128664;&#128165;</text><ellipse cx="1471.5" cy="1295.5542" fill="#FFFFFF" filter="url(#f1888415r683aj)" rx="10" ry="10" style="stroke: #000000; stroke-width: 1.5;"/><line style="stroke: #000000; stroke-width: 2.5;" x1="1465.3128" x2="1477.6872" y1="1289.367" y2="1301.7414"/><line style="stroke: #000000; stroke-width: 2.5;" x1="1477.6872" x2="1465.3128" y1="1289.367" y2="1301.7414"/><line style="stroke: #000000; stroke-width: 1.5;" x1="1180.5" x2="1180.5" y1="295.9375" y2="327.6479"/><polygon fill="#000000" points="1176.5,317.6479,1180.5,327.6479,1184.5,317.6479,1180.5,321.6479" style="stroke: #000000; stroke-width: 1.0;"/><line style="stroke: #000000; stroke-width: 1.5;" x1="1180.5" x2="1180.5" y1="361.6167" y2="371.6167"/><line style="stroke: #000000; stroke-width: 1.5;" x1="1180.5" x2="1273.5" y1="371.6167" y2="371.6167"/><polygon fill="#000000" points="1269.5,336.23,1273.5,326.23,1277.5,336.23,1273.5,332.23" style="stroke: #000000; stroke-width: 1.5;"/><line style="stroke: #000000; stroke-width: 1.5;" x1="1273.5" x2="1273.5" y1="283.9375" y2="371.6167"/><line style="stroke: #000000; stroke-width: 1.5;" x1="1273.5" x2="1243" y1="283.9375" y2="283.9375"/><polygon fill="#000000" points="1253,279.9375,1243,283.9375,1253,287.9375,1249,283.9375" style="stroke: #000000; stroke-width: 1.0;"/><line style="stroke: #000000; stroke-width: 1.5;" x1="1118" x2="1087.5" y1="283.9375" y2="283.9375"/><polygon fill="#000000" points="1083.5,322.23,1087.5,332.23,1091.5,322.23,1087.5,326.23" style="stroke: #000000; stroke-width: 1.5;"/><line style="stroke: #000000; stroke-width: 1.5;" x1="1087.5" x2="1087.5" y1="283.9375" y2="383.6167"/><line style="stroke: #000000; stroke-width: 1.5;" x1="1087.5" x2="1180.5" y1="383.6167" y2="383.6167"/><line style="stroke: #000000; stroke-width: 1.5;" x1="1180.5" x2="1180.5" y1="383.6167" y2="403.6167"/><polygon fill="#000000" points="1176.5,393.6167,1180.5,403.6167,1184.5,393.6167,1180.5,397.6167" style="stroke: #000000; stroke-width: 1.0;"/><line style="stroke: #000000; stroke-width: 1.5;" x1="1180.5" x2="1180.5" y1="251.9375" y2="271.9375"/><polygon fill="#000000" points="1176.5,261.9375,1180.5,271.9375,1184.5,261.9375,1180.5,265.9375" style="stroke: #000000; stroke-width: 1.0;"/><line style="stroke: #000000; stroke-width: 1.5;" x1="698" x2="698" y1="769.0854" y2="800.3823"/><polygon fill="#000000" points="694,790.3823,698,800.3823,702,790.3823,698,794.3823" style="stroke: #000000; stroke-width: 1.0;"/><line style="stroke: #000000; stroke-width: 1.5;" x1="811" x2="811" y1="769.0854" y2="800.3823"/><polygon fill="#000000" points="807,790.3823,811,800.3823,815,790.3823,811,794.3823" style="stroke: #000000; stroke-width: 1.0;"/><line style="stroke: #000000; stroke-width: 1.5;" x1="929" x2="929" y1="769.0854" y2="800.3823"/><polygon fill="#000000" points="925,790.3823,929,800.3823,933,790.3823,929,794.3823" style="stroke: #000000; stroke-width: 1.0;"/><line style="stroke: #000000; stroke-width: 1.5;" x1="1249" x2="1249" y1="769.0854" y2="800.3823"/><polygon fill="#000000" points="1245,790.3823,1249,800.3823,1253,790.3823,1249,794.3823" style="stroke: #000000; stroke-width: 1.0;"/><line style="stroke: #000000; stroke-width: 1.5;" x1="1372" x2="1372" y1="769.0854" y2="800.3823"/><polygon fill="#000000" points="1368,790.3823,1372,800.3823,1376,790.3823,1372,794.3823" style="stroke: #000000; stroke-width: 1.0;"/><line style="stroke: #000000; stroke-width: 1.5;" x1="1507" x2="1507" y1="769.0854" y2="800.3823"/><polygon fill="#000000" points="1503,790.3823,1507,800.3823,1511,790.3823,1507,794.3823" style="stroke: #000000; stroke-width: 1.0;"/><line style="stroke: #000000; stroke-width: 1.5;" x1="1596" x2="1596" y1="769.0854" y2="879.6167"/><polygon fill="#000000" points="1592,869.6167,1596,879.6167,1600,869.6167,1596,873.6167" style="stroke: #000000; stroke-width: 1.0;"/><line style="stroke: #000000; stroke-width: 1.5;" x1="698" x2="698" y1="848.3198" y2="879.6167"/><polygon fill="#000000" points="694,869.6167,698,879.6167,702,869.6167,698,873.6167" style="stroke: #000000; stroke-width: 1.0;"/><line style="stroke: #000000; stroke-width: 1.5;" x1="811" x2="811" y1="848.3198" y2="879.6167"/><polygon fill="#000000" points="807,869.6167,811,879.6167,815,869.6167,811,873.6167" style="stroke: #000000; stroke-width: 1.0;"/><line style="stroke: #000000; stroke-width: 1.5;" x1="929" x2="929" y1="848.3198" y2="879.6167"/><polygon fill="#000000" points="925,869.6167,929,879.6167,933,869.6167,929,873.6167" style="stroke: #000000; stroke-width: 1.0;"/><line style="stroke: #000000; stroke-width: 1.5;" x1="1249" x2="1249" y1="848.3198" y2="879.6167"/><polygon fill="#000000" points="1245,869.6167,1249,879.6167,1253,869.6167,1249,873.6167" style="stroke: #000000; stroke-width: 1.0;"/><line style="stroke: #000000; stroke-width: 1.5;" x1="1372" x2="1372" y1="848.3198" y2="879.6167"/><polygon fill="#000000" points="1368,869.6167,1372,879.6167,1376,869.6167,1372,873.6167" style="stroke: #000000; stroke-width: 1.0;"/><line style="stroke: #000000; stroke-width: 1.5;" x1="1507" x2="1507" y1="848.3198" y2="879.6167"/><polygon fill="#000000" points="1503,869.6167,1507,879.6167,1511,869.6167,1507,873.6167" style="stroke: #000000; stroke-width: 1.0;"/><line style="stroke: #000000; stroke-width: 1.5;" x1="1049" x2="1049" y1="709.8042" y2="763.0854"/><polygon fill="#000000" points="1045,753.0854,1049,763.0854,1053,753.0854,1049,757.0854" style="stroke: #000000; stroke-width: 1.0;"/><line style="stroke: #000000; stroke-width: 1.5;" x1="1049" x2="1049" y1="609.5542" y2="675.8354"/><polygon fill="#000000" points="1045,665.8354,1049,675.8354,1053,665.8354,1049,669.8354" style="stroke: #000000; stroke-width: 1.0;"/><line style="stroke: #000000; stroke-width: 1.5;" x1="1061" x2="1622" y1="917.6167" y2="917.6167"/><polygon fill="#000000" points="1618,781.5854,1622,771.5854,1626,781.5854,1622,777.5854" style="stroke: #000000; stroke-width: 1.5;"/><line style="stroke: #000000; stroke-width: 1.5;" x1="1622" x2="1622" y1="597.5542" y2="917.6167"/><line style="stroke: #000000; stroke-width: 1.5;" x1="1622" x2="1061" y1="597.5542" y2="597.5542"/><polygon fill="#000000" points="1071,593.5542,1061,597.5542,1071,601.5542,1067,597.5542" style="stroke: #000000; stroke-width: 1.0;"/><line style="stroke: #000000; stroke-width: 1.5;" x1="1049" x2="1049" y1="885.6167" y2="905.6167"/><polygon fill="#000000" points="1045,895.6167,1049,905.6167,1053,895.6167,1049,899.6167" style="stroke: #000000; stroke-width: 1.0;"/><line style="stroke: #000000; stroke-width: 1.5;" x1="96" x2="96" y1="565.5542" y2="754.6011"/><polygon fill="#000000" points="92,744.6011,96,754.6011,100,744.6011,96,748.6011" style="stroke: #000000; stroke-width: 1.0;"/><line style="stroke: #000000; stroke-width: 1.5;" x1="210.5" x2="210.5" y1="565.5542" y2="754.6011"/><polygon fill="#000000" points="206.5,744.6011,210.5,754.6011,214.5,744.6011,210.5,748.6011" style="stroke: #000000; stroke-width: 1.0;"/><line style="stroke: #000000; stroke-width: 1.5;" x1="424.5" x2="424.5" y1="565.5542" y2="754.6011"/><polygon fill="#000000" points="420.5,744.6011,424.5,754.6011,428.5,744.6011,424.5,748.6011" style="stroke: #000000; stroke-width: 1.0;"/><line style="stroke: #000000; stroke-width: 1.5;" x1="1049" x2="1049" y1="565.5542" y2="585.5542"/><polygon fill="#000000" points="1045,575.5542,1049,585.5542,1053,575.5542,1049,579.5542" style="stroke: #000000; stroke-width: 1.0;"/><line style="stroke: #000000; stroke-width: 1.5;" x1="1995" x2="1995" y1="565.5542" y2="754.6011"/><polygon fill="#000000" points="1991,744.6011,1995,754.6011,1999,744.6011,1995,748.6011" style="stroke: #000000; stroke-width: 1.0;"/><line style="stroke: #000000; stroke-width: 1.5;" x1="2252" x2="2252" y1="565.5542" y2="754.6011"/><polygon fill="#000000" points="2248,744.6011,2252,754.6011,2256,744.6011,2252,748.6011" style="stroke: #000000; stroke-width: 1.0;"/><line style="stroke: #000000; stroke-width: 1.5;" x1="2323" x2="2323" y1="565.5542" y2="949.6167"/><polygon fill="#000000" points="2319,939.6167,2323,949.6167,2327,939.6167,2323,943.6167" style="stroke: #000000; stroke-width: 1.0;"/><line style="stroke: #000000; stroke-width: 1.5;" x1="96" x2="96" y1="788.5698" y2="949.6167"/><polygon fill="#000000" points="92,939.6167,96,949.6167,100,939.6167,96,943.6167" style="stroke: #000000; stroke-width: 1.0;"/><line style="stroke: #000000; stroke-width: 1.5;" x1="210.5" x2="210.5" y1="788.5698" y2="949.6167"/><polygon fill="#000000" points="206.5,939.6167,210.5,949.6167,214.5,939.6167,210.5,943.6167" style="stroke: #000000; stroke-width: 1.0;"/><line style="stroke: #000000; stroke-width: 1.5;" x1="424.5" x2="424.5" y1="788.5698" y2="949.6167"/><polygon fill="#000000" points="420.5,939.6167,424.5,949.6167,428.5,939.6167,424.5,943.6167" style="stroke: #000000; stroke-width: 1.0;"/><line style="stroke: #000000; stroke-width: 1.5;" x1="1049" x2="1049" y1="929.6167" y2="949.6167"/><polygon fill="#000000" points="1045,939.6167,1049,949.6167,1053,939.6167,1049,943.6167" style="stroke: #000000; stroke-width: 1.0;"/><line style="stroke: #000000; stroke-width: 1.5;" x1="1995" x2="1995" y1="788.5698" y2="949.6167"/><polygon fill="#000000" points="1991,939.6167,1995,949.6167,1999,939.6167,1995,943.6167" style="stroke: #000000; stroke-width: 1.0;"/><line style="stroke: #000000; stroke-width: 1.5;" x1="2252" x2="2252" y1="788.5698" y2="949.6167"/><polygon fill="#000000" points="2248,939.6167,2252,949.6167,2256,939.6167,2252,943.6167" style="stroke: #000000; stroke-width: 1.0;"/><line style="stroke: #000000; stroke-width: 1.5;" x1="1180.5" x2="1180.5" y1="539.5542" y2="559.5542"/><polygon fill="#000000" points="1176.5,549.5542,1180.5,559.5542,1184.5,549.5542,1180.5,553.5542" style="stroke: #000000; stroke-width: 1.0;"/><line style="stroke: #000000; stroke-width: 1.5;" x1="1192.5" x2="2349" y1="987.6167" y2="987.6167"/><polygon fill="#000000" points="2345,781.5854,2349,771.5854,2353,781.5854,2349,777.5854" style="stroke: #000000; stroke-width: 1.5;"/><line style="stroke: #000000; stroke-width: 1.5;" x1="2349" x2="2349" y1="527.5542" y2="987.6167"/><line style="stroke: #000000; stroke-width: 1.5;" x1="2349" x2="1192.5" y1="527.5542" y2="527.5542"/><polygon fill="#000000" points="1202.5,523.5542,1192.5,527.5542,1202.5,531.5542,1198.5,527.5542" style="stroke: #000000; stroke-width: 1.0;"/><line style="stroke: #000000; stroke-width: 1.5;" x1="1180.5" x2="1180.5" y1="955.6167" y2="975.6167"/><polygon fill="#000000" points="1176.5,965.6167,1180.5,975.6167,1184.5,965.6167,1180.5,969.6167" style="stroke: #000000; stroke-width: 1.0;"/><line style="stroke: #000000; stroke-width: 1.5;" x1="1180.5" x2="1180.5" y1="495.5542" y2="515.5542"/><polygon fill="#000000" points="1176.5,505.5542,1180.5,515.5542,1184.5,505.5542,1180.5,509.5542" style="stroke: #000000; stroke-width: 1.0;"/><line style="stroke: #000000; stroke-width: 1.5;" x1="1180.5" x2="1180.5" y1="427.6167" y2="447.6167"/><polygon fill="#000000" points="1176.5,437.6167,1180.5,447.6167,1184.5,437.6167,1180.5,441.6167" style="stroke: #000000; stroke-width: 1.0;"/><line style="stroke: #000000; stroke-width: 1.5;" x1="1192.5" x2="2373" y1="1031.6167" y2="1031.6167"/><polygon fill="#000000" points="2369,740.1167,2373,730.1167,2377,740.1167,2373,736.1167" style="stroke: #000000; stroke-width: 1.5;"/><line style="stroke: #000000; stroke-width: 1.5;" x1="2373" x2="2373" y1="415.6167" y2="1031.6167"/><line style="stroke: #000000; stroke-width: 1.5;" x1="2373" x2="1192.5" y1="415.6167" y2="415.6167"/><polygon fill="#000000" points="1202.5,411.6167,1192.5,415.6167,1202.5,419.6167,1198.5,415.6167" style="stroke: #000000; stroke-width: 1.0;"/><line style="stroke: #000000; stroke-width: 1.5;" x1="1180.5" x2="1180.5" y1="999.6167" y2="1019.6167"/><polygon fill="#000000" points="1176.5,1009.6167,1180.5,1019.6167,1184.5,1009.6167,1180.5,1013.6167" style="stroke: #000000; stroke-width: 1.0;"/><line style="stroke: #000000; stroke-width: 1.5;" x1="1180.5" x2="1180.5" y1="1043.6167" y2="1063.6167"/><polygon fill="#000000" points="1176.5,1053.6167,1180.5,1063.6167,1184.5,1053.6167,1180.5,1057.6167" style="stroke: #000000; stroke-width: 1.0;"/><line style="stroke: #000000; stroke-width: 1.5;" x1="2491" x2="2491" y1="609.2612" y2="629.2612"/><polygon fill="#000000" points="2487,619.2612,2491,629.2612,2495,619.2612,2491,623.2612" style="stroke: #000000; stroke-width: 1.0;"/><line style="stroke: #000000; stroke-width: 1.5;" x1="2811" x2="2811" y1="609.2612" y2="636.2456"/><polygon fill="#000000" points="2807,626.2456,2811,636.2456,2815,626.2456,2811,630.2456" style="stroke: #000000; stroke-width: 1.0;"/><line style="stroke: #000000; stroke-width: 1.5;" x1="2877" x2="2877" y1="609.2612" y2="697.1987"/><polygon fill="#000000" points="2873,687.1987,2877,697.1987,2881,687.1987,2877,691.1987" style="stroke: #000000; stroke-width: 1.0;"/><line style="stroke: #000000; stroke-width: 1.5;" x1="2491" x2="2491" y1="677.1987" y2="697.1987"/><polygon fill="#000000" points="2487,687.1987,2491,697.1987,2495,687.1987,2491,691.1987" style="stroke: #000000; stroke-width: 1.0;"/><line style="stroke: #000000; stroke-width: 1.5;" x1="2811" x2="2811" y1="670.2144" y2="697.1987"/><polygon fill="#000000" points="2807,687.1987,2811,697.1987,2815,687.1987,2811,691.1987" style="stroke: #000000; stroke-width: 1.0;"/><line style="stroke: #000000; stroke-width: 1.5;" x1="1180.5" x2="1180.5" y1="197.9688" y2="217.9688"/><polygon fill="#000000" points="1176.5,207.9688,1180.5,217.9688,1184.5,207.9688,1180.5,211.9688" style="stroke: #000000; stroke-width: 1.0;"/><line style="stroke: #000000; stroke-width: 1.5;" x1="2652" x2="2652" y1="197.9688" y2="603.2612"/><polygon fill="#000000" points="2648,593.2612,2652,603.2612,2656,593.2612,2652,597.2612" style="stroke: #000000; stroke-width: 1.0;"/><line style="stroke: #000000; stroke-width: 1.5;" x1="2919" x2="2919" y1="197.9688" y2="1117.5854"/><polygon fill="#000000" points="2915,1107.5854,2919,1117.5854,2923,1107.5854,2919,1111.5854" style="stroke: #000000; stroke-width: 1.0;"/><line style="stroke: #000000; stroke-width: 1.5;" x1="1180.5" x2="1180.5" y1="1097.5854" y2="1117.5854"/><polygon fill="#000000" points="1176.5,1107.5854,1180.5,1117.5854,1184.5,1107.5854,1180.5,1111.5854" style="stroke: #000000; stroke-width: 1.0;"/><line style="stroke: #000000; stroke-width: 1.5;" x1="2652" x2="2652" y1="703.1987" y2="1117.5854"/><polygon fill="#000000" points="2648,1107.5854,2652,1117.5854,2656,1107.5854,2652,1111.5854" style="stroke: #000000; stroke-width: 1.0;"/><line style="stroke: #000000; stroke-width: 1.5;" x1="1471.5" x2="1471.5" y1="171.9688" y2="191.9688"/><polygon fill="#000000" points="1467.5,181.9688,1471.5,191.9688,1475.5,181.9688,1471.5,185.9688" style="stroke: #000000; stroke-width: 1.0;"/><line style="stroke: #000000; stroke-width: 1.5;" x1="1483.5" x2="2945" y1="1155.5854" y2="1155.5854"/><polygon fill="#000000" points="2941,663.23,2945,653.23,2949,663.23,2945,659.23" style="stroke: #000000; stroke-width: 1.5;"/><line style="stroke: #000000; stroke-width: 1.5;" x1="2945" x2="2945" y1="159.9688" y2="1155.5854"/><line style="stroke: #000000; stroke-width: 1.5;" x1="2945" x2="1483.5" y1="159.9688" y2="159.9688"/><polygon fill="#000000" points="1493.5,155.9688,1483.5,159.9688,1493.5,163.9688,1489.5,159.9688" style="stroke: #000000; stroke-width: 1.0;"/><line style="stroke: #000000; stroke-width: 1.5;" x1="1471.5" x2="1471.5" y1="1123.5854" y2="1143.5854"/><polygon fill="#000000" points="1467.5,1133.5854,1471.5,1143.5854,1475.5,1133.5854,1471.5,1137.5854" style="stroke: #000000; stroke-width: 1.0;"/><line style="stroke: #000000; stroke-width: 1.5;" x1="1471.5" x2="1471.5" y1="127.9688" y2="147.9688"/><polygon fill="#000000" points="1467.5,137.9688,1471.5,147.9688,1475.5,137.9688,1471.5,141.9688" style="stroke: #000000; stroke-width: 1.0;"/><line style="stroke: #000000; stroke-width: 1.5;" x1="1471.5" x2="1471.5" y1="74" y2="94"/><polygon fill="#000000" points="1467.5,84,1471.5,94,1475.5,84,1471.5,88" style="stroke: #000000; stroke-width: 1.0;"/><line style="stroke: #000000; stroke-width: 1.5;" x1="1483.5" x2="2963" y1="1199.5854" y2="1199.5854"/><polygon fill="#000000" points="2959,628.7456,2963,618.7456,2967,628.7456,2963,624.7456" style="stroke: #000000; stroke-width: 1.5;"/><line style="stroke: #000000; stroke-width: 1.5;" x1="2963" x2="2963" y1="62" y2="1199.5854"/><line style="stroke: #000000; stroke-width: 1.5;" x1="2963" x2="1483.5" y1="62" y2="62"/><polygon fill="#000000" points="1493.5,58,1483.5,62,1493.5,66,1489.5,62" style="stroke: #000000; stroke-width: 1.0;"/><line style="stroke: #000000; stroke-width: 1.5;" x1="1471.5" x2="1471.5" y1="1167.5854" y2="1187.5854"/><polygon fill="#000000" points="1467.5,1177.5854,1471.5,1187.5854,1475.5,1177.5854,1471.5,1181.5854" style="stroke: #000000; stroke-width: 1.0;"/><line style="stroke: #000000; stroke-width: 1.5;" x1="1471.5" x2="1471.5" y1="30" y2="50"/><polygon fill="#000000" points="1467.5,40,1471.5,50,1475.5,40,1471.5,44" style="stroke: #000000; stroke-width: 1.0;"/><line style="stroke: #000000; stroke-width: 1.5;" x1="1471.5" x2="1471.5" y1="1211.5854" y2="1231.5854"/><polygon fill="#000000" points="1467.5,1221.5854,1471.5,1231.5854,1475.5,1221.5854,1471.5,1225.5854" style="stroke: #000000; stroke-width: 1.0;"/><line style="stroke: #000000; stroke-width: 1.5;" x1="1471.5" x2="1471.5" y1="1265.5542" y2="1285.5542"/><polygon fill="#000000" points="1467.5,1275.5542,1471.5,1285.5542,1475.5,1275.5542,1471.5,1279.5542" style="stroke: #000000; stroke-width: 1.0;"/><!--
@startuml

skinparam activity {
    BackgroundColor #GreenYellow/LightGoldenRodYellow
    BorderColor Black
    ArrowColor  Black
}
skinparam note {
    BackgroundColor white
    BorderBolor Black
}

start
repeat
:Startseite;
repeat
fork
    :Login;

    while (Login erfolgreich?) is (nein)
    :Login erneut eingeben;

    endwhile (ja)

    repeat
    :Startseite
    (privilegiert);
    repeat

    fork
        :Produktkatalog;
    fork again
        :Kasse;
    fork again
        :Statistik;
        note
            nur Manager
        end note

    fork again
        repeat
        :Verwaltung;
        note
            Alles auser
            User hinzufügen
            und Großhändler verwalten
            nur Manager
        end Note
        fork
            :User
            hinzufügen;
            note
                Verkaufspersonal
                kann nur
                Hauskunden
                hinzufügen
            end note
        fork again
            :User
            Verwalten;
        fork again
            :Großhändler
            hinzufügen;
        fork again
            :Großhändler
            verwalten;
            Note
                Verkaufspersonal
                kann nur
                Ort und Name einsehen
            end Note
        fork again
            :BNN Listen
            importieren;
        fork again
            :Produkt manuell
            hinzufügen;
        fork again
        endfork

    repeat while
    fork again
        :Produktübersicht;
        note
            Nur Manager kann
            Lagerbestand einsehen
            und Produkte zum Shop hinzufügen
        end note
    fork again
        :Bestellung;
        note
        nur Manager
        end Note

    fork again

    endfork
    repeat while
    repeat while
    :Logout;

fork again

    fork
    :Produktübersicht
    (nur lesen);
    note right
        Für "normale" Benutzer
        ohne Anmeldung
    end note
    fork again
    :Merkliste;
    fork again

    endfork


fork again
endfork
repeat while
repeat while

:<U+1F4A3><U+1F698><U+1F4A5>**CRASH**<U+1F4A3><U+1F698><U+1F4A5>;
end






@enduml

PlantUML version 1.2018.12(Sun Oct 21 12:15:15 CEST 2018)
(GPL source distribution)
Java Runtime: OpenJDK Runtime Environment
JVM: OpenJDK 64-Bit Server VM
Java Version: 11+28-Ubuntu-3ubuntu2
Operating System: Linux
OS Version: 4.18.0-10-generic
Default Encoding: UTF-8
Language: de
Country: DE
--></g></svg>