<?xml version="1.0" encoding="UTF-8" standalone="no"?><svg xmlns="http://www.w3.org/2000/svg" xmlns:xlink="http://www.w3.org/1999/xlink" contentScriptType="application/ecmascript" contentStyleType="text/css" height="1358px" preserveAspectRatio="none" style="width:1912px;height:1358px;" version="1.1" viewBox="0 0 1912 1358" width="1912px" zoomAndPan="magnify"><defs><filter height="300%" id="f1o4afkey4cvo3" width="300%" x="-1" y="-1"><feGaussianBlur result="blurOut" stdDeviation="2.0"/><feColorMatrix in="blurOut" result="blurOut2" type="matrix" values="0 0 0 0 0 0 0 0 0 0 0 0 0 0 0 0 0 0 .4 0"/><feOffset dx="4.0" dy="4.0" in="blurOut2" result="blurOut3"/><feBlend in="SourceGraphic" in2="blurOut3" mode="normal"/></filter><linearGradient id="g1o4afkey4cvo30" x1="0%" x2="100%" y1="0%" y2="100%"><stop offset="0%" stop-color="#ADFF2F"/><stop offset="100%" stop-color="#FAFAD2"/></linearGradient></defs><g><!--cluster BioLaden--><polygon fill="#FFFFFF" filter="url(#f1o4afkey4cvo3)" points="80,16,158,16,165,38.2969,1890,38.2969,1890,1346,80,1346,80,16" style="stroke: #000000; stroke-width: 1.5;"/><line style="stroke: #000000; stroke-width: 1.5;" x1="80" x2="165" y1="38.2969" y2="38.2969"/><text fill="#000000" font-family="sans-serif" font-size="14" font-weight="bold" lengthAdjust="spacingAndGlyphs" textLength="72" x="84" y="30.9951">BioLaden</text><!--cluster püb--><rect fill="url(#g1o4afkey4cvo30)" filter="url(#f1o4afkey4cvo3)" height="439" style="stroke: #000000; stroke-width: 1.5;" width="444" x="1281" y="378"/><text fill="#000000" font-family="sans-serif" font-size="14" font-weight="bold" lengthAdjust="spacingAndGlyphs" textLength="137" x="1434.5" y="392.9951">Produktübersicht</text><!--cluster ver--><rect fill="url(#g1o4afkey4cvo30)" filter="url(#f1o4afkey4cvo3)" height="422.5" style="stroke: #000000; stroke-width: 1.5;" width="781" x="88" y="378"/><text fill="#000000" font-family="sans-serif" font-size="14" font-weight="bold" lengthAdjust="spacingAndGlyphs" textLength="91" x="433" y="392.9951">Verwaltung</text><!--entity Startseite--><rect fill="url(#g1o4afkey4cvo30)" filter="url(#f1o4afkey4cvo3)" height="36.2969" style="stroke: #000000; stroke-width: 1.5;" width="97" x="137.5" y="1302"/><text fill="#000000" font-family="sans-serif" font-size="14" font-weight="bold" lengthAdjust="spacingAndGlyphs" textLength="77" x="147.5" y="1324.9951">Startseite</text><!--entity merk--><rect fill="url(#g1o4afkey4cvo30)" filter="url(#f1o4afkey4cvo3)" height="36.2969" style="stroke: #000000; stroke-width: 1.5;" width="92" x="1181" y="581"/><text fill="#000000" font-family="sans-serif" font-size="14" font-weight="bold" lengthAdjust="spacingAndGlyphs" textLength="72" x="1191" y="603.9951">Merkliste</text><!--entity pinf--><rect fill="url(#g1o4afkey4cvo30)" filter="url(#f1o4afkey4cvo3)" height="36.2969" style="stroke: #000000; stroke-width: 1.5;" width="112" x="1733" y="581"/><text fill="#000000" font-family="sans-serif" font-size="14" font-weight="bold" lengthAdjust="spacingAndGlyphs" textLength="92" x="1743" y="603.9951">Produktinfo</text><!--entity log--><rect fill="url(#g1o4afkey4cvo30)" filter="url(#f1o4afkey4cvo3)" height="36.2969" style="stroke: #000000; stroke-width: 1.5;" width="63" x="1260.5" y="46"/><text fill="#000000" font-family="sans-serif" font-size="14" font-weight="bold" lengthAdjust="spacingAndGlyphs" textLength="43" x="1270.5" y="68.9951">Login</text><!--entity stlog--><rect fill="url(#g1o4afkey4cvo30)" filter="url(#f1o4afkey4cvo3)" height="36.2969" style="stroke: #000000; stroke-width: 1.5;" width="145" x="927.5" y="232.5"/><text fill="#000000" font-family="sans-serif" font-size="14" font-weight="bold" lengthAdjust="spacingAndGlyphs" textLength="125" x="937.5" y="255.4951">Startseite Login</text><!--entity uadd--><rect fill="url(#g1o4afkey4cvo30)" filter="url(#f1o4afkey4cvo3)" height="36.2969" style="stroke: #000000; stroke-width: 1.5;" width="151" x="689.5" y="1037.5"/><text fill="#000000" font-family="sans-serif" font-size="14" font-weight="bold" lengthAdjust="spacingAndGlyphs" textLength="131" x="699.5" y="1060.4951">User hinzufügen</text><!--entity gadd--><rect fill="url(#g1o4afkey4cvo30)" filter="url(#f1o4afkey4cvo3)" height="52.5938" style="stroke: #000000; stroke-width: 1.5;" width="119" x="285.5" y="224"/><text fill="#000000" font-family="sans-serif" font-size="14" font-weight="bold" lengthAdjust="spacingAndGlyphs" textLength="99" x="295.5" y="246.9951">Großhändler</text><text fill="#000000" font-family="sans-serif" font-size="14" font-weight="bold" lengthAdjust="spacingAndGlyphs" textLength="89" x="295.5" y="263.292">hinzufügen</text><!--entity uver--><rect fill="url(#g1o4afkey4cvo30)" filter="url(#f1o4afkey4cvo3)" height="36.2969" style="stroke: #000000; stroke-width: 1.5;" width="141" x="100.5" y="232.5"/><text fill="#000000" font-family="sans-serif" font-size="14" font-weight="bold" lengthAdjust="spacingAndGlyphs" textLength="121" x="110.5" y="255.4951">User verwalten</text><!--entity gver--><rect fill="url(#g1o4afkey4cvo30)" filter="url(#f1o4afkey4cvo3)" height="52.5938" style="stroke: #000000; stroke-width: 1.5;" width="119" x="241.5" y="1029"/><text fill="#000000" font-family="sans-serif" font-size="14" font-weight="bold" lengthAdjust="spacingAndGlyphs" textLength="99" x="251.5" y="1051.9951">Großhändler</text><text fill="#000000" font-family="sans-serif" font-size="14" font-weight="bold" lengthAdjust="spacingAndGlyphs" textLength="79" x="251.5" y="1068.292">verwalten</text><!--entity bnn--><rect fill="url(#g1o4afkey4cvo30)" filter="url(#f1o4afkey4cvo3)" height="52.5938" style="stroke: #000000; stroke-width: 1.5;" width="112" x="696" y="224"/><text fill="#000000" font-family="sans-serif" font-size="14" font-weight="bold" lengthAdjust="spacingAndGlyphs" textLength="85" x="706" y="246.9951">BNN Listen</text><text fill="#000000" font-family="sans-serif" font-size="14" font-weight="bold" lengthAdjust="spacingAndGlyphs" textLength="92" x="706" y="263.292">importieren</text><!--entity padd--><rect fill="url(#g1o4afkey4cvo30)" filter="url(#f1o4afkey4cvo3)" height="52.5938" style="stroke: #000000; stroke-width: 1.5;" width="158" x="489" y="224"/><text fill="#000000" font-family="sans-serif" font-size="14" font-weight="bold" lengthAdjust="spacingAndGlyphs" textLength="138" x="499" y="246.9951">Produkte manuell</text><text fill="#000000" font-family="sans-serif" font-size="14" font-weight="bold" lengthAdjust="spacingAndGlyphs" textLength="89" x="499" y="263.292">hinzufügen</text><!--entity kas--><rect fill="url(#g1o4afkey4cvo30)" filter="url(#f1o4afkey4cvo3)" height="36.2969" style="stroke: #000000; stroke-width: 1.5;" width="68" x="896" y="413.5"/><text fill="#000000" font-family="sans-serif" font-size="14" font-weight="bold" lengthAdjust="spacingAndGlyphs" textLength="48" x="906" y="436.4951">Kasse</text><!--entity best--><rect fill="url(#g1o4afkey4cvo30)" filter="url(#f1o4afkey4cvo3)" height="36.2969" style="stroke: #000000; stroke-width: 1.5;" width="103" x="968.5" y="756.5"/><text fill="#000000" font-family="sans-serif" font-size="14" font-weight="bold" lengthAdjust="spacingAndGlyphs" textLength="83" x="978.5" y="779.4951">Bestellung</text><!--entity stats--><rect fill="url(#g1o4afkey4cvo30)" filter="url(#f1o4afkey4cvo3)" height="36.2969" style="stroke: #000000; stroke-width: 1.5;" width="83" x="951.5" y="581"/><text fill="#000000" font-family="sans-serif" font-size="14" font-weight="bold" lengthAdjust="spacingAndGlyphs" textLength="63" x="961.5" y="603.9951">Statistik</text><!--entity lout--><rect fill="url(#g1o4afkey4cvo30)" filter="url(#f1o4afkey4cvo3)" height="36.2969" style="stroke: #000000; stroke-width: 1.5;" width="75" x="894.5" y="1037.5"/><text fill="#000000" font-family="sans-serif" font-size="14" font-weight="bold" lengthAdjust="spacingAndGlyphs" textLength="55" x="904.5" y="1060.4951">Logout</text><!--entity pkat--><rect fill="url(#g1o4afkey4cvo30)" filter="url(#f1o4afkey4cvo3)" height="68.8906" style="stroke: #000000; stroke-width: 1.5;" width="102" x="1615" y="740"/><text fill="#000000" font-family="sans-serif" font-size="14" font-weight="bold" lengthAdjust="spacingAndGlyphs" textLength="49" x="1625" y="762.9951">Name,</text><text fill="#000000" font-family="sans-serif" font-size="14" font-weight="bold" lengthAdjust="spacingAndGlyphs" textLength="82" x="1625" y="779.292">Kategorie,</text><text fill="#000000" font-family="sans-serif" font-size="14" font-weight="bold" lengthAdjust="spacingAndGlyphs" textLength="40" x="1625" y="795.5889">Preis</text><!--entity plab--><rect fill="url(#g1o4afkey4cvo30)" filter="url(#f1o4afkey4cvo3)" height="36.2969" style="stroke: #000000; stroke-width: 1.5;" width="132" x="1289" y="756.5"/><text fill="#000000" font-family="sans-serif" font-size="14" font-weight="bold" lengthAdjust="spacingAndGlyphs" textLength="112" x="1299" y="779.4951">Label drucken</text><!--entity addmerk--><rect fill="url(#g1o4afkey4cvo30)" filter="url(#f1o4afkey4cvo3)" height="52.5938" style="stroke: #000000; stroke-width: 1.5;" width="123" x="1456.5" y="748"/><text fill="#000000" font-family="sans-serif" font-size="14" font-weight="bold" lengthAdjust="spacingAndGlyphs" textLength="103" x="1466.5" y="770.9951">zur Merkliste</text><text fill="#000000" font-family="sans-serif" font-size="14" font-weight="bold" lengthAdjust="spacingAndGlyphs" textLength="89" x="1466.5" y="787.292">hinzufügen</text><!--entity shop--><rect fill="url(#g1o4afkey4cvo30)" filter="url(#f1o4afkey4cvo3)" height="52.5938" style="stroke: #000000; stroke-width: 1.5;" width="197" x="1289.5" y="405"/><text fill="#000000" font-family="sans-serif" font-size="14" font-weight="bold" lengthAdjust="spacingAndGlyphs" textLength="50" x="1299.5" y="427.9951">Lager,</text><text fill="#000000" font-family="sans-serif" font-size="14" font-weight="bold" lengthAdjust="spacingAndGlyphs" textLength="177" x="1299.5" y="444.292">zum Shop hinzufügen,</text><!--entity vuadd--><rect fill="url(#g1o4afkey4cvo30)" filter="url(#f1o4afkey4cvo3)" height="36.2969" style="stroke: #000000; stroke-width: 1.5;" width="151" x="546.5" y="756.5"/><text fill="#000000" font-family="sans-serif" font-size="14" font-weight="bold" lengthAdjust="spacingAndGlyphs" textLength="131" x="556.5" y="779.4951">User hinzufügen</text><!--entity vuver--><rect fill="url(#g1o4afkey4cvo30)" filter="url(#f1o4afkey4cvo3)" height="36.2969" style="stroke: #000000; stroke-width: 1.5;" width="141" x="96.5" y="413.5"/><text fill="#000000" font-family="sans-serif" font-size="14" font-weight="bold" lengthAdjust="spacingAndGlyphs" textLength="121" x="106.5" y="436.4951">User verwalten</text><!--entity vgadd--><rect fill="url(#g1o4afkey4cvo30)" filter="url(#f1o4afkey4cvo3)" height="36.2969" style="stroke: #000000; stroke-width: 1.5;" width="213" x="272.5" y="413.5"/><text fill="#000000" font-family="sans-serif" font-size="14" font-weight="bold" lengthAdjust="spacingAndGlyphs" textLength="193" x="282.5" y="436.4951">Großhändler hinzufügen</text><!--entity vgver--><rect fill="url(#g1o4afkey4cvo30)" filter="url(#f1o4afkey4cvo3)" height="36.2969" style="stroke: #000000; stroke-width: 1.5;" width="203" x="300.5" y="756.5"/><text fill="#000000" font-family="sans-serif" font-size="14" font-weight="bold" lengthAdjust="spacingAndGlyphs" textLength="183" x="310.5" y="779.4951">Großhändler verwalten</text><!--entity vbnn--><rect fill="url(#g1o4afkey4cvo30)" filter="url(#f1o4afkey4cvo3)" height="52.5938" style="stroke: #000000; stroke-width: 1.5;" width="112" x="749" y="405"/><text fill="#000000" font-family="sans-serif" font-size="14" font-weight="bold" lengthAdjust="spacingAndGlyphs" textLength="85" x="759" y="427.9951">BNN Listen</text><text fill="#000000" font-family="sans-serif" font-size="14" font-weight="bold" lengthAdjust="spacingAndGlyphs" textLength="92" x="759" y="444.292">importieren</text><!--entity vpadd--><rect fill="url(#g1o4afkey4cvo30)" filter="url(#f1o4afkey4cvo3)" height="52.5938" style="stroke: #000000; stroke-width: 1.5;" width="158" x="556" y="405"/><text fill="#000000" font-family="sans-serif" font-size="14" font-weight="bold" lengthAdjust="spacingAndGlyphs" textLength="138" x="566" y="427.9951">Produkte manuell</text><text fill="#000000" font-family="sans-serif" font-size="14" font-weight="bold" lengthAdjust="spacingAndGlyphs" textLength="89" x="566" y="444.292">hinzufügen</text><!--entity m--><ellipse cx="41" cy="880" fill="#FFFFFF" filter="url(#f1o4afkey4cvo3)" rx="8" ry="8" style="stroke: #000000; stroke-width: 2.0;"/><path d="M41,888 L41,915 M28,896 L54,896 M41,915 L28,930 M41,915 L54,930 " fill="none" filter="url(#f1o4afkey4cvo3)" style="stroke: #000000; stroke-width: 2.0;"/><text fill="#000000" font-family="sans-serif" font-size="14" lengthAdjust="spacingAndGlyphs" textLength="60" x="11" y="949.9951">Manager</text><!--entity v--><ellipse cx="39" cy="1024" fill="#FFFFFF" filter="url(#f1o4afkey4cvo3)" rx="8" ry="8" style="stroke: #000000; stroke-width: 2.0;"/><path d="M39,1032 L39,1059 M26,1040 L52,1040 M39,1059 L26,1074 M39,1059 L52,1074 " fill="none" filter="url(#f1o4afkey4cvo3)" style="stroke: #000000; stroke-width: 2.0;"/><text fill="#000000" font-family="sans-serif" font-size="14" lengthAdjust="spacingAndGlyphs" textLength="66" x="6" y="1093.9951">Verkäufer</text><!--entity k--><ellipse cx="39" cy="1168" fill="#FFFFFF" filter="url(#f1o4afkey4cvo3)" rx="8" ry="8" style="stroke: #000000; stroke-width: 2.0;"/><path d="M39,1176 L39,1203 M26,1184 L52,1184 M39,1203 L26,1218 M39,1203 L52,1218 " fill="none" filter="url(#f1o4afkey4cvo3)" style="stroke: #000000; stroke-width: 2.0;"/><text fill="#000000" font-family="sans-serif" font-size="14" lengthAdjust="spacingAndGlyphs" textLength="45" x="16.5" y="1237.9951">Kunde</text><!--link m to v--><path d="M40.4215,953.1508 C40.2453,965.8375 40.0477,980.0629 39.8572,993.7802 " fill="none" id="m-v" style="stroke: #000000; stroke-width: 1.0;"/><polygon fill="none" points="46.8544,994.042,39.5772,1013.9428,32.8557,993.8475,46.8544,994.042" style="stroke: #000000; stroke-width: 1.0;"/><!--link v to k--><path d="M39,1097.1508 C39,1109.8375 39,1124.0629 39,1137.7802 " fill="none" id="v-k" style="stroke: #000000; stroke-width: 1.0;"/><polygon fill="none" points="46.0001,1137.9429,39,1157.9428,32.0001,1137.9428,46.0001,1137.9429" style="stroke: #000000; stroke-width: 1.0;"/><!--link m to Startseite--><path d="M61.8587,953.0148 C70.8894,971.5133 81.3496,993.6733 90,1014 C116.7655,1076.8936 123.3947,1092.8278 144,1158 C159.4005,1206.71 173.4588,1264.93 180.7537,1296.6184 " fill="none" id="m-Startseite" style="stroke: #006400; stroke-width: 1.0;"/><polygon fill="#006400" points="181.9508,1301.8446,183.8403,1292.1787,180.8344,1296.9708,176.0422,1293.9649,181.9508,1301.8446" style="stroke: #006400; stroke-width: 1.0;"/><!--link v to Startseite--><path d="M62.1305,1097.1191 C93.5691,1153.6872 148.6975,1252.881 173.4019,1297.3319 " fill="none" id="v-Startseite" style="stroke: #0000FF; stroke-width: 1.0;"/><polygon fill="#0000FF" points="175.9785,1301.9682,175.1027,1292.1584,173.5495,1297.5978,168.1101,1296.0447,175.9785,1301.9682" style="stroke: #0000FF; stroke-width: 1.0;"/><!--link k to Startseite--><path d="M61.6792,1240.0606 C69.3246,1251.3622 78.5938,1262.996 89,1272 C101.8768,1283.1416 117.7926,1292.4102 132.9821,1299.7356 " fill="none" id="k-Startseite" style="stroke: #FFA500; stroke-width: 1.0;"/><polygon fill="#FFA500" points="137.6686,1301.9465,131.2357,1294.4887,133.1466,1299.8131,127.8223,1301.7239,137.6686,1301.9465" style="stroke: #FFA500; stroke-width: 1.0;"/><!--link Startseite to püb--><path d="M240.3235,1319.0471 C530.1275,1313.6157 1881,1283.778 1881,1199.5 C1881,519.5 1881,519.5 1881,519.5 C1881,499.4464 1859.6019,483.9394 1827.2541,471.9542 C1811.0801,465.9616 1792.1688,460.8495 1771.826,456.4898 C1761.6546,454.3099 1751.1253,452.3181 1740.4015,450.4984 C1737.7205,450.0435 1735.0274,449.5994 1732.3247,449.1657 C1730.9733,448.9489 1729.6195,448.7347 1728.2637,448.523 C1727.5857,448.4172 1726.9073,448.3121 1726.2284,448.2076 " fill="none" id="Startseite-püb" style="stroke: #FFA500; stroke-width: 1.0;"/><polygon fill="#FFA500" points="1726.2284,448.2076,1734.515,453.5303,1731.1701,448.9683,1735.7322,445.6234,1726.2284,448.2076" style="stroke: #FFA500; stroke-width: 1.0;"/><polygon fill="#FFA500" points="234.9001,1319.1483,243.9732,1322.9797,239.8992,1319.055,243.8239,1314.9811,234.9001,1319.1483" style="stroke: #FFA500; stroke-width: 1.0;"/><!--link püb to pkat--><path d="M1521.6211,431.5059 C1506.4008,432.0023 1595,463.9935 1595,519.5 C1595,519.5 1595,519.5 1595,678.5 C1595,692.6753 1594.4336,696.9634 1600,710 C1603.7741,718.839 1609.0253,727.5556 1615.0196,735.5851 " fill="none" id="püb-pkat" style="stroke: #FFA500; stroke-width: 1.0;"/><polygon fill="#FFA500" points="1618.4215,739.9717,1616.067,730.4084,1615.3574,736.0206,1609.7452,735.311,1618.4215,739.9717" style="stroke: #FFA500; stroke-width: 1.0;"/><!--link püb to pkat--><path d="M1522.435,431.5059 C1541.4008,432.0023 1630,463.9935 1630,519.5 C1630,519.5 1630,519.5 1630,678.5 C1630,692.6753 1629.4336,696.9634 1635,710 C1638.7741,718.839 1644.0253,727.5556 1649.3536,735.5851 " fill="none" id="püb-pkat" style="stroke: #0000FF; stroke-width: 1.0;"/><polygon fill="#0000FF" points="1652.3128,739.9717,1650.5955,730.2737,1649.5165,735.8267,1643.9635,734.7478,1652.3128,739.9717" style="stroke: #0000FF; stroke-width: 1.0;"/><polygon fill="#0000FF" points="1522.435,431.5059,1531.3273,435.74,1527.4333,431.6367,1531.5366,427.7427,1522.435,431.5059" style="stroke: #0000FF; stroke-width: 1.0;"/><!--link püb to addmerk--><path d="M1521.9775,432.0585 C1521.7578,437.5717 1520,482.8239 1520,519.5 C1520,519.5 1520,519.5 1520,678.5 C1520,699.8328 1519.5002,723.8262 1519.0004,742.4898 " fill="none" id="püb-addmerk" style="stroke: #FFA500; stroke-width: 1.0;"/><polygon fill="#FFA500" points="1518.8598,747.6059,1523.1057,738.7192,1518.9972,742.6078,1515.1087,738.4994,1518.8598,747.6059" style="stroke: #FFA500; stroke-width: 1.0;"/><polygon fill="#FFA500" points="1521.9775,432.0585,1517.6223,440.8921,1521.7784,437.0545,1525.616,441.2106,1521.9775,432.0585" style="stroke: #FFA500; stroke-width: 1.0;"/><!--link püb to log--><path d="M1503.7438,377.6876 C1503.658,377.5842 1503.5719,377.4815 1503.4855,377.3796 C1503.3126,377.1757 1503.1382,376.9748 1502.9625,376.7767 C1502.6112,376.3806 1502.2543,375.996 1501.8923,375.6225 C1501.1682,374.8754 1500.4233,374.1728 1499.6597,373.5114 C1498.1325,372.1886 1496.5305,371.0306 1494.8703,370.0117 C1491.55,367.9738 1487.9973,366.4924 1484.3464,365.3618 C1477.0447,363.1007 1469.35,362.243 1462.3357,361.1441 C1448.3072,358.9462 1437,355.7838 1437,338.5 C1437,154.5 1437,154.5 1437,154.5 C1437,103.6002 1371.9039,80.2802 1328.9443,70.4323 " fill="none" id="püb-log" style="stroke: #FFA500; stroke-width: 1.0;"/><polygon fill="#FFA500" points="1323.8209,69.2971,1331.7424,75.1495,1328.7025,70.3788,1333.4731,67.3389,1323.8209,69.2971" style="stroke: #FFA500; stroke-width: 1.0;"/><polygon fill="#FFA500" points="1503.7438,377.6876,1501.0773,368.2066,1500.5519,373.839,1494.9195,373.3136,1503.7438,377.6876" style="stroke: #FFA500; stroke-width: 1.0;"/><!--link log to stlog--><path d="M1263.7365,82.0519 C1209.3344,116.7984 1090.3543,192.7908 1032.6612,229.6394 " fill="none" id="log-stlog" style="stroke: #0000FF; stroke-width: 1.0;"/><polygon fill="#0000FF" points="1028.2791,232.4382,1038.0171,230.9647,1032.4929,229.7468,1033.7109,224.2226,1028.2791,232.4382" style="stroke: #0000FF; stroke-width: 1.0;"/><text fill="#000000" font-family="sans-serif" font-size="13" lengthAdjust="spacingAndGlyphs" textLength="105" x="1161" y="159.0669">Login erfolgreich</text><!--link log to log--><path d="M1323.816,55.1062 C1341.8256,53.3694 1358.5,56.334 1358.5,64 C1358.5,70.9473 1344.8055,74.0334 1328.8333,73.2583 " fill="none" id="log-log" style="stroke: #FFA500; stroke-width: 1.0;"/><polygon fill="#FFA500" points="1323.816,72.8938,1332.5024,77.5356,1328.8028,73.2562,1333.0823,69.5567,1323.816,72.8938" style="stroke: #FFA500; stroke-width: 1.0;"/><text fill="#000000" font-family="sans-serif" font-size="13" lengthAdjust="spacingAndGlyphs" textLength="34" x="1393.5" y="61.0669">Login</text><text fill="#000000" font-family="sans-serif" font-size="13" lengthAdjust="spacingAndGlyphs" textLength="96" x="1364.5" y="76.1997">fehlgeschlagen</text><!--link stlog to lout--><path d="M1050.9518,268.6436 C1080.1319,282.6441 1111,305.3006 1111,338.5 C1111,338.5 1111,338.5 1111,488.5 C1111,559.1792 1108,576.8208 1108,647.5 C1108,647.5 1108,647.5 1108,911.5 C1108,980.1514 1026.7946,1021.9793 974.703,1041.7485 " fill="none" id="stlog-lout" style="stroke: #006400; stroke-width: 1.0;"/><polygon fill="#006400" points="969.7564,1043.593,979.5868,1044.1964,974.4413,1041.846,976.7916,1036.7006,969.7564,1043.593" style="stroke: #006400; stroke-width: 1.0;"/><!--link stlog to püb--><path d="M1058.157,270.0929 C1139.8091,296.8266 1293.5174,344.3351 1428,370 C1436.3406,371.5918 1452.0275,370.9369 1467.2858,371.2115 C1474.915,371.3488 1482.437,371.7185 1488.88,372.7175 C1492.1015,373.2171 1495.0532,373.874 1497.6137,374.7378 C1498.894,375.1698 1500.0764,375.6534 1501.1459,376.1951 C1501.6806,376.4659 1502.187,376.7512 1502.6634,377.0518 C1502.9015,377.202 1503.1322,377.3561 1503.355,377.5141 C1503.4664,377.5931 1503.5759,377.6731 1503.6834,377.7541 C1503.7372,377.7946 1503.7904,377.8353 1503.8432,377.8763 " fill="none" id="stlog-püb" style="stroke: #006400; stroke-width: 1.0;"/><polygon fill="#006400" points="1503.8432,377.8763,1499.1891,369.1965,1499.8944,374.8092,1494.2817,375.5145,1503.8432,377.8763" style="stroke: #006400; stroke-width: 1.0;"/><polygon fill="#006400" points="1053.3639,268.5203,1060.6683,275.1268,1058.1147,270.0791,1063.1624,267.5256,1053.3639,268.5203" style="stroke: #006400; stroke-width: 1.0;"/><!--link püb to plab--><path d="M1521.7927,431.9116 C1520.4731,434.5046 1513.013,448.7667 1504,458 C1471.1766,491.6255 1418,472.5101 1418,519.5 C1418,519.5 1418,519.5 1418,678.5 C1418,692.6753 1419.1006,697.2047 1413,710 C1405.247,726.2612 1392.0751,741.4091 1380.2415,752.9334 " fill="none" id="püb-plab" style="stroke: #0000FF; stroke-width: 1.0;"/><polygon fill="#0000FF" points="1376.6195,756.3908,1385.8916,753.07,1380.2363,752.9384,1380.3678,747.2831,1376.6195,756.3908" style="stroke: #0000FF; stroke-width: 1.0;"/><polygon fill="#0000FF" points="1521.7927,431.9116,1514.1458,438.1184,1519.5249,436.3677,1521.2756,441.7469,1521.7927,431.9116" style="stroke: #0000FF; stroke-width: 1.0;"/><!--link stlog to stats--><path d="M1000,273.9612 C1000,291.6893 1000,316.6241 1000,338.5 C1000,338.5 1000,338.5 1000,519.5 C1000,538.4214 998.008,559.7787 996.1493,575.5886 " fill="none" id="stlog-stats" style="stroke: #006400; stroke-width: 1.0;"/><polygon fill="#006400" points="995.5272,580.726,1000.5805,572.2723,996.1285,575.7623,992.6385,571.3103,995.5272,580.726" style="stroke: #006400; stroke-width: 1.0;"/><polygon fill="#006400" points="1000,268.7022,996,277.7022,1000,273.7022,1004,277.7022,1000,268.7022" style="stroke: #006400; stroke-width: 1.0;"/><!--link stlog to best--><path d="M1015.5456,273.4256 C1025.6672,290.5748 1037,315.019 1037,338.5 C1037,338.5 1037,338.5 1037,488.5 C1037,545.9989 1057.7531,559.7896 1052,617 C1047.144,665.2892 1034.1142,720.6677 1026.2596,751.2095 " fill="none" id="stlog-best" style="stroke: #006400; stroke-width: 1.0;"/><polygon fill="#006400" points="1024.9509,756.2546,1031.0826,748.5473,1026.2064,751.4148,1023.3389,746.5386,1024.9509,756.2546" style="stroke: #006400; stroke-width: 1.0;"/><polygon fill="#006400" points="1012.7333,268.789,1013.9806,278.5586,1015.3263,273.0641,1020.8207,274.4098,1012.7333,268.789" style="stroke: #006400; stroke-width: 1.0;"/><!--link stlog to kas--><path d="M991.2222,273.197 C977.8306,307.8237 952.4351,373.4892 938.9447,408.3717 " fill="none" id="stlog-kas" style="stroke: #0000FF; stroke-width: 1.0;"/><polygon fill="#0000FF" points="937.0435,413.2875,944.0206,406.3362,938.8471,408.6241,936.5592,403.4506,937.0435,413.2875" style="stroke: #0000FF; stroke-width: 1.0;"/><polygon fill="#0000FF" points="993.0322,268.5167,986.0549,275.4678,991.2285,273.18,993.5162,278.3537,993.0322,268.5167" style="stroke: #0000FF; stroke-width: 1.0;"/><!--link stlog to ver--><path d="M922.3973,268.4114 C855.5193,285.1382 757.2421,310.8103 674.7734,333.1633 C633.539,344.3397 596.2567,354.6864 568.8275,362.6702 C555.1129,366.6621 543.8616,370.0633 535.8111,372.6821 C531.7859,373.9916 528.5609,375.1054 526.2283,375.9997 C525.062,376.4468 524.1188,376.8391 523.4103,377.1735 C523.056,377.3407 522.7604,377.4934 522.5248,377.6313 C522.4071,377.7002 522.3043,377.7654 522.2168,377.8269 C522.173,377.8576 522.1331,377.8874 522.0969,377.9163 " fill="none" id="stlog-ver" style="stroke: #006400; stroke-width: 1.0;"/><polygon fill="#006400" points="522.0969,377.9163,531.6262,375.4276,526.0046,374.7969,526.6352,369.1753,522.0969,377.9163" style="stroke: #006400; stroke-width: 1.0;"/><polygon fill="#006400" points="927.494,267.1389,917.7931,265.4384,922.6429,268.3502,919.7311,273.2001,927.494,267.1389" style="stroke: #006400; stroke-width: 1.0;"/><!--link stlog to ver--><path d="M936.6349,270.0082 C876.1096,287.0127 782.9944,312.3126 704.1139,334.2104 C664.6736,345.1593 628.7919,355.2577 602.3219,363.0433 C589.0869,366.9362 578.2049,370.2508 570.4073,372.8045 C566.5086,374.0814 563.3809,375.168 561.1159,376.0415 C559.9834,376.4783 559.0665,376.8618 558.3767,377.1891 C558.0318,377.3528 557.7437,377.5025 557.5138,377.6377 C557.3988,377.7054 557.2984,377.7694 557.2127,377.8298 C557.1699,377.86 557.1307,377.8893 557.0952,377.9176 " fill="none" id="stlog-ver" style="stroke: #0000FF; stroke-width: 1.0;"/><polygon fill="#0000FF" points="557.0952,377.9176,566.6216,375.4181,560.9993,374.7939,561.6236,369.1716,557.0952,377.9176" style="stroke: #0000FF; stroke-width: 1.0;"/><polygon fill="#0000FF" points="941.5926,268.6133,931.8456,267.2002,936.7795,269.9674,934.0123,274.9013,941.5926,268.6133" style="stroke: #0000FF; stroke-width: 1.0;"/><!--link ver to vgver--><path d="M520.7703,431.8916 C519.3136,434.3621 511.162,448.0065 503,458 C478.8446,487.5759 443,481.3133 443,519.5 C443,519.5 443,519.5 443,678.5 C443,692.6753 442.6369,696.6046 438,710 C432.8816,724.7865 424.4642,740.1303 417.0553,752.1411 " fill="none" id="ver-vgver" style="stroke: #0000FF; stroke-width: 1.0;"/><polygon fill="#0000FF" points="414.3793,756.4081,422.5496,750.9085,417.0357,752.1721,415.7721,746.6582,414.3793,756.4081" style="stroke: #0000FF; stroke-width: 1.0;"/><polygon fill="#0000FF" points="520.7703,431.8916,512.7534,437.6126,518.2307,436.1986,519.6447,441.6759,520.7703,431.8916" style="stroke: #0000FF; stroke-width: 1.0;"/><!--link ver to vuadd--><path d="M521.3193,431.9913 C525.5776,438.5518 571,508.7813 571,519.5 C571,519.5 571,519.5 571,678.5 C571,692.6753 570.6308,696.8809 576,710 C582.2637,725.3048 592.7907,740.4611 602.1946,752.2324 " fill="none" id="ver-vuadd" style="stroke: #0000FF; stroke-width: 1.0;"/><polygon fill="#0000FF" points="605.5984,756.41,603.0145,746.9061,602.4401,752.5337,596.8125,751.9593,605.5984,756.41" style="stroke: #0000FF; stroke-width: 1.0;"/><polygon fill="#0000FF" points="521.3193,431.9913,522.8641,441.7182,524.0415,436.1853,529.5745,437.3627,521.3193,431.9913" style="stroke: #0000FF; stroke-width: 1.0;"/><!--link vuadd to uadd--><path d="M620.8122,792.7452 C619.4283,826.5539 620.2979,900.2876 649,953 C667.9695,987.8381 703.6273,1016.5777 730.4231,1034.6697 " fill="none" id="vuadd-uadd" style="stroke: #0000FF; stroke-width: 1.0;"/><polygon fill="#0000FF" points="734.6436,1037.4812,729.3711,1029.1625,730.4824,1034.7091,724.9358,1035.8204,734.6436,1037.4812" style="stroke: #0000FF; stroke-width: 1.0;"/><text fill="#000000" font-family="sans-serif" font-size="13" lengthAdjust="spacingAndGlyphs" textLength="105" x="650" y="916.0669">nur Hauskunden</text><!--link vuadd to uadd--><path d="M654.9204,792.5907 C691.8921,813.6648 748.279,848.3494 760,870 C788.2142,922.1163 778.4625,995.1153 770.7389,1032.0761 " fill="none" id="vuadd-uadd" style="stroke: #006400; stroke-width: 1.0;"/><polygon fill="#006400" points="769.6189,1037.261,775.4292,1029.3086,770.6747,1032.3738,767.6096,1027.6193,769.6189,1037.261" style="stroke: #006400; stroke-width: 1.0;"/><!--link vgver to gver--><path d="M395.5284,792.5053 C378.7162,839.2798 333.4953,965.0922 312.2796,1024.1182 " fill="none" id="vgver-gver" style="stroke: #0000FF; stroke-width: 1.0;"/><polygon fill="#0000FF" points="310.5484,1028.9347,317.3569,1021.8182,312.2397,1024.2294,309.8285,1019.1122,310.5484,1028.9347" style="stroke: #0000FF; stroke-width: 1.0;"/><text fill="#000000" font-family="sans-serif" font-size="13" lengthAdjust="spacingAndGlyphs" textLength="178" x="368" y="916.0669">nur Name und Ort einsehen</text><!--link vgver to gver--><path d="M383.728,792.8319 C366.9115,810.8632 342.7111,839.9809 330,870 C308.4975,920.781 302.75,985.458 301.3246,1023.4867 " fill="none" id="vgver-gver" style="stroke: #006400; stroke-width: 1.0;"/><polygon fill="#006400" points="301.1443,1028.8993,305.4419,1020.0376,301.3109,1023.9021,297.4463,1019.771,301.1443,1028.8993" style="stroke: #006400; stroke-width: 1.0;"/><!--link lout to Startseite--><path d="M902.7791,1073.588 C889.429,1081.404 873.2265,1090.2776 858,1097 C635.5615,1195.2053 355.6559,1274.7886 239.8999,1305.8942 " fill="none" id="lout-Startseite" style="stroke: #0000FF; stroke-width: 1.0;"/><polygon fill="#0000FF" points="234.8469,1307.2492,244.5758,1308.7815,239.6763,1305.9541,242.5036,1301.0545,234.8469,1307.2492" style="stroke: #0000FF; stroke-width: 1.0;"/><!--link püb to lout--><path d="M1280.516,710.9418 C1280.2959,711.5869 1280.0763,712.2321 1279.8571,712.8773 C1278.9802,715.458 1278.11,718.0386 1277.2441,720.6191 C1275.5125,725.7803 1273.7985,730.9412 1272.0844,736.102 C1244.6586,818.6746 1217.2047,901.2133 1117,984 C1075.3358,1018.422 1015.2206,1037.512 974.94,1047.1311 " fill="none" id="püb-lout" style="stroke: #006400; stroke-width: 1.0;"/><polygon fill="#006400" points="969.6379,1048.37,979.312,1050.2172,974.5067,1047.2323,977.4916,1042.427,969.6379,1048.37" style="stroke: #006400; stroke-width: 1.0;"/><!--link püb to kas--><path d="M1506.9387,377.6909 C1506.8702,377.5784 1506.8015,377.4661 1506.7324,377.354 C1506.1801,376.4573 1505.6079,375.5749 1505.0153,374.7095 C1500.2741,367.786 1494.2218,361.9456 1486.5,358.5 C1412.0225,325.2672 1199.6811,343.5902 1119.5,358.5 C1065.2631,368.5855 1006.5311,393.6147 969.0621,411.5517 " fill="none" id="püb-kas" style="stroke: #0000FF; stroke-width: 1.0;"/><polygon fill="#0000FF" points="964.1462,413.9228,973.9903,413.6155,968.6497,411.7506,970.5147,406.41,964.1462,413.9228" style="stroke: #0000FF; stroke-width: 1.0;"/><polygon fill="#0000FF" points="1506.9387,377.6909,1505.6803,367.9228,1504.3408,373.4188,1498.8448,372.0793,1506.9387,377.6909" style="stroke: #0000FF; stroke-width: 1.0;"/><!--link püb to stats--><path d="M1279.3904,476.6564 C1278.2693,476.6393 1277.1498,476.6227 1276.0321,476.6068 C1273.7967,476.5751 1271.5683,476.5459 1269.3482,476.5198 C1251.5869,476.3112 1234.3497,476.3036 1218.2053,476.7907 C1185.9164,477.7649 1157.9984,480.718 1139,488 C1087.9915,507.5515 1039.7795,550.7501 1013.5247,577.1198 " fill="none" id="püb-stats" style="stroke: #006400; stroke-width: 1.0;"/><polygon fill="#006400" points="1009.8127,580.8835,1018.9804,577.2845,1013.3237,577.3236,1013.2846,571.6669,1009.8127,580.8835" style="stroke: #006400; stroke-width: 1.0;"/><polygon fill="#006400" points="1279.3904,476.6564,1270.4524,472.5196,1274.391,476.5801,1270.3304,480.5186,1279.3904,476.6564" style="stroke: #006400; stroke-width: 1.0;"/><!--link ver to püb--><path d="M536.0613,377.6909 C536.1298,377.5784 536.1985,377.4661 536.2676,377.354 C536.8199,376.4573 537.3921,375.5749 537.9847,374.7095 C542.7259,367.786 548.7782,361.9456 556.5,358.5 C603.6826,337.4465 1439.3174,337.4465 1486.5,358.5 C1494.2218,361.9456 1500.2741,367.786 1505.0153,374.7095 C1505.6079,375.5749 1506.1801,376.4573 1506.7324,377.354 C1506.8015,377.4661 1506.8702,377.5784 1506.9387,377.6909 " fill="none" id="ver-püb" style="stroke: #0000FF; stroke-width: 1.0;"/><polygon fill="#0000FF" points="1506.9387,377.6909,1505.6803,367.9228,1504.3408,373.4188,1498.8448,372.0793,1506.9387,377.6909" style="stroke: #0000FF; stroke-width: 1.0;"/><polygon fill="#0000FF" points="536.0613,377.6909,544.1552,372.0793,538.6592,373.4188,537.3197,367.9228,536.0613,377.6909" style="stroke: #0000FF; stroke-width: 1.0;"/><!--link ver to lout--><path d="M840,803.7822 C840,806.2542 840,808.7477 840,811.2629 C840,821.3237 840,831.7314 840,842.498 C840,864.0313 840,887 840,911.5 C840,961.2659 879.5033,1007.6424 906.7389,1033.7029 " fill="none" id="ver-lout" style="stroke: #0000FF; stroke-width: 1.0;"/><polygon fill="#0000FF" points="910.6621,1037.3984,906.8537,1028.3157,907.0226,1033.97,901.3682,1034.1389,910.6621,1037.3984" style="stroke: #0000FF; stroke-width: 1.0;"/><!--link püb to best--><path d="M1280.3523,492.8306 C1276.6544,494.4064 1273.1342,495.9515 1269.7711,497.4772 C1263.0448,500.5287 1256.9467,503.5026 1251.3109,506.4887 C1240.0393,512.4611 1230.6172,518.4827 1221.7186,525.2732 C1203.9213,538.8543 1188.2179,555.5109 1164,581 C1116.8746,630.5992 1122.122,656.0869 1080,710 C1068.3096,724.9628 1053.8459,740.5833 1042.0486,752.704 " fill="none" id="püb-best" style="stroke: #006400; stroke-width: 1.0;"/><polygon fill="#006400" points="1038.479,756.3487,1047.6341,752.7177,1041.9776,752.7766,1041.9187,747.12,1038.479,756.3487" style="stroke: #006400; stroke-width: 1.0;"/><polygon fill="#006400" points="1280.3523,492.8306,1270.5046,492.6789,1275.7525,494.7907,1273.6408,500.0386,1280.3523,492.8306" style="stroke: #006400; stroke-width: 1.0;"/><!--link stats to lout--><path d="M986.045,617.3752 C976.318,643.9797 958.9525,694.9766 951,740 C931.9449,847.8816 931.055,979.3787 931.5866,1032.0467 " fill="none" id="stats-lout" style="stroke: #006400; stroke-width: 1.0;"/><polygon fill="#006400" points="931.6457,1037.19,935.5418,1028.1445,931.5881,1032.1903,927.5423,1028.2367,931.6457,1037.19" style="stroke: #006400; stroke-width: 1.0;"/><!--link best to lout--><path d="M1014.3613,792.5053 C999.0002,841.5562 956.4191,977.5255 939.2827,1032.2449 " fill="none" id="best-lout" style="stroke: #006400; stroke-width: 1.0;"/><polygon fill="#006400" points="937.7056,1037.281,944.2125,1029.8877,939.1999,1032.5095,936.5781,1027.4969,937.7056,1037.281" style="stroke: #006400; stroke-width: 1.0;"/><!--link kas to lout--><path d="M911.5203,449.5876 C896.574,466.219 878,492.349 878,519.5 C878,519.5 878,519.5 878,911.5 C878,956.6793 901.5923,1005.0462 917.5888,1032.6482 " fill="none" id="kas-lout" style="stroke: #0000FF; stroke-width: 1.0;"/><polygon fill="#0000FF" points="920.2828,1037.2256,919.1649,1027.4404,917.7466,1032.9166,912.2705,1031.4983,920.2828,1037.2256" style="stroke: #0000FF; stroke-width: 1.0;"/><!--link kas to best--><path d="M923.8286,454.7774 C919.6927,472.4112 915,497.3086 915,519.5 C915,519.5 915,519.5 915,678.5 C915,712.6132 945.561,737.86 973.7079,753.8782 " fill="none" id="kas-best" style="stroke: #006400; stroke-width: 1.0;"/><polygon fill="#006400" points="978.1995,756.3698,972.2696,748.5062,973.8271,753.9444,968.3889,755.502,978.1995,756.3698" style="stroke: #006400; stroke-width: 1.0;"/><polygon fill="#006400" points="925.0884,449.5491,919.0914,457.3617,923.9171,454.41,926.8688,459.2357,925.0884,449.5491" style="stroke: #006400; stroke-width: 1.0;"/><!--link kas to stats--><path d="M938.6488,454.4948 C950.6584,486.4252 972.2626,543.8649 984.2996,575.8681 " fill="none" id="kas-stats" style="stroke: #006400; stroke-width: 1.0;"/><polygon fill="#006400" points="986.1464,580.7782,986.7218,570.9462,984.3861,576.0983,979.234,573.7626,986.1464,580.7782" style="stroke: #006400; stroke-width: 1.0;"/><polygon fill="#006400" points="936.862,449.7443,936.2865,459.5763,938.6223,454.4242,943.7744,456.7599,936.862,449.7443" style="stroke: #006400; stroke-width: 1.0;"/><!--link stats to best--><path d="M996.5549,622.1065 C1001.724,655.7061 1011.2612,717.6981 1016.4357,751.3321 " fill="none" id="stats-best" style="stroke: #006400; stroke-width: 1.0;"/><polygon fill="#006400" points="1017.2274,756.478,1019.8121,746.9744,1016.467,751.5362,1011.9052,748.191,1017.2274,756.478" style="stroke: #006400; stroke-width: 1.0;"/><polygon fill="#006400" points="995.7878,617.1206,993.2031,626.6242,996.5482,622.0624,1001.11,625.4076,995.7878,617.1206" style="stroke: #006400; stroke-width: 1.0;"/><!--link pkat to pinf--><path d="M1690.2251,739.9349 C1714.8671,704.775 1752.3291,651.3231 1773.3253,621.3652 " fill="none" id="pkat-pinf" style="stroke: #FFA500; stroke-width: 1.0;"/><polygon fill="#FFA500" points="1776.3001,617.1206,1767.8591,622.195,1773.4304,621.2151,1774.4103,626.7865,1776.3001,617.1206" style="stroke: #FFA500; stroke-width: 1.0;"/><!--link pinf to pkat--><path d="M1780.5823,617.0294 C1775.9958,626.4379 1770.0351,638.0336 1764,648 C1745.1598,679.113 1719.9576,711.4891 1699.8287,735.6984 " fill="none" id="pinf-pkat" style="stroke: #FFA500; stroke-width: 1.0;"/><polygon fill="#FFA500" points="1696.3884,739.8162,1705.2285,735.4743,1699.5943,735.9792,1699.0893,730.3449,1696.3884,739.8162" style="stroke: #FFA500; stroke-width: 1.0;"/><!--link pinf to püb--><path d="M1762.8651,580.966 C1754.6772,575.3608 1744.9087,568.7102 1734.0637,561.3968 C1731.3524,559.5684 1728.5739,557.6986 1725.7359,555.7934 C1725.5586,555.6743 1725.3809,555.5551 1725.2031,555.4357 " fill="none" id="pinf-püb" style="stroke: #006400; stroke-width: 1.0;"/><polygon fill="#006400" points="1725.2031,555.4357,1730.447,563.7725,1729.3548,558.2221,1734.9052,557.1299,1725.2031,555.4357" style="stroke: #006400; stroke-width: 1.0;"/><!--link püb to merk--><path d="M1280.7886,503.6304 C1280.5702,503.8489 1280.3525,504.0683 1280.1354,504.2883 C1279.2672,505.1687 1278.4101,506.0614 1277.564,506.9654 C1270.7951,514.1974 1264.7309,522.1512 1259.3565,530.262 C1248.6077,546.4835 1240.6179,563.3325 1235.267,576.2892 " fill="none" id="püb-merk" style="stroke: #FFA500; stroke-width: 1.0;"/><polygon fill="#FFA500" points="1233.3912,580.9381,1240.4683,574.0887,1235.2622,576.3013,1233.0495,571.0952,1233.3912,580.9381" style="stroke: #FFA500; stroke-width: 1.0;"/><polygon fill="#FFA500" points="1280.7886,503.6304,1271.597,507.168,1277.2539,507.1667,1277.2551,512.8236,1280.7886,503.6304" style="stroke: #FFA500; stroke-width: 1.0;"/><!--link uadd to ver--><path d="M772.8467,1037.246 C783.7078,1010.2781 802,957.9617 802,911.5 C802,887 802,864.0313 802,842.498 C802,831.7314 802,821.3237 802,811.2629 C802,808.7477 802,806.2542 802,803.7822 " fill="none" id="uadd-ver" style="stroke: #0000FF; stroke-width: 1.0;"/><polygon fill="#0000FF" points="802,803.7822,798,812.7822,802,808.7822,806,812.7822,802,803.7822" style="stroke: #0000FF; stroke-width: 1.0;"/><!--link vuver to uver--><path d="M167.4025,413.2875 C168.1346,380.1589 169.6828,310.1015 170.4885,273.6436 " fill="none" id="vuver-uver" style="stroke: #006400; stroke-width: 1.0;"/><polygon fill="#006400" points="170.6018,268.5167,166.4037,277.426,170.4912,273.5155,174.4018,277.603,170.6018,268.5167" style="stroke: #006400; stroke-width: 1.0;"/><!--link uver to ver--><path d="M161.063,268.7153 C155.8087,281.074 152.0953,297.0881 161,308 C173.2618,323.0257 251.4977,334.1021 330.3001,344.6338 C369.7014,349.8997 409.2443,355.0294 440.7529,360.4486 C456.5072,363.1582 470.2529,365.9401 480.9681,368.8476 C486.3257,370.3014 490.9257,371.7865 494.6402,373.3097 C496.4975,374.0713 498.1334,374.8424 499.5321,375.6238 C500.2314,376.0145 500.8713,376.4079 501.45,376.8038 C501.7393,377.0018 502.0133,377.2005 502.2717,377.3999 C502.401,377.4995 502.5263,377.5994 502.6477,377.6994 " fill="none" id="uver-ver" style="stroke: #006400; stroke-width: 1.0;"/><polygon fill="#006400" points="502.6477,377.6994,498.2455,368.8891,498.7889,374.5198,493.1582,375.0631,502.6477,377.6994" style="stroke: #006400; stroke-width: 1.0;"/><!--link vgadd to gadd--><path d="M375.6137,413.4729 C369.8597,382.8413 358.1039,320.259 350.9514,282.1825 " fill="none" id="vgadd-gadd" style="stroke: #006400; stroke-width: 1.0;"/><polygon fill="#006400" points="350.0168,277.2072,347.7472,286.791,350.94,282.1212,355.6097,285.314,350.0168,277.2072" style="stroke: #006400; stroke-width: 1.0;"/><!--link gadd to ver--><path d="M340.7338,277.2863 C340.4522,287.6744 341.9662,299.1684 348,308 C369.3203,339.2064 395.3901,342.6953 422.47,345.3882 C436.0099,346.7346 449.8023,347.882 463.3798,352.1956 C470.1685,354.3524 476.9035,357.3007 483.5264,361.4612 C486.8378,363.5415 490.1212,365.9248 493.3692,368.6637 C494.9932,370.0332 496.6084,371.4916 498.2139,373.0454 C499.0166,373.8223 499.8169,374.6231 500.6146,375.4486 C501.0134,375.8614 501.4117,376.2803 501.8092,376.7055 C502.008,376.9181 502.2067,377.1323 502.4051,377.348 " fill="none" id="gadd-ver" style="stroke: #006400; stroke-width: 1.0;"/><polygon fill="#006400" points="502.4051,377.348,499.256,368.0162,499.0201,373.6681,493.3682,373.4322,502.4051,377.348" style="stroke: #006400; stroke-width: 1.0;"/><!--link gver to ver--><path d="M289.8988,1028.9531 C279.0002,1000.4483 264,953.5737 264,911.5 C264,887 264,864.0313 264,842.498 C264,831.7314 264,821.3237 264,811.2629 C264,808.7477 264,806.2542 264,803.7822 " fill="none" id="gver-ver" style="stroke: #0000FF; stroke-width: 1.0;"/><polygon fill="#0000FF" points="264,803.7822,260,812.7822,264,808.7822,268,812.7822,264,803.7822" style="stroke: #0000FF; stroke-width: 1.0;"/><!--link vbnn to bnn--><path d="M797.2339,404.9781 C787.6808,372.3531 771.4793,317.0237 761.2801,282.1923 " fill="none" id="vbnn-bnn" style="stroke: #006400; stroke-width: 1.0;"/><polygon fill="#006400" points="759.8203,277.2072,758.5107,286.9686,761.2254,282.0057,766.1883,284.7204,759.8203,277.2072" style="stroke: #006400; stroke-width: 1.0;"/><!--link bnn to ver--><path d="M698.593,277.0104 C670.842,291.2465 636.5106,309.5813 606.3336,327.8134 C591.2451,336.9295 577.1951,346.0198 565.5256,354.5593 C559.6908,358.8291 554.4511,362.9611 549.9743,366.8897 C547.7359,368.8541 545.6882,370.7676 543.8521,372.622 C542.9341,373.5492 542.069,374.4617 541.2594,375.3584 C540.8547,375.8067 540.4638,376.2511 540.0871,376.6914 C539.8987,376.9116 539.714,377.1307 539.5328,377.3488 C539.4422,377.4579 539.3525,377.5667 539.2637,377.6752 " fill="none" id="bnn-ver" style="stroke: #006400; stroke-width: 1.0;"/><polygon fill="#006400" points="539.2637,377.6752,548.0585,373.2423,542.4298,373.8053,541.8668,368.1766,539.2637,377.6752" style="stroke: #006400; stroke-width: 1.0;"/><!--link vpadd to padd--><path d="M625.1825,404.9781 C613.1059,372.3531 592.6248,317.0237 579.7314,282.1923 " fill="none" id="vpadd-padd" style="stroke: #006400; stroke-width: 1.0;"/><polygon fill="#006400" points="577.8861,277.2072,577.2594,287.0361,579.622,281.8962,584.7619,284.2587,577.8861,277.2072" style="stroke: #006400; stroke-width: 1.0;"/><!--link padd to ver--><path d="M561.065,277.2072 C554.8345,301.2013 545.4432,337.3677 537.3188,368.6554 C536.811,370.6109 536.3082,372.5473 535.8114,374.4605 C535.563,375.4171 535.3161,376.3679 535.0708,377.3124 " fill="none" id="padd-ver" style="stroke: #006400; stroke-width: 1.0;"/><polygon fill="#006400" points="535.0708,377.3124,541.2044,369.6066,536.3275,372.4729,533.4612,367.5959,535.0708,377.3124" style="stroke: #006400; stroke-width: 1.0;"/><!--link kas to ver--><path d="M915.8669,409.0739 C903.4288,391.6252 883.5717,368.7174 859.5,358.5 C828.5094,345.3459 587.2448,344.7813 556.5,358.5 C548.7782,361.9456 542.7259,367.786 537.9847,374.7095 C537.3921,375.5749 536.8199,376.4573 536.2676,377.354 C536.1985,377.4661 536.1298,377.5784 536.0613,377.6909 " fill="none" id="kas-ver" style="stroke: #0000FF; stroke-width: 1.0;"/><polygon fill="#0000FF" points="536.0613,377.6909,544.1552,372.0793,538.6592,373.4188,537.3197,367.9228,536.0613,377.6909" style="stroke: #0000FF; stroke-width: 1.0;"/><polygon fill="#0000FF" points="918.8674,413.3813,917.0056,403.71,916.0096,409.2785,910.4411,408.2825,918.8674,413.3813" style="stroke: #0000FF; stroke-width: 1.0;"/><!--
@startuml

skinparam componentStyle uml2
skinparam componentStyle uml2

skinparam rectangle {
    fontStyle bold
	BackgroundColor #GreenYellow/LightGoldenRodYellow

}

skinparam component {
    fontStyle bold
	BackgroundColor #GreenYellow/LightGoldenRodYellow
    BorderColor darkgreen
}

skinparam Arrow {
    Color darkgreen
}
skinparam Actor{
    BorderColor black
    BackgroundColor white
}
:Manager: as m
:Verkäufer: as v
:Kunde: as k
m -[#black]-|> v
v -[#black]-|> k
package "BioLaden"{


    rectangle Startseite
    rectangle Produktübersicht as püb{
        rectangle "Name, \nKategorie, \nPreis" as pkat
        rectangle "Label drucken" as plab
        rectangle "zur Merkliste \nhinzufügen" as addmerk
        rectangle "Lager, \nzum Shop hinzufügen," as shop
    }
    rectangle Merkliste as merk
    rectangle Produktinfo as pinf
    rectangle Login as log
    rectangle "Startseite Login" as stlog
    rectangle Verwaltung as ver{
        rectangle "User hinzufügen" as vuadd
        rectangle "User verwalten" as vuver
        rectangle "Großhändler hinzufügen" as vgadd
        rectangle "Großhändler verwalten" as vgver
        rectangle "BNN Listen \nimportieren" as vbnn
        rectangle "Produkte manuell \nhinzufügen" as vpadd
    }
    rectangle "User hinzufügen" as uadd
    rectangle "Großhändler \nhinzufügen" as gadd
    rectangle "User verwalten" as uver
    rectangle "Großhändler \nverwalten" as gver
    rectangle "BNN Listen \nimportieren" as bnn
    rectangle "Produkte manuell \nhinzufügen" as padd
    rectangle Kasse as kas
    rectangle Bestellung as best
    rectangle Statistik as stats
    rectangle Logout as lout


    m - -> Startseite
    v -[#blue]-> Startseite
    k -[#orange]-> Startseite
    Startseite <-[#orange]-> püb
    püb -[#orange]->pkat
    püb <-[#orange]-> addmerk
    püb <-[#orange]-> log
    log -[#blue]-> stlog: Login erfolgreich
    log -[#orange]-> log: Login \nfehlgeschlagen
    stlog - -> lout
    stlog <- -> püb
    püb <-[#blue]-> plab
    püb <-[#blue]-> pkat
    stlog <- -> stats
    stlog <- -> best
    stlog <-[#blue]-> kas
    stlog <- -> ver
    stlog <-[#blue]-> ver
    ver <-[#blue]-> vgver
    ver <-[#blue]-> vuadd
    vuadd -[#blue]-> uadd : nur Hauskunden
    vgver -[#blue]-> gver : nur Name und Ort einsehen
    lout -[#blue]-> Startseite
    püb - -> lout
    püb <-[#blue]-> kas
    püb <- -> stats
    ver <-[#blue]-> püb
    ver -[#blue]-> lout
    püb <- -> best
    stats - -> lout
    best - -> lout
    kas -[#blue]-> lout
    kas <- -> best
    kas <- -> stats
    stats <- -> best
    pkat -[#orange]-> pinf
    pinf - -> püb
    pinf -[#orange]-> pkat
    püb <-[#orange]-> merk
    vuadd - -> uadd
    uadd -[#blue]-> ver
    vuver - -> uver
    uver - -> ver
    vgadd - -> gadd
    gadd - -> ver
    vgver - -> gver
    gver -[#blue]-> ver
    vbnn - -> bnn
    bnn  - -> ver
    vpadd - -> padd
    padd - -> ver
    kas <-[#blue]-> ver

}




@enduml

PlantUML version 1.2018.12(Sun Oct 21 12:15:15 CEST 2018)
(GPL source distribution)
Java Runtime: OpenJDK Runtime Environment
JVM: OpenJDK 64-Bit Server VM
Java Version: 1.8.0_162-8u162-b12-1-b12
Operating System: Linux
OS Version: 4.15.0-20-generic
Default Encoding: UTF-8
Language: de
Country: DE
--></g></svg>