<?xml version="1.0" encoding="UTF-8" standalone="no"?><svg xmlns="http://www.w3.org/2000/svg" xmlns:xlink="http://www.w3.org/1999/xlink" contentScriptType="application/ecmascript" contentStyleType="text/css" height="1358px" preserveAspectRatio="none" style="width:1888px;height:1358px;" version="1.1" viewBox="0 0 1888 1358" width="1888px" zoomAndPan="magnify"><defs><filter height="300%" id="f2frzai7evez8" width="300%" x="-1" y="-1"><feGaussianBlur result="blurOut" stdDeviation="2.0"/><feColorMatrix in="blurOut" result="blurOut2" type="matrix" values="0 0 0 0 0 0 0 0 0 0 0 0 0 0 0 0 0 0 .4 0"/><feOffset dx="4.0" dy="4.0" in="blurOut2" result="blurOut3"/><feBlend in="SourceGraphic" in2="blurOut3" mode="normal"/></filter><linearGradient id="g2frzai7evez80" x1="0%" x2="100%" y1="0%" y2="100%"><stop offset="0%" stop-color="#ADFF2F"/><stop offset="100%" stop-color="#FAFAD2"/></linearGradient></defs><g><!--cluster BioLaden--><polygon fill="#FFFFFF" filter="url(#f2frzai7evez8)" points="80,16,158,16,165,38.2969,1866,38.2969,1866,1346,80,1346,80,16" style="stroke: #000000; stroke-width: 1.5;"/><line style="stroke: #000000; stroke-width: 1.5;" x1="80" x2="165" y1="38.2969" y2="38.2969"/><text fill="#000000" font-family="sans-serif" font-size="14" font-weight="bold" lengthAdjust="spacingAndGlyphs" textLength="72" x="84" y="30.9951">BioLaden</text><!--cluster püb--><rect fill="url(#g2frzai7evez80)" filter="url(#f2frzai7evez8)" height="439" style="stroke: #000000; stroke-width: 1.5;" width="436" x="1267" y="378"/><text fill="#000000" font-family="sans-serif" font-size="14" font-weight="bold" lengthAdjust="spacingAndGlyphs" textLength="135" x="1417.5" y="392.9951">Produktübersicht</text><!--cluster ver--><rect fill="url(#g2frzai7evez80)" filter="url(#f2frzai7evez8)" height="422.5" style="stroke: #000000; stroke-width: 1.5;" width="767" x="88" y="378"/><text fill="#000000" font-family="sans-serif" font-size="14" font-weight="bold" lengthAdjust="spacingAndGlyphs" textLength="87" x="428" y="392.9951">Verwaltung</text><!--entity Startseite--><rect fill="url(#g2frzai7evez80)" filter="url(#f2frzai7evez8)" height="36.2969" style="stroke: #000000; stroke-width: 1.5;" width="96" x="133" y="1302"/><text fill="#000000" font-family="sans-serif" font-size="14" font-weight="bold" lengthAdjust="spacingAndGlyphs" textLength="76" x="143" y="1324.9951">Startseite</text><!--entity merk--><rect fill="url(#g2frzai7evez80)" filter="url(#f2frzai7evez8)" height="36.2969" style="stroke: #000000; stroke-width: 1.5;" width="91" x="1167.5" y="581"/><text fill="#000000" font-family="sans-serif" font-size="14" font-weight="bold" lengthAdjust="spacingAndGlyphs" textLength="71" x="1177.5" y="603.9951">Merkliste</text><!--entity pinf--><rect fill="url(#g2frzai7evez80)" filter="url(#f2frzai7evez8)" height="36.2969" style="stroke: #000000; stroke-width: 1.5;" width="110" x="1711" y="581"/><text fill="#000000" font-family="sans-serif" font-size="14" font-weight="bold" lengthAdjust="spacingAndGlyphs" textLength="90" x="1721" y="603.9951">Produktinfo</text><!--entity log--><rect fill="url(#g2frzai7evez80)" filter="url(#f2frzai7evez8)" height="36.2969" style="stroke: #000000; stroke-width: 1.5;" width="62" x="1245" y="46"/><text fill="#000000" font-family="sans-serif" font-size="14" font-weight="bold" lengthAdjust="spacingAndGlyphs" textLength="42" x="1255" y="68.9951">Login</text><!--entity stlog--><rect fill="url(#g2frzai7evez80)" filter="url(#f2frzai7evez8)" height="36.2969" style="stroke: #000000; stroke-width: 1.5;" width="142" x="915" y="232.5"/><text fill="#000000" font-family="sans-serif" font-size="14" font-weight="bold" lengthAdjust="spacingAndGlyphs" textLength="122" x="925" y="255.4951">Startseite Login</text><!--entity uadd--><rect fill="url(#g2frzai7evez80)" filter="url(#f2frzai7evez8)" height="36.2969" style="stroke: #000000; stroke-width: 1.5;" width="148" x="679" y="1037.5"/><text fill="#000000" font-family="sans-serif" font-size="14" font-weight="bold" lengthAdjust="spacingAndGlyphs" textLength="128" x="689" y="1060.4951">User hinzufügen</text><!--entity gadd--><rect fill="url(#g2frzai7evez80)" filter="url(#f2frzai7evez8)" height="52.5938" style="stroke: #000000; stroke-width: 1.5;" width="117" x="278.5" y="224"/><text fill="#000000" font-family="sans-serif" font-size="14" font-weight="bold" lengthAdjust="spacingAndGlyphs" textLength="97" x="288.5" y="246.9951">Großhändler</text><text fill="#000000" font-family="sans-serif" font-size="14" font-weight="bold" lengthAdjust="spacingAndGlyphs" textLength="88" x="288.5" y="263.292">hinzufügen</text><!--entity uver--><rect fill="url(#g2frzai7evez80)" filter="url(#f2frzai7evez8)" height="36.2969" style="stroke: #000000; stroke-width: 1.5;" width="135" x="100.5" y="232.5"/><text fill="#000000" font-family="sans-serif" font-size="14" font-weight="bold" lengthAdjust="spacingAndGlyphs" textLength="115" x="110.5" y="255.4951">User verwalten</text><!--entity gver--><rect fill="url(#g2frzai7evez80)" filter="url(#f2frzai7evez8)" height="52.5938" style="stroke: #000000; stroke-width: 1.5;" width="117" x="234.5" y="1029"/><text fill="#000000" font-family="sans-serif" font-size="14" font-weight="bold" lengthAdjust="spacingAndGlyphs" textLength="97" x="244.5" y="1051.9951">Großhändler</text><text fill="#000000" font-family="sans-serif" font-size="14" font-weight="bold" lengthAdjust="spacingAndGlyphs" textLength="75" x="244.5" y="1068.292">verwalten</text><!--entity bnn--><rect fill="url(#g2frzai7evez80)" filter="url(#f2frzai7evez8)" height="52.5938" style="stroke: #000000; stroke-width: 1.5;" width="110" x="684" y="224"/><text fill="#000000" font-family="sans-serif" font-size="14" font-weight="bold" lengthAdjust="spacingAndGlyphs" textLength="84" x="694" y="246.9951">BNN Listen</text><text fill="#000000" font-family="sans-serif" font-size="14" font-weight="bold" lengthAdjust="spacingAndGlyphs" textLength="90" x="694" y="263.292">importieren</text><!--entity padd--><rect fill="url(#g2frzai7evez80)" filter="url(#f2frzai7evez8)" height="52.5938" style="stroke: #000000; stroke-width: 1.5;" width="156" x="479" y="224"/><text fill="#000000" font-family="sans-serif" font-size="14" font-weight="bold" lengthAdjust="spacingAndGlyphs" textLength="136" x="489" y="246.9951">Produkte manuell</text><text fill="#000000" font-family="sans-serif" font-size="14" font-weight="bold" lengthAdjust="spacingAndGlyphs" textLength="88" x="489" y="263.292">hinzufügen</text><!--entity kas--><rect fill="url(#g2frzai7evez80)" filter="url(#f2frzai7evez8)" height="36.2969" style="stroke: #000000; stroke-width: 1.5;" width="67" x="882.5" y="413.5"/><text fill="#000000" font-family="sans-serif" font-size="14" font-weight="bold" lengthAdjust="spacingAndGlyphs" textLength="47" x="892.5" y="436.4951">Kasse</text><!--entity best--><rect fill="url(#g2frzai7evez80)" filter="url(#f2frzai7evez8)" height="36.2969" style="stroke: #000000; stroke-width: 1.5;" width="104" x="954" y="756.5"/><text fill="#000000" font-family="sans-serif" font-size="14" font-weight="bold" lengthAdjust="spacingAndGlyphs" textLength="84" x="964" y="779.4951">Bestellung</text><!--entity stats--><rect fill="url(#g2frzai7evez80)" filter="url(#f2frzai7evez8)" height="36.2969" style="stroke: #000000; stroke-width: 1.5;" width="83" x="937.5" y="581"/><text fill="#000000" font-family="sans-serif" font-size="14" font-weight="bold" lengthAdjust="spacingAndGlyphs" textLength="63" x="947.5" y="603.9951">Statistik</text><!--entity lout--><rect fill="url(#g2frzai7evez80)" filter="url(#f2frzai7evez8)" height="36.2969" style="stroke: #000000; stroke-width: 1.5;" width="74" x="881" y="1037.5"/><text fill="#000000" font-family="sans-serif" font-size="14" font-weight="bold" lengthAdjust="spacingAndGlyphs" textLength="54" x="891" y="1060.4951">Logout</text><!--entity pkat--><rect fill="url(#g2frzai7evez80)" filter="url(#f2frzai7evez8)" height="68.8906" style="stroke: #000000; stroke-width: 1.5;" width="100" x="1595" y="740"/><text fill="#000000" font-family="sans-serif" font-size="14" font-weight="bold" lengthAdjust="spacingAndGlyphs" textLength="49" x="1605" y="762.9951">Name,</text><text fill="#000000" font-family="sans-serif" font-size="14" font-weight="bold" lengthAdjust="spacingAndGlyphs" textLength="80" x="1605" y="779.292">Kategorie,</text><text fill="#000000" font-family="sans-serif" font-size="14" font-weight="bold" lengthAdjust="spacingAndGlyphs" textLength="39" x="1605" y="795.5889">Preis</text><!--entity plab--><rect fill="url(#g2frzai7evez80)" filter="url(#f2frzai7evez8)" height="36.2969" style="stroke: #000000; stroke-width: 1.5;" width="129" x="1275.5" y="756.5"/><text fill="#000000" font-family="sans-serif" font-size="14" font-weight="bold" lengthAdjust="spacingAndGlyphs" textLength="109" x="1285.5" y="779.4951">Label drucken</text><!--entity addmerk--><rect fill="url(#g2frzai7evez80)" filter="url(#f2frzai7evez8)" height="52.5938" style="stroke: #000000; stroke-width: 1.5;" width="120" x="1440" y="748"/><text fill="#000000" font-family="sans-serif" font-size="14" font-weight="bold" lengthAdjust="spacingAndGlyphs" textLength="100" x="1450" y="770.9951">zur Merkliste</text><text fill="#000000" font-family="sans-serif" font-size="14" font-weight="bold" lengthAdjust="spacingAndGlyphs" textLength="88" x="1450" y="787.292">hinzufügen</text><!--entity shop--><rect fill="url(#g2frzai7evez80)" filter="url(#f2frzai7evez8)" height="52.5938" style="stroke: #000000; stroke-width: 1.5;" width="194" x="1275" y="405"/><text fill="#000000" font-family="sans-serif" font-size="14" font-weight="bold" lengthAdjust="spacingAndGlyphs" textLength="48" x="1285" y="427.9951">Lager,</text><text fill="#000000" font-family="sans-serif" font-size="14" font-weight="bold" lengthAdjust="spacingAndGlyphs" textLength="174" x="1285" y="444.292">zum Shop hinzufügen,</text><!--entity vuadd--><rect fill="url(#g2frzai7evez80)" filter="url(#f2frzai7evez8)" height="36.2969" style="stroke: #000000; stroke-width: 1.5;" width="148" x="536" y="756.5"/><text fill="#000000" font-family="sans-serif" font-size="14" font-weight="bold" lengthAdjust="spacingAndGlyphs" textLength="128" x="546" y="779.4951">User hinzufügen</text><!--entity vuver--><rect fill="url(#g2frzai7evez80)" filter="url(#f2frzai7evez8)" height="36.2969" style="stroke: #000000; stroke-width: 1.5;" width="135" x="96.5" y="413.5"/><text fill="#000000" font-family="sans-serif" font-size="14" font-weight="bold" lengthAdjust="spacingAndGlyphs" textLength="115" x="106.5" y="436.4951">User verwalten</text><!--entity vgadd--><rect fill="url(#g2frzai7evez80)" filter="url(#f2frzai7evez8)" height="36.2969" style="stroke: #000000; stroke-width: 1.5;" width="209" x="266.5" y="413.5"/><text fill="#000000" font-family="sans-serif" font-size="14" font-weight="bold" lengthAdjust="spacingAndGlyphs" textLength="189" x="276.5" y="436.4951">Großhändler hinzufügen</text><!--entity vgver--><rect fill="url(#g2frzai7evez80)" filter="url(#f2frzai7evez8)" height="36.2969" style="stroke: #000000; stroke-width: 1.5;" width="196" x="288" y="756.5"/><text fill="#000000" font-family="sans-serif" font-size="14" font-weight="bold" lengthAdjust="spacingAndGlyphs" textLength="176" x="298" y="779.4951">Großhändler verwalten</text><!--entity vbnn--><rect fill="url(#g2frzai7evez80)" filter="url(#f2frzai7evez8)" height="52.5938" style="stroke: #000000; stroke-width: 1.5;" width="110" x="737" y="405"/><text fill="#000000" font-family="sans-serif" font-size="14" font-weight="bold" lengthAdjust="spacingAndGlyphs" textLength="84" x="747" y="427.9951">BNN Listen</text><text fill="#000000" font-family="sans-serif" font-size="14" font-weight="bold" lengthAdjust="spacingAndGlyphs" textLength="90" x="747" y="444.292">importieren</text><!--entity vpadd--><rect fill="url(#g2frzai7evez80)" filter="url(#f2frzai7evez8)" height="52.5938" style="stroke: #000000; stroke-width: 1.5;" width="156" x="546" y="405"/><text fill="#000000" font-family="sans-serif" font-size="14" font-weight="bold" lengthAdjust="spacingAndGlyphs" textLength="136" x="556" y="427.9951">Produkte manuell</text><text fill="#000000" font-family="sans-serif" font-size="14" font-weight="bold" lengthAdjust="spacingAndGlyphs" textLength="88" x="556" y="444.292">hinzufügen</text><!--entity m--><ellipse cx="41" cy="880" fill="#FFFFFF" filter="url(#f2frzai7evez8)" rx="8" ry="8" style="stroke: #000000; stroke-width: 2.0;"/><path d="M41,888 L41,915 M28,896 L54,896 M41,915 L28,930 M41,915 L54,930 " fill="none" filter="url(#f2frzai7evez8)" style="stroke: #000000; stroke-width: 2.0;"/><text fill="#000000" font-family="sans-serif" font-size="14" lengthAdjust="spacingAndGlyphs" textLength="60" x="11" y="949.9951">Manager</text><!--entity v--><ellipse cx="39" cy="1024" fill="#FFFFFF" filter="url(#f2frzai7evez8)" rx="8" ry="8" style="stroke: #000000; stroke-width: 2.0;"/><path d="M39,1032 L39,1059 M26,1040 L52,1040 M39,1059 L26,1074 M39,1059 L52,1074 " fill="none" filter="url(#f2frzai7evez8)" style="stroke: #000000; stroke-width: 2.0;"/><text fill="#000000" font-family="sans-serif" font-size="14" lengthAdjust="spacingAndGlyphs" textLength="66" x="6" y="1093.9951">Verkäufer</text><!--entity k--><ellipse cx="34" cy="1168" fill="#FFFFFF" filter="url(#f2frzai7evez8)" rx="8" ry="8" style="stroke: #000000; stroke-width: 2.0;"/><path d="M34,1176 L34,1203 M21,1184 L47,1184 M34,1203 L21,1218 M34,1203 L47,1218 " fill="none" filter="url(#f2frzai7evez8)" style="stroke: #000000; stroke-width: 2.0;"/><text fill="#000000" font-family="sans-serif" font-size="14" lengthAdjust="spacingAndGlyphs" textLength="45" x="11.5" y="1237.9951">Kunde</text><!--link m to v--><path d="M41,953.1508 C41,953.1508 41,993.9428 41,993.9428 " fill="none" id="m-v" style="stroke: #000000; stroke-width: 1.0;"/><polygon fill="none" points="48.0001,993.9429,41,1013.9428,34.0001,993.9428,48.0001,993.9429" style="stroke: #000000; stroke-width: 1.0;"/><!--link v to k--><path d="M34,1097.1508 C34,1097.1508 34,1137.9428 34,1137.9428 " fill="none" id="v-k" style="stroke: #000000; stroke-width: 1.0;"/><polygon fill="none" points="41.0001,1137.9429,34,1157.9428,27.0001,1137.9428,41.0001,1137.9429" style="stroke: #000000; stroke-width: 1.0;"/><!--link m to Startseite--><path d="M71.0169,912 C107.7151,912 165,912 165,912 C165,912 165,1296.9423 165,1296.9423 " fill="none" id="m-Startseite" style="stroke: #006400; stroke-width: 1.0;"/><polygon fill="#006400" points="165,1301.9423,169,1292.9423,165,1296.9423,161,1292.9423,165,1301.9423" style="stroke: #006400; stroke-width: 1.0;"/><!--link v to Startseite--><path d="M64.25,1097.0325 C64.25,1170.1045 64.25,1314 64.25,1314 C64.25,1314 127.8393,1314 127.8393,1314 " fill="none" id="v-Startseite" style="stroke: #0000FF; stroke-width: 1.0;"/><polygon fill="#0000FF" points="132.8393,1314,123.8393,1310,127.8393,1314,123.8393,1318,132.8393,1314" style="stroke: #0000FF; stroke-width: 1.0;"/><!--link k to Startseite--><path d="M34,1241.2714 C34,1278.1181 34,1326 34,1326 C34,1326 127.8667,1326 127.8667,1326 " fill="none" id="k-Startseite" style="stroke: #FFA500; stroke-width: 1.0;"/><polygon fill="#FFA500" points="132.8667,1326,123.8667,1322,127.8667,1326,123.8667,1330,132.8667,1326" style="stroke: #FFA500; stroke-width: 1.0;"/><!--link Startseite to püb--><path d="M197,1296.8487 C197,1296.8487 197,679 197,679 C197,679 521.8,679 846.6,679 C927.8,679 1009,679 1085.125,679 C1123.1875,679 1159.9813,679 1194.8719,679 C1212.3172,679 1229.2867,679 1245.7012,679 C1249.8048,679 1253.8737,679 1257.9067,679 C1259.9232,679 1261.9307,679 1263.9291,679 " fill="none" id="Startseite-püb" style="stroke: #FFA500; stroke-width: 1.0;"/><polygon fill="#FFA500" points="1263.9291,679,1254.9291,675,1258.9291,679,1254.9291,683,1263.9291,679" style="stroke: #FFA500; stroke-width: 1.0;"/><polygon fill="#FFA500" points="197,1301.8487,201,1292.8487,197,1296.8487,193,1292.8487,197,1301.8487" style="stroke: #FFA500; stroke-width: 1.0;"/><!--link püb to pkat--><path d="M1504.5,431.3484 C1504.5,429.8652 1504.5,418 1504.5,418 C1504.5,418 1620,418 1620,418 C1620,418 1620,734.9934 1620,734.9934 " fill="none" id="püb-pkat" style="stroke: #FFA500; stroke-width: 1.0;"/><polygon fill="#FFA500" points="1620,739.9934,1624,730.9934,1620,734.9934,1616,730.9934,1620,739.9934" style="stroke: #FFA500; stroke-width: 1.0;"/><!--link püb to pkat--><path d="M1504,432.0069 C1504,445.9768 1504,744 1504,744 C1504,744 1589.8917,744 1589.8917,744 " fill="none" id="püb-pkat" style="stroke: #0000FF; stroke-width: 1.0;"/><polygon fill="#0000FF" points="1594.8917,744,1585.8917,740,1589.8917,744,1585.8917,748,1594.8917,744" style="stroke: #0000FF; stroke-width: 1.0;"/><polygon fill="#0000FF" points="1504,432.0069,1500,441.0069,1504,437.0069,1508,441.0069,1504,432.0069" style="stroke: #0000FF; stroke-width: 1.0;"/><!--link püb to addmerk--><path d="M1504.1081,433 C1506.3174,433 1541.6667,433 1541.6667,433 C1541.6667,433 1541.6667,742.9872 1541.6667,742.9872 " fill="none" id="püb-addmerk" style="stroke: #FFA500; stroke-width: 1.0;"/><polygon fill="#FFA500" points="1541.6667,747.9872,1545.6667,738.9872,1541.6667,742.9872,1537.6667,738.9872,1541.6667,747.9872" style="stroke: #FFA500; stroke-width: 1.0;"/><polygon fill="#FFA500" points="1504.1081,433,1513.1081,437,1509.1081,433,1513.1081,429,1504.1081,433" style="stroke: #FFA500; stroke-width: 1.0;"/><!--link püb to log--><path d="M1503.5,376.4443 C1503.5,375.9185 1503.5,375.3898 1503.5,374.8584 C1503.5,373.7956 1503.5,372.7216 1503.5,371.6369 C1503.5,336.925 1503.5,291.1725 1503.5,245.5967 C1503.5,154.4451 1503.5,64 1503.5,64 C1503.5,64 1312.1559,64 1312.1559,64 " fill="none" id="püb-log" style="stroke: #FFA500; stroke-width: 1.0;"/><polygon fill="#FFA500" points="1307.1559,64,1316.1559,68,1312.1559,64,1316.1559,60,1307.1559,64" style="stroke: #FFA500; stroke-width: 1.0;"/><polygon fill="#FFA500" points="1503.5,376.4443,1507.5,367.4443,1503.5,371.4443,1499.5,367.4443,1503.5,376.4443" style="stroke: #FFA500; stroke-width: 1.0;"/><!--link log to stlog--><path d="M1249.5,82.0167 C1249.5,127.7985 1249.5,245 1249.5,245 C1249.5,245 1062.3069,245 1062.3069,245 " fill="none" id="log-stlog" style="stroke: #0000FF; stroke-width: 1.0;"/><polygon fill="#0000FF" points="1057.3069,245,1066.3069,249,1062.3069,245,1066.3069,241,1057.3069,245" style="stroke: #0000FF; stroke-width: 1.0;"/><text fill="#000000" font-family="sans-serif" font-size="13" lengthAdjust="spacingAndGlyphs" textLength="105" x="1132" y="159.0669">Login erfolgreich</text><!--link log to log--><path d="M1276,45.8568 C1276,39.5389 1276,34 1276,34 C1276,34 1206.25,34 1206.25,34 C1206.25,34 1206.25,153 1206.25,153 C1206.25,153 1254,153 1254,153 C1254,153 1254,87.0105 1254,87.0105 " fill="none" id="log-log" style="stroke: #FFA500; stroke-width: 1.0;"/><polygon fill="#FFA500" points="1254,82.0105,1250,91.0105,1254,87.0105,1258,91.0105,1254,82.0105" style="stroke: #FFA500; stroke-width: 1.0;"/><!--link stlog to lout--><path d="M967.25,268.5593 C967.25,318.3633 967.25,454 967.25,454 C967.25,454 915.5,454 915.5,454 C915.5,454 915.5,1032.4983 915.5,1032.4983 " fill="none" id="stlog-lout" style="stroke: #006400; stroke-width: 1.0;"/><polygon fill="#006400" points="915.5,1037.4983,919.5,1028.4983,915.5,1032.4983,911.5,1028.4983,915.5,1037.4983" style="stroke: #006400; stroke-width: 1.0;"/><!--link stlog to püb--><path d="M1062.0764,257 C1062.0764,257 1523.3333,257 1523.3333,257 C1523.3333,257 1523.3333,300.5 1523.3333,344 C1523.3333,354.875 1523.3333,365.75 1523.3333,375.9453 C1523.3333,376.5825 1523.3333,377.2171 1523.3333,377.8488 " fill="none" id="stlog-püb" style="stroke: #006400; stroke-width: 1.0;"/><polygon fill="#006400" points="1523.3333,377.8488,1527.3333,368.8488,1523.3333,372.8488,1519.3333,368.8488,1523.3333,377.8488" style="stroke: #006400; stroke-width: 1.0;"/><polygon fill="#006400" points="1057.0764,257,1066.0764,261,1062.0764,257,1066.0764,253,1057.0764,257" style="stroke: #006400; stroke-width: 1.0;"/><!--link püb to plab--><path d="M1503.9386,432 C1502.6834,432 1482.6,432 1482.6,432 C1482.6,432 1482.6,529 1482.6,529 C1482.6,529 1340,529 1340,529 C1340,529 1340,751.4478 1340,751.4478 " fill="none" id="püb-plab" style="stroke: #0000FF; stroke-width: 1.0;"/><polygon fill="#0000FF" points="1340,756.4478,1344,747.4478,1340,751.4478,1336,747.4478,1340,756.4478" style="stroke: #0000FF; stroke-width: 1.0;"/><polygon fill="#0000FF" points="1503.9386,432,1494.9386,428,1498.9386,432,1494.9386,436,1503.9386,432" style="stroke: #0000FF; stroke-width: 1.0;"/><!--link stlog to stats--><path d="M985,273.7462 C985,273.7462 985,575.9344 985,575.9344 " fill="none" id="stlog-stats" style="stroke: #006400; stroke-width: 1.0;"/><polygon fill="#006400" points="985,580.9344,989,571.9344,985,575.9344,981,571.9344,985,580.9344" style="stroke: #006400; stroke-width: 1.0;"/><polygon fill="#006400" points="985,268.7462,981,277.7462,985,273.7462,989,277.7462,985,268.7462" style="stroke: #006400; stroke-width: 1.0;"/><!--link stlog to best--><path d="M1032.6667,273.5373 C1032.6667,273.5373 1032.6667,751.2683 1032.6667,751.2683 " fill="none" id="stlog-best" style="stroke: #006400; stroke-width: 1.0;"/><polygon fill="#006400" points="1032.6667,756.2683,1036.6667,747.2683,1032.6667,751.2683,1028.6667,747.2683,1032.6667,756.2683" style="stroke: #006400; stroke-width: 1.0;"/><polygon fill="#006400" points="1032.6667,268.5373,1028.6667,277.5373,1032.6667,273.5373,1036.6667,277.5373,1032.6667,268.5373" style="stroke: #006400; stroke-width: 1.0;"/><!--link stlog to kas--><path d="M940.875,273.5167 C940.875,273.5167 940.875,408.2875 940.875,408.2875 " fill="none" id="stlog-kas" style="stroke: #0000FF; stroke-width: 1.0;"/><polygon fill="#0000FF" points="940.875,413.2875,944.875,404.2875,940.875,408.2875,936.875,404.2875,940.875,413.2875" style="stroke: #0000FF; stroke-width: 1.0;"/><polygon fill="#0000FF" points="940.875,268.5167,936.875,277.5167,940.875,273.5167,944.875,277.5167,940.875,268.5167" style="stroke: #0000FF; stroke-width: 1.0;"/><!--link stlog to ver--><path d="M923.625,273.5596 C923.625,273.5596 923.625,299 923.625,299 C923.625,299 504.8,299 504.8,299 C504.8,299 504.8,332.25 504.8,365.5 C504.8,369.6563 504.8,373.8125 504.8,377.9038 " fill="none" id="stlog-ver" style="stroke: #006400; stroke-width: 1.0;"/><polygon fill="#006400" points="504.8,377.9038,508.8,368.9038,504.8,372.9038,500.8,368.9038,504.8,377.9038" style="stroke: #006400; stroke-width: 1.0;"/><polygon fill="#006400" points="923.625,268.5596,919.625,277.5596,923.625,273.5596,927.625,277.5596,923.625,268.5596" style="stroke: #006400; stroke-width: 1.0;"/><!--link stlog to ver--><path d="M932.25,273.7603 C932.25,273.7603 932.25,320 932.25,320 C932.25,320 539.3333,320 539.3333,320 C539.3333,320 539.3333,348 539.3333,376 C539.3333,376.4375 539.3333,376.875 539.3333,377.3124 C539.3333,377.5311 539.3333,377.7498 539.3333,377.9684 " fill="none" id="stlog-ver" style="stroke: #0000FF; stroke-width: 1.0;"/><polygon fill="#0000FF" points="539.3333,377.9684,543.3333,368.9684,539.3333,372.9684,535.3333,368.9684,539.3333,377.9684" style="stroke: #0000FF; stroke-width: 1.0;"/><polygon fill="#0000FF" points="932.25,268.7603,928.25,277.7603,932.25,273.7603,936.25,277.7603,932.25,268.7603" style="stroke: #0000FF; stroke-width: 1.0;"/><!--link ver to vgver--><path d="M510.5,431.5626 C510.5,436.8462 510.5,775 510.5,775 C510.5,775 489.0968,775 489.0968,775 " fill="none" id="ver-vgver" style="stroke: #0000FF; stroke-width: 1.0;"/><polygon fill="#0000FF" points="484.0968,775,493.0968,779,489.0968,775,493.0968,771,484.0968,775" style="stroke: #0000FF; stroke-width: 1.0;"/><polygon fill="#0000FF" points="510.5,431.5626,506.5,440.5626,510.5,436.5626,514.5,440.5626,510.5,431.5626" style="stroke: #0000FF; stroke-width: 1.0;"/><!--link ver to vuadd--><path d="M511.0908,432 C512.9482,432 542.6667,432 542.6667,432 C542.6667,432 542.6667,751.0857 542.6667,751.0857 " fill="none" id="ver-vuadd" style="stroke: #0000FF; stroke-width: 1.0;"/><polygon fill="#0000FF" points="542.6667,756.0857,546.6667,747.0857,542.6667,751.0857,538.6667,747.0857,542.6667,756.0857" style="stroke: #0000FF; stroke-width: 1.0;"/><polygon fill="#0000FF" points="511.0908,432,520.0908,436,516.0908,432,520.0908,428,511.0908,432" style="stroke: #0000FF; stroke-width: 1.0;"/><!--link vuadd to uadd--><path d="M684.2466,771 C687.8467,771 690,771 690,771 C690,771 690,1032.2705 690,1032.2705 " fill="none" id="vuadd-uadd" style="stroke: #0000FF; stroke-width: 1.0;"/><polygon fill="#0000FF" points="690,1037.2705,694,1028.2705,690,1032.2705,686,1028.2705,690,1037.2705" style="stroke: #0000FF; stroke-width: 1.0;"/><text fill="#000000" font-family="sans-serif" font-size="13" lengthAdjust="spacingAndGlyphs" textLength="105" x="611" y="916.0669">nur Hauskunden</text><!--link vuadd to uadd--><path d="M684.0421,779 C691.2759,779 696,779 696,779 C696,779 696,1032.3581 696,1032.3581 " fill="none" id="vuadd-uadd" style="stroke: #006400; stroke-width: 1.0;"/><polygon fill="#006400" points="696,1037.3581,700,1028.3581,696,1032.3581,692,1028.3581,696,1037.3581" style="stroke: #006400; stroke-width: 1.0;"/><!--link vgver to gver--><path d="M309.1667,792.5053 C309.1667,792.5053 309.1667,1023.9347 309.1667,1023.9347 " fill="none" id="vgver-gver" style="stroke: #0000FF; stroke-width: 1.0;"/><polygon fill="#0000FF" points="309.1667,1028.9347,313.1667,1019.9347,309.1667,1023.9347,305.1667,1019.9347,309.1667,1028.9347" style="stroke: #0000FF; stroke-width: 1.0;"/><text fill="#000000" font-family="sans-serif" font-size="13" lengthAdjust="spacingAndGlyphs" textLength="178" x="361" y="916.0669">nur Name und Ort einsehen</text><!--link vgver to gver--><path d="M330.3333,792.5053 C330.3333,792.5053 330.3333,1023.9347 330.3333,1023.9347 " fill="none" id="vgver-gver" style="stroke: #006400; stroke-width: 1.0;"/><polygon fill="#006400" points="330.3333,1028.9347,334.3333,1019.9347,330.3333,1023.9347,326.3333,1019.9347,330.3333,1028.9347" style="stroke: #006400; stroke-width: 1.0;"/><!--link lout to Startseite--><path d="M918,1073.6802 C918,1133.4382 918,1320 918,1320 C918,1320 234.0723,1320 234.0723,1320 " fill="none" id="lout-Startseite" style="stroke: #0000FF; stroke-width: 1.0;"/><polygon fill="#0000FF" points="229.0723,1320,238.0723,1324,234.0723,1320,238.0723,1316,229.0723,1320" style="stroke: #0000FF; stroke-width: 1.0;"/><!--link püb to lout--><path d="M1571.6667,818.4114 C1571.6667,819.5765 1571.6667,820.7403 1571.6667,821.9026 C1571.6667,826.5519 1571.6667,831.1779 1571.6667,835.776 C1571.6667,844.9722 1571.6667,854.0566 1571.6667,862.9922 C1571.6667,898.7344 1571.6667,932.0938 1571.6667,960.6875 C1571.6667,1017.875 1571.6667,1056 1571.6667,1056 C1571.6667,1056 960.0168,1056 960.0168,1056 " fill="none" id="püb-lout" style="stroke: #006400; stroke-width: 1.0;"/><polygon fill="#006400" points="955.0168,1056,964.0168,1060,960.0168,1056,964.0168,1052,955.0168,1056" style="stroke: #006400; stroke-width: 1.0;"/><!--link püb to kas--><path d="M1266.2114,476 C1264.1809,476 1262.1458,476 1260.1067,476 C1243.7938,476 1227.2219,476 1210.65,476 C1078.075,476 945.5,476 945.5,476 C945.5,476 945.5,454.5999 945.5,454.5999 " fill="none" id="püb-kas" style="stroke: #0000FF; stroke-width: 1.0;"/><polygon fill="#0000FF" points="945.5,449.5999,941.5,458.5999,945.5,454.5999,949.5,458.5999,945.5,449.5999" style="stroke: #0000FF; stroke-width: 1.0;"/><polygon fill="#0000FF" points="1266.2114,476,1257.2114,472,1261.2114,476,1257.2114,480,1266.2114,476" style="stroke: #0000FF; stroke-width: 1.0;"/><!--link püb to stats--><path d="M1265.8622,494 C1256.8261,494 1247.8253,494 1238.8955,494 C1221.0357,494 1203.4595,494 1186.4502,494 C1152.4316,494 1120.681,494 1093.4661,494 C1039.0365,494 1002.75,494 1002.75,494 C1002.75,494 1002.75,575.7104 1002.75,575.7104 " fill="none" id="püb-stats" style="stroke: #006400; stroke-width: 1.0;"/><polygon fill="#006400" points="1002.75,580.7104,1006.75,571.7104,1002.75,575.7104,998.75,571.7104,1002.75,580.7104" style="stroke: #006400; stroke-width: 1.0;"/><polygon fill="#006400" points="1265.8622,494,1256.8622,490,1260.8622,494,1256.8622,498,1265.8622,494" style="stroke: #006400; stroke-width: 1.0;"/><!--link ver to püb--><path d="M435.5,376.9193 C435.5,376.0257 435.5,375.1169 435.5,374.1934 C435.5,366.8047 435.5,358.4688 435.5,349.375 C435.5,313 435.5,264.5 435.5,216 C435.5,119 435.5,22 435.5,22 C435.5,22 1504,22 1504,22 C1504,22 1504,119.6324 1504,219.5531 C1504,269.5134 1504,320.0458 1504,359.2322 C1504,364.1305 1504,368.8516 1504,373.372 C1504,374.5022 1504,375.6197 1504,376.7244 " fill="none" id="ver-püb" style="stroke: #0000FF; stroke-width: 1.0;"/><polygon fill="#0000FF" points="1504,376.7244,1508,367.7244,1504,371.7244,1500,367.7244,1504,376.7244" style="stroke: #0000FF; stroke-width: 1.0;"/><polygon fill="#0000FF" points="435.5,376.9193,439.5,367.9193,435.5,371.9193,431.5,367.9193,435.5,376.9193" style="stroke: #0000FF; stroke-width: 1.0;"/><!--link ver to lout--><path d="M856.1891,564 C863.8882,564 870.6002,564 876.1277,564 C887.1828,564 893.5,564 893.5,564 C893.5,564 893.5,1032.4244 893.5,1032.4244 " fill="none" id="ver-lout" style="stroke: #0000FF; stroke-width: 1.0;"/><polygon fill="#0000FF" points="893.5,1037.4244,897.5,1028.4244,893.5,1032.4244,889.5,1028.4244,893.5,1037.4244" style="stroke: #0000FF; stroke-width: 1.0;"/><!--link püb to best--><path d="M1703,432 C1703,432 1703,511 1703,511 C1703,511 1044.8333,511 1044.8333,511 C1044.8333,511 1044.8333,751.3886 1044.8333,751.3886 " fill="none" id="püb-best" style="stroke: #006400; stroke-width: 1.0;"/><polygon fill="#006400" points="1044.8333,756.3886,1048.8333,747.3886,1044.8333,751.3886,1040.8333,747.3886,1044.8333,756.3886" style="stroke: #006400; stroke-width: 1.0;"/><polygon fill="#006400" points="1703,432,1699,441,1703,437,1707,441,1703,432" style="stroke: #006400; stroke-width: 1.0;"/><!--link stats to lout--><path d="M943,617.177 C943,617.177 943,1032.271 943,1032.271 " fill="none" id="stats-lout" style="stroke: #006400; stroke-width: 1.0;"/><polygon fill="#006400" points="943,1037.271,947,1028.271,943,1032.271,939,1028.271,943,1037.271" style="stroke: #006400; stroke-width: 1.0;"/><!--link best to lout--><path d="M953.8064,786 C950.5215,786 948.5,786 948.5,786 C948.5,786 948.5,1032.3989 948.5,1032.3989 " fill="none" id="best-lout" style="stroke: #006400; stroke-width: 1.0;"/><polygon fill="#006400" points="948.5,1037.3989,952.5,1028.3989,948.5,1032.3989,944.5,1028.3989,948.5,1037.3989" style="stroke: #006400; stroke-width: 1.0;"/><!--link kas to lout--><path d="M904.5,449.5022 C904.5,449.5022 904.5,1032.4248 904.5,1032.4248 " fill="none" id="kas-lout" style="stroke: #0000FF; stroke-width: 1.0;"/><polygon fill="#0000FF" points="904.5,1037.4248,908.5,1028.4248,904.5,1032.4248,900.5,1028.4248,904.5,1037.4248" style="stroke: #0000FF; stroke-width: 1.0;"/><!--link kas to best--><path d="M926.5,454.8503 C926.5,454.8503 926.5,764 926.5,764 C926.5,764 948.8594,764 948.8594,764 " fill="none" id="kas-best" style="stroke: #006400; stroke-width: 1.0;"/><polygon fill="#006400" points="953.8594,764,944.8594,760,948.8594,764,944.8594,768,953.8594,764" style="stroke: #006400; stroke-width: 1.0;"/><polygon fill="#006400" points="926.5,449.8503,922.5,458.8503,926.5,454.8503,930.5,458.8503,926.5,449.8503" style="stroke: #006400; stroke-width: 1.0;"/><!--link kas to stats--><path d="M941.5,454.7443 C941.5,454.7443 941.5,575.7782 941.5,575.7782 " fill="none" id="kas-stats" style="stroke: #006400; stroke-width: 1.0;"/><polygon fill="#006400" points="941.5,580.7782,945.5,571.7782,941.5,575.7782,937.5,571.7782,941.5,580.7782" style="stroke: #006400; stroke-width: 1.0;"/><polygon fill="#006400" points="941.5,449.7443,937.5,458.7443,941.5,454.7443,945.5,458.7443,941.5,449.7443" style="stroke: #006400; stroke-width: 1.0;"/><!--link stats to best--><path d="M987.25,622.1206 C987.25,622.1206 987.25,751.478 987.25,751.478 " fill="none" id="stats-best" style="stroke: #006400; stroke-width: 1.0;"/><polygon fill="#006400" points="987.25,756.478,991.25,747.478,987.25,751.478,983.25,747.478,987.25,756.478" style="stroke: #006400; stroke-width: 1.0;"/><polygon fill="#006400" points="987.25,617.1206,983.25,626.1206,987.25,622.1206,991.25,626.1206,987.25,617.1206" style="stroke: #006400; stroke-width: 1.0;"/><!--link pkat to pinf--><path d="M1670,739.6138 C1670,691.3263 1670,610 1670,610 C1670,610 1705.9911,610 1705.9911,610 " fill="none" id="pkat-pinf" style="stroke: #FFA500; stroke-width: 1.0;"/><polygon fill="#FFA500" points="1710.9911,610,1701.9911,606,1705.9911,610,1701.9911,614,1710.9911,610" style="stroke: #FFA500; stroke-width: 1.0;"/><!--link pinf to pkat--><path d="M1710.8113,603 C1678.8988,603 1645,603 1645,603 C1645,603 1645,734.7944 1645,734.7944 " fill="none" id="pinf-pkat" style="stroke: #FFA500; stroke-width: 1.0;"/><polygon fill="#FFA500" points="1645,739.7944,1649,730.7944,1645,734.7944,1641,730.7944,1645,739.7944" style="stroke: #FFA500; stroke-width: 1.0;"/><!--link pinf to püb--><path d="M1710.8621,596 C1708.4646,596 1706.0154,596 1703.52,596 " fill="none" id="pinf-püb" style="stroke: #006400; stroke-width: 1.0;"/><polygon fill="#006400" points="1703.52,596,1712.52,600,1708.52,596,1712.52,592,1703.52,596" style="stroke: #006400; stroke-width: 1.0;"/><!--link püb to merk--><path d="M1266.8332,589 C1266.6026,589 1266.3839,589 1266.1772,589 C1264.5237,589 1263.6418,589 1263.6418,589 " fill="none" id="püb-merk" style="stroke: #FFA500; stroke-width: 1.0;"/><polygon fill="#FFA500" points="1258.6418,589,1267.6418,593,1263.6418,589,1267.6418,585,1258.6418,589" style="stroke: #FFA500; stroke-width: 1.0;"/><polygon fill="#FFA500" points="1266.8332,589,1257.8332,585,1261.8332,589,1257.8332,593,1266.8332,589" style="stroke: #FFA500; stroke-width: 1.0;"/><!--link uadd to ver--><path d="M678.8956,1056 C602.4798,1056 494.4,1056 494.4,1056 C494.4,1056 494.4,1017.0625 494.4,958.6563 C494.4,929.4531 494.4,895.3828 494.4,858.8789 C494.4,840.627 494.4,821.7666 494.4,802.6021 " fill="none" id="uadd-ver" style="stroke: #0000FF; stroke-width: 1.0;"/><polygon fill="#0000FF" points="494.4,802.6021,490.4,811.6021,494.4,807.6021,498.4,811.6021,494.4,802.6021" style="stroke: #0000FF; stroke-width: 1.0;"/><!--link vuver to uver--><path d="M144.1667,413.4833 C144.1667,413.4833 144.1667,273.7125 144.1667,273.7125 " fill="none" id="vuver-uver" style="stroke: #006400; stroke-width: 1.0;"/><polygon fill="#006400" points="144.1667,268.7125,140.1667,277.7125,144.1667,273.7125,148.1667,277.7125,144.1667,268.7125" style="stroke: #006400; stroke-width: 1.0;"/><!--link uver to ver--><path d="M187.8333,268.5751 C187.8333,300.3762 187.8333,363 187.8333,363 C187.8333,363 511,363 511,363 C511,363 511,366.8893 511,372.8144 C511,374.2956 511,375.9042 511,377.6109 C511,377.7176 511,377.8247 511,377.9321 " fill="none" id="uver-ver" style="stroke: #006400; stroke-width: 1.0;"/><polygon fill="#006400" points="511,377.9321,515,368.9321,511,372.9321,507,368.9321,511,377.9321" style="stroke: #006400; stroke-width: 1.0;"/><!--link vgadd to gadd--><path d="M356.5,413.4833 C356.5,413.4833 356.5,282.1768 356.5,282.1768 " fill="none" id="vgadd-gadd" style="stroke: #006400; stroke-width: 1.0;"/><polygon fill="#006400" points="356.5,277.1768,352.5,286.1768,356.5,282.1768,360.5,286.1768,356.5,277.1768" style="stroke: #006400; stroke-width: 1.0;"/><!--link gadd to ver--><path d="M317.5,277.1949 C317.5,296.6743 317.5,323.3755 317.5,345.207 C317.5,356.1227 317.5,365.8209 317.5,372.7903 C317.5,374.5326 317.5,376.1044 317.5,377.482 C317.5,377.6542 317.5,377.8233 317.5,377.9894 " fill="none" id="gadd-ver" style="stroke: #006400; stroke-width: 1.0;"/><polygon fill="#006400" points="317.5,377.9894,321.5,368.9894,317.5,372.9894,313.5,368.9894,317.5,377.9894" style="stroke: #006400; stroke-width: 1.0;"/><!--link gver to ver--><path d="M351.7068,1034 C416.2751,1034 511,1034 511,1034 C511,1034 511,997.5113 511,942.4932 C511,914.9842 511,882.8428 511,848.3139 C511,839.6817 511,830.9003 511,822.0047 C511,817.5569 511,813.0806 511,808.5801 C511,806.3299 511,804.0736 511,801.8119 " fill="none" id="gver-ver" style="stroke: #0000FF; stroke-width: 1.0;"/><polygon fill="#0000FF" points="511,801.8119,507,810.8119,511,806.8119,515,810.8119,511,801.8119" style="stroke: #0000FF; stroke-width: 1.0;"/><!--link vbnn to bnn--><path d="M765.5,404.7928 C765.5,404.7928 765.5,282.0219 765.5,282.0219 " fill="none" id="vbnn-bnn" style="stroke: #006400; stroke-width: 1.0;"/><polygon fill="#006400" points="765.5,277.0219,761.5,286.0219,765.5,282.0219,769.5,286.0219,765.5,277.0219" style="stroke: #006400; stroke-width: 1.0;"/><!--link bnn to ver--><path d="M719.5,277.2448 C719.5,295.4298 719.5,321.3195 719.5,349.925 C719.5,357.0764 719.5,364.3975 719.5,371.8104 C719.5,373.6636 719.5,375.5225 719.5,377.386 " fill="none" id="bnn-ver" style="stroke: #006400; stroke-width: 1.0;"/><polygon fill="#006400" points="719.5,377.386,723.5,368.386,719.5,372.386,715.5,368.386,719.5,377.386" style="stroke: #006400; stroke-width: 1.0;"/><!--link vpadd to padd--><path d="M590.5,404.7928 C590.5,404.7928 590.5,282.0219 590.5,282.0219 " fill="none" id="vpadd-padd" style="stroke: #006400; stroke-width: 1.0;"/><polygon fill="#006400" points="590.5,277.0219,586.5,286.0219,590.5,282.0219,594.5,286.0219,590.5,277.0219" style="stroke: #006400; stroke-width: 1.0;"/><!--link padd to ver--><path d="M511.5,277.2072 C511.5,301.988 511.5,339.7524 511.5,371.7165 C511.5,373.7143 511.5,375.6894 511.5,377.6373 " fill="none" id="padd-ver" style="stroke: #006400; stroke-width: 1.0;"/><polygon fill="#006400" points="511.5,377.6373,515.5,368.6373,511.5,372.6373,507.5,368.6373,511.5,377.6373" style="stroke: #006400; stroke-width: 1.0;"/><!--link kas to ver--><path d="M898.75,408.186 C898.75,408.186 898.75,341 898.75,341 C898.75,341 524,341 524,341 C524,341 524,346.625 524,355.0625 C524,359.2813 524,364.2031 524,369.4766 C524,372.1133 524,374.8379 524,377.6064 " fill="none" id="kas-ver" style="stroke: #0000FF; stroke-width: 1.0;"/><polygon fill="#0000FF" points="524,377.6064,528,368.6064,524,372.6064,520,368.6064,524,377.6064" style="stroke: #0000FF; stroke-width: 1.0;"/><polygon fill="#0000FF" points="898.75,413.186,902.75,404.186,898.75,408.186,894.75,404.186,898.75,413.186" style="stroke: #0000FF; stroke-width: 1.0;"/><!--
@startuml

skinparam componentStyle uml2
skinparam linetype ortho
skinparam groupInheritance 3

skinparam rectangle {
    fontStyle bold
	BackgroundColor #GreenYellow/LightGoldenRodYellow

}

skinparam component {
    fontStyle bold
	BackgroundColor #GreenYellow/LightGoldenRodYellow
    BorderColor darkgreen
}

skinparam Arrow {
    Color darkgreen
}
skinparam Actor{
    BorderColor black
    BackgroundColor white
}
:Manager: as m
:Verkäufer: as v
:Kunde: as k
m -[#black]-|> v
v -[#black]-|> k
package "BioLaden"{


    rectangle Startseite
    rectangle Produktübersicht as püb{
        rectangle "Name, \nKategorie, \nPreis" as pkat
        rectangle "Label drucken" as plab
        rectangle "zur Merkliste \nhinzufügen" as addmerk
        rectangle "Lager, \nzum Shop hinzufügen," as shop
    }
    rectangle Merkliste as merk
    rectangle Produktinfo as pinf
    rectangle Login as log
    rectangle "Startseite Login" as stlog
    rectangle Verwaltung as ver{
        rectangle "User hinzufügen" as vuadd
        rectangle "User verwalten" as vuver
        rectangle "Großhändler hinzufügen" as vgadd
        rectangle "Großhändler verwalten" as vgver
        rectangle "BNN Listen \nimportieren" as vbnn
        rectangle "Produkte manuell \nhinzufügen" as vpadd
    }
    rectangle "User hinzufügen" as uadd
    rectangle "Großhändler \nhinzufügen" as gadd
    rectangle "User verwalten" as uver
    rectangle "Großhändler \nverwalten" as gver
    rectangle "BNN Listen \nimportieren" as bnn
    rectangle "Produkte manuell \nhinzufügen" as padd
    rectangle Kasse as kas
    rectangle Bestellung as best
    rectangle Statistik as stats
    rectangle Logout as lout


    m - -> Startseite
    v -[#blue]-> Startseite
    k -[#orange]-> Startseite
    Startseite <-[#orange]-> püb
    püb -[#orange]->pkat
    püb <-[#orange]-> addmerk
    püb <-[#orange]-> log
    log -[#blue]-> stlog: Login erfolgreich
    log -[#orange]-> log: Login \nfehlgeschlagen
    stlog - -> lout
    stlog <- -> püb
    püb <-[#blue]-> plab
    püb <-[#blue]-> pkat
    stlog <- -> stats
    stlog <- -> best
    stlog <-[#blue]-> kas
    stlog <- -> ver
    stlog <-[#blue]-> ver
    ver <-[#blue]-> vgver
    ver <-[#blue]-> vuadd
    vuadd -[#blue]-> uadd : nur Hauskunden
    vgver -[#blue]-> gver : nur Name und Ort einsehen
    lout -[#blue]-> Startseite
    püb - -> lout
    püb <-[#blue]-> kas
    püb <- -> stats
    ver <-[#blue]-> püb
    ver -[#blue]-> lout
    püb <- -> best
    stats - -> lout
    best - -> lout
    kas -[#blue]-> lout
    kas <- -> best
    kas <- -> stats
    stats <- -> best
    pkat -[#orange]-> pinf
    pinf - -> püb
    pinf -[#orange]-> pkat
    püb <-[#orange]-> merk
    vuadd - -> uadd
    uadd -[#blue]-> ver
    vuver - -> uver
    uver - -> ver
    vgadd - -> gadd
    gadd - -> ver
    vgver - -> gver
    gver -[#blue]-> ver
    vbnn - -> bnn
    bnn  - -> ver
    vpadd - -> padd
    padd - -> ver
    kas <-[#blue]-> ver

}




@enduml

PlantUML version 1.2018.12(Sun Oct 21 12:15:15 CEST 2018)
(GPL source distribution)
Java Runtime: OpenJDK Runtime Environment
JVM: OpenJDK 64-Bit Server VM
Java Version: 11+28-Ubuntu-3ubuntu2
Operating System: Linux
OS Version: 4.18.0-10-generic
Default Encoding: UTF-8
Language: de
Country: DE
--></g></svg>