<?xml version="1.0" encoding="UTF-8" standalone="no"?><svg xmlns="http://www.w3.org/2000/svg" xmlns:xlink="http://www.w3.org/1999/xlink" contentScriptType="application/ecmascript" contentStyleType="text/css" height="958px" preserveAspectRatio="none" style="width:579px;height:958px;" version="1.1" viewBox="0 0 579 958" width="579px" zoomAndPan="magnify"><defs><filter height="300%" id="fdm6msanbddi1" width="300%" x="-1" y="-1"><feGaussianBlur result="blurOut" stdDeviation="2.0"/><feColorMatrix in="blurOut" result="blurOut2" type="matrix" values="0 0 0 0 0 0 0 0 0 0 0 0 0 0 0 0 0 0 .4 0"/><feOffset dx="4.0" dy="4.0" in="blurOut2" result="blurOut3"/><feBlend in="SourceGraphic" in2="blurOut3" mode="normal"/></filter></defs><g><!--cluster InventoryManagementSystem--><rect fill="#FFFFFF" filter="url(#fdm6msanbddi1)" height="919" style="stroke: #000000; stroke-width: 1.5;" width="350" x="218" y="16.5"/><text fill="#000000" font-family="sans-serif" font-size="14" font-weight="bold" lengthAdjust="spacingAndGlyphs" textLength="234" x="276" y="81.4951">InventoryManagementSystem</text><!--cluster ProductDepartment--><rect fill="#FFFFFF" filter="url(#fdm6msanbddi1)" height="306" style="stroke: #000000; stroke-width: 1.5;" width="304" x="241" y="287.5"/><text fill="#000000" font-family="sans-serif" font-size="14" font-weight="bold" lengthAdjust="spacingAndGlyphs" textLength="155" x="315.5" y="352.4951">ProductDepartment</text><!--entity FinancesDepartment--><rect fill="#F8F8F8" filter="url(#fdm6msanbddi1)" height="136.2969" style="stroke: #000000; stroke-width: 1.5;" width="283" x="251.5" y="791.5"/><text fill="#000000" font-family="sans-serif" font-size="14" font-weight="bold" lengthAdjust="spacingAndGlyphs" textLength="163" x="311.5" y="864.4951">FinancesDepartment</text><!--entity DataDepartment--><rect fill="#F8F8F8" filter="url(#fdm6msanbddi1)" height="136.2969" style="stroke: #000000; stroke-width: 1.5;" width="248" x="269" y="620.5"/><text fill="#000000" font-family="sans-serif" font-size="14" font-weight="bold" lengthAdjust="spacingAndGlyphs" textLength="128" x="329" y="693.4951">DataDepartment</text><!--entity UserDepartment--><rect fill="#F8F8F8" filter="url(#fdm6msanbddi1)" height="136.2969" style="stroke: #000000; stroke-width: 1.5;" width="250" x="268" y="143.5"/><text fill="#000000" font-family="sans-serif" font-size="14" font-weight="bold" lengthAdjust="spacingAndGlyphs" textLength="130" x="328" y="216.4951">UserDepartment</text><!--entity InventoryDepartment--><rect fill="#F8F8F8" filter="url(#fdm6msanbddi1)" height="136.2969" style="stroke: #000000; stroke-width: 1.5;" width="288" x="249" y="449.5"/><text fill="#000000" font-family="sans-serif" font-size="14" font-weight="bold" lengthAdjust="spacingAndGlyphs" textLength="168" x="309" y="522.4951">InventoryDepartment</text><!--entity Staff--><ellipse cx="90" cy="607" fill="#F8F8F8" filter="url(#fdm6msanbddi1)" rx="8" ry="8" style="stroke: #383838; stroke-width: 2.0;"/><path d="M90,615 L90,642 M77,623 L103,623 M90,642 L77,657 M90,642 L103,657 " fill="none" filter="url(#fdm6msanbddi1)" style="stroke: #383838; stroke-width: 2.0;"/><text fill="#000000" font-family="sans-serif" font-size="14" lengthAdjust="spacingAndGlyphs" textLength="30" x="75" y="726.9951">Staff</text><!--entity Manager--><ellipse cx="90" cy="389" fill="#F8F8F8" filter="url(#fdm6msanbddi1)" rx="8" ry="8" style="stroke: #383838; stroke-width: 2.0;"/><path d="M90,397 L90,424 M77,405 L103,405 M90,424 L77,439 M90,424 L103,439 " fill="none" filter="url(#fdm6msanbddi1)" style="stroke: #383838; stroke-width: 2.0;"/><text fill="#000000" font-family="sans-serif" font-size="14" lengthAdjust="spacingAndGlyphs" textLength="60" x="60" y="508.9951">Manager</text><!--entity Customer--><ellipse cx="90" cy="825" fill="#F8F8F8" filter="url(#fdm6msanbddi1)" rx="8" ry="8" style="stroke: #383838; stroke-width: 2.0;"/><path d="M90,833 L90,860 M77,841 L103,841 M90,860 L77,875 M90,860 L103,875 " fill="none" filter="url(#fdm6msanbddi1)" style="stroke: #383838; stroke-width: 2.0;"/><text fill="#000000" font-family="sans-serif" font-size="14" lengthAdjust="spacingAndGlyphs" textLength="68" x="56" y="944.9951">Customer</text><!--link Manager to UserDepartment--><path d="M137.8508,378.7163 C158.8474,345.2739 186.0431,309.3654 218,283.5 C231.655,272.4478 247.2408,262.8714 263.355,254.6364 " fill="none" id="Manager-UserDepartment" style="stroke: #383838; stroke-width: 1.0;"/><rect fill="#FFFFFF" height="10" style="stroke: #383838; stroke-width: 1.5;" width="10" x="262.9129" y="247.3492"/><path d="M163.8646,329.259 A10,10 0 0 0 174.8076 338.2174" fill="#FFFFFF" style="stroke: #383838; stroke-width: 1.5;"/><ellipse cx="173.8153" cy="328.2668" fill="#FFFFFF" rx="6" ry="6" style="stroke: #383838; stroke-width: 1.5;"/><!--link Manager to DataDepartment--><path d="M170.2346,560.8224 C185.3196,575.349 201.5464,589.5244 218,601.5 C232.4181,611.9941 248.2923,621.8463 264.4171,630.8779 " fill="none" id="Manager-DataDepartment" style="stroke: #383838; stroke-width: 1.0;"/><rect fill="#FFFFFF" height="10" style="stroke: #383838; stroke-width: 1.5;" width="10" x="263.9707" y="628.4034"/><path d="M216.444,591.6218 A10,10 0 0 0 208.1218 603.056" fill="#FFFFFF" style="stroke: #383838; stroke-width: 1.5;"/><ellipse cx="218" cy="601.5" fill="#FFFFFF" rx="6" ry="6" style="stroke: #383838; stroke-width: 1.5;"/><!--link Manager to FinancesDepartment--><path d="M164.801,562.107 C168.1521,567.8453 171.2536,573.6633 174,579.5 C211.6427,659.4982 163.1993,704.1201 218,773.5 C226.3161,784.0285 236.2516,793.3583 247.1059,801.6082 " fill="none" id="Manager-FinancesDepartment" style="stroke: #383838; stroke-width: 1.0;"/><rect fill="#FFFFFF" height="10" style="stroke: #383838; stroke-width: 1.5;" width="10" x="246.1451" y="799.599"/><path d="M196.7672,673.5437 A10,10 0 0 0 182.6276 673.2804" fill="#FFFFFF" style="stroke: #383838; stroke-width: 1.5;"/><ellipse cx="189.5657" cy="680.4819" fill="#FFFFFF" rx="6" ry="6" style="stroke: #383838; stroke-width: 1.5;"/><!--link Manager to ProductDepartment--><path d="M170.2932,443.3774 C185.9729,438.8387 202.3925,434.6036 218,431.5 C222.5657,430.5921 227.2084,429.732 231.9028,428.9173 C234.25,428.51 236.6101,428.114 238.9799,427.729 C239.5724,427.6327 240.1655,427.5372 240.7591,427.4423 " fill="none" id="Manager-ProductDepartment" style="stroke: #383838; stroke-width: 1.0;"/><rect fill="#FFFFFF" height="10" style="stroke: #383838; stroke-width: 1.5;" width="10" x="235.7591" y="422.4423"/><path d="M185.5926,431.7658 A10,10 0 0 0 189.0389 445.4816" fill="#FFFFFF" style="stroke: #383838; stroke-width: 1.5;"/><ellipse cx="194.1737" cy="436.9005" fill="#FFFFFF" rx="6" ry="6" style="stroke: #383838; stroke-width: 1.5;"/><!--link Manager to InventoryDepartment--><path d="M170.006,482.9102 C192.7718,486.4415 218.3323,490.4063 243.8058,494.3577 " fill="none" id="Manager-InventoryDepartment" style="stroke: #383838; stroke-width: 1.0;"/><rect fill="#FFFFFF" height="10" style="stroke: #383838; stroke-width: 1.5;" width="10" x="243.8985" y="490.1476"/><path d="M199.9869,480.405 A10,10 0 0 0 197.8191 494.38" fill="#FFFFFF" style="stroke: #383838; stroke-width: 1.5;"/><ellipse cx="205.8905" cy="488.4764" fill="#FFFFFF" rx="6" ry="6" style="stroke: #383838; stroke-width: 1.5;"/><!--link Staff to UserDepartment--><path d="M155.1384,613.8711 C162.4183,602.8689 168.9982,591.2623 174,579.5 C226.0471,457.1056 136.0328,388.241 218,283.5 C230.039,268.1161 245.9265,255.9943 263.2252,246.4491 " fill="none" id="Staff-UserDepartment" style="stroke: #383838; stroke-width: 1.0;"/><rect fill="#FFFFFF" height="10" style="stroke: #383838; stroke-width: 1.5;" width="10" x="262.6521" y="239.0775"/><path d="M178.6492,432.7802 A10,10 0 0 0 192.6802 431.0107" fill="#FFFFFF" style="stroke: #383838; stroke-width: 1.5;"/><ellipse cx="184.78" cy="424.88" fill="#FFFFFF" rx="6" ry="6" style="stroke: #383838; stroke-width: 1.5;"/><!--link Staff to FinancesDepartment--><path d="M155.0744,734.0633 C174.9381,747.3274 197.0673,761.4735 218,773.5 C227.2908,778.8379 236.9595,784.1705 246.7705,789.4176 " fill="none" id="Staff-FinancesDepartment" style="stroke: #383838; stroke-width: 1.0;"/><rect fill="#FFFFFF" height="10" style="stroke: #383838; stroke-width: 1.5;" width="10" x="246.2874" y="786.8221"/><path d="M183.9226,744.4939 A10,10 0 0 0 176.3844 756.4595" fill="#FFFFFF" style="stroke: #383838; stroke-width: 1.5;"/><ellipse cx="186.1363" cy="754.2458" fill="#FFFFFF" rx="6" ry="6" style="stroke: #383838; stroke-width: 1.5;"/><!--link Customer to FinancesDepartment--><path d="M174,893.4703 C196.4945,889.9811 221.4845,886.1047 246.3025,882.2551 " fill="none" id="Customer-FinancesDepartment" style="stroke: #383838; stroke-width: 1.0;"/><rect fill="#FFFFFF" height="10" style="stroke: #383838; stroke-width: 1.5;" width="10" x="246.263" y="876.4856"/><path d="M201.2086,882.0942 A10,10 0 0 0 203.3763 896.0692" fill="#FFFFFF" style="stroke: #383838; stroke-width: 1.5;"/><ellipse cx="209.2799" cy="887.9979" fill="#FFFFFF" rx="6" ry="6" style="stroke: #383838; stroke-width: 1.5;"/><!--
@startuml

skinparam componentStyle uml2
skinparam monochrome true
skinparam rectangleFontStyle bold
skinparam Padding 50

left to right direction

rectangle InventoryManagementSystem {
    rectangle ProductDepartment {
        rectangle InventoryDepartment
    }
    rectangle FinancesDepartment
    rectangle DataDepartment
    rectangle UserDepartment
}

:Staff:
:Manager:
:Customer:

Manager -(0-# UserDepartment
Manager -(0-# DataDepartment
Manager -(0-# FinancesDepartment
Manager -(0-# ProductDepartment
Manager -(0-# InventoryDepartment
Staff -(0-# UserDepartment
Staff -(0-# FinancesDepartment
Customer -(0-# FinancesDepartment

@enduml

PlantUML version 1.2018.11(Sat Sep 22 18:43:53 CEST 2018)
(GPL source distribution)
Java Runtime: OpenJDK Runtime Environment
JVM: OpenJDK 64-Bit Server VM
Java Version: 10.0.2+13-Ubuntu-1ubuntu0.18.04.1
Operating System: Linux
OS Version: 4.15.0-33-generic
Default Encoding: UTF-8
Language: en
Country: US
--></g></svg>