<?xml version="1.0" encoding="UTF-8" standalone="no"?><svg xmlns="http://www.w3.org/2000/svg" xmlns:xlink="http://www.w3.org/1999/xlink" contentScriptType="application/ecmascript" contentStyleType="text/css" height="354px" preserveAspectRatio="none" style="width:759px;height:354px;" version="1.1" viewBox="0 0 759 354" width="759px" zoomAndPan="magnify"><defs><linearGradient id="g1ox4fohzz5jaq0" x1="0%" x2="100%" y1="0%" y2="100%"><stop offset="0%" stop-color="#ADFF2F"/><stop offset="100%" stop-color="#FAFAD2"/></linearGradient><filter height="300%" id="f1ox4fohzz5jaq" width="300%" x="-1" y="-1"><feGaussianBlur result="blurOut" stdDeviation="2.0"/><feColorMatrix in="blurOut" result="blurOut2" type="matrix" values="0 0 0 0 0 0 0 0 0 0 0 0 0 0 0 0 0 0 .4 0"/><feOffset dx="4.0" dy="4.0" in="blurOut2" result="blurOut3"/><feBlend in="SourceGraphic" in2="blurOut3" mode="normal"/></filter></defs><g><!--cluster Bioladen--><rect fill="url(#g1ox4fohzz5jaq0)" filter="url(#f1ox4fohzz5jaq)" height="327" style="stroke: #000000; stroke-width: 1.5;" width="217" x="265" y="16"/><text fill="#000000" font-family="sans-serif" font-size="14" font-weight="bold" lengthAdjust="spacingAndGlyphs" textLength="68" x="339.5" y="30.9951">Bioladen</text><!--cluster ProductDepartment--><rect fill="url(#g1ox4fohzz5jaq0)" filter="url(#f1ox4fohzz5jaq)" height="106" style="stroke: #000000; stroke-width: 1.5;" width="201" x="273" y="229"/><text fill="#000000" font-family="sans-serif" font-size="14" font-weight="bold" lengthAdjust="spacingAndGlyphs" textLength="154" x="296.5" y="243.9951">ProductDepartment</text><!--entity FinancesDepartment--><rect fill="url(#g1ox4fohzz5jaq0)" filter="url(#f1ox4fohzz5jaq)" height="36.2969" style="stroke: #000000; stroke-width: 1.5;" width="183" x="282" y="43"/><text fill="#000000" font-family="sans-serif" font-size="14" font-weight="bold" lengthAdjust="spacingAndGlyphs" textLength="163" x="292" y="65.9951">FinancesDepartment</text><!--entity DataDepartment--><rect fill="url(#g1ox4fohzz5jaq0)" filter="url(#f1ox4fohzz5jaq)" height="36.2969" style="stroke: #000000; stroke-width: 1.5;" width="149" x="299" y="114"/><text fill="#000000" font-family="sans-serif" font-size="14" font-weight="bold" lengthAdjust="spacingAndGlyphs" textLength="129" x="309" y="136.9951">DataDepartment</text><!--entity UserDepartment--><rect fill="url(#g1ox4fohzz5jaq0)" filter="url(#f1ox4fohzz5jaq)" height="36.2969" style="stroke: #000000; stroke-width: 1.5;" width="149" x="299" y="185"/><text fill="#000000" font-family="sans-serif" font-size="14" font-weight="bold" lengthAdjust="spacingAndGlyphs" textLength="129" x="309" y="207.9951">UserDepartment</text><!--entity InventoryDepartment--><rect fill="url(#g1ox4fohzz5jaq0)" filter="url(#f1ox4fohzz5jaq)" height="36.2969" style="stroke: #000000; stroke-width: 1.5;" width="185" x="281" y="291"/><text fill="#000000" font-family="sans-serif" font-size="14" font-weight="bold" lengthAdjust="spacingAndGlyphs" textLength="165" x="291" y="313.9951">InventoryDepartment</text><!--entity Staff--><ellipse cx="40" cy="153.5" fill="#FFFFFF" filter="url(#f1ox4fohzz5jaq)" rx="8" ry="8" style="stroke: #000000; stroke-width: 2.0;"/><path d="M40,161.5 L40,188.5 M27,169.5 L53,169.5 M40,188.5 L27,203.5 M40,188.5 L53,203.5 " fill="none" filter="url(#f1ox4fohzz5jaq)" style="stroke: #000000; stroke-width: 2.0;"/><text fill="#000000" font-family="sans-serif" font-size="14" lengthAdjust="spacingAndGlyphs" textLength="30" x="25" y="223.4951">Staff</text><!--entity Manager--><ellipse cx="717" cy="163.5" fill="#FFFFFF" filter="url(#f1ox4fohzz5jaq)" rx="8" ry="8" style="stroke: #000000; stroke-width: 2.0;"/><path d="M717,171.5 L717,198.5 M704,179.5 L730,179.5 M717,198.5 L704,213.5 M717,198.5 L730,213.5 " fill="none" filter="url(#f1ox4fohzz5jaq)" style="stroke: #000000; stroke-width: 2.0;"/><text fill="#000000" font-family="sans-serif" font-size="14" lengthAdjust="spacingAndGlyphs" textLength="60" x="687" y="233.4951">Manager</text><!--entity Customer--><ellipse cx="40" cy="29.5" fill="#FFFFFF" filter="url(#f1ox4fohzz5jaq)" rx="8" ry="8" style="stroke: #000000; stroke-width: 2.0;"/><path d="M40,37.5 L40,64.5 M27,45.5 L53,45.5 M40,64.5 L27,79.5 M40,64.5 L53,79.5 " fill="none" filter="url(#f1ox4fohzz5jaq)" style="stroke: #000000; stroke-width: 2.0;"/><text fill="#000000" font-family="sans-serif" font-size="14" lengthAdjust="spacingAndGlyphs" textLength="68" x="6" y="99.4951">Customer</text><!--link UserDepartment to Manager--><path d="M453.3376,201.1406 C527.794,199.4065 634.9202,196.9116 686.7003,195.7057 " fill="none" id="UserDepartment-Manager" style="stroke: #006400; stroke-width: 1.0;"/><rect fill="#FFFFFF" height="10" style="stroke: #006400; stroke-width: 1.5;" width="10" x="443.0344" y="196.2641"/><text fill="#000000" font-family="sans-serif" font-size="13" lengthAdjust="spacingAndGlyphs" textLength="116" x="518.5" y="192.0669">add all Customers</text><!--link DataDepartment to Manager--><path d="M453.39,139.7409 C510.624,146.2764 589.2406,157.2833 657,174 C666.8578,176.432 677.3793,179.8281 686.8144,183.1814 " fill="none" id="DataDepartment-Manager" style="stroke: #006400; stroke-width: 1.0;"/><rect fill="#FFFFFF" height="10" style="stroke: #006400; stroke-width: 1.5;" width="10" x="443.2672" y="134.1613"/><text fill="#000000" font-family="sans-serif" font-size="13" lengthAdjust="spacingAndGlyphs" textLength="84" x="534.5" y="141.0669">get Statistics</text><!--link FinancesDepartment to Manager--><path d="M470.3863,64.8444 C528.1751,70.9444 600.9605,85.5941 657,120 C670.4998,128.2883 682.2428,140.7534 691.6739,153.154 " fill="none" id="FinancesDepartment-Manager" style="stroke: #006400; stroke-width: 1.0;"/><rect fill="#FFFFFF" height="10" style="stroke: #006400; stroke-width: 1.5;" width="10" x="460.1958" y="59.3152"/><text fill="#000000" font-family="sans-serif" font-size="13" lengthAdjust="spacingAndGlyphs" textLength="137" x="508" y="65.0669">operate cash register</text><!--link ProductDepartment to Manager--><path d="M475.157,253.9349 C530.06,250.494 598.4056,242.4109 657,224 C667.0442,220.844 677.5291,216.2674 686.8722,211.6788 " fill="none" id="ProductDepartment-Manager" style="stroke: #006400; stroke-width: 1.0;"/><rect fill="#FFFFFF" height="10" style="stroke: #006400; stroke-width: 1.5;" width="10" x="470.157" y="248.9349"/><text fill="#000000" font-family="sans-serif" font-size="13" lengthAdjust="spacingAndGlyphs" textLength="159" x="497" y="220.0669">change database entries</text><!--link InventoryDepartment to Manager--><path d="M471.3536,316.8597 C528.9861,317.0712 601.2737,309.3338 657,277 C673.1732,267.6159 686.2399,251.9443 695.9997,236.8009 " fill="none" id="InventoryDepartment-Manager" style="stroke: #006400; stroke-width: 1.0;"/><rect fill="#FFFFFF" height="10" style="stroke: #006400; stroke-width: 1.5;" width="10" x="461.1763" y="311.8192"/><text fill="#000000" font-family="sans-serif" font-size="13" lengthAdjust="spacingAndGlyphs" textLength="87" x="533" y="273.0669">order product</text><!--link Staff to UserDepartment--><path d="M55.2562,185.9988 C68.2209,186.8367 87.3281,188.046 104,189 C167.7781,192.6495 240.0706,196.383 293.7145,199.0757 " fill="none" id="Staff-UserDepartment" style="stroke: #006400; stroke-width: 1.0;"/><rect fill="#FFFFFF" height="10" style="stroke: #006400; stroke-width: 1.5;" width="10" x="293.8467" y="194.333"/><text fill="#000000" font-family="sans-serif" font-size="13" lengthAdjust="spacingAndGlyphs" textLength="145" x="105" y="185.0669">add NormalCustomers</text><!--link Staff to FinancesDepartment--><path d="M55.1732,178.7471 C91.292,163.9326 185.3116,125.7813 265,97 C280.3094,91.4707 296.9457,85.7892 312.4873,80.6207 " fill="none" id="Staff-FinancesDepartment" style="stroke: #006400; stroke-width: 1.0;"/><rect fill="#FFFFFF" height="10" style="stroke: #006400; stroke-width: 1.5;" width="10" x="312.2728" y="74.0338"/><text fill="#000000" font-family="sans-serif" font-size="13" lengthAdjust="spacingAndGlyphs" textLength="137" x="109" y="99.0669">operate cash register</text><!--link Customer to FinancesDepartment--><path d="M74.1231,61 C121.2867,61 208.2858,61 276.3912,61 " fill="none" id="Customer-FinancesDepartment" style="stroke: #006400; stroke-width: 1.0;"/><rect fill="#FFFFFF" height="10" style="stroke: #006400; stroke-width: 1.5;" width="10" x="276.6745" y="56"/><text fill="#000000" font-family="sans-serif" font-size="13" lengthAdjust="spacingAndGlyphs" textLength="81" x="137" y="57.0669">gives money</text><!--
@startuml

skinparam componentStyle uml2
skinparam rectangleFontStyle bold
skinparam rectangleBackgroundColor 	#GreenYellow/LightGoldenRodYellow
skinparam ArrowFontColor black
skinparam ArrowColor darkgreen
skinparam ActorBorderColor black
skinparam ActorBackgroundColor white

left to right direction

rectangle Bioladen {
    rectangle ProductDepartment {
        rectangle InventoryDepartment
    }
    rectangle FinancesDepartment
    rectangle DataDepartment
    rectangle UserDepartment
}

:Staff:
:Manager:
:Customer:

Manager -up-#UserDepartment: add all Customers
Manager -up-# DataDepartment: get Statistics
Manager -up-# FinancesDepartment: operate cash register
Manager -up-# ProductDepartment: change database entries
Manager -up-# InventoryDepartment: order product
Staff - -# UserDepartment: add NormalCustomers
Staff - -# FinancesDepartment: operate cash register
Customer - -# FinancesDepartment: gives money

@enduml

PlantUML version 1.2018.12(Sun Oct 21 12:15:15 CEST 2018)
(GPL source distribution)
Java Runtime: OpenJDK Runtime Environment
JVM: OpenJDK 64-Bit Server VM
Java Version: 11+28-Ubuntu-3ubuntu2
Operating System: Linux
OS Version: 4.18.0-10-generic
Default Encoding: UTF-8
Language: de
Country: DE
--></g></svg>