<?xml version="1.0" encoding="UTF-8" standalone="no"?><svg xmlns="http://www.w3.org/2000/svg" xmlns:xlink="http://www.w3.org/1999/xlink" contentScriptType="application/ecmascript" contentStyleType="text/css" height="354px" preserveAspectRatio="none" style="width:762px;height:354px;" version="1.1" viewBox="0 0 762 354" width="762px" zoomAndPan="magnify"><defs><linearGradient id="g1ox4fohzz5jaq0" x1="0%" x2="100%" y1="0%" y2="100%"><stop offset="0%" stop-color="#ADFF2F"/><stop offset="100%" stop-color="#FAFAD2"/></linearGradient><filter height="300%" id="f1ox4fohzz5jaq" width="300%" x="-1" y="-1"><feGaussianBlur result="blurOut" stdDeviation="2.0"/><feColorMatrix in="blurOut" result="blurOut2" type="matrix" values="0 0 0 0 0 0 0 0 0 0 0 0 0 0 0 0 0 0 .4 0"/><feOffset dx="4.0" dy="4.0" in="blurOut2" result="blurOut3"/><feBlend in="SourceGraphic" in2="blurOut3" mode="normal"/></filter></defs><g><!--cluster Bioladen--><rect fill="url(#g1ox4fohzz5jaq0)" filter="url(#f1ox4fohzz5jaq)" height="327" style="stroke: #000000; stroke-width: 1.5;" width="220" x="265" y="16"/><text fill="#000000" font-family="sans-serif" font-size="14" font-weight="bold" lengthAdjust="spacingAndGlyphs" textLength="67" x="341.5" y="30.9951">Bioladen</text><!--cluster ProductDepartment--><rect fill="url(#g1ox4fohzz5jaq0)" filter="url(#f1ox4fohzz5jaq)" height="106" style="stroke: #000000; stroke-width: 1.5;" width="204" x="273" y="229"/><text fill="#000000" font-family="sans-serif" font-size="14" font-weight="bold" lengthAdjust="spacingAndGlyphs" textLength="155" x="297.5" y="243.9951">ProductDepartment</text><!--entity FinancesDepartment--><rect fill="url(#g1ox4fohzz5jaq0)" filter="url(#f1ox4fohzz5jaq)" height="36.2969" style="stroke: #000000; stroke-width: 1.5;" width="183" x="283.5" y="43"/><text fill="#000000" font-family="sans-serif" font-size="14" font-weight="bold" lengthAdjust="spacingAndGlyphs" textLength="163" x="293.5" y="65.9951">FinancesDepartment</text><!--entity DataDepartment--><rect fill="url(#g1ox4fohzz5jaq0)" filter="url(#f1ox4fohzz5jaq)" height="36.2969" style="stroke: #000000; stroke-width: 1.5;" width="148" x="301" y="114"/><text fill="#000000" font-family="sans-serif" font-size="14" font-weight="bold" lengthAdjust="spacingAndGlyphs" textLength="128" x="311" y="136.9951">DataDepartment</text><!--entity UserDepartment--><rect fill="url(#g1ox4fohzz5jaq0)" filter="url(#f1ox4fohzz5jaq)" height="36.2969" style="stroke: #000000; stroke-width: 1.5;" width="150" x="300" y="185"/><text fill="#000000" font-family="sans-serif" font-size="14" font-weight="bold" lengthAdjust="spacingAndGlyphs" textLength="130" x="310" y="207.9951">UserDepartment</text><!--entity InventoryDepartment--><rect fill="url(#g1ox4fohzz5jaq0)" filter="url(#f1ox4fohzz5jaq)" height="36.2969" style="stroke: #000000; stroke-width: 1.5;" width="188" x="281" y="291"/><text fill="#000000" font-family="sans-serif" font-size="14" font-weight="bold" lengthAdjust="spacingAndGlyphs" textLength="168" x="291" y="313.9951">InventoryDepartment</text><!--entity Staff--><ellipse cx="40" cy="153.5" fill="#FFFFFF" filter="url(#f1ox4fohzz5jaq)" rx="8" ry="8" style="stroke: #000000; stroke-width: 2.0;"/><path d="M40,161.5 L40,188.5 M27,169.5 L53,169.5 M40,188.5 L27,203.5 M40,188.5 L53,203.5 " fill="none" filter="url(#f1ox4fohzz5jaq)" style="stroke: #000000; stroke-width: 2.0;"/><text fill="#000000" font-family="sans-serif" font-size="14" lengthAdjust="spacingAndGlyphs" textLength="30" x="25" y="223.4951">Staff</text><!--entity Manager--><ellipse cx="720" cy="163.5" fill="#FFFFFF" filter="url(#f1ox4fohzz5jaq)" rx="8" ry="8" style="stroke: #000000; stroke-width: 2.0;"/><path d="M720,171.5 L720,198.5 M707,179.5 L733,179.5 M720,198.5 L707,213.5 M720,198.5 L733,213.5 " fill="none" filter="url(#f1ox4fohzz5jaq)" style="stroke: #000000; stroke-width: 2.0;"/><text fill="#000000" font-family="sans-serif" font-size="14" lengthAdjust="spacingAndGlyphs" textLength="60" x="690" y="233.4951">Manager</text><!--entity Customer--><ellipse cx="40" cy="29.5" fill="#FFFFFF" filter="url(#f1ox4fohzz5jaq)" rx="8" ry="8" style="stroke: #000000; stroke-width: 2.0;"/><path d="M40,37.5 L40,64.5 M27,45.5 L53,45.5 M40,64.5 L27,79.5 M40,64.5 L53,79.5 " fill="none" filter="url(#f1ox4fohzz5jaq)" style="stroke: #000000; stroke-width: 2.0;"/><text fill="#000000" font-family="sans-serif" font-size="14" lengthAdjust="spacingAndGlyphs" textLength="68" x="6" y="99.4951">Customer</text><!--link UserDepartment to Manager--><path d="M455.6136,201.1307 C530.4152,199.3962 637.7698,196.9068 689.647,195.7038 " fill="none" id="UserDepartment-Manager" style="stroke: #006400; stroke-width: 1.0;"/><rect fill="#FFFFFF" height="10" style="stroke: #006400; stroke-width: 1.5;" width="10" x="445.2854" y="196.2543"/><text fill="#000000" font-family="sans-serif" font-size="13" lengthAdjust="spacingAndGlyphs" textLength="116" x="521.5" y="192.0669">add all Customers</text><!--link DataDepartment to Manager--><path d="M454.4193,139.6026 C512.03,146.1076 591.5298,157.1357 660,174 C669.8587,176.4282 680.3805,179.8233 689.8155,183.1767 " fill="none" id="DataDepartment-Manager" style="stroke: #006400; stroke-width: 1.0;"/><rect fill="#FFFFFF" height="10" style="stroke: #006400; stroke-width: 1.5;" width="10" x="444.2638" y="134.0259"/><text fill="#000000" font-family="sans-serif" font-size="13" lengthAdjust="spacingAndGlyphs" textLength="84" x="537.5" y="141.0669">get Statistics</text><!--link FinancesDepartment to Manager--><path d="M471.7487,64.6733 C529.9445,70.6942 603.449,85.3209 660,120 C673.5041,128.2812 685.2483,140.7445 694.679,153.1456 " fill="none" id="FinancesDepartment-Manager" style="stroke: #006400; stroke-width: 1.0;"/><rect fill="#FFFFFF" height="10" style="stroke: #006400; stroke-width: 1.5;" width="10" x="461.5222" y="59.1514"/><text fill="#000000" font-family="sans-serif" font-size="13" lengthAdjust="spacingAndGlyphs" textLength="137" x="511" y="65.0669">operate cash register</text><!--link ProductDepartment to Manager--><path d="M477.198,254.0116 C532.3923,250.5932 601.0994,242.5071 660,224 C670.0442,220.844 680.5291,216.2674 689.8722,211.6788 " fill="none" id="ProductDepartment-Manager" style="stroke: #006400; stroke-width: 1.0;"/><rect fill="#FFFFFF" height="10" style="stroke: #006400; stroke-width: 1.5;" width="10" x="472.198" y="249.0116"/><text fill="#000000" font-family="sans-serif" font-size="13" lengthAdjust="spacingAndGlyphs" textLength="159" x="500" y="220.0669">change database entries</text><!--link InventoryDepartment to Manager--><path d="M474.3413,316.9738 C532.116,317.1339 604.2866,309.3045 660,277 C676.176,267.6206 689.2431,251.9498 699.0025,236.8058 " fill="none" id="InventoryDepartment-Manager" style="stroke: #006400; stroke-width: 1.0;"/><rect fill="#FFFFFF" height="10" style="stroke: #006400; stroke-width: 1.5;" width="10" x="464.1504" y="311.9379"/><text fill="#000000" font-family="sans-serif" font-size="13" lengthAdjust="spacingAndGlyphs" textLength="87" x="536" y="273.0669">order product</text><!--link Staff to UserDepartment--><path d="M55.2561,186 C68.2208,186.8387 87.3279,188.0484 104,189 C168.1327,192.6606 240.8276,196.3934 294.7702,199.083 " fill="none" id="Staff-UserDepartment" style="stroke: #006400; stroke-width: 1.0;"/><rect fill="#FFFFFF" height="10" style="stroke: #006400; stroke-width: 1.5;" width="10" x="294.931" y="194.34"/><text fill="#000000" font-family="sans-serif" font-size="13" lengthAdjust="spacingAndGlyphs" textLength="145" x="105" y="185.0669">add NormalCustomers</text><!--link Staff to FinancesDepartment--><path d="M55.1654,178.7254 C91.2673,163.864 185.253,125.6186 265,97 C280.4259,91.4641 297.1882,85.8015 312.8695,80.6547 " fill="none" id="Staff-FinancesDepartment" style="stroke: #006400; stroke-width: 1.0;"/><rect fill="#FFFFFF" height="10" style="stroke: #006400; stroke-width: 1.5;" width="10" x="312.6987" y="74.0748"/><text fill="#000000" font-family="sans-serif" font-size="13" lengthAdjust="spacingAndGlyphs" textLength="137" x="109" y="99.0669">operate cash register</text><!--link Customer to FinancesDepartment--><path d="M74.2766,61 C121.8149,61 209.6428,61 278.1578,61 " fill="none" id="Customer-FinancesDepartment" style="stroke: #006400; stroke-width: 1.0;"/><rect fill="#FFFFFF" height="10" style="stroke: #006400; stroke-width: 1.5;" width="10" x="278.4723" y="56"/><text fill="#000000" font-family="sans-serif" font-size="13" lengthAdjust="spacingAndGlyphs" textLength="81" x="137" y="57.0669">gives money</text><!--
@startuml

skinparam componentStyle uml2
skinparam rectangleFontStyle bold
skinparam rectangleBackgroundColor 	#GreenYellow/LightGoldenRodYellow
skinparam ArrowFontColor black
skinparam ArrowColor darkgreen
skinparam ActorBorderColor black
skinparam ActorBackgroundColor white

left to right direction

rectangle Bioladen {
    rectangle ProductDepartment {
        rectangle InventoryDepartment
    }
    rectangle FinancesDepartment
    rectangle DataDepartment
    rectangle UserDepartment
}

:Staff:
:Manager:
:Customer:

Manager -up-#UserDepartment: add all Customers
Manager -up-# DataDepartment: get Statistics
Manager -up-# FinancesDepartment: operate cash register
Manager -up-# ProductDepartment: change database entries
Manager -up-# InventoryDepartment: order product
Staff - -# UserDepartment: add NormalCustomers
Staff - -# FinancesDepartment: operate cash register
Customer - -# FinancesDepartment: gives money

@enduml

PlantUML version 1.2018.12(Sun Oct 21 12:15:15 CEST 2018)
(GPL source distribution)
Java Runtime: OpenJDK Runtime Environment
JVM: OpenJDK 64-Bit Server VM
Java Version: 10.0.2+13-Ubuntu-1ubuntu0.18.04.1
Operating System: Linux
OS Version: 4.15.0-33-generic
Default Encoding: UTF-8
Language: en
Country: US
--></g></svg>