<?xml version="1.0" encoding="UTF-8" standalone="no"?><svg xmlns="http://www.w3.org/2000/svg" xmlns:xlink="http://www.w3.org/1999/xlink" contentScriptType="application/ecmascript" contentStyleType="text/css" height="383px" preserveAspectRatio="none" style="width:1105px;height:383px;" version="1.1" viewBox="0 0 1105 383" width="1105px" zoomAndPan="magnify"><defs><linearGradient id="g1u7lgi80862aj0" x1="0%" x2="100%" y1="0%" y2="100%"><stop offset="0%" stop-color="#ADFF2F"/><stop offset="100%" stop-color="#FAFAD2"/></linearGradient><filter height="300%" id="f1u7lgi80862aj" width="300%" x="-1" y="-1"><feGaussianBlur result="blurOut" stdDeviation="2.0"/><feColorMatrix in="blurOut" result="blurOut2" type="matrix" values="0 0 0 0 0 0 0 0 0 0 0 0 0 0 0 0 0 0 .4 0"/><feOffset dx="4.0" dy="4.0" in="blurOut2" result="blurOut3"/><feBlend in="SourceGraphic" in2="blurOut3" mode="normal"/></filter></defs><g><!--cluster Bioladen--><rect fill="url(#g1u7lgi80862aj0)" filter="url(#f1u7lgi80862aj)" height="327" style="stroke: #000000; stroke-width: 1.5;" width="220" x="608" y="45"/><text fill="#000000" font-family="sans-serif" font-size="14" font-weight="bold" lengthAdjust="spacingAndGlyphs" textLength="67" x="684.5" y="59.9951">Bioladen</text><!--cluster ProductDepartment--><rect fill="url(#g1u7lgi80862aj0)" filter="url(#f1u7lgi80862aj)" height="106" style="stroke: #000000; stroke-width: 1.5;" width="204" x="616" y="258"/><text fill="#000000" font-family="sans-serif" font-size="14" font-weight="bold" lengthAdjust="spacingAndGlyphs" textLength="155" x="640.5" y="272.9951">ProductDepartment</text><!--entity FinancesDepartment--><rect fill="url(#g1u7lgi80862aj0)" filter="url(#f1u7lgi80862aj)" height="36.2969" style="stroke: #000000; stroke-width: 1.5;" width="183" x="626.5" y="72"/><text fill="#000000" font-family="sans-serif" font-size="14" font-weight="bold" lengthAdjust="spacingAndGlyphs" textLength="163" x="636.5" y="94.9951">FinancesDepartment</text><!--entity DataDepartment--><rect fill="url(#g1u7lgi80862aj0)" filter="url(#f1u7lgi80862aj)" height="36.2969" style="stroke: #000000; stroke-width: 1.5;" width="148" x="644" y="143"/><text fill="#000000" font-family="sans-serif" font-size="14" font-weight="bold" lengthAdjust="spacingAndGlyphs" textLength="128" x="654" y="165.9951">DataDepartment</text><!--entity UserDepartment--><rect fill="url(#g1u7lgi80862aj0)" filter="url(#f1u7lgi80862aj)" height="36.2969" style="stroke: #000000; stroke-width: 1.5;" width="150" x="643" y="214"/><text fill="#000000" font-family="sans-serif" font-size="14" font-weight="bold" lengthAdjust="spacingAndGlyphs" textLength="130" x="653" y="236.9951">UserDepartment</text><!--entity InventoryDepartment--><rect fill="url(#g1u7lgi80862aj0)" filter="url(#f1u7lgi80862aj)" height="36.2969" style="stroke: #000000; stroke-width: 1.5;" width="188" x="624" y="320"/><text fill="#000000" font-family="sans-serif" font-size="14" font-weight="bold" lengthAdjust="spacingAndGlyphs" textLength="168" x="634" y="342.9951">InventoryDepartment</text><!--entity Staff--><ellipse cx="383" cy="182.5" fill="#FFFFFF" filter="url(#f1u7lgi80862aj)" rx="8" ry="8" style="stroke: #000000; stroke-width: 2.0;"/><path d="M383,190.5 L383,217.5 M370,198.5 L396,198.5 M383,217.5 L370,232.5 M383,217.5 L396,232.5 " fill="none" filter="url(#f1u7lgi80862aj)" style="stroke: #000000; stroke-width: 2.0;"/><text fill="#000000" font-family="sans-serif" font-size="14" lengthAdjust="spacingAndGlyphs" textLength="30" x="368" y="252.4951">Staff</text><!--entity Manager--><ellipse cx="1063" cy="192.5" fill="#FFFFFF" filter="url(#f1u7lgi80862aj)" rx="8" ry="8" style="stroke: #000000; stroke-width: 2.0;"/><path d="M1063,200.5 L1063,227.5 M1050,208.5 L1076,208.5 M1063,227.5 L1050,242.5 M1063,227.5 L1076,242.5 " fill="none" filter="url(#f1u7lgi80862aj)" style="stroke: #000000; stroke-width: 2.0;"/><text fill="#000000" font-family="sans-serif" font-size="14" lengthAdjust="spacingAndGlyphs" textLength="60" x="1033" y="262.4951">Manager</text><!--entity Customer--><ellipse cx="383" cy="58.5" fill="#FFFFFF" filter="url(#f1u7lgi80862aj)" rx="8" ry="8" style="stroke: #000000; stroke-width: 2.0;"/><path d="M383,66.5 L383,93.5 M370,74.5 L396,74.5 M383,93.5 L370,108.5 M383,93.5 L396,108.5 " fill="none" filter="url(#f1u7lgi80862aj)" style="stroke: #000000; stroke-width: 2.0;"/><text fill="#000000" font-family="sans-serif" font-size="14" lengthAdjust="spacingAndGlyphs" textLength="68" x="349" y="128.4951">Customer</text><!--entity NormalCustomer--><ellipse cx="230" cy="18.5" fill="#FFFFFF" filter="url(#f1u7lgi80862aj)" rx="8" ry="8" style="stroke: #000000; stroke-width: 2.0;"/><path d="M230,26.5 L230,53.5 M217,34.5 L243,34.5 M230,53.5 L217,68.5 M230,53.5 L243,68.5 " fill="none" filter="url(#f1u7lgi80862aj)" style="stroke: #000000; stroke-width: 2.0;"/><text fill="#000000" font-family="sans-serif" font-size="14" lengthAdjust="spacingAndGlyphs" textLength="116" x="172" y="88.4951">NormalCustomer</text><!--entity HouseCustomer--><ellipse cx="230" cy="136.5" fill="#FFFFFF" filter="url(#f1u7lgi80862aj)" rx="8" ry="8" style="stroke: #000000; stroke-width: 2.0;"/><path d="M230,144.5 L230,171.5 M217,152.5 L243,152.5 M230,171.5 L217,186.5 M230,171.5 L243,186.5 " fill="none" filter="url(#f1u7lgi80862aj)" style="stroke: #000000; stroke-width: 2.0;"/><text fill="#000000" font-family="sans-serif" font-size="14" lengthAdjust="spacingAndGlyphs" textLength="113" x="173.5" y="206.4951">HouseCustomer</text><!--entity MajorCustomer--><ellipse cx="58.5" cy="136.5" fill="#FFFFFF" filter="url(#f1u7lgi80862aj)" rx="8" ry="8" style="stroke: #000000; stroke-width: 2.0;"/><path d="M58.5,144.5 L58.5,171.5 M45.5,152.5 L71.5,152.5 M58.5,171.5 L45.5,186.5 M58.5,171.5 L71.5,186.5 " fill="none" filter="url(#f1u7lgi80862aj)" style="stroke: #000000; stroke-width: 2.0;"/><text fill="#000000" font-family="sans-serif" font-size="14" lengthAdjust="spacingAndGlyphs" textLength="105" x="6" y="206.4951">MajorCustomer</text><!--link NormalCustomer to Customer--><path d="M288.2792,65.2364 C306.7999,70.0784 326.8334,75.3159 343.6855,79.7217 " fill="none" id="NormalCustomer-Customer" style="stroke: #006400; stroke-width: 1.0;"/><polygon fill="#006400" points="348.8082,81.061,341.1126,74.9146,343.9708,79.7963,339.0891,82.6545,348.8082,81.061" style="stroke: #006400; stroke-width: 1.0;"/><!--link HouseCustomer to Customer--><path d="M286.5369,139.1773 C305.678,129.4191 326.612,118.7468 344.0721,109.8456 " fill="none" id="HouseCustomer-Customer" style="stroke: #006400; stroke-width: 1.0;"/><polygon fill="#006400" points="348.9003,107.3842,339.0654,107.9085,344.4458,109.6552,342.6991,115.0356,348.9003,107.3842" style="stroke: #006400; stroke-width: 1.0;"/><!--link MajorCustomer to HouseCustomer--><path d="M111.355,168 C129.3474,168 149.617,168 168.244,168 " fill="none" id="MajorCustomer-HouseCustomer" style="stroke: #006400; stroke-width: 1.0;"/><polygon fill="#006400" points="173.4509,168,164.4509,164,168.4509,168,164.4509,172,173.4509,168" style="stroke: #006400; stroke-width: 1.0;"/><!--link UserDepartment to Manager--><path d="M798.6136,230.1307 C873.4152,228.3962 980.7698,225.9068 1032.647,224.7038 " fill="none" id="UserDepartment-Manager" style="stroke: #006400; stroke-width: 1.0;"/><rect fill="#FFFFFF" height="10" style="stroke: #006400; stroke-width: 1.5;" width="10" x="788.2854" y="225.2543"/><text fill="#000000" font-family="sans-serif" font-size="13" lengthAdjust="spacingAndGlyphs" textLength="116" x="864.5" y="221.0669">add all Customers</text><!--link DataDepartment to Manager--><path d="M797.4193,168.6026 C855.03,175.1076 934.5298,186.1357 1003,203 C1012.8587,205.4282 1023.3805,208.8233 1032.8155,212.1767 " fill="none" id="DataDepartment-Manager" style="stroke: #006400; stroke-width: 1.0;"/><rect fill="#FFFFFF" height="10" style="stroke: #006400; stroke-width: 1.5;" width="10" x="787.2638" y="163.0259"/><text fill="#000000" font-family="sans-serif" font-size="13" lengthAdjust="spacingAndGlyphs" textLength="84" x="880.5" y="170.0669">get Statistics</text><!--link FinancesDepartment to Manager--><path d="M814.7487,93.6733 C872.9445,99.6942 946.449,114.3209 1003,149 C1016.5041,157.2812 1028.2483,169.7445 1037.679,182.1456 " fill="none" id="FinancesDepartment-Manager" style="stroke: #006400; stroke-width: 1.0;"/><rect fill="#FFFFFF" height="10" style="stroke: #006400; stroke-width: 1.5;" width="10" x="804.5222" y="88.1514"/><text fill="#000000" font-family="sans-serif" font-size="13" lengthAdjust="spacingAndGlyphs" textLength="137" x="854" y="94.0669">operate cash register</text><!--link ProductDepartment to Manager--><path d="M820.198,283.0116 C875.3923,279.5932 944.0994,271.5071 1003,253 C1013.0442,249.844 1023.5291,245.2674 1032.8722,240.6788 " fill="none" id="ProductDepartment-Manager" style="stroke: #006400; stroke-width: 1.0;"/><rect fill="#FFFFFF" height="10" style="stroke: #006400; stroke-width: 1.5;" width="10" x="815.198" y="278.0116"/><text fill="#000000" font-family="sans-serif" font-size="13" lengthAdjust="spacingAndGlyphs" textLength="159" x="843" y="249.0669">change database entries</text><!--link InventoryDepartment to Manager--><path d="M817.3413,345.9738 C875.116,346.1339 947.2866,338.3045 1003,306 C1019.176,296.6206 1032.2431,280.9498 1042.0025,265.8058 " fill="none" id="InventoryDepartment-Manager" style="stroke: #006400; stroke-width: 1.0;"/><rect fill="#FFFFFF" height="10" style="stroke: #006400; stroke-width: 1.5;" width="10" x="807.1504" y="340.9379"/><text fill="#000000" font-family="sans-serif" font-size="13" lengthAdjust="spacingAndGlyphs" textLength="87" x="879" y="302.0669">order product</text><!--link Staff to UserDepartment--><path d="M398.2561,215 C411.2208,215.8387 430.3279,217.0484 447,218 C511.1327,221.6606 583.8276,225.3934 637.7702,228.083 " fill="none" id="Staff-UserDepartment" style="stroke: #006400; stroke-width: 1.0;"/><rect fill="#FFFFFF" height="10" style="stroke: #006400; stroke-width: 1.5;" width="10" x="637.931" y="223.34"/><text fill="#000000" font-family="sans-serif" font-size="13" lengthAdjust="spacingAndGlyphs" textLength="145" x="448" y="214.0669">add NormalCustomers</text><!--link Staff to FinancesDepartment--><path d="M398.1654,207.7254 C434.2673,192.864 528.253,154.6186 608,126 C623.4259,120.4641 640.1882,114.8015 655.8695,109.6547 " fill="none" id="Staff-FinancesDepartment" style="stroke: #006400; stroke-width: 1.0;"/><rect fill="#FFFFFF" height="10" style="stroke: #006400; stroke-width: 1.5;" width="10" x="655.6987" y="103.0748"/><text fill="#000000" font-family="sans-serif" font-size="13" lengthAdjust="spacingAndGlyphs" textLength="137" x="452" y="128.0669">operate cash register</text><!--link Customer to FinancesDepartment--><path d="M417.2766,90 C464.8149,90 552.6428,90 621.1578,90 " fill="none" id="Customer-FinancesDepartment" style="stroke: #006400; stroke-width: 1.0;"/><rect fill="#FFFFFF" height="10" style="stroke: #006400; stroke-width: 1.5;" width="10" x="621.4723" y="85"/><text fill="#000000" font-family="sans-serif" font-size="13" lengthAdjust="spacingAndGlyphs" textLength="81" x="480" y="86.0669">gives money</text><!--
@startuml

skinparam componentStyle uml2
skinparam rectangleFontStyle bold
skinparam rectangleBackgroundColor 	#GreenYellow/LightGoldenRodYellow
skinparam ArrowFontColor black
skinparam ArrowColor darkgreen
skinparam ActorBorderColor black
skinparam ActorBackgroundColor white

left to right direction

rectangle Bioladen {
    rectangle ProductDepartment {
        rectangle InventoryDepartment
    }
    rectangle FinancesDepartment
    rectangle DataDepartment
    rectangle UserDepartment
}

:Staff:
:Manager:
:Customer:
:NormalCustomer: - -> Customer
:HouseCustomer: - -> Customer
:MajorCustomer: - -> HouseCustomer

Manager -up-#UserDepartment: add all Customers
Manager -up-# DataDepartment: get Statistics
Manager -up-# FinancesDepartment: operate cash register
Manager -up-# ProductDepartment: change database entries
Manager -up-# InventoryDepartment: order product
Staff - -# UserDepartment: add NormalCustomers
Staff - -# FinancesDepartment: operate cash register
Customer - -# FinancesDepartment: gives money

@enduml

PlantUML version 1.2018.12(Sun Oct 21 12:15:15 CEST 2018)
(GPL source distribution)
Java Runtime: OpenJDK Runtime Environment
JVM: OpenJDK 64-Bit Server VM
Java Version: 11.0.1+13-Debian-2
Operating System: Linux
OS Version: 4.18.0-parrot10-amd64
Default Encoding: UTF-8
Language: en
Country: US
--></g></svg>