<?xml version="1.0" encoding="UTF-8" standalone="no"?><svg xmlns="http://www.w3.org/2000/svg" xmlns:xlink="http://www.w3.org/1999/xlink" contentScriptType="application/ecmascript" contentStyleType="text/css" height="1129px" preserveAspectRatio="none" style="width:3181px;height:1129px;" version="1.1" viewBox="0 0 3181 1129" width="3181px" zoomAndPan="magnify"><defs><filter height="300%" id="f1agatk0512e1i" width="300%" x="-1" y="-1"><feGaussianBlur result="blurOut" stdDeviation="2.0"/><feColorMatrix in="blurOut" result="blurOut2" type="matrix" values="0 0 0 0 0 0 0 0 0 0 0 0 0 0 0 0 0 0 .4 0"/><feOffset dx="4.0" dy="4.0" in="blurOut2" result="blurOut3"/><feBlend in="SourceGraphic" in2="blurOut3" mode="normal"/></filter></defs><g><rect fill="#7FFF00" height="30.9531" rx="7.5" ry="7.5" style="stroke: #0000FF; stroke-width: 2.0;" width="266" x="1463.5" y="2"/><text fill="#000000" font-family="sans-serif" font-size="18" lengthAdjust="spacingAndGlyphs" textLength="250" x="1471.5" y="23.708">Anwendungsfall - Diagramm</text><!--cluster coole Box--><rect fill="#FFFFFF" filter="url(#f1agatk0512e1i)" height="809" style="stroke: #000000; stroke-width: 1.5;" width="3129" x="38.5" y="309.9531"/><text fill="#000000" font-family="sans-serif" font-size="14" font-weight="bold" lengthAdjust="spacingAndGlyphs" textLength="77" x="1564.5" y="324.9482">coole Box</text><!--cluster Kassensystem--><polygon fill="#FFFFFF" filter="url(#f1agatk0512e1i)" points="2185.5,358.9531,2306.5,358.9531,2313.5,381.25,3159.5,381.25,3159.5,1110.9531,2185.5,1110.9531,2185.5,358.9531" style="stroke: #000000; stroke-width: 1.5;"/><line style="stroke: #000000; stroke-width: 1.5;" x1="2185.5" x2="2313.5" y1="381.25" y2="381.25"/><text fill="#000000" font-family="sans-serif" font-size="14" font-weight="bold" lengthAdjust="spacingAndGlyphs" textLength="115" x="2189.5" y="373.9482">Kassensystem</text><!--cluster - - - --><polygon fill="#FFFFFF" filter="url(#f1agatk0512e1i)" points="2109.5,336.9531,2133.5,336.9531,2140.5,359.25,2177.5,359.25,2177.5,454.9531,2109.5,454.9531,2109.5,336.9531" style="stroke: #000000; stroke-width: 1.5;"/><line style="stroke: #000000; stroke-width: 1.5;" x1="2109.5" x2="2140.5" y1="359.25" y2="359.25"/><text fill="#000000" font-family="sans-serif" font-size="14" font-weight="bold" lengthAdjust="spacingAndGlyphs" textLength="18" x="2113.5" y="351.9482">---</text><ellipse cx="320.598" cy="405.4768" fill="#FEFECE" filter="url(#f1agatk0512e1i)" rx="42.598" ry="14.5236" style="stroke: #A80036; stroke-width: 1.5;"/><text fill="#000000" font-family="sans-serif" font-size="14" lengthAdjust="spacingAndGlyphs" textLength="56" x="292.598" y="410.1252">Inventur</text><ellipse cx="1122.4395" cy="405.541" fill="#FEFECE" filter="url(#f1agatk0512e1i)" rx="75.9395" ry="17.5879" style="stroke: #A80036; stroke-width: 1.5;"/><text fill="#000000" font-family="sans-serif" font-size="14" lengthAdjust="spacingAndGlyphs" textLength="121" x="1061.9395" y="410.1895">Account erstellen</text><ellipse cx="1308.7002" cy="405.2932" fill="#FEFECE" filter="url(#f1agatk0512e1i)" rx="74.7002" ry="17.34" style="stroke: #A80036; stroke-width: 1.5;"/><text fill="#000000" font-family="sans-serif" font-size="14" lengthAdjust="spacingAndGlyphs" textLength="118" x="1249.7002" y="409.9416">Termin eintragen</text><ellipse cx="1495.2711" cy="405.2073" fill="#FEFECE" filter="url(#f1agatk0512e1i)" rx="76.7711" ry="17.7542" style="stroke: #A80036; stroke-width: 1.5;"/><text fill="#000000" font-family="sans-serif" font-size="14" lengthAdjust="spacingAndGlyphs" textLength="123" x="1433.7711" y="409.8558">Produkt tauschen</text><ellipse cx="904.6048" cy="405.4275" fill="#FEFECE" filter="url(#f1agatk0512e1i)" rx="106.6048" ry="23.9743" style="stroke: #A80036; stroke-width: 1.5;"/><text fill="#000000" font-family="sans-serif" font-size="14" lengthAdjust="spacingAndGlyphs" textLength="161" x="824.1048" y="405.0207">Großkundendatenbank</text><text fill="#000000" font-family="sans-serif" font-size="14" lengthAdjust="spacingAndGlyphs" textLength="79" x="865.1048" y="421.3176">importieren</text><ellipse cx="144.6626" cy="405.4857" fill="#FEFECE" filter="url(#f1agatk0512e1i)" rx="98.1626" ry="22.0325" style="stroke: #A80036; stroke-width: 1.5;"/><text fill="#000000" font-family="sans-serif" font-size="14" lengthAdjust="spacingAndGlyphs" textLength="172" x="58.6626" y="410.1341">Verkaufspreis kalkulieren</text><ellipse cx="493.6107" cy="405.2456" fill="#FEFECE" filter="url(#f1agatk0512e1i)" rx="95.1107" ry="24.2924" style="stroke: #A80036; stroke-width: 1.5;"/><text fill="#000000" font-family="sans-serif" font-size="14" lengthAdjust="spacingAndGlyphs" textLength="85" x="451.1107" y="399.152">Eingabe von</text><text fill="#000000" font-family="sans-serif" font-size="14" lengthAdjust="spacingAndGlyphs" textLength="141" x="423.1107" y="415.4488">Normalkundendaten</text><ellipse cx="693.4543" cy="405.244" fill="#FEFECE" filter="url(#f1agatk0512e1i)" rx="69.4543" ry="16.2909" style="stroke: #A80036; stroke-width: 1.5;"/><text fill="#000000" font-family="sans-serif" font-size="14" lengthAdjust="spacingAndGlyphs" textLength="105" x="640.9543" y="409.8924">Etikett drucken</text><ellipse cx="1703.4095" cy="405.535" fill="#FEFECE" filter="url(#f1agatk0512e1i)" rx="95.9095" ry="21.5819" style="stroke: #A80036; stroke-width: 1.5;"/><text fill="#000000" font-family="sans-serif" font-size="14" lengthAdjust="spacingAndGlyphs" textLength="167" x="1619.9095" y="410.1835">Bestellvorgang erfassen</text><ellipse cx="1958.4327" cy="405.6397" fill="#FEFECE" filter="url(#f1agatk0512e1i)" rx="123.9327" ry="27.1865" style="stroke: #A80036; stroke-width: 1.5;"/><text fill="#000000" font-family="sans-serif" font-size="14" lengthAdjust="spacingAndGlyphs" textLength="222" x="1847.4327" y="408.8371">Waren und/oder Geldbewegung</text><text fill="#000000" font-family="sans-serif" font-size="14" lengthAdjust="spacingAndGlyphs" textLength="75" x="1920.9327" y="425.134">archivieren</text><ellipse cx="1495.2771" cy="594.4085" fill="#FEFECE" filter="url(#f1agatk0512e1i)" rx="92.7771" ry="20.9554" style="stroke: #A80036; stroke-width: 1.5;"/><text fill="#000000" font-family="sans-serif" font-size="14" lengthAdjust="spacingAndGlyphs" textLength="160" x="1415.2771" y="599.057">Stornierung archivieren</text><ellipse cx="1693.7471" cy="594.4026" fill="#FEFECE" filter="url(#f1agatk0512e1i)" rx="70.2471" ry="16.4494" style="stroke: #A80036; stroke-width: 1.5;"/><text fill="#000000" font-family="sans-serif" font-size="14" lengthAdjust="spacingAndGlyphs" textLength="107" x="1640.2471" y="599.051">Ware einkaufen</text><ellipse cx="1908.5557" cy="594.3643" fill="#FEFECE" filter="url(#f1agatk0512e1i)" rx="110.0557" ry="24.4111" style="stroke: #A80036; stroke-width: 1.5;"/><text fill="#000000" font-family="sans-serif" font-size="14" lengthAdjust="spacingAndGlyphs" textLength="198" x="1809.5557" y="599.0127">günstigsten Anbieter wählen</text><ellipse cx="1495.2717" cy="769.0075" fill="#FEFECE" filter="url(#f1agatk0512e1i)" rx="120.7717" ry="26.5543" style="stroke: #A80036; stroke-width: 1.5;"/><text fill="#000000" font-family="sans-serif" font-size="14" lengthAdjust="spacingAndGlyphs" textLength="221" x="1384.7717" y="773.6559">Warenscanvorgang abschließen</text><ellipse cx="2706.6884" cy="405.2908" fill="#FEFECE" filter="url(#f1agatk0512e1i)" rx="77.1884" ry="17.8377" style="stroke: #A80036; stroke-width: 1.5;"/><text fill="#000000" font-family="sans-serif" font-size="14" lengthAdjust="spacingAndGlyphs" textLength="124" x="2644.6884" y="409.9393">Bargeld einzahlen</text><ellipse cx="2883.3678" cy="769.1267" fill="#FEFECE" filter="url(#f1agatk0512e1i)" rx="78.8678" ry="18.1736" style="stroke: #A80036; stroke-width: 1.5;"/><text fill="#000000" font-family="sans-serif" font-size="14" lengthAdjust="spacingAndGlyphs" textLength="128" x="2819.3678" y="773.7751">Bargeld auszahlen</text><ellipse cx="3074.2711" cy="768.7073" fill="#FEFECE" filter="url(#f1agatk0512e1i)" rx="76.7711" ry="17.7542" style="stroke: #A80036; stroke-width: 1.5;"/><text fill="#000000" font-family="sans-serif" font-size="14" lengthAdjust="spacingAndGlyphs" textLength="123" x="3012.7711" y="773.3558">Bargeld wechseln</text><ellipse cx="2768.3093" cy="1080.715" fill="#FEFECE" filter="url(#f1agatk0512e1i)" rx="96.8093" ry="21.7619" style="stroke: #A80036; stroke-width: 1.5;"/><text fill="#000000" font-family="sans-serif" font-size="14" lengthAdjust="spacingAndGlyphs" textLength="169" x="2683.8093" y="1085.3634">Wechselgeld berechnen</text><ellipse cx="2399.728" cy="405.4987" fill="#FEFECE" filter="url(#f1agatk0512e1i)" rx="85.728" ry="19.5456" style="stroke: #A80036; stroke-width: 1.5;"/><text fill="#000000" font-family="sans-serif" font-size="14" lengthAdjust="spacingAndGlyphs" textLength="144" x="2327.728" y="410.1472">einfache Stornierung</text><ellipse cx="2275.3427" cy="768.7217" fill="#FEFECE" filter="url(#f1agatk0512e1i)" rx="81.8427" ry="18.7685" style="stroke: #A80036; stroke-width: 1.5;"/><text fill="#000000" font-family="sans-serif" font-size="14" lengthAdjust="spacingAndGlyphs" textLength="135" x="2207.8427" y="773.3701">globale Stornierung</text><ellipse cx="2514.6802" cy="768.7892" fill="#FEFECE" filter="url(#f1agatk0512e1i)" rx="122.1802" ry="26.836" style="stroke: #A80036; stroke-width: 1.5;"/><text fill="#000000" font-family="sans-serif" font-size="14" lengthAdjust="spacingAndGlyphs" textLength="224" x="2402.6802" y="773.4376">Artikel zu Warenkorb hinzufügen</text><!--entity a--><ellipse cx="2134.5" cy="373.9531" fill="#FEFECE" filter="url(#f1agatk0512e1i)" rx="8" ry="8" style="stroke: #A80036; stroke-width: 2.0;"/><path d="M2134.5,381.9531 L2134.5,408.9531 M2121.5,389.9531 L2147.5,389.9531 M2134.5,408.9531 L2121.5,423.9531 M2134.5,408.9531 L2147.5,423.9531 " fill="none" filter="url(#f1agatk0512e1i)" style="stroke: #A80036; stroke-width: 2.0;"/><text fill="#000000" font-family="sans-serif" font-size="14" lengthAdjust="spacingAndGlyphs" textLength="33" x="2118" y="443.9482">i_i_i_i</text><!--entity ku--><ellipse cx="2114.5" cy="197.9531" fill="#FEFECE" filter="url(#f1agatk0512e1i)" rx="8" ry="8" style="stroke: #A80036; stroke-width: 2.0;"/><path d="M2114.5,205.9531 L2114.5,232.9531 M2101.5,213.9531 L2127.5,213.9531 M2114.5,232.9531 L2101.5,247.9531 M2114.5,232.9531 L2127.5,247.9531 " fill="none" filter="url(#f1agatk0512e1i)" style="stroke: #A80036; stroke-width: 2.0;"/><text fill="#000000" font-family="sans-serif" font-size="14" lengthAdjust="spacingAndGlyphs" textLength="45" x="2092" y="267.9482">Kunde</text><!--entity nku--><ellipse cx="2333.5" cy="53.9531" fill="#FEFECE" filter="url(#f1agatk0512e1i)" rx="8" ry="8" style="stroke: #A80036; stroke-width: 2.0;"/><path d="M2333.5,61.9531 L2333.5,88.9531 M2320.5,69.9531 L2346.5,69.9531 M2333.5,88.9531 L2320.5,103.9531 M2333.5,88.9531 L2346.5,103.9531 " fill="none" filter="url(#f1agatk0512e1i)" style="stroke: #A80036; stroke-width: 2.0;"/><text fill="#000000" font-family="sans-serif" font-size="14" lengthAdjust="spacingAndGlyphs" textLength="92" x="2287.5" y="123.9482">Normalkunde</text><!--entity gha--><ellipse cx="2057.5" cy="53.9531" fill="#FEFECE" filter="url(#f1agatk0512e1i)" rx="8" ry="8" style="stroke: #A80036; stroke-width: 2.0;"/><path d="M2057.5,61.9531 L2057.5,88.9531 M2044.5,69.9531 L2070.5,69.9531 M2057.5,88.9531 L2044.5,103.9531 M2057.5,88.9531 L2070.5,103.9531 " fill="none" filter="url(#f1agatk0512e1i)" style="stroke: #A80036; stroke-width: 2.0;"/><text fill="#000000" font-family="sans-serif" font-size="14" lengthAdjust="spacingAndGlyphs" textLength="160" x="1977.5" y="123.9482">Großhandelsabnehmer</text><!--entity hku--><ellipse cx="2212.5" cy="53.9531" fill="#FEFECE" filter="url(#f1agatk0512e1i)" rx="8" ry="8" style="stroke: #A80036; stroke-width: 2.0;"/><path d="M2212.5,61.9531 L2212.5,88.9531 M2199.5,69.9531 L2225.5,69.9531 M2212.5,88.9531 L2199.5,103.9531 M2212.5,88.9531 L2225.5,103.9531 " fill="none" filter="url(#f1agatk0512e1i)" style="stroke: #A80036; stroke-width: 2.0;"/><text fill="#000000" font-family="sans-serif" font-size="14" lengthAdjust="spacingAndGlyphs" textLength="79" x="2173" y="123.9482">Hauskunde</text><!--entity vp--><ellipse cx="693.5" cy="53.9531" fill="#FEFECE" filter="url(#f1agatk0512e1i)" rx="8" ry="8" style="stroke: #A80036; stroke-width: 2.0;"/><path d="M693.5,61.9531 L693.5,88.9531 M680.5,69.9531 L706.5,69.9531 M693.5,88.9531 L680.5,103.9531 M693.5,88.9531 L706.5,103.9531 " fill="none" filter="url(#f1agatk0512e1i)" style="stroke: #A80036; stroke-width: 2.0;"/><text fill="#000000" font-family="sans-serif" font-size="14" lengthAdjust="spacingAndGlyphs" textLength="120" x="633.5" y="123.9482">Verkaufspersonal</text><!--entity gl--><ellipse cx="1122.5" cy="197.9531" fill="#FEFECE" filter="url(#f1agatk0512e1i)" rx="8" ry="8" style="stroke: #A80036; stroke-width: 2.0;"/><path d="M1122.5,205.9531 L1122.5,232.9531 M1109.5,213.9531 L1135.5,213.9531 M1122.5,232.9531 L1109.5,247.9531 M1122.5,232.9531 L1135.5,247.9531 " fill="none" filter="url(#f1agatk0512e1i)" style="stroke: #A80036; stroke-width: 2.0;"/><text fill="#000000" font-family="sans-serif" font-size="14" lengthAdjust="spacingAndGlyphs" textLength="117" x="1064" y="267.9482">Geschäftsleitung</text><!--entity sys--><path d="M6,216.9531 C6,206.9531 41.5,206.9531 41.5,206.9531 C41.5,206.9531 77,206.9531 77,216.9531 L77,242.25 C77,252.25 41.5,252.25 41.5,252.25 C41.5,252.25 6,252.25 6,242.25 L6,216.9531 " fill="#FEFECE" filter="url(#f1agatk0512e1i)" style="stroke: #000000; stroke-width: 1.5;"/><path d="M6,216.9531 C6,226.9531 41.5,226.9531 41.5,226.9531 C41.5,226.9531 77,226.9531 77,216.9531 " fill="none" style="stroke: #000000; stroke-width: 1.5;"/><text fill="#000000" font-family="sans-serif" font-size="14" lengthAdjust="spacingAndGlyphs" textLength="51" x="16" y="243.9482">System</text><!--link nku to ku--><path d="M2300.75,127.2485 C2300.75,169.9248 2300.75,229.9531 2300.75,229.9531 C2300.75,229.9531 2142.3379,229.9531 2142.3379,229.9531 " fill="none" id="nku-ku" style="stroke: #A80036; stroke-width: 1.0;"/><polygon fill="#A80036" points="2137.3379,229.9531,2146.3379,233.9531,2142.3379,229.9531,2146.3379,225.9531,2137.3379,229.9531" style="stroke: #A80036; stroke-width: 1.0;"/><!--link vp to ku--><path d="M657.5,127.1865 C657.5,147.6491 657.5,167.9531 657.5,167.9531 C657.5,167.9531 2107,167.9531 2107,167.9531 C2107,167.9531 2107,182.7506 2107,182.7506 " fill="none" id="vp-ku" style="stroke: #A80036; stroke-width: 1.0;"/><polygon fill="#A80036" points="2107,187.7506,2111,178.7506,2107,182.7506,2103,178.7506,2107,187.7506" style="stroke: #A80036; stroke-width: 1.0;"/><!--link gha to ku--><path d="M2122,127.1039 C2122,127.1039 2122,182.8959 2122,182.8959 " fill="none" id="gha-ku" style="stroke: #A80036; stroke-width: 1.0;"/><polygon fill="#A80036" points="2122,187.8959,2126,178.8959,2122,182.8959,2118,178.8959,2122,187.8959" style="stroke: #A80036; stroke-width: 1.0;"/><!--link hku to ku--><path d="M2183.25,127.2646 C2183.25,163.0929 2183.25,208.9531 2183.25,208.9531 C2183.25,208.9531 2142.0113,208.9531 2142.0113,208.9531 " fill="none" id="hku-ku" style="stroke: #A80036; stroke-width: 1.0;"/><polygon fill="#A80036" points="2137.0113,208.9531,2146.0113,212.9531,2142.0113,208.9531,2146.0113,204.9531,2137.0113,208.9531" style="stroke: #A80036; stroke-width: 1.0;"/><!--link vp to Kassensystem--><path d="M681.5,127.1415 C681.5,138.6061 681.5,147.9531 681.5,147.9531 C681.5,147.9531 2818.5,147.9531 2818.5,147.9531 C2818.5,147.9531 2818.5,209.3459 2818.5,272.1776 C2818.5,287.8855 2818.5,303.6833 2818.5,318.6343 C2818.5,326.1098 2818.5,333.3736 2818.5,340.3086 C2818.5,343.7761 2818.5,347.1614 2818.5,350.4498 C2818.5,352.0941 2818.5,353.7141 2818.5,355.3081 C2818.5,356.105 2818.5,356.8955 2818.5,357.6793 C2818.5,358.0711 2818.5,374.8615 2818.5,375.25 " fill="none" id="vp-Kassensystem" style="stroke: #A80036; stroke-width: 1.0;"/><!--link gl to date--><path d="M1181.0963,229.9531 C1235.6165,229.9531 1308.5,229.9531 1308.5,229.9531 C1308.5,229.9531 1308.5,343.0422 1308.5,387.6594 " fill="none" id="gl-date" style="stroke: #A80036; stroke-width: 1.0;"/><!--link gl to acc--><path d="M1122.5,271.1626 C1122.5,308.1638 1122.5,360.4286 1122.5,387.5526 " fill="none" id="gl-acc" style="stroke: #A80036; stroke-width: 1.0;"/><!--link ku to bg_ez--><path d="M2137.3444,250.9531 C2246.1403,250.9531 2706.5,250.9531 2706.5,250.9531 C2706.5,250.9531 2706.5,346.6722 2706.5,387.4276 " fill="none" id="ku-bg_ez" style="stroke: #A80036; stroke-width: 1.0;"/><!--link sys to we_br--><path d="M26.25,252.2287 C26.25,387.6412 26.25,1080.9531 26.25,1080.9531 C26.25,1080.9531 2183.5868,1080.9531 2671.305,1080.9531 " fill="none" id="sys-we_br" style="stroke: #A80036; stroke-width: 1.0;"/><!--link bg_ez to bg_we--><path d="M2781.5842,412.9531 C2781.5842,412.9531 3074.5,412.9531 3074.5,412.9531 C3074.5,412.9531 3074.5,678.2637 3074.5,750.8096 " fill="none" id="bg_ez-bg_we" style="stroke: #A80036; stroke-width: 1.0; stroke-dasharray: 7.0,7.0;"/><polygon fill="#A80036" points="2776.5842,412.9531,2785.5842,416.9531,2781.5842,412.9531,2785.5842,408.9531,2776.5842,412.9531" style="stroke: #A80036; stroke-width: 1.0;"/><text fill="#000000" font-family="sans-serif" font-size="13" lengthAdjust="spacingAndGlyphs" textLength="61" x="3019.5" y="599.02">«include»</text><!--link bg_ez to bg_az--><path d="M2767.1156,417.9531 C2767.1156,417.9531 2811,417.9531 2811,417.9531 C2811,417.9531 2811,711.2172 2811,761.622 " fill="none" id="bg_ez-bg_az" style="stroke: #A80036; stroke-width: 1.0; stroke-dasharray: 7.0,7.0;"/><polygon fill="#A80036" points="2762.1156,417.9531,2771.1156,421.9531,2767.1156,417.9531,2771.1156,413.9531,2762.1156,417.9531" style="stroke: #A80036; stroke-width: 1.0;"/><text fill="#000000" font-family="sans-serif" font-size="13" lengthAdjust="spacingAndGlyphs" textLength="61" x="2831.5" y="599.02">«include»</text><!--link bg_az to we_br--><path d="M2835,783.1698 C2835,783.1698 2835,1059.8102 2835,1059.8102 " fill="none" id="bg_az-we_br" style="stroke: #A80036; stroke-width: 1.0; stroke-dasharray: 7.0,7.0;"/><polygon fill="#A80036" points="2835,1064.8102,2839,1055.8102,2835,1059.8102,2831,1055.8102,2835,1064.8102" style="stroke: #A80036; stroke-width: 1.0;"/><text fill="#000000" font-family="sans-serif" font-size="13" lengthAdjust="spacingAndGlyphs" textLength="61" x="2831.5" y="932.02">«include»</text><!--link bg_we to we_br--><path d="M3074.5,787.0761 C3074.5,853.6646 3074.5,1080.9531 3074.5,1080.9531 C3074.5,1080.9531 2870.7408,1080.9531 2870.7408,1080.9531 " fill="none" id="bg_we-we_br" style="stroke: #A80036; stroke-width: 1.0; stroke-dasharray: 7.0,7.0;"/><polygon fill="#A80036" points="2865.7408,1080.9531,2874.7408,1084.9531,2870.7408,1080.9531,2874.7408,1076.9531,2865.7408,1080.9531" style="stroke: #A80036; stroke-width: 1.0;"/><text fill="#000000" font-family="sans-serif" font-size="13" lengthAdjust="spacingAndGlyphs" textLength="61" x="3019.5" y="932.02">«include»</text><!--link we_br to bg_ez--><path d="M2727.5,1060.7367 C2727.5,1060.7367 2727.5,428.0404 2727.5,428.0404 " fill="none" id="we_br-bg_ez" style="stroke: #A80036; stroke-width: 1.0; stroke-dasharray: 7.0,7.0;"/><polygon fill="#A80036" points="2727.5,423.0404,2723.5,432.0404,2727.5,428.0404,2731.5,432.0404,2727.5,423.0404" style="stroke: #A80036; stroke-width: 1.0;"/><text fill="#000000" font-family="sans-serif" font-size="13" lengthAdjust="spacingAndGlyphs" textLength="61" x="2707.5" y="773.52">«include»</text><!--link l_st to g_st--><path d="M2335.75,423.8214 C2335.75,423.8214 2335.75,755.8466 2335.75,755.8466 " fill="none" id="l_st-g_st" style="stroke: #A80036; stroke-width: 1.0; stroke-dasharray: 7.0,7.0;"/><polygon fill="#A80036" points="2335.75,418.8214,2331.75,427.8214,2335.75,423.8214,2339.75,427.8214,2335.75,418.8214" style="stroke: #A80036; stroke-width: 1.0;"/><text fill="#000000" font-family="sans-serif" font-size="13" lengthAdjust="spacingAndGlyphs" textLength="60" x="2303.5" y="599.02">«extend»</text><!--link l_st to azw--><path d="M2438.75,422.9855 C2438.75,422.9855 2438.75,742.6009 2438.75,742.6009 " fill="none" id="l_st-azw" style="stroke: #A80036; stroke-width: 1.0; stroke-dasharray: 7.0,7.0;"/><polygon fill="#A80036" points="2438.75,747.6009,2442.75,738.6009,2438.75,742.6009,2434.75,738.6009,2438.75,747.6009" style="stroke: #A80036; stroke-width: 1.0;"/><text fill="#000000" font-family="sans-serif" font-size="13" lengthAdjust="spacingAndGlyphs" textLength="61" x="2462.5" y="599.02">«include»</text><!--link a to a--><path d="M2144.25,363.7532 C2144.25,341.2166 2144.25,317.9531 2144.25,317.9531 C2144.25,317.9531 2162,317.9531 2162,317.9531 C2162,317.9531 2162,508.9531 2162,508.9531 C2162,508.9531 2134.5,508.9531 2134.5,508.9531 C2134.5,508.9531 2134.5,475.7486 2134.5,446.9541 " fill="none" id="a-a" style="stroke: #A80036; stroke-width: 1.0; stroke-dasharray: 7.0,7.0;"/><!--link vp to inv--><path d="M633.1565,85.9531 C527.5895,85.9531 320.5,85.9531 320.5,85.9531 C320.5,85.9531 320.5,328.3911 320.5,390.8946 " fill="none" id="vp-inv" style="stroke: #A80036; stroke-width: 1.0;"/><!--link vp to et_dr--><path d="M729.5,126.9595 C729.5,199.3384 729.5,345.3178 729.5,391.2691 " fill="none" id="vp-et_dr" style="stroke: #A80036; stroke-width: 1.0;"/><!--link vp to eg_nkd--><path d="M705.5,127.2363 C705.5,209.8055 705.5,385.9531 705.5,385.9531 C705.5,385.9531 613.9273,385.9531 551.1499,385.9531 " fill="none" id="vp-eg_nkd" style="stroke: #A80036; stroke-width: 1.0;"/><!--link gl to grokudb_imp--><path d="M1063.7932,261.9531 C999.2249,261.9531 904.5,261.9531 904.5,261.9531 C904.5,261.9531 904.5,340.5835 904.5,381.4344 " fill="none" id="gl-grokudb_imp" style="stroke: #A80036; stroke-width: 1.0;"/><!--link sys to vp_calc--><path d="M61.75,252.1017 C61.75,289.7953 61.75,364.1365 61.75,393.3028 " fill="none" id="sys-vp_calc" style="stroke: #A80036; stroke-width: 1.0;"/><!--link Produkt tauschen to Bestellvorgang erfassen--><!--link Bestellvorgang erfassen to Waren und/oder Geldbewegung\narchivieren--><!--link Produkt tauschen to Stornierung archivieren--><!--link Stornierung archivieren to Ware einkaufen--><!--link Ware einkaufen to gaw--><!--link Stornierung archivieren to Warenscanvorgang abschließen--><!--
@startuml
skinparam titleBorderRoundCorner 15
skinparam titleBorderThickness 2
skinparam titleBorderColor blue
skinparam titleBackgroundColor Chartreuse
skinparam groupInheritance 3
skinparam linetype ortho



title Anwendungsfall - Diagramm


:Kunde: as ku
:Normalkunde: as nku
:Großhandelsabnehmer: as gha
:Hauskunde: as hku


:Verkaufspersonal: as vp
:Geschäftsleitung: as gl

nku - -> ku
vp - -> ku
gha - -> ku
hku - -> ku

database "System" as sys

rectangle "coole Box"{
    (Inventur) as inv

    (Account erstellen) as acc
    (Termin eintragen) as date
    
    (Produkt tauschen)
    (Großkundendatenbank\nimportieren) as grokudb_imp
    (Verkaufspreis kalkulieren) as vp_calc
    (Eingabe von\nNormalkundendaten) as eg_nkd
    (Etikett drucken) as et_dr
    (Bestellvorgang erfassen)
    (Waren und/oder Geldbewegung\narchivieren)
    (Stornierung archivieren)
    (Ware einkaufen)
    (günstigsten Anbieter wählen) as gaw
    (Warenscanvorgang abschließen)
    



    package "Kassensystem"{
            (Bargeld einzahlen) as bg_ez
            (Bargeld auszahlen) as bg_az
            (Bargeld wechseln) as bg_we
            (Wechselgeld berechnen) as we_br

            (einfache Stornierung) as l_st
            (globale Stornierung) as g_st

            (Artikel zu Warenkorb hinzufügen) as azw

            vp - - Kassensystem

            gl - - date
            gl - - acc



            ku - - bg_ez



            sys - - we_br

            bg_ez <.. bg_we: <<include>>
            bg_ez <.. bg_az: <<include>>
            bg_az ..> we_br: <<include>>
            bg_we ..> we_br: <<include>>
            we_br ..> bg_ez: <<include>>
            l_st <.. g_st: <<extend>>
            l_st ..> azw: <<include>>

        }

    package - - - {
        :i_i_i_i: as a
        a .. a
    }





    vp - - inv
    vp - - et_dr
    vp - - eg_nkd



    gl - - grokudb_imp

    sys - - vp_calc





}

@enduml

PlantUML version 1.2018.11(Sat Sep 22 18:43:53 CEST 2018)
(GPL source distribution)
Java Runtime: OpenJDK Runtime Environment
JVM: OpenJDK 64-Bit Server VM
Java Version: 10.0.2+13-Ubuntu-1ubuntu0.18.04.2
Operating System: Linux
OS Version: 4.15.0-36-generic
Default Encoding: UTF-8
Language: de
Country: DE
--></g></svg>