<?xml version="1.0" encoding="UTF-8" standalone="no"?><svg xmlns="http://www.w3.org/2000/svg" xmlns:xlink="http://www.w3.org/1999/xlink" contentScriptType="application/ecmascript" contentStyleType="text/css" height="1251px" preserveAspectRatio="none" style="width:3421px;height:1251px;" version="1.1" viewBox="0 0 3421 1251" width="3421px" zoomAndPan="magnify"><defs><filter height="300%" id="f1g1phif5p0slu" width="300%" x="-1" y="-1"><feGaussianBlur result="blurOut" stdDeviation="2.0"/><feColorMatrix in="blurOut" result="blurOut2" type="matrix" values="0 0 0 0 0 0 0 0 0 0 0 0 0 0 0 0 0 0 .4 0"/><feOffset dx="4.0" dy="4.0" in="blurOut2" result="blurOut3"/><feBlend in="SourceGraphic" in2="blurOut3" mode="normal"/></filter></defs><g><rect fill="#7FFF00" height="30.9531" rx="7.5" ry="7.5" style="stroke: #0000FF; stroke-width: 2.0;" width="266" x="1579" y="2"/><text fill="#000000" font-family="sans-serif" font-size="18" lengthAdjust="spacingAndGlyphs" textLength="250" x="1587" y="23.708">Anwendungsfall - Diagramm</text><!--cluster Accountverwaltung--><polygon fill="#FFFFFF" points="328.5,659.9531,488.5,659.9531,495.5,682.25,498.5,682.25,498.5,799.9531,328.5,799.9531,328.5,659.9531" style="stroke: #008000; stroke-width: 1.5;"/><line style="stroke: #008000; stroke-width: 1.5;" x1="328.5" x2="495.5" y1="682.25" y2="682.25"/><text fill="#808080" font-family="sans-serif" font-size="14" font-weight="bold" lengthAdjust="spacingAndGlyphs" textLength="154" x="332.5" y="674.9482">Accountverwaltung</text><!--cluster Kassensystem--><polygon fill="#FFFFFF" points="1103,204.9531,1224,204.9531,1231,227.25,3399,227.25,3399,465.9531,1103,465.9531,1103,204.9531" style="stroke: #008000; stroke-width: 1.5;"/><line style="stroke: #008000; stroke-width: 1.5;" x1="1103" x2="1231" y1="227.25" y2="227.25"/><text fill="#808080" font-family="sans-serif" font-size="14" font-weight="bold" lengthAdjust="spacingAndGlyphs" textLength="115" x="1107" y="219.9482">Kassensystem</text><!--cluster Inventur--><polygon fill="#FFFFFF" points="1871,473.9531,1943,473.9531,1950,496.25,2151,496.25,2151,791.9531,1871,791.9531,1871,473.9531" style="stroke: #008000; stroke-width: 1.5;"/><line style="stroke: #008000; stroke-width: 1.5;" x1="1871" x2="1950" y1="496.25" y2="496.25"/><text fill="#808080" font-family="sans-serif" font-size="14" font-weight="bold" lengthAdjust="spacingAndGlyphs" textLength="66" x="1875" y="488.9482">Inventur</text><!--cluster Bestellung--><polygon fill="#FFFFFF" points="1473.5,799.9531,1562.5,799.9531,1569.5,822.25,2560,822.25,2560,973.9531,1473.5,973.9531,1473.5,799.9531" style="stroke: #008000; stroke-width: 1.5;"/><line style="stroke: #008000; stroke-width: 1.5;" x1="1473.5" x2="1569.5" y1="822.25" y2="822.25"/><text fill="#808080" font-family="sans-serif" font-size="14" font-weight="bold" lengthAdjust="spacingAndGlyphs" textLength="83" x="1477.5" y="814.9482">Bestellung</text><!--cluster Händlerverwaltung--><polygon fill="#FFFFFF" points="323.5,51.9531,479.5,51.9531,486.5,74.25,994,74.25,994,228.9531,323.5,228.9531,323.5,51.9531" style="stroke: #008000; stroke-width: 1.5;"/><line style="stroke: #008000; stroke-width: 1.5;" x1="323.5" x2="486.5" y1="74.25" y2="74.25"/><text fill="#808080" font-family="sans-serif" font-size="14" font-weight="bold" lengthAdjust="spacingAndGlyphs" textLength="150" x="327.5" y="66.9482">Händlerverwaltung</text><!--cluster Produktverwaltung--><polygon fill="#FFFFFF" points="307,807.9531,464,807.9531,471,830.25,1058,830.25,1058,1104.9531,307,1104.9531,307,807.9531" style="stroke: #008000; stroke-width: 1.5;"/><line style="stroke: #008000; stroke-width: 1.5;" x1="307" x2="471" y1="830.25" y2="830.25"/><text fill="#808080" font-family="sans-serif" font-size="14" font-weight="bold" lengthAdjust="spacingAndGlyphs" textLength="151" x="311" y="822.9482">Produktverwaltung</text><ellipse cx="413.4395" cy="774.041" fill="#FEFECE" filter="url(#f1g1phif5p0slu)" rx="75.9395" ry="17.5879" style="stroke: #A80036; stroke-width: 1.5;"/><text fill="#000000" font-family="sans-serif" font-size="14" lengthAdjust="spacingAndGlyphs" textLength="121" x="352.9395" y="778.6895">Account erstellen</text><ellipse cx="413.3797" cy="704.1291" fill="#FEFECE" filter="url(#f1g1phif5p0slu)" rx="73.8797" ry="17.1759" style="stroke: #A80036; stroke-width: 1.5;"/><text fill="#000000" font-family="sans-serif" font-size="14" lengthAdjust="spacingAndGlyphs" textLength="116" x="355.3797" y="708.7775">Account löschen</text><ellipse cx="1193.1543" cy="335.9768" fill="#FEFECE" filter="url(#f1g1phif5p0slu)" rx="58.1543" ry="14.5236" style="stroke: #A80036; stroke-width: 1.5;"/><text fill="#000000" font-family="sans-serif" font-size="14" lengthAdjust="spacingAndGlyphs" textLength="78" x="1154.1543" y="340.6252">Barzahlung</text><ellipse cx="1573.0637" cy="340.9659" fill="#FEFECE" filter="url(#f1g1phif5p0slu)" rx="73.0637" ry="17.0127" style="stroke: #A80036; stroke-width: 1.5;"/><text fill="#000000" font-family="sans-serif" font-size="14" lengthAdjust="spacingAndGlyphs" textLength="114" x="1516.0637" y="345.6143">Rückgeld geben</text><ellipse cx="2010.8093" cy="335.715" fill="#FEFECE" filter="url(#f1g1phif5p0slu)" rx="96.8093" ry="21.7619" style="stroke: #A80036; stroke-width: 1.5;"/><text fill="#000000" font-family="sans-serif" font-size="14" lengthAdjust="spacingAndGlyphs" textLength="169" x="1926.3093" y="340.3634">Wechselgeld berechnen</text><ellipse cx="2469.1446" cy="331.082" fill="#FEFECE" filter="url(#f1g1phif5p0slu)" rx="141.1446" ry="30.6289" style="stroke: #A80036; stroke-width: 1.5;"/><text fill="#000000" font-family="sans-serif" font-size="14" lengthAdjust="spacingAndGlyphs" textLength="264" x="2337.1446" y="335.7305">Summenberechnung der Grundpreise</text><ellipse cx="2011.2133" cy="417.7958" fill="#FEFECE" filter="url(#f1g1phif5p0slu)" rx="79.7133" ry="18.3427" style="stroke: #A80036; stroke-width: 1.5;"/><text fill="#000000" font-family="sans-serif" font-size="14" lengthAdjust="spacingAndGlyphs" textLength="130" x="1946.2133" y="422.4442">Rabattberechnung</text><ellipse cx="1572.8359" cy="422.9203" fill="#FEFECE" filter="url(#f1g1phif5p0slu)" rx="112.8359" ry="24.9672" style="stroke: #A80036; stroke-width: 1.5;"/><text fill="#000000" font-family="sans-serif" font-size="14" lengthAdjust="spacingAndGlyphs" textLength="204" x="1470.8359" y="427.5687">Mehrwehrtsteuerberechnung</text><ellipse cx="1192.8427" cy="422.7217" fill="#FEFECE" filter="url(#f1g1phif5p0slu)" rx="81.8427" ry="18.7685" style="stroke: #A80036; stroke-width: 1.5;"/><text fill="#000000" font-family="sans-serif" font-size="14" lengthAdjust="spacingAndGlyphs" textLength="135" x="1125.3427" y="427.3701">Endpreis ausgeben</text><ellipse cx="2917.228" cy="402.9987" fill="#FEFECE" filter="url(#f1g1phif5p0slu)" rx="85.728" ry="19.5456" style="stroke: #A80036; stroke-width: 1.5;"/><text fill="#000000" font-family="sans-serif" font-size="14" lengthAdjust="spacingAndGlyphs" textLength="144" x="2845.228" y="407.6472">einfache Stornierung</text><ellipse cx="3307.3427" cy="422.7217" fill="#FEFECE" filter="url(#f1g1phif5p0slu)" rx="81.8427" ry="18.7685" style="stroke: #A80036; stroke-width: 1.5;"/><text fill="#000000" font-family="sans-serif" font-size="14" lengthAdjust="spacingAndGlyphs" textLength="135" x="3239.8427" y="427.3701">globale Stornierung</text><ellipse cx="2917.1802" cy="299.7892" fill="#FEFECE" filter="url(#f1g1phif5p0slu)" rx="122.1802" ry="26.836" style="stroke: #A80036; stroke-width: 1.5;"/><text fill="#000000" font-family="sans-serif" font-size="14" lengthAdjust="spacingAndGlyphs" textLength="224" x="2805.1802" y="304.4376">Artikel zu Warenkorb hinzufügen</text><ellipse cx="3307.5616" cy="293.0655" fill="#FEFECE" filter="url(#f1g1phif5p0slu)" rx="83.5616" ry="19.1123" style="stroke: #A80036; stroke-width: 1.5;"/><text fill="#000000" font-family="sans-serif" font-size="14" lengthAdjust="spacingAndGlyphs" textLength="139" x="3238.0616" y="297.7139">Produkt einscannen</text><ellipse cx="2010.8548" cy="519.1241" fill="#FEFECE" filter="url(#f1g1phif5p0slu)" rx="76.3548" ry="17.671" style="stroke: #A80036; stroke-width: 1.5;"/><text fill="#000000" font-family="sans-serif" font-size="14" lengthAdjust="spacingAndGlyphs" textLength="122" x="1949.8548" y="523.7725">Bestand erfassen</text><ellipse cx="2011.0975" cy="754.7726" fill="#FEFECE" filter="url(#f1g1phif5p0slu)" rx="132.0975" ry="28.8195" style="stroke: #A80036; stroke-width: 1.5;"/><text fill="#000000" font-family="sans-serif" font-size="14" lengthAdjust="spacingAndGlyphs" textLength="245" x="1888.5975" y="759.4211">abweichenden Bestand festgestellt</text><ellipse cx="2010.9738" cy="667.8479" fill="#FEFECE" filter="url(#f1g1phif5p0slu)" rx="99.9738" ry="22.3948" style="stroke: #A80036; stroke-width: 1.5;"/><text fill="#000000" font-family="sans-serif" font-size="14" lengthAdjust="spacingAndGlyphs" textLength="176" x="1922.9738" y="672.4963">Manager benachrichtigen</text><ellipse cx="2010.9934" cy="591.1518" fill="#FEFECE" filter="url(#f1g1phif5p0slu)" rx="83.9934" ry="19.1987" style="stroke: #A80036; stroke-width: 1.5;"/><text fill="#000000" font-family="sans-serif" font-size="14" lengthAdjust="spacingAndGlyphs" textLength="140" x="1940.9934" y="595.8002">Bestand berichtigen</text><ellipse cx="1572.9431" cy="931.1417" fill="#FEFECE" filter="url(#f1g1phif5p0slu)" rx="91.4431" ry="20.6886" style="stroke: #A80036; stroke-width: 1.5;"/><text fill="#000000" font-family="sans-serif" font-size="14" lengthAdjust="spacingAndGlyphs" textLength="157" x="1494.4431" y="935.7902">Bestellung abschicken</text><ellipse cx="2010.8591" cy="931.1249" fill="#FEFECE" filter="url(#f1g1phif5p0slu)" rx="96.3591" ry="21.6718" style="stroke: #A80036; stroke-width: 1.5;"/><text fill="#000000" font-family="sans-serif" font-size="14" lengthAdjust="spacingAndGlyphs" textLength="168" x="1926.8591" y="935.7734">günstigsten Preis finden</text><ellipse cx="2469.1307" cy="930.9793" fill="#FEFECE" filter="url(#f1g1phif5p0slu)" rx="83.1307" ry="19.0261" style="stroke: #A80036; stroke-width: 1.5;"/><text fill="#000000" font-family="sans-serif" font-size="14" lengthAdjust="spacingAndGlyphs" textLength="138" x="2400.1307" y="935.6277">Bestellung erstellen</text><ellipse cx="1572.9431" cy="848.1417" fill="#FEFECE" filter="url(#f1g1phif5p0slu)" rx="91.4431" ry="20.6886" style="stroke: #A80036; stroke-width: 1.5;"/><text fill="#000000" font-family="sans-serif" font-size="14" lengthAdjust="spacingAndGlyphs" textLength="157" x="1494.4431" y="852.7902">Bestellung empfangen</text><ellipse cx="2010.8371" cy="850.1205" fill="#FEFECE" filter="url(#f1g1phif5p0slu)" rx="101.3371" ry="22.6674" style="stroke: #A80036; stroke-width: 1.5;"/><text fill="#000000" font-family="sans-serif" font-size="14" lengthAdjust="spacingAndGlyphs" textLength="179" x="1921.3371" y="854.769">Bestellung inventarisieren</text><ellipse cx="413.3427" cy="166.7217" fill="#FEFECE" filter="url(#f1g1phif5p0slu)" rx="81.8427" ry="18.7685" style="stroke: #A80036; stroke-width: 1.5;"/><text fill="#000000" font-family="sans-serif" font-size="14" lengthAdjust="spacingAndGlyphs" textLength="135" x="345.8427" y="171.3701">Händler hinzufügen</text><ellipse cx="413.2526" cy="95.8036" fill="#FEFECE" filter="url(#f1g1phif5p0slu)" rx="72.2526" ry="16.8505" style="stroke: #A80036; stroke-width: 1.5;"/><text fill="#000000" font-family="sans-serif" font-size="14" lengthAdjust="spacingAndGlyphs" textLength="112" x="357.2526" y="100.4521">Händler löschen</text><ellipse cx="888.1626" cy="166.9857" fill="#FEFECE" filter="url(#f1g1phif5p0slu)" rx="98.1626" ry="22.0325" style="stroke: #A80036; stroke-width: 1.5;"/><text fill="#000000" font-family="sans-serif" font-size="14" lengthAdjust="spacingAndGlyphs" textLength="172" x="802.1626" y="171.6341">Händlerdaten bearbeiten</text><ellipse cx="413.2712" cy="1012.8074" fill="#FEFECE" filter="url(#f1g1phif5p0slu)" rx="82.2712" ry="18.8542" style="stroke: #A80036; stroke-width: 1.5;"/><text fill="#000000" font-family="sans-serif" font-size="14" lengthAdjust="spacingAndGlyphs" textLength="136" x="345.2712" y="1017.4558">Produkt hinzufügen</text><ellipse cx="413.6576" cy="941.8846" fill="#FEFECE" filter="url(#f1g1phif5p0slu)" rx="72.6576" ry="16.9315" style="stroke: #A80036; stroke-width: 1.5;"/><text fill="#000000" font-family="sans-serif" font-size="14" lengthAdjust="spacingAndGlyphs" textLength="113" x="357.1576" y="946.5331">Produkt löschen</text><ellipse cx="413.6147" cy="868.0761" fill="#FEFECE" filter="url(#f1g1phif5p0slu)" rx="98.6147" ry="22.1229" style="stroke: #A80036; stroke-width: 1.5;"/><text fill="#000000" font-family="sans-serif" font-size="14" lengthAdjust="spacingAndGlyphs" textLength="173" x="327.1147" y="872.7245">Produktdaten bearbeiten</text><ellipse cx="888.0951" cy="1070.1722" fill="#FEFECE" filter="url(#f1g1phif5p0slu)" rx="121.5951" ry="26.719" style="stroke: #A80036; stroke-width: 1.5;"/><text fill="#000000" font-family="sans-serif" font-size="14" lengthAdjust="spacingAndGlyphs" textLength="214" x="781.0951" y="1072.74">Großhändlerproduktbestellliste</text><text fill="#000000" font-family="sans-serif" font-size="14" lengthAdjust="spacingAndGlyphs" textLength="79" x="848.5951" y="1089.0369">importieren</text><ellipse cx="887.9346" cy="974.0401" fill="#FEFECE" filter="url(#f1g1phif5p0slu)" rx="158.4346" ry="34.0869" style="stroke: #A80036; stroke-width: 1.5;"/><text fill="#000000" font-family="sans-serif" font-size="14" lengthAdjust="spacingAndGlyphs" textLength="300" x="737.9346" y="978.6885">Produkt zur Verkaufsdatenbank hinzufügen</text><ellipse cx="887.8149" cy="869.7161" fill="#FEFECE" filter="url(#f1g1phif5p0slu)" rx="161.8149" ry="34.763" style="stroke: #A80036; stroke-width: 1.5;"/><text fill="#000000" font-family="sans-serif" font-size="14" lengthAdjust="spacingAndGlyphs" textLength="307" x="734.3149" y="874.3645">Produkt von der Verkaufsdatenbank löschen</text><!--entity ku--><ellipse cx="888" cy="318.4531" fill="#FEFECE" filter="url(#f1g1phif5p0slu)" rx="8" ry="8" style="stroke: #A80036; stroke-width: 2.0;"/><path d="M888,326.4531 L888,353.4531 M875,334.4531 L901,334.4531 M888,353.4531 L875,368.4531 M888,353.4531 L901,368.4531 " fill="none" filter="url(#f1g1phif5p0slu)" style="stroke: #A80036; stroke-width: 2.0;"/><text fill="#000000" font-family="sans-serif" font-size="14" lengthAdjust="spacingAndGlyphs" textLength="45" x="865.5" y="388.4482">Kunde</text><!--entity nku--><ellipse cx="619" cy="318.4531" fill="#FEFECE" filter="url(#f1g1phif5p0slu)" rx="8" ry="8" style="stroke: #A80036; stroke-width: 2.0;"/><path d="M619,326.4531 L619,353.4531 M606,334.4531 L632,334.4531 M619,353.4531 L606,368.4531 M619,353.4531 L632,368.4531 " fill="none" filter="url(#f1g1phif5p0slu)" style="stroke: #A80036; stroke-width: 2.0;"/><text fill="#000000" font-family="sans-serif" font-size="14" lengthAdjust="spacingAndGlyphs" textLength="92" x="573" y="388.4482">Normalkunde</text><!--entity gha--><ellipse cx="413.5" cy="436.4531" fill="#FEFECE" filter="url(#f1g1phif5p0slu)" rx="8" ry="8" style="stroke: #A80036; stroke-width: 2.0;"/><path d="M413.5,444.4531 L413.5,471.4531 M400.5,452.4531 L426.5,452.4531 M413.5,471.4531 L400.5,486.4531 M413.5,471.4531 L426.5,486.4531 " fill="none" filter="url(#f1g1phif5p0slu)" style="stroke: #A80036; stroke-width: 2.0;"/><text fill="#000000" font-family="sans-serif" font-size="14" lengthAdjust="spacingAndGlyphs" textLength="160" x="333.5" y="506.4482">Großhandelsabnehmer</text><!--entity hku--><ellipse cx="619" cy="436.4531" fill="#FEFECE" filter="url(#f1g1phif5p0slu)" rx="8" ry="8" style="stroke: #A80036; stroke-width: 2.0;"/><path d="M619,444.4531 L619,471.4531 M606,452.4531 L632,452.4531 M619,471.4531 L606,486.4531 M619,471.4531 L632,486.4531 " fill="none" filter="url(#f1g1phif5p0slu)" style="stroke: #A80036; stroke-width: 2.0;"/><text fill="#000000" font-family="sans-serif" font-size="14" lengthAdjust="spacingAndGlyphs" textLength="79" x="579.5" y="506.4482">Hauskunde</text><!--entity vp--><ellipse cx="413.5" cy="318.4531" fill="#FEFECE" filter="url(#f1g1phif5p0slu)" rx="8" ry="8" style="stroke: #A80036; stroke-width: 2.0;"/><path d="M413.5,326.4531 L413.5,353.4531 M400.5,334.4531 L426.5,334.4531 M413.5,353.4531 L400.5,368.4531 M413.5,353.4531 L426.5,368.4531 " fill="none" filter="url(#f1g1phif5p0slu)" style="stroke: #A80036; stroke-width: 2.0;"/><text fill="#000000" font-family="sans-serif" font-size="14" lengthAdjust="spacingAndGlyphs" textLength="120" x="353.5" y="388.4482">Verkaufspersonal</text><!--entity gl--><ellipse cx="130" cy="602.4531" fill="#FEFECE" filter="url(#f1g1phif5p0slu)" rx="8" ry="8" style="stroke: #A80036; stroke-width: 2.0;"/><path d="M130,610.4531 L130,637.4531 M117,618.4531 L143,618.4531 M130,637.4531 L117,652.4531 M130,637.4531 L143,652.4531 " fill="none" filter="url(#f1g1phif5p0slu)" style="stroke: #A80036; stroke-width: 2.0;"/><text fill="#000000" font-family="sans-serif" font-size="14" lengthAdjust="spacingAndGlyphs" textLength="117" x="71.5" y="672.4482">Geschäftsleitung</text><!--entity sys--><path d="M1747,709.4531 C1747,699.4531 1782.5,699.4531 1782.5,699.4531 C1782.5,699.4531 1818,699.4531 1818,709.4531 L1818,734.75 C1818,744.75 1782.5,744.75 1782.5,744.75 C1782.5,744.75 1747,744.75 1747,734.75 L1747,709.4531 " fill="#FEFECE" filter="url(#f1g1phif5p0slu)" style="stroke: #000000; stroke-width: 1.5;"/><path d="M1747,709.4531 C1747,719.4531 1782.5,719.4531 1782.5,719.4531 C1782.5,719.4531 1818,719.4531 1818,709.4531 " fill="none" style="stroke: #000000; stroke-width: 1.5;"/><text fill="#000000" font-family="sans-serif" font-size="14" lengthAdjust="spacingAndGlyphs" textLength="51" x="1757" y="736.4482">System</text><ellipse cx="413.7002" cy="633.7932" fill="#FEFECE" filter="url(#f1g1phif5p0slu)" rx="74.7002" ry="17.34" style="stroke: #A80036; stroke-width: 1.5;"/><text fill="#000000" font-family="sans-serif" font-size="14" lengthAdjust="spacingAndGlyphs" textLength="118" x="354.7002" y="638.4416">Termin eintragen</text><ellipse cx="129.9543" cy="1133.744" fill="#FEFECE" filter="url(#f1g1phif5p0slu)" rx="69.4543" ry="16.2909" style="stroke: #A80036; stroke-width: 1.5;"/><text fill="#000000" font-family="sans-serif" font-size="14" lengthAdjust="spacingAndGlyphs" textLength="105" x="77.4543" y="1138.3924">Etikett drucken</text><ellipse cx="129.9327" cy="1213.1397" fill="#FEFECE" filter="url(#f1g1phif5p0slu)" rx="123.9327" ry="27.1865" style="stroke: #A80036; stroke-width: 1.5;"/><text fill="#000000" font-family="sans-serif" font-size="14" lengthAdjust="spacingAndGlyphs" textLength="222" x="18.9327" y="1216.3371">Waren und/oder Geldbewegung</text><text fill="#000000" font-family="sans-serif" font-size="14" lengthAdjust="spacingAndGlyphs" textLength="75" x="92.4327" y="1232.634">archivieren</text><ellipse cx="413.2771" cy="1133.9085" fill="#FEFECE" filter="url(#f1g1phif5p0slu)" rx="92.7771" ry="20.9554" style="stroke: #A80036; stroke-width: 1.5;"/><text fill="#000000" font-family="sans-serif" font-size="14" lengthAdjust="spacingAndGlyphs" textLength="160" x="333.2771" y="1138.557">Stornierung archivieren</text><!--link nku to ku--><path d="M665.2427,349.9531 C665.2427,349.9531 860.3873,349.9531 860.3873,349.9531 " fill="none" id="nku-ku" style="stroke: #A80036; stroke-width: 1.0;"/><polygon fill="#A80036" points="865.3873,349.9531,856.3873,345.9531,860.3873,349.9531,856.3873,353.9531,865.3873,349.9531" style="stroke: #A80036; stroke-width: 1.0;"/><!--link vp to hku--><path d="M473.6131,349.9531 C490.3285,349.9531 504,349.9531 504,349.9531 C504,349.9531 504,454.1198 504,454.1198 C504,454.1198 574.4235,454.1198 574.4235,454.1198 " fill="none" id="vp-hku" style="stroke: #A80036; stroke-width: 1.0;"/><polygon fill="#A80036" points="579.4235,454.1198,570.4235,450.1198,574.4235,454.1198,570.4235,458.1198,579.4235,454.1198" style="stroke: #A80036; stroke-width: 1.0;"/><!--link gha to hku--><path d="M493.5401,481.7864 C493.5401,481.7864 574.3148,481.7864 574.3148,481.7864 " fill="none" id="gha-hku" style="stroke: #A80036; stroke-width: 1.0;"/><polygon fill="#A80036" points="579.3148,481.7864,570.3148,477.7864,574.3148,481.7864,570.3148,485.7864,579.3148,481.7864" style="stroke: #A80036; stroke-width: 1.0;"/><!--link hku to ku--><path d="M658.6919,434.2031 C733.5187,434.2031 888,434.2031 888,434.2031 C888,434.2031 888,396.5845 888,396.5845 " fill="none" id="hku-ku" style="stroke: #A80036; stroke-width: 1.0;"/><polygon fill="#A80036" points="888,391.5845,884,400.5845,888,396.5845,892,400.5845,888,391.5845" style="stroke: #A80036; stroke-width: 1.0;"/><!--link vp to Kassensystem--><path d="M444,308.2847 C444,282.7594 444,254.9531 444,254.9531 C444,254.9531 625.4442,254.9531 809.7234,254.9531 C901.863,254.9531 994.7113,254.9531 1065.9423,254.9531 C1074.8462,254.9531 1083.4123,254.9531 1091.597,254.9531 C1093.6432,254.9531 1095.6656,254.9531 1097.6634,254.9531 C1098.6623,254.9531 1099.6551,254.9531 1100.6417,254.9531 " fill="none" id="vp-Kassensystem" style="stroke: #A80036; stroke-width: 1.0;"/><!--link gl to date--><path d="M188.7414,633.9531 C232.2881,633.9531 291.9727,633.9531 338.8935,633.9531 " fill="none" id="gl-date" style="stroke: #A80036; stroke-width: 1.0;"/><!--link gl to acc--><path d="M130,675.5787 C130,716.8469 130,773.9531 130,773.9531 C130,773.9531 253.1858,773.9531 337.1543,773.9531 " fill="none" id="gl-acc" style="stroke: #A80036; stroke-width: 1.0;"/><!--link gl to accdel--><path d="M160,675.4814 C160,690.5547 160,703.9531 160,703.9531 C160,703.9531 264.6718,703.9531 339.4958,703.9531 " fill="none" id="gl-accdel" style="stroke: #A80036; stroke-width: 1.0;"/><!--link gl to vp--><path d="M150,592.3529 C150,513.4692 150,349.9531 150,349.9531 C150,349.9531 348.3781,349.9531 348.3781,349.9531 " fill="none" id="gl-vp" style="stroke: #A80036; stroke-width: 1.0;"/><polygon fill="#A80036" points="353.3781,349.9531,344.3781,345.9531,348.3781,349.9531,344.3781,353.9531,353.3781,349.9531" style="stroke: #A80036; stroke-width: 1.0;"/><!--link ku to bg_ez--><path d="M910.9246,335.9531 C958.0274,335.9531 1066.9611,335.9531 1134.8352,335.9531 " fill="none" id="ku-bg_ez" style="stroke: #A80036; stroke-width: 1.0;"/><!--link sys to we_br--><path d="M1771,699.3196 C1771,618.1721 1771,346.6198 1771,346.6198 C1771,346.6198 1857.0067,346.6198 1926.0472,346.6198 " fill="none" id="sys-we_br" style="stroke: #A80036; stroke-width: 1.0;"/><!--link bg_ez to bg_az--><path d="M1256.1275,337.2031 C1256.1275,337.2031 1501.5898,337.2031 1501.5898,337.2031 " fill="none" id="bg_ez-bg_az" style="stroke: #A80036; stroke-width: 1.0; stroke-dasharray: 7.0,7.0;"/><polygon fill="#A80036" points="1251.1275,337.2031,1260.1275,341.2031,1256.1275,337.2031,1260.1275,333.2031,1251.1275,337.2031" style="stroke: #A80036; stroke-width: 1.0;"/><text fill="#000000" font-family="sans-serif" font-size="13" lengthAdjust="spacingAndGlyphs" textLength="61" x="1337" y="332.02">«include»</text><!--link bg_az to we_br--><path d="M1641.9193,335.2864 C1641.9193,335.2864 1909.0144,335.2864 1909.0144,335.2864 " fill="none" id="bg_az-we_br" style="stroke: #A80036; stroke-width: 1.0; stroke-dasharray: 7.0,7.0;"/><polygon fill="#A80036" points="1914.0144,335.2864,1905.0144,331.2864,1909.0144,335.2864,1905.0144,339.2864,1914.0144,335.2864" style="stroke: #A80036; stroke-width: 1.0;"/><text fill="#000000" font-family="sans-serif" font-size="13" lengthAdjust="spacingAndGlyphs" textLength="61" x="1752" y="332.02">«include»</text><!--link we_br to bg_ez--><path d="M1956.5267,317.7031 C1778.1599,317.7031 1223,317.7031 1223,317.7031 C1223,317.7031 1223,318.4775 1223,318.4775 " fill="none" id="we_br-bg_ez" style="stroke: #A80036; stroke-width: 1.0; stroke-dasharray: 7.0,7.0;"/><polygon fill="#A80036" points="1223,323.4775,1227,314.4775,1223,318.4775,1219,314.4775,1223,323.4775" style="stroke: #A80036; stroke-width: 1.0;"/><text fill="#000000" font-family="sans-serif" font-size="13" lengthAdjust="spacingAndGlyphs" textLength="61" x="1542.5" y="250.02">«include»</text><!--link l_st to g_st--><path d="M2994.992,413.2031 C2994.992,413.2031 3236.84,413.2031 3236.84,413.2031 " fill="none" id="l_st-g_st" style="stroke: #A80036; stroke-width: 1.0; stroke-dasharray: 7.0,7.0;"/><polygon fill="#A80036" points="2989.992,413.2031,2998.992,417.2031,2994.992,413.2031,2998.992,409.2031,2989.992,413.2031" style="stroke: #A80036; stroke-width: 1.0;"/><text fill="#000000" font-family="sans-serif" font-size="13" lengthAdjust="spacingAndGlyphs" textLength="60" x="3101.5" y="419.02">«extend»</text><!--link l_st to scan--><path d="M2992.3887,393.7031 C3106.0088,393.7031 3308,393.7031 3308,393.7031 C3308,393.7031 3308,317.3787 3308,317.3787 " fill="none" id="l_st-scan" style="stroke: #A80036; stroke-width: 1.0; stroke-dasharray: 7.0,7.0;"/><polygon fill="#A80036" points="3308,312.3787,3304,321.3787,3308,317.3787,3312,321.3787,3308,312.3787" style="stroke: #A80036; stroke-width: 1.0;"/><text fill="#000000" font-family="sans-serif" font-size="13" lengthAdjust="spacingAndGlyphs" textLength="61" x="3101" y="332.02">«include»</text><!--link azw to scan--><path d="M3034.9574,292.9531 C3034.9574,292.9531 3218.9402,292.9531 3218.9402,292.9531 " fill="none" id="azw-scan" style="stroke: #A80036; stroke-width: 1.0; stroke-dasharray: 7.0,7.0;"/><polygon fill="#A80036" points="3223.9402,292.9531,3214.9402,288.9531,3218.9402,292.9531,3214.9402,296.9531,3223.9402,292.9531" style="stroke: #A80036; stroke-width: 1.0;"/><text fill="#000000" font-family="sans-serif" font-size="13" lengthAdjust="spacingAndGlyphs" textLength="61" x="3101" y="245.02">«include»</text><!--link sdg to azw--><path d="M2585.5372,313.7031 C2585.5372,313.7031 2806.7649,313.7031 2806.7649,313.7031 " fill="none" id="sdg-azw" style="stroke: #A80036; stroke-width: 1.0; stroke-dasharray: 7.0,7.0;"/><polygon fill="#A80036" points="2811.7649,313.7031,2802.7649,309.7031,2806.7649,313.7031,2802.7649,317.7031,2811.7649,313.7031" style="stroke: #A80036; stroke-width: 1.0;"/><text fill="#000000" font-family="sans-serif" font-size="13" lengthAdjust="spacingAndGlyphs" textLength="61" x="2672" y="307.02">«include»</text><!--link rab to sdg--><path d="M2084.8013,410.9531 C2186.4177,410.9531 2357,410.9531 2357,410.9531 C2357,410.9531 2357,354.5078 2357,354.5078 " fill="none" id="rab-sdg" style="stroke: #A80036; stroke-width: 1.0; stroke-dasharray: 7.0,7.0;"/><polygon fill="#A80036" points="2357,349.5078,2353,358.5078,2357,354.5078,2361,358.5078,2357,349.5078" style="stroke: #A80036; stroke-width: 1.0;"/><text fill="#000000" font-family="sans-serif" font-size="13" lengthAdjust="spacingAndGlyphs" textLength="61" x="2205" y="404.02">«include»</text><!--link mwst to rab--><path d="M1683.8089,417.9531 C1683.8089,417.9531 1926.3638,417.9531 1926.3638,417.9531 " fill="none" id="mwst-rab" style="stroke: #A80036; stroke-width: 1.0; stroke-dasharray: 7.0,7.0;"/><polygon fill="#A80036" points="1931.3638,417.9531,1922.3638,413.9531,1926.3638,417.9531,1922.3638,421.9531,1931.3638,417.9531" style="stroke: #A80036; stroke-width: 1.0;"/><text fill="#000000" font-family="sans-serif" font-size="13" lengthAdjust="spacingAndGlyphs" textLength="61" x="1752" y="419.02">«include»</text><!--link epa to mwst--><path d="M1275.4543,422.9531 C1275.4543,422.9531 1454.7151,422.9531 1454.7151,422.9531 " fill="none" id="epa-mwst" style="stroke: #A80036; stroke-width: 1.0; stroke-dasharray: 7.0,7.0;"/><polygon fill="#A80036" points="1459.7151,422.9531,1450.7151,418.9531,1454.7151,422.9531,1450.7151,426.9531,1459.7151,422.9531" style="stroke: #A80036; stroke-width: 1.0;"/><text fill="#000000" font-family="sans-serif" font-size="13" lengthAdjust="spacingAndGlyphs" textLength="61" x="1337" y="419.02">«include»</text><!--link sys to abf--><path d="M1818.2031,735.2031 C1843.9345,735.2031 1879.9684,735.2031 1913.9298,735.2031 " fill="none" id="sys-abf" style="stroke: #A80036; stroke-width: 1.0;"/><!--link sys to glb--><path d="M1795,699.1953 C1795,689.861 1795,681.2031 1795,681.2031 C1795,681.2031 1868.6642,681.2031 1929.955,681.2031 " fill="none" id="sys-glb" style="stroke: #A80036; stroke-width: 1.0;"/><!--link gl to bb--><path d="M188.6174,601.2031 C465.2063,601.2031 1638.9207,601.2031 1940.2565,601.2031 " fill="none" id="gl-bb" style="stroke: #A80036; stroke-width: 1.0;"/><!--link gpf to bers--><path d="M2112.5704,930.9531 C2112.5704,930.9531 2385.9959,930.9531 2385.9959,930.9531 " fill="none" id="gpf-bers" style="stroke: #A80036; stroke-width: 1.0; stroke-dasharray: 7.0,7.0;"/><polygon fill="#A80036" points="2107.5704,930.9531,2116.5704,934.9531,2112.5704,930.9531,2116.5704,926.9531,2107.5704,930.9531" style="stroke: #A80036; stroke-width: 1.0;"/><text fill="#000000" font-family="sans-serif" font-size="13" lengthAdjust="spacingAndGlyphs" textLength="61" x="2205" y="927.02">«include»</text><!--link ba to gpf--><path d="M1669.5524,930.9531 C1669.5524,930.9531 1914.2528,930.9531 1914.2528,930.9531 " fill="none" id="ba-gpf" style="stroke: #A80036; stroke-width: 1.0; stroke-dasharray: 7.0,7.0;"/><polygon fill="#A80036" points="1664.5524,930.9531,1673.5524,934.9531,1669.5524,930.9531,1673.5524,926.9531,1664.5524,930.9531" style="stroke: #A80036; stroke-width: 1.0;"/><text fill="#000000" font-family="sans-serif" font-size="13" lengthAdjust="spacingAndGlyphs" textLength="61" x="1752" y="927.02">«include»</text><!--link bempf to binvent--><path d="M1664.2733,854.7864 C1664.2733,854.7864 1911.5142,854.7864 1911.5142,854.7864 " fill="none" id="bempf-binvent" style="stroke: #A80036; stroke-width: 1.0; stroke-dasharray: 7.0,7.0;"/><polygon fill="#A80036" points="1659.2733,854.7864,1668.2733,858.7864,1664.2733,854.7864,1668.2733,850.7864,1659.2733,854.7864" style="stroke: #A80036; stroke-width: 1.0;"/><text fill="#000000" font-family="sans-serif" font-size="13" lengthAdjust="spacingAndGlyphs" textLength="61" x="1752" y="840.02">«include»</text><!--link sys to binvent--><path d="M1783,744.6479 C1783,779.2231 1783,841.1198 1783,841.1198 C1783,841.1198 1854.6405,841.1198 1917.6058,841.1198 " fill="none" id="sys-binvent" style="stroke: #A80036; stroke-width: 1.0;"/><!--link gl to Händlerverwaltung--><path d="M111,592.0796 C111,487.0831 111,220.9531 111,220.9531 C111,220.9531 183.1216,220.9531 256.9336,220.9531 C275.3866,220.9531 293.9452,220.9531 311.509,220.9531 C313.7045,220.9531 315.8844,220.9531 318.0467,220.9531 C319.1278,220.9531 320.2045,220.9531 321.2765,220.9531 C321.8125,220.9531 322.3473,220.9531 322.8809,220.9531 " fill="none" id="gl-Händlerverwaltung" style="stroke: #A80036; stroke-width: 1.0;"/><!--link gl to Produktverwaltung--><path d="M101,675.471 C101,783.8474 101,1066.9531 101,1066.9531 C101,1066.9531 175.5058,1066.9531 251.7578,1066.9531 C261.2893,1066.9531 270.8481,1066.9531 280.2921,1066.9531 C285.0141,1066.9531 289.7074,1066.9531 294.3542,1066.9531 C296.6776,1066.9531 298.9894,1066.9531 301.2873,1066.9531 C302.4363,1066.9531 303.5818,1066.9531 304.7236,1066.9531 C305.2945,1066.9531 305.8644,1066.9531 306.4334,1066.9531 " fill="none" id="gl-Produktverwaltung" style="stroke: #A80036; stroke-width: 1.0;"/><!--link et_dr to Waren und/oder Geldbewegung\narchivieren--><!--link et_dr to Stornierung archivieren--><!--link Händler hinzufügen to Händler löschen--><!--link Händler hinzufügen to Händlerdaten bearbeiten--><!--link Produkt hinzufügen to Produkt löschen--><!--link Produkt löschen to Produktdaten bearbeiten--><!--link Produkt hinzufügen to Großhändlerproduktbestellliste \nimportieren--><!--link Großhändlerproduktbestellliste \nimportieren to Produkt zur Verkaufsdatenbank hinzufügen--><!--link Produkt zur Verkaufsdatenbank hinzufügen to Produkt von der Verkaufsdatenbank löschen--><!--
@startuml
skinparam titleBorderRoundCorner 15
skinparam titleBorderThickness 2
skinparam titleBorderColor blue
skinparam titleBackgroundColor Chartreuse
skinparam linetype ortho

skinparam package {
    FontColor Grey
    BorderColor Green
    shadowing false
}

title Anwendungsfall - Diagramm


:Kunde: as ku
:Normalkunde: as nku
:Großhandelsabnehmer: as gha
:Hauskunde: as hku

left to right direction

:Verkaufspersonal: as vp
:Geschäftsleitung: as gl

nku - -> ku
vp - -> hku
gha - -> hku
hku - -> ku

database "System" as sys


    package "Accountverwaltung"{
        (Account erstellen) as acc
        (Account löschen) as accdel

    }

    (Termin eintragen) as date
    
    (Etikett drucken) as et_dr
        (Waren und/oder Geldbewegung\narchivieren)
    (Stornierung archivieren)




    package "Kassensystem"{
            (Barzahlung) as bg_ez
            (Rückgeld geben) as bg_az
            (Wechselgeld berechnen) as we_br
            (Summenberechnung der Grundpreise) as sdg
            (Rabattberechnung) as rab
            (Mehrwehrtsteuerberechnung) as mwst
            (Endpreis ausgeben) as epa

            (einfache Stornierung) as l_st
            (globale Stornierung) as g_st

            (Artikel zu Warenkorb hinzufügen) as azw
            (Produkt einscannen) as scan

            vp - - Kassensystem

            gl - - date
            gl - - acc
            gl - - accdel

            gl - -> vp


            ku - - bg_ez



            sys - - we_br

            bg_ez <.. bg_az: <<include>>
            bg_az ..> we_br: <<include>>
            we_br ..> bg_ez: <<include>>
            l_st <.. g_st: <<extend>>
            l_st ..> scan: <<include>>
            azw ..> scan: <<include>>
            sdg ..> azw: <<include>>
            rab ..> sdg: <<include>>
            mwst ..> rab: <<include>>
            epa ..> mwst: <<include>>




        }



    package "Inventur"{
        (Bestand erfassen)
        (abweichenden Bestand festgestellt) as abf
        (Manager benachrichtigen) as glb
        (Bestand berichtigen) as bb

        sys - - abf
        sys - - glb
        gl - - bb
    }


    package "Bestellung"{
        (Bestellung abschicken) as ba
        (günstigsten Preis finden) as gpf
        (Bestellung erstellen) as bers
        (Bestellung empfangen) as bempf
        (Bestellung inventarisieren) as binvent

        gpf <.. bers: <<include>>
        ba <.. gpf: <<include>>
        bempf <.. binvent: <<include>>
        sys - - binvent
    }


    package "Händlerverwaltung"{
        (Händler hinzufügen)
        (Händler löschen)
        (Händlerdaten bearbeiten)

        gl - - Händlerverwaltung
    }

    package "Produktverwaltung"{
        (Produkt hinzufügen)
        (Produkt löschen)
        (Produktdaten bearbeiten)
        (Großhändlerproduktbestellliste \nimportieren)
        (Produkt zur Verkaufsdatenbank hinzufügen)
        (Produkt von der Verkaufsdatenbank löschen)

        gl - - Produktverwaltung








}

@enduml

PlantUML version 1.2018.11(Sat Sep 22 18:43:53 CEST 2018)
(GPL source distribution)
Java Runtime: OpenJDK Runtime Environment
JVM: OpenJDK 64-Bit Server VM
Java Version: 10.0.2+13-Ubuntu-1ubuntu0.18.04.2
Operating System: Linux
OS Version: 4.15.0-36-generic
Default Encoding: UTF-8
Language: de
Country: DE
--></g></svg>