<?xml version="1.0" encoding="UTF-8" standalone="no"?><svg xmlns="http://www.w3.org/2000/svg" xmlns:xlink="http://www.w3.org/1999/xlink" contentScriptType="application/ecmascript" contentStyleType="text/css" height="2027px" preserveAspectRatio="none" style="width:2053px;height:2027px;" version="1.1" viewBox="0 0 2053 2027" width="2053px" zoomAndPan="magnify"><defs><filter height="300%" id="f1p4z9h3z1v84r" width="300%" x="-1" y="-1"><feGaussianBlur result="blurOut" stdDeviation="2.0"/><feColorMatrix in="blurOut" result="blurOut2" type="matrix" values="0 0 0 0 0 0 0 0 0 0 0 0 0 0 0 0 0 0 .4 0"/><feOffset dx="4.0" dy="4.0" in="blurOut2" result="blurOut3"/><feBlend in="SourceGraphic" in2="blurOut3" mode="normal"/></filter><linearGradient id="g1p4z9h3z1v84r0" x1="0%" x2="100%" y1="0%" y2="100%"><stop offset="0%" stop-color="#ADFF2F"/><stop offset="100%" stop-color="#FAFAD2"/></linearGradient></defs><g><rect fill="#7FFF00" height="30.9531" rx="7.5" ry="7.5" style="stroke: #0000FF; stroke-width: 2.0;" width="176" x="944" y="2"/><text fill="#000000" font-family="sans-serif" font-size="18" lengthAdjust="spacingAndGlyphs" textLength="160" x="952" y="23.708">Use-Case diagram</text><!--cluster coole Bioladenbox--><rect fill="#FFFFFF" filter="url(#f1p4z9h3z1v84r)" height="1909" style="stroke: #008000; stroke-width: 1.5;" width="1456" x="583" y="52.4531"/><text fill="#808080" font-family="sans-serif" font-size="14" font-weight="bold" lengthAdjust="spacingAndGlyphs" textLength="144" x="1239" y="67.4482">coole Bioladenbox</text><!--cluster UserDepartment--><polygon fill="#FFFFFF" points="640.5,667.4531,776.5,667.4531,783.5,689.75,795.5,689.75,795.5,801.4531,640.5,801.4531,640.5,667.4531" style="stroke: #008000; stroke-width: 1.5;"/><line style="stroke: #008000; stroke-width: 1.5;" x1="640.5" x2="783.5" y1="689.75" y2="689.75"/><text fill="#808080" font-family="sans-serif" font-size="14" font-weight="bold" lengthAdjust="spacingAndGlyphs" textLength="130" x="644.5" y="682.4482">UserDepartment</text><!--cluster DataDepartment--><polygon fill="#FFFFFF" points="591,1732.4531,725,1732.4531,732,1754.75,845,1754.75,845,1953.4531,591,1953.4531,591,1732.4531" style="stroke: #008000; stroke-width: 1.5;"/><line style="stroke: #008000; stroke-width: 1.5;" x1="591" x2="732" y1="1754.75" y2="1754.75"/><text fill="#808080" font-family="sans-serif" font-size="14" font-weight="bold" lengthAdjust="spacingAndGlyphs" textLength="128" x="595" y="1747.4482">DataDepartment</text><!--cluster FinancesDepartment--><polygon fill="#FFFFFF" points="642.5,79.4531,811.5,79.4531,818.5,101.75,2031,101.75,2031,659.4531,642.5,659.4531,642.5,79.4531" style="stroke: #008000; stroke-width: 1.5;"/><line style="stroke: #008000; stroke-width: 1.5;" x1="642.5" x2="818.5" y1="101.75" y2="101.75"/><text fill="#808080" font-family="sans-serif" font-size="14" font-weight="bold" lengthAdjust="spacingAndGlyphs" textLength="163" x="646.5" y="94.4482">FinancesDepartment</text><!--cluster InventoryDepartment--><polygon fill="#FFFFFF" points="596,1434.4531,770,1434.4531,777,1456.75,840,1456.75,840,1724.4531,596,1724.4531,596,1434.4531" style="stroke: #008000; stroke-width: 1.5;"/><line style="stroke: #008000; stroke-width: 1.5;" x1="596" x2="777" y1="1456.75" y2="1456.75"/><text fill="#808080" font-family="sans-serif" font-size="14" font-weight="bold" lengthAdjust="spacingAndGlyphs" textLength="168" x="600" y="1449.4482">InventoryDepartment</text><!--cluster Order--><polygon fill="#FFFFFF" points="646,990.4531,698,990.4531,705,1012.75,1978.5,1012.75,1978.5,1164.4531,646,1164.4531,646,990.4531" style="stroke: #008000; stroke-width: 1.5;"/><line style="stroke: #008000; stroke-width: 1.5;" x1="646" x2="705" y1="1012.75" y2="1012.75"/><text fill="#808080" font-family="sans-serif" font-size="14" font-weight="bold" lengthAdjust="spacingAndGlyphs" textLength="46" x="650" y="1005.4482">Order</text><!--cluster DistributorDepartment--><polygon fill="#FFFFFF" points="635.5,809.4531,818.5,809.4531,825.5,831.75,1407,831.75,1407,982.4531,635.5,982.4531,635.5,809.4531" style="stroke: #008000; stroke-width: 1.5;"/><line style="stroke: #008000; stroke-width: 1.5;" x1="635.5" x2="825.5" y1="831.75" y2="831.75"/><text fill="#808080" font-family="sans-serif" font-size="14" font-weight="bold" lengthAdjust="spacingAndGlyphs" textLength="177" x="639.5" y="824.4482">DistributorDepartment</text><!--cluster ProductDepartment--><polygon fill="#FFFFFF" points="637.5,1172.4531,798.5,1172.4531,805.5,1194.75,1431,1194.75,1431,1426.4531,637.5,1426.4531,637.5,1172.4531" style="stroke: #008000; stroke-width: 1.5;"/><line style="stroke: #008000; stroke-width: 1.5;" x1="637.5" x2="805.5" y1="1194.75" y2="1194.75"/><text fill="#808080" font-family="sans-serif" font-size="14" font-weight="bold" lengthAdjust="spacingAndGlyphs" textLength="155" x="641.5" y="1187.4482">ProductDepartment</text><ellipse cx="718.1001" cy="709.3732" fill="url(#g1p4z9h3z1v84r0)" filter="url(#f1p4z9h3z1v84r)" rx="62.6001" ry="14.92" style="stroke: #006400; stroke-width: 1.5;"/><text fill="#000000" font-family="sans-serif" font-size="14" lengthAdjust="spacingAndGlyphs" textLength="87" x="674.6001" y="714.0216">add Account</text><ellipse cx="717.9543" cy="776.244" fill="url(#g1p4z9h3z1v84r0)" filter="url(#f1p4z9h3z1v84r)" rx="69.4543" ry="16.2909" style="stroke: #006400; stroke-width: 1.5;"/><text fill="#000000" font-family="sans-serif" font-size="14" lengthAdjust="spacingAndGlyphs" textLength="105" x="665.4543" y="780.8924">delete Account</text><ellipse cx="717.8762" cy="1774.4768" fill="url(#g1p4z9h3z1v84r0)" filter="url(#f1p4z9h3z1v84r)" rx="50.3762" ry="14.5236" style="stroke: #006400; stroke-width: 1.5;"/><text fill="#000000" font-family="sans-serif" font-size="14" lengthAdjust="spacingAndGlyphs" textLength="67" x="684.3762" y="1779.1252">print label</text><ellipse cx="717.8973" cy="1850.6326" fill="url(#g1p4z9h3z1v84r0)" filter="url(#f1p4z9h3z1v84r)" rx="118.8973" ry="26.1795" style="stroke: #006400; stroke-width: 1.5;"/><text fill="#000000" font-family="sans-serif" font-size="14" lengthAdjust="spacingAndGlyphs" textLength="217" x="609.3973" y="1855.281">log money and product tranfers</text><ellipse cx="718.2471" cy="1928.4026" fill="url(#g1p4z9h3z1v84r0)" filter="url(#f1p4z9h3z1v84r)" rx="70.2471" ry="16.4494" style="stroke: #006400; stroke-width: 1.5;"/><text fill="#000000" font-family="sans-serif" font-size="14" lengthAdjust="spacingAndGlyphs" textLength="107" x="664.7471" y="1933.051">log cancellation</text><ellipse cx="717.8417" cy="195.6215" fill="url(#g1p4z9h3z1v84r0)" filter="url(#f1p4z9h3z1v84r)" rx="66.3417" ry="15.6683" style="stroke: #006400; stroke-width: 1.5;"/><text fill="#000000" font-family="sans-serif" font-size="14" lengthAdjust="spacingAndGlyphs" textLength="97" x="669.3417" y="200.2699">cash payment</text><ellipse cx="1319.5143" cy="124.656" fill="url(#g1p4z9h3z1v84r0)" filter="url(#f1p4z9h3z1v84r)" rx="61.5143" ry="14.7029" style="stroke: #006400; stroke-width: 1.5;"/><text fill="#000000" font-family="sans-serif" font-size="14" lengthAdjust="spacingAndGlyphs" textLength="84" x="1277.5143" y="129.3044">give change</text><ellipse cx="1908.2894" cy="124.211" fill="url(#g1p4z9h3z1v84r0)" filter="url(#f1p4z9h3z1v84r)" rx="74.2894" ry="17.2579" style="stroke: #006400; stroke-width: 1.5;"/><text fill="#000000" font-family="sans-serif" font-size="14" lengthAdjust="spacingAndGlyphs" textLength="117" x="1849.7894" y="128.8594">calculate change</text><ellipse cx="1908.6957" cy="202.2923" fill="url(#g1p4z9h3z1v84r0)" filter="url(#f1p4z9h3z1v84r)" rx="114.6957" ry="25.3391" style="stroke: #006400; stroke-width: 1.5;"/><text fill="#000000" font-family="sans-serif" font-size="14" lengthAdjust="spacingAndGlyphs" textLength="208" x="1804.6957" y="206.9407">sum calculation of base prices</text><ellipse cx="1908.6068" cy="633.3745" fill="url(#g1p4z9h3z1v84r0)" filter="url(#f1p4z9h3z1v84r)" rx="77.6068" ry="17.9214" style="stroke: #006400; stroke-width: 1.5;"/><text fill="#000000" font-family="sans-serif" font-size="14" lengthAdjust="spacingAndGlyphs" textLength="125" x="1846.1068" y="638.0229">calculate discount</text><ellipse cx="1319.2758" cy="592.5083" fill="url(#g1p4z9h3z1v84r0)" filter="url(#f1p4z9h3z1v84r)" rx="68.2758" ry="16.0552" style="stroke: #006400; stroke-width: 1.5;"/><text fill="#000000" font-family="sans-serif" font-size="14" lengthAdjust="spacingAndGlyphs" textLength="102" x="1268.2758" y="597.1567">calculate MwSt</text><ellipse cx="717.9975" cy="592.3526" fill="url(#g1p4z9h3z1v84r0)" filter="url(#f1p4z9h3z1v84r)" rx="67.4975" ry="15.8995" style="stroke: #006400; stroke-width: 1.5;"/><text fill="#000000" font-family="sans-serif" font-size="14" lengthAdjust="spacingAndGlyphs" textLength="100" x="667.9975" y="597.0011">print final price</text><ellipse cx="1908.3548" cy="475.6241" fill="url(#g1p4z9h3z1v84r0)" filter="url(#f1p4z9h3z1v84r)" rx="76.3548" ry="17.671" style="stroke: #006400; stroke-width: 1.5;"/><text fill="#000000" font-family="sans-serif" font-size="14" lengthAdjust="spacingAndGlyphs" textLength="122" x="1847.3548" y="480.2725">basic cancellation</text><ellipse cx="1908.4465" cy="562.5424" fill="url(#g1p4z9h3z1v84r0)" filter="url(#f1p4z9h3z1v84r)" rx="78.4465" ry="18.0893" style="stroke: #006400; stroke-width: 1.5;"/><text fill="#000000" font-family="sans-serif" font-size="14" lengthAdjust="spacingAndGlyphs" textLength="127" x="1844.9465" y="567.1909">global cancellation</text><ellipse cx="1908.4278" cy="302.4387" fill="url(#g1p4z9h3z1v84r0)" filter="url(#f1p4z9h3z1v84r)" rx="100.4278" ry="22.4856" style="stroke: #006400; stroke-width: 1.5;"/><text fill="#000000" font-family="sans-serif" font-size="14" lengthAdjust="spacingAndGlyphs" textLength="177" x="1819.9278" y="307.0871">add item to shopping cart</text><ellipse cx="1908.5752" cy="391.6682" fill="url(#g1p4z9h3z1v84r0)" filter="url(#f1p4z9h3z1v84r)" rx="64.0752" ry="15.215" style="stroke: #006400; stroke-width: 1.5;"/><text fill="#000000" font-family="sans-serif" font-size="14" lengthAdjust="spacingAndGlyphs" textLength="91" x="1863.0752" y="396.3166">scan product</text><ellipse cx="717.7526" cy="1478.3036" fill="url(#g1p4z9h3z1v84r0)" filter="url(#f1p4z9h3z1v84r)" rx="72.2526" ry="16.8505" style="stroke: #006400; stroke-width: 1.5;"/><text fill="#000000" font-family="sans-serif" font-size="14" lengthAdjust="spacingAndGlyphs" textLength="112" x="661.7526" y="1482.9521">record inventory</text><ellipse cx="718.2303" cy="1555.6992" fill="url(#g1p4z9h3z1v84r0)" filter="url(#f1p4z9h3z1v84r)" rx="114.2303" ry="25.2461" style="stroke: #006400; stroke-width: 1.5;"/><text fill="#000000" font-family="sans-serif" font-size="14" lengthAdjust="spacingAndGlyphs" textLength="207" x="614.7303" y="1560.3476">divergent inventory was found</text><ellipse cx="717.7758" cy="1631.5083" fill="url(#g1p4z9h3z1v84r0)" filter="url(#f1p4z9h3z1v84r)" rx="68.2758" ry="16.0552" style="stroke: #006400; stroke-width: 1.5;"/><text fill="#000000" font-family="sans-serif" font-size="14" lengthAdjust="spacingAndGlyphs" textLength="102" x="666.7758" y="1636.1567">notify manager</text><ellipse cx="718.0454" cy="1699.5622" fill="url(#g1p4z9h3z1v84r0)" filter="url(#f1p4z9h3z1v84r)" rx="71.0454" ry="16.6091" style="stroke: #006400; stroke-width: 1.5;"/><text fill="#000000" font-family="sans-serif" font-size="14" lengthAdjust="spacingAndGlyphs" textLength="109" x="663.5454" y="1704.2106">adjust inventory</text><ellipse cx="718.2401" cy="1034.4768" fill="url(#g1p4z9h3z1v84r0)" filter="url(#f1p4z9h3z1v84r)" rx="56.7401" ry="14.5236" style="stroke: #006400; stroke-width: 1.5;"/><text fill="#000000" font-family="sans-serif" font-size="14" lengthAdjust="spacingAndGlyphs" textLength="76" x="680.2401" y="1039.1252">send order</text><ellipse cx="1319.2526" cy="1034.3036" fill="url(#g1p4z9h3z1v84r0)" filter="url(#f1p4z9h3z1v84r)" rx="72.2526" ry="16.8505" style="stroke: #006400; stroke-width: 1.5;"/><text fill="#000000" font-family="sans-serif" font-size="14" lengthAdjust="spacingAndGlyphs" textLength="112" x="1263.2526" y="1038.9521">find lowest price</text><ellipse cx="1908.3742" cy="1034.228" fill="url(#g1p4z9h3z1v84r0)" filter="url(#f1p4z9h3z1v84r)" rx="61.8742" ry="14.7748" style="stroke: #006400; stroke-width: 1.5;"/><text fill="#000000" font-family="sans-serif" font-size="14" lengthAdjust="spacingAndGlyphs" textLength="85" x="1865.8742" y="1038.8764">create order</text><ellipse cx="718.0752" cy="1121.6682" fill="url(#g1p4z9h3z1v84r0)" filter="url(#f1p4z9h3z1v84r)" rx="64.0752" ry="15.215" style="stroke: #006400; stroke-width: 1.5;"/><text fill="#000000" font-family="sans-serif" font-size="14" lengthAdjust="spacingAndGlyphs" textLength="91" x="672.5752" y="1126.3166">receive order</text><ellipse cx="1319.4969" cy="1125.6321" fill="url(#g1p4z9h3z1v84r0)" filter="url(#f1p4z9h3z1v84r)" rx="86.4969" ry="25.679" style="stroke: #006400; stroke-width: 1.5;"/><text fill="#000000" font-family="sans-serif" font-size="14" lengthAdjust="spacingAndGlyphs" textLength="112" x="1263.4969" y="1121.607">place content of</text><text fill="#000000" font-family="sans-serif" font-size="14" lengthAdjust="spacingAndGlyphs" textLength="120" x="1259.4969" y="1137.9039">order in inventory</text><ellipse cx="717.9975" cy="923.3526" fill="url(#g1p4z9h3z1v84r0)" filter="url(#f1p4z9h3z1v84r)" rx="67.4975" ry="15.8995" style="stroke: #006400; stroke-width: 1.5;"/><text fill="#000000" font-family="sans-serif" font-size="14" lengthAdjust="spacingAndGlyphs" textLength="100" x="667.9975" y="928.0011">add distributor</text><ellipse cx="718.2002" cy="854.2932" fill="url(#g1p4z9h3z1v84r0)" filter="url(#f1p4z9h3z1v84r)" rx="74.7002" ry="17.34" style="stroke: #006400; stroke-width: 1.5;"/><text fill="#000000" font-family="sans-serif" font-size="14" lengthAdjust="spacingAndGlyphs" textLength="118" x="659.2002" y="858.9416">delete distributor</text><ellipse cx="1319.2901" cy="923.2111" fill="url(#g1p4z9h3z1v84r0)" filter="url(#f1p4z9h3z1v84r)" rx="79.2901" ry="18.258" style="stroke: #006400; stroke-width: 1.5;"/><text fill="#000000" font-family="sans-serif" font-size="14" lengthAdjust="spacingAndGlyphs" textLength="129" x="1254.7901" y="927.8596">edit distributor info</text><ellipse cx="718.0143" cy="1359.656" fill="url(#g1p4z9h3z1v84r0)" filter="url(#f1p4z9h3z1v84r)" rx="61.5143" ry="14.7029" style="stroke: #006400; stroke-width: 1.5;"/><text fill="#000000" font-family="sans-serif" font-size="14" lengthAdjust="spacingAndGlyphs" textLength="84" x="676.0143" y="1364.3044">add product</text><ellipse cx="717.7758" cy="1293.5083" fill="url(#g1p4z9h3z1v84r0)" filter="url(#f1p4z9h3z1v84r)" rx="68.2758" ry="16.0552" style="stroke: #006400; stroke-width: 1.5;"/><text fill="#000000" font-family="sans-serif" font-size="14" lengthAdjust="spacingAndGlyphs" textLength="102" x="666.7758" y="1298.1567">delete product</text><ellipse cx="718.1576" cy="1225.3846" fill="url(#g1p4z9h3z1v84r0)" filter="url(#f1p4z9h3z1v84r)" rx="72.6576" ry="16.9315" style="stroke: #006400; stroke-width: 1.5;"/><text fill="#000000" font-family="sans-serif" font-size="14" lengthAdjust="spacingAndGlyphs" textLength="113" x="661.6576" y="1230.0331">edit product info</text><ellipse cx="1319.4224" cy="1394.4348" fill="url(#g1p4z9h3z1v84r0)" filter="url(#f1p4z9h3z1v84r)" rx="103.4224" ry="23.9817" style="stroke: #006400; stroke-width: 1.5;"/><text fill="#000000" font-family="sans-serif" font-size="14" lengthAdjust="spacingAndGlyphs" textLength="156" x="1241.4224" y="1394.0164">import major customer</text><text fill="#000000" font-family="sans-serif" font-size="14" lengthAdjust="spacingAndGlyphs" textLength="77" x="1280.9224" y="1410.3133">product list</text><ellipse cx="1319.6029" cy="1309.6738" fill="url(#g1p4z9h3z1v84r0)" filter="url(#f1p4z9h3z1v84r)" rx="74.1029" ry="25.7207" style="stroke: #006400; stroke-width: 1.5;"/><text fill="#000000" font-family="sans-serif" font-size="14" lengthAdjust="spacingAndGlyphs" textLength="102" x="1268.6029" y="1306.639">add product to</text><text fill="#000000" font-family="sans-serif" font-size="14" lengthAdjust="spacingAndGlyphs" textLength="96" x="1271.6029" y="1322.9359">sale database</text><ellipse cx="1319.4195" cy="1224.5838" fill="url(#g1p4z9h3z1v84r0)" filter="url(#f1p4z9h3z1v84r)" rx="93.9195" ry="24.6307" style="stroke: #006400; stroke-width: 1.5;"/><text fill="#000000" font-family="sans-serif" font-size="14" lengthAdjust="spacingAndGlyphs" textLength="137" x="1250.9195" y="1223.1575">delete product from</text><text fill="#000000" font-family="sans-serif" font-size="14" lengthAdjust="spacingAndGlyphs" textLength="96" x="1271.4195" y="1239.4544">sale database</text><!--entity ku--><ellipse cx="504" cy="177.9531" fill="#FFFFFF" filter="url(#f1p4z9h3z1v84r)" rx="8" ry="8" style="stroke: #000000; stroke-width: 2.0;"/><path d="M504,185.9531 L504,212.9531 M491,193.9531 L517,193.9531 M504,212.9531 L491,227.9531 M504,212.9531 L517,227.9531 " fill="none" filter="url(#f1p4z9h3z1v84r)" style="stroke: #000000; stroke-width: 2.0;"/><text fill="#000000" font-family="sans-serif" font-size="14" lengthAdjust="spacingAndGlyphs" textLength="68" x="470" y="247.9482">Customer</text><!--entity nku--><ellipse cx="351" cy="177.9531" fill="#FFFFFF" filter="url(#f1p4z9h3z1v84r)" rx="8" ry="8" style="stroke: #000000; stroke-width: 2.0;"/><path d="M351,185.9531 L351,212.9531 M338,193.9531 L364,193.9531 M351,212.9531 L338,227.9531 M351,212.9531 L364,227.9531 " fill="none" filter="url(#f1p4z9h3z1v84r)" style="stroke: #000000; stroke-width: 2.0;"/><text fill="#000000" font-family="sans-serif" font-size="14" lengthAdjust="spacingAndGlyphs" textLength="116" x="293" y="247.9482">NormalCustomer</text><!--entity gha--><ellipse cx="179.5" cy="309.9531" fill="#FFFFFF" filter="url(#f1p4z9h3z1v84r)" rx="8" ry="8" style="stroke: #000000; stroke-width: 2.0;"/><path d="M179.5,317.9531 L179.5,344.9531 M166.5,325.9531 L192.5,325.9531 M179.5,344.9531 L166.5,359.9531 M179.5,344.9531 L192.5,359.9531 " fill="none" filter="url(#f1p4z9h3z1v84r)" style="stroke: #000000; stroke-width: 2.0;"/><text fill="#000000" font-family="sans-serif" font-size="14" lengthAdjust="spacingAndGlyphs" textLength="105" x="127" y="379.9482">MajorCustomer</text><!--entity hku--><ellipse cx="351" cy="309.9531" fill="#FFFFFF" filter="url(#f1p4z9h3z1v84r)" rx="8" ry="8" style="stroke: #000000; stroke-width: 2.0;"/><path d="M351,317.9531 L351,344.9531 M338,325.9531 L364,325.9531 M351,344.9531 L338,359.9531 M351,344.9531 L364,359.9531 " fill="none" filter="url(#f1p4z9h3z1v84r)" style="stroke: #000000; stroke-width: 2.0;"/><text fill="#000000" font-family="sans-serif" font-size="14" lengthAdjust="spacingAndGlyphs" textLength="113" x="294.5" y="379.9482">HouseCustomer</text><!--entity vp--><ellipse cx="179.5" cy="454.9531" fill="#FFFFFF" filter="url(#f1p4z9h3z1v84r)" rx="8" ry="8" style="stroke: #000000; stroke-width: 2.0;"/><path d="M179.5,462.9531 L179.5,489.9531 M166.5,470.9531 L192.5,470.9531 M179.5,489.9531 L166.5,504.9531 M179.5,489.9531 L192.5,504.9531 " fill="none" filter="url(#f1p4z9h3z1v84r)" style="stroke: #000000; stroke-width: 2.0;"/><text fill="#000000" font-family="sans-serif" font-size="14" lengthAdjust="spacingAndGlyphs" textLength="30" x="164.5" y="524.9482">Staff</text><!--entity gl--><ellipse cx="36" cy="833.9531" fill="#FFFFFF" filter="url(#f1p4z9h3z1v84r)" rx="8" ry="8" style="stroke: #000000; stroke-width: 2.0;"/><path d="M36,841.9531 L36,868.9531 M23,849.9531 L49,849.9531 M36,868.9531 L23,883.9531 M36,868.9531 L49,883.9531 " fill="none" filter="url(#f1p4z9h3z1v84r)" style="stroke: #000000; stroke-width: 2.0;"/><text fill="#000000" font-family="sans-serif" font-size="14" lengthAdjust="spacingAndGlyphs" textLength="60" x="6" y="903.9482">Manager</text><!--entity sys--><path d="M898,1979.9531 C898,1969.9531 933.5,1969.9531 933.5,1969.9531 C933.5,1969.9531 969,1969.9531 969,1979.9531 L969,2005.25 C969,2015.25 933.5,2015.25 933.5,2015.25 C933.5,2015.25 898,2015.25 898,2005.25 L898,1979.9531 " fill="#FFFFFF" filter="url(#f1p4z9h3z1v84r)" style="stroke: #000000; stroke-width: 1.5;"/><path d="M898,1979.9531 C898,1989.9531 933.5,1989.9531 933.5,1989.9531 C933.5,1989.9531 969,1989.9531 969,1979.9531 " fill="none" style="stroke: #000000; stroke-width: 1.5;"/><text fill="#000000" font-family="sans-serif" font-size="14" lengthAdjust="spacingAndGlyphs" textLength="51" x="908" y="2006.9482">System</text><!--link nku to ku--><path d="M409.2792,209.4531 C409.2792,209.4531 464.8082,209.4531 464.8082,209.4531 " fill="none" id="nku-ku" style="stroke: #006400; stroke-width: 1.0;"/><polygon fill="#006400" points="469.8082,209.4531,460.8082,205.4531,464.8082,209.4531,460.8082,213.4531,469.8082,209.4531" style="stroke: #006400; stroke-width: 1.0;"/><!--link vp to hku--><path d="M194.7195,451.4531 C236.692,451.4531 351,451.4531 351,451.4531 C351,451.4531 351,388.0394 351,388.0394 " fill="none" id="vp-hku" style="stroke: #006400; stroke-width: 1.0;"/><polygon fill="#006400" points="351,383.0394,347,392.0394,351,388.0394,355,392.0394,351,383.0394" style="stroke: #006400; stroke-width: 1.0;"/><!--link gha to hku--><path d="M232.355,341.4531 C232.355,341.4531 289.4509,341.4531 289.4509,341.4531 " fill="none" id="gha-hku" style="stroke: #006400; stroke-width: 1.0;"/><polygon fill="#006400" points="294.4509,341.4531,285.4509,337.4531,289.4509,341.4531,285.4509,345.4531,294.4509,341.4531" style="stroke: #006400; stroke-width: 1.0;"/><!--link hku to ku--><path d="M407.5369,312.4531 C451.1208,312.4531 504,312.4531 504,312.4531 C504,312.4531 504,256.0502 504,256.0502 " fill="none" id="hku-ku" style="stroke: #006400; stroke-width: 1.0;"/><polygon fill="#006400" points="504,251.0502,500,260.0502,504,256.0502,508,260.0502,504,251.0502" style="stroke: #006400; stroke-width: 1.0;"/><!--link log money and product tranfers to sys--><path d="M813,1866.1921 C813,1903.1636 813,1992.4531 813,1992.4531 C813,1992.4531 862.4532,1992.4531 897.9978,1992.4531 " fill="none" id="log money and product tranfers-sys" style="stroke: #006400; stroke-width: 1.0;"/><!--link log cancellation to sys--><path d="M788.1314,1928.4531 C842.9788,1928.4531 910,1928.4531 910,1928.4531 C910,1928.4531 910,1951.3135 910,1969.7089 " fill="none" id="log cancellation-sys" style="stroke: #006400; stroke-width: 1.0;"/><!--link et_dr to sys--><path d="M768.6891,1774.4531 C829.1063,1774.4531 922,1774.4531 922,1774.4531 C922,1774.4531 922,1914.2457 922,1969.9444 " fill="none" id="et_dr-sys" style="stroke: #006400; stroke-width: 1.0;"/><!--link vp to FinancesDepartment--><path d="M194.7488,486.4531 C237.5388,486.4531 363.2945,486.4531 480.7928,486.4531 C539.5419,486.4531 596.2267,486.4531 639.4442,486.4531 C640.1195,486.4531 640.7915,486.4531 641.4601,486.4531 " fill="none" id="vp-FinancesDepartment" style="stroke: #006400; stroke-width: 1.0;"/><!--link gl to acc--><path d="M26,823.648 C26,777.4389 26,709.4531 26,709.4531 C26,709.4531 485.0271,709.4531 655.3691,709.4531 " fill="none" id="gl-acc" style="stroke: #006400; stroke-width: 1.0;"/><!--link gl to accdel--><path d="M46,823.8195 C46,800.6563 46,776.4531 46,776.4531 C46,776.4531 476.3951,776.4531 648.3009,776.4531 " fill="none" id="gl-accdel" style="stroke: #006400; stroke-width: 1.0;"/><!--link gl to vp--><path d="M66.1871,830.4531 C108.4125,830.4531 180,830.4531 180,830.4531 C180,830.4531 180,533.2903 180,533.2903 " fill="none" id="gl-vp" style="stroke: #006400; stroke-width: 1.0;"/><polygon fill="#006400" points="180,528.2903,176,537.2903,180,533.2903,184,537.2903,180,528.2903" style="stroke: #006400; stroke-width: 1.0;"/><!--link ku to bg_ez--><path d="M538.3828,195.4531 C568.7474,195.4531 613.8846,195.4531 651.3135,195.4531 " fill="none" id="ku-bg_ez" style="stroke: #006400; stroke-width: 1.0;"/><!--link sys to we_br--><path d="M969.0712,1992.4531 C1116.3896,1992.4531 1671,1992.4531 1671,1992.4531 C1671,1992.4531 1671,131.7031 1671,131.7031 C1671,131.7031 1770.2612,131.7031 1840.442,131.7031 " fill="none" id="sys-we_br" style="stroke: #006400; stroke-width: 1.0;"/><!--link bg_ez to bg_az--><path d="M785.7209,190.2864 C785.7209,190.2864 1320,190.2864 1320,190.2864 C1320,190.2864 1320,158.4587 1320,139.0637 " fill="none" id="bg_ez-bg_az" style="stroke: #006400; stroke-width: 1.0; stroke-dasharray: 7.0,7.0;"/><polygon fill="#006400" points="780.7209,190.2864,789.7209,194.2864,785.7209,190.2864,789.7209,186.2864,780.7209,190.2864" style="stroke: #006400; stroke-width: 1.0;"/><text fill="#000000" font-family="sans-serif" font-size="13" lengthAdjust="spacingAndGlyphs" textLength="61" x="1031" y="120.52">«include»</text><!--link bg_az to we_br--><path d="M1372.8086,117.2031 C1372.8086,117.2031 1835.5636,117.2031 1835.5636,117.2031 " fill="none" id="bg_az-we_br" style="stroke: #006400; stroke-width: 1.0; stroke-dasharray: 7.0,7.0;"/><polygon fill="#006400" points="1840.5636,117.2031,1831.5636,113.2031,1835.5636,117.2031,1831.5636,121.2031,1840.5636,117.2031" style="stroke: #006400; stroke-width: 1.0;"/><text fill="#000000" font-family="sans-serif" font-size="13" lengthAdjust="spacingAndGlyphs" textLength="61" x="1547" y="120.52">«include»</text><!--link we_br to bg_ez--><path d="M1833.597,124.4531 C1727.7114,124.4531 1547,124.4531 1547,124.4531 C1547,124.4531 1547,200.6198 1547,200.6198 C1547,200.6198 785.9902,200.6198 785.9902,200.6198 " fill="none" id="we_br-bg_ez" style="stroke: #006400; stroke-width: 1.0; stroke-dasharray: 7.0,7.0;"/><polygon fill="#006400" points="780.9902,200.6198,789.9902,204.6198,785.9902,200.6198,789.9902,196.6198,780.9902,200.6198" style="stroke: #006400; stroke-width: 1.0;"/><text fill="#000000" font-family="sans-serif" font-size="13" lengthAdjust="spacingAndGlyphs" textLength="61" x="1289" y="191.52">«include»</text><!--link g_st to l_st--><path d="M1909,544.4266 C1909,544.4266 1909,498.1588 1909,498.1588 " fill="none" id="g_st-l_st" style="stroke: #006400; stroke-width: 1.0; stroke-dasharray: 7.0,7.0;"/><polygon fill="#006400" points="1909,493.1588,1905,502.1588,1909,498.1588,1913,502.1588,1909,493.1588" style="stroke: #006400; stroke-width: 1.0;"/><!--link l_st to scan--><path d="M1909,457.6389 C1909,457.6389 1909,411.7075 1909,411.7075 " fill="none" id="l_st-scan" style="stroke: #006400; stroke-width: 1.0; stroke-dasharray: 7.0,7.0;"/><polygon fill="#006400" points="1909,406.7075,1905,415.7075,1909,411.7075,1913,415.7075,1909,406.7075" style="stroke: #006400; stroke-width: 1.0;"/><!--link scan to azw--><path d="M1909,371.3555 C1909,371.3555 1909,324.987 1909,324.987 " fill="none" id="scan-azw" style="stroke: #006400; stroke-width: 1.0; stroke-dasharray: 7.0,7.0;"/><polygon fill="#006400" points="1909,376.3555,1913,367.3555,1909,371.3555,1905,367.3555,1909,376.3555" style="stroke: #006400; stroke-width: 1.0;"/><!--link azw to sdg--><path d="M1909,274.7616 C1909,274.7616 1909,228.2279 1909,228.2279 " fill="none" id="azw-sdg" style="stroke: #006400; stroke-width: 1.0; stroke-dasharray: 7.0,7.0;"/><polygon fill="#006400" points="1909,279.7616,1913,270.7616,1909,274.7616,1905,270.7616,1909,279.7616" style="stroke: #006400; stroke-width: 1.0;"/><!--link sdg to rab--><path d="M1801,216.3298 C1801,216.3298 1801,627.4531 1801,627.4531 C1801,627.4531 1816.2751,627.4531 1835.3092,627.4531 " fill="none" id="sdg-rab" style="stroke: #006400; stroke-width: 1.0; stroke-dasharray: 7.0,7.0;"/><polygon fill="#006400" points="1801,211.3298,1797,220.3298,1801,216.3298,1805,220.3298,1801,211.3298" style="stroke: #006400; stroke-width: 1.0;"/><text fill="#000000" font-family="sans-serif" font-size="13" lengthAdjust="spacingAndGlyphs" textLength="61" x="1702" y="612.02">«include»</text><!--link mwst to rab--><path d="M1320,608.6278 C1320,622.2233 1320,639.4531 1320,639.4531 C1320,639.4531 1830.156,639.4531 1830.156,639.4531 " fill="none" id="mwst-rab" style="stroke: #006400; stroke-width: 1.0; stroke-dasharray: 7.0,7.0;"/><polygon fill="#006400" points="1835.156,639.4531,1826.156,635.4531,1830.156,639.4531,1826.156,643.4531,1835.156,639.4531" style="stroke: #006400; stroke-width: 1.0;"/><text fill="#000000" font-family="sans-serif" font-size="13" lengthAdjust="spacingAndGlyphs" textLength="61" x="1547" y="588.52">«include»</text><!--link epa to mwst--><path d="M785.5394,592.4531 C785.5394,592.4531 1245.9168,592.4531 1245.9168,592.4531 " fill="none" id="epa-mwst" style="stroke: #006400; stroke-width: 1.0; stroke-dasharray: 7.0,7.0;"/><polygon fill="#006400" points="1250.9168,592.4531,1241.9168,588.4531,1245.9168,592.4531,1241.9168,596.4531,1250.9168,592.4531" style="stroke: #006400; stroke-width: 1.0;"/><text fill="#000000" font-family="sans-serif" font-size="13" lengthAdjust="spacingAndGlyphs" textLength="61" x="1031" y="588.52">«include»</text><!--link sys to abf--><path d="M946,1969.8783 C946,1880.3929 946,1555.4531 946,1555.4531 C946,1555.4531 889,1555.4531 832,1555.4531 " fill="none" id="sys-abf" style="stroke: #006400; stroke-width: 1.0;"/><!--link sys to glb--><path d="M934,1969.8709 C934,1890.8392 934,1631.4531 934,1631.4531 C934,1631.4531 849.8885,1631.4531 786.6405,1631.4531 " fill="none" id="sys-glb" style="stroke: #006400; stroke-width: 1.0;"/><!--link gl to bb--><path d="M21,907.0966 C21,1075.7997 21,1699.4531 21,1699.4531 C21,1699.4531 469.0425,1699.4531 646.6843,1699.4531 " fill="none" id="gl-bb" style="stroke: #006400; stroke-width: 1.0;"/><!--link gpf to bers--><path d="M1397.0181,1034.4531 C1397.0181,1034.4531 1846.0789,1034.4531 1846.0789,1034.4531 " fill="none" id="gpf-bers" style="stroke: #006400; stroke-width: 1.0; stroke-dasharray: 7.0,7.0;"/><polygon fill="#006400" points="1392.0181,1034.4531,1401.0181,1038.4531,1397.0181,1034.4531,1401.0181,1030.4531,1392.0181,1034.4531" style="stroke: #006400; stroke-width: 1.0;"/><text fill="#000000" font-family="sans-serif" font-size="13" lengthAdjust="spacingAndGlyphs" textLength="61" x="1547" y="1030.52">«include»</text><!--link ba to gpf--><path d="M779.5877,1034.4531 C779.5877,1034.4531 1246.8913,1034.4531 1246.8913,1034.4531 " fill="none" id="ba-gpf" style="stroke: #006400; stroke-width: 1.0; stroke-dasharray: 7.0,7.0;"/><polygon fill="#006400" points="774.5877,1034.4531,783.5877,1038.4531,779.5877,1034.4531,783.5877,1030.4531,774.5877,1034.4531" style="stroke: #006400; stroke-width: 1.0;"/><text fill="#000000" font-family="sans-serif" font-size="13" lengthAdjust="spacingAndGlyphs" textLength="61" x="1031" y="1030.52">«include»</text><!--link bempf to binvent--><path d="M787.0861,1121.4531 C787.0861,1121.4531 1233.8336,1121.4531 1233.8336,1121.4531 " fill="none" id="bempf-binvent" style="stroke: #006400; stroke-width: 1.0; stroke-dasharray: 7.0,7.0;"/><polygon fill="#006400" points="782.0861,1121.4531,791.0861,1125.4531,787.0861,1121.4531,791.0861,1117.4531,782.0861,1121.4531" style="stroke: #006400; stroke-width: 1.0;"/><text fill="#000000" font-family="sans-serif" font-size="13" lengthAdjust="spacingAndGlyphs" textLength="61" x="1031" y="1117.52">«include»</text><!--link sys to binvent--><path d="M958,1969.7511 C958,1834.7759 958,1143.7031 958,1143.7031 C958,1143.7031 1156.0828,1143.7031 1258.993,1143.7031 " fill="none" id="sys-binvent" style="stroke: #006400; stroke-width: 1.0;"/><!--link gl to DistributorDepartment--><path d="M51,906.9723 C51,937.7756 51,974.4531 51,974.4531 C51,974.4531 212.5798,974.4531 376.6842,974.4531 C458.7365,974.4531 541.4199,974.4531 604.8526,974.4531 C612.7816,974.4531 620.4099,974.4531 627.6986,974.4531 C629.5208,974.4531 631.3217,974.4531 633.1008,974.4531 " fill="none" id="gl-DistributorDepartment" style="stroke: #006400; stroke-width: 1.0;"/><!--link gl to ProductDepartment--><path d="M36,907.2366 C36,1034.6209 36,1409.4531 36,1409.4531 C36,1409.4531 201.2135,1409.4531 369.0085,1409.4531 C452.9059,1409.4531 537.4488,1409.4531 602.308,1409.4531 C610.4154,1409.4531 618.2152,1409.4531 625.6678,1409.4531 C629.3941,1409.4531 633.0336,1409.4531 636.5813,1409.4531 " fill="none" id="gl-ProductDepartment" style="stroke: #006400; stroke-width: 1.0;"/><!--link add distributor to delete distributor--><!--link add distributor to edit distributor info--><!--link add product to delete product--><!--link delete product to edit product info--><!--link add product to import major customer \nproduct list--><!--link import major customer \nproduct list to add product to \nsale database--><!--link add product to \nsale database to delete product from \nsale database--><!--
@startuml
skinparam titleBorderRoundCorner 15
skinparam titleBorderThickness 2
skinparam titleBorderColor blue
skinparam titleBackgroundColor Chartreuse
skinparam linetype ortho

skinparam package {
    FontColor Grey
    BorderColor Green
    shadowing false
}

skinparam usecase {
    Bordercolor darkgreen
  	BackgroundColor #GreenYellow/LightGoldenRodYellow
}

skinparam Actor{
    BorderColor black
    BackgroundColor white
}

skinparam database{
    backgroundcolor white
}

skinparam Arrow{
    Color darkgreen
}

title Use-Case diagram


:Customer: as ku
:NormalCustomer: as nku
:MajorCustomer: as gha
:HouseCustomer: as hku

left to right direction

:Staff: as vp
:Manager: as gl

nku - -> ku
vp - -> hku
gha - -> hku
hku - -> ku

database "System" as sys

rectangle "coole Bioladenbox"{

    package "UserDepartment"{
        (add Account) as acc
        (delete Account) as accdel

    }



    package "DataDepartment"{
        (print label) as et_dr
            (log money and product tranfers) - - sys
            (log cancellation) - - sys

            et_dr - - sys
    }


    package "FinancesDepartment"{
            (cash payment) as bg_ez
            (give change) as bg_az
            (calculate change) as we_br
            (sum calculation of base prices) as sdg
            (calculate discount) as rab
            (calculate MwSt) as mwst
            (print final price) as epa

            (basic cancellation) as l_st
            (global cancellation) as g_st

            (add item to shopping cart) as azw
            (scan product) as scan

            vp - - FinancesDepartment

            gl - - acc
            gl - - accdel

            gl - -> vp


            ku - - bg_ez



            sys - - we_br

            bg_ez <.. bg_az: <<include>>
            bg_az ..> we_br: <<include>>
            we_br ..> bg_ez: <<include>>
            l_st <.left. g_st: <<extend>>
            l_st .right.> scan: <<include>>
            azw .left.> scan: <<include>>
            sdg .left.> azw: <<include>>
            rab .left.> sdg: <<include>>
            mwst ..> rab: <<include>>
            epa ..> mwst: <<include>>




        }



    package "InventoryDepartment"{
        (record inventory)
        (divergent inventory was found) as abf
        (notify manager) as glb
        (adjust inventory) as bb

        sys - - abf
        sys - - glb
        gl - - bb
    }


    package "Order"{
        (send order) as ba
        (find lowest price) as gpf
        (create order) as bers
        (receive order) as bempf
        (place content of \norder in inventory) as binvent

        gpf <.. bers: <<include>>
        ba <.. gpf: <<include>>
        bempf <.. binvent: <<include>>
        sys - - binvent
    }


    package "DistributorDepartment"{
        (add distributor)
        (delete distributor)
        (edit distributor info)

        gl - - DistributorDepartment
    }

    package "ProductDepartment"{
        (add product)
        (delete product)
        (edit product info)
        (import major customer \nproduct list)
        (add product to \nsale database)
        (delete product from \nsale database)

        gl - - ProductDepartment
    }








}

@enduml

PlantUML version 1.2018.12(Sun Oct 21 12:15:15 CEST 2018)
(GPL source distribution)
Java Runtime: OpenJDK Runtime Environment
JVM: OpenJDK 64-Bit Server VM
Java Version: 11.0.1+13-Debian-2
Operating System: Linux
OS Version: 4.18.0-parrot10-amd64
Default Encoding: UTF-8
Language: en
Country: US
--></g></svg>