<?xml version="1.0" encoding="UTF-8" standalone="no"?><svg xmlns="http://www.w3.org/2000/svg" xmlns:xlink="http://www.w3.org/1999/xlink" contentScriptType="application/ecmascript" contentStyleType="text/css" height="1333px" preserveAspectRatio="none" style="width:1816px;height:1333px;" version="1.1" viewBox="0 0 1816 1333" width="1816px" zoomAndPan="magnify"><defs><filter height="300%" id="f5o66yh3fjgc3" width="300%" x="-1" y="-1"><feGaussianBlur result="blurOut" stdDeviation="2.0"/><feColorMatrix in="blurOut" result="blurOut2" type="matrix" values="0 0 0 0 0 0 0 0 0 0 0 0 0 0 0 0 0 0 .4 0"/><feOffset dx="4.0" dy="4.0" in="blurOut2" result="blurOut3"/><feBlend in="SourceGraphic" in2="blurOut3" mode="normal"/></filter></defs><g><rect fill="#7FFF00" height="30.9531" rx="7.5" ry="7.5" style="stroke: #0000FF; stroke-width: 2.0;" width="266" x="782" y="2"/><text fill="#000000" font-family="sans-serif" font-size="18" lengthAdjust="spacingAndGlyphs" textLength="250" x="790" y="23.708">Anwendungsfall - Diagramm</text><!--cluster coole Box--><rect fill="#FFFFFF" filter="url(#f5o66yh3fjgc3)" height="1115" style="stroke: #000000; stroke-width: 1.5;" width="1405" x="400" y="90.9531"/><text fill="#000000" font-family="sans-serif" font-size="14" font-weight="bold" lengthAdjust="spacingAndGlyphs" textLength="77" x="1064" y="105.9482">coole Box</text><!--cluster Kassensystem--><rect fill="#FFFFFF" filter="url(#f5o66yh3fjgc3)" height="302" style="stroke: #000000; stroke-width: 1.5;" width="1358.5" x="438.5" y="552.9531"/><text fill="#000000" font-family="sans-serif" font-size="14" font-weight="bold" lengthAdjust="spacingAndGlyphs" textLength="115" x="1060.25" y="567.9482">Kassensystem</text><ellipse cx="532.098" cy="1030.9768" fill="#FEFECE" filter="url(#f5o66yh3fjgc3)" rx="42.598" ry="14.5236" style="stroke: #A80036; stroke-width: 1.5;"/><text fill="#000000" font-family="sans-serif" font-size="14" lengthAdjust="spacingAndGlyphs" textLength="56" x="504.098" y="1035.6252">Inventur</text><ellipse cx="531.8427" cy="454.7217" fill="#FEFECE" filter="url(#f5o66yh3fjgc3)" rx="81.8427" ry="18.7685" style="stroke: #A80036; stroke-width: 1.5;"/><text fill="#000000" font-family="sans-serif" font-size="14" lengthAdjust="spacingAndGlyphs" textLength="135" x="464.3427" y="459.3701">per EMail anmelden</text><ellipse cx="531.9395" cy="527.041" fill="#FEFECE" filter="url(#f5o66yh3fjgc3)" rx="75.9395" ry="17.5879" style="stroke: #A80036; stroke-width: 1.5;"/><text fill="#000000" font-family="sans-serif" font-size="14" lengthAdjust="spacingAndGlyphs" textLength="121" x="471.4395" y="531.6895">Account erstellen</text><ellipse cx="532.2002" cy="963.7932" fill="#FEFECE" filter="url(#f5o66yh3fjgc3)" rx="74.7002" ry="17.34" style="stroke: #A80036; stroke-width: 1.5;"/><text fill="#000000" font-family="sans-serif" font-size="14" lengthAdjust="spacingAndGlyphs" textLength="118" x="473.2002" y="968.4416">Termin eintragen</text><ellipse cx="531.7711" cy="382.7073" fill="#FEFECE" filter="url(#f5o66yh3fjgc3)" rx="76.7711" ry="17.7542" style="stroke: #A80036; stroke-width: 1.5;"/><text fill="#000000" font-family="sans-serif" font-size="14" lengthAdjust="spacingAndGlyphs" textLength="123" x="470.2711" y="387.3558">Produkt tauschen</text><ellipse cx="532.1048" cy="886.9275" fill="#FEFECE" filter="url(#f5o66yh3fjgc3)" rx="106.6048" ry="23.9743" style="stroke: #A80036; stroke-width: 1.5;"/><text fill="#000000" font-family="sans-serif" font-size="14" lengthAdjust="spacingAndGlyphs" textLength="161" x="451.6048" y="886.5207">Großkundendatenbank</text><text fill="#000000" font-family="sans-serif" font-size="14" lengthAdjust="spacingAndGlyphs" textLength="79" x="492.6048" y="902.8176">importieren</text><ellipse cx="532.1626" cy="139.9857" fill="#FEFECE" filter="url(#f5o66yh3fjgc3)" rx="98.1626" ry="22.0325" style="stroke: #A80036; stroke-width: 1.5;"/><text fill="#000000" font-family="sans-serif" font-size="14" lengthAdjust="spacingAndGlyphs" textLength="172" x="446.1626" y="144.6341">Verkaufspreis kalkulieren</text><ellipse cx="532.1107" cy="1104.7456" fill="#FEFECE" filter="url(#f5o66yh3fjgc3)" rx="95.1107" ry="24.2924" style="stroke: #A80036; stroke-width: 1.5;"/><text fill="#000000" font-family="sans-serif" font-size="14" lengthAdjust="spacingAndGlyphs" textLength="85" x="489.6107" y="1098.652">Eingabe von</text><text fill="#000000" font-family="sans-serif" font-size="14" lengthAdjust="spacingAndGlyphs" textLength="141" x="461.6107" y="1114.9488">Normalkundendaten</text><ellipse cx="531.9543" cy="1180.744" fill="#FEFECE" filter="url(#f5o66yh3fjgc3)" rx="69.4543" ry="16.2909" style="stroke: #A80036; stroke-width: 1.5;"/><text fill="#000000" font-family="sans-serif" font-size="14" lengthAdjust="spacingAndGlyphs" textLength="105" x="479.4543" y="1185.3924">Etikett drucken</text><ellipse cx="531.9095" cy="308.035" fill="#FEFECE" filter="url(#f5o66yh3fjgc3)" rx="95.9095" ry="21.5819" style="stroke: #A80036; stroke-width: 1.5;"/><text fill="#000000" font-family="sans-serif" font-size="14" lengthAdjust="spacingAndGlyphs" textLength="167" x="448.4095" y="312.6835">Bestellvorgang erfassen</text><ellipse cx="531.9327" cy="224.1397" fill="#FEFECE" filter="url(#f5o66yh3fjgc3)" rx="123.9327" ry="27.1865" style="stroke: #A80036; stroke-width: 1.5;"/><text fill="#000000" font-family="sans-serif" font-size="14" lengthAdjust="spacingAndGlyphs" textLength="222" x="420.9327" y="227.3371">Waren und/oder Geldbewegung</text><text fill="#000000" font-family="sans-serif" font-size="14" lengthAdjust="spacingAndGlyphs" textLength="75" x="494.4327" y="243.634">archivieren</text><ellipse cx="888.7771" cy="382.9085" fill="#FEFECE" filter="url(#f5o66yh3fjgc3)" rx="92.7771" ry="20.9554" style="stroke: #A80036; stroke-width: 1.5;"/><text fill="#000000" font-family="sans-serif" font-size="14" lengthAdjust="spacingAndGlyphs" textLength="160" x="808.7771" y="387.557">Stornierung archivieren</text><ellipse cx="889.2471" cy="309.9026" fill="#FEFECE" filter="url(#f5o66yh3fjgc3)" rx="70.2471" ry="16.4494" style="stroke: #A80036; stroke-width: 1.5;"/><text fill="#000000" font-family="sans-serif" font-size="14" lengthAdjust="spacingAndGlyphs" textLength="107" x="835.7471" y="314.551">Ware einkaufen</text><ellipse cx="889.0557" cy="233.8643" fill="#FEFECE" filter="url(#f5o66yh3fjgc3)" rx="110.0557" ry="24.4111" style="stroke: #A80036; stroke-width: 1.5;"/><text fill="#000000" font-family="sans-serif" font-size="14" lengthAdjust="spacingAndGlyphs" textLength="198" x="790.0557" y="238.5127">günstigsten Anbieter wählen</text><ellipse cx="532.1884" cy="617.7908" fill="#FEFECE" filter="url(#f5o66yh3fjgc3)" rx="77.1884" ry="17.8377" style="stroke: #A80036; stroke-width: 1.5;"/><text fill="#000000" font-family="sans-serif" font-size="14" lengthAdjust="spacingAndGlyphs" textLength="124" x="470.1884" y="622.4393">Bargeld einzahlen</text><ellipse cx="1203.8678" cy="829.1267" fill="#FEFECE" filter="url(#f5o66yh3fjgc3)" rx="78.8678" ry="18.1736" style="stroke: #A80036; stroke-width: 1.5;"/><text fill="#000000" font-family="sans-serif" font-size="14" lengthAdjust="spacingAndGlyphs" textLength="128" x="1139.8678" y="833.7751">Bargeld auszahlen</text><ellipse cx="1203.7711" cy="684.7073" fill="#FEFECE" filter="url(#f5o66yh3fjgc3)" rx="76.7711" ry="17.7542" style="stroke: #A80036; stroke-width: 1.5;"/><text fill="#000000" font-family="sans-serif" font-size="14" lengthAdjust="spacingAndGlyphs" textLength="123" x="1142.2711" y="689.3558">Bargeld wechseln</text><ellipse cx="1691.8093" cy="642.715" fill="#FEFECE" filter="url(#f5o66yh3fjgc3)" rx="96.8093" ry="21.7619" style="stroke: #A80036; stroke-width: 1.5;"/><text fill="#000000" font-family="sans-serif" font-size="14" lengthAdjust="spacingAndGlyphs" textLength="169" x="1607.3093" y="647.3634">Wechselgeld berechnen</text><ellipse cx="532.228" cy="765.9987" fill="#FEFECE" filter="url(#f5o66yh3fjgc3)" rx="85.728" ry="19.5456" style="stroke: #A80036; stroke-width: 1.5;"/><text fill="#000000" font-family="sans-serif" font-size="14" lengthAdjust="spacingAndGlyphs" textLength="144" x="460.228" y="770.6472">einfache Stornierung</text><ellipse cx="1203.8427" cy="756.7217" fill="#FEFECE" filter="url(#f5o66yh3fjgc3)" rx="81.8427" ry="18.7685" style="stroke: #A80036; stroke-width: 1.5;"/><text fill="#000000" font-family="sans-serif" font-size="14" lengthAdjust="spacingAndGlyphs" textLength="135" x="1136.3427" y="761.3701">globale Stornierung</text><!--entity ku--><ellipse cx="287" cy="517.4531" fill="#FEFECE" filter="url(#f5o66yh3fjgc3)" rx="8" ry="8" style="stroke: #A80036; stroke-width: 2.0;"/><path d="M287,525.4531 L287,552.4531 M274,533.4531 L300,533.4531 M287,552.4531 L274,567.4531 M287,552.4531 L300,567.4531 " fill="none" filter="url(#f5o66yh3fjgc3)" style="stroke: #A80036; stroke-width: 2.0;"/><text fill="#000000" font-family="sans-serif" font-size="14" lengthAdjust="spacingAndGlyphs" textLength="45" x="264.5" y="587.4482">Kunde</text><!--entity nku--><ellipse cx="86" cy="340.4531" fill="#FEFECE" filter="url(#f5o66yh3fjgc3)" rx="8" ry="8" style="stroke: #A80036; stroke-width: 2.0;"/><path d="M86,348.4531 L86,375.4531 M73,356.4531 L99,356.4531 M86,375.4531 L73,390.4531 M86,375.4531 L99,390.4531 " fill="none" filter="url(#f5o66yh3fjgc3)" style="stroke: #A80036; stroke-width: 2.0;"/><text fill="#000000" font-family="sans-serif" font-size="14" lengthAdjust="spacingAndGlyphs" textLength="92" x="40" y="410.4482">Normalkunde</text><!--entity pku--><ellipse cx="86" cy="458.4531" fill="#FEFECE" filter="url(#f5o66yh3fjgc3)" rx="8" ry="8" style="stroke: #A80036; stroke-width: 2.0;"/><path d="M86,466.4531 L86,493.4531 M73,474.4531 L99,474.4531 M86,493.4531 L73,508.4531 M86,493.4531 L99,508.4531 " fill="none" filter="url(#f5o66yh3fjgc3)" style="stroke: #A80036; stroke-width: 2.0;"/><text fill="#000000" font-family="sans-serif" font-size="14" lengthAdjust="spacingAndGlyphs" textLength="60" x="56" y="528.4482">Personal</text><!--entity gha--><ellipse cx="86" cy="576.4531" fill="#FEFECE" filter="url(#f5o66yh3fjgc3)" rx="8" ry="8" style="stroke: #A80036; stroke-width: 2.0;"/><path d="M86,584.4531 L86,611.4531 M73,592.4531 L99,592.4531 M86,611.4531 L73,626.4531 M86,611.4531 L99,626.4531 " fill="none" filter="url(#f5o66yh3fjgc3)" style="stroke: #A80036; stroke-width: 2.0;"/><text fill="#000000" font-family="sans-serif" font-size="14" lengthAdjust="spacingAndGlyphs" textLength="160" x="6" y="646.4482">Großhandelsabnehmer</text><!--entity hku--><ellipse cx="86" cy="694.4531" fill="#FEFECE" filter="url(#f5o66yh3fjgc3)" rx="8" ry="8" style="stroke: #A80036; stroke-width: 2.0;"/><path d="M86,702.4531 L86,729.4531 M73,710.4531 L99,710.4531 M86,729.4531 L73,744.4531 M86,729.4531 L99,744.4531 " fill="none" filter="url(#f5o66yh3fjgc3)" style="stroke: #A80036; stroke-width: 2.0;"/><text fill="#000000" font-family="sans-serif" font-size="14" lengthAdjust="spacingAndGlyphs" textLength="79" x="46.5" y="764.4482">Hauskunde</text><!--entity vp--><ellipse cx="287" cy="1111.4531" fill="#FEFECE" filter="url(#f5o66yh3fjgc3)" rx="8" ry="8" style="stroke: #A80036; stroke-width: 2.0;"/><path d="M287,1119.4531 L287,1146.4531 M274,1127.4531 L300,1127.4531 M287,1146.4531 L274,1161.4531 M287,1146.4531 L300,1161.4531 " fill="none" filter="url(#f5o66yh3fjgc3)" style="stroke: #A80036; stroke-width: 2.0;"/><text fill="#000000" font-family="sans-serif" font-size="14" lengthAdjust="spacingAndGlyphs" textLength="120" x="227" y="1181.4482">Verkaufspersonal</text><!--entity gl--><ellipse cx="287" cy="855.4531" fill="#FEFECE" filter="url(#f5o66yh3fjgc3)" rx="8" ry="8" style="stroke: #A80036; stroke-width: 2.0;"/><path d="M287,863.4531 L287,890.4531 M274,871.4531 L300,871.4531 M287,890.4531 L274,905.4531 M287,890.4531 L300,905.4531 " fill="none" filter="url(#f5o66yh3fjgc3)" style="stroke: #A80036; stroke-width: 2.0;"/><text fill="#000000" font-family="sans-serif" font-size="14" lengthAdjust="spacingAndGlyphs" textLength="117" x="228.5" y="925.4482">Geschäftsleitung</text><!--entity sys--><ellipse cx="287" cy="54.4531" fill="#FEFECE" filter="url(#f5o66yh3fjgc3)" rx="8" ry="8" style="stroke: #A80036; stroke-width: 2.0;"/><path d="M287,62.4531 L287,89.4531 M274,70.4531 L300,70.4531 M287,89.4531 L274,104.4531 M287,89.4531 L300,104.4531 " fill="none" filter="url(#f5o66yh3fjgc3)" style="stroke: #A80036; stroke-width: 2.0;"/><text fill="#000000" font-family="sans-serif" font-size="14" lengthAdjust="spacingAndGlyphs" textLength="51" x="261.5" y="124.4482">System</text><!--link nku to ku--><path d="M132.1053,404.2844 C143.425,412.674 155.3461,421.9036 166,430.9531 C200.177,459.9833 236.6699,496.4052 260.5338,521.048 " fill="none" id="nku-ku" style="stroke: #A80036; stroke-width: 1.0;"/><polygon fill="#A80036" points="264.2531,524.8989,260.8778,515.6465,260.7795,521.3025,255.1235,521.2042,264.2531,524.8989" style="stroke: #A80036; stroke-width: 1.0;"/><!--link pku to ku--><path d="M116.0917,498.786 C154.9764,510.1999 222.1209,529.909 259.6304,540.9192 " fill="none" id="pku-ku" style="stroke: #A80036; stroke-width: 1.0;"/><polygon fill="#A80036" points="264.4983,542.3481,256.9893,535.9751,259.7007,540.9398,254.736,543.6513,264.4983,542.3481" style="stroke: #A80036; stroke-width: 1.0;"/><!--link gha to ku--><path d="M166.0181,584.4652 C199.1333,574.7448 235.3469,564.115 259.4396,557.043 " fill="none" id="gha-ku" style="stroke: #A80036; stroke-width: 1.0;"/><polygon fill="#A80036" points="264.3912,555.5895,254.6289,554.2866,259.5937,556.9979,256.8824,561.9627,264.3912,555.5895" style="stroke: #A80036; stroke-width: 1.0;"/><!--link hku to ku--><path d="M125.8904,698.1899 C138.9664,688.6567 153.3731,677.6785 166,666.9531 C200.177,637.9229 236.6699,601.501 260.5338,576.8582 " fill="none" id="hku-ku" style="stroke: #A80036; stroke-width: 1.0;"/><polygon fill="#A80036" points="264.2531,573.0073,255.1235,576.702,260.7795,576.6038,260.8778,582.2598,264.2531,573.0073" style="stroke: #A80036; stroke-width: 1.0;"/><!--link gl to date--><path d="M345.6288,909.2566 C363.0293,915.5959 382.196,922.3058 400,927.9531 C426.491,936.3559 456.3395,944.5976 480.943,951.0703 " fill="none" id="gl-date" style="stroke: #A80036; stroke-width: 1.0;"/><!--link gl to acc--><path d="M295.267,845.3608 C312.3457,763.7433 353.811,587.1273 400,547.9531 C415.5734,534.7449 436.0377,528.1358 456.1903,525.1498 " fill="none" id="gl-acc" style="stroke: #A80036; stroke-width: 1.0;"/><!--link ku to anm--><path d="M309.7719,535.8118 C332.177,523.2831 367.6356,504.5148 400,491.9531 C423.8513,482.6956 450.9474,474.6886 474.3574,468.5142 " fill="none" id="ku-anm" style="stroke: #A80036; stroke-width: 1.0;"/><!--link ku to bg_ez--><path d="M309.8149,560.2688 C332.2519,570.9553 367.7334,586.6867 400,595.9531 C420.3205,601.7888 442.8736,606.2555 463.5045,609.5892 " fill="none" id="ku-bg_ez" style="stroke: #A80036; stroke-width: 1.0;"/><!--link vp to bg_we--><path d="M344.7749,1184.7087 C392.5477,1215.0999 463.4361,1250.9531 532,1250.9531 C532,1250.9531 532,1250.9531 1060.5,1250.9531 C1179.2888,1250.9531 1050.9321,815.1378 1122,719.9531 C1129.2231,710.2788 1139.6571,703.2505 1150.6747,698.154 " fill="none" id="vp-bg_we" style="stroke: #A80036; stroke-width: 1.0;"/><!--link vp to bg_az--><path d="M305.371,1184.7249 C320.5209,1214.5441 344.7545,1253.3952 377,1276.9531 C434.9221,1319.2699 460.2666,1321.9531 532,1321.9531 C532,1321.9531 532,1321.9531 1060.5,1321.9531 C1161.4537,1321.9531 1196.0999,936.0277 1202.7443,847.0839 " fill="none" id="vp-bg_az" style="stroke: #A80036; stroke-width: 1.0;"/><!--link vp to l_st--><path d="M299.6657,1101.3474 C327.8788,1008.9374 393.8994,794.2731 400,788.9531 C412.9736,777.6393 429.4764,770.9445 446.384,767.1437 " fill="none" id="vp-l_st" style="stroke: #A80036; stroke-width: 1.0;"/><!--link sys to we_br--><path d="M312.6874,82.2952 C357.2326,76.2785 451.7415,64.9531 532,64.9531 C532,64.9531 532,64.9531 1533.5,64.9531 C1650.9484,64.9531 1684.5115,514.4259 1690.8034,620.649 " fill="none" id="sys-we_br" style="stroke: #A80036; stroke-width: 1.0;"/><!--link bg_ez to bg_we--><path d="M600.4419,628.8784 C635.3741,633.5517 678.5998,637.9531 717.5,637.9531 C717.5,637.9531 717.5,637.9531 1060.5,637.9531 C1100.7407,637.9531 1144.3167,654.8511 1172.7605,668.3827 " fill="none" id="bg_ez-bg_we" style="stroke: #A80036; stroke-width: 1.0; stroke-dasharray: 7.0,7.0;"/><polygon fill="#A80036" points="595.3496,628.1875,603.7299,633.3616,600.3042,628.86,604.8058,625.4342,595.3496,628.1875" style="stroke: #A80036; stroke-width: 1.0;"/><text fill="#000000" font-family="sans-serif" font-size="13" lengthAdjust="spacingAndGlyphs" textLength="61" x="858.5" y="634.02">«include»</text><!--link bg_ez to bg_az--><path d="M558.3563,638.8739 C584.4747,660.2017 624.9599,694.9023 656,728.9531 C686.9299,762.8831 671.5881,811.9531 717.5,811.9531 C717.5,811.9531 717.5,811.9531 1060.5,811.9531 C1086.8418,811.9531 1115.7158,814.813 1140.6134,818.1867 " fill="none" id="bg_ez-bg_az" style="stroke: #A80036; stroke-width: 1.0; stroke-dasharray: 7.0,7.0;"/><polygon fill="#A80036" points="554.2914,635.5678,558.7495,644.3499,558.1703,638.7228,563.7975,638.1436,554.2914,635.5678" style="stroke: #A80036; stroke-width: 1.0;"/><text fill="#000000" font-family="sans-serif" font-size="13" lengthAdjust="spacingAndGlyphs" textLength="61" x="858.5" y="808.02">«include»</text><!--link bg_az to we_br--><path d="M1242.0501,813.0434 C1280.7633,797.1147 1336.5863,774.9531 1347.5,774.9531 C1347.5,774.9531 1347.5,774.9531 1533.5,774.9531 C1598.7097,774.9531 1651.3466,708.1644 1676.3028,669.6032 " fill="none" id="bg_az-we_br" style="stroke: #A80036; stroke-width: 1.0; stroke-dasharray: 7.0,7.0;"/><polygon fill="#A80036" points="1679.208,665.0469,1670.9966,670.485,1676.5198,669.2628,1677.742,674.7861,1679.208,665.0469" style="stroke: #A80036; stroke-width: 1.0;"/><text fill="#000000" font-family="sans-serif" font-size="13" lengthAdjust="spacingAndGlyphs" textLength="61" x="1410" y="771.02">«include»</text><!--link bg_we to we_br--><path d="M1266.322,674.3316 C1291.4587,670.8953 1320.7819,667.9531 1347.5,667.9531 C1347.5,667.9531 1347.5,667.9531 1533.5,667.9531 C1561.4299,667.9531 1591.7939,664.1186 1618.4015,659.453 " fill="none" id="bg_we-we_br" style="stroke: #A80036; stroke-width: 1.0; stroke-dasharray: 7.0,7.0;"/><polygon fill="#A80036" points="1623.3245,658.5729,1613.7611,656.2191,1618.4025,659.4528,1615.1688,664.0942,1623.3245,658.5729" style="stroke: #A80036; stroke-width: 1.0;"/><text fill="#000000" font-family="sans-serif" font-size="13" lengthAdjust="spacingAndGlyphs" textLength="61" x="1410" y="664.02">«include»</text><!--link we_br to bg_ez--><path d="M1648.5707,623.178 C1617.2562,610.7104 1573.6139,596.9531 1533.5,596.9531 C1316.5,596.9531 1316.5,596.9531 1316.5,596.9531 C1059.5725,596.9531 755.4829,608.3479 613.1244,614.3503 " fill="none" id="we_br-bg_ez" style="stroke: #A80036; stroke-width: 1.0; stroke-dasharray: 7.0,7.0;"/><polygon fill="#A80036" points="607.7134,614.5791,616.8744,618.1952,612.7089,614.3678,616.5363,610.2024,607.7134,614.5791" style="stroke: #A80036; stroke-width: 1.0;"/><text fill="#000000" font-family="sans-serif" font-size="13" lengthAdjust="spacingAndGlyphs" textLength="61" x="1173.5" y="594.02">«include»</text><!--link l_st to g_st--><path d="M583.8984,748.1483 C620.7253,737.0837 671.5731,724.9531 717.5,724.9531 C717.5,724.9531 717.5,724.9531 1060.5,724.9531 C1093.555,724.9531 1129.8884,733.1417 1157.7248,741.2343 " fill="none" id="l_st-g_st" style="stroke: #A80036; stroke-width: 1.0; stroke-dasharray: 7.0,7.0;"/><polygon fill="#A80036" points="579.0245,749.631,588.7991,750.8384,583.808,748.1758,586.4706,743.1847,579.0245,749.631" style="stroke: #A80036; stroke-width: 1.0;"/><text fill="#000000" font-family="sans-serif" font-size="13" lengthAdjust="spacingAndGlyphs" textLength="60" x="859" y="721.02">«extend»</text><!--link vp to inv--><path d="M337.0891,1101.3332 C355.872,1087.4348 378.0114,1072.9563 400,1062.9531 C429.62,1049.4782 465.6636,1041.2321 492.5981,1036.4931 " fill="none" id="vp-inv" style="stroke: #A80036; stroke-width: 1.0;"/><!--link vp to et_dr--><path d="M347.2475,1152.2976 C385.7856,1158.2749 435.519,1165.9887 473.6763,1171.907 " fill="none" id="vp-et_dr" style="stroke: #A80036; stroke-width: 1.0;"/><!--link vp to eg_nkd--><path d="M347.2475,1133.6086 C378.2763,1128.796 416.5626,1122.8577 450.221,1117.6372 " fill="none" id="vp-eg_nkd" style="stroke: #A80036; stroke-width: 1.0;"/><!--link gl to grokudb_imp--><path d="M345.6836,886.9531 C369.608,886.9531 398.0381,886.9531 425.3927,886.9531 " fill="none" id="gl-grokudb_imp" style="stroke: #A80036; stroke-width: 1.0;"/><!--link sys to vp_calc--><path d="M312.7562,91.63 C347.8319,99.361 411.961,113.4955 461.8358,124.4883 " fill="none" id="sys-vp_calc" style="stroke: #A80036; stroke-width: 1.0;"/><!--link Produkt tauschen to Bestellvorgang erfassen--><!--link Bestellvorgang erfassen to Waren und/oder Geldbewegung\narchivieren--><!--link Produkt tauschen to Stornierung archivieren--><!--link Stornierung archivieren to Ware einkaufen--><!--link Ware einkaufen to günstigsten Anbieter wählen--><!--
@startuml
skinparam titleBorderRoundCorner 15
skinparam titleBorderThickness 2
skinparam titleBorderColor blue
skinparam titleBackgroundColor Chartreuse


title Anwendungsfall - Diagramm


:Kunde: as ku
:Normalkunde: as nku
:Personal: as pku
:Großhandelsabnehmer: as gha
:Hauskunde: as hku

left to right direction
nku - -> ku
pku - -> ku
gha - -> ku
hku - -> ku


:Verkaufspersonal: as vp
:Geschäftsleitung: as gl

:System: as sys

rectangle "coole Box"{
    (Inventur) as inv
    (per EMail anmelden) as anm
    (Account erstellen) as acc
    (Termin eintragen) as date
    
    (Produkt tauschen)
    (Großkundendatenbank\nimportieren) as grokudb_imp
    (Verkaufspreis kalkulieren) as vp_calc
    (Eingabe von\nNormalkundendaten) as eg_nkd
    (Etikett drucken) as et_dr
    (Bestellvorgang erfassen)
    (Waren und/oder Geldbewegung\narchivieren)
    (Stornierung archivieren)
    (Ware einkaufen)
    (günstigsten Anbieter wählen)


    rectangle "Kassensystem"{
            (Bargeld einzahlen) as bg_ez
            (Bargeld auszahlen) as bg_az
            (Bargeld wechseln) as bg_we
            (Wechselgeld berechnen) as we_br

            (einfache Stornierung) as l_st
            (globale Stornierung) as g_st

            gl - - date
            gl - - acc
            ku - - anm

            ku - - bg_ez

            vp - - bg_we
            vp - - bg_az
            vp - - l_st


            sys - - we_br

            bg_ez <.. bg_we: <<include>>
            bg_ez <.. bg_az: <<include>>
            bg_az ..> we_br: <<include>>
            bg_we ..> we_br: <<include>>
            we_br ..> bg_ez: <<include>>
            l_st <.. g_st: <<extend>>

        }





    vp - - inv
    vp - - et_dr
    vp - - eg_nkd



    gl - - grokudb_imp

    sys - - vp_calc





}

@enduml

PlantUML version 1.2018.11(Sat Sep 22 18:43:53 CEST 2018)
(GPL source distribution)
Java Runtime: OpenJDK Runtime Environment
JVM: OpenJDK 64-Bit Server VM
Java Version: 10.0.2+13-Debian-1
Operating System: Linux
OS Version: 4.18.0-parrot10-amd64
Default Encoding: UTF-8
Language: en
Country: US
--></g></svg>