<?xml version="1.0" encoding="UTF-8" standalone="no"?><svg xmlns="http://www.w3.org/2000/svg" xmlns:xlink="http://www.w3.org/1999/xlink" contentScriptType="application/ecmascript" contentStyleType="text/css" height="1708px" preserveAspectRatio="none" style="width:3431px;height:1708px;" version="1.1" viewBox="0 0 3431 1708" width="3431px" zoomAndPan="magnify"><defs><filter height="300%" id="f1urpjxj3bdve9" width="300%" x="-1" y="-1"><feGaussianBlur result="blurOut" stdDeviation="2.0"/><feColorMatrix in="blurOut" result="blurOut2" type="matrix" values="0 0 0 0 0 0 0 0 0 0 0 0 0 0 0 0 0 0 .4 0"/><feOffset dx="4.0" dy="4.0" in="blurOut2" result="blurOut3"/><feBlend in="SourceGraphic" in2="blurOut3" mode="normal"/></filter><linearGradient id="g1urpjxj3bdve90" x1="0%" x2="100%" y1="0%" y2="100%"><stop offset="0%" stop-color="#ADFF2F"/><stop offset="100%" stop-color="#FAFAD2"/></linearGradient></defs><g><rect fill="#7FFF00" height="30.9531" rx="7.5" ry="7.5" style="stroke: #0000FF; stroke-width: 2.0;" width="176" x="1633" y="2"/><text fill="#000000" font-family="sans-serif" font-size="18" lengthAdjust="spacingAndGlyphs" textLength="160" x="1641" y="23.708">Use-Case diagram</text><!--cluster coole Bioladenbox--><rect fill="#FFFFFF" filter="url(#f1urpjxj3bdve9)" height="1590" style="stroke: #008000; stroke-width: 1.5;" width="2834" x="583" y="52.4531"/><text fill="#808080" font-family="sans-serif" font-size="14" font-weight="bold" lengthAdjust="spacingAndGlyphs" textLength="144" x="1928" y="67.4482">coole Bioladenbox</text><!--cluster UserDepartment--><polygon fill="#FFFFFF" points="640.5,348.4531,776.5,348.4531,783.5,370.75,795.5,370.75,795.5,482.4531,640.5,482.4531,640.5,348.4531" style="stroke: #008000; stroke-width: 1.5;"/><line style="stroke: #008000; stroke-width: 1.5;" x1="640.5" x2="783.5" y1="370.75" y2="370.75"/><text fill="#808080" font-family="sans-serif" font-size="14" font-weight="bold" lengthAdjust="spacingAndGlyphs" textLength="130" x="644.5" y="363.4482">UserDepartment</text><!--cluster DataDepartment--><polygon fill="#FFFFFF" points="591,1413.4531,725,1413.4531,732,1435.75,845,1435.75,845,1634.4531,591,1634.4531,591,1413.4531" style="stroke: #008000; stroke-width: 1.5;"/><line style="stroke: #008000; stroke-width: 1.5;" x1="591" x2="732" y1="1435.75" y2="1435.75"/><text fill="#808080" font-family="sans-serif" font-size="14" font-weight="bold" lengthAdjust="spacingAndGlyphs" textLength="128" x="595" y="1428.4482">DataDepartment</text><!--cluster FinancesDepartment--><polygon fill="#FFFFFF" points="642.5,79.4531,811.5,79.4531,818.5,101.75,3409,101.75,3409,340.4531,642.5,340.4531,642.5,79.4531" style="stroke: #008000; stroke-width: 1.5;"/><line style="stroke: #008000; stroke-width: 1.5;" x1="642.5" x2="818.5" y1="101.75" y2="101.75"/><text fill="#808080" font-family="sans-serif" font-size="14" font-weight="bold" lengthAdjust="spacingAndGlyphs" textLength="163" x="646.5" y="94.4482">FinancesDepartment</text><!--cluster InventoryDepartment--><polygon fill="#FFFFFF" points="596,1115.4531,770,1115.4531,777,1137.75,840,1137.75,840,1405.4531,596,1405.4531,596,1115.4531" style="stroke: #008000; stroke-width: 1.5;"/><line style="stroke: #008000; stroke-width: 1.5;" x1="596" x2="777" y1="1137.75" y2="1137.75"/><text fill="#808080" font-family="sans-serif" font-size="14" font-weight="bold" lengthAdjust="spacingAndGlyphs" textLength="168" x="600" y="1130.4482">InventoryDepartment</text><!--cluster Order--><polygon fill="#FFFFFF" points="646,671.4531,698,671.4531,705,693.75,1879.5,693.75,1879.5,845.4531,646,845.4531,646,671.4531" style="stroke: #008000; stroke-width: 1.5;"/><line style="stroke: #008000; stroke-width: 1.5;" x1="646" x2="705" y1="693.75" y2="693.75"/><text fill="#808080" font-family="sans-serif" font-size="14" font-weight="bold" lengthAdjust="spacingAndGlyphs" textLength="46" x="650" y="686.4482">Order</text><!--cluster DistributorDepartment--><polygon fill="#FFFFFF" points="635.5,490.4531,818.5,490.4531,825.5,512.75,1407,512.75,1407,663.4531,635.5,663.4531,635.5,490.4531" style="stroke: #008000; stroke-width: 1.5;"/><line style="stroke: #008000; stroke-width: 1.5;" x1="635.5" x2="825.5" y1="512.75" y2="512.75"/><text fill="#808080" font-family="sans-serif" font-size="14" font-weight="bold" lengthAdjust="spacingAndGlyphs" textLength="177" x="639.5" y="505.4482">DistributorDepartment</text><!--cluster ProductDepartment--><polygon fill="#FFFFFF" points="637.5,853.4531,798.5,853.4531,805.5,875.75,1431,875.75,1431,1107.4531,637.5,1107.4531,637.5,853.4531" style="stroke: #008000; stroke-width: 1.5;"/><line style="stroke: #008000; stroke-width: 1.5;" x1="637.5" x2="805.5" y1="875.75" y2="875.75"/><text fill="#808080" font-family="sans-serif" font-size="14" font-weight="bold" lengthAdjust="spacingAndGlyphs" textLength="155" x="641.5" y="868.4482">ProductDepartment</text><ellipse cx="718.1001" cy="390.3732" fill="url(#g1urpjxj3bdve90)" filter="url(#f1urpjxj3bdve9)" rx="62.6001" ry="14.92" style="stroke: #006400; stroke-width: 1.5;"/><text fill="#000000" font-family="sans-serif" font-size="14" lengthAdjust="spacingAndGlyphs" textLength="87" x="674.6001" y="395.0216">add Account</text><ellipse cx="717.9543" cy="457.244" fill="url(#g1urpjxj3bdve90)" filter="url(#f1urpjxj3bdve9)" rx="69.4543" ry="16.2909" style="stroke: #006400; stroke-width: 1.5;"/><text fill="#000000" font-family="sans-serif" font-size="14" lengthAdjust="spacingAndGlyphs" textLength="105" x="665.4543" y="461.8924">delete Account</text><ellipse cx="717.8762" cy="1455.4768" fill="url(#g1urpjxj3bdve90)" filter="url(#f1urpjxj3bdve9)" rx="50.3762" ry="14.5236" style="stroke: #006400; stroke-width: 1.5;"/><text fill="#000000" font-family="sans-serif" font-size="14" lengthAdjust="spacingAndGlyphs" textLength="67" x="684.3762" y="1460.1252">print label</text><ellipse cx="717.8973" cy="1531.6326" fill="url(#g1urpjxj3bdve90)" filter="url(#f1urpjxj3bdve9)" rx="118.8973" ry="26.1795" style="stroke: #006400; stroke-width: 1.5;"/><text fill="#000000" font-family="sans-serif" font-size="14" lengthAdjust="spacingAndGlyphs" textLength="217" x="609.3973" y="1536.281">log money and product tranfers</text><ellipse cx="718.2471" cy="1609.4026" fill="url(#g1urpjxj3bdve90)" filter="url(#f1urpjxj3bdve9)" rx="70.2471" ry="16.4494" style="stroke: #006400; stroke-width: 1.5;"/><text fill="#000000" font-family="sans-serif" font-size="14" lengthAdjust="spacingAndGlyphs" textLength="107" x="664.7471" y="1614.051">log cancellation</text><ellipse cx="717.8417" cy="203.6215" fill="url(#g1urpjxj3bdve90)" filter="url(#f1urpjxj3bdve9)" rx="66.3417" ry="15.6683" style="stroke: #006400; stroke-width: 1.5;"/><text fill="#000000" font-family="sans-serif" font-size="14" lengthAdjust="spacingAndGlyphs" textLength="97" x="669.3417" y="208.2699">cash payment</text><ellipse cx="1319.5143" cy="140.656" fill="url(#g1urpjxj3bdve90)" filter="url(#f1urpjxj3bdve9)" rx="61.5143" ry="14.7029" style="stroke: #006400; stroke-width: 1.5;"/><text fill="#000000" font-family="sans-serif" font-size="14" lengthAdjust="spacingAndGlyphs" textLength="84" x="1277.5143" y="145.3044">give change</text><ellipse cx="1809.2894" cy="211.211" fill="url(#g1urpjxj3bdve90)" filter="url(#f1urpjxj3bdve9)" rx="74.2894" ry="17.2579" style="stroke: #006400; stroke-width: 1.5;"/><text fill="#000000" font-family="sans-serif" font-size="14" lengthAdjust="spacingAndGlyphs" textLength="117" x="1750.7894" y="215.8594">calculate change</text><ellipse cx="2310.6957" cy="199.2923" fill="url(#g1urpjxj3bdve90)" filter="url(#f1urpjxj3bdve9)" rx="114.6957" ry="25.3391" style="stroke: #006400; stroke-width: 1.5;"/><text fill="#000000" font-family="sans-serif" font-size="14" lengthAdjust="spacingAndGlyphs" textLength="208" x="2206.6957" y="203.9407">sum calculation of base prices</text><ellipse cx="1809.6068" cy="286.3745" fill="url(#g1urpjxj3bdve90)" filter="url(#f1urpjxj3bdve9)" rx="77.6068" ry="17.9214" style="stroke: #006400; stroke-width: 1.5;"/><text fill="#000000" font-family="sans-serif" font-size="14" lengthAdjust="spacingAndGlyphs" textLength="125" x="1747.1068" y="291.0229">calculate discount</text><ellipse cx="1319.2758" cy="297.5083" fill="url(#g1urpjxj3bdve90)" filter="url(#f1urpjxj3bdve9)" rx="68.2758" ry="16.0552" style="stroke: #006400; stroke-width: 1.5;"/><text fill="#000000" font-family="sans-serif" font-size="14" lengthAdjust="spacingAndGlyphs" textLength="102" x="1268.2758" y="302.1567">calculate MwSt</text><ellipse cx="717.9975" cy="306.3526" fill="url(#g1urpjxj3bdve90)" filter="url(#f1urpjxj3bdve9)" rx="67.4975" ry="15.8995" style="stroke: #006400; stroke-width: 1.5;"/><text fill="#000000" font-family="sans-serif" font-size="14" lengthAdjust="spacingAndGlyphs" textLength="100" x="667.9975" y="311.0011">print final price</text><ellipse cx="2834.3548" cy="271.6241" fill="url(#g1urpjxj3bdve90)" filter="url(#f1urpjxj3bdve9)" rx="76.3548" ry="17.671" style="stroke: #006400; stroke-width: 1.5;"/><text fill="#000000" font-family="sans-serif" font-size="14" lengthAdjust="spacingAndGlyphs" textLength="122" x="2773.3548" y="276.2725">basic cancellation</text><ellipse cx="3322.4465" cy="297.5424" fill="url(#g1urpjxj3bdve90)" filter="url(#f1urpjxj3bdve9)" rx="78.4465" ry="18.0893" style="stroke: #006400; stroke-width: 1.5;"/><text fill="#000000" font-family="sans-serif" font-size="14" lengthAdjust="spacingAndGlyphs" textLength="127" x="3258.9465" y="302.1909">global cancellation</text><ellipse cx="2834.4278" cy="169.4387" fill="url(#g1urpjxj3bdve90)" filter="url(#f1urpjxj3bdve9)" rx="100.4278" ry="22.4856" style="stroke: #006400; stroke-width: 1.5;"/><text fill="#000000" font-family="sans-serif" font-size="14" lengthAdjust="spacingAndGlyphs" textLength="177" x="2745.9278" y="174.0871">add item to shopping cart</text><ellipse cx="3322.5752" cy="166.6682" fill="url(#g1urpjxj3bdve90)" filter="url(#f1urpjxj3bdve9)" rx="64.0752" ry="15.215" style="stroke: #006400; stroke-width: 1.5;"/><text fill="#000000" font-family="sans-serif" font-size="14" lengthAdjust="spacingAndGlyphs" textLength="91" x="3277.0752" y="171.3166">scan product</text><ellipse cx="717.7526" cy="1159.3036" fill="url(#g1urpjxj3bdve90)" filter="url(#f1urpjxj3bdve9)" rx="72.2526" ry="16.8505" style="stroke: #006400; stroke-width: 1.5;"/><text fill="#000000" font-family="sans-serif" font-size="14" lengthAdjust="spacingAndGlyphs" textLength="112" x="661.7526" y="1163.9521">record inventory</text><ellipse cx="718.2303" cy="1236.6992" fill="url(#g1urpjxj3bdve90)" filter="url(#f1urpjxj3bdve9)" rx="114.2303" ry="25.2461" style="stroke: #006400; stroke-width: 1.5;"/><text fill="#000000" font-family="sans-serif" font-size="14" lengthAdjust="spacingAndGlyphs" textLength="207" x="614.7303" y="1241.3476">divergent inventory was found</text><ellipse cx="717.7758" cy="1312.5083" fill="url(#g1urpjxj3bdve90)" filter="url(#f1urpjxj3bdve9)" rx="68.2758" ry="16.0552" style="stroke: #006400; stroke-width: 1.5;"/><text fill="#000000" font-family="sans-serif" font-size="14" lengthAdjust="spacingAndGlyphs" textLength="102" x="666.7758" y="1317.1567">notify manager</text><ellipse cx="718.0454" cy="1380.5622" fill="url(#g1urpjxj3bdve90)" filter="url(#f1urpjxj3bdve9)" rx="71.0454" ry="16.6091" style="stroke: #006400; stroke-width: 1.5;"/><text fill="#000000" font-family="sans-serif" font-size="14" lengthAdjust="spacingAndGlyphs" textLength="109" x="663.5454" y="1385.2106">adjust inventory</text><ellipse cx="718.2401" cy="715.4768" fill="url(#g1urpjxj3bdve90)" filter="url(#f1urpjxj3bdve9)" rx="56.7401" ry="14.5236" style="stroke: #006400; stroke-width: 1.5;"/><text fill="#000000" font-family="sans-serif" font-size="14" lengthAdjust="spacingAndGlyphs" textLength="76" x="680.2401" y="720.1252">send order</text><ellipse cx="1319.2526" cy="715.3036" fill="url(#g1urpjxj3bdve90)" filter="url(#f1urpjxj3bdve9)" rx="72.2526" ry="16.8505" style="stroke: #006400; stroke-width: 1.5;"/><text fill="#000000" font-family="sans-serif" font-size="14" lengthAdjust="spacingAndGlyphs" textLength="112" x="1263.2526" y="719.9521">find lowest price</text><ellipse cx="1809.3742" cy="715.228" fill="url(#g1urpjxj3bdve90)" filter="url(#f1urpjxj3bdve9)" rx="61.8742" ry="14.7748" style="stroke: #006400; stroke-width: 1.5;"/><text fill="#000000" font-family="sans-serif" font-size="14" lengthAdjust="spacingAndGlyphs" textLength="85" x="1766.8742" y="719.8764">create order</text><ellipse cx="718.0752" cy="802.6682" fill="url(#g1urpjxj3bdve90)" filter="url(#f1urpjxj3bdve9)" rx="64.0752" ry="15.215" style="stroke: #006400; stroke-width: 1.5;"/><text fill="#000000" font-family="sans-serif" font-size="14" lengthAdjust="spacingAndGlyphs" textLength="91" x="672.5752" y="807.3166">receive order</text><ellipse cx="1319.4969" cy="806.6321" fill="url(#g1urpjxj3bdve90)" filter="url(#f1urpjxj3bdve9)" rx="86.4969" ry="25.679" style="stroke: #006400; stroke-width: 1.5;"/><text fill="#000000" font-family="sans-serif" font-size="14" lengthAdjust="spacingAndGlyphs" textLength="112" x="1263.4969" y="802.607">place content of</text><text fill="#000000" font-family="sans-serif" font-size="14" lengthAdjust="spacingAndGlyphs" textLength="120" x="1259.4969" y="818.9039">order in inventory</text><ellipse cx="717.9975" cy="604.3526" fill="url(#g1urpjxj3bdve90)" filter="url(#f1urpjxj3bdve9)" rx="67.4975" ry="15.8995" style="stroke: #006400; stroke-width: 1.5;"/><text fill="#000000" font-family="sans-serif" font-size="14" lengthAdjust="spacingAndGlyphs" textLength="100" x="667.9975" y="609.0011">add distributor</text><ellipse cx="718.2002" cy="535.2932" fill="url(#g1urpjxj3bdve90)" filter="url(#f1urpjxj3bdve9)" rx="74.7002" ry="17.34" style="stroke: #006400; stroke-width: 1.5;"/><text fill="#000000" font-family="sans-serif" font-size="14" lengthAdjust="spacingAndGlyphs" textLength="118" x="659.2002" y="539.9416">delete distributor</text><ellipse cx="1319.2901" cy="604.2111" fill="url(#g1urpjxj3bdve90)" filter="url(#f1urpjxj3bdve9)" rx="79.2901" ry="18.258" style="stroke: #006400; stroke-width: 1.5;"/><text fill="#000000" font-family="sans-serif" font-size="14" lengthAdjust="spacingAndGlyphs" textLength="129" x="1254.7901" y="608.8596">edit distributor info</text><ellipse cx="718.0143" cy="1040.656" fill="url(#g1urpjxj3bdve90)" filter="url(#f1urpjxj3bdve9)" rx="61.5143" ry="14.7029" style="stroke: #006400; stroke-width: 1.5;"/><text fill="#000000" font-family="sans-serif" font-size="14" lengthAdjust="spacingAndGlyphs" textLength="84" x="676.0143" y="1045.3044">add product</text><ellipse cx="717.7758" cy="974.5083" fill="url(#g1urpjxj3bdve90)" filter="url(#f1urpjxj3bdve9)" rx="68.2758" ry="16.0552" style="stroke: #006400; stroke-width: 1.5;"/><text fill="#000000" font-family="sans-serif" font-size="14" lengthAdjust="spacingAndGlyphs" textLength="102" x="666.7758" y="979.1567">delete product</text><ellipse cx="718.1576" cy="906.3846" fill="url(#g1urpjxj3bdve90)" filter="url(#f1urpjxj3bdve9)" rx="72.6576" ry="16.9315" style="stroke: #006400; stroke-width: 1.5;"/><text fill="#000000" font-family="sans-serif" font-size="14" lengthAdjust="spacingAndGlyphs" textLength="113" x="661.6576" y="911.0331">edit product info</text><ellipse cx="1319.4224" cy="1075.4348" fill="url(#g1urpjxj3bdve90)" filter="url(#f1urpjxj3bdve9)" rx="103.4224" ry="23.9817" style="stroke: #006400; stroke-width: 1.5;"/><text fill="#000000" font-family="sans-serif" font-size="14" lengthAdjust="spacingAndGlyphs" textLength="156" x="1241.4224" y="1075.0164">import major customer</text><text fill="#000000" font-family="sans-serif" font-size="14" lengthAdjust="spacingAndGlyphs" textLength="77" x="1280.9224" y="1091.3133">product list</text><ellipse cx="1319.6029" cy="990.6738" fill="url(#g1urpjxj3bdve90)" filter="url(#f1urpjxj3bdve9)" rx="74.1029" ry="25.7207" style="stroke: #006400; stroke-width: 1.5;"/><text fill="#000000" font-family="sans-serif" font-size="14" lengthAdjust="spacingAndGlyphs" textLength="102" x="1268.6029" y="987.639">add product to</text><text fill="#000000" font-family="sans-serif" font-size="14" lengthAdjust="spacingAndGlyphs" textLength="96" x="1271.6029" y="1003.9359">sale database</text><ellipse cx="1319.4195" cy="905.5838" fill="url(#g1urpjxj3bdve90)" filter="url(#f1urpjxj3bdve9)" rx="93.9195" ry="24.6307" style="stroke: #006400; stroke-width: 1.5;"/><text fill="#000000" font-family="sans-serif" font-size="14" lengthAdjust="spacingAndGlyphs" textLength="137" x="1250.9195" y="904.1575">delete product from</text><text fill="#000000" font-family="sans-serif" font-size="14" lengthAdjust="spacingAndGlyphs" textLength="96" x="1271.4195" y="920.4544">sale database</text><!--entity ku--><ellipse cx="504" cy="171.9531" fill="#FFFFFF" filter="url(#f1urpjxj3bdve9)" rx="8" ry="8" style="stroke: #000000; stroke-width: 2.0;"/><path d="M504,179.9531 L504,206.9531 M491,187.9531 L517,187.9531 M504,206.9531 L491,221.9531 M504,206.9531 L517,221.9531 " fill="none" filter="url(#f1urpjxj3bdve9)" style="stroke: #000000; stroke-width: 2.0;"/><text fill="#000000" font-family="sans-serif" font-size="14" lengthAdjust="spacingAndGlyphs" textLength="68" x="470" y="241.9482">Customer</text><!--entity nku--><ellipse cx="351" cy="63.9531" fill="#FFFFFF" filter="url(#f1urpjxj3bdve9)" rx="8" ry="8" style="stroke: #000000; stroke-width: 2.0;"/><path d="M351,71.9531 L351,98.9531 M338,79.9531 L364,79.9531 M351,98.9531 L338,113.9531 M351,98.9531 L364,113.9531 " fill="none" filter="url(#f1urpjxj3bdve9)" style="stroke: #000000; stroke-width: 2.0;"/><text fill="#000000" font-family="sans-serif" font-size="14" lengthAdjust="spacingAndGlyphs" textLength="116" x="293" y="133.9482">NormalCustomer</text><!--entity gha--><ellipse cx="179.5" cy="170.9531" fill="#FFFFFF" filter="url(#f1urpjxj3bdve9)" rx="8" ry="8" style="stroke: #000000; stroke-width: 2.0;"/><path d="M179.5,178.9531 L179.5,205.9531 M166.5,186.9531 L192.5,186.9531 M179.5,205.9531 L166.5,220.9531 M179.5,205.9531 L192.5,220.9531 " fill="none" filter="url(#f1urpjxj3bdve9)" style="stroke: #000000; stroke-width: 2.0;"/><text fill="#000000" font-family="sans-serif" font-size="14" lengthAdjust="spacingAndGlyphs" textLength="105" x="127" y="240.9482">MajorCustomer</text><!--entity hku--><ellipse cx="351" cy="181.9531" fill="#FFFFFF" filter="url(#f1urpjxj3bdve9)" rx="8" ry="8" style="stroke: #000000; stroke-width: 2.0;"/><path d="M351,189.9531 L351,216.9531 M338,197.9531 L364,197.9531 M351,216.9531 L338,231.9531 M351,216.9531 L364,231.9531 " fill="none" filter="url(#f1urpjxj3bdve9)" style="stroke: #000000; stroke-width: 2.0;"/><text fill="#000000" font-family="sans-serif" font-size="14" lengthAdjust="spacingAndGlyphs" textLength="113" x="294.5" y="251.9482">HouseCustomer</text><!--entity vp--><ellipse cx="179.5" cy="288.9531" fill="#FFFFFF" filter="url(#f1urpjxj3bdve9)" rx="8" ry="8" style="stroke: #000000; stroke-width: 2.0;"/><path d="M179.5,296.9531 L179.5,323.9531 M166.5,304.9531 L192.5,304.9531 M179.5,323.9531 L166.5,338.9531 M179.5,323.9531 L192.5,338.9531 " fill="none" filter="url(#f1urpjxj3bdve9)" style="stroke: #000000; stroke-width: 2.0;"/><text fill="#000000" font-family="sans-serif" font-size="14" lengthAdjust="spacingAndGlyphs" textLength="30" x="164.5" y="358.9482">Staff</text><!--entity gl--><ellipse cx="36" cy="528.9531" fill="#FFFFFF" filter="url(#f1urpjxj3bdve9)" rx="8" ry="8" style="stroke: #000000; stroke-width: 2.0;"/><path d="M36,536.9531 L36,563.9531 M23,544.9531 L49,544.9531 M36,563.9531 L23,578.9531 M36,563.9531 L49,578.9531 " fill="none" filter="url(#f1urpjxj3bdve9)" style="stroke: #000000; stroke-width: 2.0;"/><text fill="#000000" font-family="sans-serif" font-size="14" lengthAdjust="spacingAndGlyphs" textLength="60" x="6" y="598.9482">Manager</text><!--entity sys--><path d="M898,1660.9531 C898,1650.9531 933.5,1650.9531 933.5,1650.9531 C933.5,1650.9531 969,1650.9531 969,1660.9531 L969,1686.25 C969,1696.25 933.5,1696.25 933.5,1696.25 C933.5,1696.25 898,1696.25 898,1686.25 L898,1660.9531 " fill="#FFFFFF" filter="url(#f1urpjxj3bdve9)" style="stroke: #000000; stroke-width: 1.5;"/><path d="M898,1660.9531 C898,1670.9531 933.5,1670.9531 933.5,1670.9531 C933.5,1670.9531 969,1670.9531 969,1660.9531 " fill="none" style="stroke: #000000; stroke-width: 1.5;"/><text fill="#000000" font-family="sans-serif" font-size="14" lengthAdjust="spacingAndGlyphs" textLength="51" x="908" y="1687.9482">System</text><!--link nku to ku--><path d="M409.2792,131.4531 C452.5169,131.4531 504,131.4531 504,131.4531 C504,131.4531 504,156.5704 504,156.5704 " fill="none" id="nku-ku" style="stroke: #006400; stroke-width: 1.0;"/><polygon fill="#006400" points="504,161.5704,508,152.5704,504,156.5704,500,152.5704,504,161.5704" style="stroke: #006400; stroke-width: 1.0;"/><!--link vp to hku--><path d="M180,278.7414 C180,263.2867 180,249.4531 180,249.4531 C180,249.4531 289.0595,249.4531 289.0595,249.4531 " fill="none" id="vp-hku" style="stroke: #006400; stroke-width: 1.0;"/><polygon fill="#006400" points="294.0595,249.4531,285.0595,245.4531,289.0595,249.4531,285.0595,253.4531,294.0595,249.4531" style="stroke: #006400; stroke-width: 1.0;"/><!--link gha to hku--><path d="M232.355,207.9531 C232.355,207.9531 289.4509,207.9531 289.4509,207.9531 " fill="none" id="gha-hku" style="stroke: #006400; stroke-width: 1.0;"/><polygon fill="#006400" points="294.4509,207.9531,285.4509,203.9531,289.4509,207.9531,285.4509,211.9531,294.4509,207.9531" style="stroke: #006400; stroke-width: 1.0;"/><!--link hku to ku--><path d="M407.5369,208.4531 C407.5369,208.4531 464.9003,208.4531 464.9003,208.4531 " fill="none" id="hku-ku" style="stroke: #006400; stroke-width: 1.0;"/><polygon fill="#006400" points="469.9003,208.4531,460.9003,204.4531,464.9003,208.4531,460.9003,212.4531,469.9003,208.4531" style="stroke: #006400; stroke-width: 1.0;"/><!--link log money and product tranfers to sys--><path d="M813,1547.1921 C813,1584.1636 813,1673.4531 813,1673.4531 C813,1673.4531 862.4532,1673.4531 897.9978,1673.4531 " fill="none" id="log money and product tranfers-sys" style="stroke: #006400; stroke-width: 1.0;"/><!--link log cancellation to sys--><path d="M788.0368,1609.4531 C842.5481,1609.4531 909,1609.4531 909,1609.4531 C909,1609.4531 909,1632.3135 909,1650.7089 " fill="none" id="log cancellation-sys" style="stroke: #006400; stroke-width: 1.0;"/><!--link et_dr to sys--><path d="M768.7208,1455.4531 C828.2654,1455.4531 919,1455.4531 919,1455.4531 C919,1455.4531 919,1595.2457 919,1650.9444 " fill="none" id="et_dr-sys" style="stroke: #006400; stroke-width: 1.0;"/><!--link vp to FinancesDepartment--><path d="M194.7488,285.9531 C238.5658,285.9531 369.3786,285.9531 489.2372,285.9531 C519.2018,285.9531 548.4818,285.9531 575.5467,285.9531 C589.0791,285.9531 602.0578,285.9531 614.2914,285.9531 C620.4081,285.9531 626.3387,285.9531 632.059,285.9531 C634.9192,285.9531 637.7268,285.9531 640.4789,285.9531 " fill="none" id="vp-FinancesDepartment" style="stroke: #006400; stroke-width: 1.0;"/><!--link gl to acc--><path d="M26,518.8664 C26,468.5382 26,390.4531 26,390.4531 C26,390.4531 485.0271,390.4531 655.3691,390.4531 " fill="none" id="gl-acc" style="stroke: #006400; stroke-width: 1.0;"/><!--link gl to accdel--><path d="M46,518.856 C46,490.2697 46,457.4531 46,457.4531 C46,457.4531 476.3951,457.4531 648.3009,457.4531 " fill="none" id="gl-accdel" style="stroke: #006400; stroke-width: 1.0;"/><!--link gl to vp--><path d="M66.1871,535.9531 C108.4125,535.9531 180,535.9531 180,535.9531 C180,535.9531 180,367.0037 180,367.0037 " fill="none" id="gl-vp" style="stroke: #006400; stroke-width: 1.0;"/><polygon fill="#006400" points="180,362.0037,176,371.0037,180,367.0037,184,371.0037,180,362.0037" style="stroke: #006400; stroke-width: 1.0;"/><!--link ku to bg_ez--><path d="M538.3828,203.4531 C568.7474,203.4531 613.8846,203.4531 651.3135,203.4531 " fill="none" id="ku-bg_ez" style="stroke: #006400; stroke-width: 1.0;"/><!--link sys to we_br--><path d="M949,1650.6849 C949,1466.2774 949,223.9531 949,223.9531 C949,223.9531 1570.8541,223.9531 1757.2889,223.9531 " fill="none" id="sys-we_br" style="stroke: #006400; stroke-width: 1.0;"/><!--link bg_ez to bg_az--><path d="M718,182.741 C718,182.741 718,145.9531 718,145.9531 C718,145.9531 1112.2256,145.9531 1262.3701,145.9531 " fill="none" id="bg_ez-bg_az" style="stroke: #006400; stroke-width: 1.0; stroke-dasharray: 7.0,7.0;"/><polygon fill="#006400" points="718,187.741,722,178.741,718,182.741,714,178.741,718,187.741" style="stroke: #006400; stroke-width: 1.0;"/><text fill="#000000" font-family="sans-serif" font-size="13" lengthAdjust="spacingAndGlyphs" textLength="61" x="1031" y="136.52">«include»</text><!--link bg_az to we_br--><path d="M1320,155.1067 C1320,173.3917 1320,202.2864 1320,202.2864 C1320,202.2864 1741.0083,202.2864 1741.0083,202.2864 " fill="none" id="bg_az-we_br" style="stroke: #006400; stroke-width: 1.0; stroke-dasharray: 7.0,7.0;"/><polygon fill="#006400" points="1746.0083,202.2864,1737.0083,198.2864,1741.0083,202.2864,1737.0083,206.2864,1746.0083,202.2864" style="stroke: #006400; stroke-width: 1.0;"/><text fill="#000000" font-family="sans-serif" font-size="13" lengthAdjust="spacingAndGlyphs" textLength="61" x="1547" y="136.52">«include»</text><!--link we_br to bg_ez--><path d="M1734.9064,210.6198 C1734.9064,210.6198 782.0996,210.6198 782.0996,210.6198 " fill="none" id="we_br-bg_ez" style="stroke: #006400; stroke-width: 1.0; stroke-dasharray: 7.0,7.0;"/><polygon fill="#006400" points="777.0996,210.6198,786.0996,214.6198,782.0996,210.6198,786.0996,206.6198,777.0996,210.6198" style="stroke: #006400; stroke-width: 1.0;"/><text fill="#000000" font-family="sans-serif" font-size="13" lengthAdjust="spacingAndGlyphs" textLength="61" x="1289" y="207.52">«include»</text><!--link l_st to g_st--><path d="M2892.1882,284.2031 C2892.1882,284.2031 3269.2918,284.2031 3269.2918,284.2031 " fill="none" id="l_st-g_st" style="stroke: #006400; stroke-width: 1.0; stroke-dasharray: 7.0,7.0;"/><polygon fill="#006400" points="2887.1882,284.2031,2896.1882,288.2031,2892.1882,284.2031,2896.1882,280.2031,2887.1882,284.2031" style="stroke: #006400; stroke-width: 1.0;"/><text fill="#000000" font-family="sans-serif" font-size="13" lengthAdjust="spacingAndGlyphs" textLength="60" x="3059.5" y="293.52">«extend»</text><!--link l_st to scan--><path d="M2908.1623,266.7031 C3044.6292,266.7031 3323,266.7031 3323,266.7031 C3323,266.7031 3323,186.6789 3323,186.6789 " fill="none" id="l_st-scan" style="stroke: #006400; stroke-width: 1.0; stroke-dasharray: 7.0,7.0;"/><polygon fill="#006400" points="3323,181.6789,3319,190.6789,3323,186.6789,3327,190.6789,3323,181.6789" style="stroke: #006400; stroke-width: 1.0;"/><text fill="#000000" font-family="sans-serif" font-size="13" lengthAdjust="spacingAndGlyphs" textLength="61" x="3059" y="206.52">«include»</text><!--link azw to scan--><path d="M2934.1368,166.4531 C2934.1368,166.4531 3253.3479,166.4531 3253.3479,166.4531 " fill="none" id="azw-scan" style="stroke: #006400; stroke-width: 1.0; stroke-dasharray: 7.0,7.0;"/><polygon fill="#006400" points="3258.3479,166.4531,3249.3479,162.4531,3253.3479,166.4531,3249.3479,170.4531,3258.3479,166.4531" style="stroke: #006400; stroke-width: 1.0;"/><text fill="#000000" font-family="sans-serif" font-size="13" lengthAdjust="spacingAndGlyphs" textLength="61" x="3059" y="119.52">«include»</text><!--link sdg to azw--><path d="M2397.9108,182.9531 C2397.9108,182.9531 2748.7345,182.9531 2748.7345,182.9531 " fill="none" id="sdg-azw" style="stroke: #006400; stroke-width: 1.0; stroke-dasharray: 7.0,7.0;"/><polygon fill="#006400" points="2753.7345,182.9531,2744.7345,178.9531,2748.7345,182.9531,2744.7345,186.9531,2753.7345,182.9531" style="stroke: #006400; stroke-width: 1.0;"/><text fill="#000000" font-family="sans-serif" font-size="13" lengthAdjust="spacingAndGlyphs" textLength="61" x="2549" y="175.52">«include»</text><!--link rab to sdg--><path d="M1879.4953,278.7031 C2017.4047,278.7031 2311,278.7031 2311,278.7031 C2311,278.7031 2311,229.9645 2311,229.9645 " fill="none" id="rab-sdg" style="stroke: #006400; stroke-width: 1.0; stroke-dasharray: 7.0,7.0;"/><polygon fill="#006400" points="2311,224.9645,2307,233.9645,2311,229.9645,2315,233.9645,2311,224.9645" style="stroke: #006400; stroke-width: 1.0;"/><text fill="#000000" font-family="sans-serif" font-size="13" lengthAdjust="spacingAndGlyphs" textLength="61" x="2011" y="272.52">«include»</text><!--link mwst to rab--><path d="M1385.3292,292.9531 C1385.3292,292.9531 1732.2271,292.9531 1732.2271,292.9531 " fill="none" id="mwst-rab" style="stroke: #006400; stroke-width: 1.0; stroke-dasharray: 7.0,7.0;"/><polygon fill="#006400" points="1737.2271,292.9531,1728.2271,288.9531,1732.2271,292.9531,1728.2271,296.9531,1737.2271,292.9531" style="stroke: #006400; stroke-width: 1.0;"/><text fill="#000000" font-family="sans-serif" font-size="13" lengthAdjust="spacingAndGlyphs" textLength="61" x="1547" y="289.52">«include»</text><!--link epa to mwst--><path d="M782.9425,301.9531 C782.9425,301.9531 1248.4585,301.9531 1248.4585,301.9531 " fill="none" id="epa-mwst" style="stroke: #006400; stroke-width: 1.0; stroke-dasharray: 7.0,7.0;"/><polygon fill="#006400" points="1253.4585,301.9531,1244.4585,297.9531,1248.4585,301.9531,1244.4585,305.9531,1253.4585,301.9531" style="stroke: #006400; stroke-width: 1.0;"/><text fill="#000000" font-family="sans-serif" font-size="13" lengthAdjust="spacingAndGlyphs" textLength="61" x="1031" y="293.52">«include»</text><!--link sys to abf--><path d="M939,1650.8783 C939,1561.3929 939,1236.4531 939,1236.4531 C939,1236.4531 886.0985,1236.4531 832.0605,1236.4531 " fill="none" id="sys-abf" style="stroke: #006400; stroke-width: 1.0;"/><!--link sys to glb--><path d="M929,1650.8709 C929,1571.8392 929,1312.4531 929,1312.4531 C929,1312.4531 848.1163,1312.4531 786.5057,1312.4531 " fill="none" id="sys-glb" style="stroke: #006400; stroke-width: 1.0;"/><!--link gl to bb--><path d="M21,601.9612 C21,768.6529 21,1380.4531 21,1380.4531 C21,1380.4531 469.0425,1380.4531 646.6843,1380.4531 " fill="none" id="gl-bb" style="stroke: #006400; stroke-width: 1.0;"/><!--link gpf to bers--><path d="M1397.0648,715.4531 C1397.0648,715.4531 1747.4637,715.4531 1747.4637,715.4531 " fill="none" id="gpf-bers" style="stroke: #006400; stroke-width: 1.0; stroke-dasharray: 7.0,7.0;"/><polygon fill="#006400" points="1392.0648,715.4531,1401.0648,719.4531,1397.0648,715.4531,1401.0648,711.4531,1392.0648,715.4531" style="stroke: #006400; stroke-width: 1.0;"/><text fill="#000000" font-family="sans-serif" font-size="13" lengthAdjust="spacingAndGlyphs" textLength="61" x="1547" y="711.52">«include»</text><!--link ba to gpf--><path d="M779.5877,715.4531 C779.5877,715.4531 1246.8913,715.4531 1246.8913,715.4531 " fill="none" id="ba-gpf" style="stroke: #006400; stroke-width: 1.0; stroke-dasharray: 7.0,7.0;"/><polygon fill="#006400" points="774.5877,715.4531,783.5877,719.4531,779.5877,715.4531,783.5877,711.4531,774.5877,715.4531" style="stroke: #006400; stroke-width: 1.0;"/><text fill="#000000" font-family="sans-serif" font-size="13" lengthAdjust="spacingAndGlyphs" textLength="61" x="1031" y="711.52">«include»</text><!--link bempf to binvent--><path d="M787.0861,802.4531 C787.0861,802.4531 1233.8336,802.4531 1233.8336,802.4531 " fill="none" id="bempf-binvent" style="stroke: #006400; stroke-width: 1.0; stroke-dasharray: 7.0,7.0;"/><polygon fill="#006400" points="782.0861,802.4531,791.0861,806.4531,787.0861,802.4531,791.0861,798.4531,782.0861,802.4531" style="stroke: #006400; stroke-width: 1.0;"/><text fill="#000000" font-family="sans-serif" font-size="13" lengthAdjust="spacingAndGlyphs" textLength="61" x="1031" y="798.52">«include»</text><!--link sys to binvent--><path d="M959,1650.7511 C959,1515.7759 959,824.7031 959,824.7031 C959,824.7031 1156.014,824.7031 1258.7537,824.7031 " fill="none" id="sys-binvent" style="stroke: #006400; stroke-width: 1.0;"/><!--link gl to DistributorDepartment--><path d="M51,602.1215 C51,627.6468 51,655.4531 51,655.4531 C51,655.4531 212.5798,655.4531 376.6842,655.4531 C458.7365,655.4531 541.4199,655.4531 604.8526,655.4531 C612.7816,655.4531 620.4099,655.4531 627.6986,655.4531 C629.5208,655.4531 631.3217,655.4531 633.1008,655.4531 " fill="none" id="gl-DistributorDepartment" style="stroke: #006400; stroke-width: 1.0;"/><!--link gl to ProductDepartment--><path d="M36,602.0413 C36,726.9839 36,1090.4531 36,1090.4531 C36,1090.4531 201.2135,1090.4531 369.0085,1090.4531 C452.9059,1090.4531 537.4488,1090.4531 602.308,1090.4531 C610.4154,1090.4531 618.2152,1090.4531 625.6678,1090.4531 C629.3941,1090.4531 633.0336,1090.4531 636.5813,1090.4531 " fill="none" id="gl-ProductDepartment" style="stroke: #006400; stroke-width: 1.0;"/><!--link add distributor to delete distributor--><!--link add distributor to edit distributor info--><!--link add product to delete product--><!--link delete product to edit product info--><!--link add product to import major customer \nproduct list--><!--link import major customer \nproduct list to add product to \nsale database--><!--link add product to \nsale database to delete product from \nsale database--><!--
@startuml
skinparam titleBorderRoundCorner 15
skinparam titleBorderThickness 2
skinparam titleBorderColor blue
skinparam titleBackgroundColor Chartreuse
skinparam linetype ortho

skinparam package {
    FontColor Grey
    BorderColor Green
    shadowing false
}

skinparam usecase {
    Bordercolor darkgreen
  	BackgroundColor #GreenYellow/LightGoldenRodYellow
}

skinparam Actor{
    BorderColor black
    BackgroundColor white
}

skinparam database{
    backgroundcolor white
}

skinparam Arrow{
    Color darkgreen
}

title Use-Case diagram


:Customer: as ku
:NormalCustomer: as nku
:MajorCustomer: as gha
:HouseCustomer: as hku

left to right direction

:Staff: as vp
:Manager: as gl

nku - -> ku
vp - -> hku
gha - -> hku
hku - -> ku

database "System" as sys

rectangle "coole Bioladenbox"{

    package "UserDepartment"{
        (add Account) as acc
        (delete Account) as accdel

    }



    package "DataDepartment"{
        (print label) as et_dr
            (log money and product tranfers) - - sys
            (log cancellation) - - sys

            et_dr - - sys
    }


    package "FinancesDepartment"{
            (cash payment) as bg_ez
            (give change) as bg_az
            (calculate change) as we_br
            (sum calculation of base prices) as sdg
            (calculate discount) as rab
            (calculate MwSt) as mwst
            (print final price) as epa

            (basic cancellation) as l_st
            (global cancellation) as g_st

            (add item to shopping cart) as azw
            (scan product) as scan

            vp - - FinancesDepartment

            gl - - acc
            gl - - accdel

            gl - -> vp


            ku - - bg_ez



            sys - - we_br

            bg_ez <.. bg_az: <<include>>
            bg_az ..> we_br: <<include>>
            we_br ..> bg_ez: <<include>>
            l_st <.. g_st: <<extend>>
            l_st ..> scan: <<include>>
            azw ..> scan: <<include>>
            sdg ..> azw: <<include>>
            rab ..> sdg: <<include>>
            mwst ..> rab: <<include>>
            epa ..> mwst: <<include>>




        }



    package "InventoryDepartment"{
        (record inventory)
        (divergent inventory was found) as abf
        (notify manager) as glb
        (adjust inventory) as bb

        sys - - abf
        sys - - glb
        gl - - bb
    }


    package "Order"{
        (send order) as ba
        (find lowest price) as gpf
        (create order) as bers
        (receive order) as bempf
        (place content of \norder in inventory) as binvent

        gpf <.. bers: <<include>>
        ba <.. gpf: <<include>>
        bempf <.. binvent: <<include>>
        sys - - binvent
    }


    package "DistributorDepartment"{
        (add distributor)
        (delete distributor)
        (edit distributor info)

        gl - - DistributorDepartment
    }

    package "ProductDepartment"{
        (add product)
        (delete product)
        (edit product info)
        (import major customer \nproduct list)
        (add product to \nsale database)
        (delete product from \nsale database)

        gl - - ProductDepartment
    }








}

@enduml

PlantUML version 1.2018.12(Sun Oct 21 12:15:15 CEST 2018)
(GPL source distribution)
Java Runtime: OpenJDK Runtime Environment
JVM: OpenJDK 64-Bit Server VM
Java Version: 10.0.2+13-Debian-1
Operating System: Linux
OS Version: 4.18.0-parrot10-amd64
Default Encoding: UTF-8
Language: en
Country: US
--></g></svg>