<?xml version="1.0" encoding="UTF-8" standalone="no"?><svg xmlns="http://www.w3.org/2000/svg" xmlns:xlink="http://www.w3.org/1999/xlink" contentScriptType="application/ecmascript" contentStyleType="text/css" height="1119px" preserveAspectRatio="none" style="width:1816px;height:1119px;" version="1.1" viewBox="0 0 1816 1119" width="1816px" zoomAndPan="magnify"><defs><filter height="300%" id="f97pmx4t57o2i" width="300%" x="-1" y="-1"><feGaussianBlur result="blurOut" stdDeviation="2.0"/><feColorMatrix in="blurOut" result="blurOut2" type="matrix" values="0 0 0 0 0 0 0 0 0 0 0 0 0 0 0 0 0 0 .4 0"/><feOffset dx="4.0" dy="4.0" in="blurOut2" result="blurOut3"/><feBlend in="SourceGraphic" in2="blurOut3" mode="normal"/></filter></defs><g><polygon fill="#7FFF00" points="789.5,2,789.5,2.2102,799.54,1.5857,809.58,2.1933,819.62,2.3997,829.66,1.2866,839.7,1.9223,849.74,1.5735,859.78,1.6165,869.82,1.9318,879.86,1.3086,889.9,2.5536,899.94,1.3697,909.98,1.8022,920.02,2.4319,930.06,1.9142,940.1,2.0682,950.14,1.9681,960.18,2.1785,970.22,2.2391,980.26,2.5857,990.3,2.6711,1000.34,2.6793,1010.38,2.2546,1020.42,2.4636,1030.46,2.7022,1040.5,2,1040.408,1.7779,1041.6472,2.6483,1042.5835,2.7874,1043.7501,3.4824,1044.6795,3.6049,1045.8033,4.1967,1045.7822,4.188,1046.471,5.352,1046.667,6.3118,1047.1537,7.3921,1047.6649,8.4825,1048,9.5,1048.1387,9.5,1047.9987,12.6906,1048.0957,15.8813,1047.8092,19.0719,1048.0948,22.2625,1048,25.4531,1048.1688,25.5231,1047.6976,26.5705,1047.3101,27.6526,1046.5332,28.5735,1046.0418,29.6126,1045.8033,30.7564,1045.724,30.5651,1044.7351,31.1776,1043.6569,31.5746,1042.7082,32.2843,1041.5384,32.46,1040.5,32.9531,1040.5,32.6101,1030.46,33.1814,1020.42,32.2863,1010.38,32.434,1000.34,33.6021,990.3,33.3888,980.26,33.6876,970.22,32.6313,960.18,33.2723,950.14,33.5435,940.1,32.4807,930.06,32.8573,920.02,33.0791,909.98,33.6049,899.94,32.9489,889.9,33.4157,879.86,32.3993,869.82,32.2759,859.78,33.4567,849.74,32.2362,839.7,33.4621,829.66,33.1598,819.62,32.6852,809.58,32.5994,799.54,33.4119,789.5,32.9531,789.4618,32.8609,788.5148,32.6961,787.3082,31.9042,786.3968,31.8252,785.3191,31.3449,784.1967,30.7564,784.2721,30.7877,783.7719,29.7018,783.5418,28.7278,783.0676,27.6527,782.4915,26.5354,782,25.4531,782.0894,25.4531,781.9566,22.2625,782.2388,19.0719,782.0516,15.8813,782.0575,12.6906,782,9.5,781.8127,9.4224,782.3145,8.3876,783.0421,7.4464,783.4504,6.3728,783.7441,5.2519,784.1967,4.1967,784.1556,4.0975,785.2294,3.6899,786.2305,3.1067,787.4316,3.0064,788.5337,2.6671,789.5,2" style="stroke: #0000FF; stroke-width: 2.0;"/><text fill="#000000" font-family="sans-serif" font-size="18" lengthAdjust="spacingAndGlyphs" textLength="250" x="790" y="23.708">Anwendungsfall - Diagramm</text><!--cluster coole Box--><polygon fill="#FFFFFF" filter="url(#f97pmx4t57o2i)" points="400,90.9531,400,91.1633,409.9645,90.5388,419.9291,91.1464,429.8936,91.3528,439.8582,90.2397,449.8227,90.8754,459.7872,90.5266,469.7518,90.5696,479.7163,90.885,489.6809,90.2618,499.6454,91.5068,509.6099,90.3228,519.5745,90.7554,529.539,91.3851,539.5035,90.8673,549.4681,91.0214,559.4326,90.9212,569.3972,91.1317,579.3617,91.1923,589.3262,91.5388,599.2908,91.6242,609.2553,91.6324,619.2199,91.2078,629.1844,91.4167,639.1489,91.6554,649.1135,90.2319,659.078,91.6316,669.0426,90.6566,679.0071,91.4869,688.9716,90.4581,698.9362,90.8846,708.9007,91.6947,718.8652,90.9044,728.8298,91.0584,738.7943,91.2918,748.7589,91.3694,758.7234,90.9492,768.6879,91.2403,778.6525,90.3807,788.617,91.2375,798.5816,91.5013,808.5461,91.3977,818.5106,91.5661,828.4752,90.47,838.4397,90.3009,848.4043,90.3317,858.3688,90.8942,868.3333,90.7566,878.2979,91.6345,888.2624,90.7784,898.227,90.6101,908.1915,91.1814,918.156,90.2863,928.1206,90.434,938.0851,91.6021,948.0496,91.3888,958.0142,91.6876,967.9787,90.6313,977.9433,91.2723,987.9078,91.5435,997.8723,90.4807,1007.8369,90.8573,1017.8014,91.0791,1027.766,91.6049,1037.7305,90.9489,1047.695,91.4157,1057.6596,90.3993,1067.6241,90.2759,1077.5887,91.4567,1087.5532,90.2362,1097.5177,91.4621,1107.4823,91.1598,1117.4468,90.6852,1127.4113,90.5994,1137.3759,91.4119,1147.3404,90.6538,1157.305,91.545,1167.2695,90.4004,1177.234,91.5706,1187.1986,91.4374,1197.1631,91.1981,1207.1277,91.0003,1217.0922,91.6797,1227.0567,91.5667,1237.0213,91.1224,1246.9858,91.2213,1256.9504,90.8229,1266.9149,91.6696,1276.8794,91.108,1286.844,91.1257,1296.8085,90.3448,1306.773,90.5479,1316.7376,91.4839,1326.7021,91.3829,1336.6667,90.9102,1346.6312,90.631,1356.5957,90.7342,1366.5603,90.2669,1376.5248,91.3679,1386.4894,91.6927,1396.4539,91.4795,1406.4184,91.6481,1416.383,90.8164,1426.3475,91.0403,1436.3121,90.5655,1446.2766,91.2372,1456.2411,91.1999,1466.2057,91.5055,1476.1702,90.7235,1486.1348,90.8187,1496.0993,91.3966,1506.0638,91.5205,1516.0284,90.4406,1525.9929,90.7592,1535.9574,91.1024,1545.922,90.3423,1555.8865,91.3065,1565.8511,91.2111,1575.8156,90.8524,1585.7801,91.0954,1595.7447,91.6818,1605.7092,90.6403,1615.6738,91.2681,1625.6383,91.2388,1635.6028,91.0689,1645.5674,91.094,1655.5319,91.0666,1665.4965,90.329,1675.461,90.5523,1685.4255,90.4916,1695.3901,91.0169,1705.3546,91.0413,1715.3191,91.1149,1725.2837,90.6621,1735.2482,90.8856,1745.2128,90.8329,1755.1773,91.53,1765.1418,91.3797,1775.1064,90.4676,1785.0709,90.8802,1795.0355,90.3759,1805,90.9531,1805.2884,90.9531,1805.6085,100.9642,1805.5446,110.9753,1804.5644,120.9865,1805.464,130.9976,1804.2572,141.0087,1805.2002,151.0198,1804.7007,161.0309,1805.0967,171.042,1805.2403,181.0531,1805.4721,191.0642,1804.2801,201.0753,1805.4755,211.0865,1805.1782,221.0976,1805.3553,231.1087,1805.7478,241.1198,1805.0055,251.1309,1805.1753,261.142,1805.2134,271.1531,1805.1972,281.1642,1804.9992,291.1753,1805.7107,301.1865,1804.3903,311.1976,1805.5653,321.2087,1804.376,331.2198,1804.4597,341.2309,1805.04,351.242,1805.0283,361.2531,1804.5072,371.2642,1805.4137,381.2753,1805.1089,391.2865,1805.7267,401.2976,1805.6671,411.3087,1804.5517,421.3198,1804.6021,431.3309,1804.8708,441.342,1805.3555,451.3531,1805.403,461.3642,1805.3012,471.3753,1804.658,481.3865,1805.6364,491.3976,1805.6338,501.4087,1804.9527,511.4198,1804.7609,521.4309,1804.5986,531.442,1804.7854,541.4531,1805.1374,551.4642,1804.9316,561.4753,1804.5822,571.4865,1805.4874,581.4976,1804.5411,591.5087,1805.5024,601.5198,1805.4272,611.5309,1805.3719,621.542,1805.6925,631.5531,1804.7541,641.5642,1804.6994,651.5753,1805.5189,661.5865,1804.4031,671.5976,1804.766,681.6087,1805.1155,691.6198,1805.0687,701.6309,1804.6415,711.642,1804.957,721.6531,1805.7446,731.6642,1805.6485,741.6753,1804.4037,751.6865,1805.0785,761.6976,1804.4861,771.7087,1804.9737,781.7198,1805.293,791.7309,1805.4199,801.742,1804.3353,811.7531,1805.4005,821.7642,1805.0084,831.7753,1804.4447,841.7865,1804.5289,851.7976,1805.3266,861.8087,1805.2499,871.8198,1804.9836,881.8309,1804.3279,891.842,1805.6581,901.8531,1804.6882,911.8642,1804.4719,921.8753,1804.9327,931.8865,1805.5897,941.8976,1805.6154,951.9087,1805.0351,961.9198,1804.8488,971.9309,1805.1698,981.942,1805,991.9531,1805,992.1393,1795.0355,991.4453,1785.0709,992.3671,1775.1064,992.5119,1765.1418,991.7374,1755.1773,991.5239,1745.2128,992.6278,1735.2482,991.9741,1725.2837,991.953,1715.3191,992.2522,1705.3546,991.3074,1695.3901,992.4831,1685.4255,991.9377,1675.461,992.6219,1665.4965,991.7373,1655.5319,992.3621,1645.5674,991.5091,1635.6028,992.1981,1625.6383,992.3324,1615.6738,991.6258,1605.7092,992.3161,1595.7447,991.3817,1585.7801,991.4826,1575.8156,992.636,1565.8511,992.6375,1555.8865,992.5216,1545.922,991.5928,1535.9574,992.3374,1525.9929,991.4811,1516.0284,992.0113,1506.0638,991.9519,1496.0993,991.6907,1486.1348,992.569,1476.1702,992.3964,1466.2057,991.6324,1456.2411,992.4798,1446.2766,992.045,1436.3121,991.3695,1426.3475,991.7198,1416.383,991.4279,1406.4184,991.814,1396.4539,991.3242,1386.4894,991.353,1376.5248,992.0234,1366.5603,991.8327,1356.5957,991.8946,1346.6312,991.8099,1336.6667,992.1204,1326.7021,991.398,1316.7376,992.1132,1306.773,991.21,1296.8085,992.2491,1286.844,992.5459,1276.8794,992.4752,1266.9149,992.3144,1256.9504,992.1453,1246.9858,992.0588,1237.0213,991.3131,1227.0567,992.3997,1217.0922,992.2828,1207.1277,991.7998,1197.1631,991.9473,1187.1986,991.7445,1177.234,992.1708,1167.2695,992.6337,1157.305,991.5992,1147.3404,992.422,1137.3759,991.8639,1127.4113,991.5739,1117.4468,991.5212,1107.4823,991.3084,1097.5177,991.5123,1087.5532,991.9894,1077.5887,992.2261,1067.6241,992.5293,1057.6596,992.3732,1047.695,991.2418,1037.7305,992.5722,1027.766,992.4393,1017.8014,992.4938,1007.8369,992.475,997.8723,991.294,987.9078,991.6954,977.9433,992.2691,967.9787,991.4716,958.0142,991.8503,948.0496,992.0201,938.0851,992.2792,928.1206,991.9989,918.156,992.6979,908.1915,992.3645,898.227,992.2092,888.2624,991.4132,878.2979,992.2919,868.3333,991.3786,858.3688,992.2588,848.4043,991.9609,838.4397,992.2526,828.4752,991.8657,818.5106,991.757,808.5461,991.2122,798.5816,991.7387,788.617,991.2482,778.6525,991.707,768.6879,992.391,758.7234,992.1138,748.7589,991.5016,738.7943,992.199,728.8298,992.0187,718.8652,992.4964,708.9007,992.5181,698.9362,992.0468,688.9716,991.7741,679.0071,991.7387,669.0426,991.9467,659.078,992.6223,649.1135,991.2794,639.1489,991.7893,629.1844,992.2199,619.2199,992.6848,609.2553,992.165,599.2908,991.7549,589.3262,991.2152,579.3617,991.5293,569.3972,991.7312,559.4326,992.293,549.4681,992.3226,539.5035,992.0049,529.539,991.8202,519.5745,991.2335,509.6099,992.0821,499.6454,992.3886,489.6809,992.636,479.7163,992.0514,469.7518,992.0331,459.7872,991.733,449.8227,992.2018,439.8582,991.4832,429.8936,992.4692,419.9291,991.6474,409.9645,991.4229,400,991.9531,400.2569,991.9531,400.4718,981.942,400.0573,971.9309,399.8789,961.9198,400.1579,951.9087,399.9753,941.8976,399.9049,931.8865,400.0769,921.8753,399.668,911.8642,400.3895,901.8531,400.6875,891.842,399.6464,881.8309,399.7656,871.8198,399.5314,861.8087,400.2369,851.7976,399.9062,841.7865,400.5514,831.7753,399.6998,821.7642,399.6411,811.7531,400.2968,801.742,399.7755,791.7309,400.2669,781.7198,400.2796,771.7087,400.4358,761.6976,399.5152,751.6865,400.088,741.6753,400.5351,731.6642,399.4569,721.6531,400.5044,711.642,399.6604,701.6309,400.1567,691.6198,400.6528,681.6087,399.3696,671.5976,400.7221,661.5865,399.9216,651.5753,399.6741,641.5642,400.7313,631.5531,399.3123,621.542,400.6056,611.5309,399.5987,601.5198,400.2901,591.5087,400.73,581.4976,399.8515,571.4865,399.5728,561.4753,399.6267,551.4642,399.8177,541.4531,400.2961,531.442,399.4447,521.4309,400.5114,511.4198,400.5645,501.4087,399.2979,491.3976,399.8573,481.3865,399.5373,471.3753,400.1721,461.3642,399.2885,451.3531,400.1357,441.342,400.3587,431.3309,399.9512,421.3198,400.1559,411.3087,400.0141,401.2976,400.2472,391.2865,400.7179,381.2753,400.6579,371.2642,400.2698,361.2531,400.0485,351.242,400.2436,341.2309,400.1528,331.2198,400.1926,321.2087,400.4578,311.1976,399.2689,301.1865,400.4323,291.1753,400.5061,281.1642,399.3152,271.1531,400.6309,261.142,400.1348,251.1309,399.8667,241.1198,399.356,231.1087,399.6698,221.0976,400.6239,211.0865,399.4134,201.0753,400.5453,191.0642,399.7715,181.0531,400.3158,171.042,399.5076,161.0309,399.7655,151.0198,400.6784,141.0087,400.2497,130.9976,399.8041,120.9865,400.2248,110.9753,400.5497,100.9642,400,90.9531" style="stroke: #000000; stroke-width: 1.5;"/><text fill="#000000" font-family="sans-serif" font-size="14" font-weight="bold" lengthAdjust="spacingAndGlyphs" textLength="77" x="1064" y="105.9482">coole Box</text><!--cluster Kassensystem--><polygon fill="#FFFFFF" filter="url(#f97pmx4t57o2i)" points="438.5,491.9531,438.5,492.1633,448.489,491.5388,458.4779,492.1464,468.4669,492.3528,478.4559,491.2397,488.4449,491.8754,498.4338,491.5266,508.4228,491.5696,518.4118,491.885,528.4007,491.2618,538.3897,492.5068,548.3787,491.3228,558.3676,491.7554,568.3566,492.3851,578.3456,491.8673,588.3346,492.0214,598.3235,491.9212,608.3125,492.1317,618.3015,492.1923,628.2904,492.5388,638.2794,492.6242,648.2684,492.6324,658.2574,492.2078,668.2463,492.4167,678.2353,492.6554,688.2243,491.2319,698.2132,492.6316,708.2022,491.6566,718.1912,492.4869,728.1801,491.4581,738.1691,491.8846,748.1581,492.6947,758.1471,491.9044,768.136,492.0584,778.125,492.2918,788.114,492.3694,798.1029,491.9492,808.0919,492.2403,818.0809,491.3807,828.0699,492.2375,838.0588,492.5013,848.0478,492.3977,858.0368,492.5661,868.0257,491.47,878.0147,491.3009,888.0037,491.3317,897.9926,491.8942,907.9816,491.7566,917.9706,492.6345,927.9596,491.7784,937.9485,491.6101,947.9375,492.1814,957.9265,491.2863,967.9154,491.434,977.9044,492.6021,987.8934,492.3888,997.8824,492.6876,1007.8713,491.6313,1017.8603,492.2723,1027.8493,492.5435,1037.8382,491.4807,1047.8272,491.8573,1057.8162,492.0791,1067.8051,492.6049,1077.7941,491.9489,1087.7831,492.4157,1097.7721,491.3993,1107.761,491.2759,1117.75,492.4567,1127.739,491.2362,1137.7279,492.4621,1147.7169,492.1598,1157.7059,491.6852,1167.6949,491.5994,1177.6838,492.4119,1187.6728,491.6538,1197.6618,492.545,1207.6507,491.4004,1217.6397,492.5706,1227.6287,492.4374,1237.6176,492.1981,1247.6066,492.0003,1257.5956,492.6797,1267.5846,492.5667,1277.5735,492.1224,1287.5625,492.2213,1297.5515,491.8229,1307.5404,492.6696,1317.5294,492.108,1327.5184,492.1257,1337.5074,491.3448,1347.4963,491.5479,1357.4853,492.4839,1367.4743,492.3829,1377.4632,491.9102,1387.4522,491.631,1397.4412,491.7342,1407.4301,491.2669,1417.4191,492.3679,1427.4081,492.6927,1437.3971,492.4795,1447.386,492.6481,1457.375,491.8164,1467.364,492.0403,1477.3529,491.5655,1487.3419,492.2372,1497.3309,492.1999,1507.3199,492.5055,1517.3088,491.7235,1527.2978,491.8187,1537.2868,492.3966,1547.2757,492.5205,1557.2647,491.4406,1567.2537,491.7592,1577.2426,492.1024,1587.2316,491.3423,1597.2206,492.3065,1607.2096,492.2111,1617.1985,491.8524,1627.1875,492.0954,1637.1765,492.6818,1647.1654,491.6403,1657.1544,492.2681,1667.1434,492.2388,1677.1324,492.0689,1687.1213,492.094,1697.1103,492.0666,1707.0993,491.329,1717.0882,491.5523,1727.0772,491.4916,1737.0662,492.0169,1747.0551,492.0413,1757.0441,492.1149,1767.0331,491.6621,1777.0221,491.8856,1787.011,491.8329,1797,491.9531,1797.5769,491.9531,1797.4266,502.0198,1796.5145,512.0865,1796.9271,522.1531,1796.4228,532.2198,1797.2884,542.2865,1797.6085,552.3531,1797.5446,562.4198,1796.5644,572.4865,1797.464,582.5531,1796.2572,592.6198,1797.2002,602.6865,1796.7007,612.7531,1797.0967,622.8198,1797.2403,632.8865,1797.4721,642.9531,1796.2801,653.0198,1797.4755,663.0865,1797.1782,673.1531,1797.3553,683.2198,1797.7478,693.2865,1797.0055,703.3531,1797.1753,713.4198,1797.2134,723.4865,1797.1972,733.5531,1796.9992,743.6198,1797.7107,753.6865,1796.3903,763.7531,1797.5653,773.8198,1796.376,783.8865,1797,793.9531,1797,793.4128,1787.011,793.9931,1777.0221,793.9814,1767.0331,793.4603,1757.0441,794.3668,1747.0551,794.062,1737.0662,794.6798,1727.0772,794.6202,1717.0882,793.5049,1707.0993,793.5552,1697.1103,793.8239,1687.1213,794.3086,1677.1324,794.3561,1667.1434,794.2543,1657.1544,793.6112,1647.1654,794.5895,1637.1765,794.5869,1627.1875,793.9058,1617.1985,793.7141,1607.2096,793.5517,1597.2206,793.7385,1587.2316,794.0905,1577.2426,793.8847,1567.2537,793.5353,1557.2647,794.4405,1547.2757,793.4942,1537.2868,794.4555,1527.2978,794.3804,1517.3088,794.325,1507.3199,794.6456,1497.3309,793.7072,1487.3419,793.6525,1477.3529,794.472,1467.364,793.3562,1457.375,793.7191,1447.386,794.0686,1437.3971,794.0218,1427.4081,793.5947,1417.4191,793.9101,1407.4301,794.6977,1397.4412,794.6016,1387.4522,793.3568,1377.4632,794.0316,1367.4743,793.4392,1357.4853,793.9268,1347.4963,794.2461,1337.5074,794.373,1327.5184,793.2884,1317.5294,794.3537,1307.5404,793.9615,1297.5515,793.3978,1287.5625,793.4821,1277.5735,794.2797,1267.5846,794.203,1257.5956,793.9367,1247.6066,793.281,1237.6176,794.6113,1227.6287,793.6413,1217.6397,793.4251,1207.6507,793.8858,1197.6618,794.5428,1187.6728,794.5685,1177.6838,793.9883,1167.6949,793.802,1157.7059,794.1229,1147.7169,794.1393,1137.7279,793.4453,1127.739,794.3671,1117.75,794.5119,1107.761,793.7374,1097.7721,793.5239,1087.7831,794.6278,1077.7941,793.9741,1067.8051,793.953,1057.8162,794.2522,1047.8272,793.3074,1037.8382,794.4831,1027.8493,793.9377,1017.8603,794.6219,1007.8713,793.7373,997.8824,794.3621,987.8934,793.5091,977.9044,794.1981,967.9154,794.3324,957.9265,793.6258,947.9375,794.3161,937.9485,793.3817,927.9596,793.4826,917.9706,794.636,907.9816,794.6375,897.9926,794.5216,888.0037,793.5928,878.0147,794.3374,868.0257,793.4811,858.0368,794.0113,848.0478,793.9519,838.0588,793.6907,828.0699,794.569,818.0809,794.3964,808.0919,793.6324,798.1029,794.4798,788.114,794.045,778.125,793.3695,768.136,793.7198,758.1471,793.4279,748.1581,793.814,738.1691,793.3242,728.1801,793.353,718.1912,794.0234,708.2022,793.8327,698.2132,793.8946,688.2243,793.8099,678.2353,794.1204,668.2463,793.398,658.2574,794.1132,648.2684,793.21,638.2794,794.2491,628.2904,794.5459,618.3015,794.4752,608.3125,794.3144,598.3235,794.1453,588.3346,794.0588,578.3456,793.3131,568.3566,794.3997,558.3676,794.2828,548.3787,793.7998,538.3897,793.9473,528.4007,793.7445,518.4118,794.1708,508.4228,794.6337,498.4338,793.5992,488.4449,794.422,478.4559,793.8639,468.4669,793.5739,458.4779,793.5212,448.489,793.3084,438.5,793.9531,438.0591,793.9531,438.5363,783.8865,438.773,773.8198,439.0762,763.7531,438.9201,753.6865,437.7886,743.6198,439.119,733.5531,438.9861,723.4865,439.0407,713.4198,439.0219,703.3531,437.8409,693.2865,438.2423,683.2198,438.816,673.1531,438.0185,663.0865,438.3971,653.0198,438.567,642.9531,438.8261,632.8865,438.5458,622.8198,439.2447,612.7531,438.9114,602.6865,438.7561,592.6198,437.9601,582.5531,438.8388,572.4865,437.9255,562.4198,438.8057,552.3531,438.5078,542.2865,438.7995,532.2198,438.4126,522.1531,438.3039,512.0865,437.7591,502.0198,438.5,491.9531" style="stroke: #000000; stroke-width: 1.5;"/><text fill="#000000" font-family="sans-serif" font-size="14" font-weight="bold" lengthAdjust="spacingAndGlyphs" textLength="115" x="1060.25" y="506.9482">Kassensystem</text><polygon fill="#FEFECE" filter="url(#f97pmx4t57o2i)" points="573.9328,819.1673,573.0817,821.6253,569.8335,823.4955,566.1065,825.3587,563.0297,827.5228,557.2247,828.7567,551.9215,830.0826,545.6971,830.9381,538.8392,831.348,532.8833,831.7682,524.8053,831.1072,519.6504,831.0337,512.9836,829.994,506.5688,828.5593,502.0741,827.2797,497.558,825.4871,494.1792,823.5827,491.3821,821.3957,489.7528,819.1561,488.8347,816.7499,489.2622,814.4449,490.8133,812.2256,493.8537,810.2845,497.1089,808.2604,501.179,806.435,507.8787,805.5062,511.9881,803.7733,519.2713,803.2788,524.8278,802.4252,532.6603,802.6448,538.8396,802.6585,544.4191,802.8767,551.4924,804.055,557.0168,805.1861,561.8346,806.5758,566.0877,808.2788,570.0575,810.3847,572.2848,812.3775,574.8217,814.9265,574.3729,816.8666" style="stroke: #A80036; stroke-width: 1.5;"/><text fill="#000000" font-family="sans-serif" font-size="14" lengthAdjust="spacingAndGlyphs" textLength="56" x="504.098" y="821.6252">Inventur</text><polygon fill="#FEFECE" filter="url(#f97pmx4t57o2i)" points="607.1667,385.3852,605.633,388.3899,599.779,390.6761,593.062,392.9538,587.517,395.5992,577.0551,397.1076,567.4976,398.7284,556.2798,399.7742,543.9203,400.2753,533.1865,400.7889,518.628,399.9809,509.3379,399.891,497.3226,398.6201,485.7619,396.8663,477.6613,395.3021,469.5223,393.1107,463.433,390.7827,458.392,388.1092,455.4556,385.3715,453.801,382.4301,454.5714,379.6123,457.3668,376.8994,462.8463,374.5265,468.7129,372.0522,476.0481,369.8207,488.1226,368.6853,495.5287,366.567,508.6545,365.9625,518.6686,364.919,532.7845,365.1875,543.921,365.2041,553.9764,365.471,566.7242,366.9113,576.6804,368.294,585.3632,369.9929,593.0281,372.0746,600.1827,374.6489,604.1968,377.085,608.7689,380.201,607.96,382.5727" style="stroke: #A80036; stroke-width: 1.5;"/><text fill="#000000" font-family="sans-serif" font-size="14" lengthAdjust="spacingAndGlyphs" textLength="123" x="470.2711" y="387.3558">Produkt tauschen</text><polygon fill="#FEFECE" filter="url(#f97pmx4t57o2i)" points="636.7997,463.5435,634.6699,467.6008,626.541,470.688,617.2138,473.7637,609.5139,477.336,594.9865,479.3728,581.7149,481.5614,566.1378,482.9736,548.9753,483.6502,534.0703,484.3438,513.8543,483.2527,500.9539,483.1314,484.2695,481.4152,468.2162,479.047,456.9677,476.9347,445.6657,473.9756,437.2101,470.832,430.2101,467.2218,426.1327,463.525,423.835,459.553,424.9048,455.748,428.7866,452.0847,436.3954,448.8806,444.5418,445.5393,454.7275,442.5261,471.4943,440.9929,481.7784,438.1324,500.005,437.3161,513.9107,435.907,533.5121,436.2696,548.9762,436.2921,562.9393,436.6524,580.641,438.5973,594.4662,440.4645,606.5232,442.7586,617.1667,445.5696,627.1016,449.0458,632.6756,452.3354,639.0245,456.543,637.9012,459.7457" style="stroke: #A80036; stroke-width: 1.5;"/><text fill="#000000" font-family="sans-serif" font-size="14" lengthAdjust="spacingAndGlyphs" textLength="161" x="451.6048" y="459.5207">Großkundendatenbank</text><text fill="#000000" font-family="sans-serif" font-size="14" lengthAdjust="spacingAndGlyphs" textLength="79" x="492.6048" y="475.8176">importieren</text><polygon fill="#FEFECE" filter="url(#f97pmx4t57o2i)" points="628.5665,143.3088,626.6054,147.0375,619.1202,149.8746,610.5316,152.7012,603.4415,155.9841,590.0646,157.856,577.8439,159.8674,563.5004,161.1651,547.6971,161.787,533.9724,162.4244,515.3574,161.4216,503.4786,161.3101,488.1154,159.733,473.3334,157.5566,462.9757,155.6154,452.5688,152.896,444.7827,150.007,438.3371,146.6892,434.5826,143.2918,432.4669,139.6415,433.4519,136.1447,437.0263,132.7781,444.0326,129.8335,451.5339,126.7629,460.913,123.9937,476.3519,122.5847,485.8216,119.9559,502.6049,119.2057,515.4093,117.9107,533.4584,118.244,547.698,118.2646,560.5553,118.5958,576.8551,120.3832,589.5855,122.0991,600.6877,124.2073,610.4883,126.7907,619.6364,129.9854,624.769,133.0085,630.6151,136.8753,629.5808,139.8186" style="stroke: #A80036; stroke-width: 1.5;"/><text fill="#000000" font-family="sans-serif" font-size="14" lengthAdjust="spacingAndGlyphs" textLength="172" x="446.1626" y="144.6341">Verkaufspreis kalkulieren</text><polygon fill="#FEFECE" filter="url(#f97pmx4t57o2i)" points="625.5174,894.4096,623.6172,898.5207,616.3648,901.6489,608.0432,904.7654,601.1735,908.385,588.2125,910.4489,576.3718,912.6666,562.4742,914.0975,547.1622,914.7831,533.8642,915.4859,515.8279,914.3803,504.3185,914.2573,489.433,912.5184,475.1105,910.1187,465.0748,907.9785,454.9915,904.9801,447.4475,901.7948,441.2023,898.1367,437.5645,894.3908,435.5145,890.3662,436.469,886.5107,439.9323,882.7988,446.7206,879.5521,453.9887,876.1665,463.0762,873.1133,478.0352,871.5598,487.2105,868.6613,503.4719,867.8342,515.8782,866.4064,533.3662,866.7738,547.163,866.7966,559.6206,867.1617,575.4137,869.1324,587.7483,871.0244,598.5053,873.3489,608.0012,876.1972,616.8649,879.7196,621.8379,883.0527,627.5023,887.3162,626.5002,890.5613" style="stroke: #A80036; stroke-width: 1.5;"/><text fill="#000000" font-family="sans-serif" font-size="14" lengthAdjust="spacingAndGlyphs" textLength="85" x="489.6107" y="884.652">Eingabe von</text><text fill="#000000" font-family="sans-serif" font-size="14" lengthAdjust="spacingAndGlyphs" textLength="141" x="461.6107" y="900.9488">Normalkundendaten</text><polygon fill="#FEFECE" filter="url(#f97pmx4t57o2i)" points="600.1642,969.2011,598.7767,971.9581,593.4806,974.0559,587.4038,976.1459,582.3872,978.5733,572.9225,979.9573,564.2758,981.4445,554.1272,982.4041,542.9456,982.8639,533.2348,983.3352,520.0639,982.5938,511.6591,982.5113,500.789,981.3452,490.3301,979.7359,483.0016,978.3006,475.6382,976.2899,470.1292,974.1538,465.5687,971.7006,462.9122,969.1886,461.4152,966.4896,462.1122,963.904,464.6413,961.4147,469.5985,959.2375,474.906,956.9671,481.5421,954.9195,492.4658,953.8777,499.166,951.934,511.0409,951.3793,520.1006,950.4218,532.8712,950.6682,542.9462,950.6834,552.0433,950.9283,563.5762,952.2499,572.5835,953.5187,580.4388,955.0775,587.3731,956.9876,593.8458,959.3498,597.4773,961.5851,601.6137,964.4442,600.8819,966.6204" style="stroke: #A80036; stroke-width: 1.5;"/><text fill="#000000" font-family="sans-serif" font-size="14" lengthAdjust="spacingAndGlyphs" textLength="105" x="479.4543" y="971.3924">Etikett drucken</text><polygon fill="#FEFECE" filter="url(#f97pmx4t57o2i)" points="626.1006,311.2902,624.1845,314.9426,616.8711,317.7218,608.4797,320.4905,601.5523,323.7063,588.4825,325.5399,576.5423,327.5101,562.528,328.7813,547.0874,329.3904,533.6777,330.0148,515.49,329.0326,503.8838,328.9234,488.8733,327.3785,474.4306,325.2466,464.3106,323.3451,454.1426,320.6813,446.5352,317.8514,440.2375,314.6015,436.5692,311.2736,434.502,307.698,435.4645,304.2727,438.9569,300.9749,445.8023,298.0905,453.1314,295.0827,462.2952,292.3702,477.3798,290.99,486.6321,288.4149,503.0302,287.6801,515.5407,286.4116,533.1756,286.738,547.0882,286.7583,559.6504,287.0826,575.5761,288.8335,588.0144,290.5143,598.8617,292.5794,608.4374,295.11,617.3755,298.2393,622.3903,301.2006,628.1022,304.9883,627.0917,307.8714" style="stroke: #A80036; stroke-width: 1.5;"/><text fill="#000000" font-family="sans-serif" font-size="14" lengthAdjust="spacingAndGlyphs" textLength="167" x="448.4095" y="312.6835">Bestellvorgang erfassen</text><polygon fill="#FEFECE" filter="url(#f97pmx4t57o2i)" points="653.645,228.2402,651.169,232.8411,641.7188,236.342,630.8755,239.8298,621.9241,243.8807,605.0354,246.1904,589.6065,248.6723,571.4975,250.2736,551.5453,251.0409,534.2176,251.8274,510.7157,250.5901,495.7184,250.4525,476.322,248.5064,457.6594,245.8209,444.5825,243.4256,431.4435,240.07,421.6134,236.5053,413.4757,232.4113,408.7355,228.2192,406.0644,223.7151,407.3081,219.4003,411.8208,215.2461,420.6663,211.6126,430.137,207.8237,441.9783,204.4068,461.4703,202.6681,473.4261,199.4244,494.6153,198.4987,510.7812,196.9008,533.5687,197.312,551.5465,197.3375,567.7791,197.7461,588.3581,199.9516,604.4305,202.069,618.4473,204.6704,630.8208,207.8581,642.3705,211.8001,648.8505,215.5303,656.2314,220.3017,654.9256,223.9335" style="stroke: #A80036; stroke-width: 1.5;"/><text fill="#000000" font-family="sans-serif" font-size="14" lengthAdjust="spacingAndGlyphs" textLength="222" x="420.9327" y="227.3371">Waren und/oder Geldbewegung</text><text fill="#000000" font-family="sans-serif" font-size="14" lengthAdjust="spacingAndGlyphs" textLength="75" x="494.4327" y="243.634">archivieren</text><polygon fill="#FEFECE" filter="url(#f97pmx4t57o2i)" points="979.8919,386.0692,978.0384,389.6157,970.9639,392.3141,962.8465,395.0025,956.1454,398.1249,943.5024,399.9053,931.9522,401.8183,918.3956,403.0526,903.4592,403.6441,890.4876,404.2503,872.8938,403.2966,861.6667,403.1905,847.1465,401.6905,833.1754,399.6205,823.386,397.7742,813.55,395.1877,806.1911,392.44,800.0992,389.2844,796.5506,386.0531,794.551,382.5813,795.482,379.2554,798.8603,376.0534,805.4821,373.2527,812.5719,370.3322,821.4364,367.6984,836.0283,366.3583,844.9785,363.858,860.841,363.1444,872.9429,361.9128,890.0018,362.2297,903.4601,362.2494,915.612,362.5643,931.0176,364.2644,943.0496,365.8964,953.5426,367.9016,962.8056,370.3587,971.4517,373.3972,976.3028,376.2725,981.8281,379.9503,980.8506,382.7496" style="stroke: #A80036; stroke-width: 1.5;"/><text fill="#000000" font-family="sans-serif" font-size="14" lengthAdjust="spacingAndGlyphs" textLength="160" x="808.7771" y="387.557">Stornierung archivieren</text><polygon fill="#FEFECE" filter="url(#f97pmx4t57o2i)" points="958.2357,312.3836,956.8322,315.1674,951.4757,317.2856,945.3295,319.396,940.2557,321.847,930.6829,323.2445,921.9376,324.7462,911.6731,325.7151,900.3639,326.1794,890.5422,326.6552,877.2209,325.9066,868.7202,325.8234,857.7261,324.6458,847.1478,323.0209,839.7356,321.5717,832.2882,319.5413,826.7163,317.3844,822.1037,314.9074,819.4169,312.3709,817.9029,309.6456,818.6078,307.0349,821.1657,304.5214,826.1795,302.323,831.5476,300.0305,838.2594,297.963,849.3079,296.911,856.0846,294.9484,868.095,294.3883,877.2581,293.4215,890.1744,293.6703,900.3645,293.6857,909.5655,293.9329,921.2299,295.2674,930.3401,296.5485,938.285,298.1225,945.2985,300.0512,951.8451,302.4364,955.5181,304.6934,959.7017,307.5804,958.9615,309.7778" style="stroke: #A80036; stroke-width: 1.5;"/><text fill="#000000" font-family="sans-serif" font-size="14" lengthAdjust="spacingAndGlyphs" textLength="107" x="835.7471" y="314.551">Ware einkaufen</text><polygon fill="#FEFECE" filter="url(#f97pmx4t57o2i)" points="997.1396,237.5462,994.9409,241.6774,986.5488,244.8209,976.9197,247.9526,968.9705,251.5899,953.9729,253.6639,940.2716,255.8924,924.1903,257.3303,906.4722,258.0192,891.0848,258.7255,870.2144,257.6145,856.8964,257.4909,839.6719,255.7435,823.0989,253.3321,811.4863,251.1814,799.8185,248.1684,791.0891,244.9675,783.8626,241.2915,779.6532,237.5273,777.2811,233.483,778.3855,229.6087,782.393,225.8786,790.2481,222.6161,798.6582,219.214,809.1736,216.1459,826.4831,214.5847,837.1002,211.6721,855.9168,210.8409,870.2726,209.4062,890.5085,209.7754,906.4733,209.7983,920.8883,210.1651,939.163,212.1455,953.4358,214.0467,965.883,216.3825,976.8711,219.2448,987.1275,222.7844,992.882,226.1338,999.4364,230.4181,998.2768,233.6791" style="stroke: #A80036; stroke-width: 1.5;"/><text fill="#000000" font-family="sans-serif" font-size="14" lengthAdjust="spacingAndGlyphs" textLength="198" x="790.0557" y="238.5127">günstigsten Anbieter wählen</text><polygon fill="#FEFECE" filter="url(#f97pmx4t57o2i)" points="607.9939,579.4813,606.4518,582.5,600.566,584.797,593.8125,587.0854,588.2373,589.7433,577.7186,591.2588,568.1091,592.8872,556.8304,593.9379,544.4037,594.4413,533.6115,594.9574,518.9739,594.1455,509.6333,594.0553,497.5527,592.7784,485.9291,591.0163,477.7845,589.4448,469.6012,587.2431,463.4788,584.9042,458.4104,582.218,455.4581,579.4675,453.7944,576.5122,454.569,573.6812,457.3797,570.9556,462.8889,568.5716,468.7875,566.0856,476.1625,563.8436,488.3027,562.7029,495.749,560.5746,508.9462,559.9672,519.0147,558.9188,533.2074,559.1886,544.4044,559.2053,554.5145,559.4734,567.3316,560.9205,577.3419,562.3097,586.0719,564.0166,593.7785,566.1081,600.9719,568.6945,605.0078,571.142,609.6048,574.2727,608.7915,576.6555" style="stroke: #A80036; stroke-width: 1.5;"/><text fill="#000000" font-family="sans-serif" font-size="14" lengthAdjust="spacingAndGlyphs" textLength="124" x="470.1884" y="581.4393">Bargeld einzahlen</text><polygon fill="#FEFECE" filter="url(#f97pmx4t57o2i)" points="1281.3226,626.8678,1279.7469,629.9434,1273.733,632.2836,1266.8326,634.6151,1261.1362,637.3231,1250.3886,638.8671,1240.57,640.5261,1229.0459,641.5966,1216.3488,642.1095,1205.3219,642.6353,1190.3658,641.8082,1180.8219,641.7162,1168.4785,640.4153,1156.602,638.6201,1148.2802,637.0189,1139.9189,634.7758,1133.6633,632.3928,1128.4846,629.6561,1125.4681,626.8538,1123.7682,623.8428,1124.5597,620.9585,1127.4315,618.1816,1133.0606,615.7527,1139.0874,613.2199,1146.623,610.9357,1159.0272,609.7735,1166.6356,607.6051,1180.1199,606.9863,1190.4075,605.9182,1204.9089,606.193,1216.3495,606.2101,1226.6796,606.4832,1239.7756,607.9575,1250.0037,609.3729,1258.9236,611.1119,1266.7978,613.2428,1274.1478,615.878,1278.2715,618.3716,1282.9685,621.5611,1282.1375,623.9889" style="stroke: #A80036; stroke-width: 1.5;"/><text fill="#000000" font-family="sans-serif" font-size="14" lengthAdjust="spacingAndGlyphs" textLength="128" x="1139.8678" y="628.7751">Bargeld auszahlen</text><polygon fill="#FEFECE" filter="url(#f97pmx4t57o2i)" points="1279.1667,770.3852,1277.633,773.3899,1271.779,775.6761,1265.062,777.9538,1259.517,780.5992,1249.0551,782.1076,1239.4976,783.7284,1228.2798,784.7742,1215.9203,785.2753,1205.1865,785.7889,1190.628,784.9809,1181.3379,784.891,1169.3226,783.6201,1157.7619,781.8663,1149.6613,780.3021,1141.5223,778.1107,1135.433,775.7827,1130.392,773.1092,1127.4556,770.3715,1125.801,767.4301,1126.5714,764.6123,1129.3668,761.8994,1134.8463,759.5265,1140.7129,757.0522,1148.0481,754.8207,1160.1226,753.6853,1167.5287,751.567,1180.6545,750.9625,1190.6686,749.919,1204.7845,750.1875,1215.921,750.2041,1225.9764,750.471,1238.7242,751.9113,1248.6804,753.294,1257.3632,754.9929,1265.0281,757.0746,1272.1827,759.6489,1276.1968,762.085,1280.7689,765.201,1279.96,767.5727" style="stroke: #A80036; stroke-width: 1.5;"/><text fill="#000000" font-family="sans-serif" font-size="14" lengthAdjust="spacingAndGlyphs" textLength="123" x="1142.2711" y="772.3558">Bargeld wechseln</text><polygon fill="#FEFECE" filter="url(#f97pmx4t57o2i)" points="1786.884,584.9973,1784.9499,588.6802,1777.5679,591.4825,1769.0978,594.2743,1762.1054,597.5169,1748.9129,599.3658,1736.8608,601.3524,1722.715,602.6343,1707.1295,603.2485,1693.5941,603.878,1675.2357,602.8876,1663.5207,602.7775,1648.3693,601.2197,1633.7911,599.07,1623.5762,597.1527,1613.3128,594.4667,1605.6341,591.6132,1599.2773,588.3362,1595.5745,584.9805,1593.488,581.3751,1594.4595,577.9212,1597.9846,574.596,1604.8942,571.6875,1612.2921,568.6547,1621.5419,565.9195,1636.768,564.5278,1646.1071,561.9313,1662.659,561.1903,1675.2869,559.9113,1693.0872,560.2404,1707.1304,560.2608,1719.8104,560.5879,1735.8855,562.3533,1748.4405,564.0482,1759.3895,566.1305,1769.055,568.6821,1778.077,571.8376,1783.1389,574.8235,1788.9044,578.6429,1787.8843,581.5499" style="stroke: #A80036; stroke-width: 1.5;"/><text fill="#000000" font-family="sans-serif" font-size="14" lengthAdjust="spacingAndGlyphs" textLength="169" x="1607.3093" y="586.3634">Wechselgeld berechnen</text><polygon fill="#FEFECE" filter="url(#f97pmx4t57o2i)" points="616.4201,706.9468,614.7074,710.2546,608.1704,712.7715,600.6698,715.279,594.4778,718.1914,582.7953,719.852,572.1227,721.6363,559.5961,722.7876,545.7947,723.3392,533.8085,723.9047,517.5515,723.0151,507.1775,722.9162,493.7604,721.5171,480.8509,719.5863,471.8052,717.8643,462.7166,715.4518,455.9168,712.8889,450.2877,709.9456,447.0088,706.9317,445.1611,703.6935,446.0214,700.5914,449.143,697.6048,455.2617,694.9925,461.8128,692.2685,470.0038,689.8119,483.487,688.5619,491.7572,686.2298,506.4144,685.5643,517.5969,684.4155,533.3597,684.7111,545.7954,684.7295,557.0241,685.0232,571.2591,686.6089,582.377,688.1311,592.0728,690.0014,600.6319,692.2932,608.6212,695.1272,613.1036,697.8091,618.2092,701.2395,617.3059,703.8505" style="stroke: #A80036; stroke-width: 1.5;"/><text fill="#000000" font-family="sans-serif" font-size="14" lengthAdjust="spacingAndGlyphs" textLength="144" x="460.228" y="708.6472">einfache Stornierung</text><polygon fill="#FEFECE" filter="url(#f97pmx4t57o2i)" points="1284.2191,698.5525,1282.584,701.7288,1276.3433,704.1457,1269.1826,706.5535,1263.2712,709.3501,1252.1183,710.9446,1241.9294,712.658,1229.9705,713.7636,1216.7945,714.2933,1205.3516,714.8362,1189.8314,713.982,1179.9275,713.8871,1167.1185,712.5435,1154.7941,710.6896,1146.1584,709.036,1137.4816,706.7194,1130.99,704.2584,1125.616,701.4321,1122.4857,698.538,1120.7217,695.4285,1121.5431,692.4498,1124.5232,689.5819,1130.3646,687.0735,1136.6188,684.4578,1144.4386,682.0988,1157.3107,680.8985,1165.2061,678.6592,1179.199,678.0201,1189.8747,676.917,1204.9231,677.2009,1216.7952,677.2185,1227.515,677.5006,1241.1049,679.0232,1251.7189,680.4849,1260.9752,682.2808,1269.1465,684.4815,1276.7737,687.2029,1281.053,689.7781,1285.9271,693.0721,1285.0648,695.5793" style="stroke: #A80036; stroke-width: 1.5;"/><text fill="#000000" font-family="sans-serif" font-size="14" lengthAdjust="spacingAndGlyphs" textLength="135" x="1136.3427" y="700.3701">globale Stornierung</text><!--entity ku--><polygon fill="#FEFECE" filter="url(#f97pmx4t57o2i)" points="295.0442,548.399,293.8715,550.0013,292.4845,552.3482,290.5008,553.9298,288.4163,554.7947,286.7542,554.8697,284.618,553.7881,282.6023,553.0814,281.0724,551.6467,280.2699,550.0042,279.7939,548.6964,279.3277,546.9882,278.5709,545.5182,279.1525,544.0829,279.662,542.5107,281.574,541.2673,282.9192,539.6539,284.5843,539.1182,286.5637,538.6568,289.1021,538.9309,290.4924,539.5866,292.1089,539.8838,294.0743,541.8975,294.7595,544.0233,295.0571,545.4737,294.72,547.8639" style="stroke: #A80036; stroke-width: 2.0;"/><path d="M287,554.4531 L287.1868,554.4531 L286.6317,559.8531 L287.1718,565.2531 L287.3553,570.6531 L286.3659,576.0531 L287,581.4531 M274,562.4531 L274,562.384 L279.2,562.074 L284.4,562.1122 L289.6,562.3925 L294.8,561.8386 L300,562.4531 M287,581.4531 L287.3719,581.7754 L283.9766,584.0862 L281.6672,587.338 L279.4901,590.7046 L276.5424,593.4032 L274,596.4531 M287,581.4531 L287.0458,581.4929 L289.5785,584.4345 L292.3199,587.5571 L294.9606,590.5923 L297.7934,593.7941 L300,596.4531 " fill="none" filter="url(#f97pmx4t57o2i)" style="stroke: #A80036; stroke-width: 2.0;"/><text fill="#000000" font-family="sans-serif" font-size="14" lengthAdjust="spacingAndGlyphs" textLength="45" x="264.5" y="616.4482">Kunde</text><!--entity nku--><polygon fill="#FEFECE" filter="url(#f97pmx4t57o2i)" points="94.0442,371.399,92.8715,373.0013,91.4845,375.3482,89.5008,376.9298,87.4163,377.7947,85.7542,377.8697,83.618,376.7881,81.6023,376.0814,80.0724,374.6467,79.2699,373.0042,78.7939,371.6964,78.3277,369.9882,77.5709,368.5182,78.1525,367.0829,78.662,365.5107,80.574,364.2673,81.9192,362.6539,83.5843,362.1182,85.5637,361.6568,88.1021,361.9309,89.4924,362.5866,91.1089,362.8838,93.0743,364.8975,93.7595,367.0233,94.0571,368.4737,93.72,370.8639" style="stroke: #A80036; stroke-width: 2.0;"/><path d="M86,377.4531 L86.1868,377.4531 L85.6317,382.8531 L86.1718,388.2531 L86.3553,393.6531 L85.3659,399.0531 L86,404.4531 M73,385.4531 L73,385.384 L78.2,385.074 L83.4,385.1122 L88.6,385.3925 L93.8,384.8386 L99,385.4531 M86,404.4531 L86.3719,404.7754 L82.9766,407.0862 L80.6672,410.338 L78.4901,413.7046 L75.5424,416.4032 L73,419.4531 M86,404.4531 L86.0458,404.4929 L88.5785,407.4345 L91.3199,410.5571 L93.9606,413.5923 L96.7934,416.7941 L99,419.4531 " fill="none" filter="url(#f97pmx4t57o2i)" style="stroke: #A80036; stroke-width: 2.0;"/><text fill="#000000" font-family="sans-serif" font-size="14" lengthAdjust="spacingAndGlyphs" textLength="92" x="40" y="439.4482">Normalkunde</text><!--entity pku--><polygon fill="#FEFECE" filter="url(#f97pmx4t57o2i)" points="94.0442,489.399,92.8715,491.0013,91.4845,493.3482,89.5008,494.9298,87.4163,495.7947,85.7542,495.8697,83.618,494.7881,81.6023,494.0814,80.0724,492.6467,79.2699,491.0042,78.7939,489.6964,78.3277,487.9882,77.5709,486.5182,78.1525,485.0829,78.662,483.5107,80.574,482.2673,81.9192,480.6539,83.5843,480.1182,85.5637,479.6568,88.1021,479.9309,89.4924,480.5866,91.1089,480.8838,93.0743,482.8975,93.7595,485.0233,94.0571,486.4737,93.72,488.8639" style="stroke: #A80036; stroke-width: 2.0;"/><path d="M86,495.4531 L86.1868,495.4531 L85.6317,500.8531 L86.1718,506.2531 L86.3553,511.6531 L85.3659,517.0531 L86,522.4531 M73,503.4531 L73,503.384 L78.2,503.074 L83.4,503.1122 L88.6,503.3925 L93.8,502.8386 L99,503.4531 M86,522.4531 L86.3719,522.7754 L82.9766,525.0862 L80.6672,528.338 L78.4901,531.7046 L75.5424,534.4032 L73,537.4531 M86,522.4531 L86.0458,522.4929 L88.5785,525.4345 L91.3199,528.5571 L93.9606,531.5923 L96.7934,534.7941 L99,537.4531 " fill="none" filter="url(#f97pmx4t57o2i)" style="stroke: #A80036; stroke-width: 2.0;"/><text fill="#000000" font-family="sans-serif" font-size="14" lengthAdjust="spacingAndGlyphs" textLength="60" x="56" y="557.4482">Personal</text><!--entity gha--><polygon fill="#FEFECE" filter="url(#f97pmx4t57o2i)" points="94.0442,607.399,92.8715,609.0013,91.4845,611.3482,89.5008,612.9298,87.4163,613.7947,85.7542,613.8697,83.618,612.7881,81.6023,612.0814,80.0724,610.6467,79.2699,609.0042,78.7939,607.6964,78.3277,605.9882,77.5709,604.5182,78.1525,603.0829,78.662,601.5107,80.574,600.2673,81.9192,598.6539,83.5843,598.1182,85.5637,597.6568,88.1021,597.9309,89.4924,598.5866,91.1089,598.8838,93.0743,600.8975,93.7595,603.0233,94.0571,604.4737,93.72,606.8639" style="stroke: #A80036; stroke-width: 2.0;"/><path d="M86,613.4531 L86.1868,613.4531 L85.6317,618.8531 L86.1718,624.2531 L86.3553,629.6531 L85.3659,635.0531 L86,640.4531 M73,621.4531 L73,621.384 L78.2,621.074 L83.4,621.1122 L88.6,621.3925 L93.8,620.8386 L99,621.4531 M86,640.4531 L86.3719,640.7754 L82.9766,643.0862 L80.6672,646.338 L78.4901,649.7046 L75.5424,652.4032 L73,655.4531 M86,640.4531 L86.0458,640.4929 L88.5785,643.4345 L91.3199,646.5571 L93.9606,649.5923 L96.7934,652.7941 L99,655.4531 " fill="none" filter="url(#f97pmx4t57o2i)" style="stroke: #A80036; stroke-width: 2.0;"/><text fill="#000000" font-family="sans-serif" font-size="14" lengthAdjust="spacingAndGlyphs" textLength="160" x="6" y="675.4482">Großhandelsabnehmer</text><!--entity hku--><polygon fill="#FEFECE" filter="url(#f97pmx4t57o2i)" points="94.0442,725.399,92.8715,727.0013,91.4845,729.3482,89.5008,730.9298,87.4163,731.7947,85.7542,731.8697,83.618,730.7881,81.6023,730.0814,80.0724,728.6467,79.2699,727.0042,78.7939,725.6964,78.3277,723.9882,77.5709,722.5182,78.1525,721.0829,78.662,719.5107,80.574,718.2673,81.9192,716.6539,83.5843,716.1182,85.5637,715.6568,88.1021,715.9309,89.4924,716.5866,91.1089,716.8838,93.0743,718.8975,93.7595,721.0233,94.0571,722.4737,93.72,724.8639" style="stroke: #A80036; stroke-width: 2.0;"/><path d="M86,731.4531 L86.1868,731.4531 L85.6317,736.8531 L86.1718,742.2531 L86.3553,747.6531 L85.3659,753.0531 L86,758.4531 M73,739.4531 L73,739.384 L78.2,739.074 L83.4,739.1122 L88.6,739.3925 L93.8,738.8386 L99,739.4531 M86,758.4531 L86.3719,758.7754 L82.9766,761.0862 L80.6672,764.338 L78.4901,767.7046 L75.5424,770.4032 L73,773.4531 M86,758.4531 L86.0458,758.4929 L88.5785,761.4345 L91.3199,764.5571 L93.9606,767.5923 L96.7934,770.7941 L99,773.4531 " fill="none" filter="url(#f97pmx4t57o2i)" style="stroke: #A80036; stroke-width: 2.0;"/><text fill="#000000" font-family="sans-serif" font-size="14" lengthAdjust="spacingAndGlyphs" textLength="79" x="46.5" y="793.4482">Hauskunde</text><!--entity vp--><polygon fill="#FEFECE" filter="url(#f97pmx4t57o2i)" points="295.0442,907.399,293.8715,909.0013,292.4845,911.3482,290.5008,912.9298,288.4163,913.7947,286.7542,913.8697,284.618,912.7881,282.6023,912.0814,281.0724,910.6467,280.2699,909.0042,279.7939,907.6964,279.3277,905.9882,278.5709,904.5182,279.1525,903.0829,279.662,901.5107,281.574,900.2673,282.9192,898.6539,284.5843,898.1182,286.5637,897.6568,289.1021,897.9309,290.4924,898.5866,292.1089,898.8838,294.0743,900.8975,294.7595,903.0233,295.0571,904.4737,294.72,906.8639" style="stroke: #A80036; stroke-width: 2.0;"/><path d="M287,913.4531 L287.1868,913.4531 L286.6317,918.8531 L287.1718,924.2531 L287.3553,929.6531 L286.3659,935.0531 L287,940.4531 M274,921.4531 L274,921.384 L279.2,921.074 L284.4,921.1122 L289.6,921.3925 L294.8,920.8386 L300,921.4531 M287,940.4531 L287.3719,940.7754 L283.9766,943.0862 L281.6672,946.338 L279.4901,949.7046 L276.5424,952.4032 L274,955.4531 M287,940.4531 L287.0458,940.4929 L289.5785,943.4345 L292.3199,946.5571 L294.9606,949.5923 L297.7934,952.7941 L300,955.4531 " fill="none" filter="url(#f97pmx4t57o2i)" style="stroke: #A80036; stroke-width: 2.0;"/><text fill="#000000" font-family="sans-serif" font-size="14" lengthAdjust="spacingAndGlyphs" textLength="120" x="227" y="975.4482">Verkaufspersonal</text><!--entity gl--><polygon fill="#FEFECE" filter="url(#f97pmx4t57o2i)" points="295.0442,430.399,293.8715,432.0013,292.4845,434.3482,290.5008,435.9298,288.4163,436.7947,286.7542,436.8697,284.618,435.7881,282.6023,435.0814,281.0724,433.6467,280.2699,432.0042,279.7939,430.6964,279.3277,428.9882,278.5709,427.5182,279.1525,426.0829,279.662,424.5107,281.574,423.2673,282.9192,421.6539,284.5843,421.1182,286.5637,420.6568,289.1021,420.9309,290.4924,421.5866,292.1089,421.8838,294.0743,423.8975,294.7595,426.0233,295.0571,427.4737,294.72,429.8639" style="stroke: #A80036; stroke-width: 2.0;"/><path d="M287,436.4531 L287.1868,436.4531 L286.6317,441.8531 L287.1718,447.2531 L287.3553,452.6531 L286.3659,458.0531 L287,463.4531 M274,444.4531 L274,444.384 L279.2,444.074 L284.4,444.1122 L289.6,444.3925 L294.8,443.8386 L300,444.4531 M287,463.4531 L287.3719,463.7754 L283.9766,466.0862 L281.6672,469.338 L279.4901,472.7046 L276.5424,475.4032 L274,478.4531 M287,463.4531 L287.0458,463.4929 L289.5785,466.4345 L292.3199,469.5571 L294.9606,472.5923 L297.7934,475.7941 L300,478.4531 " fill="none" filter="url(#f97pmx4t57o2i)" style="stroke: #A80036; stroke-width: 2.0;"/><text fill="#000000" font-family="sans-serif" font-size="14" lengthAdjust="spacingAndGlyphs" textLength="117" x="228.5" y="498.4482">Geschäftsleitung</text><!--entity sys--><polygon fill="#FEFECE" filter="url(#f97pmx4t57o2i)" points="295.0442,56.399,293.8715,58.0013,292.4845,60.3482,290.5008,61.9298,288.4163,62.7947,286.7542,62.8697,284.618,61.7881,282.6023,61.0814,281.0724,59.6467,280.2699,58.0042,279.7939,56.6964,279.3277,54.9882,278.5709,53.5182,279.1525,52.0829,279.662,50.5107,281.574,49.2673,282.9192,47.6539,284.5843,47.1182,286.5637,46.6568,289.1021,46.9309,290.4924,47.5866,292.1089,47.8838,294.0743,49.8975,294.7595,52.0233,295.0571,53.4737,294.72,55.8639" style="stroke: #A80036; stroke-width: 2.0;"/><path d="M287,62.4531 L287.1868,62.4531 L286.6317,67.8531 L287.1718,73.2531 L287.3553,78.6531 L286.3659,84.0531 L287,89.4531 M274,70.4531 L274,70.384 L279.2,70.074 L284.4,70.1122 L289.6,70.3925 L294.8,69.8386 L300,70.4531 M287,89.4531 L287.3719,89.7754 L283.9766,92.0862 L281.6672,95.338 L279.4901,98.7046 L276.5424,101.4032 L274,104.4531 M287,89.4531 L287.0458,89.4929 L289.5785,92.4345 L292.3199,95.5571 L294.9606,98.5923 L297.7934,101.7941 L300,104.4531 " fill="none" filter="url(#f97pmx4t57o2i)" style="stroke: #A80036; stroke-width: 2.0;"/><text fill="#000000" font-family="sans-serif" font-size="14" lengthAdjust="spacingAndGlyphs" textLength="51" x="261.5" y="124.4482">System</text><!--link nku to ku--><path d="M132.1053,433.2844 L132.1614,433.3591 L133.7094,434.4239 L135.5862,435.9266 L137.3559,437.2868 L138.7737,438.1778 L140.6786,439.7182 L140.6575,439.6908 L142.2876,440.8987 L144.024,442.2445 L145.8343,443.6861 L147.3899,444.7974 L149.3023,446.3713 L149.4557,446.5637 L150.8275,447.5077 L152.6471,449.0133 L154.5213,450.5875 L156.0776,451.763 L157.8012,453.1482 L157.8205,453.1715 L159.4319,454.4982 L161.1314,455.9312 L162.7883,457.3129 L164.5265,458.7924 L166,459.9531 L166.2053,460.1695 L168.6252,462.4658 L170.9128,464.6227 L173.3941,466.9837 L175.8846,469.3544 L178.0872,471.4217 L177.8638,471.1919 L183.1645,476.3683 L187.7296,480.7878 L192.854,485.7827 L197.4024,490.1851 L202.4229,495.0732 L202.359,495.0079 L210.4,502.9121 L216.9482,509.2914 L224.3773,516.5705 L231.8803,523.9251 L239.2381,531.1314 L246.1317,537.8634 L253.6886,545.2731 L260.7061,552.1318 " fill="none" style="stroke: #A80036; stroke-width: 1.0;"/><polygon fill="#A80036" points="264.3422,555.7001,264.4074,555.7259,263.4894,553.8176,262.9533,552.0603,262.2929,550.2539,261.2235,548.2857,260.7203,546.5414,260.6944,546.5412,260.5888,547.6714,260.6138,548.8029,260.7295,549.9352,260.5324,551.0645,260.7735,552.198,260.7753,552.3826,259.6402,551.9986,258.5103,552.1534,257.3809,552.374,256.248,552.212,255.1169,552.2513,255.1249,552.2726,256.9583,552.9311,258.8279,553.6866,260.68,554.3953,262.5655,555.1932,264.3422,555.7001" style="stroke: #A80036; stroke-width: 1.0;"/><!--link pku to ku--><path d="M116.0917,527.786 L116.1706,528.0549 L125.5054,530.0648 L135.3028,533.6511 L144.9495,536.724 L154.1008,538.1089 L163.9087,541.731 L173.347,544.0937 L182.9324,546.9576 L192.6201,550.1699 L201.9553,552.1814 L211.9921,556.5831 L221.1167,557.8774 L230.8484,561.2396 L240.6541,564.8541 L250.0289,567.0006 L259.6304,569.9192 " fill="none" style="stroke: #A80036; stroke-width: 1.0;"/><polygon fill="#A80036" points="264.4983,571.3481,264.5436,571.4015,262.9071,569.9682,261.5364,568.8481,260.0791,567.6259,258.3372,566.0684,256.9893,564.9751,256.9666,564.9627,257.4068,565.8999,257.9617,566.8998,258.5962,567.9431,258.9562,568.8364,259.7007,569.9398,259.7892,570.1018,258.6071,570.2977,257.6833,570.9666,256.7909,571.6931,255.7153,572.0839,254.736,572.6513,254.739,572.6738,256.6871,572.3801,258.6488,572.189,260.6039,571.9484,262.5717,571.8023,264.4983,571.3481" style="stroke: #A80036; stroke-width: 1.0;"/><!--link gha to ku--><path d="M166.0181,613.4652 L166.097,613.7341 L175.2047,610.1929 L184.775,608.2281 L194.1946,605.7499 L203.1188,601.5837 L212.6997,599.6547 L221.9108,596.4663 L231.2691,593.7791 L240.7297,591.4403 L249.8378,587.9007 L259.4396,586.043 " fill="none" style="stroke: #A80036; stroke-width: 1.0;"/><polygon fill="#A80036" points="264.3912,584.5895,264.4005,584.659,262.4205,584.1921,260.4948,584.1322,258.5514,583.9399,256.5499,583.3115,254.6289,583.2866,254.6165,583.2639,255.5537,583.7041,256.5535,584.259,257.5969,584.8935,258.4903,585.2534,259.5937,585.9979,259.7556,586.0864,258.867,586.8902,258.4513,587.9523,258.0933,589.0458,257.3995,589.9561,256.8824,590.9627,256.8971,590.98,258.3772,589.68,259.9244,588.4588,261.4392,587.1996,263.0158,586.013,264.3912,584.5895" style="stroke: #A80036; stroke-width: 1.0;"/><!--link hku to ku--><path d="M125.8904,727.1899 L125.9459,727.2651 L127.7826,725.563 L129.9446,724.3013 L132.0007,722.8962 L133.7083,721.0195 L135.8983,719.7956 L135.8774,719.7681 L137.8265,718.0894 L139.8812,716.5492 L142.0091,715.1053 L143.8844,713.3295 L146.1136,712.0186 L146.2661,712.2117 L147.9662,710.1986 L150.1116,708.7494 L152.3113,707.3689 L154.1949,705.5882 L156.2447,704.018 L156.264,704.0414 L158.1867,702.3941 L160.1974,700.8532 L162.1656,699.261 L164.2148,697.7667 L166,695.9531 L166.1955,696.1783 L168.7771,693.942 L171.2325,691.5604 L173.8725,689.3915 L176.5212,687.2325 L178.8957,684.7578 L178.6811,684.5197 L181.6852,682.649 L183.9826,679.9944 L186.8172,677.9358 L189.0986,675.2634 L191.8335,673.0941 L191.8127,673.0718 L194.6188,670.954 L196.9405,668.3153 L199.5481,665.9839 L202.1796,663.6784 L204.638,661.1867 L204.7658,661.3206 L207.1361,658.8002 L209.7247,656.5085 L211.9602,653.8469 L214.7223,651.7371 L217.1343,649.2604 L217.3045,649.4348 L219.6749,647.0577 L222.1297,644.7671 L224.1921,642.0743 L226.5422,639.6764 L229.1472,637.5397 L228.9524,637.3439 L231.3996,635.2631 L233.6273,632.9616 L236.1733,630.9803 L238.1759,628.4524 L240.5015,626.2494 L240.3927,626.1425 L244.5803,622.2422 L248.303,617.8852 L252.3563,613.853 L256.7331,610.1386 L260.5338,605.8582 " fill="none" style="stroke: #A80036; stroke-width: 1.0;"/><polygon fill="#A80036" points="264.2531,602.0073,264.2794,602.0723,262.3754,602.6182,260.6254,603.5449,258.8253,604.3477,256.8602,604.7427,255.1235,605.702,255.1231,605.6761,256.2523,605.5402,257.3837,605.5349,258.5167,605.6204,259.6443,605.393,260.7795,605.6038,260.964,605.607,260.5891,606.7313,260.7529,607.865,260.9825,608.9999,260.8296,610.1281,260.8778,611.2598,260.8992,611.2675,261.5429,609.4056,262.2838,607.5792,262.9779,605.7356,263.7615,603.9247,264.2531,602.0073" style="stroke: #A80036; stroke-width: 1.0;"/><!--link ku to bg_ez--><path d="M309.6099,577.8608 L309.611,578.1411 L319.2951,577.2689 L328.9859,578.0395 L338.6745,578.2751 L348.3559,576.7515 L358.0468,577.5595 L367.7323,577.0549 L377.42,577.0727 L387.1092,577.4536 L396.7933,576.5831 L406.4875,578.2036 L416.1685,576.5855 L425.8583,577.1227 L435.5492,577.9227 L445.2339,577.1929 L454.9218,577.2677 " fill="none" style="stroke: #A80036; stroke-width: 1.0;"/><!--link vp to bg_we--><path d="M307.2772,978.6126 L307.358,978.6595 L308.3576,980.659 L309.831,982.9331 L311.1501,985.1177 L311.9619,987.0083 L313.476,989.306 L313.4467,989.2877 L314.7073,991.4341 L316.1157,993.6727 L317.6267,995.9755 L318.7839,998.0572 L320.4367,1000.4485 L320.6403,1000.5867 L321.7451,1002.5603 L323.4444,1004.9374 L325.2162,1007.3637 L326.566,1009.5036 L328.1378,1011.7941 L328.1621,1011.8122 L329.8105,1014.0461 L331.5695,1016.3624 L333.2752,1018.639 L335.0827,1020.9915 L336.558,1023.0965 L336.7877,1023.2867 L338.6141,1025.4917 L340.2923,1027.574 L342.1874,1029.8358 L344.0926,1032.1061 L345.6758,1034.1098 L345.4416,1033.8909 L347.8548,1036.4113 L349.497,1038.2109 L351.7254,1040.5585 L353.3501,1042.3419 L355.4696,1044.5877 L355.4489,1044.5654 L357.7836,1046.7686 L359.6343,1048.4504 L361.7706,1050.4399 L363.9309,1052.4552 L365.9182,1054.2842 L366.0322,1054.4299 L368.1335,1056.0166 L370.4296,1057.8523 L372.4105,1059.2852 L374.8615,1061.3189 L377,1062.9531 L377.1387,1063.1534 L379.232,1064.5837 L381.3941,1066.1134 L383.2362,1067.1811 L385.3128,1068.5874 L387.5974,1070.2939 L387.446,1070.0628 L389.5678,1071.5723 L391.5191,1072.8214 L393.7177,1074.4481 L395.4939,1075.4302 L397.5212,1076.7954 L397.4419,1076.6653 L399.4478,1078.0246 L401.1144,1078.8275 L403.0223,1080.0262 L405.1664,1081.612 L406.8899,1082.5083 L406.9841,1082.6775 L408.8351,1083.7884 L410.3931,1084.3732 L412.3181,1085.617 L414.1631,1086.7172 L415.8218,1087.4829 L415.7331,1087.2926 L419.2091,1089.0315 L422.656,1090.7081 L426.16,1092.5071 L429.4421,1093.8301 L432.8482,1095.419 L432.9134,1095.614 L436.1099,1096.3033 L439.4322,1097.3689 L442.9386,1098.9843 L446.1062,1099.5875 L449.5471,1101.0074 L449.5937,1101.2287 L453.0296,1101.8261 L456.4498,1102.3485 L459.9056,1103.0399 L463.4435,1104.1221 L466.8651,1104.6514 L466.8504,1104.5192 L470.671,1105.3335 L474.3915,1105.2486 L478.2258,1106.1861 L481.996,1106.548 L485.7489,1106.7547 L485.7552,1106.8634 L487.8151,1106.8957 L489.8976,1107.3171 L491.9596,1107.3869 L494.0131,1107.3098 L496.0737,1107.3547 L496.0777,1107.4738 L498.2861,1107.37 L500.5128,1107.8194 L502.7188,1107.6431 L504.9333,1107.7242 L507.145,1107.7208 L507.1408,1107.4504 L509.5294,1107.5772 L511.923,1108.0297 L514.3095,1108.0214 L516.6935,1107.8478 L519.081,1107.9034 L519.0804,1107.7603 L521.6644,1107.8161 L524.2474,1107.6184 L526.8331,1108.1176 L529.4175,1108.2719 L532,1107.9531 L532,1108.655 L541.9717,1108.8797 L551.9434,1107.7708 L561.9151,1108.0694 L571.8868,1107.4363 L581.8585,1108.3318 L591.8302,1108.2821 L601.8019,1108.6896 L611.7736,1107.6469 L621.7453,1107.7739 L631.717,1108.5444 L641.6887,1108.7096 L651.6604,1107.2697 L661.6321,1107.6946 L671.6038,1108.1521 L681.5755,1107.1387 L691.5472,1108.4243 L701.5189,1108.2971 L711.4906,1107.8188 L721.4623,1108.1428 L731.434,1108.9247 L741.4057,1107.536 L751.3774,1108.3731 L761.3491,1108.334 L771.3208,1108.1075 L781.2925,1108.141 L791.2642,1108.1044 L801.2358,1107.1209 L811.2075,1107.4187 L821.1792,1107.3377 L831.1509,1108.0382 L841.1226,1108.0706 L851.0943,1108.1688 L861.066,1107.5652 L871.0377,1107.8631 L881.0094,1107.7928 L890.9811,1108.7223 L900.9528,1108.5219 L910.9245,1107.3057 L920.8962,1107.8559 L930.8679,1107.1835 L940.8396,1108.3376 L950.8113,1108.7644 L960.783,1108.6792 L970.7547,1107.3724 L980.7264,1108.5717 L990.6981,1106.9627 L1000.6698,1108.22 L1010.6415,1107.554 L1020.6132,1108.0821 L1030.5849,1108.2736 L1040.5566,1108.5826 L1050.5283,1106.9932 L1060.5,1107.9531 L1060.545,1108.1596 L1063.1229,1107.4631 L1065.7458,1106.9726 L1068.389,1106.5756 L1070.9249,1105.6857 L1073.5305,1105.1159 L1073.5725,1105.1815 L1076.1091,1103.5778 L1078.6326,1101.9537 L1081.1126,1100.2615 L1083.8105,1098.9099 L1086.1677,1097.0258 L1085.9722,1096.8381 L1088.7901,1094.6576 L1090.85,1091.7494 L1093.318,1089.2329 L1095.9452,1086.8694 L1098.3736,1084.3149 L1098.3836,1084.3225 L1099.3843,1082.6052 L1100.8923,1081.2691 L1101.9698,1079.6096 L1103.3752,1078.1964 L1104.3028,1076.4243 L1104.5504,1076.5875 L1105.2979,1074.5529 L1106.478,1072.8034 L1107.7392,1071.1074 L1109.0805,1069.4642 L1110.11,1067.6155 L1110.2643,1067.7064 L1111.3614,1065.7538 L1112.2511,1063.6793 L1113.7619,1061.9703 L1114.8969,1060.0401 L1115.7903,1057.9677 L1115.7717,1057.9578 L1116.8062,1055.8361 L1117.8523,1053.7206 L1119.0353,1051.678 L1120.2831,1049.67 L1121.3389,1047.5597 L1121.3116,1047.5464 L1122.2545,1045.2605 L1123.6985,1043.2192 L1124.4029,1040.8169 L1125.8693,1038.7865 L1126.7511,1036.4708 L1126.9242,1036.5488 L1127.956,1034.2005 L1129.1401,1031.9209 L1129.8141,1029.4113 L1130.8462,1027.0631 L1132.0222,1024.7798 L1132.2348,1024.869 L1132.8026,1022.2343 L1133.9763,1019.8539 L1135.1446,1017.4713 L1136.1504,1015.0204 L1137.1473,1012.5658 L1136.999,1012.5075 L1138.1244,1010.0272 L1139.4451,1007.6237 L1140.4002,1005.0764 L1140.8802,1002.3425 L1142.1218,999.9079 L1142.1545,999.92 L1142.8714,997.224 L1144.0384,994.6946 L1145.1353,992.1393 L1146.152,989.5543 L1146.9408,986.885 L1146.6619,986.7873 L1148.0405,984.282 L1148.8078,981.5627 L1149.5031,978.8181 L1150.4702,976.1687 L1151.5995,973.5761 L1151.7373,973.6219 L1152.6037,970.908 L1153.3901,968.1675 L1154.0124,965.3725 L1155.4722,962.8559 L1156.0933,960.0604 L1155.9612,960.0185 L1156.7344,957.2608 L1157.7945,954.5939 L1158.9376,951.9534 L1159.8133,949.2282 L1160.4174,946.4168 L1160.4324,946.4214 L1161.183,943.6589 L1162.1495,940.9617 L1162.9864,938.2254 L1163.5211,935.3974 L1164.567,932.7244 L1164.7437,932.7757 L1165.5996,930.0612 L1166.063,927.2327 L1166.766,924.4738 L1168.0312,921.8782 L1168.5373,919.0621 L1168.5463,919.0646 L1170.014,913.6785 L1171.619,908.3301 L1172.6909,902.8354 L1174.6715,897.5901 L1175.9211,892.1442 L1175.9145,892.1425 L1177.531,887.048 L1178.4721,881.7808 L1180.063,876.6798 L1181.0177,871.4161 L1182.5308,866.2952 L1182.6367,866.3207 L1183.8542,861.505 L1184.7083,856.6022 L1186.1661,851.8442 L1186.9217,846.9177 L1188.3282,842.1475 L1188.1243,842.1012 L1189.6136,837.8517 L1190.6036,833.489 L1191.5428,829.1147 L1192.1296,824.6605 L1193.2752,820.333 L1193.4422,820.369 L1193.8818,816.5191 L1194.9239,812.7989 L1195.7098,809.0236 L1196.4081,805.2294 L1197.3338,801.4842 L1197.602,801.5392 L1198.1532,798.4736 L1198.447,795.355 L1199.4423,792.3806 L1199.8795,789.2915 L1200.4659,786.233 " fill="none" style="stroke: #A80036; stroke-width: 1.0;"/><!--link vp to bg_az--><path d="M347.1722,976.7631 L347.2185,976.8443 L348.9306,977.6575 L350.914,978.9464 L352.809,980.0804 L354.4136,980.7049 L356.4202,982.0347 L356.4037,982.0044 L358.2747,982.9327 L360.2294,984.0137 L362.2421,985.2009 L364.0547,986.0221 L366.1476,987.356 L366.2616,987.574 L368.0518,988.1712 L370.1748,989.405 L372.3384,990.7164 L374.2658,991.576 L376.3174,992.6732 L376.3309,992.7003 L378.4261,993.7124 L380.5828,994.848 L382.7099,995.924 L384.8935,997.1138 L386.8927,997.9326 L387.0196,998.2024 L389.21,999.2353 L391.3184,1000.094 L393.5468,1001.2076 L395.7807,1002.3332 L397.8367,1003.0803 L397.7071,1002.7871 L400.2137,1004.3526 L402.2937,1004.9527 L404.698,1006.2867 L406.7683,1006.8649 L409.1124,1008.0626 L409.1008,1008.0344 L411.552,1009.32 L413.7324,1009.9478 L416.0725,1010.9637 L418.4261,1012.0122 L420.6829,1012.8256 L420.7486,1012.9986 L423.048,1013.722 L425.4597,1014.741 L427.6898,1015.2818 L430.1906,1016.5358 L432.5115,1017.3157 L432.5911,1017.546 L434.9859,1018.3351 L437.4203,1019.2385 L439.6712,1019.6107 L442.0565,1020.3723 L444.5611,1021.4789 L444.4796,1021.2151 L447.0002,1022.2105 L449.4289,1022.9085 L451.9909,1024.0379 L454.3253,1024.4309 L456.795,1025.2616 L456.7552,1025.1144 L459.2977,1026.0292 L461.67,1026.3148 L464.1634,1027.0479 L466.7751,1028.2187 L469.1761,1028.6099 L469.2193,1028.7986 L471.7472,1029.5001 L474.1408,1029.6145 L476.7027,1030.4643 L479.2279,1031.1538 L481.6676,1031.47 L481.6295,1031.2635 L484.1729,1031.8918 L486.7038,1032.4524 L489.2592,1033.1458 L491.7193,1033.3227 L494.2327,1033.7882 L494.2605,1033.9919 L496.7197,1033.8888 L499.2326,1034.1789 L501.824,1035.0434 L504.2708,1034.8504 L506.8343,1035.5106 L506.8535,1035.736 L509.3624,1035.8167 L511.8648,1035.8211 L514.3818,1035.9977 L516.9328,1036.5721 L519.4357,1036.5835 L519.4318,1036.4506 L521.9563,1036.9204 L524.4542,1036.4858 L526.9824,1037.0796 L529.4935,1037.0944 L532,1036.9531 L532,1037.2797 L541.9717,1037.0161 L551.9434,1037.9219 L561.9151,1037.7712 L571.8868,1037.1788 L581.8585,1037.3107 L591.8302,1036.7794 L601.8019,1037.9084 L611.7736,1037.1596 L621.7453,1037.1832 L631.717,1036.142 L641.6887,1036.4128 L651.6604,1037.6608 L661.6321,1037.5261 L671.6038,1036.8959 L681.5755,1036.5236 L691.5472,1036.6612 L701.5189,1036.0382 L711.4906,1037.5061 L721.4623,1037.9392 L731.434,1037.655 L741.4057,1037.8797 L751.3774,1036.7708 L761.3491,1037.0694 L771.3208,1036.4363 L781.2925,1037.3318 L791.2642,1037.2821 L801.2358,1037.6896 L811.2075,1036.6469 L821.1792,1036.7739 L831.1509,1037.5444 L841.1226,1037.7096 L851.0943,1036.2697 L861.066,1036.6946 L871.0377,1037.1521 L881.0094,1036.1387 L890.9811,1037.4243 L900.9528,1037.2971 L910.9245,1036.8188 L920.8962,1037.1428 L930.8679,1037.9247 L940.8396,1036.536 L950.8113,1037.3731 L960.783,1037.334 L970.7547,1037.1075 L980.7264,1037.141 L990.6981,1037.1044 L1000.6698,1036.1209 L1010.6415,1036.4187 L1020.6132,1036.3377 L1030.5849,1037.0382 L1040.5566,1037.0706 L1050.5283,1037.1688 L1060.5,1036.9531 L1060.4689,1036.8276 L1063.3206,1036.2222 L1066.1427,1035.4977 L1069.0452,1035.0966 L1071.8569,1034.3299 L1074.639,1033.4442 L1074.4924,1033.2858 L1076.7742,1031.4234 L1078.779,1029.2619 L1081.1976,1027.5472 L1083.4514,1025.6546 L1085.4248,1023.4592 L1085.6411,1023.5678 L1086.8232,1020.2427 L1088.7519,1017.2925 L1089.8439,1013.9223 L1091.7899,1010.9808 L1093.2818,1007.8112 L1093.1545,1007.7724 L1093.9154,1005.8851 L1094.569,1003.965 L1095.2601,1002.0564 L1095.346,999.9629 L1096.2446,998.1177 L1096.4509,998.1633 L1096.7998,995.9739 L1097.3546,993.83 L1098.0029,991.7068 L1098.1587,989.4747 L1098.6343,987.3132 L1098.7112,987.3254 L1099.1019,984.9653 L1099.4688,982.6015 L1099.7558,980.225 L1100.4421,977.9117 L1100.504,975.4995 L1100.2346,975.4698 L1101.0343,972.9828 L1100.7895,970.3806 L1101.107,967.8404 L1101.6439,965.3244 L1101.9068,962.7782 L1101.9193,962.7791 L1101.8861,960.0567 L1102.4857,957.3806 L1102.5483,954.6653 L1103.02,951.9798 L1102.8956,949.2508 L1103.1918,949.2638 L1102.8222,946.3956 L1102.9702,943.5503 L1103.2151,940.7092 L1103.5559,937.8723 L1103.5236,935.019 L1103.7027,935.0228 L1103.7215,932.0549 L1103.4998,929.0819 L1103.9985,926.1243 L1104.0614,923.1574 L1103.8438,920.1844 L1103.8228,920.1843 L1103.7507,917.1168 L1103.6916,914.0493 L1103.7877,910.9825 L1103.9572,907.916 L1103.9093,904.8486 L1103.8789,904.8484 L1103.6963,901.7 L1104.0714,898.5564 L1103.6235,895.4057 L1104.0235,892.2623 L1103.773,889.1133 L1103.9628,889.1167 L1103.8812,885.9096 L1103.9667,882.7055 L1103.4928,879.4915 L1103.4114,876.2844 L1103.4881,873.0801 L1103.7186,873.0858 L1103.0621,866.5628 L1103.0626,860.056 L1103.0572,853.5491 L1102.8756,847.0379 L1102.6844,840.5264 L1102.5251,840.5226 L1102.513,834.0207 L1102.7106,827.5237 L1102.5155,821.0175 L1101.8101,814.4994 L1101.9227,808.0004 L1101.9576,808.0009 L1101.6478,804.7973 L1101.818,801.6008 L1101.9134,798.4031 L1101.9233,795.2043 L1101.6902,792.0018 L1101.3948,792.0007 L1101.8557,788.8652 L1101.6688,785.7272 L1101.4057,782.5888 L1101.4306,779.4516 L1101.6274,776.3151 L1101.7725,776.3166 L1101.7704,773.2616 L1101.684,770.2057 L1101.4246,767.148 L1102.0477,764.0995 L1101.7872,761.0418 L1101.6487,761.0377 L1101.6397,758.0832 L1101.9315,755.1376 L1102.3105,752.1945 L1102.4091,749.2432 L1102.2228,746.2835 L1102.2384,746.2843 L1102.3086,743.4515 L1102.6039,740.6309 L1102.7641,737.803 L1102.6089,734.958 L1102.9872,732.1419 L1103.1705,732.1575 L1103.4639,729.4783 L1103.3501,726.7644 L1103.4848,724.0716 L1104.2029,721.4287 L1104.1334,718.7185 L1104.1426,718.7197 L1104.4495,716.1978 L1104.8977,713.6937 L1104.7973,711.1207 L1105.632,708.6651 L1105.7145,706.1151 L1105.7077,706.1139 L1106.421,703.8305 L1106.4476,701.4256 L1107.1349,699.1376 L1107.1754,696.7351 L1107.7835,694.4332 L1107.8893,694.4591 L1108.4692,692.3415 L1108.6862,690.135 L1109.5062,688.0763 L1109.6248,685.8457 L1110.3935,683.7744 L1110.1953,683.7078 L1111.322,681.9643 L1111.9635,680.0577 L1112.5554,678.1345 L1112.8049,676.0962 L1113.5976,674.2404 L1113.7472,674.3226 L1115.0942,671.0819 L1116.9812,668.1379 L1118.6385,665.0678 L1120.2173,661.9544 L1122,658.9531 L1122.1881,659.152 L1124.7658,656.6094 L1127.1629,653.8757 L1130.052,651.6625 L1132.5497,649.0352 L1135.1521,646.5186 L1135.0226,646.2939 L1138.2688,644.6048 L1141.3726,642.6683 L1144.6267,640.9931 L1147.6865,638.9804 L1150.9945,637.3986 " fill="none" style="stroke: #A80036; stroke-width: 1.0;"/><!--link vp to l_st--><path d="M297.4906,895.2882 L297.5798,895.3158 L297.898,893.3464 L298.7394,891.5386 L299.4104,889.6782 L299.5211,887.6446 L300.4074,885.8507 L300.3746,885.8399 L300.8912,883.782 L301.5731,881.7788 L302.3699,879.8135 L302.7707,877.7173 L303.7262,875.8045 L303.9582,875.8865 L304.209,873.5999 L305.1372,871.5529 L306.1479,869.5352 L306.6779,867.3473 L307.4607,865.2489 L307.4891,865.2597 L308.2802,863.0508 L309.2003,860.891 L310.0583,858.7075 L311.035,856.5691 L311.6244,854.2836 L311.9005,854.3964 L312.8251,852.1426 L313.5717,849.8161 L314.5789,847.5961 L315.5984,845.3811 L316.2308,843.008 L315.9375,842.8787 L317.5192,840.8323 L318.1353,838.3603 L319.4855,836.2118 L320.0796,833.7301 L321.2935,831.5216 L321.266,831.5085 L322.6975,829.3439 L323.4869,826.8732 L324.6552,824.5831 L325.8553,822.3082 L326.826,819.9239 L326.9903,820.009 L328.0277,817.6012 L329.3457,815.3388 L330.2097,812.8411 L331.751,810.6944 L332.842,808.3144 L333.0541,808.4343 L334.3166,806.1072 L335.6844,803.8397 L336.5629,801.2956 L337.8,798.9543 L339.355,796.7926 L339.1202,796.6471 L340.7374,794.5119 L342.0901,792.2127 L343.8265,790.1513 L344.9078,787.684 L346.3785,785.4579 L346.2526,785.3719 L347.9717,783.3056 L349.1528,780.8716 L350.7165,778.699 L352.6547,776.7823 L353.926,774.41 L354.0803,774.527 L355.8032,772.4749 L357.0462,770.0589 L358.8902,768.0987 L360.6033,766.0392 L362.0113,763.7483 L361.8512,763.6124 L363.7061,761.6855 L365.5086,759.7141 L367.414,757.8301 L368.919,755.6062 L370.6478,753.5722 L370.7961,753.7146 L372.3104,751.4837 L374.111,749.5275 L376.33,747.9727 L377.7788,745.6789 L379.849,743.9814 L380.0013,744.1486 L381.8667,742.268 L383.6806,740.3308 L385.6109,738.5214 L387.8099,737.0071 L389.6285,735.0752 L389.5465,734.9704 L391.865,733.6579 L393.6257,731.6329 L396.0206,730.418 L398.0584,728.747 L400,726.9531 L400.0576,727.0455 L402.1918,725.6107 L404.5323,724.5066 L406.6864,723.1037 L408.7626,721.5759 L410.9035,720.1518 L410.954,720.2598 L413.2257,719.0017 L415.7319,718.2449 L417.9728,716.9211 L420.3229,715.8305 L422.6371,714.6634 L422.5478,714.4082 L425.0375,713.6323 L427.6348,713.1638 L430.0798,712.2603 L432.4703,711.201 L434.9365,710.3579 L434.9007,710.2192 L437.4323,709.6132 L439.9006,708.7617 L442.5431,708.585 L445.0994,708.0743 L447.5374,707.1056 " fill="none" style="stroke: #A80036; stroke-width: 1.0;"/><!--link sys to we_br--><path d="M312.6874,82.2952 L312.6995,82.3879 L316.4478,81.6181 L320.267,81.3914 L324.0631,80.9878 L327.7832,80.0027 L331.6085,79.8226 L331.6043,79.7883 L336.1562,79.0794 L340.729,78.5433 L345.3164,78.1273 L349.8536,77.2973 L354.4611,77.0472 L354.4882,77.2918 L359.6367,76.1922 L364.8642,75.8066 L370.1013,75.5081 L375.2823,74.7028 L380.4929,74.164 L380.4959,74.1942 L386.1832,73.5907 L391.884,73.1245 L397.5783,72.5921 L403.285,72.1862 L408.9512,71.3679 L408.976,71.6651 L415.0028,71.1659 L421.0136,70.4751 L427.0478,70.0648 L433.0831,69.6677 L439.0836,68.8538 L439.061,68.5341 L442.1966,68.9366 L445.2578,68.2862 L448.3756,68.4363 L451.4352,67.7621 L454.5424,67.7635 L454.5405,67.7331 L457.6814,67.9031 L460.7791,67.3632 L463.9023,67.2421 L467.0276,67.1563 L470.1375,66.8167 L470.1467,67.0015 L473.2649,66.6592 L476.3988,66.6327 L479.5073,66.0954 L482.6537,66.3199 L485.7749,66.038 L485.7841,66.2814 L488.8995,66.1181 L492.0194,66.0756 L495.1182,65.4715 L498.2325,65.2791 L501.3605,65.4515 L501.3539,65.1754 L504.4478,65.3514 L507.5343,65.2163 L510.6316,65.5324 L513.7104,65.0781 L516.8002,65.0818 L516.7989,64.9293 L519.841,65.1575 L522.8776,64.734 L525.9181,64.7739 L528.9625,65.2673 L532,64.9531 L532,65.534 L542.015,65.9324 L552.03,64.5241 L562.045,65.3787 L572.06,65.7404 L582.075,64.3233 L592.09,64.8253 L602.105,65.1211 L612.12,65.8221 L622.135,64.9475 L632.15,65.5699 L642.165,64.2147 L652.18,64.0501 L662.195,65.6246 L672.21,63.9972 L682.225,65.6317 L692.24,65.2286 L702.255,64.5959 L712.27,64.4814 L722.285,65.5648 L732.3,64.554 L742.315,65.7423 L752.33,64.2161 L762.345,65.7764 L772.36,65.5989 L782.375,65.2797 L792.39,65.0161 L802.405,65.9219 L812.42,65.7712 L822.435,65.1788 L832.45,65.3107 L842.465,64.7794 L852.48,65.9084 L862.495,65.1596 L872.51,65.1832 L882.525,64.142 L892.54,64.4128 L902.555,65.6608 L912.57,65.5261 L922.585,64.8959 L932.6,64.5236 L942.615,64.6612 L952.63,64.0382 L962.645,65.5061 L972.66,65.9392 L982.675,65.655 L992.69,65.8797 L1002.705,64.7708 L1012.72,65.0694 L1022.735,64.4363 L1032.75,65.3318 L1042.765,65.2821 L1052.78,65.6896 L1062.795,64.6469 L1072.81,64.7739 L1082.825,65.5444 L1092.84,65.7096 L1102.855,64.2697 L1112.87,64.6946 L1122.885,65.1521 L1132.9,64.1387 L1142.915,65.4243 L1152.93,65.2971 L1162.945,64.8188 L1172.96,65.1428 L1182.975,65.9247 L1192.99,64.536 L1203.005,65.3731 L1213.02,65.334 L1223.035,65.1075 L1233.05,65.141 L1243.065,65.1044 L1253.08,64.1209 L1263.095,64.4187 L1273.11,64.3377 L1283.125,65.0382 L1293.14,65.0706 L1303.155,65.1688 L1313.17,64.5652 L1323.185,64.8631 L1333.2,64.7928 L1343.215,65.7223 L1353.23,65.5219 L1363.245,64.3057 L1373.26,64.8559 L1383.275,64.1835 L1393.29,65.3376 L1403.305,65.7644 L1413.32,65.6792 L1423.335,64.3724 L1433.35,65.5717 L1443.365,63.9627 L1453.38,65.22 L1463.395,64.554 L1473.41,65.0821 L1483.425,65.2736 L1493.44,65.5826 L1503.455,63.9932 L1513.47,65.5871 L1523.485,65.1907 L1533.5,64.9531 L1533.5362,65.1068 L1537.3737,66.1705 L1541.0957,66.7433 L1544.9105,67.7106 L1548.7119,68.6211 L1552.4878,69.4226 L1552.533,69.4977 L1554.2789,70.5016 L1556.2334,71.8518 L1557.7218,72.4285 L1559.7827,73.9551 L1561.4443,74.8192 L1561.2644,74.6082 L1563.0096,76.1036 L1564.898,77.7669 L1566.6157,79.23 L1568.1866,80.5209 L1570.0498,82.1546 L1570.1862,82.2779 L1571.7376,84.0165 L1573.5933,86.03 L1575.2256,87.8418 L1576.5096,89.339 L1578.3094,91.302 L1578.1667,91.1976 L1579.8469,93.4346 L1581.6047,95.7283 L1583.2056,97.9072 L1584.7529,100.047 L1586.2287,102.1345 L1586.0991,102.0551 L1587.9867,104.7603 L1589.5026,107.2378 L1590.7613,109.558 L1592.2054,111.9916 L1593.8128,114.5253 L1593.6549,114.4424 L1595.1793,117.2454 L1596.7687,120.0825 L1598.1386,122.8045 L1599.4519,125.4967 L1601.0672,128.3475 L1601.2642,128.4377 L1602.2678,131.2879 L1604.0422,134.4912 L1605.3978,137.5027 L1606.7615,140.5178 L1607.9972,143.4743 L1608.2824,143.5899 L1609.2181,146.6942 L1610.5177,149.9459 L1612.1774,153.3437 L1613.0401,156.4183 L1614.6081,159.7789 L1614.5103,159.7434 L1615.9158,163.2675 L1617.1556,166.7315 L1618.2366,170.1379 L1619.6278,173.6568 L1620.9052,177.1344 L1621.2197,177.2375 L1622.3768,180.8801 L1623.0488,184.3638 L1624.5316,188.1131 L1625.4791,191.687 L1626.8939,195.4141 L1626.8827,195.4107 L1628.1558,199.2666 L1629.347,203.0981 L1630.0222,206.7758 L1631.613,210.7264 L1632.5795,214.4909 L1632.5831,214.4919 L1633.419,218.3754 L1634.5327,222.3348 L1635.9523,226.3775 L1636.997,230.318 L1637.9674,234.2383 L1637.9603,234.2365 L1638.6968,238.2237 L1640.2893,242.4259 L1640.8903,246.379 L1641.8162,250.4138 L1643.0629,254.5292 L1643.0338,254.5224 L1644.2799,258.73 L1645.2527,262.8741 L1645.9632,266.9573 L1646.8442,271.0801 L1647.8713,275.2368 L1647.9451,275.2527 L1648.8576,279.4538 L1649.4614,283.5883 L1650.7672,287.8741 L1651.7354,292.0872 L1652.398,296.2344 L1652.304,296.2155 L1653.061,300.4289 L1654.3921,304.7577 L1654.9573,308.9326 L1655.7981,313.1629 L1656.6483,317.395 L1656.7789,317.4195 L1657.162,321.5815 L1658.4714,325.9172 L1659.029,330.1119 L1660.1238,334.4074 L1660.6275,338.5919 L1660.533,338.5753 L1661.5492,342.8447 L1661.9185,347.0002 L1662.9628,351.2745 L1663.7643,355.5061 L1664.3409,359.6982 L1664.1974,359.6745 L1665.1907,363.9023 L1665.4716,368.0123 L1666.2065,372.1974 L1667.4028,376.4588 L1667.794,380.587 L1668.0946,380.6338 L1668.6833,384.7348 L1668.915,388.7802 L1669.8816,392.9401 L1670.1451,396.9904 L1670.992,401.1316 L1671.0176,401.1354 L1671.5812,405.1462 L1672.056,409.1441 L1673.0319,413.2155 L1673.5456,417.219 L1673.9404,421.2051 L1673.7992,421.1855 L1674.713,425.1324 L1675.0624,429.0009 L1675.3058,432.8547 L1676.0008,436.7712 L1676.6443,440.6806 L1676.4127,440.6509 L1677.5222,448.0027 L1678.2454,455.305 L1679.1973,462.6366 L1680.4321,470.0045 L1681.3403,477.3305 L1681.2872,477.3243 L1682.071,483.8747 L1682.7901,490.4176 L1683.6837,496.9806 L1684.1213,503.491 L1685.1229,510.0665 L1685.1936,510.0739 L1685.3767,515.5936 L1686.4184,521.2032 L1687.1319,526.7785 L1687.683,532.3367 L1688.0346,537.874 L1688.1945,537.8893 L1688.5364,542.255 L1688.9148,546.6242 L1689.0016,550.9656 L1689.899,555.3843 L1690.1182,559.7383 " fill="none" style="stroke: #A80036; stroke-width: 1.0;"/><!--link bg_ez to bg_we--><path d="M564.7239,596.6791 L564.7747,596.7575 L566.691,597.8639 L568.9051,599.4299 L571.0223,600.8462 L572.8205,601.7703 L575.0602,603.3758 L575.041,603.3471 L577.1766,604.7094 L579.4092,606.2163 L581.7093,607.8238 L583.7769,609.0848 L586.1702,610.831 L586.311,611.0328 L588.3398,612.2279 L590.7799,614.012 L593.2701,615.8681 L595.4684,617.306 L597.8202,618.9638 L597.8381,618.9883 L600.2032,620.6982 L602.6497,622.5195 L605.0569,624.2871 L607.5391,626.1574 L609.7769,627.693 L609.9587,627.9295 L612.3669,629.7813 L614.6578,631.4806 L617.1204,633.4031 L619.591,635.3362 L621.8068,636.9376 L621.6042,636.6892 L624.3713,639.1071 L626.4713,640.7071 L629.0784,642.9288 L631.1633,644.5103 L633.6762,646.6166 L633.6562,646.5936 L636.1883,648.8711 L638.2522,650.6131 L640.5924,652.6711 L642.9558,654.7556 L645.1518,656.6487 L645.2792,656.7829 L647.3203,658.7084 L649.579,660.863 L651.4855,662.6469 L653.9174,664.9839 L656,666.9531 L656.1919,667.1033 L658.1872,669.6716 L660.2777,672.3144 L661.9256,674.6109 L663.8979,677.1613 L666.1578,679.9366 L665.9095,679.8157 L667.4895,682.7083 L668.7897,685.4646 L670.4958,688.4186 L671.509,691.0352 L672.934,693.8523 L672.7895,693.8036 L673.9766,696.6901 L674.5462,699.3684 L675.5549,702.1948 L676.9933,705.1661 L677.6666,707.8794 L677.8519,707.9354 L678.7844,710.6373 L679.1404,713.165 L680.2184,715.9109 L681.1392,718.6093 L681.6934,721.1968 L681.4981,721.1197 L682.5855,723.5386 L683.609,725.9322 L684.7581,728.3755 L685.4187,730.6258 L686.3522,732.9839 L686.5204,733.102 L687.4766,734.7295 L688.7574,736.5851 L690.5127,738.7739 L691.3945,740.3492 L692.981,742.4195 L693.1016,742.6109 L695.0173,743.7499 L696.8922,744.8241 L698.8592,746.0445 L701.0391,747.6027 L702.9177,748.6829 L702.8972,748.5515 L705.8746,749.3969 L708.7128,749.3483 L711.7093,750.3162 L714.6166,750.7118 L717.5,750.9531 L717.5,751.2797 L727.5882,751.0161 L737.6765,751.9219 L747.7647,751.7712 L757.8529,751.1788 L767.9412,751.3107 L778.0294,750.7794 L788.1176,751.9084 L798.2059,751.1596 L808.2941,751.1832 L818.3824,750.142 L828.4706,750.4128 L838.5588,751.6608 L848.6471,751.5261 L858.7353,750.8959 L868.8235,750.5236 L878.9118,750.6612 L889,750.0382 L899.0882,751.5061 L909.1765,751.9392 L919.2647,751.655 L929.3529,751.8797 L939.4412,750.7708 L949.5294,751.0694 L959.6176,750.4363 L969.7059,751.3318 L979.7941,751.2821 L989.8824,751.6896 L999.9706,750.6469 L1010.0588,750.7739 L1020.1471,751.5444 L1030.2353,751.7096 L1040.3235,750.2697 L1050.4118,750.6946 L1060.5,750.9531 L1060.5009,751.0195 L1062.5221,750.7083 L1064.5533,751.1634 L1066.5784,751.1477 L1068.6019,751.0149 L1070.6281,751.0863 L1070.6305,751.1494 L1072.6986,751.4859 L1074.7401,751.0994 L1076.809,751.4543 L1078.867,751.5173 L1080.9209,751.4665 L1080.9239,751.5179 L1083.0001,751.6488 L1085.0749,751.7564 L1087.1316,751.5488 L1089.2129,751.7677 L1091.2987,752.0653 L1091.2832,751.8607 L1093.3775,752.2513 L1095.455,752.4197 L1097.5342,752.61 L1099.5956,752.5671 L1101.682,752.8538 L1101.6793,752.8239 L1103.739,752.9905 L1105.8292,753.4889 L1107.8849,753.6123 L1109.9096,753.3985 L1111.9912,753.8033 L1111.9877,753.7711 L1113.9951,753.7646 L1116.0669,754.3636 L1118.1131,754.7214 L1120.1412,754.9096 L1122.1466,754.8853 L1122.1226,754.6932 L1126.0785,755.5792 L1129.9181,755.5362 L1133.8765,756.4414 L1137.7552,756.7104 L1141.678,757.3316 " fill="none" style="stroke: #A80036; stroke-width: 1.0; stroke-dasharray: 7.0,7.0;"/><polygon fill="#A80036" points="560.267,593.8592,560.3253,593.8981,561.2455,595.421,562.5073,597.1719,563.6579,598.8486,564.4426,600.2811,565.7337,602.0516,565.7085,602.0459,565.3467,600.9166,565.1124,599.816,564.9667,598.7352,564.5157,597.5859,564.4923,596.5326,564.5328,596.7127,565.5499,596.0794,566.6854,595.9717,567.8352,595.9282,568.9011,595.5116,570.0112,595.2912,570.0145,595.3137,568.0608,594.9942,566.1222,594.7773,564.1763,594.5109,562.2442,594.3388,560.267,593.8592" style="stroke: #A80036; stroke-width: 1.0;"/><text fill="#000000" font-family="sans-serif" font-size="13" lengthAdjust="spacingAndGlyphs" textLength="61" x="858.5" y="747.02">«include»</text><!--link bg_ez to bg_az--><path d="M614.2881,576.9531 L614.2881,577.2334 L624.6093,576.4007 L634.9305,577.2108 L645.2517,577.486 L655.5729,576.0019 L665.8941,576.8495 L676.2152,576.3845 L686.5364,576.4418 L696.8576,576.8622 L707.1788,576.0313 L717.5,576.9531 L717.5,577.6913 L727.5882,576.1128 L737.6765,576.6894 L747.7647,577.5291 L757.8529,576.8388 L767.9412,577.0441 L778.0294,576.9105 L788.1176,577.1912 L798.2059,577.272 L808.2941,577.734 L818.3824,577.8479 L828.4706,577.8588 L838.5588,577.2926 L848.6471,577.5712 L858.7353,577.8894 L868.8235,575.9915 L878.9118,577.8578 L889,576.5578 L899.0882,577.6649 L909.1765,576.2931 L919.2647,576.8618 L929.3529,577.9419 L939.4412,576.8881 L949.5294,577.0935 L959.6176,577.4046 L969.7059,577.5081 L979.7941,576.9479 L989.8824,577.3361 L999.9706,576.1899 L1010.0588,577.3323 L1020.1471,577.6841 L1030.2353,577.5458 L1040.3235,577.7705 L1050.4118,576.309 L1060.5,576.9531 L1060.4857,576.6636 L1063.5285,576.8278 L1066.5829,577.228 L1069.622,577.3174 L1072.6834,577.8576 L1075.7105,577.7056 L1075.7,577.6287 L1078.7512,577.9744 L1081.847,578.6458 L1084.8543,578.6716 L1087.9246,579.1564 L1091.0173,579.8049 L1091.077,580.0871 L1094.0947,580.636 L1097.1595,581.4076 L1100.0998,581.59 L1103.196,582.5104 L1106.204,583.0133 L1106.2735,583.2664 L1109.1184,583.6269 L1112.1327,584.6044 L1115.1289,585.5155 L1118.1608,586.5568 L1121.0541,587.0936 L1121.0535,587.0918 L1123.9779,588.2317 L1126.6959,588.7456 L1129.5381,589.6364 L1132.5619,591.0778 L1135.3512,591.8081 L1135.2386,591.51 L1138.1367,593.042 L1140.7947,593.9386 L1143.4257,594.7635 L1146.1178,595.7501 L1148.8789,596.9195 L1148.9579,597.1074 L1151.3358,597.8509 L1153.9976,599.2702 L1156.3089,599.8554 L1159.0188,601.389 L1161.4208,602.1902 L1161.5104,602.3859 L1163.7341,603.3277 L1165.9654,604.2863 L1168.3591,605.5993 L1170.6061,606.5922 L1172.7605,607.3827 " fill="none" style="stroke: #A80036; stroke-width: 1.0; stroke-dasharray: 7.0,7.0;"/><polygon fill="#A80036" points="609.1658,576.9531,609.1943,577.0171,610.9097,577.6269,612.792,578.612,614.6199,579.4749,616.2692,579.9358,618.1658,580.9531,618.1475,580.9348,617.2653,580.0526,616.4754,579.2627,615.7497,578.5371,614.8028,577.5902,614.1658,576.9531,614.2963,577.0836,614.8172,576.0046,615.7192,575.3065,616.6676,574.6549,617.3456,573.7329,618.1658,572.9531,618.175,572.9739,616.3615,573.7434,614.59,574.6075,612.7982,575.426,611.0451,576.3315,609.1658,576.9531" style="stroke: #A80036; stroke-width: 1.0;"/><text fill="#000000" font-family="sans-serif" font-size="13" lengthAdjust="spacingAndGlyphs" textLength="61" x="858.5" y="573.02">«include»</text><!--link bg_az to we_br--><path d="M1267.3866,613.1867 L1267.3981,613.2794 L1271.2273,612.5245 L1275.124,612.3131 L1278.9987,611.9246 L1282.8012,610.9543 L1286.7037,610.7894 L1286.7001,610.7551 L1288.6892,610.3894 L1290.6966,610.1969 L1292.7167,610.1247 L1294.6931,609.6377 L1296.7307,609.7318 L1296.7531,609.9768 L1298.7395,609.2674 L1300.7911,609.2735 L1302.8507,609.3668 L1304.8641,608.9522 L1306.9017,608.8048 L1306.904,608.835 L1308.9484,608.6369 L1311.0031,608.5764 L1313.0529,608.4495 L1315.1122,608.4493 L1317.1404,608.0359 L1317.1574,608.3337 L1319.2036,608.2207 L1321.2389,607.9156 L1323.2902,607.8917 L1325.3423,607.8809 L1327.3706,607.4527 L1327.3589,607.1324 L1329.4106,607.68 L1331.4239,607.173 L1333.4664,607.4677 L1335.4788,606.9368 L1337.5158,607.0826 L1337.5154,607.0522 L1339.5169,607.3863 L1341.5092,607.0092 L1343.5069,607.0517 L1345.5051,607.1295 L1347.5,606.9531 L1347.5,607.5081 L1357.2895,606.9479 L1367.0789,607.3361 L1376.8684,606.1899 L1386.6579,607.3323 L1396.4474,607.6841 L1406.2368,607.5458 L1416.0263,607.7705 L1425.8158,606.309 L1435.6053,606.0835 L1445.3947,606.1246 L1455.1842,606.8746 L1464.9737,606.6911 L1474.7632,607.8617 L1484.5526,606.7202 L1494.3421,606.4957 L1504.1316,607.2575 L1513.9211,606.064 L1523.7105,606.261 L1533.5,606.9531 L1533.5047,607.2415 L1535.6183,607.112 L1537.7357,607.21 L1539.8431,606.7058 L1541.9629,606.9559 L1544.0757,606.7792 L1544.0879,607.0414 L1546.2123,606.4699 L1548.3663,606.5374 L1550.5171,606.5363 L1552.6743,606.6701 L1554.8071,606.2811 L1554.807,606.2792 L1556.9849,606.3287 L1559.115,605.7207 L1561.2739,605.5085 L1563.4749,605.8745 L1565.6216,605.4938 L1565.5911,605.1767 L1567.8082,605.5108 L1569.9604,605.1688 L1572.1052,604.7506 L1574.2666,604.5044 L1576.4466,604.4527 L1576.4703,604.6552 L1578.5838,604.0686 L1580.7824,604.21 L1582.8759,603.4528 L1585.089,603.7173 L1587.2097,603.1928 L1587.2386,603.4061 L1589.35,603.012 L1591.4639,602.6363 L1593.6302,602.6468 L1595.7492,602.3084 L1597.8382,601.7495 L1597.8496,601.8238 L1599.9405,601.549 L1601.998,601.0556 L1604.1392,601.1092 L1606.1858,600.5442 L1608.2597,600.1578 L1608.2724,600.2334 L1610.2432,599.5502 L1612.2865,599.2983 L1614.3839,599.3676 L1616.4048,598.9823 L1618.4015,598.453 " fill="none" style="stroke: #A80036; stroke-width: 1.0; stroke-dasharray: 7.0,7.0;"/><polygon fill="#A80036" points="1623.3245,597.5729,1623.3412,597.641,1621.3788,596.9681,1619.5145,596.6939,1617.6183,596.29,1615.6169,595.4589,1613.7611,595.2191,1613.7463,595.1978,1614.6081,595.7492,1615.5446,596.4077,1616.533,597.1407,1617.3425,597.6169,1618.4025,598.4528,1618.5539,598.5583,1617.5834,599.261,1617.055,600.2717,1616.5804,601.32,1615.7921,602.1496,1615.1688,603.0942,1615.1816,603.1131,1616.794,601.9812,1618.4645,600.935,1620.1069,599.8475,1621.8028,598.8389,1623.3245,597.5729" style="stroke: #A80036; stroke-width: 1.0;"/><text fill="#000000" font-family="sans-serif" font-size="13" lengthAdjust="spacingAndGlyphs" textLength="61" x="1410" y="603.02">«include»</text><!--link bg_we to we_br--><path d="M1241.6965,752.1889 L1241.7316,752.2755 L1247.8933,749.4786 L1254.2607,747.1891 L1260.5612,744.7344 L1266.6413,741.7363 L1273.0264,739.4904 L1273.0138,739.4583 L1276.2128,738.0332 L1279.4755,736.7702 L1282.7826,735.6199 L1285.937,734.0814 L1289.3052,733.0865 L1289.3929,733.3164 L1292.3474,731.6263 L1295.558,730.6074 L1298.7997,729.6704 L1301.8598,728.2569 L1305.0154,727.094 L1305.0258,727.1225 L1307.8921,726.0315 L1310.8057,725.0704 L1313.6965,724.0466 L1316.6308,723.1422 L1319.4234,721.8486 L1319.5185,722.1312 L1321.9941,721.3022 L1324.4084,720.2908 L1326.9125,719.5464 L1329.4208,718.8144 L1331.7958,717.6861 L1331.7217,717.3742 L1335.0064,717.2329 L1338.047,716.0647 L1341.2732,715.6771 L1344.3083,714.4857 L1347.5,713.9531 L1347.5,713.8618 L1357.2895,714.9419 L1367.0789,713.8881 L1376.8684,714.0935 L1386.6579,714.4046 L1396.4474,714.5081 L1406.2368,713.9479 L1416.0263,714.3361 L1425.8158,713.1899 L1435.6053,714.3323 L1445.3947,714.6841 L1455.1842,714.5458 L1464.9737,714.7705 L1474.7632,713.309 L1484.5526,713.0835 L1494.3421,713.1246 L1504.1316,713.8746 L1513.9211,713.6911 L1523.7105,714.8617 L1533.5,713.9531 L1533.4951,713.8756 L1535.9056,713.6491 L1538.3367,713.7506 L1540.7269,713.2016 L1543.1462,713.1153 L1545.5758,713.1936 L1545.6285,713.4772 L1547.963,712.9469 L1550.339,712.6403 L1552.605,711.7416 L1555.0089,711.5846 L1557.3348,711.008 L1557.4111,711.259 L1559.5577,710.1126 L1561.8904,709.5782 L1564.2031,708.978 L1566.5551,708.507 L1568.7548,707.5353 L1568.7541,707.5336 L1571.0459,706.8009 L1573.0835,705.46 L1575.2742,704.4853 L1577.6883,704.0455 L1579.8138,702.9149 L1579.6652,702.633 L1582.0545,701.9891 L1584.127,700.7445 L1586.1637,699.4321 L1588.2811,698.2725 L1590.4896,697.2858 L1590.5986,697.4581 L1592.4726,695.8737 L1594.7384,694.9087 L1596.5205,693.1791 L1598.8527,692.3189 L1600.7601,690.7873 L1600.8875,690.9607 L1602.7931,689.4293 L1604.7097,687.9127 L1606.857,686.7103 L1608.7959,685.224 L1610.6031,683.5585 L1610.6512,683.6163 L1612.558,682.0861 L1614.3234,680.386 L1616.4428,679.1113 L1618.1618,677.3555 L1619.9965,675.7386 L1620.0486,675.7949 L1621.597,673.886 L1623.4427,672.2979 L1625.5099,670.9486 L1627.2637,669.2613 L1628.9181,667.4669 L1628.9045,667.4535 L1630.5015,665.6497 L1632.2199,663.9649 L1633.7572,662.1026 L1635.792,660.7285 L1637.346,658.8824 L1637.5899,659.1028 L1639.102,657.2877 L1640.7399,655.5863 L1642.048,653.5869 L1643.7042,651.902 L1645.2578,650.1245 L1645.1258,650.0138 L1646.8293,648.4471 L1648.2914,646.678 L1649.8702,645.0068 L1651.0786,643.025 L1652.6316,641.3322 L1652.5846,641.2953 L1654.1494,639.7163 L1655.5554,638.0128 L1656.5404,635.9791 L1658.0146,634.329 L1659.4451,632.6447 L1659.4985,632.6841 L1660.4729,630.7948 L1662.0639,629.3606 L1663.276,627.6467 L1664.3939,625.8634 L1665.6762,624.2013 L1665.7284,624.2369 L1668.0692,621.264 L1669.8119,617.8838 L1672.1679,614.9213 L1674.2824,611.7943 L1676.3028,608.6032 " fill="none" style="stroke: #A80036; stroke-width: 1.0; stroke-dasharray: 7.0,7.0;"/><polygon fill="#A80036" points="1679.208,604.0469,1679.2467,604.1053,1677.4895,605.0194,1675.959,606.2759,1674.3547,607.4208,1672.5076,608.1991,1670.9966,609.485,1670.991,609.4597,1672.0705,609.1018,1673.1783,608.8713,1674.3056,608.7295,1675.3654,608.2822,1676.5198,608.2628,1676.7,608.3027,1676.5591,609.3221,1676.9443,610.4579,1677.3937,611.6079,1677.4697,612.6752,1677.742,613.7861,1677.7645,613.7895,1678.0247,611.8367,1678.3873,609.8993,1678.7004,607.9544,1679.1079,606.0238,1679.208,604.0469" style="stroke: #A80036; stroke-width: 1.0;"/><text fill="#000000" font-family="sans-serif" font-size="13" lengthAdjust="spacingAndGlyphs" textLength="61" x="1410" y="710.02">«include»</text><!--link we_br to bg_ez--><path d="M1648.5707,562.178 L1648.6041,562.2653 L1646.0469,561.0648 L1643.6855,560.3757 L1641.2603,559.5201 L1638.6254,558.1168 L1636.2809,557.4716 L1636.2694,557.439 L1633.5662,556.3625 L1630.9206,555.4504 L1628.315,554.6524 L1625.5714,553.4609 L1623.0211,552.8206 L1623.095,553.0553 L1620.1283,551.6696 L1617.3772,550.9691 L1614.6524,550.3522 L1611.7746,549.2489 L1608.9773,548.4014 L1608.9853,548.4306 L1606.0451,547.5855 L1603.1414,546.8734 L1600.2201,546.0972 L1597.3323,545.4435 L1594.3351,544.3902 L1594.4013,544.681 L1591.3912,543.9992 L1588.3384,543.1299 L1585.3481,542.5351 L1582.3607,541.9532 L1579.2805,540.9635 L1579.2254,540.6477 L1576.2761,540.7274 L1573.1454,539.7673 L1570.1525,539.5976 L1567.0177,538.614 L1563.9992,538.2975 L1563.9958,538.2673 L1560.9718,538.2793 L1557.868,537.5844 L1554.8112,537.3067 L1551.7584,537.0639 L1548.6771,536.5686 L1548.6846,536.7534 L1545.6416,536.4438 L1542.6115,536.45 L1539.5605,535.9451 L1536.5405,536.2025 L1533.5,535.9531 L1533.5,536.6841 L1523.6364,536.5458 L1513.7727,536.7705 L1503.9091,535.309 L1494.0455,535.0835 L1484.1818,535.1246 L1474.3182,535.8746 L1464.4545,535.6911 L1454.5909,536.8617 L1444.7273,535.7202 L1434.8636,535.4957 L1425,536.2575 L1415.1364,535.064 L1405.2727,535.261 L1395.4091,536.8184 L1385.5455,536.534 L1375.6818,536.9324 L1365.8182,535.5241 L1355.9545,536.3787 L1346.0909,536.7404 L1336.2273,535.3233 L1326.3636,535.8253 L1316.5,535.9531 L1316.5001,536.1211 L1306.259,536.8281 L1296.0171,535.9595 L1285.776,536.5878 L1275.5337,535.2386 L1265.2922,535.0799 L1255.0516,536.6604 L1244.8092,535.0389 L1234.5683,536.0008 L1234.5708,536.6794 L1224.6634,536.3133 L1214.7551,535.7175 L1204.8487,535.64 L1194.9468,536.7603 L1185.0371,535.7865 L1175.1356,537.0117 L1165.2267,536.2595 L1165.2189,535.5226 L1155.0787,537.1899 L1144.9201,537.1196 L1134.76,536.9077 L1124.6006,536.7512 L1114.4534,537.7642 L1104.2865,536.9027 L1104.2914,537.1753 L1098.5621,537.0819 L1092.8372,537.2298 L1087.1083,537.1567 L1081.3894,537.6369 L1075.6579,537.4226 L1075.6596,537.4914 L1070.04,537.6354 L1064.4118,537.4247 L1058.7941,537.6511 L1053.1844,538.2032 L1047.5589,538.1036 L1047.5648,538.2945 L1041.9397,538.2573 L1036.3173,538.306 L1030.7001,538.5246 L1025.0751,538.4898 L1019.4659,538.9674 L1019.4727,539.1516 L1013.756,539.5095 L1008.0303,539.6285 L1002.311,539.917 L996.5751,539.7613 L990.8552,540.0357 L990.8569,540.0744 L984.9173,540.1225 L979,540.6796 L973.0689,540.9219 L967.1444,541.3165 L961.2033,541.3301 L961.1983,541.2282 L954.957,541.5789 L948.7264,542.1439 L942.4858,542.5073 L936.2187,542.3364 L929.9866,542.8724 L929.9721,542.6143 L920.109,543.6303 L910.1629,543.1777 L900.3466,545.0205 L890.4506,545.4528 L880.5347,545.5344 L870.6641,546.4172 L860.7645,546.7871 L860.8258,547.7567 L850.5176,547.0165 L840.3499,548.4977 L830.1268,549.1044 L819.892,549.5241 L809.6735,550.2034 L799.4507,550.8126 L789.1681,550.4768 L779,551.9531 L778.9875,551.7754 L774.5428,552.0614 L770.1164,552.6072 L765.6744,552.9309 L761.234,553.2764 L756.7861,553.5176 L756.7759,553.3887 L752.2569,553.8466 L747.7281,554.1822 L743.2257,554.8499 L738.6935,555.1422 L734.1516,555.3122 L734.133,555.0972 L729.5951,555.6748 L725.022,555.8465 L720.5016,556.6247 L715.9601,557.1614 L711.383,557.2869 L711.4055,557.5279 L706.8419,557.5153 L702.3557,558.3344 L697.7828,558.2214 L693.2984,559.0598 L688.767,559.3923 L688.7536,559.2599 L680.0456,560.3158 L671.3263,561.26 L662.6109,562.2432 L653.832,562.5968 L645.1385,563.7959 L645.1614,564.006 L637.2311,564.7405 L629.3237,565.6846 L621.4267,566.7239 L613.4749,567.2618 L605.5587,568.1252 " fill="none" style="stroke: #A80036; stroke-width: 1.0; stroke-dasharray: 7.0,7.0;"/><polygon fill="#A80036" points="600.5653,568.692,600.5864,568.7588,602.4026,569.1522,604.3422,569.9372,606.2416,570.5947,608.0089,570.8326,609.9591,571.6513,609.9429,571.631,608.9854,570.8354,608.1092,570.142,607.2895,569.5196,606.275,568.6524,605.5334,568.128,605.6778,568.243,606.0737,567.112,606.8911,566.3167,607.76,565.5623,608.3296,564.5697,609.0567,563.7024,609.0682,563.722,607.353,564.6911,605.6903,565.7495,604.0022,566.7649,602.3625,567.8624,600.5653,568.692" style="stroke: #A80036; stroke-width: 1.0;"/><text fill="#000000" font-family="sans-serif" font-size="13" lengthAdjust="spacingAndGlyphs" textLength="61" x="1173.5" y="533.02">«include»</text><!--link l_st to g_st--><path d="M585.0744,686.2484 L585.0996,686.3384 L587.9003,685.2649 L590.8488,684.7187 L593.7492,684.0009 L596.4913,682.7183 L599.4525,682.2174 L599.4439,682.184 L602.4915,681.2402 L605.5824,680.4651 L608.7035,679.8072 L611.7207,678.7454 L614.8834,678.2493 L614.9388,678.4891 L618.074,677.2246 L621.3709,676.6601 L624.6875,676.1811 L627.8893,675.2051 L631.1515,674.4905 L631.1575,674.5202 L634.5266,673.7959 L637.923,673.2069 L641.3062,672.5526 L644.7146,672.0229 L648.0411,671.087 L648.0904,671.3812 L651.5501,670.8044 L654.9779,670.038 L658.4523,669.5492 L661.9289,669.0735 L665.3364,668.1853 L665.2954,667.8674 L668.872,668.0337 L672.3137,667.1532 L675.8579,667.0684 L679.2966,666.1642 L682.8218,665.9316 L682.8192,665.9013 L686.3412,665.9682 L689.8039,665.3262 L693.3015,665.1026 L696.8021,664.914 L700.2815,664.4721 L700.2871,664.657 L703.7252,664.3666 L707.1728,664.3921 L710.605,663.9064 L714.0601,664.1833 L717.5,663.9531 L717.5,664.6841 L727.5882,664.5458 L737.6765,664.7705 L747.7647,663.309 L757.8529,663.0835 L767.9412,663.1246 L778.0294,663.8746 L788.1176,663.6911 L798.2059,664.8617 L808.2941,663.7202 L818.3824,663.4957 L828.4706,664.2575 L838.5588,663.064 L848.6471,663.261 L858.7353,664.8184 L868.8235,664.534 L878.9118,664.9324 L889,663.5241 L899.0882,664.3787 L909.1765,664.7404 L919.2647,663.3233 L929.3529,663.8253 L939.4412,664.1211 L949.5294,664.8221 L959.6176,663.9475 L969.7059,664.5699 L979.7941,663.2147 L989.8824,663.0501 L999.9706,664.6246 L1010.0588,662.9972 L1020.1471,664.6317 L1030.2353,664.2286 L1040.3235,663.5959 L1050.4118,663.4814 L1060.5,663.9531 L1060.506,664.1569 L1063.0014,663.8937 L1065.5182,664.3631 L1068.0086,663.9282 L1070.5291,664.5215 L1073.0263,664.3208 L1073.0438,664.5353 L1075.5743,664.6369 L1078.1063,664.757 L1080.67,665.2656 L1083.2051,665.4232 L1085.722,665.359 L1085.7314,665.4337 L1088.2823,665.7996 L1090.8055,665.9463 L1093.3982,666.642 L1095.9122,666.7167 L1098.449,666.9708 L1098.4615,667.0465 L1100.9289,667.1217 L1103.4677,667.6284 L1106.0597,668.4564 L1108.5765,668.8298 L1111.0694,669.059 L1111.0656,669.0403 L1113.5165,669.4121 L1116.0007,669.9506 L1118.4352,670.2404 L1121.006,671.2138 L1123.4451,671.5265 L1123.5186,671.8469 L1125.8961,672.3045 L1128.3114,672.9275 L1130.6275,673.1172 L1133.0483,673.7641 L1135.4383,674.2763 L1135.3956,674.1094 L1137.7641,674.9856 L1140.0545,675.5566 L1142.3827,676.2751 L1144.591,676.5254 L1146.9109,677.2113 L1146.8948,677.1538 L1149.1267,678.0057 L1151.3043,678.6633 L1153.3379,678.8057 L1155.5388,679.5467 L1157.7248,680.2343 " fill="none" style="stroke: #A80036; stroke-width: 1.0; stroke-dasharray: 7.0,7.0;"/><polygon fill="#A80036" points="580.2085,687.6836,580.2177,687.7531,582.1432,687.8048,584.1225,688.2637,586.0843,688.5901,587.9885,688.4804,589.9724,688.9742,589.96,688.9515,588.9108,688.3084,587.924,687.7799,586.9807,687.3313,585.8877,686.6078,585.0043,686.2692,585.1663,686.3574,585.3608,685.1751,586.0284,684.2504,586.7538,683.3571,587.1432,682.281,587.7093,681.301,587.7241,681.3183,586.2023,682.5694,584.7476,683.8994,583.2605,685.1913,581.8352,686.5558,580.2085,687.6836" style="stroke: #A80036; stroke-width: 1.0;"/><text fill="#000000" font-family="sans-serif" font-size="13" lengthAdjust="spacingAndGlyphs" textLength="60" x="859" y="660.02">«extend»</text><!--link vp to inv--><path d="M331.3045,895.3357 L331.3639,895.4078 L332.7091,893.9409 L334.4023,892.8967 L335.9822,891.7149 L337.1894,890.0803 L338.9125,889.0724 L338.8911,889.0453 L340.3927,887.663 L342.0022,886.4173 L343.6866,885.2667 L345.1127,883.7886 L346.9007,882.7692 L347.0486,882.9659 L348.3959,881.294 L350.1751,880.1963 L352.0069,879.1687 L353.5322,877.7335 L355.2187,876.5126 L355.2363,876.5373 L356.9301,875.2763 L358.7039,874.1278 L360.4391,872.925 L362.248,871.8257 L363.8165,870.3889 L363.9823,870.6368 L365.7498,869.459 L367.4103,868.1213 L369.2274,867.0177 L371.0518,865.925 L372.6438,864.4847 L372.4745,864.2125 L374.6042,863.6212 L376.1768,862.1335 L378.1729,861.3272 L379.7328,859.8192 L381.6502,858.8864 L381.6352,858.8599 L383.6405,858.1316 L385.2937,856.7852 L387.1547,855.8034 L389.0331,854.8523 L390.7857,853.6804 L390.8702,853.845 L392.6278,852.7334 L394.5297,851.903 L396.1982,850.6177 L398.2148,850.011 L400,848.9531 L400.0993,849.1756 L402.3273,848.1309 L404.6045,847.1966 L406.6528,845.7491 L408.8689,844.6778 L411.2338,843.9399 L411.1348,843.6821 L413.5604,843.0183 L415.8745,842.064 L418.3504,841.5311 L420.5499,840.2787 L422.9138,839.454 L422.8655,839.3094 L425.3345,838.7532 L427.5972,837.5787 L430.0065,836.8439 L432.5595,836.5393 L434.8568,835.4687 L434.911,835.6545 L437.3528,835.0797 L439.6258,833.9268 L442.1102,833.4979 L444.5485,832.9113 L446.8795,831.9572 L446.8272,831.7538 L449.2527,831.303 L451.6611,830.7856 L454.1032,830.399 L456.4144,829.5038 L458.7988,828.8927 L458.8443,829.0932 L461.0707,828.1239 L463.3851,827.5416 L465.8279,827.5245 L468.0342,826.4668 L470.4313,826.2487 L470.476,826.4704 L472.682,825.8886 L474.8728,825.2317 L477.0978,824.7442 L479.4017,824.6481 L481.5939,823.9982 L481.5704,823.8672 L483.7422,823.8804 L485.7543,823.0029 L487.9479,823.1381 L490.0394,822.7031 L492.1033,822.1145 " fill="none" style="stroke: #A80036; stroke-width: 1.0;"/><!--link vp to et_dr--><path d="M347.2475,944.3303 L347.2816,944.6085 L357.3973,945.0331 L367.7128,947.0883 L377.9632,948.6125 L387.9999,948.3905 L398.3199,950.4828 L408.4803,951.2723 L418.7043,952.5803 L428.9724,954.2487 L439.0884,954.6749 L449.5071,957.5737 L459.5323,957.2579 L469.8514,959.3431 " fill="none" style="stroke: #A80036; stroke-width: 1.0;"/><!--link vp to eg_nkd--><path d="M347.2475,925.6413 L347.2992,925.9168 L356.9232,923.2626 L366.8504,922.223 L376.6788,920.6577 L386.1826,917.3633 L396.1167,916.3605 L405.8085,914.0676 L415.5967,912.2882 L425.452,910.8656 L435.0763,908.2131 L445.1603,908.0088 L454.8017,905.4475 " fill="none" style="stroke: #A80036; stroke-width: 1.0;"/><!--link gl to grokudb_imp--><path d="M345.6836,459.9531 L345.6836,460.2334 L355.6472,459.4007 L365.6109,460.2108 L375.5745,460.486 L385.5382,459.0019 L395.5018,459.8495 L405.4654,459.3845 L415.4291,459.4418 L425.3927,459.9531 " fill="none" style="stroke: #A80036; stroke-width: 1.0;"/><!--link sys to vp_calc--><path d="M312.7562,91.63 L312.8165,91.9037 L322.5759,93.2811 L332.689,96.2628 L342.6868,98.7221 L352.306,99.4633 L362.4271,102.4816 L372.2656,104.218 L382.2166,106.4646 L392.2458,109.0657 L402.0055,110.4448 L412.3015,114.2564 L421.9004,114.9054 L431.9631,117.6592 L442.0825,120.6696 L451.8725,122.1861 L461.8358,124.4883 " fill="none" style="stroke: #A80036; stroke-width: 1.0;"/><!--link Produkt tauschen to Bestellvorgang erfassen--><!--link Bestellvorgang erfassen to Waren und/oder Geldbewegung\narchivieren--><!--link Produkt tauschen to Stornierung archivieren--><!--link Stornierung archivieren to Ware einkaufen--><!--link Ware einkaufen to günstigsten Anbieter wählen--><!--
@startuml
skinparam titleBorderRoundCorner 15
skinparam titleBorderThickness 2
skinparam titleBorderColor blue
skinparam titleBackgroundColor Chartreuse
skinparam handwritten true


title Anwendungsfall - Diagramm


:Kunde: as ku
:Normalkunde: as nku
:Personal: as pku
:Großhandelsabnehmer: as gha
:Hauskunde: as hku

left to right direction
nku - -> ku
pku - -> ku
gha - -> ku
hku - -> ku


:Verkaufspersonal: as vp
:Geschäftsleitung: as gl

:System: as sys

rectangle "coole Box"{
    (Inventur) as inv
    (Produkt tauschen)
    (Großkundendatenbank\nimportieren) as grokudb_imp
    (Verkaufspreis kalkulieren) as vp_calc
    (Eingabe von\nNormalkundendaten) as eg_nkd
    (Etikett drucken) as et_dr
    (Bestellvorgang erfassen)
    (Waren und/oder Geldbewegung\narchivieren)
    (Stornierung archivieren)
    (Ware einkaufen)
    (günstigsten Anbieter wählen)


    rectangle "Kassensystem"{
            (Bargeld einzahlen) as bg_ez
            (Bargeld auszahlen) as bg_az
            (Bargeld wechseln) as bg_we
            (Wechselgeld berechnen) as we_br

            (einfache Stornierung) as l_st
            (globale Stornierung) as g_st


            ku - - bg_ez

            vp - - bg_we
            vp - - bg_az
            vp - - l_st


            sys - - we_br

            bg_ez <.. bg_we: <<include>>
            bg_ez <.. bg_az: <<include>>
            bg_az ..> we_br: <<include>>
            bg_we ..> we_br: <<include>>
            we_br ..> bg_ez: <<include>>
            l_st <.. g_st: <<extend>>

        }





    vp - - inv
    vp - - et_dr
    vp - - eg_nkd



    gl - - grokudb_imp

    sys - - vp_calc





}

@enduml

PlantUML version 1.2018.11(Sat Sep 22 18:43:53 CEST 2018)
(GPL source distribution)
Java Runtime: OpenJDK Runtime Environment
JVM: OpenJDK 64-Bit Server VM
Java Version: 10.0.2+13-Ubuntu-1ubuntu0.18.04.2
Operating System: Linux
OS Version: 4.15.0-36-generic
Default Encoding: UTF-8
Language: de
Country: DE
--></g></svg>