<?xml version="1.0" encoding="UTF-8" standalone="no"?><svg xmlns="http://www.w3.org/2000/svg" xmlns:xlink="http://www.w3.org/1999/xlink" contentScriptType="application/ecmascript" contentStyleType="text/css" height="1854px" preserveAspectRatio="none" style="width:3863px;height:1854px;" version="1.1" viewBox="0 0 3863 1854" width="3863px" zoomAndPan="magnify"><defs><filter height="300%" id="f1gyp5x7hj3ntq" width="300%" x="-1" y="-1"><feGaussianBlur result="blurOut" stdDeviation="2.0"/><feColorMatrix in="blurOut" result="blurOut2" type="matrix" values="0 0 0 0 0 0 0 0 0 0 0 0 0 0 0 0 0 0 .4 0"/><feOffset dx="4.0" dy="4.0" in="blurOut2" result="blurOut3"/><feBlend in="SourceGraphic" in2="blurOut3" mode="normal"/></filter></defs><g><rect fill="#7FFF00" height="30.9531" rx="7.5" ry="7.5" style="stroke: #0000FF; stroke-width: 2.0;" width="266" x="1804" y="2"/><text fill="#000000" font-family="sans-serif" font-size="18" lengthAdjust="spacingAndGlyphs" textLength="250" x="1812" y="23.708">Anwendungsfall - Diagramm</text><!--cluster coole Warenwirtschaftssystembox--><rect fill="#FFFFFF" filter="url(#f1gyp5x7hj3ntq)" height="1788" style="stroke: #000000; stroke-width: 1.5;" width="3175" x="674" y="55.9531"/><text fill="#000000" font-family="sans-serif" font-size="14" font-weight="bold" lengthAdjust="spacingAndGlyphs" textLength="274" x="2124.5" y="70.9482">coole Warenwirtschaftssystembox</text><!--cluster Accountverwaltung--><polygon fill="#FFFFFF" filter="url(#f1gyp5x7hj3ntq)" points="737,351.9531,897,351.9531,904,374.25,907,374.25,907,491.9531,737,491.9531,737,351.9531" style="stroke: #000000; stroke-width: 1.5;"/><line style="stroke: #000000; stroke-width: 1.5;" x1="737" x2="904" y1="374.25" y2="374.25"/><text fill="#000000" font-family="sans-serif" font-size="14" font-weight="bold" lengthAdjust="spacingAndGlyphs" textLength="154" x="741" y="366.9482">Accountverwaltung</text><!--cluster Kassensystem--><polygon fill="#FFFFFF" filter="url(#f1gyp5x7hj3ntq)" points="732,82.9531,853,82.9531,860,105.25,3841,105.25,3841,343.9531,732,343.9531,732,82.9531" style="stroke: #000000; stroke-width: 1.5;"/><line style="stroke: #000000; stroke-width: 1.5;" x1="732" x2="860" y1="105.25" y2="105.25"/><text fill="#000000" font-family="sans-serif" font-size="14" font-weight="bold" lengthAdjust="spacingAndGlyphs" textLength="115" x="736" y="97.9482">Kassensystem</text><!--cluster - - - --><polygon fill="#FFFFFF" filter="url(#f1gyp5x7hj3ntq)" points="797.5,499.9531,821.5,499.9531,828.5,522.25,846.5,522.25,846.5,636.9531,797.5,636.9531,797.5,499.9531" style="stroke: #000000; stroke-width: 1.5;"/><line style="stroke: #000000; stroke-width: 1.5;" x1="797.5" x2="828.5" y1="522.25" y2="522.25"/><text fill="#000000" font-family="sans-serif" font-size="14" font-weight="bold" lengthAdjust="spacingAndGlyphs" textLength="18" x="801.5" y="514.9482">---</text><!--cluster Inventur--><polygon fill="#FFFFFF" filter="url(#f1gyp5x7hj3ntq)" points="682,644.9531,754,644.9531,761,667.25,962,667.25,962,962.9531,682,962.9531,682,644.9531" style="stroke: #000000; stroke-width: 1.5;"/><line style="stroke: #000000; stroke-width: 1.5;" x1="682" x2="761" y1="667.25" y2="667.25"/><text fill="#000000" font-family="sans-serif" font-size="14" font-weight="bold" lengthAdjust="spacingAndGlyphs" textLength="66" x="686" y="659.9482">Inventur</text><!--cluster Bestellung--><polygon fill="#FFFFFF" filter="url(#f1gyp5x7hj3ntq)" points="722.5,970.9531,811.5,970.9531,818.5,993.25,2207,993.25,2207,1144.9531,722.5,1144.9531,722.5,970.9531" style="stroke: #000000; stroke-width: 1.5;"/><line style="stroke: #000000; stroke-width: 1.5;" x1="722.5" x2="818.5" y1="993.25" y2="993.25"/><text fill="#000000" font-family="sans-serif" font-size="14" font-weight="bold" lengthAdjust="spacingAndGlyphs" textLength="83" x="726.5" y="985.9482">Bestellung</text><!--cluster Händlerverwaltung--><polygon fill="#FFFFFF" filter="url(#f1gyp5x7hj3ntq)" points="732,1152.9531,888,1152.9531,895,1175.25,1654,1175.25,1654,1329.9531,732,1329.9531,732,1152.9531" style="stroke: #000000; stroke-width: 1.5;"/><line style="stroke: #000000; stroke-width: 1.5;" x1="732" x2="895" y1="1175.25" y2="1175.25"/><text fill="#000000" font-family="sans-serif" font-size="14" font-weight="bold" lengthAdjust="spacingAndGlyphs" textLength="150" x="736" y="1167.9482">Händlerverwaltung</text><!--cluster Produktverwaltung--><polygon fill="#FFFFFF" filter="url(#f1gyp5x7hj3ntq)" points="715.5,1337.9531,872.5,1337.9531,879.5,1360.25,1718,1360.25,1718,1634.9531,715.5,1634.9531,715.5,1337.9531" style="stroke: #000000; stroke-width: 1.5;"/><line style="stroke: #000000; stroke-width: 1.5;" x1="715.5" x2="879.5" y1="1360.25" y2="1360.25"/><text fill="#000000" font-family="sans-serif" font-size="14" font-weight="bold" lengthAdjust="spacingAndGlyphs" textLength="151" x="719.5" y="1352.9482">Produktverwaltung</text><ellipse cx="822.2002" cy="1817.7932" fill="#FEFECE" filter="url(#f1gyp5x7hj3ntq)" rx="74.7002" ry="17.34" style="stroke: #A80036; stroke-width: 1.5;"/><text fill="#000000" font-family="sans-serif" font-size="14" lengthAdjust="spacingAndGlyphs" textLength="118" x="763.2002" y="1822.4416">Termin eintragen</text><ellipse cx="821.9543" cy="1748.744" fill="#FEFECE" filter="url(#f1gyp5x7hj3ntq)" rx="69.4543" ry="16.2909" style="stroke: #A80036; stroke-width: 1.5;"/><text fill="#000000" font-family="sans-serif" font-size="14" lengthAdjust="spacingAndGlyphs" textLength="105" x="769.4543" y="1753.3924">Etikett drucken</text><ellipse cx="821.9327" cy="1670.1397" fill="#FEFECE" filter="url(#f1gyp5x7hj3ntq)" rx="123.9327" ry="27.1865" style="stroke: #A80036; stroke-width: 1.5;"/><text fill="#000000" font-family="sans-serif" font-size="14" lengthAdjust="spacingAndGlyphs" textLength="222" x="710.9327" y="1673.3371">Waren und/oder Geldbewegung</text><text fill="#000000" font-family="sans-serif" font-size="14" lengthAdjust="spacingAndGlyphs" textLength="75" x="784.4327" y="1689.634">archivieren</text><ellipse cx="1169.7771" cy="1748.9085" fill="#FEFECE" filter="url(#f1gyp5x7hj3ntq)" rx="92.7771" ry="20.9554" style="stroke: #A80036; stroke-width: 1.5;"/><text fill="#000000" font-family="sans-serif" font-size="14" lengthAdjust="spacingAndGlyphs" textLength="160" x="1089.7771" y="1753.557">Stornierung archivieren</text><ellipse cx="821.9395" cy="397.041" fill="#FEFECE" filter="url(#f1gyp5x7hj3ntq)" rx="75.9395" ry="17.5879" style="stroke: #A80036; stroke-width: 1.5;"/><text fill="#000000" font-family="sans-serif" font-size="14" lengthAdjust="spacingAndGlyphs" textLength="121" x="761.4395" y="401.6895">Account erstellen</text><ellipse cx="821.8797" cy="467.1291" fill="#FEFECE" filter="url(#f1gyp5x7hj3ntq)" rx="73.8797" ry="17.1759" style="stroke: #A80036; stroke-width: 1.5;"/><text fill="#000000" font-family="sans-serif" font-size="14" lengthAdjust="spacingAndGlyphs" textLength="116" x="763.8797" y="471.7775">Account löschen</text><ellipse cx="822.1543" cy="159.9768" fill="#FEFECE" filter="url(#f1gyp5x7hj3ntq)" rx="58.1543" ry="14.5236" style="stroke: #A80036; stroke-width: 1.5;"/><text fill="#000000" font-family="sans-serif" font-size="14" lengthAdjust="spacingAndGlyphs" textLength="78" x="783.1543" y="164.6252">Barzahlung</text><ellipse cx="1548.0637" cy="213.9659" fill="#FEFECE" filter="url(#f1gyp5x7hj3ntq)" rx="73.0637" ry="17.0127" style="stroke: #A80036; stroke-width: 1.5;"/><text fill="#000000" font-family="sans-serif" font-size="14" lengthAdjust="spacingAndGlyphs" textLength="114" x="1491.0637" y="218.6143">Rückgeld geben</text><ellipse cx="2115.8093" cy="131.715" fill="#FEFECE" filter="url(#f1gyp5x7hj3ntq)" rx="96.8093" ry="21.7619" style="stroke: #A80036; stroke-width: 1.5;"/><text fill="#000000" font-family="sans-serif" font-size="14" lengthAdjust="spacingAndGlyphs" textLength="169" x="2031.3093" y="136.3634">Wechselgeld berechnen</text><ellipse cx="2663.1446" cy="186.082" fill="#FEFECE" filter="url(#f1gyp5x7hj3ntq)" rx="141.1446" ry="30.6289" style="stroke: #A80036; stroke-width: 1.5;"/><text fill="#000000" font-family="sans-serif" font-size="14" lengthAdjust="spacingAndGlyphs" textLength="264" x="2531.1446" y="190.7305">Summenberechnung der Grundpreise</text><ellipse cx="2116.2133" cy="243.7958" fill="#FEFECE" filter="url(#f1gyp5x7hj3ntq)" rx="79.7133" ry="18.3427" style="stroke: #A80036; stroke-width: 1.5;"/><text fill="#000000" font-family="sans-serif" font-size="14" lengthAdjust="spacingAndGlyphs" textLength="130" x="2051.2133" y="248.4442">Rabattberechnung</text><ellipse cx="1547.8359" cy="290.9203" fill="#FEFECE" filter="url(#f1gyp5x7hj3ntq)" rx="112.8359" ry="24.9672" style="stroke: #A80036; stroke-width: 1.5;"/><text fill="#000000" font-family="sans-serif" font-size="14" lengthAdjust="spacingAndGlyphs" textLength="204" x="1445.8359" y="295.5687">Mehrwehrtsteuerberechnung</text><ellipse cx="821.8427" cy="290.7217" fill="#FEFECE" filter="url(#f1gyp5x7hj3ntq)" rx="81.8427" ry="18.7685" style="stroke: #A80036; stroke-width: 1.5;"/><text fill="#000000" font-family="sans-serif" font-size="14" lengthAdjust="spacingAndGlyphs" textLength="135" x="754.3427" y="295.3701">Endpreis ausgeben</text><ellipse cx="3235.228" cy="273.9987" fill="#FEFECE" filter="url(#f1gyp5x7hj3ntq)" rx="85.728" ry="19.5456" style="stroke: #A80036; stroke-width: 1.5;"/><text fill="#000000" font-family="sans-serif" font-size="14" lengthAdjust="spacingAndGlyphs" textLength="144" x="3163.228" y="278.6472">einfache Stornierung</text><ellipse cx="3749.3427" cy="300.7217" fill="#FEFECE" filter="url(#f1gyp5x7hj3ntq)" rx="81.8427" ry="18.7685" style="stroke: #A80036; stroke-width: 1.5;"/><text fill="#000000" font-family="sans-serif" font-size="14" lengthAdjust="spacingAndGlyphs" textLength="135" x="3681.8427" y="305.3701">globale Stornierung</text><ellipse cx="3235.1802" cy="164.7892" fill="#FEFECE" filter="url(#f1gyp5x7hj3ntq)" rx="122.1802" ry="26.836" style="stroke: #A80036; stroke-width: 1.5;"/><text fill="#000000" font-family="sans-serif" font-size="14" lengthAdjust="spacingAndGlyphs" textLength="224" x="3123.1802" y="169.4376">Artikel zu Warenkorb hinzufügen</text><ellipse cx="3749.5616" cy="171.0655" fill="#FEFECE" filter="url(#f1gyp5x7hj3ntq)" rx="83.5616" ry="19.1123" style="stroke: #A80036; stroke-width: 1.5;"/><text fill="#000000" font-family="sans-serif" font-size="14" lengthAdjust="spacingAndGlyphs" textLength="139" x="3680.0616" y="175.7139">Produkt einscannen</text><!--entity a--><ellipse cx="822" cy="555.4531" fill="#FEFECE" filter="url(#f1gyp5x7hj3ntq)" rx="8" ry="8" style="stroke: #A80036; stroke-width: 2.0;"/><path d="M822,563.4531 L822,590.4531 M809,571.4531 L835,571.4531 M822,590.4531 L809,605.4531 M822,590.4531 L835,605.4531 " fill="none" filter="url(#f1gyp5x7hj3ntq)" style="stroke: #A80036; stroke-width: 2.0;"/><text fill="#000000" font-family="sans-serif" font-size="14" lengthAdjust="spacingAndGlyphs" textLength="33" x="805.5" y="625.4482">i_i_i_i</text><ellipse cx="821.8548" cy="690.1241" fill="#FEFECE" filter="url(#f1gyp5x7hj3ntq)" rx="76.3548" ry="17.671" style="stroke: #A80036; stroke-width: 1.5;"/><text fill="#000000" font-family="sans-serif" font-size="14" lengthAdjust="spacingAndGlyphs" textLength="122" x="760.8548" y="694.7725">Bestand erfassen</text><ellipse cx="822.0975" cy="771.7726" fill="#FEFECE" filter="url(#f1gyp5x7hj3ntq)" rx="132.0975" ry="28.8195" style="stroke: #A80036; stroke-width: 1.5;"/><text fill="#000000" font-family="sans-serif" font-size="14" lengthAdjust="spacingAndGlyphs" textLength="245" x="699.5975" y="776.4211">abweichenden Bestand festgestellt</text><ellipse cx="821.9738" cy="858.8479" fill="#FEFECE" filter="url(#f1gyp5x7hj3ntq)" rx="99.9738" ry="22.3948" style="stroke: #A80036; stroke-width: 1.5;"/><text fill="#000000" font-family="sans-serif" font-size="14" lengthAdjust="spacingAndGlyphs" textLength="176" x="733.9738" y="863.4963">Manager benachrichtigen</text><ellipse cx="821.9934" cy="936.1518" fill="#FEFECE" filter="url(#f1gyp5x7hj3ntq)" rx="83.9934" ry="19.1987" style="stroke: #A80036; stroke-width: 1.5;"/><text fill="#000000" font-family="sans-serif" font-size="14" lengthAdjust="spacingAndGlyphs" textLength="140" x="751.9934" y="940.8002">Bestand berichtigen</text><ellipse cx="821.9431" cy="1102.1417" fill="#FEFECE" filter="url(#f1gyp5x7hj3ntq)" rx="91.4431" ry="20.6886" style="stroke: #A80036; stroke-width: 1.5;"/><text fill="#000000" font-family="sans-serif" font-size="14" lengthAdjust="spacingAndGlyphs" textLength="157" x="743.4431" y="1106.7902">Bestellung abschicken</text><ellipse cx="1547.8591" cy="1102.1249" fill="#FEFECE" filter="url(#f1gyp5x7hj3ntq)" rx="96.3591" ry="21.6718" style="stroke: #A80036; stroke-width: 1.5;"/><text fill="#000000" font-family="sans-serif" font-size="14" lengthAdjust="spacingAndGlyphs" textLength="168" x="1463.8591" y="1106.7734">günstigsten Preis finden</text><ellipse cx="2116.1307" cy="1101.9793" fill="#FEFECE" filter="url(#f1gyp5x7hj3ntq)" rx="83.1307" ry="19.0261" style="stroke: #A80036; stroke-width: 1.5;"/><text fill="#000000" font-family="sans-serif" font-size="14" lengthAdjust="spacingAndGlyphs" textLength="138" x="2047.1307" y="1106.6277">Bestellung erstellen</text><ellipse cx="821.9431" cy="1019.1417" fill="#FEFECE" filter="url(#f1gyp5x7hj3ntq)" rx="91.4431" ry="20.6886" style="stroke: #A80036; stroke-width: 1.5;"/><text fill="#000000" font-family="sans-serif" font-size="14" lengthAdjust="spacingAndGlyphs" textLength="157" x="743.4431" y="1023.7902">Bestellung empfangen</text><ellipse cx="1547.8371" cy="1021.1205" fill="#FEFECE" filter="url(#f1gyp5x7hj3ntq)" rx="101.3371" ry="22.6674" style="stroke: #A80036; stroke-width: 1.5;"/><text fill="#000000" font-family="sans-serif" font-size="14" lengthAdjust="spacingAndGlyphs" textLength="179" x="1458.3371" y="1025.769">Bestellung inventarisieren</text><ellipse cx="821.8427" cy="1267.7217" fill="#FEFECE" filter="url(#f1gyp5x7hj3ntq)" rx="81.8427" ry="18.7685" style="stroke: #A80036; stroke-width: 1.5;"/><text fill="#000000" font-family="sans-serif" font-size="14" lengthAdjust="spacingAndGlyphs" textLength="135" x="754.3427" y="1272.3701">Händler hinzufügen</text><ellipse cx="821.7526" cy="1196.8036" fill="#FEFECE" filter="url(#f1gyp5x7hj3ntq)" rx="72.2526" ry="16.8505" style="stroke: #A80036; stroke-width: 1.5;"/><text fill="#000000" font-family="sans-serif" font-size="14" lengthAdjust="spacingAndGlyphs" textLength="112" x="765.7526" y="1201.4521">Händler löschen</text><ellipse cx="1548.1626" cy="1267.9857" fill="#FEFECE" filter="url(#f1gyp5x7hj3ntq)" rx="98.1626" ry="22.0325" style="stroke: #A80036; stroke-width: 1.5;"/><text fill="#000000" font-family="sans-serif" font-size="14" lengthAdjust="spacingAndGlyphs" textLength="172" x="1462.1626" y="1272.6341">Händlerdaten bearbeiten</text><ellipse cx="821.7712" cy="1542.8074" fill="#FEFECE" filter="url(#f1gyp5x7hj3ntq)" rx="82.2712" ry="18.8542" style="stroke: #A80036; stroke-width: 1.5;"/><text fill="#000000" font-family="sans-serif" font-size="14" lengthAdjust="spacingAndGlyphs" textLength="136" x="753.7712" y="1547.4558">Produkt hinzufügen</text><ellipse cx="822.1576" cy="1471.8846" fill="#FEFECE" filter="url(#f1gyp5x7hj3ntq)" rx="72.6576" ry="16.9315" style="stroke: #A80036; stroke-width: 1.5;"/><text fill="#000000" font-family="sans-serif" font-size="14" lengthAdjust="spacingAndGlyphs" textLength="113" x="765.6576" y="1476.5331">Produkt löschen</text><ellipse cx="822.1147" cy="1398.0761" fill="#FEFECE" filter="url(#f1gyp5x7hj3ntq)" rx="98.6147" ry="22.1229" style="stroke: #A80036; stroke-width: 1.5;"/><text fill="#000000" font-family="sans-serif" font-size="14" lengthAdjust="spacingAndGlyphs" textLength="173" x="735.6147" y="1402.7245">Produktdaten bearbeiten</text><ellipse cx="1548.0951" cy="1600.1722" fill="#FEFECE" filter="url(#f1gyp5x7hj3ntq)" rx="121.5951" ry="26.719" style="stroke: #A80036; stroke-width: 1.5;"/><text fill="#000000" font-family="sans-serif" font-size="14" lengthAdjust="spacingAndGlyphs" textLength="214" x="1441.0951" y="1602.74">Großhändlerproduktbestellliste</text><text fill="#000000" font-family="sans-serif" font-size="14" lengthAdjust="spacingAndGlyphs" textLength="79" x="1508.5951" y="1619.0369">importieren</text><ellipse cx="1547.9346" cy="1504.0401" fill="#FEFECE" filter="url(#f1gyp5x7hj3ntq)" rx="158.4346" ry="34.0869" style="stroke: #A80036; stroke-width: 1.5;"/><text fill="#000000" font-family="sans-serif" font-size="14" lengthAdjust="spacingAndGlyphs" textLength="300" x="1397.9346" y="1508.6885">Produkt zur Verkaufsdatenbank hinzufügen</text><ellipse cx="1547.8149" cy="1399.7161" fill="#FEFECE" filter="url(#f1gyp5x7hj3ntq)" rx="161.8149" ry="34.763" style="stroke: #A80036; stroke-width: 1.5;"/><text fill="#000000" font-family="sans-serif" font-size="14" lengthAdjust="spacingAndGlyphs" textLength="307" x="1394.3149" y="1404.3645">Produkt von der Verkaufsdatenbank löschen</text><!--entity ku--><ellipse cx="593.5" cy="131.4531" fill="#FEFECE" filter="url(#f1gyp5x7hj3ntq)" rx="8" ry="8" style="stroke: #A80036; stroke-width: 2.0;"/><path d="M593.5,139.4531 L593.5,166.4531 M580.5,147.4531 L606.5,147.4531 M593.5,166.4531 L580.5,181.4531 M593.5,166.4531 L606.5,181.4531 " fill="none" filter="url(#f1gyp5x7hj3ntq)" style="stroke: #A80036; stroke-width: 2.0;"/><text fill="#000000" font-family="sans-serif" font-size="14" lengthAdjust="spacingAndGlyphs" textLength="45" x="571" y="201.4482">Kunde</text><!--entity nku--><ellipse cx="451" cy="249.4531" fill="#FEFECE" filter="url(#f1gyp5x7hj3ntq)" rx="8" ry="8" style="stroke: #A80036; stroke-width: 2.0;"/><path d="M451,257.4531 L451,284.4531 M438,265.4531 L464,265.4531 M451,284.4531 L438,299.4531 M451,284.4531 L464,299.4531 " fill="none" filter="url(#f1gyp5x7hj3ntq)" style="stroke: #A80036; stroke-width: 2.0;"/><text fill="#000000" font-family="sans-serif" font-size="14" lengthAdjust="spacingAndGlyphs" textLength="92" x="405" y="319.4482">Normalkunde</text><!--entity gha--><ellipse cx="264" cy="172.4531" fill="#FEFECE" filter="url(#f1gyp5x7hj3ntq)" rx="8" ry="8" style="stroke: #A80036; stroke-width: 2.0;"/><path d="M264,180.4531 L264,207.4531 M251,188.4531 L277,188.4531 M264,207.4531 L251,222.4531 M264,207.4531 L277,222.4531 " fill="none" filter="url(#f1gyp5x7hj3ntq)" style="stroke: #A80036; stroke-width: 2.0;"/><text fill="#000000" font-family="sans-serif" font-size="14" lengthAdjust="spacingAndGlyphs" textLength="160" x="184" y="242.4482">Großhandelsabnehmer</text><!--entity hku--><ellipse cx="451" cy="131.4531" fill="#FEFECE" filter="url(#f1gyp5x7hj3ntq)" rx="8" ry="8" style="stroke: #A80036; stroke-width: 2.0;"/><path d="M451,139.4531 L451,166.4531 M438,147.4531 L464,147.4531 M451,166.4531 L438,181.4531 M451,166.4531 L464,181.4531 " fill="none" filter="url(#f1gyp5x7hj3ntq)" style="stroke: #A80036; stroke-width: 2.0;"/><text fill="#000000" font-family="sans-serif" font-size="14" lengthAdjust="spacingAndGlyphs" textLength="79" x="411.5" y="201.4482">Hauskunde</text><!--entity vp--><ellipse cx="264" cy="54.4531" fill="#FEFECE" filter="url(#f1gyp5x7hj3ntq)" rx="8" ry="8" style="stroke: #A80036; stroke-width: 2.0;"/><path d="M264,62.4531 L264,89.4531 M251,70.4531 L277,70.4531 M264,89.4531 L251,104.4531 M264,89.4531 L277,104.4531 " fill="none" filter="url(#f1gyp5x7hj3ntq)" style="stroke: #A80036; stroke-width: 2.0;"/><text fill="#000000" font-family="sans-serif" font-size="14" lengthAdjust="spacingAndGlyphs" textLength="120" x="204" y="124.4482">Verkaufspersonal</text><!--entity gl--><ellipse cx="64.5" cy="904.4531" fill="#FEFECE" filter="url(#f1gyp5x7hj3ntq)" rx="8" ry="8" style="stroke: #A80036; stroke-width: 2.0;"/><path d="M64.5,912.4531 L64.5,939.4531 M51.5,920.4531 L77.5,920.4531 M64.5,939.4531 L51.5,954.4531 M64.5,939.4531 L77.5,954.4531 " fill="none" filter="url(#f1gyp5x7hj3ntq)" style="stroke: #A80036; stroke-width: 2.0;"/><text fill="#000000" font-family="sans-serif" font-size="14" lengthAdjust="spacingAndGlyphs" textLength="117" x="6" y="974.4482">Geschäftsleitung</text><!--entity sys--><path d="M558,382.4531 C558,372.4531 593.5,372.4531 593.5,372.4531 C593.5,372.4531 629,372.4531 629,382.4531 L629,407.75 C629,417.75 593.5,417.75 593.5,417.75 C593.5,417.75 558,417.75 558,407.75 L558,382.4531 " fill="#FEFECE" filter="url(#f1gyp5x7hj3ntq)" style="stroke: #000000; stroke-width: 1.5;"/><path d="M558,382.4531 C558,392.4531 593.5,392.4531 593.5,392.4531 C593.5,392.4531 629,392.4531 629,382.4531 " fill="none" style="stroke: #000000; stroke-width: 1.5;"/><text fill="#000000" font-family="sans-serif" font-size="14" lengthAdjust="spacingAndGlyphs" textLength="51" x="568" y="409.4482">System</text><!--link nku to ku--><path d="M497.0332,247.1198 C538.8367,247.1198 594,247.1198 594,247.1198 C594,247.1198 594,209.5433 594,209.5433 " fill="none" id="nku-ku" style="stroke: #A80036; stroke-width: 1.0;"/><polygon fill="#A80036" points="594,204.5433,590,213.5433,594,209.5433,598,213.5433,594,204.5433" style="stroke: #A80036; stroke-width: 1.0;"/><!--link vp to hku--><path d="M324.1973,116.2031 C378.8634,116.2031 451,116.2031 451,116.2031 C451,116.2031 451,116.7034 451,116.7034 " fill="none" id="vp-hku" style="stroke: #A80036; stroke-width: 1.0;"/><polygon fill="#A80036" points="451,121.2062,455,112.2062,451,116.2062,447,112.2062,451,121.2062" style="stroke: #A80036; stroke-width: 1.0;"/><!--link gha to hku--><path d="M344.1186,183.4531 C344.1186,183.4531 406.4542,183.4531 406.4542,183.4531 " fill="none" id="gha-hku" style="stroke: #A80036; stroke-width: 1.0;"/><polygon fill="#A80036" points="411.4542,183.4531,402.4542,179.4531,406.4542,183.4531,402.4542,187.4531,411.4542,183.4531" style="stroke: #A80036; stroke-width: 1.0;"/><!--link hku to ku--><path d="M490.6942,162.9531 C490.6942,162.9531 565.8688,162.9531 565.8688,162.9531 " fill="none" id="hku-ku" style="stroke: #A80036; stroke-width: 1.0;"/><polygon fill="#A80036" points="570.8688,162.9531,561.8688,158.9531,565.8688,162.9531,561.8688,166.9531,570.8688,162.9531" style="stroke: #A80036; stroke-width: 1.0;"/><!--link vp to Kassensystem--><path d="M324.2459,109.9531 C394.6984,109.9531 515.0234,109.9531 619.7202,109.9531 C645.8944,109.9531 671.0918,109.9531 694.289,109.9531 C705.8876,109.9531 716.9861,109.9531 727.4567,109.9531 C728.7655,109.9531 730.0645,109.9531 731.3535,109.9531 " fill="none" id="vp-Kassensystem" style="stroke: #A80036; stroke-width: 1.0;"/><!--link gl to date--><path d="M36,977.6052 C36,1152.4339 36,1817.9531 36,1817.9531 C36,1817.9531 551.1476,1817.9531 747.3464,1817.9531 " fill="none" id="gl-date" style="stroke: #A80036; stroke-width: 1.0;"/><!--link gl to acc--><path d="M123.2286,905.7031 C273.4642,905.7031 660,905.7031 660,905.7031 C660,905.7031 660,391.1198 660,391.1198 C660,391.1198 706.7348,391.1198 750.001,391.1198 " fill="none" id="gl-acc" style="stroke: #A80036; stroke-width: 1.0;"/><!--link gl to accdel--><path d="M84,894.3325 C84,779.5506 84,466.9531 84,466.9531 C84,466.9531 560.712,466.9531 747.8588,466.9531 " fill="none" id="gl-accdel" style="stroke: #A80036; stroke-width: 1.0;"/><!--link gl to vp--><path d="M45,894.3804 C45,723.7263 45,85.9531 45,85.9531 C45,85.9531 198.8676,85.9531 198.8676,85.9531 " fill="none" id="gl-vp" style="stroke: #A80036; stroke-width: 1.0;"/><polygon fill="#A80036" points="203.8676,85.9531,194.8676,81.9531,198.8676,85.9531,194.8676,89.9531,203.8676,85.9531" style="stroke: #A80036; stroke-width: 1.0;"/><!--link ku to bg_ez--><path d="M616.2448,159.9531 C650.3357,159.9531 715.7954,159.9531 763.7578,159.9531 " fill="none" id="ku-bg_ez" style="stroke: #A80036; stroke-width: 1.0;"/><!--link sys to we_br--><path d="M629.3426,374.7864 C851.3096,374.7864 2029,374.7864 2029,374.7864 C2029,374.7864 2029,187.2035 2029,141.7732 " fill="none" id="sys-we_br" style="stroke: #A80036; stroke-width: 1.0;"/><!--link bg_ez to bg_az--><path d="M822,179.6648 C822,179.6648 822,200.7031 822,200.7031 C822,200.7031 1342.4451,200.7031 1502.0347,200.7031 " fill="none" id="bg_ez-bg_az" style="stroke: #A80036; stroke-width: 1.0; stroke-dasharray: 7.0,7.0;"/><polygon fill="#A80036" points="822,174.6648,818,183.6648,822,179.6648,826,183.6648,822,174.6648" style="stroke: #A80036; stroke-width: 1.0;"/><text fill="#000000" font-family="sans-serif" font-size="13" lengthAdjust="spacingAndGlyphs" textLength="61" x="1139.5" y="188.02">«include»</text><!--link bg_az to we_br--><path d="M1619.0048,209.9531 C1751.6986,209.9531 2024,209.9531 2024,209.9531 C2024,209.9531 2024,144.1513 2024,144.1513 " fill="none" id="bg_az-we_br" style="stroke: #A80036; stroke-width: 1.0; stroke-dasharray: 7.0,7.0;"/><polygon fill="#A80036" points="2024,139.1513,2020,148.1513,2024,144.1513,2028,148.1513,2024,139.1513" style="stroke: #A80036; stroke-width: 1.0;"/><text fill="#000000" font-family="sans-serif" font-size="13" lengthAdjust="spacingAndGlyphs" textLength="61" x="1834" y="182.02">«include»</text><!--link we_br to bg_ez--><path d="M2058.3079,149.7031 C2058.3079,149.7031 868.2298,149.7031 868.2298,149.7031 " fill="none" id="we_br-bg_ez" style="stroke: #A80036; stroke-width: 1.0; stroke-dasharray: 7.0,7.0;"/><polygon fill="#A80036" points="863.2298,149.7031,872.2298,153.7031,868.2298,149.7031,872.2298,145.7031,863.2298,149.7031" style="stroke: #A80036; stroke-width: 1.0;"/><text fill="#000000" font-family="sans-serif" font-size="13" lengthAdjust="spacingAndGlyphs" textLength="61" x="1517.5" y="123.02">«include»</text><!--link l_st to g_st--><path d="M3300.7863,287.7031 C3300.7863,287.7031 3690.4541,287.7031 3690.4541,287.7031 " fill="none" id="l_st-g_st" style="stroke: #A80036; stroke-width: 1.0; stroke-dasharray: 7.0,7.0;"/><polygon fill="#A80036" points="3295.7863,287.7031,3304.7863,291.7031,3300.7863,287.7031,3304.7863,283.7031,3295.7863,287.7031" style="stroke: #A80036; stroke-width: 1.0;"/><text fill="#000000" font-family="sans-serif" font-size="13" lengthAdjust="spacingAndGlyphs" textLength="60" x="3481.5" y="297.02">«extend»</text><!--link l_st to scan--><path d="M3316.8878,268.2031 C3462.1954,268.2031 3750,268.2031 3750,268.2031 C3750,268.2031 3750,195.1666 3750,195.1666 " fill="none" id="l_st-scan" style="stroke: #A80036; stroke-width: 1.0; stroke-dasharray: 7.0,7.0;"/><polygon fill="#A80036" points="3750,190.1666,3746,199.1666,3750,195.1666,3754,199.1666,3750,190.1666" style="stroke: #A80036; stroke-width: 1.0;"/><text fill="#000000" font-family="sans-serif" font-size="13" lengthAdjust="spacingAndGlyphs" textLength="61" x="3481" y="210.02">«include»</text><!--link azw to scan--><path d="M3354.0061,170.9531 C3354.0061,170.9531 3660.6207,170.9531 3660.6207,170.9531 " fill="none" id="azw-scan" style="stroke: #A80036; stroke-width: 1.0; stroke-dasharray: 7.0,7.0;"/><polygon fill="#A80036" points="3665.6207,170.9531,3656.6207,166.9531,3660.6207,170.9531,3656.6207,174.9531,3665.6207,170.9531" style="stroke: #A80036; stroke-width: 1.0;"/><text fill="#000000" font-family="sans-serif" font-size="13" lengthAdjust="spacingAndGlyphs" textLength="61" x="3481" y="123.02">«include»</text><!--link sdg to azw--><path d="M2792.4383,173.7031 C2792.4383,173.7031 3114.1571,173.7031 3114.1571,173.7031 " fill="none" id="sdg-azw" style="stroke: #A80036; stroke-width: 1.0; stroke-dasharray: 7.0,7.0;"/><polygon fill="#A80036" points="3119.1571,173.7031,3110.1571,169.7031,3114.1571,173.7031,3110.1571,177.7031,3119.1571,173.7031" style="stroke: #A80036; stroke-width: 1.0;"/><text fill="#000000" font-family="sans-serif" font-size="13" lengthAdjust="spacingAndGlyphs" textLength="61" x="2928" y="168.02">«include»</text><!--link rab to sdg--><path d="M2116,225.1259 C2116,214.5496 2116,203.4531 2116,203.4531 C2116,203.4531 2542.3297,203.4531 2542.3297,203.4531 " fill="none" id="rab-sdg" style="stroke: #A80036; stroke-width: 1.0; stroke-dasharray: 7.0,7.0;"/><polygon fill="#A80036" points="2547.3297,203.4531,2538.3297,199.4531,2542.3297,203.4531,2538.3297,207.4531,2547.3297,203.4531" style="stroke: #A80036; stroke-width: 1.0;"/><text fill="#000000" font-family="sans-serif" font-size="13" lengthAdjust="spacingAndGlyphs" textLength="61" x="2337" y="233.02">«include»</text><!--link mwst to rab--><path d="M1641,276.6591 C1641,266.5499 1641,254.7864 1641,254.7864 C1641,254.7864 2046.445,254.7864 2046.445,254.7864 " fill="none" id="mwst-rab" style="stroke: #A80036; stroke-width: 1.0; stroke-dasharray: 7.0,7.0;"/><polygon fill="#A80036" points="2051.445,254.7864,2042.445,250.7864,2046.445,254.7864,2042.445,258.7864,2051.445,254.7864" style="stroke: #A80036; stroke-width: 1.0;"/><text fill="#000000" font-family="sans-serif" font-size="13" lengthAdjust="spacingAndGlyphs" textLength="61" x="1834" y="275.02">«include»</text><!--link epa to mwst--><path d="M904.2221,290.9531 C904.2221,290.9531 1429.7733,290.9531 1429.7733,290.9531 " fill="none" id="epa-mwst" style="stroke: #A80036; stroke-width: 1.0; stroke-dasharray: 7.0,7.0;"/><polygon fill="#A80036" points="1434.7733,290.9531,1425.7733,286.9531,1429.7733,290.9531,1425.7733,294.9531,1434.7733,290.9531" style="stroke: #A80036; stroke-width: 1.0;"/><text fill="#000000" font-family="sans-serif" font-size="13" lengthAdjust="spacingAndGlyphs" textLength="61" x="1139.5" y="287.02">«include»</text><!--link a to a--><path d="M805.4992,586.9531 C792.6562,586.9531 777,586.9531 777,586.9531 C777,586.9531 777,650.4531 777,650.4531 C777,650.4531 868,650.4531 868,650.4531 C868,650.4531 868,586.9531 868,586.9531 C868,586.9531 851.7832,586.9531 838.6071,586.9531 " fill="none" id="a-a" style="stroke: #A80036; stroke-width: 1.0; stroke-dasharray: 7.0,7.0;"/><!--link sys to abf--><path d="M629.2969,402.7864 C665.1364,402.7864 715,402.7864 715,402.7864 C715,402.7864 715,681.6569 715,754.6426 " fill="none" id="sys-abf" style="stroke: #A80036; stroke-width: 1.0;"/><!--link sys to glb--><path d="M594,417.6469 C594,510.804 594,858.9531 594,858.9531 C594,858.9531 660.7351,858.9531 721.9959,858.9531 " fill="none" id="sys-glb" style="stroke: #A80036; stroke-width: 1.0;"/><!--link gl to bb--><path d="M123.3094,935.9531 C256.7929,935.9531 583.0646,935.9531 737.8577,935.9531 " fill="none" id="gl-bb" style="stroke: #A80036; stroke-width: 1.0;"/><!--link gpf to bers--><path d="M1649.6752,1101.9531 C1649.6752,1101.9531 2032.7017,1101.9531 2032.7017,1101.9531 " fill="none" id="gpf-bers" style="stroke: #A80036; stroke-width: 1.0; stroke-dasharray: 7.0,7.0;"/><polygon fill="#A80036" points="1644.6752,1101.9531,1653.6752,1105.9531,1649.6752,1101.9531,1653.6752,1097.9531,1644.6752,1101.9531" style="stroke: #A80036; stroke-width: 1.0;"/><text fill="#000000" font-family="sans-serif" font-size="13" lengthAdjust="spacingAndGlyphs" textLength="61" x="1834" y="1098.02">«include»</text><!--link ba to gpf--><path d="M918.5806,1101.9531 C918.5806,1101.9531 1451.4972,1101.9531 1451.4972,1101.9531 " fill="none" id="ba-gpf" style="stroke: #A80036; stroke-width: 1.0; stroke-dasharray: 7.0,7.0;"/><polygon fill="#A80036" points="913.5806,1101.9531,922.5806,1105.9531,918.5806,1101.9531,922.5806,1097.9531,913.5806,1101.9531" style="stroke: #A80036; stroke-width: 1.0;"/><text fill="#000000" font-family="sans-serif" font-size="13" lengthAdjust="spacingAndGlyphs" textLength="61" x="1139.5" y="1098.02">«include»</text><!--link bempf to binvent--><path d="M918.5806,1018.9531 C918.5806,1018.9531 1446.7854,1018.9531 1446.7854,1018.9531 " fill="none" id="bempf-binvent" style="stroke: #A80036; stroke-width: 1.0; stroke-dasharray: 7.0,7.0;"/><polygon fill="#A80036" points="913.5806,1018.9531,922.5806,1022.9531,918.5806,1018.9531,922.5806,1014.9531,913.5806,1018.9531" style="stroke: #A80036; stroke-width: 1.0;"/><text fill="#000000" font-family="sans-serif" font-size="13" lengthAdjust="spacingAndGlyphs" textLength="61" x="1139.5" y="1011.02">«include»</text><!--link sys to binvent--><path d="M629.1755,377.1198 C802.4562,377.1198 1548,377.1198 1548,377.1198 C1548,377.1198 1548,884.4623 1548,998.4162 " fill="none" id="sys-binvent" style="stroke: #A80036; stroke-width: 1.0;"/><!--link gl to Händlerverwaltung--><path d="M94,977.6286 C94,1077.4397 94,1321.9531 94,1321.9531 C94,1321.9531 270.3569,1321.9531 449.4694,1321.9531 C539.0257,1321.9531 629.2708,1321.9531 698.5047,1321.9531 C707.159,1321.9531 715.4849,1321.9531 723.4401,1321.9531 C725.429,1321.9531 727.3946,1321.9531 729.3364,1321.9531 " fill="none" id="gl-Händlerverwaltung" style="stroke: #A80036; stroke-width: 1.0;"/><!--link gl to Produktverwaltung--><path d="M65,977.552 C65,1122.5577 65,1596.9531 65,1596.9531 C65,1596.9531 248.3822,1596.9531 434.6296,1596.9531 C527.7534,1596.9531 621.5935,1596.9531 693.5853,1596.9531 C698.0848,1596.9531 702.4989,1596.9531 706.8222,1596.9531 C708.9838,1596.9531 711.1228,1596.9531 713.2383,1596.9531 " fill="none" id="gl-Produktverwaltung" style="stroke: #A80036; stroke-width: 1.0;"/><!--link et_dr to Waren und/oder Geldbewegung\narchivieren--><!--link et_dr to Stornierung archivieren--><!--link Händler hinzufügen to Händler löschen--><!--link Händler hinzufügen to Händlerdaten bearbeiten--><!--link Produkt hinzufügen to Produkt löschen--><!--link Produkt löschen to Produktdaten bearbeiten--><!--link Produkt hinzufügen to Großhändlerproduktbestellliste \nimportieren--><!--link Großhändlerproduktbestellliste \nimportieren to Produkt zur Verkaufsdatenbank hinzufügen--><!--link Produkt zur Verkaufsdatenbank hinzufügen to Produkt von der Verkaufsdatenbank löschen--><!--
@startuml
skinparam titleBorderRoundCorner 15
skinparam titleBorderThickness 2
skinparam titleBorderColor blue
skinparam titleBackgroundColor Chartreuse
skinparam groupInheritance 3
skinparam linetype ortho



title Anwendungsfall - Diagramm


:Kunde: as ku
:Normalkunde: as nku
:Großhandelsabnehmer: as gha
:Hauskunde: as hku

left to right direction

:Verkaufspersonal: as vp
:Geschäftsleitung: as gl

nku - -> ku
vp - -> hku
gha - -> hku
hku - -> ku

database "System" as sys

rectangle "coole Warenwirtschaftssystembox"{

    package "Accountverwaltung"{
        (Account erstellen) as acc
        (Account löschen) as accdel

    }

    (Termin eintragen) as date
    
    (Etikett drucken) as et_dr
        (Waren und/oder Geldbewegung\narchivieren)
    (Stornierung archivieren)




    package "Kassensystem"{
            (Barzahlung) as bg_ez
            (Rückgeld geben) as bg_az
            (Wechselgeld berechnen) as we_br
            (Summenberechnung der Grundpreise) as sdg
            (Rabattberechnung) as rab
            (Mehrwehrtsteuerberechnung) as mwst
            (Endpreis ausgeben) as epa

            (einfache Stornierung) as l_st
            (globale Stornierung) as g_st

            (Artikel zu Warenkorb hinzufügen) as azw
            (Produkt einscannen) as scan

            vp - - Kassensystem

            gl - - date
            gl - - acc
            gl - - accdel

            gl - -> vp


            ku - - bg_ez



            sys - - we_br

            bg_ez <.. bg_az: <<include>>
            bg_az ..> we_br: <<include>>
            we_br ..> bg_ez: <<include>>
            l_st <.. g_st: <<extend>>
            l_st ..> scan: <<include>>
            azw ..> scan: <<include>>
            sdg ..> azw: <<include>>
            rab ..> sdg: <<include>>
            mwst ..> rab: <<include>>
            epa ..> mwst: <<include>>




        }

    package - - - {
        :i_i_i_i: as a
        a .. a
    }


    package "Inventur"{
        (Bestand erfassen)
        (abweichenden Bestand festgestellt) as abf
        (Manager benachrichtigen) as glb
        (Bestand berichtigen) as bb

        sys - - abf
        sys - - glb
        gl - - bb
    }


    package "Bestellung"{
        (Bestellung abschicken) as ba
        (günstigsten Preis finden) as gpf
        (Bestellung erstellen) as bers
        (Bestellung empfangen) as bempf
        (Bestellung inventarisieren) as binvent

        gpf <.. bers: <<include>>
        ba <.. gpf: <<include>>
        bempf <.. binvent: <<include>>
        sys - - binvent
    }


    package "Händlerverwaltung"{
        (Händler hinzufügen)
        (Händler löschen)
        (Händlerdaten bearbeiten)

        gl - - Händlerverwaltung
    }

    package "Produktverwaltung"{
        (Produkt hinzufügen)
        (Produkt löschen)
        (Produktdaten bearbeiten)
        (Großhändlerproduktbestellliste \nimportieren)
        (Produkt zur Verkaufsdatenbank hinzufügen)
        (Produkt von der Verkaufsdatenbank löschen)

        gl - - Produktverwaltung
    }








}

@enduml

PlantUML version 1.2018.11(Sat Sep 22 18:43:53 CEST 2018)
(GPL source distribution)
Java Runtime: OpenJDK Runtime Environment
JVM: OpenJDK 64-Bit Server VM
Java Version: 10.0.2+13-Ubuntu-1ubuntu0.18.04.1
Operating System: Linux
OS Version: 4.15.0-33-generic
Default Encoding: UTF-8
Language: en
Country: US
--></g></svg>