<?xml version="1.0" encoding="UTF-8" standalone="no"?><svg xmlns="http://www.w3.org/2000/svg" xmlns:xlink="http://www.w3.org/1999/xlink" contentScriptType="application/ecmascript" contentStyleType="text/css" height="1119px" preserveAspectRatio="none" style="width:1816px;height:1119px;" version="1.1" viewBox="0 0 1816 1119" width="1816px" zoomAndPan="magnify"><defs><filter height="300%" id="f1t6cdq7fy0o7e" width="300%" x="-1" y="-1"><feGaussianBlur result="blurOut" stdDeviation="2.0"/><feColorMatrix in="blurOut" result="blurOut2" type="matrix" values="0 0 0 0 0 0 0 0 0 0 0 0 0 0 0 0 0 0 .4 0"/><feOffset dx="4.0" dy="4.0" in="blurOut2" result="blurOut3"/><feBlend in="SourceGraphic" in2="blurOut3" mode="normal"/></filter></defs><g><rect fill="#7FFF00" height="30.9531" rx="7.5" ry="7.5" style="stroke: #0000FF; stroke-width: 2.0;" width="266" x="782" y="2"/><text fill="#000000" font-family="sans-serif" font-size="18" lengthAdjust="spacingAndGlyphs" textLength="250" x="790" y="23.708">Anwendungsfall - Diagramm</text><!--cluster coole Box--><rect fill="#FFFFFF" filter="url(#f1t6cdq7fy0o7e)" height="901" style="stroke: #000000; stroke-width: 1.5;" width="1405" x="400" y="90.9531"/><text fill="#000000" font-family="sans-serif" font-size="14" font-weight="bold" lengthAdjust="spacingAndGlyphs" textLength="77" x="1064" y="105.9482">coole Box</text><!--cluster Kassensystem--><rect fill="#FFFFFF" filter="url(#f1t6cdq7fy0o7e)" height="302" style="stroke: #000000; stroke-width: 1.5;" width="1358.5" x="438.5" y="491.9531"/><text fill="#000000" font-family="sans-serif" font-size="14" font-weight="bold" lengthAdjust="spacingAndGlyphs" textLength="115" x="1060.25" y="506.9482">Kassensystem</text><ellipse cx="532.098" cy="816.9768" fill="#FEFECE" filter="url(#f1t6cdq7fy0o7e)" rx="42.598" ry="14.5236" style="stroke: #A80036; stroke-width: 1.5;"/><text fill="#000000" font-family="sans-serif" font-size="14" lengthAdjust="spacingAndGlyphs" textLength="56" x="504.098" y="821.6252">Inventur</text><ellipse cx="531.7711" cy="382.7073" fill="#FEFECE" filter="url(#f1t6cdq7fy0o7e)" rx="76.7711" ry="17.7542" style="stroke: #A80036; stroke-width: 1.5;"/><text fill="#000000" font-family="sans-serif" font-size="14" lengthAdjust="spacingAndGlyphs" textLength="123" x="470.2711" y="387.3558">Produkt tauschen</text><ellipse cx="532.1048" cy="459.9275" fill="#FEFECE" filter="url(#f1t6cdq7fy0o7e)" rx="106.6048" ry="23.9743" style="stroke: #A80036; stroke-width: 1.5;"/><text fill="#000000" font-family="sans-serif" font-size="14" lengthAdjust="spacingAndGlyphs" textLength="161" x="451.6048" y="459.5207">Großkundendatenbank</text><text fill="#000000" font-family="sans-serif" font-size="14" lengthAdjust="spacingAndGlyphs" textLength="79" x="492.6048" y="475.8176">importieren</text><ellipse cx="532.1626" cy="139.9857" fill="#FEFECE" filter="url(#f1t6cdq7fy0o7e)" rx="98.1626" ry="22.0325" style="stroke: #A80036; stroke-width: 1.5;"/><text fill="#000000" font-family="sans-serif" font-size="14" lengthAdjust="spacingAndGlyphs" textLength="172" x="446.1626" y="144.6341">Verkaufspreis kalkulieren</text><ellipse cx="532.1107" cy="890.7456" fill="#FEFECE" filter="url(#f1t6cdq7fy0o7e)" rx="95.1107" ry="24.2924" style="stroke: #A80036; stroke-width: 1.5;"/><text fill="#000000" font-family="sans-serif" font-size="14" lengthAdjust="spacingAndGlyphs" textLength="85" x="489.6107" y="884.652">Eingabe von</text><text fill="#000000" font-family="sans-serif" font-size="14" lengthAdjust="spacingAndGlyphs" textLength="141" x="461.6107" y="900.9488">Normalkundendaten</text><ellipse cx="531.9543" cy="966.744" fill="#FEFECE" filter="url(#f1t6cdq7fy0o7e)" rx="69.4543" ry="16.2909" style="stroke: #A80036; stroke-width: 1.5;"/><text fill="#000000" font-family="sans-serif" font-size="14" lengthAdjust="spacingAndGlyphs" textLength="105" x="479.4543" y="971.3924">Etikett drucken</text><ellipse cx="531.9095" cy="308.035" fill="#FEFECE" filter="url(#f1t6cdq7fy0o7e)" rx="95.9095" ry="21.5819" style="stroke: #A80036; stroke-width: 1.5;"/><text fill="#000000" font-family="sans-serif" font-size="14" lengthAdjust="spacingAndGlyphs" textLength="167" x="448.4095" y="312.6835">Bestellvorgang erfassen</text><ellipse cx="531.9327" cy="224.1397" fill="#FEFECE" filter="url(#f1t6cdq7fy0o7e)" rx="123.9327" ry="27.1865" style="stroke: #A80036; stroke-width: 1.5;"/><text fill="#000000" font-family="sans-serif" font-size="14" lengthAdjust="spacingAndGlyphs" textLength="222" x="420.9327" y="227.3371">Waren und/oder Geldbewegung</text><text fill="#000000" font-family="sans-serif" font-size="14" lengthAdjust="spacingAndGlyphs" textLength="75" x="494.4327" y="243.634">archivieren</text><ellipse cx="888.7771" cy="382.9085" fill="#FEFECE" filter="url(#f1t6cdq7fy0o7e)" rx="92.7771" ry="20.9554" style="stroke: #A80036; stroke-width: 1.5;"/><text fill="#000000" font-family="sans-serif" font-size="14" lengthAdjust="spacingAndGlyphs" textLength="160" x="808.7771" y="387.557">Stornierung archivieren</text><ellipse cx="889.2471" cy="309.9026" fill="#FEFECE" filter="url(#f1t6cdq7fy0o7e)" rx="70.2471" ry="16.4494" style="stroke: #A80036; stroke-width: 1.5;"/><text fill="#000000" font-family="sans-serif" font-size="14" lengthAdjust="spacingAndGlyphs" textLength="107" x="835.7471" y="314.551">Ware einkaufen</text><ellipse cx="889.0557" cy="233.8643" fill="#FEFECE" filter="url(#f1t6cdq7fy0o7e)" rx="110.0557" ry="24.4111" style="stroke: #A80036; stroke-width: 1.5;"/><text fill="#000000" font-family="sans-serif" font-size="14" lengthAdjust="spacingAndGlyphs" textLength="198" x="790.0557" y="238.5127">günstigsten Anbieter wählen</text><ellipse cx="532.1884" cy="576.7908" fill="#FEFECE" filter="url(#f1t6cdq7fy0o7e)" rx="77.1884" ry="17.8377" style="stroke: #A80036; stroke-width: 1.5;"/><text fill="#000000" font-family="sans-serif" font-size="14" lengthAdjust="spacingAndGlyphs" textLength="124" x="470.1884" y="581.4393">Bargeld einzahlen</text><ellipse cx="1203.8678" cy="624.1267" fill="#FEFECE" filter="url(#f1t6cdq7fy0o7e)" rx="78.8678" ry="18.1736" style="stroke: #A80036; stroke-width: 1.5;"/><text fill="#000000" font-family="sans-serif" font-size="14" lengthAdjust="spacingAndGlyphs" textLength="128" x="1139.8678" y="628.7751">Bargeld auszahlen</text><ellipse cx="1203.7711" cy="767.7073" fill="#FEFECE" filter="url(#f1t6cdq7fy0o7e)" rx="76.7711" ry="17.7542" style="stroke: #A80036; stroke-width: 1.5;"/><text fill="#000000" font-family="sans-serif" font-size="14" lengthAdjust="spacingAndGlyphs" textLength="123" x="1142.2711" y="772.3558">Bargeld wechseln</text><ellipse cx="1691.8093" cy="581.715" fill="#FEFECE" filter="url(#f1t6cdq7fy0o7e)" rx="96.8093" ry="21.7619" style="stroke: #A80036; stroke-width: 1.5;"/><text fill="#000000" font-family="sans-serif" font-size="14" lengthAdjust="spacingAndGlyphs" textLength="169" x="1607.3093" y="586.3634">Wechselgeld berechnen</text><ellipse cx="532.228" cy="703.9987" fill="#FEFECE" filter="url(#f1t6cdq7fy0o7e)" rx="85.728" ry="19.5456" style="stroke: #A80036; stroke-width: 1.5;"/><text fill="#000000" font-family="sans-serif" font-size="14" lengthAdjust="spacingAndGlyphs" textLength="144" x="460.228" y="708.6472">einfache Stornierung</text><ellipse cx="1203.8427" cy="695.7217" fill="#FEFECE" filter="url(#f1t6cdq7fy0o7e)" rx="81.8427" ry="18.7685" style="stroke: #A80036; stroke-width: 1.5;"/><text fill="#000000" font-family="sans-serif" font-size="14" lengthAdjust="spacingAndGlyphs" textLength="135" x="1136.3427" y="700.3701">globale Stornierung</text><!--entity ku--><ellipse cx="287" cy="546.4531" fill="#FEFECE" filter="url(#f1t6cdq7fy0o7e)" rx="8" ry="8" style="stroke: #A80036; stroke-width: 2.0;"/><path d="M287,554.4531 L287,581.4531 M274,562.4531 L300,562.4531 M287,581.4531 L274,596.4531 M287,581.4531 L300,596.4531 " fill="none" filter="url(#f1t6cdq7fy0o7e)" style="stroke: #A80036; stroke-width: 2.0;"/><text fill="#000000" font-family="sans-serif" font-size="14" lengthAdjust="spacingAndGlyphs" textLength="45" x="264.5" y="616.4482">Kunde</text><!--entity nku--><ellipse cx="86" cy="369.4531" fill="#FEFECE" filter="url(#f1t6cdq7fy0o7e)" rx="8" ry="8" style="stroke: #A80036; stroke-width: 2.0;"/><path d="M86,377.4531 L86,404.4531 M73,385.4531 L99,385.4531 M86,404.4531 L73,419.4531 M86,404.4531 L99,419.4531 " fill="none" filter="url(#f1t6cdq7fy0o7e)" style="stroke: #A80036; stroke-width: 2.0;"/><text fill="#000000" font-family="sans-serif" font-size="14" lengthAdjust="spacingAndGlyphs" textLength="92" x="40" y="439.4482">Normalkunde</text><!--entity pku--><ellipse cx="86" cy="487.4531" fill="#FEFECE" filter="url(#f1t6cdq7fy0o7e)" rx="8" ry="8" style="stroke: #A80036; stroke-width: 2.0;"/><path d="M86,495.4531 L86,522.4531 M73,503.4531 L99,503.4531 M86,522.4531 L73,537.4531 M86,522.4531 L99,537.4531 " fill="none" filter="url(#f1t6cdq7fy0o7e)" style="stroke: #A80036; stroke-width: 2.0;"/><text fill="#000000" font-family="sans-serif" font-size="14" lengthAdjust="spacingAndGlyphs" textLength="60" x="56" y="557.4482">Personal</text><!--entity gha--><ellipse cx="86" cy="605.4531" fill="#FEFECE" filter="url(#f1t6cdq7fy0o7e)" rx="8" ry="8" style="stroke: #A80036; stroke-width: 2.0;"/><path d="M86,613.4531 L86,640.4531 M73,621.4531 L99,621.4531 M86,640.4531 L73,655.4531 M86,640.4531 L99,655.4531 " fill="none" filter="url(#f1t6cdq7fy0o7e)" style="stroke: #A80036; stroke-width: 2.0;"/><text fill="#000000" font-family="sans-serif" font-size="14" lengthAdjust="spacingAndGlyphs" textLength="160" x="6" y="675.4482">Großhandelsabnehmer</text><!--entity hku--><ellipse cx="86" cy="723.4531" fill="#FEFECE" filter="url(#f1t6cdq7fy0o7e)" rx="8" ry="8" style="stroke: #A80036; stroke-width: 2.0;"/><path d="M86,731.4531 L86,758.4531 M73,739.4531 L99,739.4531 M86,758.4531 L73,773.4531 M86,758.4531 L99,773.4531 " fill="none" filter="url(#f1t6cdq7fy0o7e)" style="stroke: #A80036; stroke-width: 2.0;"/><text fill="#000000" font-family="sans-serif" font-size="14" lengthAdjust="spacingAndGlyphs" textLength="79" x="46.5" y="793.4482">Hauskunde</text><!--entity vp--><ellipse cx="287" cy="905.4531" fill="#FEFECE" filter="url(#f1t6cdq7fy0o7e)" rx="8" ry="8" style="stroke: #A80036; stroke-width: 2.0;"/><path d="M287,913.4531 L287,940.4531 M274,921.4531 L300,921.4531 M287,940.4531 L274,955.4531 M287,940.4531 L300,955.4531 " fill="none" filter="url(#f1t6cdq7fy0o7e)" style="stroke: #A80036; stroke-width: 2.0;"/><text fill="#000000" font-family="sans-serif" font-size="14" lengthAdjust="spacingAndGlyphs" textLength="120" x="227" y="975.4482">Verkaufspersonal</text><!--entity gl--><ellipse cx="287" cy="428.4531" fill="#FEFECE" filter="url(#f1t6cdq7fy0o7e)" rx="8" ry="8" style="stroke: #A80036; stroke-width: 2.0;"/><path d="M287,436.4531 L287,463.4531 M274,444.4531 L300,444.4531 M287,463.4531 L274,478.4531 M287,463.4531 L300,478.4531 " fill="none" filter="url(#f1t6cdq7fy0o7e)" style="stroke: #A80036; stroke-width: 2.0;"/><text fill="#000000" font-family="sans-serif" font-size="14" lengthAdjust="spacingAndGlyphs" textLength="117" x="228.5" y="498.4482">Geschäftsleitung</text><!--entity sys--><ellipse cx="287" cy="54.4531" fill="#FEFECE" filter="url(#f1t6cdq7fy0o7e)" rx="8" ry="8" style="stroke: #A80036; stroke-width: 2.0;"/><path d="M287,62.4531 L287,89.4531 M274,70.4531 L300,70.4531 M287,89.4531 L274,104.4531 M287,89.4531 L300,104.4531 " fill="none" filter="url(#f1t6cdq7fy0o7e)" style="stroke: #A80036; stroke-width: 2.0;"/><text fill="#000000" font-family="sans-serif" font-size="14" lengthAdjust="spacingAndGlyphs" textLength="51" x="261.5" y="124.4482">System</text><!--link nku to ku--><path d="M132.1053,433.2844 C143.425,441.674 155.3461,450.9036 166,459.9531 C170.9358,464.1456 226.6232,518.6879 260.7061,552.1318 " fill="none" id="nku-ku" style="stroke: #A80036; stroke-width: 1.0;"/><polygon fill="#A80036" points="264.3422,555.7001,260.7203,546.5414,260.7735,552.198,255.1169,552.2513,264.3422,555.7001" style="stroke: #A80036; stroke-width: 1.0;"/><!--link pku to ku--><path d="M116.0917,527.786 C154.9764,539.1999 222.1209,558.909 259.6304,569.9192 " fill="none" id="pku-ku" style="stroke: #A80036; stroke-width: 1.0;"/><polygon fill="#A80036" points="264.4983,571.3481,256.9893,564.9751,259.7007,569.9398,254.736,572.6513,264.4983,571.3481" style="stroke: #A80036; stroke-width: 1.0;"/><!--link gha to ku--><path d="M166.0181,613.4652 C199.1333,603.7448 235.3469,593.115 259.4396,586.043 " fill="none" id="gha-ku" style="stroke: #A80036; stroke-width: 1.0;"/><polygon fill="#A80036" points="264.3912,584.5895,254.6289,583.2866,259.5937,585.9979,256.8824,590.9627,264.3912,584.5895" style="stroke: #A80036; stroke-width: 1.0;"/><!--link hku to ku--><path d="M125.8904,727.1899 C138.9664,717.6567 153.3731,706.6785 166,695.9531 C200.177,666.9229 236.6699,630.501 260.5338,605.8582 " fill="none" id="hku-ku" style="stroke: #A80036; stroke-width: 1.0;"/><polygon fill="#A80036" points="264.2531,602.0073,255.1235,605.702,260.7795,605.6038,260.8778,611.2598,264.2531,602.0073" style="stroke: #A80036; stroke-width: 1.0;"/><!--link ku to bg_ez--><path d="M309.6099,577.8608 C342.3642,577.7271 404.5997,577.4731 454.9218,577.2677 " fill="none" id="ku-bg_ez" style="stroke: #A80036; stroke-width: 1.0;"/><!--link vp to bg_we--><path d="M307.2772,978.6126 C322.7723,1006.3107 346.6233,1041.4247 377,1062.9531 C435.5257,1104.4311 460.2666,1107.9531 532,1107.9531 C532,1107.9531 532,1107.9531 1060.5,1107.9531 C1130.9768,1107.9531 1186.3,856.8545 1200.4659,786.233 " fill="none" id="vp-bg_we" style="stroke: #A80036; stroke-width: 1.0;"/><!--link vp to bg_az--><path d="M347.1722,976.7631 C395.1513,1004.6499 465.1553,1036.9531 532,1036.9531 C532,1036.9531 532,1036.9531 1060.5,1036.9531 C1145.6045,1036.9531 1069.5303,725.9584 1122,658.9531 C1129.4436,649.4474 1139.9637,642.485 1150.9945,637.3986 " fill="none" id="vp-bg_az" style="stroke: #A80036; stroke-width: 1.0;"/><!--link vp to l_st--><path d="M297.4906,895.2882 C311.9987,846.7552 343.0831,768.0026 400,726.9531 C413.8672,716.9518 430.6526,710.7975 447.5374,707.1056 " fill="none" id="vp-l_st" style="stroke: #A80036; stroke-width: 1.0;"/><!--link sys to we_br--><path d="M312.6874,82.2952 C357.2326,76.2785 451.7415,64.9531 532,64.9531 C532,64.9531 532,64.9531 1533.5,64.9531 C1638.646,64.9531 1681.1381,460.7812 1690.1182,559.7383 " fill="none" id="sys-we_br" style="stroke: #A80036; stroke-width: 1.0;"/><!--link bg_ez to bg_we--><path d="M564.7239,596.6791 C591.0483,613.4533 628.1156,639.1839 656,666.9531 C688.7853,699.603 671.2303,750.9531 717.5,750.9531 C717.5,750.9531 717.5,750.9531 1060.5,750.9531 C1087.2181,750.9531 1116.5413,753.8953 1141.678,757.3316 " fill="none" id="bg_ez-bg_we" style="stroke: #A80036; stroke-width: 1.0; stroke-dasharray: 7.0,7.0;"/><polygon fill="#A80036" points="560.267,593.8592,565.7337,602.0516,564.4923,596.5326,570.0112,595.2912,560.267,593.8592" style="stroke: #A80036; stroke-width: 1.0;"/><text fill="#000000" font-family="sans-serif" font-size="13" lengthAdjust="spacingAndGlyphs" textLength="61" x="858.5" y="747.02">«include»</text><!--link bg_ez to bg_az--><path d="M614.2881,576.9531 C646.4815,576.9531 683.7207,576.9531 717.5,576.9531 C717.5,576.9531 717.5,576.9531 1060.5,576.9531 C1100.7407,576.9531 1144.3167,593.8511 1172.7605,607.3827 " fill="none" id="bg_ez-bg_az" style="stroke: #A80036; stroke-width: 1.0; stroke-dasharray: 7.0,7.0;"/><polygon fill="#A80036" points="609.1658,576.9531,618.1658,580.9531,614.1658,576.9531,618.1658,572.9531,609.1658,576.9531" style="stroke: #A80036; stroke-width: 1.0;"/><text fill="#000000" font-family="sans-serif" font-size="13" lengthAdjust="spacingAndGlyphs" textLength="61" x="858.5" y="573.02">«include»</text><!--link bg_az to we_br--><path d="M1267.3866,613.1867 C1292.2842,609.813 1321.1582,606.9531 1347.5,606.9531 C1347.5,606.9531 1347.5,606.9531 1533.5,606.9531 C1561.4299,606.9531 1591.7939,603.1186 1618.4015,598.453 " fill="none" id="bg_az-we_br" style="stroke: #A80036; stroke-width: 1.0; stroke-dasharray: 7.0,7.0;"/><polygon fill="#A80036" points="1623.3245,597.5729,1613.7611,595.2191,1618.4025,598.4528,1615.1688,603.0942,1623.3245,597.5729" style="stroke: #A80036; stroke-width: 1.0;"/><text fill="#000000" font-family="sans-serif" font-size="13" lengthAdjust="spacingAndGlyphs" textLength="61" x="1410" y="603.02">«include»</text><!--link bg_we to we_br--><path d="M1241.6965,752.1889 C1280.4225,736.2501 1336.553,713.9531 1347.5,713.9531 C1347.5,713.9531 1347.5,713.9531 1533.5,713.9531 C1598.7097,713.9531 1651.3466,647.1644 1676.3028,608.6032 " fill="none" id="bg_we-we_br" style="stroke: #A80036; stroke-width: 1.0; stroke-dasharray: 7.0,7.0;"/><polygon fill="#A80036" points="1679.208,604.0469,1670.9966,609.485,1676.5198,608.2628,1677.742,613.7861,1679.208,604.0469" style="stroke: #A80036; stroke-width: 1.0;"/><text fill="#000000" font-family="sans-serif" font-size="13" lengthAdjust="spacingAndGlyphs" textLength="61" x="1410" y="710.02">«include»</text><!--link we_br to bg_ez--><path d="M1648.5707,562.178 C1617.2562,549.7104 1573.6139,535.9531 1533.5,535.9531 C1316.5,535.9531 1316.5,535.9531 1316.5,535.9531 C1077.5053,535.9531 1017.4851,536.3543 779,551.9531 C720.5786,555.7743 654.6137,562.579 605.5587,568.1252 " fill="none" id="we_br-bg_ez" style="stroke: #A80036; stroke-width: 1.0; stroke-dasharray: 7.0,7.0;"/><polygon fill="#A80036" points="600.5653,568.692,609.9591,571.6513,605.5334,568.128,609.0567,563.7024,600.5653,568.692" style="stroke: #A80036; stroke-width: 1.0;"/><text fill="#000000" font-family="sans-serif" font-size="13" lengthAdjust="spacingAndGlyphs" textLength="61" x="1173.5" y="533.02">«include»</text><!--link l_st to g_st--><path d="M585.0744,686.2484 C621.8204,675.5451 672.0976,663.9531 717.5,663.9531 C717.5,663.9531 717.5,663.9531 1060.5,663.9531 C1093.555,663.9531 1129.8884,672.1417 1157.7248,680.2343 " fill="none" id="l_st-g_st" style="stroke: #A80036; stroke-width: 1.0; stroke-dasharray: 7.0,7.0;"/><polygon fill="#A80036" points="580.2085,687.6836,589.9724,688.9742,585.0043,686.2692,587.7093,681.301,580.2085,687.6836" style="stroke: #A80036; stroke-width: 1.0;"/><text fill="#000000" font-family="sans-serif" font-size="13" lengthAdjust="spacingAndGlyphs" textLength="60" x="859" y="660.02">«extend»</text><!--link vp to inv--><path d="M331.3045,895.3357 C351.041,878.7636 375.3682,860.8439 400,848.9531 C429.1989,834.8576 465.112,826.6722 492.1033,822.1145 " fill="none" id="vp-inv" style="stroke: #A80036; stroke-width: 1.0;"/><!--link vp to et_dr--><path d="M347.2475,944.3303 C384.5104,948.8932 432.2401,954.7376 469.8514,959.3431 " fill="none" id="vp-et_dr" style="stroke: #A80036; stroke-width: 1.0;"/><!--link vp to eg_nkd--><path d="M347.2475,925.6413 C379.6932,919.5495 420.0743,911.9677 454.8017,905.4475 " fill="none" id="vp-eg_nkd" style="stroke: #A80036; stroke-width: 1.0;"/><!--link gl to grokudb_imp--><path d="M345.6836,459.9531 C369.608,459.9531 398.0381,459.9531 425.3927,459.9531 " fill="none" id="gl-grokudb_imp" style="stroke: #A80036; stroke-width: 1.0;"/><!--link sys to vp_calc--><path d="M312.7562,91.63 C347.8319,99.361 411.961,113.4955 461.8358,124.4883 " fill="none" id="sys-vp_calc" style="stroke: #A80036; stroke-width: 1.0;"/><!--link Produkt tauschen to Bestellvorgang erfassen--><!--link Bestellvorgang erfassen to Waren und/oder Geldbewegung\narchivieren--><!--link Produkt tauschen to Stornierung archivieren--><!--link Stornierung archivieren to Ware einkaufen--><!--link Ware einkaufen to günstigsten Anbieter wählen--><!--
@startuml
skinparam titleBorderRoundCorner 15
skinparam titleBorderThickness 2
skinparam titleBorderColor blue
skinparam titleBackgroundColor Chartreuse

title Anwendungsfall - Diagramm


:Kunde: as ku
:Normalkunde: as nku
:Personal: as pku
:Großhandelsabnehmer: as gha
:Hauskunde: as hku

left to right direction
nku - -> ku
pku - -> ku
gha - -> ku
hku - -> ku


:Verkaufspersonal: as vp
:Geschäftsleitung: as gl

:System: as sys

rectangle "coole Box"{
    (Inventur) as inv
    (Produkt tauschen)
    (Großkundendatenbank\nimportieren) as grokudb_imp
    (Verkaufspreis kalkulieren) as vp_calc
    (Eingabe von\nNormalkundendaten) as eg_nkd
    (Etikett drucken) as et_dr
    (Bestellvorgang erfassen)
    (Waren und/oder Geldbewegung\narchivieren)
    (Stornierung archivieren)
    (Ware einkaufen)
    (günstigsten Anbieter wählen)


    rectangle "Kassensystem"{
            (Bargeld einzahlen) as bg_ez
            (Bargeld auszahlen) as bg_az
            (Bargeld wechseln) as bg_we
            (Wechselgeld berechnen) as we_br

            (einfache Stornierung) as l_st
            (globale Stornierung) as g_st


            ku - - bg_ez

            vp - - bg_we
            vp - - bg_az
            vp - - l_st


            sys - - we_br

            bg_ez <.. bg_we: <<include>>
            bg_ez <.. bg_az: <<include>>
            bg_az ..> we_br: <<include>>
            bg_we ..> we_br: <<include>>
            we_br ..> bg_ez: <<include>>
            l_st <.. g_st: <<extend>>

        }





    vp - - inv
    vp - - et_dr
    vp - - eg_nkd



    gl - - grokudb_imp

    sys - - vp_calc





}

@enduml

PlantUML version 1.2018.11(Sat Sep 22 18:43:53 CEST 2018)
(GPL source distribution)
Java Runtime: OpenJDK Runtime Environment
JVM: OpenJDK 64-Bit Server VM
Java Version: 10.0.2+13-Ubuntu-1ubuntu0.18.04.2
Operating System: Linux
OS Version: 4.15.0-36-generic
Default Encoding: UTF-8
Language: de
Country: DE
--></g></svg>