<?xml version="1.0" encoding="UTF-8" standalone="no"?><svg xmlns="http://www.w3.org/2000/svg" xmlns:xlink="http://www.w3.org/1999/xlink" contentScriptType="application/ecmascript" contentStyleType="text/css" height="1561px" preserveAspectRatio="none" style="width:2264px;height:1561px;" version="1.1" viewBox="0 0 2264 1561" width="2264px" zoomAndPan="magnify"><defs><filter height="300%" id="f17ztacmgzlg8g" width="300%" x="-1" y="-1"><feGaussianBlur result="blurOut" stdDeviation="2.0"/><feColorMatrix in="blurOut" result="blurOut2" type="matrix" values="0 0 0 0 0 0 0 0 0 0 0 0 0 0 0 0 0 0 .4 0"/><feOffset dx="4.0" dy="4.0" in="blurOut2" result="blurOut3"/><feBlend in="SourceGraphic" in2="blurOut3" mode="normal"/></filter><linearGradient id="g17ztacmgzlg8g0" x1="0%" x2="100%" y1="0%" y2="100%"><stop offset="0%" stop-color="#C0C0C0"/><stop offset="100%" stop-color="#FFFFFF"/></linearGradient><linearGradient id="g17ztacmgzlg8g1" x1="0%" x2="100%" y1="0%" y2="100%"><stop offset="0%" stop-color="#6495ED"/><stop offset="100%" stop-color="#00FFFF"/></linearGradient><linearGradient id="g17ztacmgzlg8g2" x1="0%" x2="100%" y1="0%" y2="100%"><stop offset="0%" stop-color="#32CD32"/><stop offset="100%" stop-color="#90EE90"/></linearGradient><filter height="1" id="b17ztacmgzlg8g0" width="1" x="0" y="0"><feFlood flood-color="#FE8052" result="flood"/><feComposite in="SourceGraphic" in2="flood" operator="over"/></filter><filter height="1" id="b17ztacmgzlg8g1" width="1" x="0" y="0"><feFlood flood-color="#3DD13F" result="flood"/><feComposite in="SourceGraphic" in2="flood" operator="over"/></filter><filter height="1" id="b17ztacmgzlg8g2" width="1" x="0" y="0"><feFlood flood-color="#5F9AEA" result="flood"/><feComposite in="SourceGraphic" in2="flood" operator="over"/></filter></defs><g><!--cluster JavaSE-1.8--><rect fill="#FFFFFF" filter="url(#f17ztacmgzlg8g)" height="168" style="stroke: #A9A9A9; stroke-width: 1.5;" width="154" x="1565" y="359"/><text fill="#808080" font-family="sans-serif" font-size="14" font-weight="bold" lengthAdjust="spacingAndGlyphs" textLength="76" x="1604" y="375.5332">JavaSE-1.8</text><!--cluster java.lang--><polygon fill="#FFFFFF" filter="url(#f17ztacmgzlg8g)" points="1589,403,1658,403,1665,426.6094,1695,426.6094,1695,503,1589,503,1589,403" style="stroke: #A9A9A9; stroke-width: 1.5;"/><line style="stroke: #A9A9A9; stroke-width: 1.5;" x1="1589" x2="1665" y1="426.6094" y2="426.6094"/><text fill="#808080" font-family="sans-serif" font-size="14" font-weight="bold" lengthAdjust="spacingAndGlyphs" textLength="63" x="1593" y="419.5332">java.lang</text><!--cluster Bioladen--><rect fill="#FFFFFF" filter="url(#f17ztacmgzlg8g)" height="1218" style="stroke: #A9A9A9; stroke-width: 1.5;" width="1519" x="22" y="24"/><text fill="#808080" font-family="sans-serif" font-size="14" font-weight="bold" lengthAdjust="spacingAndGlyphs" textLength="62" x="750.5" y="40.5332">Bioladen</text><!--cluster bioladen.data.log--><polygon fill="#FFFFFF" filter="url(#f17ztacmgzlg8g)" points="781,560,908,560,915,583.6094,1517,583.6094,1517,1218,781,1218,781,560" style="stroke: #A9A9A9; stroke-width: 1.5;"/><line style="stroke: #A9A9A9; stroke-width: 1.5;" x1="781" x2="915" y1="583.6094" y2="583.6094"/><text fill="#808080" font-family="sans-serif" font-size="14" font-weight="bold" lengthAdjust="spacingAndGlyphs" textLength="121" x="785" y="576.5332">bioladen.data.log</text><!--cluster bioladen.data.statistic--><polygon fill="#FFFFFF" filter="url(#f17ztacmgzlg8g)" points="239,68,399,68,406,91.6094,757,91.6094,757,921,239,921,239,68" style="stroke: #A9A9A9; stroke-width: 1.5;"/><line style="stroke: #A9A9A9; stroke-width: 1.5;" x1="239" x2="406" y1="91.6094" y2="91.6094"/><text fill="#808080" font-family="sans-serif" font-size="14" font-weight="bold" lengthAdjust="spacingAndGlyphs" textLength="154" x="243" y="84.5332">bioladen.data.statistic</text><!--cluster ressources.templates--><polygon fill="#FFFFFF" filter="url(#f17ztacmgzlg8g)" points="46,813.5,205,813.5,212,837.1094,215,837.1094,215,920.5,46,920.5,46,813.5" style="stroke: #A9A9A9; stroke-width: 1.5;"/><line style="stroke: #A9A9A9; stroke-width: 1.5;" x1="46" x2="212" y1="837.1094" y2="837.1094"/><text fill="#808080" font-family="sans-serif" font-size="14" font-weight="bold" lengthAdjust="spacingAndGlyphs" textLength="153" x="50" y="830.0332">ressources.templates</text><!--cluster salespoint-framework-7.0.0.RELEASE.jar--><rect fill="#FFFFFF" filter="url(#f17ztacmgzlg8g)" height="176" style="stroke: #A9A9A9; stroke-width: 1.5;" width="294" x="1959" y="769"/><text fill="#808080" font-family="sans-serif" font-size="14" font-weight="bold" lengthAdjust="spacingAndGlyphs" textLength="278" x="1967" y="785.5332">salespoint-framework-7.0.0.RELEASE.jar</text><!--cluster org.salespointframework.time--><polygon fill="#FFFFFF" filter="url(#f17ztacmgzlg8g)" points="1983,813,2198,813,2205,836.6094,2208,836.6094,2208,921,1983,921,1983,813" style="stroke: #A9A9A9; stroke-width: 1.5;"/><line style="stroke: #A9A9A9; stroke-width: 1.5;" x1="1983" x2="2205" y1="836.6094" y2="836.6094"/><text fill="#808080" font-family="sans-serif" font-size="14" font-weight="bold" lengthAdjust="spacingAndGlyphs" textLength="209" x="1987" y="829.5332">org.salespointframework.time</text><!--cluster spring--><rect fill="#FFFFFF" filter="url(#f17ztacmgzlg8g)" height="677" style="stroke: #A9A9A9; stroke-width: 1.5;" width="370" x="1565" y="755"/><text fill="#808080" font-family="sans-serif" font-size="14" font-weight="bold" lengthAdjust="spacingAndGlyphs" textLength="283" x="1608.5" y="771.5332">spring-data-comments-2.1.0.RELEASE.jar</text><!--cluster org.springframework.context--><polygon fill="#FFFFFF" filter="url(#f17ztacmgzlg8g)" points="1589,799,1799,799,1806,822.6094,1911,822.6094,1911,1408,1589,1408,1589,799" style="stroke: #A9A9A9; stroke-width: 1.5;"/><line style="stroke: #A9A9A9; stroke-width: 1.5;" x1="1589" x2="1806" y1="822.6094" y2="822.6094"/><text fill="#808080" font-family="sans-serif" font-size="14" font-weight="bold" lengthAdjust="spacingAndGlyphs" textLength="204" x="1593" y="815.5332">org.springframework.context</text><!--class java.lang.Iterable--><rect fill="url(#g17ztacmgzlg8g0)" filter="url(#f17ztacmgzlg8g)" height="48" id="java.lang.Iterable" style="stroke: #000000; stroke-width: 1.5;" width="73" x="1605.5" y="439"/><ellipse cx="1620.5" cy="455" fill="#ADD1B2" rx="11" ry="11" style="stroke: #000000; stroke-width: 1.0;"/><path d="M1623.2656,450.875 Q1623.4219,450.6563 1623.6094,450.5469 Q1623.7969,450.4375 1624.0156,450.4375 Q1624.3906,450.4375 1624.625,450.6953 Q1624.8594,450.9531 1624.8594,451.5625 L1624.8594,453.0156 Q1624.8594,453.625 1624.625,453.8906 Q1624.3906,454.1563 1624.0156,454.1563 Q1623.6719,454.1563 1623.4688,453.9531 Q1623.2656,453.7656 1623.1563,453.25 Q1623.1094,452.8906 1622.9219,452.7031 Q1622.5938,452.3281 1621.9844,452.1094 Q1621.375,451.8906 1620.75,451.8906 Q1619.9844,451.8906 1619.3516,452.2188 Q1618.7188,452.5469 1618.2266,453.2969 Q1617.7344,454.0469 1617.7344,455.0781 L1617.7344,456.1719 Q1617.7344,457.4063 1618.625,458.2266 Q1619.5156,459.0469 1621.1094,459.0469 Q1622.0469,459.0469 1622.7031,458.7969 Q1623.0938,458.6406 1623.5156,458.2031 Q1623.7813,457.9375 1623.9297,457.8594 Q1624.0781,457.7813 1624.2813,457.7813 Q1624.6094,457.7813 1624.8672,458.0391 Q1625.125,458.2969 1625.125,458.6406 Q1625.125,458.9844 1624.7813,459.3906 Q1624.2813,459.9688 1623.4844,460.2969 Q1622.4063,460.75 1621.1094,460.75 Q1619.5938,460.75 1618.3906,460.125 Q1617.4063,459.625 1616.7188,458.5547 Q1616.0313,457.4844 1616.0313,456.2031 L1616.0313,455.0469 Q1616.0313,453.7188 1616.6484,452.5703 Q1617.2656,451.4219 1618.3594,450.8047 Q1619.4531,450.1875 1620.6875,450.1875 Q1621.4219,450.1875 1622.0703,450.3516 Q1622.7188,450.5156 1623.2656,450.875 Z "/><text fill="#000000" font-family="sans-serif" font-size="12" lengthAdjust="spacingAndGlyphs" textLength="41" x="1634.5" y="459.9102">Iterable</text><line style="stroke: #000000; stroke-width: 1.5;" x1="1606.5" x2="1677.5" y1="471" y2="471"/><line style="stroke: #000000; stroke-width: 1.5;" x1="1606.5" x2="1677.5" y1="479" y2="479"/><!--class bioladen.data.log.Logger--><rect fill="url(#g17ztacmgzlg8g0)" filter="url(#f17ztacmgzlg8g)" height="208.3828" id="bioladen.data.log.Logger" style="stroke: #000000; stroke-width: 1.5;" width="198" x="1003" y="994"/><ellipse cx="1072.25" cy="1014.0938" fill="#ADD1B2" rx="11" ry="11" style="stroke: #000000; stroke-width: 1.0;"/><path d="M1075.0156,1009.9688 Q1075.1719,1009.75 1075.3594,1009.6406 Q1075.5469,1009.5313 1075.7656,1009.5313 Q1076.1406,1009.5313 1076.375,1009.7891 Q1076.6094,1010.0469 1076.6094,1010.6563 L1076.6094,1012.1094 Q1076.6094,1012.7188 1076.375,1012.9844 Q1076.1406,1013.25 1075.7656,1013.25 Q1075.4219,1013.25 1075.2188,1013.0469 Q1075.0156,1012.8594 1074.9063,1012.3438 Q1074.8594,1011.9844 1074.6719,1011.7969 Q1074.3438,1011.4219 1073.7344,1011.2031 Q1073.125,1010.9844 1072.5,1010.9844 Q1071.7344,1010.9844 1071.1016,1011.3125 Q1070.4688,1011.6406 1069.9766,1012.3906 Q1069.4844,1013.1406 1069.4844,1014.1719 L1069.4844,1015.2656 Q1069.4844,1016.5 1070.375,1017.3203 Q1071.2656,1018.1406 1072.8594,1018.1406 Q1073.7969,1018.1406 1074.4531,1017.8906 Q1074.8438,1017.7344 1075.2656,1017.2969 Q1075.5313,1017.0313 1075.6797,1016.9531 Q1075.8281,1016.875 1076.0313,1016.875 Q1076.3594,1016.875 1076.6172,1017.1328 Q1076.875,1017.3906 1076.875,1017.7344 Q1076.875,1018.0781 1076.5313,1018.4844 Q1076.0313,1019.0625 1075.2344,1019.3906 Q1074.1563,1019.8438 1072.8594,1019.8438 Q1071.3438,1019.8438 1070.1406,1019.2188 Q1069.1563,1018.7188 1068.4688,1017.6484 Q1067.7813,1016.5781 1067.7813,1015.2969 L1067.7813,1014.1406 Q1067.7813,1012.8125 1068.3984,1011.6641 Q1069.0156,1010.5156 1070.1094,1009.8984 Q1071.2031,1009.2813 1072.4375,1009.2813 Q1073.1719,1009.2813 1073.8203,1009.4453 Q1074.4688,1009.6094 1075.0156,1009.9688 Z "/><text fill="#000000" font-family="sans-serif" font-size="12" font-style="italic" lengthAdjust="spacingAndGlyphs" textLength="55" x="1090.75" y="1011.457">«Service»</text><text fill="#000000" font-family="sans-serif" font-size="12" lengthAdjust="spacingAndGlyphs" textLength="39" x="1098.75" y="1026.5508">Logger</text><line style="stroke: #000000; stroke-width: 1.5;" x1="1004" x2="1200" y1="1034.1875" y2="1034.1875"/><line style="stroke: #000000; stroke-width: 1.5;" x1="1004" x2="1200" y1="1042.1875" y2="1042.1875"/><text fill="#000000" font-family="sans-serif" font-size="11" lengthAdjust="spacingAndGlyphs" textLength="151" x="1009" y="1057.6064">-log(LogLevel, Order) : boolean</text><text fill="#000000" font-family="sans-serif" font-size="11" lengthAdjust="spacingAndGlyphs" textLength="144" x="1009" y="1071.4424">-log(LogLevel, Sale) : boolean</text><text fill="#000000" font-family="sans-serif" font-size="11" lengthAdjust="spacingAndGlyphs" textLength="181" x="1009" y="1085.2783">-log(LogLevel, Cancellation) : boolean</text><text fill="#000000" font-family="sans-serif" font-size="11" lengthAdjust="spacingAndGlyphs" textLength="186" x="1009" y="1099.1143">-log(LogLevel, LogInventory) : boolean</text><text fill="#000000" font-family="sans-serif" font-size="11" lengthAdjust="spacingAndGlyphs" textLength="146" x="1009" y="1112.9502">-log(LogLevel, User) : boolean</text><text fill="#000000" font-family="sans-serif" font-size="11" lengthAdjust="spacingAndGlyphs" textLength="144" x="1009" y="1126.7861">+info(Object, String) : boolean</text><text fill="#000000" font-family="sans-serif" font-size="11" lengthAdjust="spacingAndGlyphs" textLength="166" x="1009" y="1140.6221">+warning(Object, String) : boolean</text><text fill="#000000" font-family="sans-serif" font-size="11" lengthAdjust="spacingAndGlyphs" textLength="150" x="1009" y="1154.458">+error(Object, String) : boolean</text><text fill="#000000" font-family="sans-serif" font-size="11" lengthAdjust="spacingAndGlyphs" textLength="146" x="1009" y="1168.2939">+getLog() : Iterable&lt;LogEntry&gt;</text><text fill="#000000" font-family="sans-serif" font-size="11" lengthAdjust="spacingAndGlyphs" textLength="47" x="1009" y="1182.1299">+getLog()</text><text fill="#000000" font-family="sans-serif" font-size="11" lengthAdjust="spacingAndGlyphs" textLength="91" x="1009" y="1195.9658">-publishLogEvent()</text><!--class bioladen.data.log.LogEntry--><rect fill="url(#g17ztacmgzlg8g0)" filter="url(#f17ztacmgzlg8g)" height="111.5313" id="bioladen.data.log.LogEntry" style="stroke: #000000; stroke-width: 1.5;" width="131" x="1222.5" y="821"/><ellipse cx="1260.45" cy="841.0938" fill="#ADD1B2" rx="11" ry="11" style="stroke: #000000; stroke-width: 1.0;"/><path d="M1263.2156,836.9688 Q1263.3719,836.75 1263.5594,836.6406 Q1263.7469,836.5313 1263.9656,836.5313 Q1264.3406,836.5313 1264.575,836.7891 Q1264.8094,837.0469 1264.8094,837.6563 L1264.8094,839.1094 Q1264.8094,839.7188 1264.575,839.9844 Q1264.3406,840.25 1263.9656,840.25 Q1263.6219,840.25 1263.4188,840.0469 Q1263.2156,839.8594 1263.1063,839.3438 Q1263.0594,838.9844 1262.8719,838.7969 Q1262.5438,838.4219 1261.9344,838.2031 Q1261.325,837.9844 1260.7,837.9844 Q1259.9344,837.9844 1259.3016,838.3125 Q1258.6688,838.6406 1258.1766,839.3906 Q1257.6844,840.1406 1257.6844,841.1719 L1257.6844,842.2656 Q1257.6844,843.5 1258.575,844.3203 Q1259.4656,845.1406 1261.0594,845.1406 Q1261.9969,845.1406 1262.6531,844.8906 Q1263.0438,844.7344 1263.4656,844.2969 Q1263.7313,844.0313 1263.8797,843.9531 Q1264.0281,843.875 1264.2313,843.875 Q1264.5594,843.875 1264.8172,844.1328 Q1265.075,844.3906 1265.075,844.7344 Q1265.075,845.0781 1264.7313,845.4844 Q1264.2313,846.0625 1263.4344,846.3906 Q1262.3563,846.8438 1261.0594,846.8438 Q1259.5438,846.8438 1258.3406,846.2188 Q1257.3563,845.7188 1256.6688,844.6484 Q1255.9813,843.5781 1255.9813,842.2969 L1255.9813,841.1406 Q1255.9813,839.8125 1256.5984,838.6641 Q1257.2156,837.5156 1258.3094,836.8984 Q1259.4031,836.2813 1260.6375,836.2813 Q1261.3719,836.2813 1262.0203,836.4453 Q1262.6688,836.6094 1263.2156,836.9688 Z "/><text fill="#000000" font-family="sans-serif" font-size="12" font-style="italic" lengthAdjust="spacingAndGlyphs" textLength="44" x="1281.55" y="838.457">«Entity»</text><text fill="#000000" font-family="sans-serif" font-size="12" lengthAdjust="spacingAndGlyphs" textLength="48" x="1279.55" y="853.5508">LogEntry</text><line style="stroke: #000000; stroke-width: 1.5;" x1="1223.5" x2="1352.5" y1="861.1875" y2="861.1875"/><text fill="#000000" font-family="sans-serif" font-size="11" lengthAdjust="spacingAndGlyphs" textLength="97" x="1228.5" y="876.6064">-logLevel : LogLevel</text><text fill="#000000" font-family="sans-serif" font-size="11" lengthAdjust="spacingAndGlyphs" textLength="89" x="1228.5" y="890.4424">-thrownBy : String</text><text fill="#000000" font-family="sans-serif" font-size="11" lengthAdjust="spacingAndGlyphs" textLength="119" x="1228.5" y="904.2783">-logTime : LocalDateTime</text><text fill="#000000" font-family="sans-serif" font-size="11" lengthAdjust="spacingAndGlyphs" textLength="80" x="1228.5" y="918.1143">-content : Object</text><line style="stroke: #000000; stroke-width: 1.5;" x1="1223.5" x2="1352.5" y1="924.5313" y2="924.5313"/><!--class bioladen.data.log.EntityCreatedEventListener--><rect fill="url(#g17ztacmgzlg8g0)" filter="url(#f17ztacmgzlg8g)" height="111.5313" id="bioladen.data.log.EntityCreatedEventListener" style="stroke: #000000; stroke-width: 1.5;" width="233" x="1267.5" y="596"/><ellipse cx="1306.35" cy="616.0938" fill="#ADD1B2" rx="11" ry="11" style="stroke: #000000; stroke-width: 1.0;"/><path d="M1309.1156,611.9688 Q1309.2719,611.75 1309.4594,611.6406 Q1309.6469,611.5313 1309.8656,611.5313 Q1310.2406,611.5313 1310.475,611.7891 Q1310.7094,612.0469 1310.7094,612.6563 L1310.7094,614.1094 Q1310.7094,614.7188 1310.475,614.9844 Q1310.2406,615.25 1309.8656,615.25 Q1309.5219,615.25 1309.3188,615.0469 Q1309.1156,614.8594 1309.0063,614.3438 Q1308.9594,613.9844 1308.7719,613.7969 Q1308.4438,613.4219 1307.8344,613.2031 Q1307.225,612.9844 1306.6,612.9844 Q1305.8344,612.9844 1305.2016,613.3125 Q1304.5688,613.6406 1304.0766,614.3906 Q1303.5844,615.1406 1303.5844,616.1719 L1303.5844,617.2656 Q1303.5844,618.5 1304.475,619.3203 Q1305.3656,620.1406 1306.9594,620.1406 Q1307.8969,620.1406 1308.5531,619.8906 Q1308.9438,619.7344 1309.3656,619.2969 Q1309.6313,619.0313 1309.7797,618.9531 Q1309.9281,618.875 1310.1313,618.875 Q1310.4594,618.875 1310.7172,619.1328 Q1310.975,619.3906 1310.975,619.7344 Q1310.975,620.0781 1310.6313,620.4844 Q1310.1313,621.0625 1309.3344,621.3906 Q1308.2563,621.8438 1306.9594,621.8438 Q1305.4438,621.8438 1304.2406,621.2188 Q1303.2563,620.7188 1302.5688,619.6484 Q1301.8813,618.5781 1301.8813,617.2969 L1301.8813,616.1406 Q1301.8813,614.8125 1302.4984,613.6641 Q1303.1156,612.5156 1304.2094,611.8984 Q1305.3031,611.2813 1306.5375,611.2813 Q1307.2719,611.2813 1307.9203,611.4453 Q1308.5688,611.6094 1309.1156,611.9688 Z "/><text fill="#000000" font-family="sans-serif" font-size="12" font-style="italic" lengthAdjust="spacingAndGlyphs" textLength="55" x="1372.15" y="613.457">«Service»</text><text fill="#000000" font-family="sans-serif" font-size="12" lengthAdjust="spacingAndGlyphs" textLength="148" x="1325.65" y="628.5508">EntityCreatedEventListener</text><line style="stroke: #000000; stroke-width: 1.5;" x1="1268.5" x2="1499.5" y1="636.1875" y2="636.1875"/><line style="stroke: #000000; stroke-width: 1.5;" x1="1268.5" x2="1499.5" y1="644.1875" y2="644.1875"/><text fill="#000000" font-family="sans-serif" font-size="11" lengthAdjust="spacingAndGlyphs" textLength="212" x="1273.5" y="659.6064">-listenOrderEvent(EntityCreatedEvent) : void</text><text fill="#000000" font-family="sans-serif" font-size="11" lengthAdjust="spacingAndGlyphs" textLength="205" x="1273.5" y="673.4424">-listenSaleEvent(EntityCreatedEvent) : void</text><text fill="#000000" font-family="sans-serif" font-size="11" lengthAdjust="spacingAndGlyphs" textLength="207" x="1273.5" y="687.2783">-listenUserEvent(EntityCreatedEvent) : void</text><text fill="#000000" font-family="sans-serif" font-size="11" lengthAdjust="spacingAndGlyphs" textLength="221" x="1273.5" y="701.1143">-listenProductEvent(EntityCreatedEvent) : void</text><!--class bioladen.data.log.LogLevel--><rect fill="url(#g17ztacmgzlg8g0)" filter="url(#f17ztacmgzlg8g)" height="103.3438" id="bioladen.data.log.LogLevel" style="stroke: #000000; stroke-width: 1.5;" width="82" x="1247" y="1046.5"/><ellipse cx="1262" cy="1062.5" fill="#EB937F" rx="11" ry="11" style="stroke: #000000; stroke-width: 1.0;"/><path d="M1260.8594,1063.2969 L1260.8594,1065.7969 L1265.1875,1065.7969 L1265.1875,1064.875 Q1265.1875,1064.2656 1265.4297,1064 Q1265.6719,1063.7344 1266.0469,1063.7344 Q1266.4219,1063.7344 1266.6563,1064 Q1266.8906,1064.2656 1266.8906,1064.875 L1266.8906,1067.5 L1258.8906,1067.5 Q1258.2656,1067.5 1258.0078,1067.2656 Q1257.75,1067.0313 1257.75,1066.6406 Q1257.75,1066.2656 1258.0156,1066.0313 Q1258.2813,1065.7969 1258.8906,1065.7969 L1259.1563,1065.7969 L1259.1563,1059.1406 L1258.8906,1059.1406 Q1258.2656,1059.1406 1258.0078,1058.9063 Q1257.75,1058.6719 1257.75,1058.2813 Q1257.75,1057.9063 1258.0078,1057.6719 Q1258.2656,1057.4375 1258.8906,1057.4375 L1266.5156,1057.4375 L1266.5156,1060.0313 Q1266.5156,1060.6406 1266.2891,1060.8984 Q1266.0625,1061.1563 1265.6719,1061.1563 Q1265.2969,1061.1563 1265.0625,1060.8984 Q1264.8281,1060.6406 1264.8281,1060.0313 L1264.8281,1059.1406 L1260.8594,1059.1406 L1260.8594,1061.5938 L1262.3438,1061.5938 Q1262.3438,1060.9375 1262.4688,1060.75 Q1262.7344,1060.3438 1263.2031,1060.3438 Q1263.5781,1060.3438 1263.8125,1060.6016 Q1264.0469,1060.8594 1264.0469,1061.4688 L1264.0469,1063.4375 Q1264.0469,1063.9844 1263.9219,1064.1719 Q1263.6563,1064.5625 1263.2031,1064.5625 Q1262.7344,1064.5625 1262.4688,1064.1563 Q1262.3438,1063.9688 1262.3438,1063.2969 L1260.8594,1063.2969 Z "/><text fill="#000000" font-family="sans-serif" font-size="12" lengthAdjust="spacingAndGlyphs" textLength="50" x="1276" y="1067.4102">LogLevel</text><line style="stroke: #000000; stroke-width: 1.5;" x1="1248" x2="1328" y1="1078.5" y2="1078.5"/><text fill="#000000" font-family="sans-serif" font-size="11" lengthAdjust="spacingAndGlyphs" textLength="23" x="1253" y="1093.9189">INFO</text><text fill="#000000" font-family="sans-serif" font-size="11" lengthAdjust="spacingAndGlyphs" textLength="49" x="1253" y="1107.7549">WARNING</text><text fill="#000000" font-family="sans-serif" font-size="11" lengthAdjust="spacingAndGlyphs" textLength="35" x="1253" y="1121.5908">ERROR</text><text fill="#000000" font-family="sans-serif" font-size="11" lengthAdjust="spacingAndGlyphs" textLength="35" x="1253" y="1135.4268">ENTITY</text><line style="stroke: #000000; stroke-width: 1.5;" x1="1248" x2="1328" y1="1141.8438" y2="1141.8438"/><!--class bioladen.data.log.LogExplorer--><rect fill="url(#g17ztacmgzlg8g0)" filter="url(#f17ztacmgzlg8g)" height="97.6953" id="bioladen.data.log.LogExplorer" style="stroke: #000000; stroke-width: 1.5;" width="178" x="981" y="828"/><ellipse cx="1032.75" cy="848.0938" fill="#ADD1B2" rx="11" ry="11" style="stroke: #000000; stroke-width: 1.0;"/><path d="M1035.5156,843.9688 Q1035.6719,843.75 1035.8594,843.6406 Q1036.0469,843.5313 1036.2656,843.5313 Q1036.6406,843.5313 1036.875,843.7891 Q1037.1094,844.0469 1037.1094,844.6563 L1037.1094,846.1094 Q1037.1094,846.7188 1036.875,846.9844 Q1036.6406,847.25 1036.2656,847.25 Q1035.9219,847.25 1035.7188,847.0469 Q1035.5156,846.8594 1035.4063,846.3438 Q1035.3594,845.9844 1035.1719,845.7969 Q1034.8438,845.4219 1034.2344,845.2031 Q1033.625,844.9844 1033,844.9844 Q1032.2344,844.9844 1031.6016,845.3125 Q1030.9688,845.6406 1030.4766,846.3906 Q1029.9844,847.1406 1029.9844,848.1719 L1029.9844,849.2656 Q1029.9844,850.5 1030.875,851.3203 Q1031.7656,852.1406 1033.3594,852.1406 Q1034.2969,852.1406 1034.9531,851.8906 Q1035.3438,851.7344 1035.7656,851.2969 Q1036.0313,851.0313 1036.1797,850.9531 Q1036.3281,850.875 1036.5313,850.875 Q1036.8594,850.875 1037.1172,851.1328 Q1037.375,851.3906 1037.375,851.7344 Q1037.375,852.0781 1037.0313,852.4844 Q1036.5313,853.0625 1035.7344,853.3906 Q1034.6563,853.8438 1033.3594,853.8438 Q1031.8438,853.8438 1030.6406,853.2188 Q1029.6563,852.7188 1028.9688,851.6484 Q1028.2813,850.5781 1028.2813,849.2969 L1028.2813,848.1406 Q1028.2813,846.8125 1028.8984,845.6641 Q1029.5156,844.5156 1030.6094,843.8984 Q1031.7031,843.2813 1032.9375,843.2813 Q1033.6719,843.2813 1034.3203,843.4453 Q1034.9688,843.6094 1035.5156,843.9688 Z "/><text fill="#000000" font-family="sans-serif" font-size="12" font-style="italic" lengthAdjust="spacingAndGlyphs" textLength="44" x="1064.25" y="845.457">«Entity»</text><text fill="#000000" font-family="sans-serif" font-size="12" lengthAdjust="spacingAndGlyphs" textLength="66" x="1053.25" y="860.5508">LogExplorer</text><line style="stroke: #000000; stroke-width: 1.5;" x1="982" x2="1158" y1="868.1875" y2="868.1875"/><line style="stroke: #000000; stroke-width: 1.5;" x1="982" x2="1158" y1="876.1875" y2="876.1875"/><text fill="#000000" font-family="sans-serif" font-size="11" lengthAdjust="spacingAndGlyphs" textLength="155" x="987" y="891.6064">+filterBy(Duration) : LogExplorer</text><text fill="#000000" font-family="sans-serif" font-size="11" lengthAdjust="spacingAndGlyphs" textLength="159" x="987" y="905.4424">+filterBy(LogLevel) : LogExplorer</text><text fill="#000000" font-family="sans-serif" font-size="11" lengthAdjust="spacingAndGlyphs" textLength="166" x="987" y="919.2783">+filterBy(ThrownBy) : LogExplorer</text><!--class bioladen.data.log.LogFilter--><rect fill="url(#g17ztacmgzlg8g0)" filter="url(#f17ztacmgzlg8g)" height="97.6953" id="bioladen.data.log.LogFilter" style="stroke: #000000; stroke-width: 1.5;" width="208" x="797" y="603"/><ellipse cx="872.75" cy="623.0938" fill="#ADD1B2" rx="11" ry="11" style="stroke: #000000; stroke-width: 1.0;"/><path d="M875.5156,618.9688 Q875.6719,618.75 875.8594,618.6406 Q876.0469,618.5313 876.2656,618.5313 Q876.6406,618.5313 876.875,618.7891 Q877.1094,619.0469 877.1094,619.6563 L877.1094,621.1094 Q877.1094,621.7188 876.875,621.9844 Q876.6406,622.25 876.2656,622.25 Q875.9219,622.25 875.7188,622.0469 Q875.5156,621.8594 875.4063,621.3438 Q875.3594,620.9844 875.1719,620.7969 Q874.8438,620.4219 874.2344,620.2031 Q873.625,619.9844 873,619.9844 Q872.2344,619.9844 871.6016,620.3125 Q870.9688,620.6406 870.4766,621.3906 Q869.9844,622.1406 869.9844,623.1719 L869.9844,624.2656 Q869.9844,625.5 870.875,626.3203 Q871.7656,627.1406 873.3594,627.1406 Q874.2969,627.1406 874.9531,626.8906 Q875.3438,626.7344 875.7656,626.2969 Q876.0313,626.0313 876.1797,625.9531 Q876.3281,625.875 876.5313,625.875 Q876.8594,625.875 877.1172,626.1328 Q877.375,626.3906 877.375,626.7344 Q877.375,627.0781 877.0313,627.4844 Q876.5313,628.0625 875.7344,628.3906 Q874.6563,628.8438 873.3594,628.8438 Q871.8438,628.8438 870.6406,628.2188 Q869.6563,627.7188 868.9688,626.6484 Q868.2813,625.5781 868.2813,624.2969 L868.2813,623.1406 Q868.2813,621.8125 868.8984,620.6641 Q869.5156,619.5156 870.6094,618.8984 Q871.7031,618.2813 872.9375,618.2813 Q873.6719,618.2813 874.3203,618.4453 Q874.9688,618.6094 875.5156,618.9688 Z "/><text fill="#000000" font-family="sans-serif" font-size="12" font-style="italic" lengthAdjust="spacingAndGlyphs" textLength="42" x="896.25" y="620.457">«static»</text><text fill="#000000" font-family="sans-serif" font-size="12" lengthAdjust="spacingAndGlyphs" textLength="48" x="893.25" y="635.5508">LogFilter</text><line style="stroke: #000000; stroke-width: 1.5;" x1="798" x2="1004" y1="643.1875" y2="643.1875"/><line style="stroke: #000000; stroke-width: 1.5;" x1="798" x2="1004" y1="651.1875" y2="651.1875"/><text fill="#000000" font-family="sans-serif" font-size="11" lengthAdjust="spacingAndGlyphs" textLength="185" x="803" y="666.6064">+filterBy(LogFilter, Duration) : LogFilter</text><text fill="#000000" font-family="sans-serif" font-size="11" lengthAdjust="spacingAndGlyphs" textLength="189" x="803" y="680.4424">+filterBy(LogFilter, LogLevel) : LogFilter</text><text fill="#000000" font-family="sans-serif" font-size="11" lengthAdjust="spacingAndGlyphs" textLength="196" x="803" y="694.2783">+filterBy(LogFilter, ThrownBy) : LogFilter</text><!--class bioladen.data.log.LogEvent--><rect fill="url(#g17ztacmgzlg8g0)" filter="url(#f17ztacmgzlg8g)" height="70.0234" id="bioladen.data.log.LogEvent" style="stroke: #000000; stroke-width: 1.5;" width="83" x="1402.5" y="842"/><ellipse cx="1417.5" cy="862.0938" fill="#ADD1B2" rx="11" ry="11" style="stroke: #000000; stroke-width: 1.0;"/><path d="M1420.2656,857.9688 Q1420.4219,857.75 1420.6094,857.6406 Q1420.7969,857.5313 1421.0156,857.5313 Q1421.3906,857.5313 1421.625,857.7891 Q1421.8594,858.0469 1421.8594,858.6563 L1421.8594,860.1094 Q1421.8594,860.7188 1421.625,860.9844 Q1421.3906,861.25 1421.0156,861.25 Q1420.6719,861.25 1420.4688,861.0469 Q1420.2656,860.8594 1420.1563,860.3438 Q1420.1094,859.9844 1419.9219,859.7969 Q1419.5938,859.4219 1418.9844,859.2031 Q1418.375,858.9844 1417.75,858.9844 Q1416.9844,858.9844 1416.3516,859.3125 Q1415.7188,859.6406 1415.2266,860.3906 Q1414.7344,861.1406 1414.7344,862.1719 L1414.7344,863.2656 Q1414.7344,864.5 1415.625,865.3203 Q1416.5156,866.1406 1418.1094,866.1406 Q1419.0469,866.1406 1419.7031,865.8906 Q1420.0938,865.7344 1420.5156,865.2969 Q1420.7813,865.0313 1420.9297,864.9531 Q1421.0781,864.875 1421.2813,864.875 Q1421.6094,864.875 1421.8672,865.1328 Q1422.125,865.3906 1422.125,865.7344 Q1422.125,866.0781 1421.7813,866.4844 Q1421.2813,867.0625 1420.4844,867.3906 Q1419.4063,867.8438 1418.1094,867.8438 Q1416.5938,867.8438 1415.3906,867.2188 Q1414.4063,866.7188 1413.7188,865.6484 Q1413.0313,864.5781 1413.0313,863.2969 L1413.0313,862.1406 Q1413.0313,860.8125 1413.6484,859.6641 Q1414.2656,858.5156 1415.3594,857.8984 Q1416.4531,857.2813 1417.6875,857.2813 Q1418.4219,857.2813 1419.0703,857.4453 Q1419.7188,857.6094 1420.2656,857.9688 Z "/><text fill="#000000" font-family="sans-serif" font-size="12" font-style="italic" lengthAdjust="spacingAndGlyphs" textLength="44" x="1435" y="859.457">«Entity»</text><text fill="#000000" font-family="sans-serif" font-size="12" lengthAdjust="spacingAndGlyphs" textLength="51" x="1431.5" y="874.5508">LogEvent</text><line style="stroke: #000000; stroke-width: 1.5;" x1="1403.5" x2="1484.5" y1="882.1875" y2="882.1875"/><line style="stroke: #000000; stroke-width: 1.5;" x1="1403.5" x2="1484.5" y1="890.1875" y2="890.1875"/><text fill="#000000" font-family="sans-serif" font-size="11" lengthAdjust="spacingAndGlyphs" textLength="59" x="1408.5" y="905.6064">+LogEvent()</text><!--class bioladen.data.log.LogEventListener--><rect fill="url(#g17ztacmgzlg8g0)" filter="url(#f17ztacmgzlg8g)" height="70.0234" id="bioladen.data.log.LogEventListener" style="stroke: #000000; stroke-width: 1.5;" width="192" x="1040" y="617"/><ellipse cx="1083.8" cy="637.0938" fill="#ADD1B2" rx="11" ry="11" style="stroke: #000000; stroke-width: 1.0;"/><path d="M1086.5656,632.9688 Q1086.7219,632.75 1086.9094,632.6406 Q1087.0969,632.5313 1087.3156,632.5313 Q1087.6906,632.5313 1087.925,632.7891 Q1088.1594,633.0469 1088.1594,633.6563 L1088.1594,635.1094 Q1088.1594,635.7188 1087.925,635.9844 Q1087.6906,636.25 1087.3156,636.25 Q1086.9719,636.25 1086.7688,636.0469 Q1086.5656,635.8594 1086.4563,635.3438 Q1086.4094,634.9844 1086.2219,634.7969 Q1085.8938,634.4219 1085.2844,634.2031 Q1084.675,633.9844 1084.05,633.9844 Q1083.2844,633.9844 1082.6516,634.3125 Q1082.0188,634.6406 1081.5266,635.3906 Q1081.0344,636.1406 1081.0344,637.1719 L1081.0344,638.2656 Q1081.0344,639.5 1081.925,640.3203 Q1082.8156,641.1406 1084.4094,641.1406 Q1085.3469,641.1406 1086.0031,640.8906 Q1086.3938,640.7344 1086.8156,640.2969 Q1087.0813,640.0313 1087.2297,639.9531 Q1087.3781,639.875 1087.5813,639.875 Q1087.9094,639.875 1088.1672,640.1328 Q1088.425,640.3906 1088.425,640.7344 Q1088.425,641.0781 1088.0813,641.4844 Q1087.5813,642.0625 1086.7844,642.3906 Q1085.7063,642.8438 1084.4094,642.8438 Q1082.8938,642.8438 1081.6906,642.2188 Q1080.7063,641.7188 1080.0188,640.6484 Q1079.3313,639.5781 1079.3313,638.2969 L1079.3313,637.1406 Q1079.3313,635.8125 1079.9484,634.6641 Q1080.5656,633.5156 1081.6594,632.8984 Q1082.7531,632.2813 1083.9875,632.2813 Q1084.7219,632.2813 1085.3703,632.4453 Q1086.0188,632.6094 1086.5656,632.9688 Z "/><text fill="#000000" font-family="sans-serif" font-size="12" font-style="italic" lengthAdjust="spacingAndGlyphs" textLength="55" x="1124.7" y="634.457">«Service»</text><text fill="#000000" font-family="sans-serif" font-size="12" lengthAdjust="spacingAndGlyphs" textLength="96" x="1104.2" y="649.5508">LogEventListener</text><line style="stroke: #000000; stroke-width: 1.5;" x1="1041" x2="1231" y1="657.1875" y2="657.1875"/><line style="stroke: #000000; stroke-width: 1.5;" x1="1041" x2="1231" y1="665.1875" y2="665.1875"/><text fill="#000000" font-family="sans-serif" font-size="11" lengthAdjust="spacingAndGlyphs" textLength="180" x="1046" y="680.6064">+onApplicationEvent(LogEvent) : void</text><!--class bioladen.data.statistic.StatisticController--><rect fill="url(#g17ztacmgzlg8g1)" filter="url(#f17ztacmgzlg8g)" height="56.1875" id="bioladen.data.statistic.StatisticController" style="stroke: #000000; stroke-width: 1.5;" width="129" x="433.5" y="624"/><ellipse cx="448.5" cy="644.0938" fill="#ADD1B2" rx="11" ry="11" style="stroke: #000000; stroke-width: 1.0;"/><path d="M451.2656,639.9688 Q451.4219,639.75 451.6094,639.6406 Q451.7969,639.5313 452.0156,639.5313 Q452.3906,639.5313 452.625,639.7891 Q452.8594,640.0469 452.8594,640.6563 L452.8594,642.1094 Q452.8594,642.7188 452.625,642.9844 Q452.3906,643.25 452.0156,643.25 Q451.6719,643.25 451.4688,643.0469 Q451.2656,642.8594 451.1563,642.3438 Q451.1094,641.9844 450.9219,641.7969 Q450.5938,641.4219 449.9844,641.2031 Q449.375,640.9844 448.75,640.9844 Q447.9844,640.9844 447.3516,641.3125 Q446.7188,641.6406 446.2266,642.3906 Q445.7344,643.1406 445.7344,644.1719 L445.7344,645.2656 Q445.7344,646.5 446.625,647.3203 Q447.5156,648.1406 449.1094,648.1406 Q450.0469,648.1406 450.7031,647.8906 Q451.0938,647.7344 451.5156,647.2969 Q451.7813,647.0313 451.9297,646.9531 Q452.0781,646.875 452.2813,646.875 Q452.6094,646.875 452.8672,647.1328 Q453.125,647.3906 453.125,647.7344 Q453.125,648.0781 452.7813,648.4844 Q452.2813,649.0625 451.4844,649.3906 Q450.4063,649.8438 449.1094,649.8438 Q447.5938,649.8438 446.3906,649.2188 Q445.4063,648.7188 444.7188,647.6484 Q444.0313,646.5781 444.0313,645.2969 L444.0313,644.1406 Q444.0313,642.8125 444.6484,641.6641 Q445.2656,640.5156 446.3594,639.8984 Q447.4531,639.2813 448.6875,639.2813 Q449.4219,639.2813 450.0703,639.4453 Q450.7188,639.6094 451.2656,639.9688 Z "/><text fill="#000000" font-family="sans-serif" font-size="12" font-style="italic" lengthAdjust="spacingAndGlyphs" textLength="68" x="477" y="641.457">«Controller»</text><text fill="#000000" font-family="sans-serif" font-size="12" lengthAdjust="spacingAndGlyphs" textLength="97" x="462.5" y="656.5508">StatisticController</text><line style="stroke: #000000; stroke-width: 1.5;" x1="434.5" x2="561.5" y1="664.1875" y2="664.1875"/><line style="stroke: #000000; stroke-width: 1.5;" x1="434.5" x2="561.5" y1="672.1875" y2="672.1875"/><!--class bioladen.data.statistic.Chart--><rect fill="url(#g17ztacmgzlg8g0)" filter="url(#f17ztacmgzlg8g)" height="208.3828" id="bioladen.data.statistic.Chart" style="stroke: #000000; stroke-width: 1.5;" width="485" x="255.5" y="104"/><ellipse cx="460.25" cy="124.0938" fill="#A9DCDF" rx="11" ry="11" style="stroke: #000000; stroke-width: 1.0;"/><path d="M462.4375,125.8594 L458.2969,125.8594 L457.875,126.8906 L458.2969,126.8906 Q458.9063,126.8906 459.1719,127.125 Q459.4375,127.3594 459.4375,127.75 Q459.4375,128.125 459.1719,128.3594 Q458.9063,128.5938 458.2969,128.5938 L456,128.5938 Q455.3906,128.5938 455.1328,128.3594 Q454.875,128.125 454.875,127.7344 Q454.875,127.3594 455.1484,127.1172 Q455.4219,126.875 456.0469,126.8906 L458.7188,120.2344 L457.6094,120.2344 Q457,120.2344 456.7344,120 Q456.4688,119.7656 456.4688,119.375 Q456.4688,119 456.7344,118.7656 Q457,118.5313 457.6094,118.5313 L461.2813,118.5313 L464.6719,126.8906 Q465.2656,126.8906 465.4531,127.0313 Q465.8438,127.2969 465.8438,127.75 Q465.8438,128.125 465.5859,128.3594 Q465.3281,128.5938 464.7188,128.5938 L462.4219,128.5938 Q461.8125,128.5938 461.5469,128.3594 Q461.2813,128.125 461.2813,127.7344 Q461.2813,127.3594 461.5469,127.125 Q461.8125,126.8906 462.4219,126.8906 L462.8438,126.8906 L462.4375,125.8594 Z M461.7188,124.1563 L460.3594,120.7813 L458.9844,124.1563 L461.7188,124.1563 Z "/><text fill="#000000" font-family="sans-serif" font-size="12" font-style="italic" lengthAdjust="spacingAndGlyphs" textLength="71" x="478.75" y="121.457">«static, final»</text><text fill="#000000" font-family="sans-serif" font-size="12" font-style="italic" lengthAdjust="spacingAndGlyphs" textLength="30" x="499.25" y="136.5508">Chart</text><line style="stroke: #000000; stroke-width: 1.5;" x1="256.5" x2="739.5" y1="144.1875" y2="144.1875"/><text fill="#000000" font-family="sans-serif" font-size="11" font-style="italic" lengthAdjust="spacingAndGlyphs" textLength="110" x="261.5" y="159.6064">CHART_TYPE : String</text><text fill="#000000" font-family="sans-serif" font-size="11" lengthAdjust="spacingAndGlyphs" textLength="89" x="261.5" y="173.4424">TEMPLATE : String</text><text fill="#000000" font-family="sans-serif" font-size="11" lengthAdjust="spacingAndGlyphs" textLength="143" x="261.5" y="187.2783">TEMPLATE_DATASET : String</text><line style="stroke: #000000; stroke-width: 1.5;" x1="256.5" x2="739.5" y1="193.6953" y2="193.6953"/><text fill="#000000" font-family="sans-serif" font-size="11" lengthAdjust="spacingAndGlyphs" textLength="316" x="261.5" y="209.1143">generateChart(title : String, labels : List&lt;T&gt;, data : List&lt;T&gt;) : String</text><text fill="#000000" font-family="sans-serif" font-size="11" lengthAdjust="spacingAndGlyphs" textLength="266" x="261.5" y="222.9502">generateChart(title : String, dataset : Map&lt;T,S&gt;) : String</text><text fill="#000000" font-family="sans-serif" font-size="11" lengthAdjust="spacingAndGlyphs" textLength="374" x="261.5" y="236.7861">generateChart(title : String, labels : List&lt;List&lt;T&gt;&gt;, data : List&lt;List&lt;T&gt;&gt;) : String</text><text fill="#000000" font-family="sans-serif" font-size="11" lengthAdjust="spacingAndGlyphs" textLength="301" x="261.5" y="250.6221">generateChart(title : String, datasets : List&lt;Map&lt;T,S&gt;&gt;) : String</text><text fill="#000000" font-family="sans-serif" font-size="11" lengthAdjust="spacingAndGlyphs" textLength="380" x="261.5" y="264.458">generateChart(title : String, labels : List&lt;T&gt;, data : List&lt;T&gt;, color : Color) : String</text><text fill="#000000" font-family="sans-serif" font-size="11" lengthAdjust="spacingAndGlyphs" textLength="330" x="261.5" y="278.2939">generateChart(title : String, dataset : Map&lt;T,S&gt;, color : Color) : String</text><text fill="#000000" font-family="sans-serif" font-size="11" lengthAdjust="spacingAndGlyphs" textLength="473" x="261.5" y="292.1299">generateChart(title : String, labels : List&lt;List&lt;T&gt;&gt;, data : List&lt;List&lt;T&gt;&gt;, colors : List&lt;Color&gt;) : String</text><text fill="#000000" font-family="sans-serif" font-size="11" lengthAdjust="spacingAndGlyphs" textLength="400" x="261.5" y="305.9658">generateChart(title : String, datasets : List&lt;Map&lt;T,S&gt;&gt;, colors : List&lt;Color&gt;) : String</text><!--class bioladen.data.statistic.BarChart--><rect fill="url(#g17ztacmgzlg8g0)" filter="url(#f17ztacmgzlg8g)" height="70.0234" id="bioladen.data.statistic.BarChart" style="stroke: #000000; stroke-width: 1.5;" width="116" x="440" y="428"/><ellipse cx="470.75" cy="448.0938" fill="#ADD1B2" rx="11" ry="11" style="stroke: #000000; stroke-width: 1.0;"/><path d="M473.5156,443.9688 Q473.6719,443.75 473.8594,443.6406 Q474.0469,443.5313 474.2656,443.5313 Q474.6406,443.5313 474.875,443.7891 Q475.1094,444.0469 475.1094,444.6563 L475.1094,446.1094 Q475.1094,446.7188 474.875,446.9844 Q474.6406,447.25 474.2656,447.25 Q473.9219,447.25 473.7188,447.0469 Q473.5156,446.8594 473.4063,446.3438 Q473.3594,445.9844 473.1719,445.7969 Q472.8438,445.4219 472.2344,445.2031 Q471.625,444.9844 471,444.9844 Q470.2344,444.9844 469.6016,445.3125 Q468.9688,445.6406 468.4766,446.3906 Q467.9844,447.1406 467.9844,448.1719 L467.9844,449.2656 Q467.9844,450.5 468.875,451.3203 Q469.7656,452.1406 471.3594,452.1406 Q472.2969,452.1406 472.9531,451.8906 Q473.3438,451.7344 473.7656,451.2969 Q474.0313,451.0313 474.1797,450.9531 Q474.3281,450.875 474.5313,450.875 Q474.8594,450.875 475.1172,451.1328 Q475.375,451.3906 475.375,451.7344 Q475.375,452.0781 475.0313,452.4844 Q474.5313,453.0625 473.7344,453.3906 Q472.6563,453.8438 471.3594,453.8438 Q469.8438,453.8438 468.6406,453.2188 Q467.6563,452.7188 466.9688,451.6484 Q466.2813,450.5781 466.2813,449.2969 L466.2813,448.1406 Q466.2813,446.8125 466.8984,445.6641 Q467.5156,444.5156 468.6094,443.8984 Q469.7031,443.2813 470.9375,443.2813 Q471.6719,443.2813 472.3203,443.4453 Q472.9688,443.6094 473.5156,443.9688 Z "/><text fill="#000000" font-family="sans-serif" font-size="12" font-style="italic" lengthAdjust="spacingAndGlyphs" textLength="44" x="490.75" y="445.457">«Entity»</text><text fill="#000000" font-family="sans-serif" font-size="12" lengthAdjust="spacingAndGlyphs" textLength="49" x="488.25" y="460.5508">BarChart</text><line style="stroke: #000000; stroke-width: 1.5;" x1="441" x2="555" y1="468.1875" y2="468.1875"/><text fill="#000000" font-family="sans-serif" font-size="11" lengthAdjust="spacingAndGlyphs" textLength="104" x="446" y="483.6064">CHART_TYPE : String</text><line style="stroke: #000000; stroke-width: 1.5;" x1="441" x2="555" y1="490.0234" y2="490.0234"/><!--class bioladen.data.statistic.LineChart--><rect fill="url(#g17ztacmgzlg8g0)" filter="url(#f17ztacmgzlg8g)" height="70.0234" id="bioladen.data.statistic.LineChart" style="stroke: #000000; stroke-width: 1.5;" width="116" x="591" y="428"/><ellipse cx="619.5" cy="448.0938" fill="#ADD1B2" rx="11" ry="11" style="stroke: #000000; stroke-width: 1.0;"/><path d="M622.2656,443.9688 Q622.4219,443.75 622.6094,443.6406 Q622.7969,443.5313 623.0156,443.5313 Q623.3906,443.5313 623.625,443.7891 Q623.8594,444.0469 623.8594,444.6563 L623.8594,446.1094 Q623.8594,446.7188 623.625,446.9844 Q623.3906,447.25 623.0156,447.25 Q622.6719,447.25 622.4688,447.0469 Q622.2656,446.8594 622.1563,446.3438 Q622.1094,445.9844 621.9219,445.7969 Q621.5938,445.4219 620.9844,445.2031 Q620.375,444.9844 619.75,444.9844 Q618.9844,444.9844 618.3516,445.3125 Q617.7188,445.6406 617.2266,446.3906 Q616.7344,447.1406 616.7344,448.1719 L616.7344,449.2656 Q616.7344,450.5 617.625,451.3203 Q618.5156,452.1406 620.1094,452.1406 Q621.0469,452.1406 621.7031,451.8906 Q622.0938,451.7344 622.5156,451.2969 Q622.7813,451.0313 622.9297,450.9531 Q623.0781,450.875 623.2813,450.875 Q623.6094,450.875 623.8672,451.1328 Q624.125,451.3906 624.125,451.7344 Q624.125,452.0781 623.7813,452.4844 Q623.2813,453.0625 622.4844,453.3906 Q621.4063,453.8438 620.1094,453.8438 Q618.5938,453.8438 617.3906,453.2188 Q616.4063,452.7188 615.7188,451.6484 Q615.0313,450.5781 615.0313,449.2969 L615.0313,448.1406 Q615.0313,446.8125 615.6484,445.6641 Q616.2656,444.5156 617.3594,443.8984 Q618.4531,443.2813 619.6875,443.2813 Q620.4219,443.2813 621.0703,443.4453 Q621.7188,443.6094 622.2656,443.9688 Z "/><text fill="#000000" font-family="sans-serif" font-size="12" font-style="italic" lengthAdjust="spacingAndGlyphs" textLength="44" x="641.5" y="445.457">«Entity»</text><text fill="#000000" font-family="sans-serif" font-size="12" lengthAdjust="spacingAndGlyphs" textLength="54" x="636.5" y="460.5508">LineChart</text><line style="stroke: #000000; stroke-width: 1.5;" x1="592" x2="706" y1="468.1875" y2="468.1875"/><text fill="#000000" font-family="sans-serif" font-size="11" lengthAdjust="spacingAndGlyphs" textLength="104" x="597" y="483.6064">CHART_TYPE : String</text><line style="stroke: #000000; stroke-width: 1.5;" x1="592" x2="706" y1="490.0234" y2="490.0234"/><!--class bioladen.data.statistic.PieChart--><rect fill="url(#g17ztacmgzlg8g0)" filter="url(#f17ztacmgzlg8g)" height="70.0234" id="bioladen.data.statistic.PieChart" style="stroke: #000000; stroke-width: 1.5;" width="116" x="289" y="428"/><ellipse cx="320.2" cy="448.0938" fill="#ADD1B2" rx="11" ry="11" style="stroke: #000000; stroke-width: 1.0;"/><path d="M322.9656,443.9688 Q323.1219,443.75 323.3094,443.6406 Q323.4969,443.5313 323.7156,443.5313 Q324.0906,443.5313 324.325,443.7891 Q324.5594,444.0469 324.5594,444.6563 L324.5594,446.1094 Q324.5594,446.7188 324.325,446.9844 Q324.0906,447.25 323.7156,447.25 Q323.3719,447.25 323.1688,447.0469 Q322.9656,446.8594 322.8563,446.3438 Q322.8094,445.9844 322.6219,445.7969 Q322.2938,445.4219 321.6844,445.2031 Q321.075,444.9844 320.45,444.9844 Q319.6844,444.9844 319.0516,445.3125 Q318.4188,445.6406 317.9266,446.3906 Q317.4344,447.1406 317.4344,448.1719 L317.4344,449.2656 Q317.4344,450.5 318.325,451.3203 Q319.2156,452.1406 320.8094,452.1406 Q321.7469,452.1406 322.4031,451.8906 Q322.7938,451.7344 323.2156,451.2969 Q323.4813,451.0313 323.6297,450.9531 Q323.7781,450.875 323.9813,450.875 Q324.3094,450.875 324.5672,451.1328 Q324.825,451.3906 324.825,451.7344 Q324.825,452.0781 324.4813,452.4844 Q323.9813,453.0625 323.1844,453.3906 Q322.1063,453.8438 320.8094,453.8438 Q319.2938,453.8438 318.0906,453.2188 Q317.1063,452.7188 316.4188,451.6484 Q315.7313,450.5781 315.7313,449.2969 L315.7313,448.1406 Q315.7313,446.8125 316.3484,445.6641 Q316.9656,444.5156 318.0594,443.8984 Q319.1531,443.2813 320.3875,443.2813 Q321.1219,443.2813 321.7703,443.4453 Q322.4188,443.6094 322.9656,443.9688 Z "/><text fill="#000000" font-family="sans-serif" font-size="12" font-style="italic" lengthAdjust="spacingAndGlyphs" textLength="44" x="339.8" y="445.457">«Entity»</text><text fill="#000000" font-family="sans-serif" font-size="12" lengthAdjust="spacingAndGlyphs" textLength="48" x="337.8" y="460.5508">PieChart</text><line style="stroke: #000000; stroke-width: 1.5;" x1="290" x2="404" y1="468.1875" y2="468.1875"/><text fill="#000000" font-family="sans-serif" font-size="11" lengthAdjust="spacingAndGlyphs" textLength="104" x="295" y="483.6064">CHART_TYPE : String</text><line style="stroke: #000000; stroke-width: 1.5;" x1="290" x2="404" y1="490.0234" y2="490.0234"/><!--class bioladen.data.statistic.Statistic--><rect fill="url(#g17ztacmgzlg8g0)" filter="url(#f17ztacmgzlg8g)" height="56.1875" id="bioladen.data.statistic.Statistic" style="stroke: #000000; stroke-width: 1.5;" width="83" x="657.5" y="849"/><ellipse cx="672.5" cy="869.0938" fill="#ADD1B2" rx="11" ry="11" style="stroke: #000000; stroke-width: 1.0;"/><path d="M675.2656,864.9688 Q675.4219,864.75 675.6094,864.6406 Q675.7969,864.5313 676.0156,864.5313 Q676.3906,864.5313 676.625,864.7891 Q676.8594,865.0469 676.8594,865.6563 L676.8594,867.1094 Q676.8594,867.7188 676.625,867.9844 Q676.3906,868.25 676.0156,868.25 Q675.6719,868.25 675.4688,868.0469 Q675.2656,867.8594 675.1563,867.3438 Q675.1094,866.9844 674.9219,866.7969 Q674.5938,866.4219 673.9844,866.2031 Q673.375,865.9844 672.75,865.9844 Q671.9844,865.9844 671.3516,866.3125 Q670.7188,866.6406 670.2266,867.3906 Q669.7344,868.1406 669.7344,869.1719 L669.7344,870.2656 Q669.7344,871.5 670.625,872.3203 Q671.5156,873.1406 673.1094,873.1406 Q674.0469,873.1406 674.7031,872.8906 Q675.0938,872.7344 675.5156,872.2969 Q675.7813,872.0313 675.9297,871.9531 Q676.0781,871.875 676.2813,871.875 Q676.6094,871.875 676.8672,872.1328 Q677.125,872.3906 677.125,872.7344 Q677.125,873.0781 676.7813,873.4844 Q676.2813,874.0625 675.4844,874.3906 Q674.4063,874.8438 673.1094,874.8438 Q671.5938,874.8438 670.3906,874.2188 Q669.4063,873.7188 668.7188,872.6484 Q668.0313,871.5781 668.0313,870.2969 L668.0313,869.1406 Q668.0313,867.8125 668.6484,866.6641 Q669.2656,865.5156 670.3594,864.8984 Q671.4531,864.2813 672.6875,864.2813 Q673.4219,864.2813 674.0703,864.4453 Q674.7188,864.6094 675.2656,864.9688 Z "/><text fill="#000000" font-family="sans-serif" font-size="12" font-style="italic" lengthAdjust="spacingAndGlyphs" textLength="55" x="684.5" y="866.457">«Service»</text><text fill="#000000" font-family="sans-serif" font-size="12" lengthAdjust="spacingAndGlyphs" textLength="43" x="690.5" y="881.5508">Statistic</text><line style="stroke: #000000; stroke-width: 1.5;" x1="658.5" x2="739.5" y1="889.1875" y2="889.1875"/><line style="stroke: #000000; stroke-width: 1.5;" x1="658.5" x2="739.5" y1="897.1875" y2="897.1875"/><!--entity statistic.html--><polygon fill="url(#g17ztacmgzlg8g2)" filter="url(#f17ztacmgzlg8g)" points="101.5,849.5,101.5,904.7188,198.5,904.7188,198.5,859.5,188.5,849.5,101.5,849.5" style="stroke: #000000; stroke-width: 1.5;"/><path d="M188.5,849.5 L188.5,859.5 L198.5,859.5 " fill="url(#g17ztacmgzlg8g2)" style="stroke: #000000; stroke-width: 1.5;"/><text fill="#000000" font-family="sans-serif" font-size="14" font-style="italic" lengthAdjust="spacingAndGlyphs" textLength="45" x="127.5" y="874.0332">«View»</text><text fill="#000000" font-family="sans-serif" font-size="14" lengthAdjust="spacingAndGlyphs" textLength="77" x="111.5" y="891.6426">statistic.html</text><!--class org.salespointframework.time.BusinessTime--><rect fill="url(#g17ztacmgzlg8g0)" filter="url(#f17ztacmgzlg8g)" height="56.1875" id="org.salespointframework.time.BusinessTime" style="stroke: #000000; stroke-width: 1.5;" width="110" x="1999" y="849"/><ellipse cx="2014" cy="869.0938" fill="#B4A7E5" rx="11" ry="11" style="stroke: #000000; stroke-width: 1.0;"/><path d="M2014.9531,865.7344 L2014.9531,872.3906 L2016.6719,872.3906 Q2017.2813,872.3906 2017.5469,872.625 Q2017.8125,872.8594 2017.8125,873.25 Q2017.8125,873.625 2017.5469,873.8594 Q2017.2813,874.0938 2016.6719,874.0938 L2011.5313,874.0938 Q2010.9219,874.0938 2010.6563,873.8594 Q2010.3906,873.625 2010.3906,873.2344 Q2010.3906,872.8594 2010.6563,872.625 Q2010.9219,872.3906 2011.5313,872.3906 L2013.25,872.3906 L2013.25,865.7344 L2011.5313,865.7344 Q2010.9219,865.7344 2010.6563,865.5 Q2010.3906,865.2656 2010.3906,864.875 Q2010.3906,864.5 2010.6563,864.2656 Q2010.9219,864.0313 2011.5313,864.0313 L2016.6719,864.0313 Q2017.2813,864.0313 2017.5469,864.2656 Q2017.8125,864.5 2017.8125,864.875 Q2017.8125,865.2656 2017.5469,865.5 Q2017.2813,865.7344 2016.6719,865.7344 L2014.9531,865.7344 Z "/><text fill="#000000" font-family="sans-serif" font-size="12" font-style="italic" lengthAdjust="spacingAndGlyphs" textLength="55" x="2039.5" y="866.457">«Service»</text><text fill="#000000" font-family="sans-serif" font-size="12" font-style="italic" lengthAdjust="spacingAndGlyphs" textLength="78" x="2028" y="881.5508">BusinessTime</text><line style="stroke: #000000; stroke-width: 1.5;" x1="2000" x2="2108" y1="889.1875" y2="889.1875"/><line style="stroke: #000000; stroke-width: 1.5;" x1="2000" x2="2108" y1="897.1875" y2="897.1875"/><!--class org.springframework.context.ApplicationEvent--><rect fill="url(#g17ztacmgzlg8g0)" filter="url(#f17ztacmgzlg8g)" height="111.5313" id="org.springframework.context.ApplicationEvent" style="stroke: #000000; stroke-width: 1.5;" width="137" x="1631.5" y="1042"/><ellipse cx="1653.25" cy="1062.0938" fill="#ADD1B2" rx="11" ry="11" style="stroke: #000000; stroke-width: 1.0;"/><path d="M1656.0156,1057.9688 Q1656.1719,1057.75 1656.3594,1057.6406 Q1656.5469,1057.5313 1656.7656,1057.5313 Q1657.1406,1057.5313 1657.375,1057.7891 Q1657.6094,1058.0469 1657.6094,1058.6563 L1657.6094,1060.1094 Q1657.6094,1060.7188 1657.375,1060.9844 Q1657.1406,1061.25 1656.7656,1061.25 Q1656.4219,1061.25 1656.2188,1061.0469 Q1656.0156,1060.8594 1655.9063,1060.3438 Q1655.8594,1059.9844 1655.6719,1059.7969 Q1655.3438,1059.4219 1654.7344,1059.2031 Q1654.125,1058.9844 1653.5,1058.9844 Q1652.7344,1058.9844 1652.1016,1059.3125 Q1651.4688,1059.6406 1650.9766,1060.3906 Q1650.4844,1061.1406 1650.4844,1062.1719 L1650.4844,1063.2656 Q1650.4844,1064.5 1651.375,1065.3203 Q1652.2656,1066.1406 1653.8594,1066.1406 Q1654.7969,1066.1406 1655.4531,1065.8906 Q1655.8438,1065.7344 1656.2656,1065.2969 Q1656.5313,1065.0313 1656.6797,1064.9531 Q1656.8281,1064.875 1657.0313,1064.875 Q1657.3594,1064.875 1657.6172,1065.1328 Q1657.875,1065.3906 1657.875,1065.7344 Q1657.875,1066.0781 1657.5313,1066.4844 Q1657.0313,1067.0625 1656.2344,1067.3906 Q1655.1563,1067.8438 1653.8594,1067.8438 Q1652.3438,1067.8438 1651.1406,1067.2188 Q1650.1563,1066.7188 1649.4688,1065.6484 Q1648.7813,1064.5781 1648.7813,1063.2969 L1648.7813,1062.1406 Q1648.7813,1060.8125 1649.3984,1059.6641 Q1650.0156,1058.5156 1651.1094,1057.8984 Q1652.2031,1057.2813 1653.4375,1057.2813 Q1654.1719,1057.2813 1654.8203,1057.4453 Q1655.4688,1057.6094 1656.0156,1057.9688 Z "/><text fill="#000000" font-family="sans-serif" font-size="12" font-style="italic" lengthAdjust="spacingAndGlyphs" textLength="44" x="1691.75" y="1059.457">«Entity»</text><text fill="#000000" font-family="sans-serif" font-size="12" lengthAdjust="spacingAndGlyphs" textLength="90" x="1668.75" y="1074.5508">ApplicationEvent</text><line style="stroke: #000000; stroke-width: 1.5;" x1="1632.5" x2="1767.5" y1="1082.1875" y2="1082.1875"/><text fill="#000000" font-family="sans-serif" font-size="11" lengthAdjust="spacingAndGlyphs" text-decoration="underline" textLength="113" x="1637.5" y="1097.6064">-serialVersionUID : long</text><line style="stroke: #000000; stroke-width: 1.0;" x1="1637.5" x2="1750.5" y1="1099.6064" y2="1099.6064"/><text fill="#000000" font-family="sans-serif" font-size="11" lengthAdjust="spacingAndGlyphs" textLength="81" x="1637.5" y="1111.4424">-timestamp : long</text><line style="stroke: #000000; stroke-width: 1.5;" x1="1632.5" x2="1767.5" y1="1117.8594" y2="1117.8594"/><text fill="#000000" font-family="sans-serif" font-size="11" lengthAdjust="spacingAndGlyphs" textLength="125" x="1637.5" y="1133.2783">+ApplicationEvent(Object)</text><text fill="#000000" font-family="sans-serif" font-size="11" lengthAdjust="spacingAndGlyphs" textLength="109" x="1637.5" y="1147.1143">+getTimestamp() : long</text><!--class org.springframework.context.ApplicationEventPublisher--><rect fill="url(#g17ztacmgzlg8g0)" filter="url(#f17ztacmgzlg8g)" height="83.8594" id="org.springframework.context.ApplicationEventPublisher" style="stroke: #000000; stroke-width: 1.5;" width="190" x="1605" y="835"/><ellipse cx="1625.85" cy="855.0938" fill="#B4A7E5" rx="11" ry="11" style="stroke: #000000; stroke-width: 1.0;"/><path d="M1626.8031,851.7344 L1626.8031,858.3906 L1628.5219,858.3906 Q1629.1313,858.3906 1629.3969,858.625 Q1629.6625,858.8594 1629.6625,859.25 Q1629.6625,859.625 1629.3969,859.8594 Q1629.1313,860.0938 1628.5219,860.0938 L1623.3813,860.0938 Q1622.7719,860.0938 1622.5063,859.8594 Q1622.2406,859.625 1622.2406,859.2344 Q1622.2406,858.8594 1622.5063,858.625 Q1622.7719,858.3906 1623.3813,858.3906 L1625.1,858.3906 L1625.1,851.7344 L1623.3813,851.7344 Q1622.7719,851.7344 1622.5063,851.5 Q1622.2406,851.2656 1622.2406,850.875 Q1622.2406,850.5 1622.5063,850.2656 Q1622.7719,850.0313 1623.3813,850.0313 L1628.5219,850.0313 Q1629.1313,850.0313 1629.3969,850.2656 Q1629.6625,850.5 1629.6625,850.875 Q1629.6625,851.2656 1629.3969,851.5 Q1629.1313,851.7344 1628.5219,851.7344 L1626.8031,851.7344 Z "/><text fill="#000000" font-family="sans-serif" font-size="12" font-style="italic" lengthAdjust="spacingAndGlyphs" textLength="55" x="1686.15" y="852.457">«Service»</text><text fill="#000000" font-family="sans-serif" font-size="12" font-style="italic" lengthAdjust="spacingAndGlyphs" textLength="145" x="1641.15" y="867.5508">ApplicationEventPublisher</text><line style="stroke: #000000; stroke-width: 1.5;" x1="1606" x2="1794" y1="875.1875" y2="875.1875"/><line style="stroke: #000000; stroke-width: 1.5;" x1="1606" x2="1794" y1="883.1875" y2="883.1875"/><text fill="#000000" font-family="sans-serif" font-size="11" lengthAdjust="spacingAndGlyphs" textLength="178" x="1611" y="898.6064">publishEvent(ApplicationEvent) : void</text><text fill="#000000" font-family="sans-serif" font-size="11" lengthAdjust="spacingAndGlyphs" textLength="129" x="1611" y="912.4424">publishEvent(Object) : void</text><!--class org.springframework.context.ApplicationListener--><rect fill="url(#g17ztacmgzlg8g0)" filter="url(#f17ztacmgzlg8g)" height="70.0234" id="org.springframework.context.ApplicationListener" style="stroke: #000000; stroke-width: 1.5;" width="290" x="1605" y="1322"/><ellipse cx="1620" cy="1342.0938" fill="#B4A7E5" rx="11" ry="11" style="stroke: #000000; stroke-width: 1.0;"/><path d="M1620.9531,1338.7344 L1620.9531,1345.3906 L1622.6719,1345.3906 Q1623.2813,1345.3906 1623.5469,1345.625 Q1623.8125,1345.8594 1623.8125,1346.25 Q1623.8125,1346.625 1623.5469,1346.8594 Q1623.2813,1347.0938 1622.6719,1347.0938 L1617.5313,1347.0938 Q1616.9219,1347.0938 1616.6563,1346.8594 Q1616.3906,1346.625 1616.3906,1346.2344 Q1616.3906,1345.8594 1616.6563,1345.625 Q1616.9219,1345.3906 1617.5313,1345.3906 L1619.25,1345.3906 L1619.25,1338.7344 L1617.5313,1338.7344 Q1616.9219,1338.7344 1616.6563,1338.5 Q1616.3906,1338.2656 1616.3906,1337.875 Q1616.3906,1337.5 1616.6563,1337.2656 Q1616.9219,1337.0313 1617.5313,1337.0313 L1622.6719,1337.0313 Q1623.2813,1337.0313 1623.5469,1337.2656 Q1623.8125,1337.5 1623.8125,1337.875 Q1623.8125,1338.2656 1623.5469,1338.5 Q1623.2813,1338.7344 1622.6719,1338.7344 L1620.9531,1338.7344 Z "/><text fill="#000000" font-family="sans-serif" font-size="12" font-style="italic" lengthAdjust="spacingAndGlyphs" textLength="55" x="1659" y="1339.457">«Service»</text><text fill="#000000" font-family="sans-serif" font-size="12" font-style="italic" lengthAdjust="spacingAndGlyphs" textLength="105" x="1634" y="1354.5508">ApplicationListener</text><rect fill="#FFFFFF" height="17.0938" style="stroke: #000000; stroke-width: 1.0; stroke-dasharray: 2.0,2.0;" width="151" x="1747" y="1319"/><text fill="#000000" font-family="sans-serif" font-size="12" font-style="italic" lengthAdjust="spacingAndGlyphs" textLength="149" x="1748" y="1332.457">E extends ApplicationEvent</text><line style="stroke: #000000; stroke-width: 1.5;" x1="1606" x2="1894" y1="1362.1875" y2="1362.1875"/><line style="stroke: #000000; stroke-width: 1.5;" x1="1606" x2="1894" y1="1370.1875" y2="1370.1875"/><text fill="#000000" font-family="sans-serif" font-size="11" lengthAdjust="spacingAndGlyphs" textLength="135" x="1611" y="1385.6064">onApplicationEvent(E) : void</text><!--link java.lang.Iterable to bioladen.data.log.LogFilter--><path d="M1585.25,463 C1585.25,463 901,463 901,463 C901,463 901,546.836 901,602.836 " fill="none" id="java.lang.Iterable-bioladen.data.log.LogFilter" style="stroke: #000000; stroke-width: 1.0;"/><polygon fill="none" points="1585.25,456,1605.25,463,1585.25,470,1585.25,456" style="stroke: #000000; stroke-width: 1.0;"/><!--link bioladen.data.log.LogEntry to bioladen.data.log.LogLevel--><path d="M1288,933.053 C1288,933.053 1288,1041.177 1288,1041.177 " fill="none" id="bioladen.data.log.LogEntry-bioladen.data.log.LogLevel" style="stroke: #000000; stroke-width: 1.0;"/><polygon fill="#000000" points="1288,1046.177,1292,1037.177,1288,1041.177,1284,1037.177,1288,1046.177" style="stroke: #000000; stroke-width: 1.0;"/><text fill="#000000" font-family="sans-serif" font-size="13" lengthAdjust="spacingAndGlyphs" textLength="7" x="1280.5953" y="954.0017">1</text><text fill="#000000" font-family="sans-serif" font-size="13" lengthAdjust="spacingAndGlyphs" textLength="7" x="1280.5297" y="1035.6339">1</text><!--link bioladen.data.log.LogEntry to bioladen.data.log.Logger--><path d="M1222.37,930 C1199.76,930 1180,930 1180,930 C1180,930 1180,980.993 1180,980.993 " fill="none" id="bioladen.data.log.LogEntry-bioladen.data.log.Logger" style="stroke: #000000; stroke-width: 1.0;"/><polygon fill="#000000" points="1180,993.993,1184,987.993,1180,981.993,1176,987.993,1180,993.993" style="stroke: #000000; stroke-width: 1.0;"/><text fill="#000000" font-family="sans-serif" font-size="13" lengthAdjust="spacingAndGlyphs" textLength="20" x="1194.5707" y="932.178">0..*</text><text fill="#000000" font-family="sans-serif" font-size="13" lengthAdjust="spacingAndGlyphs" textLength="7" x="1178.4711" y="983.2615">1</text><!--link bioladen.data.log.LogFilter to bioladen.data.log.LogExplorer--><path d="M993,706.099 C993,706.099 993,827.617 993,827.617 " fill="none" id="bioladen.data.log.LogFilter-bioladen.data.log.LogExplorer" style="stroke: #000000; stroke-width: 1.0;"/><polygon fill="#000000" points="993,701.099,989,710.099,993,706.099,997,710.099,993,701.099" style="stroke: #000000; stroke-width: 1.0;"/><!--link bioladen.data.log.LogExplorer to bioladen.data.log.Logger--><path d="M1081,946.047 C1081,946.047 1081,993.88 1081,993.88 " fill="none" id="bioladen.data.log.LogExplorer-bioladen.data.log.Logger" style="stroke: #000000; stroke-width: 1.0;"/><polygon fill="none" points="1074,946.047,1081,926.047,1088,946.047,1074,946.047" style="stroke: #000000; stroke-width: 1.0;"/><!--link bioladen.data.statistic.Chart to bioladen.data.statistic.BarChart--><path d="M498,332.09 C498,332.09 498,427.76 498,427.76 " fill="none" id="bioladen.data.statistic.Chart-bioladen.data.statistic.BarChart" style="stroke: #000000; stroke-width: 1.0;"/><polygon fill="none" points="491,332.09,498,312.09,505,332.09,491,332.09" style="stroke: #000000; stroke-width: 1.0;"/><!--link bioladen.data.statistic.Chart to bioladen.data.statistic.LineChart--><path d="M649,332.09 C649,332.09 649,427.76 649,427.76 " fill="none" id="bioladen.data.statistic.Chart-bioladen.data.statistic.LineChart" style="stroke: #000000; stroke-width: 1.0;"/><polygon fill="none" points="642,332.09,649,312.09,656,332.09,642,332.09" style="stroke: #000000; stroke-width: 1.0;"/><!--link bioladen.data.statistic.Chart to bioladen.data.statistic.PieChart--><path d="M347,332.09 C347,332.09 347,427.76 347,427.76 " fill="none" id="bioladen.data.statistic.Chart-bioladen.data.statistic.PieChart" style="stroke: #000000; stroke-width: 1.0;"/><polygon fill="none" points="340,332.09,347,312.09,354,332.09,340,332.09" style="stroke: #000000; stroke-width: 1.0;"/><!--link bioladen.data.statistic.PieChart to bioladen.data.statistic.StatisticController--><path d="M347,503.133 C347,503.133 347,643 347,643 C347,643 392.16,643 433.086,643 " fill="none" id="bioladen.data.statistic.PieChart-bioladen.data.statistic.StatisticController" style="stroke: #000000; stroke-width: 1.0;"/><polygon fill="#000000" points="347,498.133,343,507.133,347,503.133,351,507.133,347,498.133" style="stroke: #000000; stroke-width: 1.0;"/><text fill="#000000" font-family="sans-serif" font-size="13" lengthAdjust="spacingAndGlyphs" textLength="20" x="325.1563" y="519.611">0..*</text><text fill="#000000" font-family="sans-serif" font-size="13" lengthAdjust="spacingAndGlyphs" textLength="7" x="418.6032" y="638.6447">1</text><!--link bioladen.data.statistic.LineChart to bioladen.data.statistic.StatisticController--><path d="M624.25,503.133 C624.25,503.133 624.25,643 624.25,643 C624.25,643 593.666,643 562.604,643 " fill="none" id="bioladen.data.statistic.LineChart-bioladen.data.statistic.StatisticController" style="stroke: #000000; stroke-width: 1.0;"/><polygon fill="#000000" points="624.25,498.133,620.25,507.133,624.25,503.133,628.25,507.133,624.25,498.133" style="stroke: #000000; stroke-width: 1.0;"/><text fill="#000000" font-family="sans-serif" font-size="13" lengthAdjust="spacingAndGlyphs" textLength="20" x="597.843" y="519.611">0..*</text><text fill="#000000" font-family="sans-serif" font-size="13" lengthAdjust="spacingAndGlyphs" textLength="7" x="570.4785" y="638.539">1</text><!--link bioladen.data.statistic.BarChart to bioladen.data.statistic.StatisticController--><path d="M498,503.107 C498,503.107 498,623.855 498,623.855 " fill="none" id="bioladen.data.statistic.BarChart-bioladen.data.statistic.StatisticController" style="stroke: #000000; stroke-width: 1.0;"/><polygon fill="#000000" points="498,498.107,494,507.107,498,503.107,502,507.107,498,498.107" style="stroke: #000000; stroke-width: 1.0;"/><text fill="#000000" font-family="sans-serif" font-size="13" lengthAdjust="spacingAndGlyphs" textLength="20" x="476.1563" y="519.5802">0..*</text><text fill="#000000" font-family="sans-serif" font-size="13" lengthAdjust="spacingAndGlyphs" textLength="7" x="490.1906" y="613.0106">1</text><!--link bioladen.data.statistic.StatisticController to bioladen.data.statistic.Statistic--><path d="M562.701,662 C615.79,662 682.25,662 682.25,662 C682.25,662 682.25,843.893 682.25,843.893 " fill="none" id="bioladen.data.statistic.StatisticController-bioladen.data.statistic.Statistic" style="stroke: #000000; stroke-width: 1.0;"/><polygon fill="#000000" points="682.25,848.893,686.25,839.893,682.25,843.893,678.25,839.893,682.25,848.893" style="stroke: #000000; stroke-width: 1.0;"/><text fill="#000000" font-family="sans-serif" font-size="13" lengthAdjust="spacingAndGlyphs" textLength="7" x="570.5867" y="659.7359">1</text><text fill="#000000" font-family="sans-serif" font-size="13" lengthAdjust="spacingAndGlyphs" textLength="7" x="670.5672" y="838.0573">1</text><!--link bioladen.data.statistic.Statistic to bioladen.data.log.Logger--><path d="M699,905.439 C699,965.128 699,1098 699,1098 C699,1098 989.899,1098 989.899,1098 " fill="none" id="bioladen.data.statistic.Statistic-bioladen.data.log.Logger" style="stroke: #000000; stroke-width: 1.0;"/><polygon fill="#000000" points="1002.899,1098,996.899,1094,990.899,1098,996.899,1102,1002.899,1098" style="stroke: #000000; stroke-width: 1.0;"/><text fill="#000000" font-family="sans-serif" font-size="13" lengthAdjust="spacingAndGlyphs" textLength="7" x="691.2781" y="926.4666">1</text><text fill="#000000" font-family="sans-serif" font-size="13" lengthAdjust="spacingAndGlyphs" textLength="7" x="988.0436" y="1094.8814">1</text><!--link bioladen.data.statistic.StatisticController to statistic.html--><path d="M433.359,662 C332.72,662 150,662 150,662 C150,662 150,844.333 150,844.333 " fill="none" id="bioladen.data.statistic.StatisticController-statistic.html" style="stroke: #000000; stroke-width: 1.0;"/><polygon fill="#000000" points="150,849.333,154,840.333,150,844.333,146,840.333,150,849.333" style="stroke: #000000; stroke-width: 1.0;"/><!--link bioladen.data.log.LogEntry to org.salespointframework.time.BusinessTime--><path d="M1353.64,828 C1539.16,828 2054,828 2054,828 C2054,828 2054,843.78 2054,843.78 " fill="none" id="bioladen.data.log.LogEntry-org.salespointframework.time.BusinessTime" style="stroke: #000000; stroke-width: 1.0;"/><polygon fill="#000000" points="2054,848.78,2058,839.78,2054,843.78,2050,839.78,2054,848.78" style="stroke: #000000; stroke-width: 1.0;"/><!--link org.springframework.context.ApplicationEvent to org.springframework.context.ApplicationListener--><path d="M1700,1159.199 C1700,1159.199 1700,1321.98 1700,1321.98 " fill="none" id="org.springframework.context.ApplicationEvent-org.springframework.context.ApplicationListener" style="stroke: #000000; stroke-width: 1.0;"/><polygon fill="#000000" points="1700,1154.199,1696,1163.199,1700,1159.199,1704,1163.199,1700,1154.199" style="stroke: #000000; stroke-width: 1.0;"/><text fill="#000000" font-family="sans-serif" font-size="13" lengthAdjust="spacingAndGlyphs" textLength="45" x="1739.5" y="1272.4951">«binds»</text><text fill="#000000" font-family="sans-serif" font-size="13" lengthAdjust="spacingAndGlyphs" textLength="96" x="1716" y="1288.8467">ApplicationEvent</text><text fill="#000000" font-family="sans-serif" font-size="13" lengthAdjust="spacingAndGlyphs" textLength="5" x="1694.7109" y="1175.1646">*</text><text fill="#000000" font-family="sans-serif" font-size="13" lengthAdjust="spacingAndGlyphs" textLength="7" x="1682.4672" y="1311.0379">1</text><!--link org.springframework.context.ApplicationEventPublisher to org.springframework.context.ApplicationEvent--><path d="M1700,919.089 C1700,919.089 1700,1036.864 1700,1036.864 " fill="none" id="org.springframework.context.ApplicationEventPublisher-org.springframework.context.ApplicationEvent" style="stroke: #000000; stroke-width: 1.0;"/><polygon fill="#000000" points="1700,1041.864,1704,1032.864,1700,1036.864,1696,1032.864,1700,1041.864" style="stroke: #000000; stroke-width: 1.0;"/><text fill="#000000" font-family="sans-serif" font-size="13" lengthAdjust="spacingAndGlyphs" textLength="7" x="1692.4641" y="940.2917">1</text><text fill="#000000" font-family="sans-serif" font-size="13" lengthAdjust="spacingAndGlyphs" textLength="5" x="1694.6797" y="1031.1942">*</text><!--link bioladen.data.log.LogEvent to org.springframework.context.ApplicationEvent--><path d="M1457.83,912.018 C1457.83,974.334 1457.83,1098 1457.83,1098 C1457.83,1098 1611.25,1098 1611.25,1098 " fill="none" id="bioladen.data.log.LogEvent-org.springframework.context.ApplicationEvent" style="stroke: #000000; stroke-width: 1.0;"/><polygon fill="none" points="1611.25,1091,1631.25,1098,1611.25,1105,1611.25,1091" style="stroke: #000000; stroke-width: 1.0;"/><!--link bioladen.data.log.LogEventListener to org.springframework.context.ApplicationListener--><path d="M1211.75,687.444 C1211.75,830.406 1211.75,1357 1211.75,1357 C1211.75,1357 1584.7,1357 1584.7,1357 " fill="none" id="bioladen.data.log.LogEventListener-org.springframework.context.ApplicationListener" style="stroke: #000000; stroke-width: 1.0;"/><polygon fill="none" points="1584.7,1349.9999,1604.7,1357,1584.7,1363.9999,1584.7,1349.9999" style="stroke: #000000; stroke-width: 1.0;"/><!--link bioladen.data.log.LogEvent to bioladen.data.log.Logger--><path d="M1430.17,917.217 C1430.17,917.217 1430.17,1018 1430.17,1018 C1430.17,1018 1297.94,1018 1201.35,1018 " fill="none" id="bioladen.data.log.LogEvent-bioladen.data.log.Logger" style="stroke: #000000; stroke-width: 1.0;"/><polygon fill="#000000" points="1430.17,912.217,1426.17,921.217,1430.17,917.217,1434.17,921.217,1430.17,912.217" style="stroke: #000000; stroke-width: 1.0;"/><text fill="#000000" font-family="sans-serif" font-size="13" lengthAdjust="spacingAndGlyphs" textLength="20" x="1405.9253" y="933.4394">0..*</text><text fill="#000000" font-family="sans-serif" font-size="13" lengthAdjust="spacingAndGlyphs" textLength="7" x="1208.903" y="1009.0315">1</text><!--link bioladen.data.log.LogEventListener to bioladen.data.statistic.Statistic--><path d="M1099.5,692.057 C1099.5,692.057 1099.5,705 1099.5,705 C1099.5,705 723.75,705 723.75,705 C723.75,705 723.75,800.244 723.75,848.982 " fill="none" id="bioladen.data.log.LogEventListener-bioladen.data.statistic.Statistic" style="stroke: #000000; stroke-width: 1.0;"/><polygon fill="#000000" points="1099.5,687.057,1095.5,696.057,1099.5,692.057,1103.5,696.057,1099.5,687.057" style="stroke: #000000; stroke-width: 1.0;"/><text fill="#000000" font-family="sans-serif" font-size="13" lengthAdjust="spacingAndGlyphs" textLength="20" x="1070.9266" y="708.521">0..*</text><text fill="#000000" font-family="sans-serif" font-size="13" lengthAdjust="spacingAndGlyphs" textLength="7" x="721.6641" y="838.1669">1</text><rect fill="#DDDDDD" height="84.4375" rx="5" ry="5" style="stroke: #000000; stroke-width: 1.0;" width="121" x="1082.5" y="1466"/><text fill="#000000" font-family="sans-serif" font-size="14" font-weight="bold" lengthAdjust="spacingAndGlyphs" textLength="0" x="1092.5" y="1487.5332"/><text fill="#000000" font-family="sans-serif" font-size="14" font-weight="bold" lengthAdjust="spacingAndGlyphs" textLength="81" x="1112.5" y="1487.5332">Component</text><text fill="#000000" filter="url(#b17ztacmgzlg8g0)" font-family="sans-serif" font-size="14" lengthAdjust="spacingAndGlyphs" textLength="0" x="1108.5" y="1505.1426"/><text fill="#000000" font-family="sans-serif" font-size="14" lengthAdjust="spacingAndGlyphs" textLength="38" x="1112.5" y="1505.1426">Model</text><text fill="#000000" filter="url(#b17ztacmgzlg8g1)" font-family="sans-serif" font-size="14" lengthAdjust="spacingAndGlyphs" textLength="0" x="1108.5" y="1522.752"/><text fill="#000000" font-family="sans-serif" font-size="14" lengthAdjust="spacingAndGlyphs" textLength="29" x="1112.5" y="1522.752">View</text><text fill="#000000" filter="url(#b17ztacmgzlg8g2)" font-family="sans-serif" font-size="14" lengthAdjust="spacingAndGlyphs" textLength="0" x="1108.5" y="1540.3613"/><text fill="#000000" font-family="sans-serif" font-size="14" lengthAdjust="spacingAndGlyphs" textLength="62" x="1112.5" y="1540.3613">Controller</text><line style="stroke: #000000; stroke-width: 1.0;" x1="1088.5" x2="1197.5" y1="1473" y2="1473"/><line style="stroke: #000000; stroke-width: 1.0;" x1="1088.5" x2="1197.5" y1="1490.6094" y2="1490.6094"/><line style="stroke: #000000; stroke-width: 1.0;" x1="1088.5" x2="1197.5" y1="1508.2188" y2="1508.2188"/><line style="stroke: #000000; stroke-width: 1.0;" x1="1088.5" x2="1197.5" y1="1525.8281" y2="1525.8281"/><line style="stroke: #000000; stroke-width: 1.0;" x1="1088.5" x2="1197.5" y1="1543.4375" y2="1543.4375"/><line style="stroke: #000000; stroke-width: 1.0;" x1="1088.5" x2="1088.5" y1="1473" y2="1543.4375"/><line style="stroke: #000000; stroke-width: 1.0;" x1="1108.5" x2="1108.5" y1="1473" y2="1543.4375"/><line style="stroke: #000000; stroke-width: 1.0;" x1="1197.5" x2="1197.5" y1="1473" y2="1543.4375"/><!--
@startuml




skinparam class {
	BackgroundColor #Silver/white
	BackgroundColor<<Repository>> #Coral/Lightsalmon
	BackgroundColor<<Controller>> #Cornflowerblue/Cyan
    BorderColor Black
    ArrowColor  Black
}

skinparam package {
    FontColor Grey
    BorderColor Darkgrey
}

skinparam classAttributeIconSize 0
skinparam linetype ortho

legend
|= | Component |
|<back:#fe8052>     </back>| Model |
|<back:#3dd13f>     </back>| View |
|<back:#5f9aea>     </back>| Controller |
endlegend


rectangle JavaSE-1.8{
    namespace java.lang {

    }
}


rectangle Bioladen {
    namespace bioladen.data.log {

        class Logger <<Service>> {
            -log(LogLevel, Order) : boolean
            -log(LogLevel, Sale) : boolean
            -log(LogLevel, Cancellation) : boolean
            -log(LogLevel, LogInventory) : boolean
            -log(LogLevel, User) : boolean
            +info(Object, String) : boolean
            +warning(Object, String) : boolean
            +error(Object, String) : boolean
            +getLog() : Iterable<LogEntry>
            +getLog()
            -publishLogEvent()
        }

        class LogEntry <<Entity>> {
            -logLevel : LogLevel
            -thrownBy : String
            -logTime : LocalDateTime
            -content : Object
        }

        class EntityCreatedEventListener <<Service>> {
            -listenOrderEvent(EntityCreatedEvent) : void
            -listenSaleEvent(EntityCreatedEvent) : void
            -listenUserEvent(EntityCreatedEvent) : void
            -listenProductEvent(EntityCreatedEvent) : void
        }

        enum LogLevel {
            INFO
            WARNING
            ERROR
            ENTITY
        }


        class LogExplorer <<Entity>> {
            +filterBy(Duration) : LogExplorer
            +filterBy(LogLevel) : LogExplorer
            +filterBy(ThrownBy) : LogExplorer
        }

        class LogFilter <<static>> extends java.lang.Iterable  {
            +filterBy(LogFilter, Duration) : LogFilter
            +filterBy(LogFilter, LogLevel) : LogFilter
            +filterBy(LogFilter, ThrownBy) : LogFilter
        }



        class LogEvent <<Entity>> {
            +LogEvent()

        }

        class LogEventListener <<Service>> {
            +onApplicationEvent(LogEvent) : void
        }







        LogEntry "1" - -> "1" LogLevel
        LogEntry "0..*" - -* "1" Logger
        LogFilter <- - LogExplorer
        LogExplorer <|- - Logger

    }

    namespace bioladen.data.statistic {
       class StatisticController <<Controller>> {

        }

        abstract class Chart <<static, final>>{
            {abstract} CHART_TYPE : String
            TEMPLATE : String
            TEMPLATE_DATASET : String
            generateChart(title : String, labels : List<T>, data : List<T>) : String
            generateChart(title : String, dataset : Map<T,S>) : String
            generateChart(title : String, labels : List<List<T>>, data : List<List<T>>) : String
            generateChart(title : String, datasets : List<Map<T,S>>) : String
            generateChart(title : String, labels : List<T>, data : List<T>, color : Color) : String
            generateChart(title : String, dataset : Map<T,S>, color : Color) : String
            generateChart(title : String, labels : List<List<T>>, data : List<List<T>>, colors : List<Color>) : String
            generateChart(title : String, datasets : List<Map<T,S>>, colors : List<Color>) : String
        }

        class BarChart <<Entity>> extends bioladen.data.statistic.Chart {
            CHART_TYPE : String
        }

        class LineChart <<Entity>> extends bioladen.data.statistic.Chart {
            CHART_TYPE : String
        }

        class PieChart <<Entity>> extends bioladen.data.statistic.Chart  {
            CHART_TYPE : String
        }

        class Statistic <<Service>>{

        }

        PieChart "0..*" <- - "1" StatisticController
        LineChart "0..*" <- - "1" StatisticController
        BarChart "0..*" <- - "1" StatisticController
        StatisticController "1" - -> "1" Statistic
        Statistic "1" - -* "1" bioladen.data.log.Logger


    }


    namespace ressources.templates {

        file statistic.html <<View>> #limegreen/technology {

        }

        bioladen.data.statistic.StatisticController - -> statistic.html
    }



}

rectangle salespoint-framework-7.0.0.RELEASE.jar {
    namespace org.salespointframework.time {

        interface BusinessTime <<Service>> {

        }

        BusinessTime <-right- bioladen.data.log.LogEntry
    }
}


rectangle spring-data-comments-2.1.0.RELEASE.jar as spring {
    namespace org.springframework.context{

        class ApplicationEvent <<Entity>>{
            {static} - serialVersionUID : long
            - timestamp : long
            + ApplicationEvent(Object)
            + getTimestamp() : long
        }

        interface ApplicationEventPublisher <<Service>>{
            publishEvent(ApplicationEvent) : void
            publishEvent(Object) : void
        }

        interface ApplicationListener <E extends ApplicationEvent> <<Service>>{
            onApplicationEvent(E) : void
        }

        ApplicationEvent "*" <- - "1" ApplicationListener: <<binds>>\n ApplicationEvent
        ApplicationEventPublisher "1" - -> "*" ApplicationEvent
    }

}

bioladen.data.log.LogEvent - -|> org.springframework.context.ApplicationEvent
bioladen.data.log.LogEventListener - -|> org.springframework.context.ApplicationListener
bioladen.data.log.LogEvent "0..*" <- - "1" bioladen.data.log.Logger
bioladen.data.log.LogEventListener "0..*" <- - "1" bioladen.data.statistic.Statistic


@enduml

PlantUML version 1.2018.12(Sun Oct 21 12:15:15 CEST 2018)
(GPL source distribution)
Java Runtime: Java(TM) SE Runtime Environment
JVM: Java HotSpot(TM) Client VM
Java Version: 1.8.0_181-b13
Operating System: Windows 10
OS Version: 10.0
Default Encoding: Cp1252
Language: de
Country: DE
--></g></svg>