<?xml version="1.0" encoding="UTF-8" standalone="no"?><svg xmlns="http://www.w3.org/2000/svg" xmlns:xlink="http://www.w3.org/1999/xlink" contentScriptType="application/ecmascript" contentStyleType="text/css" height="261px" preserveAspectRatio="none" style="width:512px;height:261px;" version="1.1" viewBox="0 0 512 261" width="512px" zoomAndPan="magnify"><defs><filter height="300%" id="fp5vbi6ns8qf4" width="300%" x="-1" y="-1"><feGaussianBlur result="blurOut" stdDeviation="2.0"/><feColorMatrix in="blurOut" result="blurOut2" type="matrix" values="0 0 0 0 0 0 0 0 0 0 0 0 0 0 0 0 0 0 .4 0"/><feOffset dx="4.0" dy="4.0" in="blurOut2" result="blurOut3"/><feBlend in="SourceGraphic" in2="blurOut3" mode="normal"/></filter><linearGradient id="gp5vbi6ns8qf40" x1="0%" x2="100%" y1="0%" y2="100%"><stop offset="0%" stop-color="#F08080"/><stop offset="100%" stop-color="#FFB6C1"/></linearGradient></defs><g><!--cluster salespoint-framework-7.0.0.RELEASE.jar--><rect fill="#FFFFFF" filter="url(#fp5vbi6ns8qf4)" height="234" style="stroke: #8B008B; stroke-width: 1.5;" width="484" x="14" y="16"/><text fill="#808080" font-family="sans-serif" font-size="14" font-weight="bold" lengthAdjust="spacingAndGlyphs" textLength="316" x="98" y="30.9951">salespoint-framework-7.0.0.RELEASE.jar</text><!--cluster org.salespointframework.order--><polygon fill="#FFFFFF" filter="url(#fp5vbi6ns8qf4)" points="22,43,276,43,283,65.2969,490,65.2969,490,242,22,242,22,43" style="stroke: #8B008B; stroke-width: 1.5;"/><line style="stroke: #8B008B; stroke-width: 1.5;" x1="22" x2="283" y1="65.2969" y2="65.2969"/><text fill="#808080" font-family="sans-serif" font-size="14" font-weight="bold" lengthAdjust="spacingAndGlyphs" textLength="248" x="26" y="57.9951">org.salespointframework.order</text><!--class OrderManager--><rect fill="url(#gp5vbi6ns8qf40)" filter="url(#fp5vbi6ns8qf4)" height="48" id="OrderManager" style="stroke: #000000; stroke-width: 1.5;" width="121" x="30.5" y="78"/><ellipse cx="45.5" cy="94" fill="#B4A7E5" rx="11" ry="11" style="stroke: #000000; stroke-width: 1.0;"/><path d="M41.4219,89.7656 L41.4219,87.6094 L48.8125,87.6094 L48.8125,89.7656 L46.3438,89.7656 L46.3438,97.8438 L48.8125,97.8438 L48.8125,100 L41.4219,100 L41.4219,97.8438 L43.8906,97.8438 L43.8906,89.7656 L41.4219,89.7656 Z "/><text fill="#000000" font-family="sans-serif" font-size="12" font-style="italic" lengthAdjust="spacingAndGlyphs" textLength="89" x="59.5" y="98.1543">OrderManager</text><line style="stroke: #000000; stroke-width: 1.5;" x1="31.5" x2="150.5" y1="110" y2="110"/><line style="stroke: #000000; stroke-width: 1.5;" x1="31.5" x2="150.5" y1="118" y2="118"/><!--class Order--><rect fill="url(#gp5vbi6ns8qf40)" filter="url(#fp5vbi6ns8qf4)" height="48" id="Order" style="stroke: #000000; stroke-width: 1.5;" width="67" x="186.5" y="78"/><ellipse cx="201.5" cy="94" fill="#ADD1B2" rx="11" ry="11" style="stroke: #000000; stroke-width: 1.0;"/><path d="M204.4688,99.6406 Q203.8906,99.9375 203.25,100.0781 Q202.6094,100.2344 201.9063,100.2344 Q199.4063,100.2344 198.0781,98.5938 Q196.7656,96.9375 196.7656,93.8125 Q196.7656,90.6875 198.0781,89.0313 Q199.4063,87.375 201.9063,87.375 Q202.6094,87.375 203.25,87.5313 Q203.9063,87.6875 204.4688,87.9844 L204.4688,90.7031 Q203.8438,90.125 203.25,89.8594 Q202.6563,89.5781 202.0313,89.5781 Q200.6875,89.5781 200,90.6563 Q199.3125,91.7188 199.3125,93.8125 Q199.3125,95.9063 200,96.9844 Q200.6875,98.0469 202.0313,98.0469 Q202.6563,98.0469 203.25,97.7813 Q203.8438,97.5 204.4688,96.9219 L204.4688,99.6406 Z "/><text fill="#000000" font-family="sans-serif" font-size="12" lengthAdjust="spacingAndGlyphs" textLength="35" x="215.5" y="98.1543">Order</text><line style="stroke: #000000; stroke-width: 1.5;" x1="187.5" x2="252.5" y1="110" y2="110"/><line style="stroke: #000000; stroke-width: 1.5;" x1="187.5" x2="252.5" y1="118" y2="118"/><!--class Cart--><rect fill="url(#gp5vbi6ns8qf40)" filter="url(#fp5vbi6ns8qf4)" height="48" id="Cart" style="stroke: #000000; stroke-width: 1.5;" width="58" x="289" y="78"/><ellipse cx="304" cy="94" fill="#ADD1B2" rx="11" ry="11" style="stroke: #000000; stroke-width: 1.0;"/><path d="M306.9688,99.6406 Q306.3906,99.9375 305.75,100.0781 Q305.1094,100.2344 304.4063,100.2344 Q301.9063,100.2344 300.5781,98.5938 Q299.2656,96.9375 299.2656,93.8125 Q299.2656,90.6875 300.5781,89.0313 Q301.9063,87.375 304.4063,87.375 Q305.1094,87.375 305.75,87.5313 Q306.4063,87.6875 306.9688,87.9844 L306.9688,90.7031 Q306.3438,90.125 305.75,89.8594 Q305.1563,89.5781 304.5313,89.5781 Q303.1875,89.5781 302.5,90.6563 Q301.8125,91.7188 301.8125,93.8125 Q301.8125,95.9063 302.5,96.9844 Q303.1875,98.0469 304.5313,98.0469 Q305.1563,98.0469 305.75,97.7813 Q306.3438,97.5 306.9688,96.9219 L306.9688,99.6406 Z "/><text fill="#000000" font-family="sans-serif" font-size="12" lengthAdjust="spacingAndGlyphs" textLength="26" x="318" y="98.1543">Cart</text><line style="stroke: #000000; stroke-width: 1.5;" x1="290" x2="346" y1="110" y2="110"/><line style="stroke: #000000; stroke-width: 1.5;" x1="290" x2="346" y1="118" y2="118"/><!--class CartItem--><rect fill="url(#gp5vbi6ns8qf40)" filter="url(#fp5vbi6ns8qf4)" height="48" id="CartItem" style="stroke: #000000; stroke-width: 1.5;" width="85" x="48.5" y="186"/><ellipse cx="63.5" cy="202" fill="#ADD1B2" rx="11" ry="11" style="stroke: #000000; stroke-width: 1.0;"/><path d="M66.4688,207.6406 Q65.8906,207.9375 65.25,208.0781 Q64.6094,208.2344 63.9063,208.2344 Q61.4063,208.2344 60.0781,206.5938 Q58.7656,204.9375 58.7656,201.8125 Q58.7656,198.6875 60.0781,197.0313 Q61.4063,195.375 63.9063,195.375 Q64.6094,195.375 65.25,195.5313 Q65.9063,195.6875 66.4688,195.9844 L66.4688,198.7031 Q65.8438,198.125 65.25,197.8594 Q64.6563,197.5781 64.0313,197.5781 Q62.6875,197.5781 62,198.6563 Q61.3125,199.7188 61.3125,201.8125 Q61.3125,203.9063 62,204.9844 Q62.6875,206.0469 64.0313,206.0469 Q64.6563,206.0469 65.25,205.7813 Q65.8438,205.5 66.4688,204.9219 L66.4688,207.6406 Z "/><text fill="#000000" font-family="sans-serif" font-size="12" lengthAdjust="spacingAndGlyphs" textLength="53" x="77.5" y="206.1543">CartItem</text><line style="stroke: #000000; stroke-width: 1.5;" x1="49.5" x2="132.5" y1="218" y2="218"/><line style="stroke: #000000; stroke-width: 1.5;" x1="49.5" x2="132.5" y1="226" y2="226"/><!--class OrderStatus--><rect fill="url(#gp5vbi6ns8qf40)" filter="url(#fp5vbi6ns8qf4)" height="48" id="OrderStatus" style="stroke: #000000; stroke-width: 1.5;" width="108" x="169" y="186"/><ellipse cx="184" cy="202" fill="#EB937F" rx="11" ry="11" style="stroke: #000000; stroke-width: 1.0;"/><path d="M188.1094,208 L180.3906,208 L180.3906,195.6094 L188.1094,195.6094 L188.1094,197.7656 L182.8438,197.7656 L182.8438,200.4375 L187.6094,200.4375 L187.6094,202.5938 L182.8438,202.5938 L182.8438,205.8438 L188.1094,205.8438 L188.1094,208 Z "/><text fill="#000000" font-family="sans-serif" font-size="12" lengthAdjust="spacingAndGlyphs" textLength="76" x="198" y="206.1543">OrderStatus</text><line style="stroke: #000000; stroke-width: 1.5;" x1="170" x2="276" y1="218" y2="218"/><line style="stroke: #000000; stroke-width: 1.5;" x1="170" x2="276" y1="226" y2="226"/><!--class OrderLine--><rect fill="url(#gp5vbi6ns8qf40)" filter="url(#fp5vbi6ns8qf4)" height="48" id="OrderLine" style="stroke: #000000; stroke-width: 1.5;" width="92" x="382" y="78"/><ellipse cx="397" cy="94" fill="#ADD1B2" rx="11" ry="11" style="stroke: #000000; stroke-width: 1.0;"/><path d="M399.9688,99.6406 Q399.3906,99.9375 398.75,100.0781 Q398.1094,100.2344 397.4063,100.2344 Q394.9063,100.2344 393.5781,98.5938 Q392.2656,96.9375 392.2656,93.8125 Q392.2656,90.6875 393.5781,89.0313 Q394.9063,87.375 397.4063,87.375 Q398.1094,87.375 398.75,87.5313 Q399.4063,87.6875 399.9688,87.9844 L399.9688,90.7031 Q399.3438,90.125 398.75,89.8594 Q398.1563,89.5781 397.5313,89.5781 Q396.1875,89.5781 395.5,90.6563 Q394.8125,91.7188 394.8125,93.8125 Q394.8125,95.9063 395.5,96.9844 Q396.1875,98.0469 397.5313,98.0469 Q398.1563,98.0469 398.75,97.7813 Q399.3438,97.5 399.9688,96.9219 L399.9688,99.6406 Z "/><text fill="#000000" font-family="sans-serif" font-size="12" lengthAdjust="spacingAndGlyphs" textLength="60" x="411" y="98.1543">OrderLine</text><line style="stroke: #000000; stroke-width: 1.5;" x1="383" x2="473" y1="110" y2="110"/><line style="stroke: #000000; stroke-width: 1.5;" x1="383" x2="473" y1="118" y2="118"/><!--link OrderManager to Order--><!--link Order to Cart--><!--link OrderManager to CartItem--><!--link CartItem to OrderStatus--><!--
@startuml

skinparam class {
	BackgroundColor #LightCoral/LightPink
    BorderColor Black
    ArrowColor  Black
}

skinparam package {
    FontColor Grey
    BorderColor DarkMagenta
}

skinparam classAttributeIconSize 0
skinparam linetype ortho

rectangle salespoint-framework-7.0.0.RELEASE.jar {
    package org.salespointframework.order {
        interface OrderManager {

        }

        class Order {

        }

        class Cart {

        }

        class CartItem {

        }

        together {
        class OrderLine {

        }
        }

        enum OrderStatus {

        }

    }

}

@enduml

PlantUML version 1.2018.12(Sun Oct 21 12:15:15 CEST 2018)
(GPL source distribution)
Java Runtime: OpenJDK Runtime Environment
JVM: OpenJDK 64-Bit Server VM
Java Version: 11.0.1+13-Debian-2
Operating System: Linux
OS Version: 4.18.0-parrot10-amd64
Default Encoding: UTF-8
Language: en
Country: US
--></g></svg>