<?xml version="1.0" encoding="UTF-8" standalone="no"?><svg xmlns="http://www.w3.org/2000/svg" xmlns:xlink="http://www.w3.org/1999/xlink" contentScriptType="application/ecmascript" contentStyleType="text/css" height="346px" preserveAspectRatio="none" style="width:384px;height:346px;" version="1.1" viewBox="0 0 384 346" width="384px" zoomAndPan="magnify"><defs><filter height="300%" id="f1n5ofxpd4vwbk" width="300%" x="-1" y="-1"><feGaussianBlur result="blurOut" stdDeviation="2.0"/><feColorMatrix in="blurOut" result="blurOut2" type="matrix" values="0 0 0 0 0 0 0 0 0 0 0 0 0 0 0 0 0 0 .4 0"/><feOffset dx="4.0" dy="4.0" in="blurOut2" result="blurOut3"/><feBlend in="SourceGraphic" in2="blurOut3" mode="normal"/></filter></defs><g><!--class AbstractList--><rect fill="#FEFECE" filter="url(#f1n5ofxpd4vwbk)" height="48" id="AbstractList" style="stroke: #A80036; stroke-width: 1.5;" width="105" x="186" y="154"/><ellipse cx="201" cy="170" fill="#A9DCDF" rx="11" ry="11" style="stroke: #A80036; stroke-width: 1.0;"/><path d="M201.1094,165.3438 L199.9531,170.4219 L202.2813,170.4219 L201.1094,165.3438 Z M199.625,163.1094 L202.6094,163.1094 L205.9688,175.5 L203.5156,175.5 L202.75,172.4375 L199.4688,172.4375 L198.7188,175.5 L196.2813,175.5 L199.625,163.1094 Z "/><text fill="#000000" font-family="sans-serif" font-size="12" font-style="italic" lengthAdjust="spacingAndGlyphs" textLength="73" x="215" y="174.1543">AbstractList</text><line style="stroke: #A80036; stroke-width: 1.5;" x1="187" x2="290" y1="186" y2="186"/><line style="stroke: #A80036; stroke-width: 1.5;" x1="187" x2="290" y1="194" y2="194"/><!--class AbstractCollection--><rect fill="#FEFECE" filter="url(#f1n5ofxpd4vwbk)" height="48" id="AbstractCollection" style="stroke: #A80036; stroke-width: 1.5;" width="145" x="6" y="154"/><ellipse cx="21" cy="170" fill="#A9DCDF" rx="11" ry="11" style="stroke: #A80036; stroke-width: 1.0;"/><path d="M21.1094,165.3438 L19.9531,170.4219 L22.2813,170.4219 L21.1094,165.3438 Z M19.625,163.1094 L22.6094,163.1094 L25.9688,175.5 L23.5156,175.5 L22.75,172.4375 L19.4688,172.4375 L18.7188,175.5 L16.2813,175.5 L19.625,163.1094 Z "/><text fill="#000000" font-family="sans-serif" font-size="12" font-style="italic" lengthAdjust="spacingAndGlyphs" textLength="113" x="35" y="174.1543">AbstractCollection</text><line style="stroke: #A80036; stroke-width: 1.5;" x1="7" x2="150" y1="186" y2="186"/><line style="stroke: #A80036; stroke-width: 1.5;" x1="7" x2="150" y1="194" y2="194"/><!--class List--><rect fill="#FEFECE" filter="url(#f1n5ofxpd4vwbk)" height="48" id="List" style="stroke: #A80036; stroke-width: 1.5;" width="53" x="199" y="27"/><ellipse cx="214" cy="43" fill="#B4A7E5" rx="11" ry="11" style="stroke: #A80036; stroke-width: 1.0;"/><path d="M209.9219,38.7656 L209.9219,36.6094 L217.3125,36.6094 L217.3125,38.7656 L214.8438,38.7656 L214.8438,46.8438 L217.3125,46.8438 L217.3125,49 L209.9219,49 L209.9219,46.8438 L212.3906,46.8438 L212.3906,38.7656 L209.9219,38.7656 Z "/><text fill="#000000" font-family="sans-serif" font-size="12" font-style="italic" lengthAdjust="spacingAndGlyphs" textLength="21" x="228" y="47.1543">List</text><line style="stroke: #A80036; stroke-width: 1.5;" x1="200" x2="251" y1="59" y2="59"/><line style="stroke: #A80036; stroke-width: 1.5;" x1="200" x2="251" y1="67" y2="67"/><!--class Collection--><rect fill="#FEFECE" filter="url(#f1n5ofxpd4vwbk)" height="48" id="Collection" style="stroke: #A80036; stroke-width: 1.5;" width="93" x="58" y="27"/><ellipse cx="73" cy="43" fill="#B4A7E5" rx="11" ry="11" style="stroke: #A80036; stroke-width: 1.0;"/><path d="M68.9219,38.7656 L68.9219,36.6094 L76.3125,36.6094 L76.3125,38.7656 L73.8438,38.7656 L73.8438,46.8438 L76.3125,46.8438 L76.3125,49 L68.9219,49 L68.9219,46.8438 L71.3906,46.8438 L71.3906,38.7656 L68.9219,38.7656 Z "/><text fill="#000000" font-family="sans-serif" font-size="12" font-style="italic" lengthAdjust="spacingAndGlyphs" textLength="61" x="87" y="47.1543">Collection</text><line style="stroke: #A80036; stroke-width: 1.5;" x1="59" x2="150" y1="59" y2="59"/><line style="stroke: #A80036; stroke-width: 1.5;" x1="59" x2="150" y1="67" y2="67"/><!--class ArrayList--><rect fill="#FEFECE" filter="url(#f1n5ofxpd4vwbk)" height="73.6094" id="ArrayList" style="stroke: #A80036; stroke-width: 1.5;" width="132" x="172.5" y="262"/><ellipse cx="208.65" cy="278" fill="#ADD1B2" rx="11" ry="11" style="stroke: #A80036; stroke-width: 1.0;"/><path d="M211.6188,283.6406 Q211.0406,283.9375 210.4,284.0781 Q209.7594,284.2344 209.0563,284.2344 Q206.5563,284.2344 205.2281,282.5938 Q203.9156,280.9375 203.9156,277.8125 Q203.9156,274.6875 205.2281,273.0313 Q206.5563,271.375 209.0563,271.375 Q209.7594,271.375 210.4,271.5313 Q211.0563,271.6875 211.6188,271.9844 L211.6188,274.7031 Q210.9938,274.125 210.4,273.8594 Q209.8063,273.5781 209.1813,273.5781 Q207.8375,273.5781 207.15,274.6563 Q206.4625,275.7188 206.4625,277.8125 Q206.4625,279.9063 207.15,280.9844 Q207.8375,282.0469 209.1813,282.0469 Q209.8063,282.0469 210.4,281.7813 Q210.9938,281.5 211.6188,280.9219 L211.6188,283.6406 Z "/><text fill="#000000" font-family="sans-serif" font-size="12" lengthAdjust="spacingAndGlyphs" textLength="53" x="227.35" y="282.1543">ArrayList</text><line style="stroke: #A80036; stroke-width: 1.5;" x1="173.5" x2="303.5" y1="294" y2="294"/><text fill="#000000" font-family="sans-serif" font-size="11" lengthAdjust="spacingAndGlyphs" textLength="120" x="178.5" y="308.2104">Object[] elementData</text><line style="stroke: #A80036; stroke-width: 1.5;" x1="173.5" x2="303.5" y1="314.8047" y2="314.8047"/><text fill="#000000" font-family="sans-serif" font-size="11" lengthAdjust="spacingAndGlyphs" textLength="30" x="178.5" y="329.0151">size()</text><!--class TimeUnit--><rect fill="#FEFECE" filter="url(#f1n5ofxpd4vwbk)" height="86.4141" id="TimeUnit" style="stroke: #A80036; stroke-width: 1.5;" width="86" x="287.5" y="8"/><ellipse cx="302.5" cy="24" fill="#EB937F" rx="11" ry="11" style="stroke: #A80036; stroke-width: 1.0;"/><path d="M306.6094,30 L298.8906,30 L298.8906,17.6094 L306.6094,17.6094 L306.6094,19.7656 L301.3438,19.7656 L301.3438,22.4375 L306.1094,22.4375 L306.1094,24.5938 L301.3438,24.5938 L301.3438,27.8438 L306.6094,27.8438 L306.6094,30 Z "/><text fill="#000000" font-family="sans-serif" font-size="12" lengthAdjust="spacingAndGlyphs" textLength="54" x="316.5" y="28.1543">TimeUnit</text><line style="stroke: #A80036; stroke-width: 1.5;" x1="288.5" x2="372.5" y1="40" y2="40"/><text fill="#000000" font-family="sans-serif" font-size="11" lengthAdjust="spacingAndGlyphs" textLength="30" x="293.5" y="54.2104">DAYS</text><text fill="#000000" font-family="sans-serif" font-size="11" lengthAdjust="spacingAndGlyphs" textLength="40" x="293.5" y="67.0151">HOURS</text><text fill="#000000" font-family="sans-serif" font-size="11" lengthAdjust="spacingAndGlyphs" textLength="50" x="293.5" y="79.8198">MINUTES</text><line style="stroke: #A80036; stroke-width: 1.5;" x1="288.5" x2="372.5" y1="86.4141" y2="86.4141"/><!--link List to AbstractList--><path d="M230.0143,95.1016 C232.0341,114.8333 234.3369,137.3293 236.0334,153.9034 " fill="none" id="List-AbstractList" style="stroke: #A80036; stroke-width: 1.0;"/><polygon fill="none" points="223.0489,95.7955,227.9758,75.1867,236.9761,94.3699,223.0489,95.7955" style="stroke: #A80036; stroke-width: 1.0;"/><!--link Collection to AbstractCollection--><path d="M95.5357,94.787 C91.4808,114.5938 86.8443,137.2411 83.4332,153.9034 " fill="none" id="Collection-AbstractCollection" style="stroke: #A80036; stroke-width: 1.0;"/><polygon fill="none" points="88.6793,93.3763,99.5484,75.1867,102.3948,96.1843,88.6793,93.3763" style="stroke: #A80036; stroke-width: 1.0;"/><!--link Collection to List--><path d="M171.3484,51 C180.5096,51 189.6707,51 198.8318,51 " fill="none" id="Collection-List" style="stroke: #A80036; stroke-width: 1.0;"/><polygon fill="none" points="171.293,57.9999,151.293,51,171.2929,43.9999,171.293,57.9999" style="stroke: #A80036; stroke-width: 1.0;"/><!--link AbstractCollection to AbstractList--><path d="M171.4677,178 C176.2154,178 180.963,178 185.7107,178 " fill="none" id="AbstractCollection-AbstractList" style="stroke: #A80036; stroke-width: 1.0;"/><polygon fill="none" points="171.3125,184.9999,151.3125,178,171.3125,170.9999,171.3125,184.9999" style="stroke: #A80036; stroke-width: 1.0;"/><!--link AbstractList to ArrayList--><path d="M238.5,222.5529 C238.5,235.5142 238.5,249.5269 238.5,261.9716 " fill="none" id="AbstractList-ArrayList" style="stroke: #A80036; stroke-width: 1.0;"/><polygon fill="none" points="231.5001,222.1954,238.5,202.1953,245.5001,222.1953,231.5001,222.1954" style="stroke: #A80036; stroke-width: 1.0;"/><!--
@startuml

abstract class AbstractList
abstract AbstractCollection
interface List
interface Collection

List <|- - AbstractList
Collection <|- - AbstractCollection

Collection <|- List
AbstractCollection <|- AbstractList
AbstractList <|- - ArrayList

class ArrayList {
Object[] elementData
size()
}

enum TimeUnit {
DAYS
HOURS
MINUTES
}

@enduml

PlantUML version 1.2018.12(Sun Oct 21 12:15:15 CEST 2018)
(GPL source distribution)
Java Runtime: OpenJDK Runtime Environment
JVM: OpenJDK 64-Bit Server VM
Java Version: 11.0.1+13-Debian-2
Operating System: Linux
OS Version: 4.18.0-parrot10-amd64
Default Encoding: UTF-8
Language: en
Country: US
--></g></svg>