<?xml version="1.0" encoding="UTF-8" standalone="no"?><svg xmlns="http://www.w3.org/2000/svg" xmlns:xlink="http://www.w3.org/1999/xlink" contentScriptType="application/ecmascript" contentStyleType="text/css" height="900px" preserveAspectRatio="none" style="width:1765px;height:900px;" version="1.1" viewBox="0 0 1765 900" width="1765px" zoomAndPan="magnify"><defs><filter height="300%" id="f1rjjuj9uj99q5" width="300%" x="-1" y="-1"><feGaussianBlur result="blurOut" stdDeviation="2.0"/><feColorMatrix in="blurOut" result="blurOut2" type="matrix" values="0 0 0 0 0 0 0 0 0 0 0 0 0 0 0 0 0 0 .4 0"/><feOffset dx="4.0" dy="4.0" in="blurOut2" result="blurOut3"/><feBlend in="SourceGraphic" in2="blurOut3" mode="normal"/></filter><linearGradient id="g1rjjuj9uj99q50" x1="0%" x2="100%" y1="0%" y2="100%"><stop offset="0%" stop-color="#6495ED"/><stop offset="100%" stop-color="#00FFFF"/></linearGradient><linearGradient id="g1rjjuj9uj99q51" x1="0%" x2="100%" y1="0%" y2="100%"><stop offset="0%" stop-color="#C0C0C0"/><stop offset="100%" stop-color="#FFFFFF"/></linearGradient><linearGradient id="g1rjjuj9uj99q52" x1="0%" x2="100%" y1="0%" y2="100%"><stop offset="0%" stop-color="#32CD32"/><stop offset="100%" stop-color="#90EE90"/></linearGradient><linearGradient id="g1rjjuj9uj99q53" x1="0%" x2="100%" y1="0%" y2="100%"><stop offset="0%" stop-color="#F5A9BC"/><stop offset="100%" stop-color="#FCC4F0"/></linearGradient></defs><g><!--cluster Bioladen--><rect fill="#FFFFFF" filter="url(#f1rjjuj9uj99q5)" height="736" style="stroke: #A9A9A9; stroke-width: 1.5;" width="1400" x="14" y="16"/><text fill="#808080" font-family="sans-serif" font-size="14" font-weight="bold" lengthAdjust="spacingAndGlyphs" textLength="67" x="680.5" y="30.9951">Bioladen</text><!--cluster bioladen.finances--><polygon fill="#FFFFFF" filter="url(#f1rjjuj9uj99q5)" points="193,43,338,43,345,65.2969,902,65.2969,902,744,193,744,193,43" style="stroke: #A9A9A9; stroke-width: 1.5;"/><line style="stroke: #A9A9A9; stroke-width: 1.5;" x1="193" x2="345" y1="65.2969" y2="65.2969"/><text fill="#808080" font-family="sans-serif" font-size="14" font-weight="bold" lengthAdjust="spacingAndGlyphs" textLength="139" x="197" y="57.9951">bioladen.finances</text><!--cluster bioladen.event--><polygon fill="#FFFFFF" filter="url(#f1rjjuj9uj99q5)" points="1238,365,1361,365,1368,387.2969,1406,387.2969,1406,448,1238,448,1238,365" style="stroke: #A9A9A9; stroke-width: 1.5;"/><line style="stroke: #A9A9A9; stroke-width: 1.5;" x1="1238" x2="1368" y1="387.2969" y2="387.2969"/><text fill="#808080" font-family="sans-serif" font-size="14" font-weight="bold" lengthAdjust="spacingAndGlyphs" textLength="117" x="1242" y="379.9951">bioladen.event</text><!--cluster ressources.templates--><polygon fill="#FFFFFF" filter="url(#f1rjjuj9uj99q5)" points="910,362.5,1089,362.5,1096,384.7969,1219,384.7969,1219,450.5,910,450.5,910,362.5" style="stroke: #A9A9A9; stroke-width: 1.5;"/><line style="stroke: #A9A9A9; stroke-width: 1.5;" x1="910" x2="1096" y1="384.7969" y2="384.7969"/><text fill="#808080" font-family="sans-serif" font-size="14" font-weight="bold" lengthAdjust="spacingAndGlyphs" textLength="173" x="914" y="377.4951">ressources.templates</text><!--cluster bioladen.customer--><polygon fill="#FFFFFF" filter="url(#f1rjjuj9uj99q5)" points="22,107,175,107,182,129.2969,185,129.2969,185,196,22,196,22,107" style="stroke: #A9A9A9; stroke-width: 1.5;"/><line style="stroke: #A9A9A9; stroke-width: 1.5;" x1="22" x2="182" y1="129.2969" y2="129.2969"/><text fill="#808080" font-family="sans-serif" font-size="14" font-weight="bold" lengthAdjust="spacingAndGlyphs" textLength="147" x="26" y="121.9951">bioladen.customer</text><!--cluster salespoint-framework-7.0.0.RELEASE.jar--><rect fill="#FFFFFF" filter="url(#f1rjjuj9uj99q5)" height="124" style="stroke: #A9A9A9; stroke-width: 1.5;" width="332" x="1422" y="80"/><text fill="#808080" font-family="sans-serif" font-size="14" font-weight="bold" lengthAdjust="spacingAndGlyphs" textLength="316" x="1430" y="94.9951">salespoint-framework-7.0.0.RELEASE.jar</text><!--cluster org.salespointframework.context--><polygon fill="#FFFFFF" filter="url(#f1rjjuj9uj99q5)" points="1430,107,1700,107,1707,129.2969,1710,129.2969,1710,196,1430,196,1430,107" style="stroke: #A9A9A9; stroke-width: 1.5;"/><line style="stroke: #A9A9A9; stroke-width: 1.5;" x1="1430" x2="1707" y1="129.2969" y2="129.2969"/><text fill="#808080" font-family="sans-serif" font-size="14" font-weight="bold" lengthAdjust="spacingAndGlyphs" textLength="264" x="1434" y="121.9951">org.salespointframework.context</text><!--class bioladen.finances.CashierSystem--><rect fill="url(#g1rjjuj9uj99q50)" filter="url(#f1rjjuj9uj99q5)" height="181.9844" id="bioladen.finances.CashierSystem" style="stroke: #000000; stroke-width: 1.5;" width="326" x="568" y="70"/><ellipse cx="680.75" cy="88.9688" fill="#ADD1B2" rx="11" ry="11" style="stroke: #000000; stroke-width: 1.0;"/><path d="M683.7188,94.6094 Q683.1406,94.9063 682.5,95.0469 Q681.8594,95.2031 681.1563,95.2031 Q678.6563,95.2031 677.3281,93.5625 Q676.0156,91.9063 676.0156,88.7813 Q676.0156,85.6563 677.3281,84 Q678.6563,82.3438 681.1563,82.3438 Q681.8594,82.3438 682.5,82.5 Q683.1563,82.6563 683.7188,82.9531 L683.7188,85.6719 Q683.0938,85.0938 682.5,84.8281 Q681.9063,84.5469 681.2813,84.5469 Q679.9375,84.5469 679.25,85.625 Q678.5625,86.6875 678.5625,88.7813 Q678.5625,90.875 679.25,91.9531 Q679.9375,93.0156 681.2813,93.0156 Q681.9063,93.0156 682.5,92.75 Q683.0938,92.4688 683.7188,91.8906 L683.7188,94.6094 Z "/><text fill="#000000" font-family="sans-serif" font-size="12" font-style="italic" lengthAdjust="spacingAndGlyphs" textLength="75" x="709.75" y="86.1387">«Controller»</text><text fill="#000000" font-family="sans-serif" font-size="12" lengthAdjust="spacingAndGlyphs" textLength="92" x="701.25" y="100.1074">CashierSystem</text><line style="stroke: #000000; stroke-width: 1.5;" x1="569" x2="893" y1="107.9375" y2="107.9375"/><text fill="#000000" font-family="sans-serif" font-size="11" lengthAdjust="spacingAndGlyphs" textLength="188" x="574" y="122.1479">-productCatalog : ProductCatalog</text><text fill="#000000" font-family="sans-serif" font-size="11" lengthAdjust="spacingAndGlyphs" textLength="246" x="574" y="134.9526">-customerRepository : CustomerRepository</text><line style="stroke: #000000; stroke-width: 1.5;" x1="569" x2="893" y1="141.5469" y2="141.5469"/><text fill="#000000" font-family="sans-serif" font-size="11" lengthAdjust="spacingAndGlyphs" textLength="314" x="574" y="155.7573">+CashierSystem(ProductCatalog, CustomerRepository)</text><text fill="#000000" font-family="sans-serif" font-size="11" lengthAdjust="spacingAndGlyphs" textLength="278" x="574" y="168.562">+addProduct(String, long, ShoppingCart) : String</text><text fill="#000000" font-family="sans-serif" font-size="11" lengthAdjust="spacingAndGlyphs" textLength="260" x="574" y="181.3667">+deleteProduct(String, ShoppingCart) : String</text><text fill="#000000" font-family="sans-serif" font-size="11" lengthAdjust="spacingAndGlyphs" textLength="251" x="574" y="194.1714">+calcChange(double, ShoppingCart) : String</text><text fill="#000000" font-family="sans-serif" font-size="11" lengthAdjust="spacingAndGlyphs" textLength="208" x="574" y="206.9761">+userId(long, ShoppingCart) : String</text><text fill="#000000" font-family="sans-serif" font-size="11" lengthAdjust="spacingAndGlyphs" textLength="171" x="574" y="219.7808">+finish(ShoppingCart) : String</text><text fill="#000000" font-family="sans-serif" font-size="11" lengthAdjust="spacingAndGlyphs" textLength="170" x="574" y="232.5854">+abort(ShoppingCart) : String</text><text fill="#000000" font-family="sans-serif" font-size="11" lengthAdjust="spacingAndGlyphs" textLength="271" x="574" y="245.3901">+publishSaleCreatedEvent(ShoppingCart) : void</text><!--class bioladen.finances.CartController--><rect fill="url(#g1rjjuj9uj99q50)" filter="url(#f1rjjuj9uj99q5)" height="130.7656" id="bioladen.finances.CartController" style="stroke: #000000; stroke-width: 1.5;" width="332" x="201" y="95.5"/><ellipse cx="319.25" cy="114.4688" fill="#ADD1B2" rx="11" ry="11" style="stroke: #000000; stroke-width: 1.0;"/><path d="M322.2188,120.1094 Q321.6406,120.4063 321,120.5469 Q320.3594,120.7031 319.6563,120.7031 Q317.1563,120.7031 315.8281,119.0625 Q314.5156,117.4063 314.5156,114.2813 Q314.5156,111.1563 315.8281,109.5 Q317.1563,107.8438 319.6563,107.8438 Q320.3594,107.8438 321,108 Q321.6563,108.1563 322.2188,108.4531 L322.2188,111.1719 Q321.5938,110.5938 321,110.3281 Q320.4063,110.0469 319.7813,110.0469 Q318.4375,110.0469 317.75,111.125 Q317.0625,112.1875 317.0625,114.2813 Q317.0625,116.375 317.75,117.4531 Q318.4375,118.5156 319.7813,118.5156 Q320.4063,118.5156 321,118.25 Q321.5938,117.9688 322.2188,117.3906 L322.2188,120.1094 Z "/><text fill="#000000" font-family="sans-serif" font-size="12" font-style="italic" lengthAdjust="spacingAndGlyphs" textLength="75" x="345.75" y="111.6387">«Controller»</text><text fill="#000000" font-family="sans-serif" font-size="12" lengthAdjust="spacingAndGlyphs" textLength="87" x="339.75" y="125.6074">CartController</text><line style="stroke: #000000; stroke-width: 1.5;" x1="202" x2="532" y1="133.4375" y2="133.4375"/><text fill="#000000" font-family="sans-serif" font-size="11" lengthAdjust="spacingAndGlyphs" textLength="188" x="207" y="147.6479">-productCatalog : ProductCatalog</text><line style="stroke: #000000; stroke-width: 1.5;" x1="202" x2="532" y1="154.2422" y2="154.2422"/><text fill="#000000" font-family="sans-serif" font-size="11" lengthAdjust="spacingAndGlyphs" textLength="183" x="207" y="168.4526">+CartController(ProductCatalog)</text><text fill="#000000" font-family="sans-serif" font-size="11" lengthAdjust="spacingAndGlyphs" textLength="260" x="207" y="181.2573">+addToWishlist(String, ShoppingCart) : String</text><text fill="#000000" font-family="sans-serif" font-size="11" lengthAdjust="spacingAndGlyphs" textLength="289" x="207" y="194.062">+deleteFromWishlist(String, ShoppingCart) : String</text><text fill="#000000" font-family="sans-serif" font-size="11" lengthAdjust="spacingAndGlyphs" textLength="283" x="207" y="206.8667">+addOneToWishlist(String, ShoppingCart) : String</text><text fill="#000000" font-family="sans-serif" font-size="11" lengthAdjust="spacingAndGlyphs" textLength="320" x="207" y="219.6714">+removeOneFromWishlist(String, ShoppingCart) : String</text><!--class bioladen.finances.ShoppingCart--><rect fill="url(#g1rjjuj9uj99q51)" filter="url(#f1rjjuj9uj99q5)" height="207.5938" id="bioladen.finances.ShoppingCart" style="stroke: #000000; stroke-width: 1.5;" width="289" x="222.5" y="312"/><ellipse cx="320.25" cy="330.9688" fill="#ADD1B2" rx="11" ry="11" style="stroke: #000000; stroke-width: 1.0;"/><path d="M323.2188,336.6094 Q322.6406,336.9063 322,337.0469 Q321.3594,337.2031 320.6563,337.2031 Q318.1563,337.2031 316.8281,335.5625 Q315.5156,333.9063 315.5156,330.7813 Q315.5156,327.6563 316.8281,326 Q318.1563,324.3438 320.6563,324.3438 Q321.3594,324.3438 322,324.5 Q322.6563,324.6563 323.2188,324.9531 L323.2188,327.6719 Q322.5938,327.0938 322,326.8281 Q321.4063,326.5469 320.7813,326.5469 Q319.4375,326.5469 318.75,327.625 Q318.0625,328.6875 318.0625,330.7813 Q318.0625,332.875 318.75,333.9531 Q319.4375,335.0156 320.7813,335.0156 Q321.4063,335.0156 322,334.75 Q322.5938,334.4688 323.2188,333.8906 L323.2188,336.6094 Z "/><text fill="#000000" font-family="sans-serif" font-size="12" font-style="italic" lengthAdjust="spacingAndGlyphs" textLength="50" x="358.25" y="328.1387">«Entity»</text><text fill="#000000" font-family="sans-serif" font-size="12" lengthAdjust="spacingAndGlyphs" textLength="85" x="340.75" y="342.1074">ShoppingCart</text><line style="stroke: #000000; stroke-width: 1.5;" x1="223.5" x2="510.5" y1="349.9375" y2="349.9375"/><text fill="#000000" font-family="sans-serif" font-size="11" lengthAdjust="spacingAndGlyphs" textLength="213" x="228.5" y="364.1479">-items : Map&lt;Product, CartCartItem&gt;</text><text fill="#000000" font-family="sans-serif" font-size="11" lengthAdjust="spacingAndGlyphs" textLength="126" x="228.5" y="376.9526">-customer : Customer</text><line style="stroke: #000000; stroke-width: 1.5;" x1="223.5" x2="510.5" y1="383.5469" y2="383.5469"/><text fill="#000000" font-family="sans-serif" font-size="11" lengthAdjust="spacingAndGlyphs" textLength="277" x="228.5" y="397.7573">+addOrUpdateItem(Product, long) : CartCartItem</text><text fill="#000000" font-family="sans-serif" font-size="11" lengthAdjust="spacingAndGlyphs" textLength="269" x="228.5" y="410.562">+removeItem(String) : Optional&lt;CartCartItem&gt;</text><text fill="#000000" font-family="sans-serif" font-size="11" lengthAdjust="spacingAndGlyphs" textLength="244" x="228.5" y="423.3667">+getItem(String) : Optional&lt;CartCartItem&gt;</text><text fill="#000000" font-family="sans-serif" font-size="11" lengthAdjust="spacingAndGlyphs" textLength="80" x="228.5" y="436.1714">+clear() : void</text><text fill="#000000" font-family="sans-serif" font-size="11" lengthAdjust="spacingAndGlyphs" textLength="119" x="228.5" y="448.9761">+isEmpty() : boolean</text><text fill="#000000" font-family="sans-serif" font-size="11" lengthAdjust="spacingAndGlyphs" textLength="138" x="228.5" y="461.7808">+getPrice() : BigDecimal</text><text fill="#000000" font-family="sans-serif" font-size="11" lengthAdjust="spacingAndGlyphs" textLength="169" x="228.5" y="474.5854">+getBasicPrice() : BigDecimal</text><text fill="#000000" font-family="sans-serif" font-size="11" lengthAdjust="spacingAndGlyphs" textLength="149" x="228.5" y="487.3901">+getAmountOfItems() : int</text><text fill="#000000" font-family="sans-serif" font-size="11" lengthAdjust="spacingAndGlyphs" textLength="220" x="228.5" y="500.1948">+getCustomerDiscountString() : String</text><text fill="#000000" font-family="sans-serif" font-size="11" lengthAdjust="spacingAndGlyphs" textLength="134" x="228.5" y="512.9995">+getDiscount() : double</text><!--class bioladen.finances.CartCartItem--><rect fill="url(#g1rjjuj9uj99q51)" filter="url(#f1rjjuj9uj99q5)" height="156.375" id="bioladen.finances.CartCartItem" style="stroke: #000000; stroke-width: 1.5;" width="214" x="260" y="580"/><ellipse cx="323.25" cy="598.9688" fill="#ADD1B2" rx="11" ry="11" style="stroke: #000000; stroke-width: 1.0;"/><path d="M326.2188,604.6094 Q325.6406,604.9063 325,605.0469 Q324.3594,605.2031 323.6563,605.2031 Q321.1563,605.2031 319.8281,603.5625 Q318.5156,601.9063 318.5156,598.7813 Q318.5156,595.6563 319.8281,594 Q321.1563,592.3438 323.6563,592.3438 Q324.3594,592.3438 325,592.5 Q325.6563,592.6563 326.2188,592.9531 L326.2188,595.6719 Q325.5938,595.0938 325,594.8281 Q324.4063,594.5469 323.7813,594.5469 Q322.4375,594.5469 321.75,595.625 Q321.0625,596.6875 321.0625,598.7813 Q321.0625,600.875 321.75,601.9531 Q322.4375,603.0156 323.7813,603.0156 Q324.4063,603.0156 325,602.75 Q325.5938,602.4688 326.2188,601.8906 L326.2188,604.6094 Z "/><text fill="#000000" font-family="sans-serif" font-size="12" font-style="italic" lengthAdjust="spacingAndGlyphs" textLength="50" x="358.25" y="596.1387">«Entity»</text><text fill="#000000" font-family="sans-serif" font-size="12" lengthAdjust="spacingAndGlyphs" textLength="79" x="343.75" y="610.1074">CartCartItem</text><line style="stroke: #000000; stroke-width: 1.5;" x1="261" x2="473" y1="617.9375" y2="617.9375"/><text fill="#000000" font-family="sans-serif" font-size="11" lengthAdjust="spacingAndGlyphs" textLength="60" x="266" y="632.1479">-id : String</text><text fill="#000000" font-family="sans-serif" font-size="11" lengthAdjust="spacingAndGlyphs" textLength="107" x="266" y="644.9526">-price : BigDecimal</text><text fill="#000000" font-family="sans-serif" font-size="11" lengthAdjust="spacingAndGlyphs" textLength="85" x="266" y="657.7573">-quantity : long</text><text fill="#000000" font-family="sans-serif" font-size="11" lengthAdjust="spacingAndGlyphs" textLength="102" x="266" y="670.562">-product : Product</text><line style="stroke: #000000; stroke-width: 1.5;" x1="261" x2="473" y1="677.1563" y2="677.1563"/><text fill="#000000" font-family="sans-serif" font-size="11" lengthAdjust="spacingAndGlyphs" textLength="165" x="266" y="691.3667">+CartCartItem(Product, long)</text><text fill="#000000" font-family="sans-serif" font-size="11" lengthAdjust="spacingAndGlyphs" textLength="202" x="266" y="704.1714">-CartCartItem(String, Product, long)</text><text fill="#000000" font-family="sans-serif" font-size="11" lengthAdjust="spacingAndGlyphs" textLength="157" x="266" y="716.9761">+getProductName() : String</text><text fill="#000000" font-family="sans-serif" font-size="11" lengthAdjust="spacingAndGlyphs" textLength="147" x="266" y="729.7808">+add(long) : CartCartItem</text><!--class bioladen.event.EntityCreatedEvent--><rect fill="url(#g1rjjuj9uj99q51)" filter="url(#f1rjjuj9uj99q5)" height="48" id="bioladen.event.EntityCreatedEvent" style="stroke: #000000; stroke-width: 1.5;" width="152" x="1246" y="392"/><ellipse cx="1261" cy="408" fill="#ADD1B2" rx="11" ry="11" style="stroke: #000000; stroke-width: 1.0;"/><path d="M1263.9688,413.6406 Q1263.3906,413.9375 1262.75,414.0781 Q1262.1094,414.2344 1261.4063,414.2344 Q1258.9063,414.2344 1257.5781,412.5938 Q1256.2656,410.9375 1256.2656,407.8125 Q1256.2656,404.6875 1257.5781,403.0313 Q1258.9063,401.375 1261.4063,401.375 Q1262.1094,401.375 1262.75,401.5313 Q1263.4063,401.6875 1263.9688,401.9844 L1263.9688,404.7031 Q1263.3438,404.125 1262.75,403.8594 Q1262.1563,403.5781 1261.5313,403.5781 Q1260.1875,403.5781 1259.5,404.6563 Q1258.8125,405.7188 1258.8125,407.8125 Q1258.8125,409.9063 1259.5,410.9844 Q1260.1875,412.0469 1261.5313,412.0469 Q1262.1563,412.0469 1262.75,411.7813 Q1263.3438,411.5 1263.9688,410.9219 L1263.9688,413.6406 Z "/><text fill="#000000" font-family="sans-serif" font-size="12" lengthAdjust="spacingAndGlyphs" textLength="120" x="1275" y="412.1543">EntityCreatedEvent</text><line style="stroke: #000000; stroke-width: 1.5;" x1="1247" x2="1397" y1="424" y2="424"/><line style="stroke: #000000; stroke-width: 1.5;" x1="1247" x2="1397" y1="432" y2="432"/><!--entity cashiersystem.html--><polygon fill="url(#g1rjjuj9uj99q52)" filter="url(#f1rjjuj9uj99q5)" points="1057,389.5,1057,442.0938,1211,442.0938,1211,399.5,1201,389.5,1057,389.5" style="stroke: #000000; stroke-width: 1.5;"/><path d="M1201,389.5 L1201,399.5 L1211,399.5 " fill="url(#g1rjjuj9uj99q52)" style="stroke: #000000; stroke-width: 1.5;"/><text fill="#000000" font-family="sans-serif" font-size="14" font-style="italic" lengthAdjust="spacingAndGlyphs" textLength="51" x="1108.5" y="412.4951">«View»</text><text fill="#000000" font-family="sans-serif" font-size="14" lengthAdjust="spacingAndGlyphs" textLength="134" x="1067" y="428.792">cashiersystem.html</text><!--entity wishlist.html--><polygon fill="url(#g1rjjuj9uj99q52)" filter="url(#f1rjjuj9uj99q5)" points="918,389.5,918,442.0938,1022,442.0938,1022,399.5,1012,389.5,918,389.5" style="stroke: #000000; stroke-width: 1.5;"/><path d="M1012,389.5 L1012,399.5 L1022,399.5 " fill="url(#g1rjjuj9uj99q52)" style="stroke: #000000; stroke-width: 1.5;"/><text fill="#000000" font-family="sans-serif" font-size="14" font-style="italic" lengthAdjust="spacingAndGlyphs" textLength="51" x="944.5" y="412.4951">«View»</text><text fill="#000000" font-family="sans-serif" font-size="14" lengthAdjust="spacingAndGlyphs" textLength="84" x="928" y="428.792">wishlist.html</text><!--class bioladen.customer.Customer--><rect fill="url(#g1rjjuj9uj99q51)" filter="url(#f1rjjuj9uj99q5)" height="53.9375" id="bioladen.customer.Customer" style="stroke: #000000; stroke-width: 1.5;" width="92" x="74" y="134"/><ellipse cx="89" cy="152.9688" fill="#ADD1B2" rx="11" ry="11" style="stroke: #000000; stroke-width: 1.0;"/><path d="M91.9688,158.6094 Q91.3906,158.9063 90.75,159.0469 Q90.1094,159.2031 89.4063,159.2031 Q86.9063,159.2031 85.5781,157.5625 Q84.2656,155.9063 84.2656,152.7813 Q84.2656,149.6563 85.5781,148 Q86.9063,146.3438 89.4063,146.3438 Q90.1094,146.3438 90.75,146.5 Q91.4063,146.6563 91.9688,146.9531 L91.9688,149.6719 Q91.3438,149.0938 90.75,148.8281 Q90.1563,148.5469 89.5313,148.5469 Q88.1875,148.5469 87.5,149.625 Q86.8125,150.6875 86.8125,152.7813 Q86.8125,154.875 87.5,155.9531 Q88.1875,157.0156 89.5313,157.0156 Q90.1563,157.0156 90.75,156.75 Q91.3438,156.4688 91.9688,155.8906 L91.9688,158.6094 Z "/><text fill="#000000" font-family="sans-serif" font-size="12" font-style="italic" lengthAdjust="spacingAndGlyphs" textLength="50" x="108" y="150.1387">«Entity»</text><text fill="#000000" font-family="sans-serif" font-size="12" lengthAdjust="spacingAndGlyphs" textLength="60" x="103" y="164.1074">Customer</text><line style="stroke: #000000; stroke-width: 1.5;" x1="75" x2="165" y1="171.9375" y2="171.9375"/><line style="stroke: #000000; stroke-width: 1.5;" x1="75" x2="165" y1="179.9375" y2="179.9375"/><!--class org.salespointframework.context.ApplicationEvent--><rect fill="url(#g1rjjuj9uj99q53)" filter="url(#f1rjjuj9uj99q5)" height="53.9375" id="org.salespointframework.context.ApplicationEvent" style="stroke: #000000; stroke-width: 1.5;" width="136" x="1438" y="134"/><ellipse cx="1453" cy="152.9688" fill="#ADD1B2" rx="11" ry="11" style="stroke: #000000; stroke-width: 1.0;"/><path d="M1455.9688,158.6094 Q1455.3906,158.9063 1454.75,159.0469 Q1454.1094,159.2031 1453.4063,159.2031 Q1450.9063,159.2031 1449.5781,157.5625 Q1448.2656,155.9063 1448.2656,152.7813 Q1448.2656,149.6563 1449.5781,148 Q1450.9063,146.3438 1453.4063,146.3438 Q1454.1094,146.3438 1454.75,146.5 Q1455.4063,146.6563 1455.9688,146.9531 L1455.9688,149.6719 Q1455.3438,149.0938 1454.75,148.8281 Q1454.1563,148.5469 1453.5313,148.5469 Q1452.1875,148.5469 1451.5,149.625 Q1450.8125,150.6875 1450.8125,152.7813 Q1450.8125,154.875 1451.5,155.9531 Q1452.1875,157.0156 1453.5313,157.0156 Q1454.1563,157.0156 1454.75,156.75 Q1455.3438,156.4688 1455.9688,155.8906 L1455.9688,158.6094 Z "/><text fill="#000000" font-family="sans-serif" font-size="12" font-style="italic" lengthAdjust="spacingAndGlyphs" textLength="79" x="1479.5" y="150.1387">«Salespoint»</text><text fill="#000000" font-family="sans-serif" font-size="12" lengthAdjust="spacingAndGlyphs" textLength="104" x="1467" y="164.1074">ApplicationEvent</text><line style="stroke: #000000; stroke-width: 1.5;" x1="1439" x2="1573" y1="171.9375" y2="171.9375"/><line style="stroke: #000000; stroke-width: 1.5;" x1="1439" x2="1573" y1="179.9375" y2="179.9375"/><!--link bioladen.finances.CashierSystem to bioladen.finances.ShoppingCart--><path d="M567.995,244 C490.7687,244 415.1667,244 415.1667,244 C415.1667,244 415.1667,306.979 415.1667,306.979 " fill="none" id="bioladen.finances.CashierSystem-bioladen.finances.ShoppingCart" style="stroke: #000000; stroke-width: 1.0;"/><polygon fill="#000000" points="415.1667,311.979,419.1667,302.979,415.1667,306.979,411.1667,302.979,415.1667,311.979" style="stroke: #000000; stroke-width: 1.0;"/><!--link bioladen.finances.CartController to bioladen.finances.ShoppingCart--><path d="M318.8333,226.6688 C318.8333,226.6688 318.8333,306.9599 318.8333,306.9599 " fill="none" id="bioladen.finances.CartController-bioladen.finances.ShoppingCart" style="stroke: #000000; stroke-width: 1.0;"/><polygon fill="#000000" points="318.8333,311.9599,322.8333,302.9599,318.8333,306.9599,314.8333,302.9599,318.8333,311.9599" style="stroke: #000000; stroke-width: 1.0;"/><!--link bioladen.finances.ShoppingCart to bioladen.finances.CartCartItem--><path d="M367,520.0342 C367,520.0342 367,574.6384 367,574.6384 " fill="none" id="bioladen.finances.ShoppingCart-bioladen.finances.CartCartItem" style="stroke: #000000; stroke-width: 1.0;"/><polygon fill="#000000" points="367,579.6384,371,570.6384,367,574.6384,363,570.6384,367,579.6384" style="stroke: #000000; stroke-width: 1.0;"/><!--link bioladen.finances.CashierSystem to bioladen.event.EntityCreatedEvent--><path d="M894.0578,210 C1068.9903,210 1322,210 1322,210 C1322,210 1322,386.966 1322,386.966 " fill="none" id="bioladen.finances.CashierSystem-bioladen.event.EntityCreatedEvent" style="stroke: #000000; stroke-width: 1.0;"/><polygon fill="#000000" points="1322,391.966,1326,382.966,1322,386.966,1318,382.966,1322,391.966" style="stroke: #000000; stroke-width: 1.0;"/><!--link bioladen.finances.CashierSystem to cashiersystem.html--><path d="M894.0442,231 C1005.8233,231 1134,231 1134,231 C1134,231 1134,384.494 1134,384.494 " fill="none" id="bioladen.finances.CashierSystem-cashiersystem.html" style="stroke: #000000; stroke-width: 1.0;"/><polygon fill="#000000" points="1134,389.494,1138,380.494,1134,384.494,1130,380.494,1134,389.494" style="stroke: #000000; stroke-width: 1.0;"/><!--link bioladen.finances.CartController to wishlist.html--><path d="M522.25,226.6688 C522.25,302.2235 522.25,416 522.25,416 C522.25,416 912.7611,416 912.7611,416 " fill="none" id="bioladen.finances.CartController-wishlist.html" style="stroke: #000000; stroke-width: 1.0;"/><polygon fill="#000000" points="917.7611,416,908.7611,412,912.7611,416,908.7611,420,917.7611,416" style="stroke: #000000; stroke-width: 1.0;"/><!--link bioladen.customer.Customer to bioladen.finances.ShoppingCart--><path d="M104.6667,193.2895 C104.6667,193.2895 104.6667,416 104.6667,416 C104.6667,416 161.59,416 222.4046,416 " fill="none" id="bioladen.customer.Customer-bioladen.finances.ShoppingCart" style="stroke: #000000; stroke-width: 1.0;"/><polygon fill="#000000" points="104.6667,188.2895,100.6667,197.2895,104.6667,193.2895,108.6667,197.2895,104.6667,188.2895" style="stroke: #000000; stroke-width: 1.0;"/><text fill="#000000" font-family="sans-serif" font-size="13" lengthAdjust="spacingAndGlyphs" textLength="8" x="92.4375" y="207.988">1</text><text fill="#000000" font-family="sans-serif" font-size="13" lengthAdjust="spacingAndGlyphs" textLength="8" x="206.2783" y="412.6715">1</text><!--link bioladen.customer.Customer to bioladen.finances.CashierSystem--><path d="M135.3333,193.1347 C135.3333,193.1347 135.3333,235 135.3333,235 C135.3333,235 391.484,235 567.8377,235 " fill="none" id="bioladen.customer.Customer-bioladen.finances.CashierSystem" style="stroke: #000000; stroke-width: 1.0;"/><polygon fill="#000000" points="135.3333,188.1347,131.3333,197.1347,135.3333,193.1347,139.3333,197.1347,135.3333,188.1347" style="stroke: #000000; stroke-width: 1.0;"/><text fill="#000000" font-family="sans-serif" font-size="13" lengthAdjust="spacingAndGlyphs" textLength="8" x="129.8125" y="207.7993">1</text><text fill="#000000" font-family="sans-serif" font-size="13" lengthAdjust="spacingAndGlyphs" textLength="8" x="551.7408" y="235.2916">1</text><!--link org.salespointframework.context.ApplicationEvent to bioladen.event.EntityCreatedEvent--><path d="M1506,208.2895 C1506,208.2895 1506,416 1506,416 C1506,416 1448.7876,416 1398.168,416 " fill="none" id="org.salespointframework.context.ApplicationEvent-bioladen.event.EntityCreatedEvent" style="stroke: #000000; stroke-width: 1.0;"/><polygon fill="none" points="1499.0001,208.2895,1506,188.2895,1513.0001,208.2894,1499.0001,208.2895" style="stroke: #000000; stroke-width: 1.0;"/><rect fill="#DDDDDD" height="111.7813" rx="5" ry="5" style="stroke: #000000; stroke-width: 1.0;" width="217" x="781" y="778"/><text fill="#000000" font-family="sans-serif" font-size="14" font-weight="bold" lengthAdjust="spacingAndGlyphs" textLength="94" x="792" y="797.9951">Background</text><text fill="#000000" font-family="sans-serif" font-size="14" font-weight="bold" lengthAdjust="spacingAndGlyphs" textLength="91" x="896" y="797.9951">Component</text><rect fill="#3DD13F" height="16.2969" style="stroke: none; stroke-width: 1.0;" width="104" x="787" y="801.2969"/><text fill="#000000" font-family="sans-serif" font-size="14" lengthAdjust="spacingAndGlyphs" textLength="0" x="807" y="814.292"/><text fill="#000000" font-family="sans-serif" font-size="14" lengthAdjust="spacingAndGlyphs" textLength="32" x="895" y="814.292">View</text><rect fill="#5F9AEA" height="16.2969" style="stroke: none; stroke-width: 1.0;" width="104" x="787" y="817.5938"/><text fill="#000000" font-family="sans-serif" font-size="14" lengthAdjust="spacingAndGlyphs" textLength="0" x="807" y="830.5889"/><text fill="#000000" font-family="sans-serif" font-size="14" lengthAdjust="spacingAndGlyphs" textLength="67" x="895" y="830.5889">Controller</text><rect fill="#CEF6CE" height="16.2969" style="stroke: none; stroke-width: 1.0;" width="104" x="787" y="833.8906"/><text fill="#000000" font-family="sans-serif" font-size="14" lengthAdjust="spacingAndGlyphs" textLength="0" x="807" y="846.8857"/><text fill="#000000" font-family="sans-serif" font-size="14" lengthAdjust="spacingAndGlyphs" textLength="44" x="895" y="846.8857">Spring</text><rect fill="#F5A9BC" height="16.2969" style="stroke: none; stroke-width: 1.0;" width="104" x="787" y="850.1875"/><text fill="#000000" font-family="sans-serif" font-size="14" lengthAdjust="spacingAndGlyphs" textLength="0" x="807" y="863.1826"/><text fill="#000000" font-family="sans-serif" font-size="14" lengthAdjust="spacingAndGlyphs" textLength="72" x="895" y="863.1826">Salespoint</text><rect fill="#F9ED93" height="16.2969" style="stroke: none; stroke-width: 1.0;" width="104" x="787" y="866.4844"/><text fill="#000000" font-family="sans-serif" font-size="14" lengthAdjust="spacingAndGlyphs" textLength="0" x="807" y="879.4795"/><text fill="#000000" font-family="sans-serif" font-size="14" lengthAdjust="spacingAndGlyphs" textLength="26" x="895" y="879.4795">Java</text><line style="stroke: #000000; stroke-width: 1.0;" x1="787" x2="992" y1="785" y2="785"/><line style="stroke: #000000; stroke-width: 1.0;" x1="787" x2="992" y1="801.2969" y2="801.2969"/><line style="stroke: #000000; stroke-width: 1.0;" x1="787" x2="992" y1="817.5938" y2="817.5938"/><line style="stroke: #000000; stroke-width: 1.0;" x1="787" x2="992" y1="833.8906" y2="833.8906"/><line style="stroke: #000000; stroke-width: 1.0;" x1="787" x2="992" y1="850.1875" y2="850.1875"/><line style="stroke: #000000; stroke-width: 1.0;" x1="787" x2="992" y1="866.4844" y2="866.4844"/><line style="stroke: #000000; stroke-width: 1.0;" x1="787" x2="992" y1="882.7813" y2="882.7813"/><line style="stroke: #000000; stroke-width: 1.0;" x1="787" x2="787" y1="785" y2="882.7813"/><line style="stroke: #000000; stroke-width: 1.0;" x1="891" x2="891" y1="785" y2="882.7813"/><line style="stroke: #000000; stroke-width: 1.0;" x1="992" x2="992" y1="785" y2="882.7813"/><!--
@startuml




skinparam class {
	BackgroundColor #Silver/white
	BackgroundColor<<Spring>> #a9f5e1/cef6ce
	BackgroundColor<<Salespoint>> #f5a9bc/fcc4f0
	BackgroundColor<<Java>> #f9ed93/f7f583
	BackgroundColor<<Controller>> #Cornflowerblue/Cyan
    BorderColor Black
    ArrowColor  Black
}

skinparam package {
    FontColor Grey
    BorderColor Darkgrey
}

skinparam classAttributeIconSize 0
skinparam linetype ortho

legend
| Background | Component |
|<#3dd13f>     | View |
|<#5f9aea>     | Controller |
|<#cef6ce>     | Spring |
|<#f5a9bc>     | Salespoint |
|<#f9ed93>     | Java |
endlegend



rectangle Bioladen {
    namespace bioladen.finances {

        class CashierSystem <<Controller>> {
            -productCatalog : ProductCatalog
            -customerRepository : CustomerRepository

            +CashierSystem(ProductCatalog, CustomerRepository)
            +addProduct(String, long, ShoppingCart) : String
            +deleteProduct(String, ShoppingCart) : String
            +calcChange(double, ShoppingCart) : String
            +userId(long, ShoppingCart) : String
            +finish(ShoppingCart) : String
            +abort(ShoppingCart) : String
            +publishSaleCreatedEvent(ShoppingCart) : void
        }

        class CartController <<Controller>> {
            -productCatalog : ProductCatalog

            +CartController(ProductCatalog)
            +addToWishlist(String, ShoppingCart) : String
            +deleteFromWishlist(String, ShoppingCart) : String
            +addOneToWishlist(String, ShoppingCart) : String
            +removeOneFromWishlist(String, ShoppingCart) : String
        }

        class ShoppingCart <<Entity>> {
            -items : Map<Product, CartCartItem>
            -customer : Customer

            +addOrUpdateItem(Product, long) : CartCartItem
            +removeItem(String) : Optional<CartCartItem>
            +getItem(String) : Optional<CartCartItem>
            +clear() : void
            +isEmpty() : boolean
            +getPrice() : BigDecimal
            +getBasicPrice() : BigDecimal
            +getAmountOfItems() : int
            +getCustomerDiscountString() : String
            +getDiscount() : double
        }

        class CartCartItem <<Entity>> {
        -id : String
        -price : BigDecimal
        -quantity : long
        -product : Product

        +CartCartItem(Product, long)
        -CartCartItem(String, Product, long)
        +getProductName() : String
        +add(long) : CartCartItem
        }

        CashierSystem - -> ShoppingCart
        CartController - -> ShoppingCart
        ShoppingCart - -> CartCartItem

    }

    namespace bioladen.event {
        class EntityCreatedEvent {

        }

        bioladen.finances.CashierSystem - -> bioladen.event.EntityCreatedEvent

    }

    namespace ressources.templates {

        file cashiersystem.html <<View>> #limegreen/technology {

        }

        file wishlist.html <<View>> #limegreen/technology {

        }

        bioladen.finances.CashierSystem - -> cashiersystem.html
        bioladen.finances.CartController - -> wishlist.html
    }

    namespace bioladen.customer {

            class Customer <<Entity>> {

            }

            bioladen.finances.ShoppingCart "1" -left-> "1" Customer
            bioladen.finances.CashierSystem "1" -left-> "1" Customer
        }

}



rectangle salespoint-framework-7.0.0.RELEASE.jar {

    namespace org.salespointframework.context {
        class ApplicationEvent <<Salespoint>>{

        }

        ApplicationEvent <|- - bioladen.event.EntityCreatedEvent
    }

}


@enduml

PlantUML version 1.2018.12(Sun Oct 21 12:15:15 CEST 2018)
(GPL source distribution)
Java Runtime: OpenJDK Runtime Environment
JVM: OpenJDK 64-Bit Server VM
Java Version: 11.0.1+13-Debian-2
Operating System: Linux
OS Version: 4.18.0-parrot10-amd64
Default Encoding: UTF-8
Language: en
Country: US
--></g></svg>