<?xml version="1.0" encoding="UTF-8" standalone="no"?><svg xmlns="http://www.w3.org/2000/svg" xmlns:xlink="http://www.w3.org/1999/xlink" contentScriptType="application/ecmascript" contentStyleType="text/css" height="969px" preserveAspectRatio="none" style="width:2878px;height:969px;" version="1.1" viewBox="0 0 2878 969" width="2878px" zoomAndPan="magnify"><defs><filter height="300%" id="fcsb8a2514264" width="300%" x="-1" y="-1"><feGaussianBlur result="blurOut" stdDeviation="2.0"/><feColorMatrix in="blurOut" result="blurOut2" type="matrix" values="0 0 0 0 0 0 0 0 0 0 0 0 0 0 0 0 0 0 .4 0"/><feOffset dx="4.0" dy="4.0" in="blurOut2" result="blurOut3"/><feBlend in="SourceGraphic" in2="blurOut3" mode="normal"/></filter><linearGradient id="gcsb8a25142640" x1="0%" x2="100%" y1="0%" y2="100%"><stop offset="0%" stop-color="#F08080"/><stop offset="100%" stop-color="#FFB6C1"/></linearGradient></defs><g><!--cluster salespoint-framework-7.0.0.RELEASE.jar--><rect fill="#FFFFFF" filter="url(#fcsb8a2514264)" height="790" style="stroke: #8B008B; stroke-width: 1.5;" width="1826" x="22" y="24"/><text fill="#808080" font-family="sans-serif" font-size="14" font-weight="bold" lengthAdjust="spacingAndGlyphs" textLength="278" x="796" y="40.5332">salespoint-framework-7.0.0.RELEASE.jar</text><!--cluster org.salespointframework.order--><polygon fill="#FFFFFF" filter="url(#fcsb8a2514264)" points="46,68,270,68,277,91.6094,1402,91.6094,1402,790,46,790,46,68" style="stroke: #8B008B; stroke-width: 1.5;"/><line style="stroke: #8B008B; stroke-width: 1.5;" x1="46" x2="277" y1="91.6094" y2="91.6094"/><text fill="#808080" font-family="sans-serif" font-size="14" font-weight="bold" lengthAdjust="spacingAndGlyphs" textLength="218" x="50" y="84.5332">org.salespointframework.order</text><!--cluster org.salespointframework.support--><polygon fill="#FFFFFF" filter="url(#fcsb8a2514264)" points="1426,272.5,1666,272.5,1673,296.1094,1824,296.1094,1824,372.5,1426,372.5,1426,272.5" style="stroke: #8B008B; stroke-width: 1.5;"/><line style="stroke: #8B008B; stroke-width: 1.5;" x1="1426" x2="1673" y1="296.1094" y2="296.1094"/><text fill="#808080" font-family="sans-serif" font-size="14" font-weight="bold" lengthAdjust="spacingAndGlyphs" textLength="234" x="1430" y="289.0332">org.salespointframework.support</text><!--cluster Bioladen--><rect fill="#FFFFFF" filter="url(#fcsb8a2514264)" height="736.5" style="stroke: #8B008B; stroke-width: 1.5;" width="995" x="1872" y="221.5"/><text fill="#808080" font-family="sans-serif" font-size="14" font-weight="bold" lengthAdjust="spacingAndGlyphs" textLength="62" x="2338.5" y="238.0332">Bioladen</text><!--cluster bioladen.order--><polygon fill="#FFFFFF" filter="url(#fcsb8a2514264)" points="1896,619.5,2006,619.5,2013,643.1094,2503,643.1094,2503,934,1896,934,1896,619.5" style="stroke: #8B008B; stroke-width: 1.5;"/><line style="stroke: #8B008B; stroke-width: 1.5;" x1="1896" x2="2013" y1="643.1094" y2="643.1094"/><text fill="#808080" font-family="sans-serif" font-size="14" font-weight="bold" lengthAdjust="spacingAndGlyphs" textLength="104" x="1900" y="636.0332">bioladen.order</text><!--cluster bioladen.product--><polygon fill="#FFFFFF" filter="url(#fcsb8a2514264)" points="2527,268.5,2653,268.5,2660,292.1094,2843,292.1094,2843,920,2527,920,2527,268.5" style="stroke: #8B008B; stroke-width: 1.5;"/><line style="stroke: #8B008B; stroke-width: 1.5;" x1="2527" x2="2660" y1="292.1094" y2="292.1094"/><text fill="#808080" font-family="sans-serif" font-size="14" font-weight="bold" lengthAdjust="spacingAndGlyphs" textLength="120" x="2531" y="285.0332">bioladen.product</text><!--cluster Amount--><polygon fill="#FFFFFF" filter="url(#fcsb8a2514264)" points="2273,265.5,2332,265.5,2339,289.1094,2407,289.1094,2407,379.5,2273,379.5,2273,265.5" style="stroke: #8B008B; stroke-width: 1.5;"/><line style="stroke: #8B008B; stroke-width: 1.5;" x1="2273" x2="2339" y1="289.1094" y2="289.1094"/><text fill="#808080" font-family="sans-serif" font-size="14" font-weight="bold" lengthAdjust="spacingAndGlyphs" textLength="53" x="2277" y="282.0332">Amount</text><!--class org.salespointframework.order.OrderManager--><rect fill="url(#gcsb8a25142640)" filter="url(#fcsb8a2514264)" height="139.2031" id="org.salespointframework.order.OrderManager" style="stroke: #000000; stroke-width: 1.5;" width="202" x="375" y="628"/><ellipse cx="390" cy="648.0938" fill="#B4A7E5" rx="11" ry="11" style="stroke: #000000; stroke-width: 1.0;"/><path d="M390.9531,644.7344 L390.9531,651.3906 L392.6719,651.3906 Q393.2813,651.3906 393.5469,651.625 Q393.8125,651.8594 393.8125,652.25 Q393.8125,652.625 393.5469,652.8594 Q393.2813,653.0938 392.6719,653.0938 L387.5313,653.0938 Q386.9219,653.0938 386.6563,652.8594 Q386.3906,652.625 386.3906,652.2344 Q386.3906,651.8594 386.6563,651.625 Q386.9219,651.3906 387.5313,651.3906 L389.25,651.3906 L389.25,644.7344 L387.5313,644.7344 Q386.9219,644.7344 386.6563,644.5 Q386.3906,644.2656 386.3906,643.875 Q386.3906,643.5 386.6563,643.2656 Q386.9219,643.0313 387.5313,643.0313 L392.6719,643.0313 Q393.2813,643.0313 393.5469,643.2656 Q393.8125,643.5 393.8125,643.875 Q393.8125,644.2656 393.5469,644.5 Q393.2813,644.7344 392.6719,644.7344 L390.9531,644.7344 Z "/><text fill="#000000" font-family="sans-serif" font-size="12" font-style="italic" lengthAdjust="spacingAndGlyphs" textLength="55" x="416" y="645.457">«Service»</text><text fill="#000000" font-family="sans-serif" font-size="12" font-style="italic" lengthAdjust="spacingAndGlyphs" textLength="79" x="404" y="660.5508">OrderManager</text><rect fill="#FFFFFF" height="17.0938" style="stroke: #000000; stroke-width: 1.0; stroke-dasharray: 2.0,2.0;" width="89" x="491" y="625"/><text fill="#000000" font-family="sans-serif" font-size="12" font-style="italic" lengthAdjust="spacingAndGlyphs" textLength="87" x="492" y="638.457">T extends Order</text><line style="stroke: #000000; stroke-width: 1.5;" x1="376" x2="576" y1="668.1875" y2="668.1875"/><line style="stroke: #000000; stroke-width: 1.5;" x1="376" x2="576" y1="676.1875" y2="676.1875"/><text fill="#000000" font-family="sans-serif" font-size="11" lengthAdjust="spacingAndGlyphs" textLength="127" x="381" y="691.6064">+cancelOrder(T) : boolean</text><text fill="#000000" font-family="sans-serif" font-size="11" lengthAdjust="spacingAndGlyphs" textLength="120" x="381" y="705.4424">+completeOrder(T) : void</text><text fill="#000000" font-family="sans-serif" font-size="11" lengthAdjust="spacingAndGlyphs" textLength="171" x="381" y="719.2783">+contains(OrderIdentifier) : boolean</text><text fill="#000000" font-family="sans-serif" font-size="11" lengthAdjust="spacingAndGlyphs" textLength="185" x="381" y="733.1143">+findBy(OrderStatus) : Streamable&lt;T&gt;</text><text fill="#000000" font-family="sans-serif" font-size="11" lengthAdjust="spacingAndGlyphs" textLength="164" x="381" y="746.9502">+get(OrderIdentifier) : Optional&lt;T&gt;</text><text fill="#000000" font-family="sans-serif" font-size="11" lengthAdjust="spacingAndGlyphs" textLength="59" x="381" y="760.7861">+save(T) : T</text><!--class org.salespointframework.order.Order--><rect fill="url(#gcsb8a25142640)" filter="url(#fcsb8a2514264)" height="457.4297" id="org.salespointframework.order.Order" style="stroke: #000000; stroke-width: 1.5;" width="232" x="945" y="104"/><ellipse cx="1036.75" cy="124.0938" fill="#ADD1B2" rx="11" ry="11" style="stroke: #000000; stroke-width: 1.0;"/><path d="M1039.5156,119.9688 Q1039.6719,119.75 1039.8594,119.6406 Q1040.0469,119.5313 1040.2656,119.5313 Q1040.6406,119.5313 1040.875,119.7891 Q1041.1094,120.0469 1041.1094,120.6563 L1041.1094,122.1094 Q1041.1094,122.7188 1040.875,122.9844 Q1040.6406,123.25 1040.2656,123.25 Q1039.9219,123.25 1039.7188,123.0469 Q1039.5156,122.8594 1039.4063,122.3438 Q1039.3594,121.9844 1039.1719,121.7969 Q1038.8438,121.4219 1038.2344,121.2031 Q1037.625,120.9844 1037,120.9844 Q1036.2344,120.9844 1035.6016,121.3125 Q1034.9688,121.6406 1034.4766,122.3906 Q1033.9844,123.1406 1033.9844,124.1719 L1033.9844,125.2656 Q1033.9844,126.5 1034.875,127.3203 Q1035.7656,128.1406 1037.3594,128.1406 Q1038.2969,128.1406 1038.9531,127.8906 Q1039.3438,127.7344 1039.7656,127.2969 Q1040.0313,127.0313 1040.1797,126.9531 Q1040.3281,126.875 1040.5313,126.875 Q1040.8594,126.875 1041.1172,127.1328 Q1041.375,127.3906 1041.375,127.7344 Q1041.375,128.0781 1041.0313,128.4844 Q1040.5313,129.0625 1039.7344,129.3906 Q1038.6563,129.8438 1037.3594,129.8438 Q1035.8438,129.8438 1034.6406,129.2188 Q1033.6563,128.7188 1032.9688,127.6484 Q1032.2813,126.5781 1032.2813,125.2969 L1032.2813,124.1406 Q1032.2813,122.8125 1032.8984,121.6641 Q1033.5156,120.5156 1034.6094,119.8984 Q1035.7031,119.2813 1036.9375,119.2813 Q1037.6719,119.2813 1038.3203,119.4453 Q1038.9688,119.6094 1039.5156,119.9688 Z "/><text fill="#000000" font-family="sans-serif" font-size="12" font-style="italic" lengthAdjust="spacingAndGlyphs" textLength="44" x="1055.25" y="121.457">«Entity»</text><text fill="#000000" font-family="sans-serif" font-size="12" lengthAdjust="spacingAndGlyphs" textLength="31" x="1061.75" y="136.5508">Order</text><line style="stroke: #000000; stroke-width: 1.5;" x1="946" x2="1176" y1="144.1875" y2="144.1875"/><text fill="#000000" font-family="sans-serif" font-size="11" lengthAdjust="spacingAndGlyphs" textLength="149" x="951" y="159.6064">-orderIdentifier : OrderIdentifier</text><text fill="#000000" font-family="sans-serif" font-size="11" lengthAdjust="spacingAndGlyphs" textLength="165" x="951" y="173.4424">-paymentMethod : PaymentMethod</text><text fill="#000000" font-family="sans-serif" font-size="11" lengthAdjust="spacingAndGlyphs" textLength="140" x="951" y="187.2783">-userAccount : UserAccount</text><text fill="#000000" font-family="sans-serif" font-size="11" lengthAdjust="spacingAndGlyphs" textLength="142" x="951" y="201.1143">-dateCreated : LocalDateTime</text><text fill="#000000" font-family="sans-serif" font-size="11" lengthAdjust="spacingAndGlyphs" textLength="129" x="951" y="214.9502">-orderStatus : OrderStatus</text><text fill="#000000" font-family="sans-serif" font-size="11" lengthAdjust="spacingAndGlyphs" textLength="141" x="951" y="228.7861">-orderLines : Set&lt;OrderLine&gt;</text><text fill="#000000" font-family="sans-serif" font-size="11" lengthAdjust="spacingAndGlyphs" textLength="162" x="951" y="242.6221">-chargeLines : Set&lt;ChargeLines&gt;</text><line style="stroke: #000000; stroke-width: 1.5;" x1="946" x2="1176" y1="249.0391" y2="249.0391"/><text fill="#000000" font-family="sans-serif" font-size="11" lengthAdjust="spacingAndGlyphs" textLength="106" x="951" y="264.458">+Order(UserAccount)</text><text fill="#000000" font-family="sans-serif" font-size="11" lengthAdjust="spacingAndGlyphs" textLength="116" x="951" y="278.2939">+add(ChargeLine) : void</text><text fill="#000000" font-family="sans-serif" font-size="11" lengthAdjust="spacingAndGlyphs" textLength="134" x="951" y="292.1299">+remove(ChargeLine) : void</text><text fill="#000000" font-family="sans-serif" font-size="11" lengthAdjust="spacingAndGlyphs" textLength="220" x="951" y="305.9658">+getChargeLines() : Streamable&lt;ChargeLine&gt;</text><text fill="#000000" font-family="sans-serif" font-size="11" lengthAdjust="spacingAndGlyphs" textLength="205" x="951" y="319.8018">+getChargeLinesPrice() : MonetaryAmount</text><text fill="#000000" font-family="sans-serif" font-size="11" lengthAdjust="spacingAndGlyphs" textLength="109" x="951" y="333.6377">+add(OrderLine) : void</text><text fill="#000000" font-family="sans-serif" font-size="11" lengthAdjust="spacingAndGlyphs" textLength="127" x="951" y="347.4736">+remove(OrderLine) : void</text><text fill="#000000" font-family="sans-serif" font-size="11" lengthAdjust="spacingAndGlyphs" textLength="206" x="951" y="361.3096">+getOrderLines() : Streamable&lt;OrderLine&gt;</text><text fill="#000000" font-family="sans-serif" font-size="11" lengthAdjust="spacingAndGlyphs" textLength="210" x="951" y="375.1455">+getOrderedLinesPrice() : MonetaryAmount</text><text fill="#000000" font-family="sans-serif" font-size="11" lengthAdjust="spacingAndGlyphs" textLength="168" x="951" y="388.9814">+getDateCreated() : LocalDateTime</text><text fill="#000000" font-family="sans-serif" font-size="11" lengthAdjust="spacingAndGlyphs" textLength="115" x="951" y="402.8174">+getId() : OrderIdentifier</text><text fill="#000000" font-family="sans-serif" font-size="11" lengthAdjust="spacingAndGlyphs" textLength="156" x="951" y="416.6533">+getOrderStatus() : OrderStatus</text><text fill="#000000" font-family="sans-serif" font-size="11" lengthAdjust="spacingAndGlyphs" textLength="167" x="951" y="430.4893">+getTotalPrice() : MonetaryAmount</text><text fill="#000000" font-family="sans-serif" font-size="11" lengthAdjust="spacingAndGlyphs" textLength="95" x="951" y="444.3252">+isOpen() : boolean</text><text fill="#000000" font-family="sans-serif" font-size="11" lengthAdjust="spacingAndGlyphs" textLength="89" x="951" y="458.1611">+isPaid() : boolean</text><text fill="#000000" font-family="sans-serif" font-size="11" lengthAdjust="spacingAndGlyphs" textLength="119" x="951" y="471.9971">+isCompleted() : boolean</text><text fill="#000000" font-family="sans-serif" font-size="11" lengthAdjust="spacingAndGlyphs" textLength="116" x="951" y="485.833">+isCancelled() : boolean</text><text fill="#000000" font-family="sans-serif" font-size="11" lengthAdjust="spacingAndGlyphs" textLength="94" x="951" y="499.6689">+complete() : Order</text><text fill="#000000" font-family="sans-serif" font-size="11" lengthAdjust="spacingAndGlyphs" textLength="75" x="951" y="513.5049">+cancel() : void</text><text fill="#000000" font-family="sans-serif" font-size="11" lengthAdjust="spacingAndGlyphs" textLength="143" x="951" y="527.3408">+getNumberOfLineItems() : int</text><text fill="#000000" font-family="sans-serif" font-size="11" lengthAdjust="spacingAndGlyphs" textLength="94" x="951" y="541.1768">+markPaid() : Order</text><text fill="#000000" font-family="sans-serif" font-size="11" lengthAdjust="spacingAndGlyphs" textLength="134" x="951" y="555.0127">-assertOrderIsOpen() : void</text><!--class org.salespointframework.order.Cart--><rect fill="url(#gcsb8a25142640)" filter="url(#fcsb8a2514264)" height="208.3828" id="org.salespointframework.order.Cart" style="stroke: #000000; stroke-width: 1.5;" width="246" x="78" y="228.5"/><ellipse cx="176.75" cy="248.5938" fill="#ADD1B2" rx="11" ry="11" style="stroke: #000000; stroke-width: 1.0;"/><path d="M179.5156,244.4688 Q179.6719,244.25 179.8594,244.1406 Q180.0469,244.0313 180.2656,244.0313 Q180.6406,244.0313 180.875,244.2891 Q181.1094,244.5469 181.1094,245.1563 L181.1094,246.6094 Q181.1094,247.2188 180.875,247.4844 Q180.6406,247.75 180.2656,247.75 Q179.9219,247.75 179.7188,247.5469 Q179.5156,247.3594 179.4063,246.8438 Q179.3594,246.4844 179.1719,246.2969 Q178.8438,245.9219 178.2344,245.7031 Q177.625,245.4844 177,245.4844 Q176.2344,245.4844 175.6016,245.8125 Q174.9688,246.1406 174.4766,246.8906 Q173.9844,247.6406 173.9844,248.6719 L173.9844,249.7656 Q173.9844,251 174.875,251.8203 Q175.7656,252.6406 177.3594,252.6406 Q178.2969,252.6406 178.9531,252.3906 Q179.3438,252.2344 179.7656,251.7969 Q180.0313,251.5313 180.1797,251.4531 Q180.3281,251.375 180.5313,251.375 Q180.8594,251.375 181.1172,251.6328 Q181.375,251.8906 181.375,252.2344 Q181.375,252.5781 181.0313,252.9844 Q180.5313,253.5625 179.7344,253.8906 Q178.6563,254.3438 177.3594,254.3438 Q175.8438,254.3438 174.6406,253.7188 Q173.6563,253.2188 172.9688,252.1484 Q172.2813,251.0781 172.2813,249.7969 L172.2813,248.6406 Q172.2813,247.3125 172.8984,246.1641 Q173.5156,245.0156 174.6094,244.3984 Q175.7031,243.7813 176.9375,243.7813 Q177.6719,243.7813 178.3203,243.9453 Q178.9688,244.1094 179.5156,244.4688 Z "/><text fill="#000000" font-family="sans-serif" font-size="12" font-style="italic" lengthAdjust="spacingAndGlyphs" textLength="44" x="195.25" y="245.957">«Entity»</text><text fill="#000000" font-family="sans-serif" font-size="12" lengthAdjust="spacingAndGlyphs" textLength="23" x="205.75" y="261.0508">Cart</text><line style="stroke: #000000; stroke-width: 1.5;" x1="79" x2="323" y1="268.6875" y2="268.6875"/><line style="stroke: #000000; stroke-width: 1.5;" x1="79" x2="323" y1="276.6875" y2="276.6875"/><text fill="#000000" font-family="sans-serif" font-size="11" lengthAdjust="spacingAndGlyphs" textLength="128" x="84" y="292.1064">+addItemTo(Order) : Order</text><text fill="#000000" font-family="sans-serif" font-size="11" lengthAdjust="spacingAndGlyphs" textLength="208" x="84" y="305.9424">+addOrUpdateItem(Product, long) : CartItem</text><text fill="#000000" font-family="sans-serif" font-size="11" lengthAdjust="spacingAndGlyphs" textLength="234" x="84" y="319.7783">+addOrUpdateItem(Product, Quantity) : CartItem+</text><text fill="#000000" font-family="sans-serif" font-size="11" lengthAdjust="spacingAndGlyphs" textLength="67" x="84" y="333.6143">+clear() : void</text><text fill="#000000" font-family="sans-serif" font-size="11" lengthAdjust="spacingAndGlyphs" textLength="190" x="84" y="347.4502">+createOrderFor(UserAccount) : Order</text><text fill="#000000" font-family="sans-serif" font-size="11" lengthAdjust="spacingAndGlyphs" textLength="175" x="84" y="361.2861">+getItem(String) : Optional&lt;CartItem&gt;</text><text fill="#000000" font-family="sans-serif" font-size="11" lengthAdjust="spacingAndGlyphs" textLength="144" x="84" y="375.1221">+getPrice() : MonetaryAmount</text><text fill="#000000" font-family="sans-serif" font-size="11" lengthAdjust="spacingAndGlyphs" textLength="98" x="84" y="388.958">+isEmpty() : boolean</text><text fill="#000000" font-family="sans-serif" font-size="11" lengthAdjust="spacingAndGlyphs" textLength="142" x="84" y="402.7939">+iterator() : Iterator&lt;CartItem&gt;</text><text fill="#000000" font-family="sans-serif" font-size="11" lengthAdjust="spacingAndGlyphs" textLength="196" x="84" y="416.6299">+removeItem(String) : Optional&lt;CartItem&gt;</text><text fill="#000000" font-family="sans-serif" font-size="11" lengthAdjust="spacingAndGlyphs" textLength="208" x="84" y="430.4658">+sumUp(Iterable&lt;? extends Priced&gt; priced)</text><!--class org.salespointframework.order.CartItem--><rect fill="url(#gcsb8a25142640)" filter="url(#fcsb8a2514264)" height="153.0391" id="org.salespointframework.order.CartItem" style="stroke: #000000; stroke-width: 1.5;" width="278" x="62" y="621"/><ellipse cx="173.25" cy="641.0938" fill="#ADD1B2" rx="11" ry="11" style="stroke: #000000; stroke-width: 1.0;"/><path d="M176.0156,636.9688 Q176.1719,636.75 176.3594,636.6406 Q176.5469,636.5313 176.7656,636.5313 Q177.1406,636.5313 177.375,636.7891 Q177.6094,637.0469 177.6094,637.6563 L177.6094,639.1094 Q177.6094,639.7188 177.375,639.9844 Q177.1406,640.25 176.7656,640.25 Q176.4219,640.25 176.2188,640.0469 Q176.0156,639.8594 175.9063,639.3438 Q175.8594,638.9844 175.6719,638.7969 Q175.3438,638.4219 174.7344,638.2031 Q174.125,637.9844 173.5,637.9844 Q172.7344,637.9844 172.1016,638.3125 Q171.4688,638.6406 170.9766,639.3906 Q170.4844,640.1406 170.4844,641.1719 L170.4844,642.2656 Q170.4844,643.5 171.375,644.3203 Q172.2656,645.1406 173.8594,645.1406 Q174.7969,645.1406 175.4531,644.8906 Q175.8438,644.7344 176.2656,644.2969 Q176.5313,644.0313 176.6797,643.9531 Q176.8281,643.875 177.0313,643.875 Q177.3594,643.875 177.6172,644.1328 Q177.875,644.3906 177.875,644.7344 Q177.875,645.0781 177.5313,645.4844 Q177.0313,646.0625 176.2344,646.3906 Q175.1563,646.8438 173.8594,646.8438 Q172.3438,646.8438 171.1406,646.2188 Q170.1563,645.7188 169.4688,644.6484 Q168.7813,643.5781 168.7813,642.2969 L168.7813,641.1406 Q168.7813,639.8125 169.3984,638.6641 Q170.0156,637.5156 171.1094,636.8984 Q172.2031,636.2813 173.4375,636.2813 Q174.1719,636.2813 174.8203,636.4453 Q175.4688,636.6094 176.0156,636.9688 Z "/><text fill="#000000" font-family="sans-serif" font-size="12" font-style="italic" lengthAdjust="spacingAndGlyphs" textLength="44" x="195.25" y="638.457">«Entity»</text><text fill="#000000" font-family="sans-serif" font-size="12" lengthAdjust="spacingAndGlyphs" textLength="47" x="193.75" y="653.5508">CartItem</text><line style="stroke: #000000; stroke-width: 1.5;" x1="63" x2="339" y1="661.1875" y2="661.1875"/><line style="stroke: #000000; stroke-width: 1.5;" x1="63" x2="339" y1="669.1875" y2="669.1875"/><text fill="#000000" font-family="sans-serif" font-size="11" lengthAdjust="spacingAndGlyphs" textLength="75" x="68" y="684.6064">+getID() : String</text><text fill="#000000" font-family="sans-serif" font-size="11" lengthAdjust="spacingAndGlyphs" textLength="144" x="68" y="698.4424">+getPrice() : MonetaryAmount</text><text fill="#000000" font-family="sans-serif" font-size="11" lengthAdjust="spacingAndGlyphs" textLength="112" x="68" y="712.2783">+getProduct() : Product</text><text fill="#000000" font-family="sans-serif" font-size="11" lengthAdjust="spacingAndGlyphs" textLength="130" x="68" y="726.1143">+getProductName() : String</text><text fill="#000000" font-family="sans-serif" font-size="11" lengthAdjust="spacingAndGlyphs" textLength="118" x="68" y="739.9502">+getQuantity() : Quantity</text><text fill="#000000" font-family="sans-serif" font-size="11" lengthAdjust="spacingAndGlyphs" textLength="83" x="68" y="753.7861">+hashCode() : int</text><text fill="#000000" font-family="sans-serif" font-size="11" lengthAdjust="spacingAndGlyphs" textLength="266" x="68" y="767.6221">+sumUp(Iterable&lt;? extends Priced&gt;) : MonetaryAmount</text><!--class org.salespointframework.order.OrderLine--><rect fill="url(#gcsb8a25142640)" filter="url(#fcsb8a2514264)" height="139.2031" id="org.salespointframework.order.OrderLine" style="stroke: #000000; stroke-width: 1.5;" width="278" x="612" y="628"/><ellipse cx="719.25" cy="648.0938" fill="#ADD1B2" rx="11" ry="11" style="stroke: #000000; stroke-width: 1.0;"/><path d="M722.0156,643.9688 Q722.1719,643.75 722.3594,643.6406 Q722.5469,643.5313 722.7656,643.5313 Q723.1406,643.5313 723.375,643.7891 Q723.6094,644.0469 723.6094,644.6563 L723.6094,646.1094 Q723.6094,646.7188 723.375,646.9844 Q723.1406,647.25 722.7656,647.25 Q722.4219,647.25 722.2188,647.0469 Q722.0156,646.8594 721.9063,646.3438 Q721.8594,645.9844 721.6719,645.7969 Q721.3438,645.4219 720.7344,645.2031 Q720.125,644.9844 719.5,644.9844 Q718.7344,644.9844 718.1016,645.3125 Q717.4688,645.6406 716.9766,646.3906 Q716.4844,647.1406 716.4844,648.1719 L716.4844,649.2656 Q716.4844,650.5 717.375,651.3203 Q718.2656,652.1406 719.8594,652.1406 Q720.7969,652.1406 721.4531,651.8906 Q721.8438,651.7344 722.2656,651.2969 Q722.5313,651.0313 722.6797,650.9531 Q722.8281,650.875 723.0313,650.875 Q723.3594,650.875 723.6172,651.1328 Q723.875,651.3906 723.875,651.7344 Q723.875,652.0781 723.5313,652.4844 Q723.0313,653.0625 722.2344,653.3906 Q721.1563,653.8438 719.8594,653.8438 Q718.3438,653.8438 717.1406,653.2188 Q716.1563,652.7188 715.4688,651.6484 Q714.7813,650.5781 714.7813,649.2969 L714.7813,648.1406 Q714.7813,646.8125 715.3984,645.6641 Q716.0156,644.5156 717.1094,643.8984 Q718.2031,643.2813 719.4375,643.2813 Q720.1719,643.2813 720.8203,643.4453 Q721.4688,643.6094 722.0156,643.9688 Z "/><text fill="#000000" font-family="sans-serif" font-size="12" font-style="italic" lengthAdjust="spacingAndGlyphs" textLength="44" x="745.25" y="645.457">«Entity»</text><text fill="#000000" font-family="sans-serif" font-size="12" lengthAdjust="spacingAndGlyphs" textLength="55" x="739.75" y="660.5508">OrderLine</text><line style="stroke: #000000; stroke-width: 1.5;" x1="613" x2="889" y1="668.1875" y2="668.1875"/><line style="stroke: #000000; stroke-width: 1.5;" x1="613" x2="889" y1="676.1875" y2="676.1875"/><text fill="#000000" font-family="sans-serif" font-size="11" lengthAdjust="spacingAndGlyphs" textLength="135" x="618" y="691.6064">+getId() : OrderLineIdentifier</text><text fill="#000000" font-family="sans-serif" font-size="11" lengthAdjust="spacingAndGlyphs" textLength="144" x="618" y="705.4424">+getPrice() : MonetaryAmount</text><text fill="#000000" font-family="sans-serif" font-size="11" lengthAdjust="spacingAndGlyphs" textLength="194" x="618" y="719.2783">+getProductIdentifier() : ProductIdentifier</text><text fill="#000000" font-family="sans-serif" font-size="11" lengthAdjust="spacingAndGlyphs" textLength="130" x="618" y="733.1143">+getProductName() : String</text><text fill="#000000" font-family="sans-serif" font-size="11" lengthAdjust="spacingAndGlyphs" textLength="118" x="618" y="746.9502">+getQuantity() : Quantity</text><text fill="#000000" font-family="sans-serif" font-size="11" lengthAdjust="spacingAndGlyphs" textLength="266" x="618" y="760.7861">+sumUp(Iterable&lt;? extends Priced&gt;) : MonetaryAmount</text><!--class org.salespointframework.order.ChargeLine--><rect fill="url(#gcsb8a25142640)" filter="url(#fcsb8a2514264)" height="83.8594" id="org.salespointframework.order.ChargeLine" style="stroke: #000000; stroke-width: 1.5;" width="272" x="925" y="655.5"/><ellipse cx="1024.25" cy="675.5938" fill="#ADD1B2" rx="11" ry="11" style="stroke: #000000; stroke-width: 1.0;"/><path d="M1027.0156,671.4688 Q1027.1719,671.25 1027.3594,671.1406 Q1027.5469,671.0313 1027.7656,671.0313 Q1028.1406,671.0313 1028.375,671.2891 Q1028.6094,671.5469 1028.6094,672.1563 L1028.6094,673.6094 Q1028.6094,674.2188 1028.375,674.4844 Q1028.1406,674.75 1027.7656,674.75 Q1027.4219,674.75 1027.2188,674.5469 Q1027.0156,674.3594 1026.9063,673.8438 Q1026.8594,673.4844 1026.6719,673.2969 Q1026.3438,672.9219 1025.7344,672.7031 Q1025.125,672.4844 1024.5,672.4844 Q1023.7344,672.4844 1023.1016,672.8125 Q1022.4688,673.1406 1021.9766,673.8906 Q1021.4844,674.6406 1021.4844,675.6719 L1021.4844,676.7656 Q1021.4844,678 1022.375,678.8203 Q1023.2656,679.6406 1024.8594,679.6406 Q1025.7969,679.6406 1026.4531,679.3906 Q1026.8438,679.2344 1027.2656,678.7969 Q1027.5313,678.5313 1027.6797,678.4531 Q1027.8281,678.375 1028.0313,678.375 Q1028.3594,678.375 1028.6172,678.6328 Q1028.875,678.8906 1028.875,679.2344 Q1028.875,679.5781 1028.5313,679.9844 Q1028.0313,680.5625 1027.2344,680.8906 Q1026.1563,681.3438 1024.8594,681.3438 Q1023.3438,681.3438 1022.1406,680.7188 Q1021.1563,680.2188 1020.4688,679.1484 Q1019.7813,678.0781 1019.7813,676.7969 L1019.7813,675.6406 Q1019.7813,674.3125 1020.3984,673.1641 Q1021.0156,672.0156 1022.1094,671.3984 Q1023.2031,670.7813 1024.4375,670.7813 Q1025.1719,670.7813 1025.8203,670.9453 Q1026.4688,671.1094 1027.0156,671.4688 Z "/><text fill="#000000" font-family="sans-serif" font-size="12" font-style="italic" lengthAdjust="spacingAndGlyphs" textLength="44" x="1055.25" y="672.957">«Entity»</text><text fill="#000000" font-family="sans-serif" font-size="12" lengthAdjust="spacingAndGlyphs" textLength="65" x="1044.75" y="688.0508">ChargeLine</text><line style="stroke: #000000; stroke-width: 1.5;" x1="926" x2="1196" y1="695.6875" y2="695.6875"/><line style="stroke: #000000; stroke-width: 1.5;" x1="926" x2="1196" y1="703.6875" y2="703.6875"/><text fill="#000000" font-family="sans-serif" font-size="11" lengthAdjust="spacingAndGlyphs" textLength="136" x="931" y="719.1064">getId() : ChargeLineIdentifier</text><text fill="#000000" font-family="sans-serif" font-size="11" lengthAdjust="spacingAndGlyphs" textLength="260" x="931" y="732.9424">sumUp(Iterable&lt;? extends Priced&gt;) : MonetaryAmount</text><!--class org.salespointframework.order.OrderStatus--><rect fill="url(#gcsb8a25142640)" filter="url(#fcsb8a2514264)" height="131.0156" id="org.salespointframework.order.OrderStatus" style="stroke: #000000; stroke-width: 1.5;" width="154" x="1232" y="632"/><ellipse cx="1272.2" cy="648" fill="#EB937F" rx="11" ry="11" style="stroke: #000000; stroke-width: 1.0;"/><path d="M1271.0594,648.7969 L1271.0594,651.2969 L1275.3875,651.2969 L1275.3875,650.375 Q1275.3875,649.7656 1275.6297,649.5 Q1275.8719,649.2344 1276.2469,649.2344 Q1276.6219,649.2344 1276.8563,649.5 Q1277.0906,649.7656 1277.0906,650.375 L1277.0906,653 L1269.0906,653 Q1268.4656,653 1268.2078,652.7656 Q1267.95,652.5313 1267.95,652.1406 Q1267.95,651.7656 1268.2156,651.5313 Q1268.4813,651.2969 1269.0906,651.2969 L1269.3563,651.2969 L1269.3563,644.6406 L1269.0906,644.6406 Q1268.4656,644.6406 1268.2078,644.4063 Q1267.95,644.1719 1267.95,643.7813 Q1267.95,643.4063 1268.2078,643.1719 Q1268.4656,642.9375 1269.0906,642.9375 L1276.7156,642.9375 L1276.7156,645.5313 Q1276.7156,646.1406 1276.4891,646.3984 Q1276.2625,646.6563 1275.8719,646.6563 Q1275.4969,646.6563 1275.2625,646.3984 Q1275.0281,646.1406 1275.0281,645.5313 L1275.0281,644.6406 L1271.0594,644.6406 L1271.0594,647.0938 L1272.5438,647.0938 Q1272.5438,646.4375 1272.6688,646.25 Q1272.9344,645.8438 1273.4031,645.8438 Q1273.7781,645.8438 1274.0125,646.1016 Q1274.2469,646.3594 1274.2469,646.9688 L1274.2469,648.9375 Q1274.2469,649.4844 1274.1219,649.6719 Q1273.8563,650.0625 1273.4031,650.0625 Q1272.9344,650.0625 1272.6688,649.6563 Q1272.5438,649.4688 1272.5438,648.7969 L1271.0594,648.7969 Z "/><text fill="#000000" font-family="sans-serif" font-size="12" lengthAdjust="spacingAndGlyphs" textLength="66" x="1291.8" y="652.9102">OrderStatus</text><line style="stroke: #000000; stroke-width: 1.5;" x1="1233" x2="1385" y1="664" y2="664"/><text fill="#000000" font-family="sans-serif" font-size="11" lengthAdjust="spacingAndGlyphs" textLength="60" x="1238" y="679.4189">CANCELLED</text><text fill="#000000" font-family="sans-serif" font-size="11" lengthAdjust="spacingAndGlyphs" textLength="60" x="1238" y="693.2549">COMPLETED</text><text fill="#000000" font-family="sans-serif" font-size="11" lengthAdjust="spacingAndGlyphs" textLength="27" x="1238" y="707.0908">OPEN</text><text fill="#000000" font-family="sans-serif" font-size="11" lengthAdjust="spacingAndGlyphs" textLength="23" x="1238" y="720.9268">PAID</text><line style="stroke: #000000; stroke-width: 1.5;" x1="1233" x2="1385" y1="727.3438" y2="727.3438"/><text fill="#000000" font-family="sans-serif" font-size="11" lengthAdjust="spacingAndGlyphs" text-decoration="underline" textLength="142" x="1238" y="742.7627">valueOf(String) : OrderStatus</text><line style="stroke: #000000; stroke-width: 1.0;" x1="1238" x2="1380" y1="744.7627" y2="744.7627"/><text fill="#000000" font-family="sans-serif" font-size="11" lengthAdjust="spacingAndGlyphs" text-decoration="underline" textLength="114" x="1238" y="756.5986">values() : OrderStatus[]</text><line style="stroke: #000000; stroke-width: 1.0;" x1="1238" x2="1352" y1="758.5986" y2="758.5986"/><!--class org.salespointframework.support.ConsoleWritingMailSender--><rect fill="url(#gcsb8a25142640)" filter="url(#fcsb8a2514264)" height="48" id="org.salespointframework.support.ConsoleWritingMailSender" style="stroke: #000000; stroke-width: 1.5;" width="179" x="1628.5" y="308.5"/><ellipse cx="1643.5" cy="324.5" fill="#ADD1B2" rx="11" ry="11" style="stroke: #000000; stroke-width: 1.0;"/><path d="M1646.2656,320.375 Q1646.4219,320.1563 1646.6094,320.0469 Q1646.7969,319.9375 1647.0156,319.9375 Q1647.3906,319.9375 1647.625,320.1953 Q1647.8594,320.4531 1647.8594,321.0625 L1647.8594,322.5156 Q1647.8594,323.125 1647.625,323.3906 Q1647.3906,323.6563 1647.0156,323.6563 Q1646.6719,323.6563 1646.4688,323.4531 Q1646.2656,323.2656 1646.1563,322.75 Q1646.1094,322.3906 1645.9219,322.2031 Q1645.5938,321.8281 1644.9844,321.6094 Q1644.375,321.3906 1643.75,321.3906 Q1642.9844,321.3906 1642.3516,321.7188 Q1641.7188,322.0469 1641.2266,322.7969 Q1640.7344,323.5469 1640.7344,324.5781 L1640.7344,325.6719 Q1640.7344,326.9063 1641.625,327.7266 Q1642.5156,328.5469 1644.1094,328.5469 Q1645.0469,328.5469 1645.7031,328.2969 Q1646.0938,328.1406 1646.5156,327.7031 Q1646.7813,327.4375 1646.9297,327.3594 Q1647.0781,327.2813 1647.2813,327.2813 Q1647.6094,327.2813 1647.8672,327.5391 Q1648.125,327.7969 1648.125,328.1406 Q1648.125,328.4844 1647.7813,328.8906 Q1647.2813,329.4688 1646.4844,329.7969 Q1645.4063,330.25 1644.1094,330.25 Q1642.5938,330.25 1641.3906,329.625 Q1640.4063,329.125 1639.7188,328.0547 Q1639.0313,326.9844 1639.0313,325.7031 L1639.0313,324.5469 Q1639.0313,323.2188 1639.6484,322.0703 Q1640.2656,320.9219 1641.3594,320.3047 Q1642.4531,319.6875 1643.6875,319.6875 Q1644.4219,319.6875 1645.0703,319.8516 Q1645.7188,320.0156 1646.2656,320.375 Z "/><text fill="#000000" font-family="sans-serif" font-size="12" lengthAdjust="spacingAndGlyphs" textLength="147" x="1657.5" y="329.4102">ConsoleWritingMailSender</text><line style="stroke: #000000; stroke-width: 1.5;" x1="1629.5" x2="1806.5" y1="340.5" y2="340.5"/><line style="stroke: #000000; stroke-width: 1.5;" x1="1629.5" x2="1806.5" y1="348.5" y2="348.5"/><!--class org.salespointframework.support.RecordingMailSender--><rect fill="url(#gcsb8a25142640)" filter="url(#fcsb8a2514264)" height="48" id="org.salespointframework.support.RecordingMailSender" style="stroke: #000000; stroke-width: 1.5;" width="151" x="1442.5" y="308.5"/><ellipse cx="1457.5" cy="324.5" fill="#ADD1B2" rx="11" ry="11" style="stroke: #000000; stroke-width: 1.0;"/><path d="M1460.2656,320.375 Q1460.4219,320.1563 1460.6094,320.0469 Q1460.7969,319.9375 1461.0156,319.9375 Q1461.3906,319.9375 1461.625,320.1953 Q1461.8594,320.4531 1461.8594,321.0625 L1461.8594,322.5156 Q1461.8594,323.125 1461.625,323.3906 Q1461.3906,323.6563 1461.0156,323.6563 Q1460.6719,323.6563 1460.4688,323.4531 Q1460.2656,323.2656 1460.1563,322.75 Q1460.1094,322.3906 1459.9219,322.2031 Q1459.5938,321.8281 1458.9844,321.6094 Q1458.375,321.3906 1457.75,321.3906 Q1456.9844,321.3906 1456.3516,321.7188 Q1455.7188,322.0469 1455.2266,322.7969 Q1454.7344,323.5469 1454.7344,324.5781 L1454.7344,325.6719 Q1454.7344,326.9063 1455.625,327.7266 Q1456.5156,328.5469 1458.1094,328.5469 Q1459.0469,328.5469 1459.7031,328.2969 Q1460.0938,328.1406 1460.5156,327.7031 Q1460.7813,327.4375 1460.9297,327.3594 Q1461.0781,327.2813 1461.2813,327.2813 Q1461.6094,327.2813 1461.8672,327.5391 Q1462.125,327.7969 1462.125,328.1406 Q1462.125,328.4844 1461.7813,328.8906 Q1461.2813,329.4688 1460.4844,329.7969 Q1459.4063,330.25 1458.1094,330.25 Q1456.5938,330.25 1455.3906,329.625 Q1454.4063,329.125 1453.7188,328.0547 Q1453.0313,326.9844 1453.0313,325.7031 L1453.0313,324.5469 Q1453.0313,323.2188 1453.6484,322.0703 Q1454.2656,320.9219 1455.3594,320.3047 Q1456.4531,319.6875 1457.6875,319.6875 Q1458.4219,319.6875 1459.0703,319.8516 Q1459.7188,320.0156 1460.2656,320.375 Z "/><text fill="#000000" font-family="sans-serif" font-size="12" lengthAdjust="spacingAndGlyphs" textLength="119" x="1471.5" y="329.4102">RecordingMailSender</text><line style="stroke: #000000; stroke-width: 1.5;" x1="1443.5" x2="1592.5" y1="340.5" y2="340.5"/><line style="stroke: #000000; stroke-width: 1.5;" x1="1443.5" x2="1592.5" y1="348.5" y2="348.5"/><!--class bioladen.order.Order--><rect fill="url(#gcsb8a25142640)" filter="url(#fcsb8a2514264)" height="83.8594" id="bioladen.order.Order" style="stroke: #000000; stroke-width: 1.5;" width="173" x="2082.5" y="834"/><ellipse cx="2144.75" cy="854.0938" fill="#ADD1B2" rx="11" ry="11" style="stroke: #000000; stroke-width: 1.0;"/><path d="M2147.5156,849.9688 Q2147.6719,849.75 2147.8594,849.6406 Q2148.0469,849.5313 2148.2656,849.5313 Q2148.6406,849.5313 2148.875,849.7891 Q2149.1094,850.0469 2149.1094,850.6563 L2149.1094,852.1094 Q2149.1094,852.7188 2148.875,852.9844 Q2148.6406,853.25 2148.2656,853.25 Q2147.9219,853.25 2147.7188,853.0469 Q2147.5156,852.8594 2147.4063,852.3438 Q2147.3594,851.9844 2147.1719,851.7969 Q2146.8438,851.4219 2146.2344,851.2031 Q2145.625,850.9844 2145,850.9844 Q2144.2344,850.9844 2143.6016,851.3125 Q2142.9688,851.6406 2142.4766,852.3906 Q2141.9844,853.1406 2141.9844,854.1719 L2141.9844,855.2656 Q2141.9844,856.5 2142.875,857.3203 Q2143.7656,858.1406 2145.3594,858.1406 Q2146.2969,858.1406 2146.9531,857.8906 Q2147.3438,857.7344 2147.7656,857.2969 Q2148.0313,857.0313 2148.1797,856.9531 Q2148.3281,856.875 2148.5313,856.875 Q2148.8594,856.875 2149.1172,857.1328 Q2149.375,857.3906 2149.375,857.7344 Q2149.375,858.0781 2149.0313,858.4844 Q2148.5313,859.0625 2147.7344,859.3906 Q2146.6563,859.8438 2145.3594,859.8438 Q2143.8438,859.8438 2142.6406,859.2188 Q2141.6563,858.7188 2140.9688,857.6484 Q2140.2813,856.5781 2140.2813,855.2969 L2140.2813,854.1406 Q2140.2813,852.8125 2140.8984,851.6641 Q2141.5156,850.5156 2142.6094,849.8984 Q2143.7031,849.2813 2144.9375,849.2813 Q2145.6719,849.2813 2146.3203,849.4453 Q2146.9688,849.6094 2147.5156,849.9688 Z "/><text fill="#000000" font-family="sans-serif" font-size="12" font-style="italic" lengthAdjust="spacingAndGlyphs" textLength="44" x="2163.25" y="851.457">«Entity»</text><text fill="#000000" font-family="sans-serif" font-size="12" lengthAdjust="spacingAndGlyphs" textLength="31" x="2169.75" y="866.5508">Order</text><line style="stroke: #000000; stroke-width: 1.5;" x1="2083.5" x2="2254.5" y1="874.1875" y2="874.1875"/><text fill="#000000" font-family="sans-serif" font-size="11" lengthAdjust="spacingAndGlyphs" textLength="110" x="2088.5" y="889.6064">-distributor : Distributor</text><line style="stroke: #000000; stroke-width: 1.5;" x1="2083.5" x2="2254.5" y1="896.0234" y2="896.0234"/><text fill="#000000" font-family="sans-serif" font-size="11" lengthAdjust="spacingAndGlyphs" textLength="161" x="2088.5" y="911.4424">+Order(UserAccount, Distributor)</text><!--class bioladen.order.OrderAssistant--><rect fill="url(#gcsb8a25142640)" filter="url(#fcsb8a2514264)" height="83.8594" id="bioladen.order.OrderAssistant" style="stroke: #000000; stroke-width: 1.5;" width="294" x="2193" y="655.5"/><ellipse cx="2294.75" cy="675.5938" fill="#ADD1B2" rx="11" ry="11" style="stroke: #000000; stroke-width: 1.0;"/><path d="M2297.5156,671.4688 Q2297.6719,671.25 2297.8594,671.1406 Q2298.0469,671.0313 2298.2656,671.0313 Q2298.6406,671.0313 2298.875,671.2891 Q2299.1094,671.5469 2299.1094,672.1563 L2299.1094,673.6094 Q2299.1094,674.2188 2298.875,674.4844 Q2298.6406,674.75 2298.2656,674.75 Q2297.9219,674.75 2297.7188,674.5469 Q2297.5156,674.3594 2297.4063,673.8438 Q2297.3594,673.4844 2297.1719,673.2969 Q2296.8438,672.9219 2296.2344,672.7031 Q2295.625,672.4844 2295,672.4844 Q2294.2344,672.4844 2293.6016,672.8125 Q2292.9688,673.1406 2292.4766,673.8906 Q2291.9844,674.6406 2291.9844,675.6719 L2291.9844,676.7656 Q2291.9844,678 2292.875,678.8203 Q2293.7656,679.6406 2295.3594,679.6406 Q2296.2969,679.6406 2296.9531,679.3906 Q2297.3438,679.2344 2297.7656,678.7969 Q2298.0313,678.5313 2298.1797,678.4531 Q2298.3281,678.375 2298.5313,678.375 Q2298.8594,678.375 2299.1172,678.6328 Q2299.375,678.8906 2299.375,679.2344 Q2299.375,679.5781 2299.0313,679.9844 Q2298.5313,680.5625 2297.7344,680.8906 Q2296.6563,681.3438 2295.3594,681.3438 Q2293.8438,681.3438 2292.6406,680.7188 Q2291.6563,680.2188 2290.9688,679.1484 Q2290.2813,678.0781 2290.2813,676.7969 L2290.2813,675.6406 Q2290.2813,674.3125 2290.8984,673.1641 Q2291.5156,672.0156 2292.6094,671.3984 Q2293.7031,670.7813 2294.9375,670.7813 Q2295.6719,670.7813 2296.3203,670.9453 Q2296.9688,671.1094 2297.5156,671.4688 Z "/><text fill="#000000" font-family="sans-serif" font-size="12" font-style="italic" lengthAdjust="spacingAndGlyphs" textLength="55" x="2328.75" y="672.957">«Service»</text><text fill="#000000" font-family="sans-serif" font-size="12" lengthAdjust="spacingAndGlyphs" textLength="82" x="2315.25" y="688.0508">OrderAssistant</text><line style="stroke: #000000; stroke-width: 1.5;" x1="2194" x2="2486" y1="695.6875" y2="695.6875"/><text fill="#000000" font-family="sans-serif" font-size="11" lengthAdjust="spacingAndGlyphs" textLength="282" x="2199" y="711.1064">-productsToBeOrdered : Map&lt;DistributorProduct, Amount&gt;</text><line style="stroke: #000000; stroke-width: 1.5;" x1="2194" x2="2486" y1="717.5234" y2="717.5234"/><text fill="#000000" font-family="sans-serif" font-size="11" lengthAdjust="spacingAndGlyphs" textLength="159" x="2199" y="732.9424">+getAvailable(Product, Amount) :</text><!--class bioladen.order.AvailabilityFlag--><rect fill="url(#gcsb8a25142640)" filter="url(#fcsb8a2514264)" height="75.6719" id="bioladen.order.AvailabilityFlag" style="stroke: #000000; stroke-width: 1.5;" width="246" x="1912" y="659.5"/><ellipse cx="1990.75" cy="675.5" fill="#EB937F" rx="11" ry="11" style="stroke: #000000; stroke-width: 1.0;"/><path d="M1989.6094,676.2969 L1989.6094,678.7969 L1993.9375,678.7969 L1993.9375,677.875 Q1993.9375,677.2656 1994.1797,677 Q1994.4219,676.7344 1994.7969,676.7344 Q1995.1719,676.7344 1995.4063,677 Q1995.6406,677.2656 1995.6406,677.875 L1995.6406,680.5 L1987.6406,680.5 Q1987.0156,680.5 1986.7578,680.2656 Q1986.5,680.0313 1986.5,679.6406 Q1986.5,679.2656 1986.7656,679.0313 Q1987.0313,678.7969 1987.6406,678.7969 L1987.9063,678.7969 L1987.9063,672.1406 L1987.6406,672.1406 Q1987.0156,672.1406 1986.7578,671.9063 Q1986.5,671.6719 1986.5,671.2813 Q1986.5,670.9063 1986.7578,670.6719 Q1987.0156,670.4375 1987.6406,670.4375 L1995.2656,670.4375 L1995.2656,673.0313 Q1995.2656,673.6406 1995.0391,673.8984 Q1994.8125,674.1563 1994.4219,674.1563 Q1994.0469,674.1563 1993.8125,673.8984 Q1993.5781,673.6406 1993.5781,673.0313 L1993.5781,672.1406 L1989.6094,672.1406 L1989.6094,674.5938 L1991.0938,674.5938 Q1991.0938,673.9375 1991.2188,673.75 Q1991.4844,673.3438 1991.9531,673.3438 Q1992.3281,673.3438 1992.5625,673.6016 Q1992.7969,673.8594 1992.7969,674.4688 L1992.7969,676.4375 Q1992.7969,676.9844 1992.6719,677.1719 Q1992.4063,677.5625 1991.9531,677.5625 Q1991.4844,677.5625 1991.2188,677.1563 Q1991.0938,676.9688 1991.0938,676.2969 L1989.6094,676.2969 Z "/><text fill="#000000" font-family="sans-serif" font-size="12" lengthAdjust="spacingAndGlyphs" textLength="80" x="2011.25" y="680.4102">AvailabilityFlag</text><line style="stroke: #000000; stroke-width: 1.5;" x1="1913" x2="2157" y1="691.5" y2="691.5"/><text fill="#000000" font-family="sans-serif" font-size="11" lengthAdjust="spacingAndGlyphs" textLength="168" x="1918" y="706.9189">OVER_MINIMUM_ORDER_AMOUNT</text><line style="stroke: #000000; stroke-width: 1.5;" x1="1913" x2="2157" y1="713.3359" y2="713.3359"/><text fill="#000000" font-family="sans-serif" font-size="11" lengthAdjust="spacingAndGlyphs" textLength="234" x="1918" y="728.7549">UNDER_MINIMUM_ORDER_AMOUNT(CHEAPEST)</text><!--class bioladen.product.ProductCatalog--><rect fill="url(#gcsb8a25142640)" filter="url(#fcsb8a2514264)" height="56.1875" id="bioladen.product.ProductCatalog" style="stroke: #000000; stroke-width: 1.5;" width="117" x="2543.5" y="669.5"/><ellipse cx="2558.5" cy="689.5938" fill="#B4A7E5" rx="11" ry="11" style="stroke: #000000; stroke-width: 1.0;"/><path d="M2559.4531,686.2344 L2559.4531,692.8906 L2561.1719,692.8906 Q2561.7813,692.8906 2562.0469,693.125 Q2562.3125,693.3594 2562.3125,693.75 Q2562.3125,694.125 2562.0469,694.3594 Q2561.7813,694.5938 2561.1719,694.5938 L2556.0313,694.5938 Q2555.4219,694.5938 2555.1563,694.3594 Q2554.8906,694.125 2554.8906,693.7344 Q2554.8906,693.3594 2555.1563,693.125 Q2555.4219,692.8906 2556.0313,692.8906 L2557.75,692.8906 L2557.75,686.2344 L2556.0313,686.2344 Q2555.4219,686.2344 2555.1563,686 Q2554.8906,685.7656 2554.8906,685.375 Q2554.8906,685 2555.1563,684.7656 Q2555.4219,684.5313 2556.0313,684.5313 L2561.1719,684.5313 Q2561.7813,684.5313 2562.0469,684.7656 Q2562.3125,685 2562.3125,685.375 Q2562.3125,685.7656 2562.0469,686 Q2561.7813,686.2344 2561.1719,686.2344 L2559.4531,686.2344 Z "/><text fill="#000000" font-family="sans-serif" font-size="12" font-style="italic" lengthAdjust="spacingAndGlyphs" textLength="73" x="2578.5" y="686.957">«Repository»</text><text fill="#000000" font-family="sans-serif" font-size="12" font-style="italic" lengthAdjust="spacingAndGlyphs" textLength="85" x="2572.5" y="702.0508">ProductCatalog</text><line style="stroke: #000000; stroke-width: 1.5;" x1="2544.5" x2="2659.5" y1="709.6875" y2="709.6875"/><line style="stroke: #000000; stroke-width: 1.5;" x1="2544.5" x2="2659.5" y1="717.6875" y2="717.6875"/><!--class bioladen.product.DistributorProductCatalog--><rect fill="url(#gcsb8a25142640)" filter="url(#fcsb8a2514264)" height="56.1875" id="bioladen.product.DistributorProductCatalog" style="stroke: #000000; stroke-width: 1.5;" width="174" x="2598" y="848"/><ellipse cx="2613" cy="868.0938" fill="#B4A7E5" rx="11" ry="11" style="stroke: #000000; stroke-width: 1.0;"/><path d="M2613.9531,864.7344 L2613.9531,871.3906 L2615.6719,871.3906 Q2616.2813,871.3906 2616.5469,871.625 Q2616.8125,871.8594 2616.8125,872.25 Q2616.8125,872.625 2616.5469,872.8594 Q2616.2813,873.0938 2615.6719,873.0938 L2610.5313,873.0938 Q2609.9219,873.0938 2609.6563,872.8594 Q2609.3906,872.625 2609.3906,872.2344 Q2609.3906,871.8594 2609.6563,871.625 Q2609.9219,871.3906 2610.5313,871.3906 L2612.25,871.3906 L2612.25,864.7344 L2610.5313,864.7344 Q2609.9219,864.7344 2609.6563,864.5 Q2609.3906,864.2656 2609.3906,863.875 Q2609.3906,863.5 2609.6563,863.2656 Q2609.9219,863.0313 2610.5313,863.0313 L2615.6719,863.0313 Q2616.2813,863.0313 2616.5469,863.2656 Q2616.8125,863.5 2616.8125,863.875 Q2616.8125,864.2656 2616.5469,864.5 Q2616.2813,864.7344 2615.6719,864.7344 L2613.9531,864.7344 Z "/><text fill="#000000" font-family="sans-serif" font-size="12" font-style="italic" lengthAdjust="spacingAndGlyphs" textLength="73" x="2661.5" y="865.457">«Repository»</text><text fill="#000000" font-family="sans-serif" font-size="12" font-style="italic" lengthAdjust="spacingAndGlyphs" textLength="142" x="2627" y="880.5508">DistributorProductCatalog</text><line style="stroke: #000000; stroke-width: 1.5;" x1="2599" x2="2771" y1="888.1875" y2="888.1875"/><line style="stroke: #000000; stroke-width: 1.5;" x1="2599" x2="2771" y1="896.1875" y2="896.1875"/><!--class bioladen.product.DistributorProduct--><rect fill="url(#gcsb8a25142640)" filter="url(#fcsb8a2514264)" height="56.1875" id="bioladen.product.DistributorProduct" style="stroke: #000000; stroke-width: 1.5;" width="131" x="2695.5" y="669.5"/><ellipse cx="2710.5" cy="689.5938" fill="#ADD1B2" rx="11" ry="11" style="stroke: #000000; stroke-width: 1.0;"/><path d="M2713.2656,685.4688 Q2713.4219,685.25 2713.6094,685.1406 Q2713.7969,685.0313 2714.0156,685.0313 Q2714.3906,685.0313 2714.625,685.2891 Q2714.8594,685.5469 2714.8594,686.1563 L2714.8594,687.6094 Q2714.8594,688.2188 2714.625,688.4844 Q2714.3906,688.75 2714.0156,688.75 Q2713.6719,688.75 2713.4688,688.5469 Q2713.2656,688.3594 2713.1563,687.8438 Q2713.1094,687.4844 2712.9219,687.2969 Q2712.5938,686.9219 2711.9844,686.7031 Q2711.375,686.4844 2710.75,686.4844 Q2709.9844,686.4844 2709.3516,686.8125 Q2708.7188,687.1406 2708.2266,687.8906 Q2707.7344,688.6406 2707.7344,689.6719 L2707.7344,690.7656 Q2707.7344,692 2708.625,692.8203 Q2709.5156,693.6406 2711.1094,693.6406 Q2712.0469,693.6406 2712.7031,693.3906 Q2713.0938,693.2344 2713.5156,692.7969 Q2713.7813,692.5313 2713.9297,692.4531 Q2714.0781,692.375 2714.2813,692.375 Q2714.6094,692.375 2714.8672,692.6328 Q2715.125,692.8906 2715.125,693.2344 Q2715.125,693.5781 2714.7813,693.9844 Q2714.2813,694.5625 2713.4844,694.8906 Q2712.4063,695.3438 2711.1094,695.3438 Q2709.5938,695.3438 2708.3906,694.7188 Q2707.4063,694.2188 2706.7188,693.1484 Q2706.0313,692.0781 2706.0313,690.7969 L2706.0313,689.6406 Q2706.0313,688.3125 2706.6484,687.1641 Q2707.2656,686.0156 2708.3594,685.3984 Q2709.4531,684.7813 2710.6875,684.7813 Q2711.4219,684.7813 2712.0703,684.9453 Q2712.7188,685.1094 2713.2656,685.4688 Z "/><text fill="#000000" font-family="sans-serif" font-size="12" font-style="italic" lengthAdjust="spacingAndGlyphs" textLength="44" x="2752" y="686.957">«Entity»</text><text fill="#000000" font-family="sans-serif" font-size="12" lengthAdjust="spacingAndGlyphs" textLength="99" x="2724.5" y="702.0508">DistributorProduct</text><line style="stroke: #000000; stroke-width: 1.5;" x1="2696.5" x2="2825.5" y1="709.6875" y2="709.6875"/><line style="stroke: #000000; stroke-width: 1.5;" x1="2696.5" x2="2825.5" y1="717.6875" y2="717.6875"/><!--class bioladen.product.Product--><rect fill="url(#gcsb8a25142640)" filter="url(#fcsb8a2514264)" height="56.1875" id="bioladen.product.Product" style="stroke: #000000; stroke-width: 1.5;" width="74" x="2710" y="304.5"/><ellipse cx="2725" cy="324.5938" fill="#ADD1B2" rx="11" ry="11" style="stroke: #000000; stroke-width: 1.0;"/><path d="M2727.7656,320.4688 Q2727.9219,320.25 2728.1094,320.1406 Q2728.2969,320.0313 2728.5156,320.0313 Q2728.8906,320.0313 2729.125,320.2891 Q2729.3594,320.5469 2729.3594,321.1563 L2729.3594,322.6094 Q2729.3594,323.2188 2729.125,323.4844 Q2728.8906,323.75 2728.5156,323.75 Q2728.1719,323.75 2727.9688,323.5469 Q2727.7656,323.3594 2727.6563,322.8438 Q2727.6094,322.4844 2727.4219,322.2969 Q2727.0938,321.9219 2726.4844,321.7031 Q2725.875,321.4844 2725.25,321.4844 Q2724.4844,321.4844 2723.8516,321.8125 Q2723.2188,322.1406 2722.7266,322.8906 Q2722.2344,323.6406 2722.2344,324.6719 L2722.2344,325.7656 Q2722.2344,327 2723.125,327.8203 Q2724.0156,328.6406 2725.6094,328.6406 Q2726.5469,328.6406 2727.2031,328.3906 Q2727.5938,328.2344 2728.0156,327.7969 Q2728.2813,327.5313 2728.4297,327.4531 Q2728.5781,327.375 2728.7813,327.375 Q2729.1094,327.375 2729.3672,327.6328 Q2729.625,327.8906 2729.625,328.2344 Q2729.625,328.5781 2729.2813,328.9844 Q2728.7813,329.5625 2727.9844,329.8906 Q2726.9063,330.3438 2725.6094,330.3438 Q2724.0938,330.3438 2722.8906,329.7188 Q2721.9063,329.2188 2721.2188,328.1484 Q2720.5313,327.0781 2720.5313,325.7969 L2720.5313,324.6406 Q2720.5313,323.3125 2721.1484,322.1641 Q2721.7656,321.0156 2722.8594,320.3984 Q2723.9531,319.7813 2725.1875,319.7813 Q2725.9219,319.7813 2726.5703,319.9453 Q2727.2188,320.1094 2727.7656,320.4688 Z "/><text fill="#000000" font-family="sans-serif" font-size="12" font-style="italic" lengthAdjust="spacingAndGlyphs" textLength="44" x="2738" y="321.957">«Entity»</text><text fill="#000000" font-family="sans-serif" font-size="12" lengthAdjust="spacingAndGlyphs" textLength="42" x="2739" y="337.0508">Product</text><line style="stroke: #000000; stroke-width: 1.5;" x1="2711" x2="2783" y1="344.6875" y2="344.6875"/><line style="stroke: #000000; stroke-width: 1.5;" x1="2711" x2="2783" y1="352.6875" y2="352.6875"/><!--class bioladen.product.Distributor--><rect fill="url(#gcsb8a25142640)" filter="url(#fcsb8a2514264)" height="56.1875" id="bioladen.product.Distributor" style="stroke: #000000; stroke-width: 1.5;" width="89" x="2571.5" y="304.5"/><ellipse cx="2586.5" cy="324.5938" fill="#ADD1B2" rx="11" ry="11" style="stroke: #000000; stroke-width: 1.0;"/><path d="M2589.2656,320.4688 Q2589.4219,320.25 2589.6094,320.1406 Q2589.7969,320.0313 2590.0156,320.0313 Q2590.3906,320.0313 2590.625,320.2891 Q2590.8594,320.5469 2590.8594,321.1563 L2590.8594,322.6094 Q2590.8594,323.2188 2590.625,323.4844 Q2590.3906,323.75 2590.0156,323.75 Q2589.6719,323.75 2589.4688,323.5469 Q2589.2656,323.3594 2589.1563,322.8438 Q2589.1094,322.4844 2588.9219,322.2969 Q2588.5938,321.9219 2587.9844,321.7031 Q2587.375,321.4844 2586.75,321.4844 Q2585.9844,321.4844 2585.3516,321.8125 Q2584.7188,322.1406 2584.2266,322.8906 Q2583.7344,323.6406 2583.7344,324.6719 L2583.7344,325.7656 Q2583.7344,327 2584.625,327.8203 Q2585.5156,328.6406 2587.1094,328.6406 Q2588.0469,328.6406 2588.7031,328.3906 Q2589.0938,328.2344 2589.5156,327.7969 Q2589.7813,327.5313 2589.9297,327.4531 Q2590.0781,327.375 2590.2813,327.375 Q2590.6094,327.375 2590.8672,327.6328 Q2591.125,327.8906 2591.125,328.2344 Q2591.125,328.5781 2590.7813,328.9844 Q2590.2813,329.5625 2589.4844,329.8906 Q2588.4063,330.3438 2587.1094,330.3438 Q2585.5938,330.3438 2584.3906,329.7188 Q2583.4063,329.2188 2582.7188,328.1484 Q2582.0313,327.0781 2582.0313,325.7969 L2582.0313,324.6406 Q2582.0313,323.3125 2582.6484,322.1641 Q2583.2656,321.0156 2584.3594,320.3984 Q2585.4531,319.7813 2586.6875,319.7813 Q2587.4219,319.7813 2588.0703,319.9453 Q2588.7188,320.1094 2589.2656,320.4688 Z "/><text fill="#000000" font-family="sans-serif" font-size="12" font-style="italic" lengthAdjust="spacingAndGlyphs" textLength="44" x="2607" y="321.957">«Entity»</text><text fill="#000000" font-family="sans-serif" font-size="12" lengthAdjust="spacingAndGlyphs" textLength="57" x="2600.5" y="337.0508">Distributor</text><line style="stroke: #000000; stroke-width: 1.5;" x1="2572.5" x2="2659.5" y1="344.6875" y2="344.6875"/><line style="stroke: #000000; stroke-width: 1.5;" x1="2572.5" x2="2659.5" y1="352.6875" y2="352.6875"/><!--class Amount.Amount--><rect fill="url(#gcsb8a25142640)" filter="url(#fcsb8a2514264)" height="61.8359" id="Amount.Amount" style="stroke: #000000; stroke-width: 1.5;" width="102" x="2289" y="301.5"/><ellipse cx="2316.6" cy="317.5" fill="#ADD1B2" rx="11" ry="11" style="stroke: #000000; stroke-width: 1.0;"/><path d="M2319.3656,313.375 Q2319.5219,313.1563 2319.7094,313.0469 Q2319.8969,312.9375 2320.1156,312.9375 Q2320.4906,312.9375 2320.725,313.1953 Q2320.9594,313.4531 2320.9594,314.0625 L2320.9594,315.5156 Q2320.9594,316.125 2320.725,316.3906 Q2320.4906,316.6563 2320.1156,316.6563 Q2319.7719,316.6563 2319.5688,316.4531 Q2319.3656,316.2656 2319.2563,315.75 Q2319.2094,315.3906 2319.0219,315.2031 Q2318.6938,314.8281 2318.0844,314.6094 Q2317.475,314.3906 2316.85,314.3906 Q2316.0844,314.3906 2315.4516,314.7188 Q2314.8188,315.0469 2314.3266,315.7969 Q2313.8344,316.5469 2313.8344,317.5781 L2313.8344,318.6719 Q2313.8344,319.9063 2314.725,320.7266 Q2315.6156,321.5469 2317.2094,321.5469 Q2318.1469,321.5469 2318.8031,321.2969 Q2319.1938,321.1406 2319.6156,320.7031 Q2319.8813,320.4375 2320.0297,320.3594 Q2320.1781,320.2813 2320.3813,320.2813 Q2320.7094,320.2813 2320.9672,320.5391 Q2321.225,320.7969 2321.225,321.1406 Q2321.225,321.4844 2320.8813,321.8906 Q2320.3813,322.4688 2319.5844,322.7969 Q2318.5063,323.25 2317.2094,323.25 Q2315.6938,323.25 2314.4906,322.625 Q2313.5063,322.125 2312.8188,321.0547 Q2312.1313,319.9844 2312.1313,318.7031 L2312.1313,317.5469 Q2312.1313,316.2188 2312.7484,315.0703 Q2313.3656,313.9219 2314.4594,313.3047 Q2315.5531,312.6875 2316.7875,312.6875 Q2317.5219,312.6875 2318.1703,312.8516 Q2318.8188,313.0156 2319.3656,313.375 Z "/><text fill="#000000" font-family="sans-serif" font-size="12" lengthAdjust="spacingAndGlyphs" textLength="42" x="2333.4" y="322.4102">Amount</text><line style="stroke: #000000; stroke-width: 1.5;" x1="2290" x2="2390" y1="333.5" y2="333.5"/><line style="stroke: #000000; stroke-width: 1.5;" x1="2290" x2="2390" y1="341.5" y2="341.5"/><text fill="#000000" font-family="sans-serif" font-size="11" lengthAdjust="spacingAndGlyphs" textLength="90" x="2295" y="356.9189">+of(long) : Amount</text><!--link org.salespointframework.order.Order to org.salespointframework.order.OrderStatus--><path d="M1119,561.371 C1119,610.507 1119,648 1119,648 C1119,648 1226.99,648 1226.99,648 " fill="none" id="org.salespointframework.order.Order-org.salespointframework.order.OrderStatus" style="stroke: #000000; stroke-width: 1.0;"/><polygon fill="#000000" points="1231.99,648,1222.99,644,1226.99,648,1222.99,652,1231.99,648" style="stroke: #000000; stroke-width: 1.0;"/><text fill="#000000" font-family="sans-serif" font-size="13" lengthAdjust="spacingAndGlyphs" textLength="7" x="1113.7883" y="582.6372">1</text><text fill="#000000" font-family="sans-serif" font-size="13" lengthAdjust="spacingAndGlyphs" textLength="7" x="1217.0648" y="639.8515">1</text><!--link org.salespointframework.order.Order to org.salespointframework.order.OrderLine--><path d="M1003,561.21 C1003,606.299 1003,640 1003,640 C1003,640 895.267,640 895.267,640 " fill="none" id="org.salespointframework.order.Order-org.salespointframework.order.OrderLine" style="stroke: #000000; stroke-width: 1.0;"/><polygon fill="#000000" points="890.267,640,899.267,644,895.267,640,899.267,636,890.267,640" style="stroke: #000000; stroke-width: 1.0;"/><text fill="#000000" font-family="sans-serif" font-size="13" lengthAdjust="spacingAndGlyphs" textLength="7" x="993.7898" y="583.2105">1</text><text fill="#000000" font-family="sans-serif" font-size="13" lengthAdjust="spacingAndGlyphs" textLength="20" x="897.9636" y="634.1216">1..*</text><!--link org.salespointframework.order.Order to org.salespointframework.order.ChargeLine--><path d="M1061,561.068 C1061,561.068 1061,650.398 1061,650.398 " fill="none" id="org.salespointframework.order.Order-org.salespointframework.order.ChargeLine" style="stroke: #000000; stroke-width: 1.0;"/><polygon fill="#000000" points="1061,655.398,1065,646.398,1061,650.398,1057,646.398,1061,655.398" style="stroke: #000000; stroke-width: 1.0;"/><text fill="#000000" font-family="sans-serif" font-size="13" lengthAdjust="spacingAndGlyphs" textLength="7" x="1053.8742" y="583.0634">1</text><text fill="#000000" font-family="sans-serif" font-size="13" lengthAdjust="spacingAndGlyphs" textLength="20" x="1039.3438" y="644.6357">1..*</text><!--link org.salespointframework.order.Cart to org.salespointframework.order.CartItem--><path d="M201,449.606 C201,449.606 201,620.822 201,620.822 " fill="none" id="org.salespointframework.order.Cart-org.salespointframework.order.CartItem" style="stroke: #000000; stroke-width: 1.0;"/><polygon fill="#000000" points="201,436.606,197,442.606,201,448.606,205,442.606,201,436.606" style="stroke: #000000; stroke-width: 1.0;"/><text fill="#000000" font-family="sans-serif" font-size="13" lengthAdjust="spacingAndGlyphs" textLength="7" x="193.743" y="458.3328">1</text><text fill="#000000" font-family="sans-serif" font-size="13" lengthAdjust="spacingAndGlyphs" textLength="20" x="180.0469" y="610.2611">0..*</text><!--link org.salespointframework.order.Order to org.salespointframework.order.OrderManager--><path d="M931.723,499 C931.723,499 476,499 476,499 C476,499 476,570.6 476,627.795 " fill="none" id="org.salespointframework.order.Order-org.salespointframework.order.OrderManager" style="stroke: #000000; stroke-width: 1.0;"/><polygon fill="#FFFFFF" points="944.723,499,938.723,495,932.723,499,938.723,503,944.723,499" style="stroke: #000000; stroke-width: 1.0;"/><text fill="#000000" font-family="sans-serif" font-size="13" lengthAdjust="spacingAndGlyphs" textLength="20" x="917.028" y="506.1513">0..*</text><text fill="#000000" font-family="sans-serif" font-size="13" lengthAdjust="spacingAndGlyphs" textLength="7" x="468.6391" y="617.2844">1</text><!--link org.salespointframework.order.Order to bioladen.order.Order--><path d="M1197.12,463 C1197.12,463 2175.5,463 2175.5,463 C2175.5,463 2175.5,728.483 2175.5,833.743 " fill="none" id="org.salespointframework.order.Order-bioladen.order.Order" style="stroke: #000000; stroke-width: 1.0;"/><polygon fill="none" points="1197.12,470,1177.12,463,1197.12,456,1197.12,470" style="stroke: #000000; stroke-width: 1.0;"/><!--link org.salespointframework.support.ConsoleWritingMailSender to bioladen.order.OrderAssistant--><path d="M1812.61,333 C1812.61,333 2241,333 2241,333 C2241,333 2241,559.383 2241,655.331 " fill="none" id="org.salespointframework.support.ConsoleWritingMailSender-bioladen.order.OrderAssistant" style="stroke: #000000; stroke-width: 1.0;"/><polygon fill="#000000" points="1807.61,333,1816.61,337,1812.61,333,1816.61,329,1807.61,333" style="stroke: #000000; stroke-width: 1.0;"/><!--link bioladen.order.OrderAssistant to bioladen.order.Order--><path d="M2224.25,752.802 C2224.25,752.802 2224.25,833.693 2224.25,833.693 " fill="none" id="bioladen.order.OrderAssistant-bioladen.order.Order" style="stroke: #000000; stroke-width: 1.0;"/><polygon fill="#FFFFFF" points="2224.25,739.802,2220.25,745.802,2224.25,751.802,2228.25,745.802,2224.25,739.802" style="stroke: #000000; stroke-width: 1.0;"/><text fill="#000000" font-family="sans-serif" font-size="13" lengthAdjust="spacingAndGlyphs" textLength="7" x="2199.7352" y="760.7214">1</text><text fill="#000000" font-family="sans-serif" font-size="13" lengthAdjust="spacingAndGlyphs" textLength="7" x="2225.4977" y="823.2097">1</text><!--link bioladen.product.Product to bioladen.product.DistributorProduct--><path d="M2747,373.535 C2747,373.535 2747,669.37 2747,669.37 " fill="none" id="bioladen.product.Product-bioladen.product.DistributorProduct" style="stroke: #000000; stroke-width: 1.0;"/><polygon fill="#FFFFFF" points="2747,360.535,2743,366.535,2747,372.535,2751,366.535,2747,360.535" style="stroke: #000000; stroke-width: 1.0;"/><text fill="#000000" font-family="sans-serif" font-size="13" lengthAdjust="spacingAndGlyphs" textLength="20" x="2724.6875" y="382.3822">0..*</text><text fill="#000000" font-family="sans-serif" font-size="13" lengthAdjust="spacingAndGlyphs" textLength="20" x="2721.45" y="658.529">0..*</text><!--link bioladen.product.DistributorProduct to bioladen.product.DistributorProductCatalog--><path d="M2733.75,725.784 C2733.75,725.784 2733.75,834.848 2733.75,834.848 " fill="none" id="bioladen.product.DistributorProduct-bioladen.product.DistributorProductCatalog" style="stroke: #000000; stroke-width: 1.0;"/><polygon fill="#000000" points="2733.75,847.848,2737.75,841.848,2733.75,835.848,2729.75,841.848,2733.75,847.848" style="stroke: #000000; stroke-width: 1.0;"/><text fill="#000000" font-family="sans-serif" font-size="13" lengthAdjust="spacingAndGlyphs" textLength="20" x="2705.6016" y="747.2342">0..*</text><text fill="#000000" font-family="sans-serif" font-size="13" lengthAdjust="spacingAndGlyphs" textLength="7" x="2737.2141" y="837.0019">1</text><!--link bioladen.product.Product to bioladen.product.ProductCatalog--><path d="M2709.67,333 C2693.41,333 2678,333 2678,333 C2678,333 2678,698 2678,698 C2678,698 2673.75,698 2673.75,698 " fill="none" id="bioladen.product.Product-bioladen.product.ProductCatalog" style="stroke: #000000; stroke-width: 1.0;"/><polygon fill="#000000" points="2660.75,698,2666.75,702,2672.75,698,2666.75,694,2660.75,698" style="stroke: #000000; stroke-width: 1.0;"/><text fill="#000000" font-family="sans-serif" font-size="13" lengthAdjust="spacingAndGlyphs" textLength="20" x="2682.1268" y="329.3129">0..*</text><text fill="#000000" font-family="sans-serif" font-size="13" lengthAdjust="spacingAndGlyphs" textLength="7" x="2668.3367" y="694.5911">1</text><!--link bioladen.order.OrderAssistant to bioladen.product.DistributorProductCatalog--><path d="M2500.17,733 C2500.17,733 2629.25,733 2629.25,733 C2629.25,733 2629.25,806.073 2629.25,847.748 " fill="none" id="bioladen.order.OrderAssistant-bioladen.product.DistributorProductCatalog" style="stroke: #000000; stroke-width: 1.0;"/><polygon fill="#000000" points="2487.17,733,2493.17,737,2499.17,733,2493.17,729,2487.17,733" style="stroke: #000000; stroke-width: 1.0;"/><text fill="#000000" font-family="sans-serif" font-size="13" lengthAdjust="spacingAndGlyphs" textLength="7" x="2494.9389" y="731.9258">1</text><text fill="#000000" font-family="sans-serif" font-size="13" lengthAdjust="spacingAndGlyphs" textLength="7" x="2609.2891" y="837.3309">1</text><!--link Amount.Amount to bioladen.order.OrderAssistant--><path d="M2340,368.62 C2340,368.62 2340,655.429 2340,655.429 " fill="none" id="Amount.Amount-bioladen.order.OrderAssistant" style="stroke: #000000; stroke-width: 1.0;"/><polygon fill="#000000" points="2340,363.62,2336,372.62,2340,368.62,2344,372.62,2340,363.62" style="stroke: #000000; stroke-width: 1.0;"/><!--
@startuml

skinparam class {
	BackgroundColor #LightCoral/LightPink
    BorderColor Black
    ArrowColor  Black
}

skinparam package {
    FontColor Grey
    BorderColor DarkMagenta
}

skinparam classAttributeIconSize 0
skinparam linetype ortho

rectangle salespoint-framework-7.0.0.RELEASE.jar {
    namespace org.salespointframework.order {
        interface OrderManager <T extends Order> <<Service>>{
            +cancelOrder(T) : boolean
            +completeOrder(T) : void
            +contains(OrderIdentifier) : boolean
            +findBy(OrderStatus) : Streamable<T>
            +get(OrderIdentifier) : Optional<T>
            +save(T) : T
        }

        class Order <<Entity>>{
            -orderIdentifier : OrderIdentifier
            -paymentMethod : PaymentMethod
            -userAccount : UserAccount
            -dateCreated : LocalDateTime
            -orderStatus : OrderStatus
            -orderLines : Set<OrderLine>
            -chargeLines : Set<ChargeLines>

            +Order(UserAccount)
            +add(ChargeLine) : void
            +remove(ChargeLine) : void
            +getChargeLines() : Streamable<ChargeLine>
            +getChargeLinesPrice() : MonetaryAmount
            +add(OrderLine) : void
            +remove(OrderLine) : void
            +getOrderLines() : Streamable<OrderLine>
            +getOrderedLinesPrice() : MonetaryAmount
            +getDateCreated() : LocalDateTime
            +getId() : OrderIdentifier
            +getOrderStatus() : OrderStatus
            +getTotalPrice() : MonetaryAmount
            +isOpen() : boolean
            +isPaid() : boolean
            +isCompleted() : boolean
            +isCancelled() : boolean
            +complete() : Order
            +cancel() : void
            +getNumberOfLineItems() : int
            +markPaid() : Order
            -assertOrderIsOpen() : void
        }

        class Cart <<Entity>>{
            +addItemTo(Order) : Order
            +addOrUpdateItem(Product, long) : CartItem
            +addOrUpdateItem(Product, Quantity) : CartItem+
            +clear() : void
            +createOrderFor(UserAccount) : Order
            +getItem(String) : Optional<CartItem>
            +getPrice() : MonetaryAmount
            +isEmpty() : boolean
            +iterator() : Iterator<CartItem>
            +removeItem(String) : Optional<CartItem>
            +sumUp(Iterable<? extends Priced> priced)
        }

        class CartItem <<Entity>>{
            +getID() : String
            +getPrice() : MonetaryAmount
            +getProduct() : Product
            +getProductName() : String
            +getQuantity() : Quantity
            +hashCode() : int
            +sumUp(Iterable<? extends Priced>) : MonetaryAmount
        }

        class OrderLine <<Entity>> {
            +getId() : OrderLineIdentifier
            +getPrice() : MonetaryAmount
            +getProductIdentifier() : ProductIdentifier
            +getProductName() : String
            +getQuantity() : Quantity
            +sumUp(Iterable<? extends Priced>) : MonetaryAmount
        }

        class ChargeLine <<Entity>> {
            getId() : ChargeLineIdentifier
            sumUp(Iterable<? extends Priced>) : MonetaryAmount
        }

        enum OrderStatus {
            CANCELLED
            COMPLETED
            OPEN
            PAID

            {static} valueOf(String) : OrderStatus
            {static} values() : OrderStatus[]
        }


        Order "1" - -> "1" OrderStatus
        Order "1" - -> "1..*" OrderLine
        Order "1" - -> "1..*" ChargeLine
        Cart "1" *- - "0..*" CartItem
        Order "0..*" o- - "1" OrderManager
    }

    namespace org.salespointframework.support {
        class ConsoleWritingMailSender {

        }

        class RecordingMailSender {

        }

    }

}



rectangle Bioladen {
    namespace bioladen.order {
        class Order <<Entity>> extends org.salespointframework.order.Order {
            -distributor : Distributor

            +Order(UserAccount, Distributor)
        }

        class OrderAssistant <<Service>> {
            -productsToBeOrdered : Map<DistributorProduct, Amount>

            +getAvailable(Product, Amount) :
        }

        enum AvailabilityFlag {
            UNDER_MINIMUM_ORDER_AMOUNT(CHEAPEST)
            OVER_MINIMUM_ORDER_AMOUNT

        }
        org.salespointframework.support.ConsoleWritingMailSender <- - bioladen.order.OrderAssistant
        OrderAssistant "1" o- - "1" Order
    }

    namespace bioladen.product {

        interface ProductCatalog <<Repository>> {

        }

        interface DistributorProductCatalog <<Repository>> {

        }

        class DistributorProduct <<Entity>> {

        }

        class Product <<Entity>> {

        }

        class Distributor <<Entity>> {

        }



        Product "0..*" o- - "0..*" DistributorProduct
        DistributorProduct "0..*" - -* "1" DistributorProductCatalog
        Product "0..*" - -* "1" ProductCatalog


        bioladen.order.OrderAssistant "1" *- - "1" DistributorProductCatalog


    }
    namespace Amount {
        class Amount {
            +of(long) : Amount

        }
        Amount <- - bioladen.order.OrderAssistant
    }

}

@enduml

PlantUML version 1.2018.12(Sun Oct 21 12:15:15 CEST 2018)
(GPL source distribution)
Java Runtime: Java(TM) SE Runtime Environment
JVM: Java HotSpot(TM) Client VM
Java Version: 1.8.0_181-b13
Operating System: Windows 10
OS Version: 10.0
Default Encoding: Cp1252
Language: de
Country: DE
--></g></svg>