<?xml version="1.0" encoding="UTF-8" standalone="no"?><svg xmlns="http://www.w3.org/2000/svg" xmlns:xlink="http://www.w3.org/1999/xlink" contentScriptType="application/ecmascript" contentStyleType="text/css" height="888px" preserveAspectRatio="none" style="width:1439px;height:888px;" version="1.1" viewBox="0 0 1439 888" width="1439px" zoomAndPan="magnify"><defs><filter height="300%" id="f9l7t46018hi3" width="300%" x="-1" y="-1"><feGaussianBlur result="blurOut" stdDeviation="2.0"/><feColorMatrix in="blurOut" result="blurOut2" type="matrix" values="0 0 0 0 0 0 0 0 0 0 0 0 0 0 0 0 0 0 .4 0"/><feOffset dx="4.0" dy="4.0" in="blurOut2" result="blurOut3"/><feBlend in="SourceGraphic" in2="blurOut3" mode="normal"/></filter><linearGradient id="g9l7t46018hi30" x1="0%" x2="100%" y1="0%" y2="100%"><stop offset="0%" stop-color="#6495ED"/><stop offset="100%" stop-color="#00FFFF"/></linearGradient><linearGradient id="g9l7t46018hi31" x1="0%" x2="100%" y1="0%" y2="100%"><stop offset="0%" stop-color="#C0C0C0"/><stop offset="100%" stop-color="#FFFFFF"/></linearGradient><linearGradient id="g9l7t46018hi32" x1="0%" x2="100%" y1="0%" y2="100%"><stop offset="0%" stop-color="#32CD32"/><stop offset="100%" stop-color="#90EE90"/></linearGradient><linearGradient id="g9l7t46018hi33" x1="0%" x2="100%" y1="0%" y2="100%"><stop offset="0%" stop-color="#F9ED93"/><stop offset="100%" stop-color="#F7F583"/></linearGradient><linearGradient id="g9l7t46018hi34" x1="0%" x2="100%" y1="0%" y2="100%"><stop offset="0%" stop-color="#F5A9BC"/><stop offset="100%" stop-color="#FCC4F0"/></linearGradient></defs><g><!--cluster Bioladen--><rect fill="#FFFFFF" filter="url(#f9l7t46018hi3)" height="700" style="stroke: #A9A9A9; stroke-width: 1.5;" width="551" x="250" y="24"/><text fill="#808080" font-family="sans-serif" font-size="14" font-weight="bold" lengthAdjust="spacingAndGlyphs" textLength="62" x="494.5" y="40.5332">Bioladen</text><!--cluster bioladen.finances--><polygon fill="#FFFFFF" filter="url(#f9l7t46018hi3)" points="343,68,474,68,481,91.6094,655,91.6094,655,569,343,569,343,68" style="stroke: #A9A9A9; stroke-width: 1.5;"/><line style="stroke: #A9A9A9; stroke-width: 1.5;" x1="343" x2="481" y1="91.6094" y2="91.6094"/><text fill="#808080" font-family="sans-serif" font-size="14" font-weight="bold" lengthAdjust="spacingAndGlyphs" textLength="125" x="347" y="84.5332">bioladen.finances</text><!--cluster bioladen.event--><polygon fill="#FFFFFF" filter="url(#f9l7t46018hi3)" points="609,596.5,721,596.5,728,620.1094,777,620.1094,777,696.5,609,696.5,609,596.5" style="stroke: #A9A9A9; stroke-width: 1.5;"/><line style="stroke: #A9A9A9; stroke-width: 1.5;" x1="609" x2="728" y1="620.1094" y2="620.1094"/><text fill="#808080" font-family="sans-serif" font-size="14" font-weight="bold" lengthAdjust="spacingAndGlyphs" textLength="106" x="613" y="613.0332">bioladen.event</text><!--cluster ressources.templates--><polygon fill="#FFFFFF" filter="url(#f9l7t46018hi3)" points="274,593,433,593,440,616.6094,585,616.6094,585,700,274,700,274,593" style="stroke: #A9A9A9; stroke-width: 1.5;"/><line style="stroke: #A9A9A9; stroke-width: 1.5;" x1="274" x2="440" y1="616.6094" y2="616.6094"/><text fill="#808080" font-family="sans-serif" font-size="14" font-weight="bold" lengthAdjust="spacingAndGlyphs" textLength="153" x="278" y="609.5332">ressources.templates</text><!--cluster money-api-1.0.3.jar--><rect fill="#FFFFFF" filter="url(#f9l7t46018hi3)" height="176" style="stroke: #A9A9A9; stroke-width: 1.5;" width="204" x="22" y="327"/><text fill="#808080" font-family="sans-serif" font-size="14" font-weight="bold" lengthAdjust="spacingAndGlyphs" textLength="131" x="58.5" y="343.5332">money-api-1.0.3.jar</text><!--cluster javax.money--><polygon fill="#FFFFFF" filter="url(#f9l7t46018hi3)" points="46,371,139,371,146,394.6094,202,394.6094,202,479,46,479,46,371" style="stroke: #A9A9A9; stroke-width: 1.5;"/><line style="stroke: #A9A9A9; stroke-width: 1.5;" x1="46" x2="146" y1="394.6094" y2="394.6094"/><text fill="#808080" font-family="sans-serif" font-size="14" font-weight="bold" lengthAdjust="spacingAndGlyphs" textLength="87" x="50" y="387.5332">javax.money</text><!--cluster salespoint-framework-7.0.0.RELEASE.jar--><rect fill="#FFFFFF" filter="url(#f9l7t46018hi3)" height="191" style="stroke: #A9A9A9; stroke-width: 1.5;" width="603" x="825" y="65"/><text fill="#808080" font-family="sans-serif" font-size="14" font-weight="bold" lengthAdjust="spacingAndGlyphs" textLength="278" x="987.5" y="81.5332">salespoint-framework-7.0.0.RELEASE.jar</text><!--cluster org.salespointframework.useraccount--><polygon fill="#FFFFFF" filter="url(#f9l7t46018hi3)" points="849,109,1122,109,1129,132.6094,1132,132.6094,1132,232,849,232,849,109" style="stroke: #A9A9A9; stroke-width: 1.5;"/><line style="stroke: #A9A9A9; stroke-width: 1.5;" x1="849" x2="1129" y1="132.6094" y2="132.6094"/><text fill="#808080" font-family="sans-serif" font-size="14" font-weight="bold" lengthAdjust="spacingAndGlyphs" textLength="267" x="853" y="125.5332">org.salespointframework.useraccount</text><!--cluster org.salespointframework.context--><polygon fill="#FFFFFF" filter="url(#f9l7t46018hi3)" points="1156,116.5,1394,116.5,1401,140.1094,1404,140.1094,1404,224.5,1156,224.5,1156,116.5" style="stroke: #A9A9A9; stroke-width: 1.5;"/><line style="stroke: #A9A9A9; stroke-width: 1.5;" x1="1156" x2="1401" y1="140.1094" y2="140.1094"/><text fill="#808080" font-family="sans-serif" font-size="14" font-weight="bold" lengthAdjust="spacingAndGlyphs" textLength="232" x="1160" y="133.0332">org.salespointframework.context</text><!--class bioladen.finances.CashierSystem--><rect fill="url(#g9l7t46018hi30)" filter="url(#f9l7t46018hi3)" height="236.0547" id="bioladen.finances.CashierSystem" style="stroke: #000000; stroke-width: 1.5;" width="279" x="359.5" y="317"/><ellipse cx="452.25" cy="337.0938" fill="#ADD1B2" rx="11" ry="11" style="stroke: #000000; stroke-width: 1.0;"/><path d="M455.0156,332.9688 Q455.1719,332.75 455.3594,332.6406 Q455.5469,332.5313 455.7656,332.5313 Q456.1406,332.5313 456.375,332.7891 Q456.6094,333.0469 456.6094,333.6563 L456.6094,335.1094 Q456.6094,335.7188 456.375,335.9844 Q456.1406,336.25 455.7656,336.25 Q455.4219,336.25 455.2188,336.0469 Q455.0156,335.8594 454.9063,335.3438 Q454.8594,334.9844 454.6719,334.7969 Q454.3438,334.4219 453.7344,334.2031 Q453.125,333.9844 452.5,333.9844 Q451.7344,333.9844 451.1016,334.3125 Q450.4688,334.6406 449.9766,335.3906 Q449.4844,336.1406 449.4844,337.1719 L449.4844,338.2656 Q449.4844,339.5 450.375,340.3203 Q451.2656,341.1406 452.8594,341.1406 Q453.7969,341.1406 454.4531,340.8906 Q454.8438,340.7344 455.2656,340.2969 Q455.5313,340.0313 455.6797,339.9531 Q455.8281,339.875 456.0313,339.875 Q456.3594,339.875 456.6172,340.1328 Q456.875,340.3906 456.875,340.7344 Q456.875,341.0781 456.5313,341.4844 Q456.0313,342.0625 455.2344,342.3906 Q454.1563,342.8438 452.8594,342.8438 Q451.3438,342.8438 450.1406,342.2188 Q449.1563,341.7188 448.4688,340.6484 Q447.7813,339.5781 447.7813,338.2969 L447.7813,337.1406 Q447.7813,335.8125 448.3984,334.6641 Q449.0156,333.5156 450.1094,332.8984 Q451.2031,332.2813 452.4375,332.2813 Q453.1719,332.2813 453.8203,332.4453 Q454.4688,332.6094 455.0156,332.9688 Z "/><text fill="#000000" font-family="sans-serif" font-size="12" font-style="italic" lengthAdjust="spacingAndGlyphs" textLength="68" x="481.25" y="334.457">«Controller»</text><text fill="#000000" font-family="sans-serif" font-size="12" lengthAdjust="spacingAndGlyphs" textLength="85" x="472.75" y="349.5508">CashierSystem</text><line style="stroke: #000000; stroke-width: 1.5;" x1="360.5" x2="637.5" y1="357.1875" y2="357.1875"/><text fill="#000000" font-family="sans-serif" font-size="11" lengthAdjust="spacingAndGlyphs" textLength="99" x="365.5" y="372.6064">-user : UserAccount</text><text fill="#000000" font-family="sans-serif" font-size="11" lengthAdjust="spacingAndGlyphs" textLength="103" x="365.5" y="386.4424">-userDiscount : Enum</text><line style="stroke: #000000; stroke-width: 1.5;" x1="360.5" x2="637.5" y1="392.8594" y2="392.8594"/><text fill="#000000" font-family="sans-serif" font-size="11" lengthAdjust="spacingAndGlyphs" textLength="151" x="365.5" y="408.2783">+CashierSystem(UserAccount)</text><text fill="#000000" font-family="sans-serif" font-size="11" lengthAdjust="spacingAndGlyphs" textLength="116" x="365.5" y="422.1143">+add(Product) : boolean</text><text fill="#000000" font-family="sans-serif" font-size="11" lengthAdjust="spacingAndGlyphs" textLength="134" x="365.5" y="435.9502">+remove(Product) : boolean</text><text fill="#000000" font-family="sans-serif" font-size="11" lengthAdjust="spacingAndGlyphs" textLength="85" x="365.5" y="449.7861">+clear() : boolean</text><text fill="#000000" font-family="sans-serif" font-size="11" lengthAdjust="spacingAndGlyphs" textLength="153" x="365.5" y="463.6221">+getSums() : MonetaryAmount[]</text><text fill="#000000" font-family="sans-serif" font-size="11" lengthAdjust="spacingAndGlyphs" textLength="195" x="365.5" y="477.458">+getDiscountSums() : MonetaryAmount[]</text><text fill="#000000" font-family="sans-serif" font-size="11" lengthAdjust="spacingAndGlyphs" textLength="181" x="365.5" y="491.2939">+getMwStSums() : MonetaryAmount[]</text><text fill="#000000" font-family="sans-serif" font-size="11" lengthAdjust="spacingAndGlyphs" textLength="141" x="365.5" y="505.1299">+getSum() : MonetaryAmount</text><text fill="#000000" font-family="sans-serif" font-size="11" lengthAdjust="spacingAndGlyphs" textLength="267" x="365.5" y="518.9658">+calculateChange(MonetaryAmount) : MonetaryAmount</text><text fill="#000000" font-family="sans-serif" font-size="11" lengthAdjust="spacingAndGlyphs" textLength="108" x="365.5" y="532.8018">+finishSale() : boolean</text><text fill="#000000" font-family="sans-serif" font-size="11" lengthAdjust="spacingAndGlyphs" textLength="228" x="365.5" y="546.6377">+publishSaleCreatedEvent(ShoppingCart) : void</text><!--class bioladen.finances.ShoppingCart--><rect fill="url(#g9l7t46018hi31)" filter="url(#f9l7t46018hi3)" height="153.0391" id="bioladen.finances.ShoppingCart" style="stroke: #000000; stroke-width: 1.5;" width="191" x="403.5" y="104"/><ellipse cx="456.75" cy="124.0938" fill="#ADD1B2" rx="11" ry="11" style="stroke: #000000; stroke-width: 1.0;"/><path d="M459.5156,119.9688 Q459.6719,119.75 459.8594,119.6406 Q460.0469,119.5313 460.2656,119.5313 Q460.6406,119.5313 460.875,119.7891 Q461.1094,120.0469 461.1094,120.6563 L461.1094,122.1094 Q461.1094,122.7188 460.875,122.9844 Q460.6406,123.25 460.2656,123.25 Q459.9219,123.25 459.7188,123.0469 Q459.5156,122.8594 459.4063,122.3438 Q459.3594,121.9844 459.1719,121.7969 Q458.8438,121.4219 458.2344,121.2031 Q457.625,120.9844 457,120.9844 Q456.2344,120.9844 455.6016,121.3125 Q454.9688,121.6406 454.4766,122.3906 Q453.9844,123.1406 453.9844,124.1719 L453.9844,125.2656 Q453.9844,126.5 454.875,127.3203 Q455.7656,128.1406 457.3594,128.1406 Q458.2969,128.1406 458.9531,127.8906 Q459.3438,127.7344 459.7656,127.2969 Q460.0313,127.0313 460.1797,126.9531 Q460.3281,126.875 460.5313,126.875 Q460.8594,126.875 461.1172,127.1328 Q461.375,127.3906 461.375,127.7344 Q461.375,128.0781 461.0313,128.4844 Q460.5313,129.0625 459.7344,129.3906 Q458.6563,129.8438 457.3594,129.8438 Q455.8438,129.8438 454.6406,129.2188 Q453.6563,128.7188 452.9688,127.6484 Q452.2813,126.5781 452.2813,125.2969 L452.2813,124.1406 Q452.2813,122.8125 452.8984,121.6641 Q453.5156,120.5156 454.6094,119.8984 Q455.7031,119.2813 456.9375,119.2813 Q457.6719,119.2813 458.3203,119.4453 Q458.9688,119.6094 459.5156,119.9688 Z "/><text fill="#000000" font-family="sans-serif" font-size="12" font-style="italic" lengthAdjust="spacingAndGlyphs" textLength="44" x="493.25" y="121.457">«Entity»</text><text fill="#000000" font-family="sans-serif" font-size="12" lengthAdjust="spacingAndGlyphs" textLength="76" x="477.25" y="136.5508">ShoppingCart</text><line style="stroke: #000000; stroke-width: 1.5;" x1="404.5" x2="593.5" y1="144.1875" y2="144.1875"/><text fill="#000000" font-family="sans-serif" font-size="11" lengthAdjust="spacingAndGlyphs" textLength="99" x="409.5" y="159.6064">-user : UserAccount</text><text fill="#000000" font-family="sans-serif" font-size="11" lengthAdjust="spacingAndGlyphs" textLength="179" x="409.5" y="173.4424">-productList : Map&lt;Product, Amount&gt;</text><line style="stroke: #000000; stroke-width: 1.5;" x1="404.5" x2="593.5" y1="179.8594" y2="179.8594"/><text fill="#000000" font-family="sans-serif" font-size="11" lengthAdjust="spacingAndGlyphs" textLength="143" x="409.5" y="195.2783">+ShoppingCart(UserAccount)</text><text fill="#000000" font-family="sans-serif" font-size="11" lengthAdjust="spacingAndGlyphs" textLength="116" x="409.5" y="209.1143">+add(Product) : boolean</text><text fill="#000000" font-family="sans-serif" font-size="11" lengthAdjust="spacingAndGlyphs" textLength="134" x="409.5" y="222.9502">+remove(Product) : boolean</text><text fill="#000000" font-family="sans-serif" font-size="11" lengthAdjust="spacingAndGlyphs" textLength="85" x="409.5" y="236.7861">+clear() : boolean</text><text fill="#000000" font-family="sans-serif" font-size="11" lengthAdjust="spacingAndGlyphs" textLength="141" x="409.5" y="250.6221">+getSum() : MonetaryAmount</text><!--class bioladen.event.EntityCreatedEvent--><rect fill="url(#g9l7t46018hi31)" filter="url(#f9l7t46018hi3)" height="48" id="bioladen.event.EntityCreatedEvent" style="stroke: #000000; stroke-width: 1.5;" width="135" x="625.5" y="632.5"/><ellipse cx="640.5" cy="648.5" fill="#ADD1B2" rx="11" ry="11" style="stroke: #000000; stroke-width: 1.0;"/><path d="M643.2656,644.375 Q643.4219,644.1563 643.6094,644.0469 Q643.7969,643.9375 644.0156,643.9375 Q644.3906,643.9375 644.625,644.1953 Q644.8594,644.4531 644.8594,645.0625 L644.8594,646.5156 Q644.8594,647.125 644.625,647.3906 Q644.3906,647.6563 644.0156,647.6563 Q643.6719,647.6563 643.4688,647.4531 Q643.2656,647.2656 643.1563,646.75 Q643.1094,646.3906 642.9219,646.2031 Q642.5938,645.8281 641.9844,645.6094 Q641.375,645.3906 640.75,645.3906 Q639.9844,645.3906 639.3516,645.7188 Q638.7188,646.0469 638.2266,646.7969 Q637.7344,647.5469 637.7344,648.5781 L637.7344,649.6719 Q637.7344,650.9063 638.625,651.7266 Q639.5156,652.5469 641.1094,652.5469 Q642.0469,652.5469 642.7031,652.2969 Q643.0938,652.1406 643.5156,651.7031 Q643.7813,651.4375 643.9297,651.3594 Q644.0781,651.2813 644.2813,651.2813 Q644.6094,651.2813 644.8672,651.5391 Q645.125,651.7969 645.125,652.1406 Q645.125,652.4844 644.7813,652.8906 Q644.2813,653.4688 643.4844,653.7969 Q642.4063,654.25 641.1094,654.25 Q639.5938,654.25 638.3906,653.625 Q637.4063,653.125 636.7188,652.0547 Q636.0313,650.9844 636.0313,649.7031 L636.0313,648.5469 Q636.0313,647.2188 636.6484,646.0703 Q637.2656,644.9219 638.3594,644.3047 Q639.4531,643.6875 640.6875,643.6875 Q641.4219,643.6875 642.0703,643.8516 Q642.7188,644.0156 643.2656,644.375 Z "/><text fill="#000000" font-family="sans-serif" font-size="12" lengthAdjust="spacingAndGlyphs" textLength="103" x="654.5" y="653.4102">EntityCreatedEvent</text><line style="stroke: #000000; stroke-width: 1.5;" x1="626.5" x2="759.5" y1="664.5" y2="664.5"/><line style="stroke: #000000; stroke-width: 1.5;" x1="626.5" x2="759.5" y1="672.5" y2="672.5"/><!--entity cashiersystem.html--><polygon fill="url(#g9l7t46018hi32)" filter="url(#f9l7t46018hi3)" points="429,629,429,684.2188,569,684.2188,569,639,559,629,429,629" style="stroke: #000000; stroke-width: 1.5;"/><path d="M559,629 L559,639 L569,639 " fill="url(#g9l7t46018hi32)" style="stroke: #000000; stroke-width: 1.5;"/><text fill="#000000" font-family="sans-serif" font-size="14" font-style="italic" lengthAdjust="spacingAndGlyphs" textLength="45" x="476.5" y="653.5332">«View»</text><text fill="#000000" font-family="sans-serif" font-size="14" lengthAdjust="spacingAndGlyphs" textLength="120" x="439" y="671.1426">cashiersystem.html</text><!--entity watchlist.html--><polygon fill="url(#g9l7t46018hi32)" filter="url(#f9l7t46018hi3)" points="290.5,629,290.5,684.2188,393.5,684.2188,393.5,639,383.5,629,290.5,629" style="stroke: #000000; stroke-width: 1.5;"/><path d="M383.5,629 L383.5,639 L393.5,639 " fill="url(#g9l7t46018hi32)" style="stroke: #000000; stroke-width: 1.5;"/><text fill="#000000" font-family="sans-serif" font-size="14" font-style="italic" lengthAdjust="spacingAndGlyphs" textLength="45" x="319.5" y="653.5332">«View»</text><text fill="#000000" font-family="sans-serif" font-size="14" lengthAdjust="spacingAndGlyphs" textLength="83" x="300.5" y="671.1426">watchlist.html</text><!--class javax.money.MonetaryAmount--><rect fill="url(#g9l7t46018hi33)" filter="url(#f9l7t46018hi3)" height="56.1875" id="javax.money.MonetaryAmount" style="stroke: #000000; stroke-width: 1.5;" width="123" x="62.5" y="407"/><ellipse cx="77.5" cy="427.0938" fill="#ADD1B2" rx="11" ry="11" style="stroke: #000000; stroke-width: 1.0;"/><path d="M80.2656,422.9688 Q80.4219,422.75 80.6094,422.6406 Q80.7969,422.5313 81.0156,422.5313 Q81.3906,422.5313 81.625,422.7891 Q81.8594,423.0469 81.8594,423.6563 L81.8594,425.1094 Q81.8594,425.7188 81.625,425.9844 Q81.3906,426.25 81.0156,426.25 Q80.6719,426.25 80.4688,426.0469 Q80.2656,425.8594 80.1563,425.3438 Q80.1094,424.9844 79.9219,424.7969 Q79.5938,424.4219 78.9844,424.2031 Q78.375,423.9844 77.75,423.9844 Q76.9844,423.9844 76.3516,424.3125 Q75.7188,424.6406 75.2266,425.3906 Q74.7344,426.1406 74.7344,427.1719 L74.7344,428.2656 Q74.7344,429.5 75.625,430.3203 Q76.5156,431.1406 78.1094,431.1406 Q79.0469,431.1406 79.7031,430.8906 Q80.0938,430.7344 80.5156,430.2969 Q80.7813,430.0313 80.9297,429.9531 Q81.0781,429.875 81.2813,429.875 Q81.6094,429.875 81.8672,430.1328 Q82.125,430.3906 82.125,430.7344 Q82.125,431.0781 81.7813,431.4844 Q81.2813,432.0625 80.4844,432.3906 Q79.4063,432.8438 78.1094,432.8438 Q76.5938,432.8438 75.3906,432.2188 Q74.4063,431.7188 73.7188,430.6484 Q73.0313,429.5781 73.0313,428.2969 L73.0313,427.1406 Q73.0313,425.8125 73.6484,424.6641 Q74.2656,423.5156 75.3594,422.8984 Q76.4531,422.2813 77.6875,422.2813 Q78.4219,422.2813 79.0703,422.4453 Q79.7188,422.6094 80.2656,422.9688 Z "/><text fill="#000000" font-family="sans-serif" font-size="12" font-style="italic" lengthAdjust="spacingAndGlyphs" textLength="40" x="117" y="424.457">«Java»</text><text fill="#000000" font-family="sans-serif" font-size="12" lengthAdjust="spacingAndGlyphs" textLength="91" x="91.5" y="439.5508">MonetaryAmount</text><line style="stroke: #000000; stroke-width: 1.5;" x1="63.5" x2="184.5" y1="447.1875" y2="447.1875"/><line style="stroke: #000000; stroke-width: 1.5;" x1="63.5" x2="184.5" y1="455.1875" y2="455.1875"/><!--class org.salespointframework.useraccount.UserAccount--><rect fill="url(#g9l7t46018hi34)" filter="url(#f9l7t46018hi3)" height="71.2813" id="org.salespointframework.useraccount.UserAccount" style="stroke: #000000; stroke-width: 1.5;" width="102" x="865" y="145"/><ellipse cx="880" cy="172.6406" fill="#ADD1B2" rx="11" ry="11" style="stroke: #000000; stroke-width: 1.0;"/><path d="M882.7656,168.5156 Q882.9219,168.2969 883.1094,168.1875 Q883.2969,168.0781 883.5156,168.0781 Q883.8906,168.0781 884.125,168.3359 Q884.3594,168.5938 884.3594,169.2031 L884.3594,170.6563 Q884.3594,171.2656 884.125,171.5313 Q883.8906,171.7969 883.5156,171.7969 Q883.1719,171.7969 882.9688,171.5938 Q882.7656,171.4063 882.6563,170.8906 Q882.6094,170.5313 882.4219,170.3438 Q882.0938,169.9688 881.4844,169.75 Q880.875,169.5313 880.25,169.5313 Q879.4844,169.5313 878.8516,169.8594 Q878.2188,170.1875 877.7266,170.9375 Q877.2344,171.6875 877.2344,172.7188 L877.2344,173.8125 Q877.2344,175.0469 878.125,175.8672 Q879.0156,176.6875 880.6094,176.6875 Q881.5469,176.6875 882.2031,176.4375 Q882.5938,176.2813 883.0156,175.8438 Q883.2813,175.5781 883.4297,175.5 Q883.5781,175.4219 883.7813,175.4219 Q884.1094,175.4219 884.3672,175.6797 Q884.625,175.9375 884.625,176.2813 Q884.625,176.625 884.2813,177.0313 Q883.7813,177.6094 882.9844,177.9375 Q881.9063,178.3906 880.6094,178.3906 Q879.0938,178.3906 877.8906,177.7656 Q876.9063,177.2656 876.2188,176.1953 Q875.5313,175.125 875.5313,173.8438 L875.5313,172.6875 Q875.5313,171.3594 876.1484,170.2109 Q876.7656,169.0625 877.8594,168.4453 Q878.9531,167.8281 880.1875,167.8281 Q880.9219,167.8281 881.5703,167.9922 Q882.2188,168.1563 882.7656,168.5156 Z "/><text fill="#000000" font-family="sans-serif" font-size="12" font-style="italic" lengthAdjust="spacingAndGlyphs" textLength="44" x="907" y="162.457">«Entity»</text><text fill="#000000" font-family="sans-serif" font-size="12" font-style="italic" lengthAdjust="spacingAndGlyphs" textLength="72" x="893" y="177.5508">«Salespoint»</text><text fill="#000000" font-family="sans-serif" font-size="12" lengthAdjust="spacingAndGlyphs" textLength="70" x="894" y="192.6445">UserAccount</text><line style="stroke: #000000; stroke-width: 1.5;" x1="866" x2="966" y1="200.2813" y2="200.2813"/><line style="stroke: #000000; stroke-width: 1.5;" x1="866" x2="966" y1="208.2813" y2="208.2813"/><!--class org.salespointframework.context.ApplicationEvent--><rect fill="url(#g9l7t46018hi34)" filter="url(#f9l7t46018hi3)" height="56.1875" id="org.salespointframework.context.ApplicationEvent" style="stroke: #000000; stroke-width: 1.5;" width="122" x="1172" y="152.5"/><ellipse cx="1187" cy="172.5938" fill="#ADD1B2" rx="11" ry="11" style="stroke: #000000; stroke-width: 1.0;"/><path d="M1189.7656,168.4688 Q1189.9219,168.25 1190.1094,168.1406 Q1190.2969,168.0313 1190.5156,168.0313 Q1190.8906,168.0313 1191.125,168.2891 Q1191.3594,168.5469 1191.3594,169.1563 L1191.3594,170.6094 Q1191.3594,171.2188 1191.125,171.4844 Q1190.8906,171.75 1190.5156,171.75 Q1190.1719,171.75 1189.9688,171.5469 Q1189.7656,171.3594 1189.6563,170.8438 Q1189.6094,170.4844 1189.4219,170.2969 Q1189.0938,169.9219 1188.4844,169.7031 Q1187.875,169.4844 1187.25,169.4844 Q1186.4844,169.4844 1185.8516,169.8125 Q1185.2188,170.1406 1184.7266,170.8906 Q1184.2344,171.6406 1184.2344,172.6719 L1184.2344,173.7656 Q1184.2344,175 1185.125,175.8203 Q1186.0156,176.6406 1187.6094,176.6406 Q1188.5469,176.6406 1189.2031,176.3906 Q1189.5938,176.2344 1190.0156,175.7969 Q1190.2813,175.5313 1190.4297,175.4531 Q1190.5781,175.375 1190.7813,175.375 Q1191.1094,175.375 1191.3672,175.6328 Q1191.625,175.8906 1191.625,176.2344 Q1191.625,176.5781 1191.2813,176.9844 Q1190.7813,177.5625 1189.9844,177.8906 Q1188.9063,178.3438 1187.6094,178.3438 Q1186.0938,178.3438 1184.8906,177.7188 Q1183.9063,177.2188 1183.2188,176.1484 Q1182.5313,175.0781 1182.5313,173.7969 L1182.5313,172.6406 Q1182.5313,171.3125 1183.1484,170.1641 Q1183.7656,169.0156 1184.8594,168.3984 Q1185.9531,167.7813 1187.1875,167.7813 Q1187.9219,167.7813 1188.5703,167.9453 Q1189.2188,168.1094 1189.7656,168.4688 Z "/><text fill="#000000" font-family="sans-serif" font-size="12" font-style="italic" lengthAdjust="spacingAndGlyphs" textLength="72" x="1210" y="169.957">«Salespoint»</text><text fill="#000000" font-family="sans-serif" font-size="12" lengthAdjust="spacingAndGlyphs" textLength="90" x="1201" y="185.0508">ApplicationEvent</text><line style="stroke: #000000; stroke-width: 1.5;" x1="1173" x2="1293" y1="192.6875" y2="192.6875"/><line style="stroke: #000000; stroke-width: 1.5;" x1="1173" x2="1293" y1="200.6875" y2="200.6875"/><!--link bioladen.finances.ShoppingCart to bioladen.finances.CashierSystem--><path d="M499,277.204 C499,277.204 499,316.598 499,316.598 " fill="none" id="bioladen.finances.ShoppingCart-bioladen.finances.CashierSystem" style="stroke: #000000; stroke-width: 1.0;"/><polygon fill="none" points="492,277.204,499,257.204,506,277.203,492,277.204" style="stroke: #000000; stroke-width: 1.0;"/><!--link bioladen.finances.CashierSystem to bioladen.event.EntityCreatedEvent--><path d="M632,553.208 C632,553.208 632,627.349 632,627.349 " fill="none" id="bioladen.finances.CashierSystem-bioladen.event.EntityCreatedEvent" style="stroke: #000000; stroke-width: 1.0;"/><polygon fill="#000000" points="632,632.349,636,623.349,632,627.349,628,623.349,632,632.349" style="stroke: #000000; stroke-width: 1.0;"/><!--link bioladen.finances.CashierSystem to cashiersystem.html--><path d="M499,553.208 C499,553.208 499,623.602 499,623.602 " fill="none" id="bioladen.finances.CashierSystem-cashiersystem.html" style="stroke: #000000; stroke-width: 1.0;"/><polygon fill="#000000" points="499,628.602,503,619.602,499,623.602,495,619.602,499,628.602" style="stroke: #000000; stroke-width: 1.0;"/><!--link bioladen.finances.CashierSystem to watchlist.html--><path d="M376.5,553.208 C376.5,553.208 376.5,623.602 376.5,623.602 " fill="none" id="bioladen.finances.CashierSystem-watchlist.html" style="stroke: #000000; stroke-width: 1.0;"/><polygon fill="#000000" points="376.5,628.602,380.5,619.602,376.5,623.602,372.5,619.602,376.5,628.602" style="stroke: #000000; stroke-width: 1.0;"/><!--link bioladen.finances.CashierSystem to javax.money.MonetaryAmount--><path d="M359.364,435 C359.364,435 190.786,435 190.786,435 " fill="none" id="bioladen.finances.CashierSystem-javax.money.MonetaryAmount" style="stroke: #000000; stroke-width: 1.0;"/><polygon fill="#000000" points="185.786,435,194.786,439,190.786,435,194.786,431,185.786,435" style="stroke: #000000; stroke-width: 1.0;"/><!--link bioladen.finances.ShoppingCart to javax.money.MonetaryAmount--><path d="M403.401,181 C292.298,181 124,181 124,181 C124,181 124,401.847 124,401.847 " fill="none" id="bioladen.finances.ShoppingCart-javax.money.MonetaryAmount" style="stroke: #000000; stroke-width: 1.0;"/><polygon fill="#000000" points="124,406.847,128,397.847,124,401.847,120,397.847,124,406.847" style="stroke: #000000; stroke-width: 1.0;"/><!--link org.salespointframework.useraccount.UserAccount to bioladen.finances.ShoppingCart--><path d="M859.868,169 C859.868,169 594.652,169 594.652,169 " fill="none" id="org.salespointframework.useraccount.UserAccount-bioladen.finances.ShoppingCart" style="stroke: #000000; stroke-width: 1.0;"/><polygon fill="#000000" points="864.868,169,855.868,165,859.868,169,855.868,173,864.868,169" style="stroke: #000000; stroke-width: 1.0;"/><text fill="#000000" font-family="sans-serif" font-size="13" lengthAdjust="spacingAndGlyphs" textLength="7" x="849.8439" y="163.6362">1</text><text fill="#000000" font-family="sans-serif" font-size="13" lengthAdjust="spacingAndGlyphs" textLength="7" x="602.5532" y="164.9537">1</text><!--link org.salespointframework.useraccount.UserAccount to bioladen.finances.CashierSystem--><path d="M859.854,193 C859.854,193 616.5,193 616.5,193 C616.5,193 616.5,255.405 616.5,316.836 " fill="none" id="org.salespointframework.useraccount.UserAccount-bioladen.finances.CashierSystem" style="stroke: #000000; stroke-width: 1.0;"/><polygon fill="#000000" points="864.854,193,855.854,189,859.854,193,855.854,197,864.854,193" style="stroke: #000000; stroke-width: 1.0;"/><text fill="#000000" font-family="sans-serif" font-size="13" lengthAdjust="spacingAndGlyphs" textLength="7" x="850.1694" y="191.1329">1</text><text fill="#000000" font-family="sans-serif" font-size="13" lengthAdjust="spacingAndGlyphs" textLength="7" x="616.8031" y="306.2582">1</text><!--link org.salespointframework.context.ApplicationEvent to bioladen.event.EntityCreatedEvent--><path d="M1233,228.528 C1233,228.528 1233,657 1233,657 C1233,657 905.467,657 760.572,657 " fill="none" id="org.salespointframework.context.ApplicationEvent-bioladen.event.EntityCreatedEvent" style="stroke: #000000; stroke-width: 1.0;"/><polygon fill="none" points="1226,228.528,1233,208.528,1240,228.528,1226,228.528" style="stroke: #000000; stroke-width: 1.0;"/><rect fill="#DDDDDD" height="119.6563" rx="5" ry="5" style="stroke: #000000; stroke-width: 1.0;" width="194" x="633.5" y="758"/><text fill="#000000" font-family="sans-serif" font-size="14" font-weight="bold" lengthAdjust="spacingAndGlyphs" textLength="85" x="643.5" y="779.5332">Background</text><text fill="#000000" font-family="sans-serif" font-size="14" font-weight="bold" lengthAdjust="spacingAndGlyphs" textLength="81" x="736.5" y="779.5332">Component</text><rect fill="#3DD13F" height="17.6094" style="stroke: none; stroke-width: 1.0;" width="93" x="639.5" y="782.6094"/><text fill="#000000" font-family="sans-serif" font-size="14" lengthAdjust="spacingAndGlyphs" textLength="0" x="659.5" y="797.1426"/><text fill="#000000" font-family="sans-serif" font-size="14" lengthAdjust="spacingAndGlyphs" textLength="29" x="736.5" y="797.1426">View</text><rect fill="#5F9AEA" height="17.6094" style="stroke: none; stroke-width: 1.0;" width="93" x="639.5" y="800.2188"/><text fill="#000000" font-family="sans-serif" font-size="14" lengthAdjust="spacingAndGlyphs" textLength="0" x="659.5" y="814.752"/><text fill="#000000" font-family="sans-serif" font-size="14" lengthAdjust="spacingAndGlyphs" textLength="62" x="736.5" y="814.752">Controller</text><rect fill="#CEF6CE" height="17.6094" style="stroke: none; stroke-width: 1.0;" width="93" x="639.5" y="817.8281"/><text fill="#000000" font-family="sans-serif" font-size="14" lengthAdjust="spacingAndGlyphs" textLength="0" x="659.5" y="832.3613"/><text fill="#000000" font-family="sans-serif" font-size="14" lengthAdjust="spacingAndGlyphs" textLength="41" x="736.5" y="832.3613">Spring</text><rect fill="#F5A9BC" height="17.6094" style="stroke: none; stroke-width: 1.0;" width="93" x="639.5" y="835.4375"/><text fill="#000000" font-family="sans-serif" font-size="14" lengthAdjust="spacingAndGlyphs" textLength="0" x="659.5" y="849.9707"/><text fill="#000000" font-family="sans-serif" font-size="14" lengthAdjust="spacingAndGlyphs" textLength="66" x="736.5" y="849.9707">Salespoint</text><rect fill="#F9ED93" height="17.6094" style="stroke: none; stroke-width: 1.0;" width="93" x="639.5" y="853.0469"/><text fill="#000000" font-family="sans-serif" font-size="14" lengthAdjust="spacingAndGlyphs" textLength="0" x="659.5" y="867.5801"/><text fill="#000000" font-family="sans-serif" font-size="14" lengthAdjust="spacingAndGlyphs" textLength="29" x="736.5" y="867.5801">Java</text><line style="stroke: #000000; stroke-width: 1.0;" x1="639.5" x2="821.5" y1="765" y2="765"/><line style="stroke: #000000; stroke-width: 1.0;" x1="639.5" x2="821.5" y1="782.6094" y2="782.6094"/><line style="stroke: #000000; stroke-width: 1.0;" x1="639.5" x2="821.5" y1="800.2188" y2="800.2188"/><line style="stroke: #000000; stroke-width: 1.0;" x1="639.5" x2="821.5" y1="817.8281" y2="817.8281"/><line style="stroke: #000000; stroke-width: 1.0;" x1="639.5" x2="821.5" y1="835.4375" y2="835.4375"/><line style="stroke: #000000; stroke-width: 1.0;" x1="639.5" x2="821.5" y1="853.0469" y2="853.0469"/><line style="stroke: #000000; stroke-width: 1.0;" x1="639.5" x2="821.5" y1="870.6563" y2="870.6563"/><line style="stroke: #000000; stroke-width: 1.0;" x1="639.5" x2="639.5" y1="765" y2="870.6563"/><line style="stroke: #000000; stroke-width: 1.0;" x1="732.5" x2="732.5" y1="765" y2="870.6563"/><line style="stroke: #000000; stroke-width: 1.0;" x1="821.5" x2="821.5" y1="765" y2="870.6563"/><!--
@startuml




skinparam class {
	BackgroundColor #Silver/white
	BackgroundColor<<Spring>> #a9f5e1/cef6ce
	BackgroundColor<<Salespoint>> #f5a9bc/fcc4f0
	BackgroundColor<<Java>> #f9ed93/f7f583
	BackgroundColor<<Controller>> #Cornflowerblue/Cyan
    BorderColor Black
    ArrowColor  Black
}

skinparam package {
    FontColor Grey
    BorderColor Darkgrey
}

skinparam classAttributeIconSize 0
skinparam linetype ortho

legend
| Background | Component |
|<#3dd13f>     | View |
|<#5f9aea>     | Controller |
|<#cef6ce>     | Spring |
|<#f5a9bc>     | Salespoint |
|<#f9ed93>     | Java |
endlegend



rectangle Bioladen {
    namespace bioladen.finances {

        class CashierSystem <<Controller>>  extends ShoppingCart {
            -user : UserAccount
            -userDiscount : Enum
            +CashierSystem(UserAccount)
            +add(Product) : boolean
            +remove(Product) : boolean
            +clear() : boolean
            +getSums() : MonetaryAmount[]
            +getDiscountSums() : MonetaryAmount[]
            +getMwStSums() : MonetaryAmount[]
            +getSum() : MonetaryAmount
            +calculateChange(MonetaryAmount) : MonetaryAmount
            +finishSale() : boolean
            +publishSaleCreatedEvent(ShoppingCart) : void
        }

        class ShoppingCart <<Entity>> {
            -user : UserAccount
            -productList : Map<Product, Amount>
            +ShoppingCart(UserAccount)
            +add(Product) : boolean
            +remove(Product) : boolean
            +clear() : boolean
            +getSum() : MonetaryAmount


        }

    }

    namespace bioladen.event {
        class EntityCreatedEvent {

        }

        bioladen.finances.CashierSystem - -> bioladen.event.EntityCreatedEvent

    }

    namespace ressources.templates {

        file cashiersystem.html <<View>> #limegreen/technology {

        }

        file watchlist.html <<View>> #limegreen/technology {

        }

        bioladen.finances.CashierSystem - -> cashiersystem.html
        bioladen.finances.CashierSystem - -> watchlist.html
    }

}

rectangle money-api-1.0.3.jar {
    namespace javax.money {
        class MonetaryAmount <<Java>>{

        }
        bioladen.finances.CashierSystem -right-> MonetaryAmount
        bioladen.finances.ShoppingCart -right-> MonetaryAmount
    }

}

rectangle salespoint-framework-7.0.0.RELEASE.jar {

    namespace org.salespointframework.useraccount {

        class UserAccount <<Entity>> <<Salespoint>>{

        }

        bioladen.finances.ShoppingCart "1" -left-> "1" UserAccount
        bioladen.finances.CashierSystem "1" -left-> "1" UserAccount
    }

    namespace org.salespointframework.context {
        class ApplicationEvent <<Salespoint>>{

        }

        ApplicationEvent <|- - bioladen.event.EntityCreatedEvent
    }

}


@enduml

PlantUML version 1.2018.12(Sun Oct 21 12:15:15 CEST 2018)
(GPL source distribution)
Java Runtime: Java(TM) SE Runtime Environment
JVM: Java HotSpot(TM) Client VM
Java Version: 1.8.0_181-b13
Operating System: Windows 10
OS Version: 10.0
Default Encoding: Cp1252
Language: de
Country: DE
--></g></svg>