<?xml version="1.0" encoding="UTF-8" standalone="no"?><svg xmlns="http://www.w3.org/2000/svg" xmlns:xlink="http://www.w3.org/1999/xlink" contentScriptType="application/ecmascript" contentStyleType="text/css" height="1281px" preserveAspectRatio="none" style="width:2075px;height:1281px;" version="1.1" viewBox="0 0 2075 1281" width="2075px" zoomAndPan="magnify"><defs><filter height="300%" id="f103bop5zkpelo" width="300%" x="-1" y="-1"><feGaussianBlur result="blurOut" stdDeviation="2.0"/><feColorMatrix in="blurOut" result="blurOut2" type="matrix" values="0 0 0 0 0 0 0 0 0 0 0 0 0 0 0 0 0 0 .4 0"/><feOffset dx="4.0" dy="4.0" in="blurOut2" result="blurOut3"/><feBlend in="SourceGraphic" in2="blurOut3" mode="normal"/></filter><linearGradient id="g103bop5zkpelo0" x1="0%" x2="100%" y1="0%" y2="100%"><stop offset="0%" stop-color="#F08080"/><stop offset="100%" stop-color="#FFB6C1"/></linearGradient></defs><g><!--cluster JavaSE-1.8--><rect fill="#FFFFFF" filter="url(#f103bop5zkpelo)" height="168" style="stroke: #8B008B; stroke-width: 1.5;" width="154" x="1376" y="359"/><text fill="#808080" font-family="sans-serif" font-size="14" font-weight="bold" lengthAdjust="spacingAndGlyphs" textLength="76" x="1415" y="375.5332">JavaSE-1.8</text><!--cluster java.lang--><polygon fill="#FFFFFF" filter="url(#f103bop5zkpelo)" points="1400,403,1469,403,1476,426.6094,1506,426.6094,1506,503,1400,503,1400,403" style="stroke: #8B008B; stroke-width: 1.5;"/><line style="stroke: #8B008B; stroke-width: 1.5;" x1="1400" x2="1476" y1="426.6094" y2="426.6094"/><text fill="#808080" font-family="sans-serif" font-size="14" font-weight="bold" lengthAdjust="spacingAndGlyphs" textLength="63" x="1404" y="419.5332">java.lang</text><!--cluster Bioladen--><rect fill="#FFFFFF" filter="url(#f103bop5zkpelo)" height="1246" style="stroke: #8B008B; stroke-width: 1.5;" width="1330" x="22" y="24"/><text fill="#808080" font-family="sans-serif" font-size="14" font-weight="bold" lengthAdjust="spacingAndGlyphs" textLength="62" x="656" y="40.5332">Bioladen</text><!--cluster bioladen.data.log--><polygon fill="#FFFFFF" filter="url(#f103bop5zkpelo)" points="588,593,715,593,722,616.6094,961,616.6094,961,1246,588,1246,588,593" style="stroke: #8B008B; stroke-width: 1.5;"/><line style="stroke: #8B008B; stroke-width: 1.5;" x1="588" x2="722" y1="616.6094" y2="616.6094"/><text fill="#808080" font-family="sans-serif" font-size="14" font-weight="bold" lengthAdjust="spacingAndGlyphs" textLength="121" x="592" y="609.5332">bioladen.data.log</text><!--cluster bioladen.data.statistic--><polygon fill="#FFFFFF" filter="url(#f103bop5zkpelo)" points="46,68,206,68,213,91.6094,564,91.6094,564,926,46,926,46,68" style="stroke: #8B008B; stroke-width: 1.5;"/><line style="stroke: #8B008B; stroke-width: 1.5;" x1="46" x2="213" y1="91.6094" y2="91.6094"/><text fill="#808080" font-family="sans-serif" font-size="14" font-weight="bold" lengthAdjust="spacingAndGlyphs" textLength="154" x="50" y="84.5332">bioladen.data.statistic</text><!--cluster bioladen.event--><polygon fill="#FFFFFF" filter="url(#f103bop5zkpelo)" points="985,611,1097,611,1104,634.6094,1328,634.6094,1328,725,985,725,985,611" style="stroke: #8B008B; stroke-width: 1.5;"/><line style="stroke: #8B008B; stroke-width: 1.5;" x1="985" x2="1104" y1="634.6094" y2="634.6094"/><text fill="#808080" font-family="sans-serif" font-size="14" font-weight="bold" lengthAdjust="spacingAndGlyphs" textLength="106" x="989" y="627.5332">bioladen.event</text><!--cluster salespoint-framework-7.0.0.RELEASE.jar--><rect fill="#FFFFFF" filter="url(#f103bop5zkpelo)" height="176" style="stroke: #8B008B; stroke-width: 1.5;" width="294" x="1770" y="774"/><text fill="#808080" font-family="sans-serif" font-size="14" font-weight="bold" lengthAdjust="spacingAndGlyphs" textLength="278" x="1778" y="790.5332">salespoint-framework-7.0.0.RELEASE.jar</text><!--cluster org.salespointframework.time--><polygon fill="#FFFFFF" filter="url(#f103bop5zkpelo)" points="1794,818,2009,818,2016,841.6094,2019,841.6094,2019,926,1794,926,1794,818" style="stroke: #8B008B; stroke-width: 1.5;"/><line style="stroke: #8B008B; stroke-width: 1.5;" x1="1794" x2="2016" y1="841.6094" y2="841.6094"/><text fill="#808080" font-family="sans-serif" font-size="14" font-weight="bold" lengthAdjust="spacingAndGlyphs" textLength="209" x="1798" y="834.5332">org.salespointframework.time</text><!--cluster spring--><rect fill="#FFFFFF" filter="url(#f103bop5zkpelo)" height="641" style="stroke: #8B008B; stroke-width: 1.5;" width="370" x="1376" y="560"/><text fill="#808080" font-family="sans-serif" font-size="14" font-weight="bold" lengthAdjust="spacingAndGlyphs" textLength="283" x="1419.5" y="576.5332">spring-data-comments-2.1.0.RELEASE.jar</text><!--cluster org.springframework.context--><polygon fill="#FFFFFF" filter="url(#f103bop5zkpelo)" points="1400,604,1610,604,1617,627.6094,1722,627.6094,1722,1177,1400,1177,1400,604" style="stroke: #8B008B; stroke-width: 1.5;"/><line style="stroke: #8B008B; stroke-width: 1.5;" x1="1400" x2="1617" y1="627.6094" y2="627.6094"/><text fill="#808080" font-family="sans-serif" font-size="14" font-weight="bold" lengthAdjust="spacingAndGlyphs" textLength="204" x="1404" y="620.5332">org.springframework.context</text><!--class java.lang.Iterable--><rect fill="url(#g103bop5zkpelo0)" filter="url(#f103bop5zkpelo)" height="48" id="java.lang.Iterable" style="stroke: #000000; stroke-width: 1.5;" width="73" x="1416.5" y="439"/><ellipse cx="1431.5" cy="455" fill="#ADD1B2" rx="11" ry="11" style="stroke: #000000; stroke-width: 1.0;"/><path d="M1434.2656,450.875 Q1434.4219,450.6563 1434.6094,450.5469 Q1434.7969,450.4375 1435.0156,450.4375 Q1435.3906,450.4375 1435.625,450.6953 Q1435.8594,450.9531 1435.8594,451.5625 L1435.8594,453.0156 Q1435.8594,453.625 1435.625,453.8906 Q1435.3906,454.1563 1435.0156,454.1563 Q1434.6719,454.1563 1434.4688,453.9531 Q1434.2656,453.7656 1434.1563,453.25 Q1434.1094,452.8906 1433.9219,452.7031 Q1433.5938,452.3281 1432.9844,452.1094 Q1432.375,451.8906 1431.75,451.8906 Q1430.9844,451.8906 1430.3516,452.2188 Q1429.7188,452.5469 1429.2266,453.2969 Q1428.7344,454.0469 1428.7344,455.0781 L1428.7344,456.1719 Q1428.7344,457.4063 1429.625,458.2266 Q1430.5156,459.0469 1432.1094,459.0469 Q1433.0469,459.0469 1433.7031,458.7969 Q1434.0938,458.6406 1434.5156,458.2031 Q1434.7813,457.9375 1434.9297,457.8594 Q1435.0781,457.7813 1435.2813,457.7813 Q1435.6094,457.7813 1435.8672,458.0391 Q1436.125,458.2969 1436.125,458.6406 Q1436.125,458.9844 1435.7813,459.3906 Q1435.2813,459.9688 1434.4844,460.2969 Q1433.4063,460.75 1432.1094,460.75 Q1430.5938,460.75 1429.3906,460.125 Q1428.4063,459.625 1427.7188,458.5547 Q1427.0313,457.4844 1427.0313,456.2031 L1427.0313,455.0469 Q1427.0313,453.7188 1427.6484,452.5703 Q1428.2656,451.4219 1429.3594,450.8047 Q1430.4531,450.1875 1431.6875,450.1875 Q1432.4219,450.1875 1433.0703,450.3516 Q1433.7188,450.5156 1434.2656,450.875 Z "/><text fill="#000000" font-family="sans-serif" font-size="12" lengthAdjust="spacingAndGlyphs" textLength="41" x="1445.5" y="459.9102">Iterable</text><line style="stroke: #000000; stroke-width: 1.5;" x1="1417.5" x2="1488.5" y1="471" y2="471"/><line style="stroke: #000000; stroke-width: 1.5;" x1="1417.5" x2="1488.5" y1="479" y2="479"/><!--class bioladen.data.log.Log--><rect fill="url(#g103bop5zkpelo0)" filter="url(#f103bop5zkpelo)" height="200.1953" id="bioladen.data.log.Log" style="stroke: #000000; stroke-width: 1.5;" width="198" x="606" y="1030"/><ellipse cx="690.25" cy="1046" fill="#ADD1B2" rx="11" ry="11" style="stroke: #000000; stroke-width: 1.0;"/><path d="M693.0156,1041.875 Q693.1719,1041.6563 693.3594,1041.5469 Q693.5469,1041.4375 693.7656,1041.4375 Q694.1406,1041.4375 694.375,1041.6953 Q694.6094,1041.9531 694.6094,1042.5625 L694.6094,1044.0156 Q694.6094,1044.625 694.375,1044.8906 Q694.1406,1045.1563 693.7656,1045.1563 Q693.4219,1045.1563 693.2188,1044.9531 Q693.0156,1044.7656 692.9063,1044.25 Q692.8594,1043.8906 692.6719,1043.7031 Q692.3438,1043.3281 691.7344,1043.1094 Q691.125,1042.8906 690.5,1042.8906 Q689.7344,1042.8906 689.1016,1043.2188 Q688.4688,1043.5469 687.9766,1044.2969 Q687.4844,1045.0469 687.4844,1046.0781 L687.4844,1047.1719 Q687.4844,1048.4063 688.375,1049.2266 Q689.2656,1050.0469 690.8594,1050.0469 Q691.7969,1050.0469 692.4531,1049.7969 Q692.8438,1049.6406 693.2656,1049.2031 Q693.5313,1048.9375 693.6797,1048.8594 Q693.8281,1048.7813 694.0313,1048.7813 Q694.3594,1048.7813 694.6172,1049.0391 Q694.875,1049.2969 694.875,1049.6406 Q694.875,1049.9844 694.5313,1050.3906 Q694.0313,1050.9688 693.2344,1051.2969 Q692.1563,1051.75 690.8594,1051.75 Q689.3438,1051.75 688.1406,1051.125 Q687.1563,1050.625 686.4688,1049.5547 Q685.7813,1048.4844 685.7813,1047.2031 L685.7813,1046.0469 Q685.7813,1044.7188 686.3984,1043.5703 Q687.0156,1042.4219 688.1094,1041.8047 Q689.2031,1041.1875 690.4375,1041.1875 Q691.1719,1041.1875 691.8203,1041.3516 Q692.4688,1041.5156 693.0156,1041.875 Z "/><text fill="#000000" font-family="sans-serif" font-size="12" lengthAdjust="spacingAndGlyphs" textLength="21" x="710.75" y="1050.9102">Log</text><line style="stroke: #000000; stroke-width: 1.5;" x1="607" x2="803" y1="1062" y2="1062"/><line style="stroke: #000000; stroke-width: 1.5;" x1="607" x2="803" y1="1070" y2="1070"/><text fill="#000000" font-family="sans-serif" font-size="11" lengthAdjust="spacingAndGlyphs" textLength="151" x="612" y="1085.4189">-log(LogLevel, Order) : boolean</text><text fill="#000000" font-family="sans-serif" font-size="11" lengthAdjust="spacingAndGlyphs" textLength="144" x="612" y="1099.2549">-log(LogLevel, Sale) : boolean</text><text fill="#000000" font-family="sans-serif" font-size="11" lengthAdjust="spacingAndGlyphs" textLength="181" x="612" y="1113.0908">-log(LogLevel, Cancellation) : boolean</text><text fill="#000000" font-family="sans-serif" font-size="11" lengthAdjust="spacingAndGlyphs" textLength="186" x="612" y="1126.9268">-log(LogLevel, LogInventory) : boolean</text><text fill="#000000" font-family="sans-serif" font-size="11" lengthAdjust="spacingAndGlyphs" textLength="146" x="612" y="1140.7627">-log(LogLevel, User) : boolean</text><text fill="#000000" font-family="sans-serif" font-size="11" lengthAdjust="spacingAndGlyphs" textLength="144" x="612" y="1154.5986">+info(Object, String) : boolean</text><text fill="#000000" font-family="sans-serif" font-size="11" lengthAdjust="spacingAndGlyphs" textLength="166" x="612" y="1168.4346">+warning(Object, String) : boolean</text><text fill="#000000" font-family="sans-serif" font-size="11" lengthAdjust="spacingAndGlyphs" textLength="150" x="612" y="1182.2705">+error(Object, String) : boolean</text><text fill="#000000" font-family="sans-serif" font-size="11" lengthAdjust="spacingAndGlyphs" textLength="146" x="612" y="1196.1064">+getLog() : Iterable&lt;LogEntry&gt;</text><text fill="#000000" font-family="sans-serif" font-size="11" lengthAdjust="spacingAndGlyphs" textLength="47" x="612" y="1209.9424">+getLog()</text><text fill="#000000" font-family="sans-serif" font-size="11" lengthAdjust="spacingAndGlyphs" textLength="91" x="612" y="1223.7783">-publishLogEvent()</text><!--class bioladen.data.log.LogEntry--><rect fill="url(#g103bop5zkpelo0)" filter="url(#f103bop5zkpelo)" height="103.3438" id="bioladen.data.log.LogEntry" style="stroke: #000000; stroke-width: 1.5;" width="127" x="817.5" y="830.5"/><ellipse cx="853.65" cy="846.5" fill="#ADD1B2" rx="11" ry="11" style="stroke: #000000; stroke-width: 1.0;"/><path d="M856.4156,842.375 Q856.5719,842.1563 856.7594,842.0469 Q856.9469,841.9375 857.1656,841.9375 Q857.5406,841.9375 857.775,842.1953 Q858.0094,842.4531 858.0094,843.0625 L858.0094,844.5156 Q858.0094,845.125 857.775,845.3906 Q857.5406,845.6563 857.1656,845.6563 Q856.8219,845.6563 856.6188,845.4531 Q856.4156,845.2656 856.3063,844.75 Q856.2594,844.3906 856.0719,844.2031 Q855.7438,843.8281 855.1344,843.6094 Q854.525,843.3906 853.9,843.3906 Q853.1344,843.3906 852.5016,843.7188 Q851.8688,844.0469 851.3766,844.7969 Q850.8844,845.5469 850.8844,846.5781 L850.8844,847.6719 Q850.8844,848.9063 851.775,849.7266 Q852.6656,850.5469 854.2594,850.5469 Q855.1969,850.5469 855.8531,850.2969 Q856.2438,850.1406 856.6656,849.7031 Q856.9313,849.4375 857.0797,849.3594 Q857.2281,849.2813 857.4313,849.2813 Q857.7594,849.2813 858.0172,849.5391 Q858.275,849.7969 858.275,850.1406 Q858.275,850.4844 857.9313,850.8906 Q857.4313,851.4688 856.6344,851.7969 Q855.5563,852.25 854.2594,852.25 Q852.7438,852.25 851.5406,851.625 Q850.5563,851.125 849.8688,850.0547 Q849.1813,848.9844 849.1813,847.7031 L849.1813,846.5469 Q849.1813,845.2188 849.7984,844.0703 Q850.4156,842.9219 851.5094,842.3047 Q852.6031,841.6875 853.8375,841.6875 Q854.5719,841.6875 855.2203,841.8516 Q855.8688,842.0156 856.4156,842.375 Z "/><text fill="#000000" font-family="sans-serif" font-size="12" lengthAdjust="spacingAndGlyphs" textLength="48" x="872.35" y="851.4102">LogEntry</text><line style="stroke: #000000; stroke-width: 1.5;" x1="818.5" x2="943.5" y1="862.5" y2="862.5"/><text fill="#000000" font-family="sans-serif" font-size="11" lengthAdjust="spacingAndGlyphs" textLength="93" x="823.5" y="877.9189">logLevel : LogLevel</text><text fill="#000000" font-family="sans-serif" font-size="11" lengthAdjust="spacingAndGlyphs" textLength="85" x="823.5" y="891.7549">thrownBy : String</text><text fill="#000000" font-family="sans-serif" font-size="11" lengthAdjust="spacingAndGlyphs" textLength="115" x="823.5" y="905.5908">logTime : LocalDateTime</text><text fill="#000000" font-family="sans-serif" font-size="11" lengthAdjust="spacingAndGlyphs" textLength="76" x="823.5" y="919.4268">content : Object</text><line style="stroke: #000000; stroke-width: 1.5;" x1="818.5" x2="943.5" y1="925.8438" y2="925.8438"/><!--class bioladen.data.log.LogLevel--><rect fill="url(#g103bop5zkpelo0)" filter="url(#f103bop5zkpelo)" height="89.5078" id="bioladen.data.log.LogLevel" style="stroke: #000000; stroke-width: 1.5;" width="82" x="840" y="1085"/><ellipse cx="855" cy="1101" fill="#EB937F" rx="11" ry="11" style="stroke: #000000; stroke-width: 1.0;"/><path d="M853.8594,1101.7969 L853.8594,1104.2969 L858.1875,1104.2969 L858.1875,1103.375 Q858.1875,1102.7656 858.4297,1102.5 Q858.6719,1102.2344 859.0469,1102.2344 Q859.4219,1102.2344 859.6563,1102.5 Q859.8906,1102.7656 859.8906,1103.375 L859.8906,1106 L851.8906,1106 Q851.2656,1106 851.0078,1105.7656 Q850.75,1105.5313 850.75,1105.1406 Q850.75,1104.7656 851.0156,1104.5313 Q851.2813,1104.2969 851.8906,1104.2969 L852.1563,1104.2969 L852.1563,1097.6406 L851.8906,1097.6406 Q851.2656,1097.6406 851.0078,1097.4063 Q850.75,1097.1719 850.75,1096.7813 Q850.75,1096.4063 851.0078,1096.1719 Q851.2656,1095.9375 851.8906,1095.9375 L859.5156,1095.9375 L859.5156,1098.5313 Q859.5156,1099.1406 859.2891,1099.3984 Q859.0625,1099.6563 858.6719,1099.6563 Q858.2969,1099.6563 858.0625,1099.3984 Q857.8281,1099.1406 857.8281,1098.5313 L857.8281,1097.6406 L853.8594,1097.6406 L853.8594,1100.0938 L855.3438,1100.0938 Q855.3438,1099.4375 855.4688,1099.25 Q855.7344,1098.8438 856.2031,1098.8438 Q856.5781,1098.8438 856.8125,1099.1016 Q857.0469,1099.3594 857.0469,1099.9688 L857.0469,1101.9375 Q857.0469,1102.4844 856.9219,1102.6719 Q856.6563,1103.0625 856.2031,1103.0625 Q855.7344,1103.0625 855.4688,1102.6563 Q855.3438,1102.4688 855.3438,1101.7969 L853.8594,1101.7969 Z "/><text fill="#000000" font-family="sans-serif" font-size="12" lengthAdjust="spacingAndGlyphs" textLength="50" x="869" y="1105.9102">LogLevel</text><line style="stroke: #000000; stroke-width: 1.5;" x1="841" x2="921" y1="1117" y2="1117"/><text fill="#000000" font-family="sans-serif" font-size="11" lengthAdjust="spacingAndGlyphs" textLength="23" x="846" y="1132.4189">INFO</text><text fill="#000000" font-family="sans-serif" font-size="11" lengthAdjust="spacingAndGlyphs" textLength="49" x="846" y="1146.2549">WARNING</text><text fill="#000000" font-family="sans-serif" font-size="11" lengthAdjust="spacingAndGlyphs" textLength="35" x="846" y="1160.0908">ERROR</text><line style="stroke: #000000; stroke-width: 1.5;" x1="841" x2="921" y1="1166.5078" y2="1166.5078"/><!--class bioladen.data.log.LogExplorer--><rect fill="url(#g103bop5zkpelo0)" filter="url(#f103bop5zkpelo)" height="89.5078" id="bioladen.data.log.LogExplorer" style="stroke: #000000; stroke-width: 1.5;" width="178" x="604" y="837"/><ellipse cx="655.75" cy="853" fill="#ADD1B2" rx="11" ry="11" style="stroke: #000000; stroke-width: 1.0;"/><path d="M658.5156,848.875 Q658.6719,848.6563 658.8594,848.5469 Q659.0469,848.4375 659.2656,848.4375 Q659.6406,848.4375 659.875,848.6953 Q660.1094,848.9531 660.1094,849.5625 L660.1094,851.0156 Q660.1094,851.625 659.875,851.8906 Q659.6406,852.1563 659.2656,852.1563 Q658.9219,852.1563 658.7188,851.9531 Q658.5156,851.7656 658.4063,851.25 Q658.3594,850.8906 658.1719,850.7031 Q657.8438,850.3281 657.2344,850.1094 Q656.625,849.8906 656,849.8906 Q655.2344,849.8906 654.6016,850.2188 Q653.9688,850.5469 653.4766,851.2969 Q652.9844,852.0469 652.9844,853.0781 L652.9844,854.1719 Q652.9844,855.4063 653.875,856.2266 Q654.7656,857.0469 656.3594,857.0469 Q657.2969,857.0469 657.9531,856.7969 Q658.3438,856.6406 658.7656,856.2031 Q659.0313,855.9375 659.1797,855.8594 Q659.3281,855.7813 659.5313,855.7813 Q659.8594,855.7813 660.1172,856.0391 Q660.375,856.2969 660.375,856.6406 Q660.375,856.9844 660.0313,857.3906 Q659.5313,857.9688 658.7344,858.2969 Q657.6563,858.75 656.3594,858.75 Q654.8438,858.75 653.6406,858.125 Q652.6563,857.625 651.9688,856.5547 Q651.2813,855.4844 651.2813,854.2031 L651.2813,853.0469 Q651.2813,851.7188 651.8984,850.5703 Q652.5156,849.4219 653.6094,848.8047 Q654.7031,848.1875 655.9375,848.1875 Q656.6719,848.1875 657.3203,848.3516 Q657.9688,848.5156 658.5156,848.875 Z "/><text fill="#000000" font-family="sans-serif" font-size="12" lengthAdjust="spacingAndGlyphs" textLength="66" x="676.25" y="857.9102">LogExplorer</text><line style="stroke: #000000; stroke-width: 1.5;" x1="605" x2="781" y1="869" y2="869"/><line style="stroke: #000000; stroke-width: 1.5;" x1="605" x2="781" y1="877" y2="877"/><text fill="#000000" font-family="sans-serif" font-size="11" lengthAdjust="spacingAndGlyphs" textLength="155" x="610" y="892.4189">+filterBy(Duration) : LogExplorer</text><text fill="#000000" font-family="sans-serif" font-size="11" lengthAdjust="spacingAndGlyphs" textLength="159" x="610" y="906.2549">+filterBy(LogLevel) : LogExplorer</text><text fill="#000000" font-family="sans-serif" font-size="11" lengthAdjust="spacingAndGlyphs" textLength="166" x="610" y="920.0908">+filterBy(ThrownBy) : LogExplorer</text><!--class bioladen.data.log.LogFilter--><rect fill="url(#g103bop5zkpelo0)" filter="url(#f103bop5zkpelo)" height="97.6953" id="bioladen.data.log.LogFilter" style="stroke: #000000; stroke-width: 1.5;" width="208" x="670" y="629"/><ellipse cx="745.75" cy="649.0938" fill="#ADD1B2" rx="11" ry="11" style="stroke: #000000; stroke-width: 1.0;"/><path d="M748.5156,644.9688 Q748.6719,644.75 748.8594,644.6406 Q749.0469,644.5313 749.2656,644.5313 Q749.6406,644.5313 749.875,644.7891 Q750.1094,645.0469 750.1094,645.6563 L750.1094,647.1094 Q750.1094,647.7188 749.875,647.9844 Q749.6406,648.25 749.2656,648.25 Q748.9219,648.25 748.7188,648.0469 Q748.5156,647.8594 748.4063,647.3438 Q748.3594,646.9844 748.1719,646.7969 Q747.8438,646.4219 747.2344,646.2031 Q746.625,645.9844 746,645.9844 Q745.2344,645.9844 744.6016,646.3125 Q743.9688,646.6406 743.4766,647.3906 Q742.9844,648.1406 742.9844,649.1719 L742.9844,650.2656 Q742.9844,651.5 743.875,652.3203 Q744.7656,653.1406 746.3594,653.1406 Q747.2969,653.1406 747.9531,652.8906 Q748.3438,652.7344 748.7656,652.2969 Q749.0313,652.0313 749.1797,651.9531 Q749.3281,651.875 749.5313,651.875 Q749.8594,651.875 750.1172,652.1328 Q750.375,652.3906 750.375,652.7344 Q750.375,653.0781 750.0313,653.4844 Q749.5313,654.0625 748.7344,654.3906 Q747.6563,654.8438 746.3594,654.8438 Q744.8438,654.8438 743.6406,654.2188 Q742.6563,653.7188 741.9688,652.6484 Q741.2813,651.5781 741.2813,650.2969 L741.2813,649.1406 Q741.2813,647.8125 741.8984,646.6641 Q742.5156,645.5156 743.6094,644.8984 Q744.7031,644.2813 745.9375,644.2813 Q746.6719,644.2813 747.3203,644.4453 Q747.9688,644.6094 748.5156,644.9688 Z "/><text fill="#000000" font-family="sans-serif" font-size="12" font-style="italic" lengthAdjust="spacingAndGlyphs" textLength="42" x="769.25" y="646.457">«static»</text><text fill="#000000" font-family="sans-serif" font-size="12" lengthAdjust="spacingAndGlyphs" textLength="48" x="766.25" y="661.5508">LogFilter</text><line style="stroke: #000000; stroke-width: 1.5;" x1="671" x2="877" y1="669.1875" y2="669.1875"/><line style="stroke: #000000; stroke-width: 1.5;" x1="671" x2="877" y1="677.1875" y2="677.1875"/><text fill="#000000" font-family="sans-serif" font-size="11" lengthAdjust="spacingAndGlyphs" textLength="185" x="676" y="692.6064">+filterBy(LogFilter, Duration) : LogFilter</text><text fill="#000000" font-family="sans-serif" font-size="11" lengthAdjust="spacingAndGlyphs" textLength="189" x="676" y="706.4424">+filterBy(LogFilter, LogLevel) : LogFilter</text><text fill="#000000" font-family="sans-serif" font-size="11" lengthAdjust="spacingAndGlyphs" textLength="196" x="676" y="720.2783">+filterBy(LogFilter, ThrownBy) : LogFilter</text><!--class bioladen.data.statistic.StatisticController--><rect fill="url(#g103bop5zkpelo0)" filter="url(#f103bop5zkpelo)" height="48" id="bioladen.data.statistic.StatisticController" style="stroke: #000000; stroke-width: 1.5;" width="129" x="347.5" y="654"/><ellipse cx="362.5" cy="670" fill="#ADD1B2" rx="11" ry="11" style="stroke: #000000; stroke-width: 1.0;"/><path d="M365.2656,665.875 Q365.4219,665.6563 365.6094,665.5469 Q365.7969,665.4375 366.0156,665.4375 Q366.3906,665.4375 366.625,665.6953 Q366.8594,665.9531 366.8594,666.5625 L366.8594,668.0156 Q366.8594,668.625 366.625,668.8906 Q366.3906,669.1563 366.0156,669.1563 Q365.6719,669.1563 365.4688,668.9531 Q365.2656,668.7656 365.1563,668.25 Q365.1094,667.8906 364.9219,667.7031 Q364.5938,667.3281 363.9844,667.1094 Q363.375,666.8906 362.75,666.8906 Q361.9844,666.8906 361.3516,667.2188 Q360.7188,667.5469 360.2266,668.2969 Q359.7344,669.0469 359.7344,670.0781 L359.7344,671.1719 Q359.7344,672.4063 360.625,673.2266 Q361.5156,674.0469 363.1094,674.0469 Q364.0469,674.0469 364.7031,673.7969 Q365.0938,673.6406 365.5156,673.2031 Q365.7813,672.9375 365.9297,672.8594 Q366.0781,672.7813 366.2813,672.7813 Q366.6094,672.7813 366.8672,673.0391 Q367.125,673.2969 367.125,673.6406 Q367.125,673.9844 366.7813,674.3906 Q366.2813,674.9688 365.4844,675.2969 Q364.4063,675.75 363.1094,675.75 Q361.5938,675.75 360.3906,675.125 Q359.4063,674.625 358.7188,673.5547 Q358.0313,672.4844 358.0313,671.2031 L358.0313,670.0469 Q358.0313,668.7188 358.6484,667.5703 Q359.2656,666.4219 360.3594,665.8047 Q361.4531,665.1875 362.6875,665.1875 Q363.4219,665.1875 364.0703,665.3516 Q364.7188,665.5156 365.2656,665.875 Z "/><text fill="#000000" font-family="sans-serif" font-size="12" lengthAdjust="spacingAndGlyphs" textLength="97" x="376.5" y="674.9102">StatisticController</text><line style="stroke: #000000; stroke-width: 1.5;" x1="348.5" x2="475.5" y1="686" y2="686"/><line style="stroke: #000000; stroke-width: 1.5;" x1="348.5" x2="475.5" y1="694" y2="694"/><!--class bioladen.data.statistic.Chart--><rect fill="url(#g103bop5zkpelo0)" filter="url(#f103bop5zkpelo)" height="208.3828" id="bioladen.data.statistic.Chart" style="stroke: #000000; stroke-width: 1.5;" width="485" x="62.5" y="104"/><ellipse cx="267.25" cy="124.0938" fill="#A9DCDF" rx="11" ry="11" style="stroke: #000000; stroke-width: 1.0;"/><path d="M269.4375,125.8594 L265.2969,125.8594 L264.875,126.8906 L265.2969,126.8906 Q265.9063,126.8906 266.1719,127.125 Q266.4375,127.3594 266.4375,127.75 Q266.4375,128.125 266.1719,128.3594 Q265.9063,128.5938 265.2969,128.5938 L263,128.5938 Q262.3906,128.5938 262.1328,128.3594 Q261.875,128.125 261.875,127.7344 Q261.875,127.3594 262.1484,127.1172 Q262.4219,126.875 263.0469,126.8906 L265.7188,120.2344 L264.6094,120.2344 Q264,120.2344 263.7344,120 Q263.4688,119.7656 263.4688,119.375 Q263.4688,119 263.7344,118.7656 Q264,118.5313 264.6094,118.5313 L268.2813,118.5313 L271.6719,126.8906 Q272.2656,126.8906 272.4531,127.0313 Q272.8438,127.2969 272.8438,127.75 Q272.8438,128.125 272.5859,128.3594 Q272.3281,128.5938 271.7188,128.5938 L269.4219,128.5938 Q268.8125,128.5938 268.5469,128.3594 Q268.2813,128.125 268.2813,127.7344 Q268.2813,127.3594 268.5469,127.125 Q268.8125,126.8906 269.4219,126.8906 L269.8438,126.8906 L269.4375,125.8594 Z M268.7188,124.1563 L267.3594,120.7813 L265.9844,124.1563 L268.7188,124.1563 Z "/><text fill="#000000" font-family="sans-serif" font-size="12" font-style="italic" lengthAdjust="spacingAndGlyphs" textLength="71" x="285.75" y="121.457">«static, final»</text><text fill="#000000" font-family="sans-serif" font-size="12" font-style="italic" lengthAdjust="spacingAndGlyphs" textLength="30" x="306.25" y="136.5508">Chart</text><line style="stroke: #000000; stroke-width: 1.5;" x1="63.5" x2="546.5" y1="144.1875" y2="144.1875"/><text fill="#000000" font-family="sans-serif" font-size="11" font-style="italic" lengthAdjust="spacingAndGlyphs" textLength="110" x="68.5" y="159.6064">CHART_TYPE : String</text><text fill="#000000" font-family="sans-serif" font-size="11" lengthAdjust="spacingAndGlyphs" textLength="89" x="68.5" y="173.4424">TEMPLATE : String</text><text fill="#000000" font-family="sans-serif" font-size="11" lengthAdjust="spacingAndGlyphs" textLength="143" x="68.5" y="187.2783">TEMPLATE_DATASET : String</text><line style="stroke: #000000; stroke-width: 1.5;" x1="63.5" x2="546.5" y1="193.6953" y2="193.6953"/><text fill="#000000" font-family="sans-serif" font-size="11" lengthAdjust="spacingAndGlyphs" textLength="316" x="68.5" y="209.1143">generateChart(title : String, labels : List&lt;T&gt;, data : List&lt;T&gt;) : String</text><text fill="#000000" font-family="sans-serif" font-size="11" lengthAdjust="spacingAndGlyphs" textLength="266" x="68.5" y="222.9502">generateChart(title : String, dataset : Map&lt;T,S&gt;) : String</text><text fill="#000000" font-family="sans-serif" font-size="11" lengthAdjust="spacingAndGlyphs" textLength="374" x="68.5" y="236.7861">generateChart(title : String, labels : List&lt;List&lt;T&gt;&gt;, data : List&lt;List&lt;T&gt;&gt;) : String</text><text fill="#000000" font-family="sans-serif" font-size="11" lengthAdjust="spacingAndGlyphs" textLength="301" x="68.5" y="250.6221">generateChart(title : String, datasets : List&lt;Map&lt;T,S&gt;&gt;) : String</text><text fill="#000000" font-family="sans-serif" font-size="11" lengthAdjust="spacingAndGlyphs" textLength="380" x="68.5" y="264.458">generateChart(title : String, labels : List&lt;T&gt;, data : List&lt;T&gt;, color : Color) : String</text><text fill="#000000" font-family="sans-serif" font-size="11" lengthAdjust="spacingAndGlyphs" textLength="330" x="68.5" y="278.2939">generateChart(title : String, dataset : Map&lt;T,S&gt;, color : Color) : String</text><text fill="#000000" font-family="sans-serif" font-size="11" lengthAdjust="spacingAndGlyphs" textLength="473" x="68.5" y="292.1299">generateChart(title : String, labels : List&lt;List&lt;T&gt;&gt;, data : List&lt;List&lt;T&gt;&gt;, colors : List&lt;Color&gt;) : String</text><text fill="#000000" font-family="sans-serif" font-size="11" lengthAdjust="spacingAndGlyphs" textLength="400" x="68.5" y="305.9658">generateChart(title : String, datasets : List&lt;Map&lt;T,S&gt;&gt;, colors : List&lt;Color&gt;) : String</text><!--class bioladen.data.statistic.BarChart--><rect fill="url(#g103bop5zkpelo0)" filter="url(#f103bop5zkpelo)" height="61.8359" id="bioladen.data.statistic.BarChart" style="stroke: #000000; stroke-width: 1.5;" width="116" x="278" y="432"/><ellipse cx="308.75" cy="448" fill="#ADD1B2" rx="11" ry="11" style="stroke: #000000; stroke-width: 1.0;"/><path d="M311.5156,443.875 Q311.6719,443.6563 311.8594,443.5469 Q312.0469,443.4375 312.2656,443.4375 Q312.6406,443.4375 312.875,443.6953 Q313.1094,443.9531 313.1094,444.5625 L313.1094,446.0156 Q313.1094,446.625 312.875,446.8906 Q312.6406,447.1563 312.2656,447.1563 Q311.9219,447.1563 311.7188,446.9531 Q311.5156,446.7656 311.4063,446.25 Q311.3594,445.8906 311.1719,445.7031 Q310.8438,445.3281 310.2344,445.1094 Q309.625,444.8906 309,444.8906 Q308.2344,444.8906 307.6016,445.2188 Q306.9688,445.5469 306.4766,446.2969 Q305.9844,447.0469 305.9844,448.0781 L305.9844,449.1719 Q305.9844,450.4063 306.875,451.2266 Q307.7656,452.0469 309.3594,452.0469 Q310.2969,452.0469 310.9531,451.7969 Q311.3438,451.6406 311.7656,451.2031 Q312.0313,450.9375 312.1797,450.8594 Q312.3281,450.7813 312.5313,450.7813 Q312.8594,450.7813 313.1172,451.0391 Q313.375,451.2969 313.375,451.6406 Q313.375,451.9844 313.0313,452.3906 Q312.5313,452.9688 311.7344,453.2969 Q310.6563,453.75 309.3594,453.75 Q307.8438,453.75 306.6406,453.125 Q305.6563,452.625 304.9688,451.5547 Q304.2813,450.4844 304.2813,449.2031 L304.2813,448.0469 Q304.2813,446.7188 304.8984,445.5703 Q305.5156,444.4219 306.6094,443.8047 Q307.7031,443.1875 308.9375,443.1875 Q309.6719,443.1875 310.3203,443.3516 Q310.9688,443.5156 311.5156,443.875 Z "/><text fill="#000000" font-family="sans-serif" font-size="12" lengthAdjust="spacingAndGlyphs" textLength="49" x="326.25" y="452.9102">BarChart</text><line style="stroke: #000000; stroke-width: 1.5;" x1="279" x2="393" y1="464" y2="464"/><text fill="#000000" font-family="sans-serif" font-size="11" lengthAdjust="spacingAndGlyphs" textLength="104" x="284" y="479.4189">CHART_TYPE : String</text><line style="stroke: #000000; stroke-width: 1.5;" x1="279" x2="393" y1="485.8359" y2="485.8359"/><!--class bioladen.data.statistic.LineChart--><rect fill="url(#g103bop5zkpelo0)" filter="url(#f103bop5zkpelo)" height="61.8359" id="bioladen.data.statistic.LineChart" style="stroke: #000000; stroke-width: 1.5;" width="116" x="429" y="432"/><ellipse cx="457.5" cy="448" fill="#ADD1B2" rx="11" ry="11" style="stroke: #000000; stroke-width: 1.0;"/><path d="M460.2656,443.875 Q460.4219,443.6563 460.6094,443.5469 Q460.7969,443.4375 461.0156,443.4375 Q461.3906,443.4375 461.625,443.6953 Q461.8594,443.9531 461.8594,444.5625 L461.8594,446.0156 Q461.8594,446.625 461.625,446.8906 Q461.3906,447.1563 461.0156,447.1563 Q460.6719,447.1563 460.4688,446.9531 Q460.2656,446.7656 460.1563,446.25 Q460.1094,445.8906 459.9219,445.7031 Q459.5938,445.3281 458.9844,445.1094 Q458.375,444.8906 457.75,444.8906 Q456.9844,444.8906 456.3516,445.2188 Q455.7188,445.5469 455.2266,446.2969 Q454.7344,447.0469 454.7344,448.0781 L454.7344,449.1719 Q454.7344,450.4063 455.625,451.2266 Q456.5156,452.0469 458.1094,452.0469 Q459.0469,452.0469 459.7031,451.7969 Q460.0938,451.6406 460.5156,451.2031 Q460.7813,450.9375 460.9297,450.8594 Q461.0781,450.7813 461.2813,450.7813 Q461.6094,450.7813 461.8672,451.0391 Q462.125,451.2969 462.125,451.6406 Q462.125,451.9844 461.7813,452.3906 Q461.2813,452.9688 460.4844,453.2969 Q459.4063,453.75 458.1094,453.75 Q456.5938,453.75 455.3906,453.125 Q454.4063,452.625 453.7188,451.5547 Q453.0313,450.4844 453.0313,449.2031 L453.0313,448.0469 Q453.0313,446.7188 453.6484,445.5703 Q454.2656,444.4219 455.3594,443.8047 Q456.4531,443.1875 457.6875,443.1875 Q458.4219,443.1875 459.0703,443.3516 Q459.7188,443.5156 460.2656,443.875 Z "/><text fill="#000000" font-family="sans-serif" font-size="12" lengthAdjust="spacingAndGlyphs" textLength="54" x="474.5" y="452.9102">LineChart</text><line style="stroke: #000000; stroke-width: 1.5;" x1="430" x2="544" y1="464" y2="464"/><text fill="#000000" font-family="sans-serif" font-size="11" lengthAdjust="spacingAndGlyphs" textLength="104" x="435" y="479.4189">CHART_TYPE : String</text><line style="stroke: #000000; stroke-width: 1.5;" x1="430" x2="544" y1="485.8359" y2="485.8359"/><!--class bioladen.data.statistic.PieChart--><rect fill="url(#g103bop5zkpelo0)" filter="url(#f103bop5zkpelo)" height="61.8359" id="bioladen.data.statistic.PieChart" style="stroke: #000000; stroke-width: 1.5;" width="116" x="127" y="432"/><ellipse cx="158.2" cy="448" fill="#ADD1B2" rx="11" ry="11" style="stroke: #000000; stroke-width: 1.0;"/><path d="M160.9656,443.875 Q161.1219,443.6563 161.3094,443.5469 Q161.4969,443.4375 161.7156,443.4375 Q162.0906,443.4375 162.325,443.6953 Q162.5594,443.9531 162.5594,444.5625 L162.5594,446.0156 Q162.5594,446.625 162.325,446.8906 Q162.0906,447.1563 161.7156,447.1563 Q161.3719,447.1563 161.1688,446.9531 Q160.9656,446.7656 160.8563,446.25 Q160.8094,445.8906 160.6219,445.7031 Q160.2938,445.3281 159.6844,445.1094 Q159.075,444.8906 158.45,444.8906 Q157.6844,444.8906 157.0516,445.2188 Q156.4188,445.5469 155.9266,446.2969 Q155.4344,447.0469 155.4344,448.0781 L155.4344,449.1719 Q155.4344,450.4063 156.325,451.2266 Q157.2156,452.0469 158.8094,452.0469 Q159.7469,452.0469 160.4031,451.7969 Q160.7938,451.6406 161.2156,451.2031 Q161.4813,450.9375 161.6297,450.8594 Q161.7781,450.7813 161.9813,450.7813 Q162.3094,450.7813 162.5672,451.0391 Q162.825,451.2969 162.825,451.6406 Q162.825,451.9844 162.4813,452.3906 Q161.9813,452.9688 161.1844,453.2969 Q160.1063,453.75 158.8094,453.75 Q157.2938,453.75 156.0906,453.125 Q155.1063,452.625 154.4188,451.5547 Q153.7313,450.4844 153.7313,449.2031 L153.7313,448.0469 Q153.7313,446.7188 154.3484,445.5703 Q154.9656,444.4219 156.0594,443.8047 Q157.1531,443.1875 158.3875,443.1875 Q159.1219,443.1875 159.7703,443.3516 Q160.4188,443.5156 160.9656,443.875 Z "/><text fill="#000000" font-family="sans-serif" font-size="12" lengthAdjust="spacingAndGlyphs" textLength="48" x="175.8" y="452.9102">PieChart</text><line style="stroke: #000000; stroke-width: 1.5;" x1="128" x2="242" y1="464" y2="464"/><text fill="#000000" font-family="sans-serif" font-size="11" lengthAdjust="spacingAndGlyphs" textLength="104" x="133" y="479.4189">CHART_TYPE : String</text><line style="stroke: #000000; stroke-width: 1.5;" x1="128" x2="242" y1="485.8359" y2="485.8359"/><!--class bioladen.data.statistic.Statistic--><rect fill="url(#g103bop5zkpelo0)" filter="url(#f103bop5zkpelo)" height="56.1875" id="bioladen.data.statistic.Statistic" style="stroke: #000000; stroke-width: 1.5;" width="83" x="464.5" y="854"/><ellipse cx="479.5" cy="874.0938" fill="#ADD1B2" rx="11" ry="11" style="stroke: #000000; stroke-width: 1.0;"/><path d="M482.2656,869.9688 Q482.4219,869.75 482.6094,869.6406 Q482.7969,869.5313 483.0156,869.5313 Q483.3906,869.5313 483.625,869.7891 Q483.8594,870.0469 483.8594,870.6563 L483.8594,872.1094 Q483.8594,872.7188 483.625,872.9844 Q483.3906,873.25 483.0156,873.25 Q482.6719,873.25 482.4688,873.0469 Q482.2656,872.8594 482.1563,872.3438 Q482.1094,871.9844 481.9219,871.7969 Q481.5938,871.4219 480.9844,871.2031 Q480.375,870.9844 479.75,870.9844 Q478.9844,870.9844 478.3516,871.3125 Q477.7188,871.6406 477.2266,872.3906 Q476.7344,873.1406 476.7344,874.1719 L476.7344,875.2656 Q476.7344,876.5 477.625,877.3203 Q478.5156,878.1406 480.1094,878.1406 Q481.0469,878.1406 481.7031,877.8906 Q482.0938,877.7344 482.5156,877.2969 Q482.7813,877.0313 482.9297,876.9531 Q483.0781,876.875 483.2813,876.875 Q483.6094,876.875 483.8672,877.1328 Q484.125,877.3906 484.125,877.7344 Q484.125,878.0781 483.7813,878.4844 Q483.2813,879.0625 482.4844,879.3906 Q481.4063,879.8438 480.1094,879.8438 Q478.5938,879.8438 477.3906,879.2188 Q476.4063,878.7188 475.7188,877.6484 Q475.0313,876.5781 475.0313,875.2969 L475.0313,874.1406 Q475.0313,872.8125 475.6484,871.6641 Q476.2656,870.5156 477.3594,869.8984 Q478.4531,869.2813 479.6875,869.2813 Q480.4219,869.2813 481.0703,869.4453 Q481.7188,869.6094 482.2656,869.9688 Z "/><text fill="#000000" font-family="sans-serif" font-size="12" font-style="italic" lengthAdjust="spacingAndGlyphs" textLength="55" x="491.5" y="871.457">«Service»</text><text fill="#000000" font-family="sans-serif" font-size="12" lengthAdjust="spacingAndGlyphs" textLength="43" x="497.5" y="886.5508">Statistic</text><line style="stroke: #000000; stroke-width: 1.5;" x1="465.5" x2="546.5" y1="894.1875" y2="894.1875"/><line style="stroke: #000000; stroke-width: 1.5;" x1="465.5" x2="546.5" y1="902.1875" y2="902.1875"/><!--class bioladen.event.LogEvent--><rect fill="url(#g103bop5zkpelo0)" filter="url(#f103bop5zkpelo)" height="61.8359" id="bioladen.event.LogEvent" style="stroke: #000000; stroke-width: 1.5;" width="83" x="1228.5" y="647"/><ellipse cx="1243.5" cy="663" fill="#ADD1B2" rx="11" ry="11" style="stroke: #000000; stroke-width: 1.0;"/><path d="M1246.2656,658.875 Q1246.4219,658.6563 1246.6094,658.5469 Q1246.7969,658.4375 1247.0156,658.4375 Q1247.3906,658.4375 1247.625,658.6953 Q1247.8594,658.9531 1247.8594,659.5625 L1247.8594,661.0156 Q1247.8594,661.625 1247.625,661.8906 Q1247.3906,662.1563 1247.0156,662.1563 Q1246.6719,662.1563 1246.4688,661.9531 Q1246.2656,661.7656 1246.1563,661.25 Q1246.1094,660.8906 1245.9219,660.7031 Q1245.5938,660.3281 1244.9844,660.1094 Q1244.375,659.8906 1243.75,659.8906 Q1242.9844,659.8906 1242.3516,660.2188 Q1241.7188,660.5469 1241.2266,661.2969 Q1240.7344,662.0469 1240.7344,663.0781 L1240.7344,664.1719 Q1240.7344,665.4063 1241.625,666.2266 Q1242.5156,667.0469 1244.1094,667.0469 Q1245.0469,667.0469 1245.7031,666.7969 Q1246.0938,666.6406 1246.5156,666.2031 Q1246.7813,665.9375 1246.9297,665.8594 Q1247.0781,665.7813 1247.2813,665.7813 Q1247.6094,665.7813 1247.8672,666.0391 Q1248.125,666.2969 1248.125,666.6406 Q1248.125,666.9844 1247.7813,667.3906 Q1247.2813,667.9688 1246.4844,668.2969 Q1245.4063,668.75 1244.1094,668.75 Q1242.5938,668.75 1241.3906,668.125 Q1240.4063,667.625 1239.7188,666.5547 Q1239.0313,665.4844 1239.0313,664.2031 L1239.0313,663.0469 Q1239.0313,661.7188 1239.6484,660.5703 Q1240.2656,659.4219 1241.3594,658.8047 Q1242.4531,658.1875 1243.6875,658.1875 Q1244.4219,658.1875 1245.0703,658.3516 Q1245.7188,658.5156 1246.2656,658.875 Z "/><text fill="#000000" font-family="sans-serif" font-size="12" lengthAdjust="spacingAndGlyphs" textLength="51" x="1257.5" y="667.9102">LogEvent</text><line style="stroke: #000000; stroke-width: 1.5;" x1="1229.5" x2="1310.5" y1="679" y2="679"/><line style="stroke: #000000; stroke-width: 1.5;" x1="1229.5" x2="1310.5" y1="687" y2="687"/><text fill="#000000" font-family="sans-serif" font-size="11" lengthAdjust="spacingAndGlyphs" textLength="59" x="1234.5" y="702.4189">+LogEvent()</text><!--class bioladen.event.LogEventListener--><rect fill="url(#g103bop5zkpelo0)" filter="url(#f103bop5zkpelo)" height="61.8359" id="bioladen.event.LogEventListener" style="stroke: #000000; stroke-width: 1.5;" width="192" x="1001" y="647"/><ellipse cx="1044.8" cy="663" fill="#ADD1B2" rx="11" ry="11" style="stroke: #000000; stroke-width: 1.0;"/><path d="M1047.5656,658.875 Q1047.7219,658.6563 1047.9094,658.5469 Q1048.0969,658.4375 1048.3156,658.4375 Q1048.6906,658.4375 1048.925,658.6953 Q1049.1594,658.9531 1049.1594,659.5625 L1049.1594,661.0156 Q1049.1594,661.625 1048.925,661.8906 Q1048.6906,662.1563 1048.3156,662.1563 Q1047.9719,662.1563 1047.7688,661.9531 Q1047.5656,661.7656 1047.4563,661.25 Q1047.4094,660.8906 1047.2219,660.7031 Q1046.8938,660.3281 1046.2844,660.1094 Q1045.675,659.8906 1045.05,659.8906 Q1044.2844,659.8906 1043.6516,660.2188 Q1043.0188,660.5469 1042.5266,661.2969 Q1042.0344,662.0469 1042.0344,663.0781 L1042.0344,664.1719 Q1042.0344,665.4063 1042.925,666.2266 Q1043.8156,667.0469 1045.4094,667.0469 Q1046.3469,667.0469 1047.0031,666.7969 Q1047.3938,666.6406 1047.8156,666.2031 Q1048.0813,665.9375 1048.2297,665.8594 Q1048.3781,665.7813 1048.5813,665.7813 Q1048.9094,665.7813 1049.1672,666.0391 Q1049.425,666.2969 1049.425,666.6406 Q1049.425,666.9844 1049.0813,667.3906 Q1048.5813,667.9688 1047.7844,668.2969 Q1046.7063,668.75 1045.4094,668.75 Q1043.8938,668.75 1042.6906,668.125 Q1041.7063,667.625 1041.0188,666.5547 Q1040.3313,665.4844 1040.3313,664.2031 L1040.3313,663.0469 Q1040.3313,661.7188 1040.9484,660.5703 Q1041.5656,659.4219 1042.6594,658.8047 Q1043.7531,658.1875 1044.9875,658.1875 Q1045.7219,658.1875 1046.3703,658.3516 Q1047.0188,658.5156 1047.5656,658.875 Z "/><text fill="#000000" font-family="sans-serif" font-size="12" lengthAdjust="spacingAndGlyphs" textLength="96" x="1065.2" y="667.9102">LogEventListener</text><line style="stroke: #000000; stroke-width: 1.5;" x1="1002" x2="1192" y1="679" y2="679"/><line style="stroke: #000000; stroke-width: 1.5;" x1="1002" x2="1192" y1="687" y2="687"/><text fill="#000000" font-family="sans-serif" font-size="11" lengthAdjust="spacingAndGlyphs" textLength="180" x="1007" y="702.4189">+onApplicationEvent(LogEvent) : void</text><!--class org.salespointframework.time.BusinessTime--><rect fill="url(#g103bop5zkpelo0)" filter="url(#f103bop5zkpelo)" height="56.1875" id="org.salespointframework.time.BusinessTime" style="stroke: #000000; stroke-width: 1.5;" width="110" x="1810" y="854"/><ellipse cx="1825" cy="874.0938" fill="#B4A7E5" rx="11" ry="11" style="stroke: #000000; stroke-width: 1.0;"/><path d="M1825.9531,870.7344 L1825.9531,877.3906 L1827.6719,877.3906 Q1828.2813,877.3906 1828.5469,877.625 Q1828.8125,877.8594 1828.8125,878.25 Q1828.8125,878.625 1828.5469,878.8594 Q1828.2813,879.0938 1827.6719,879.0938 L1822.5313,879.0938 Q1821.9219,879.0938 1821.6563,878.8594 Q1821.3906,878.625 1821.3906,878.2344 Q1821.3906,877.8594 1821.6563,877.625 Q1821.9219,877.3906 1822.5313,877.3906 L1824.25,877.3906 L1824.25,870.7344 L1822.5313,870.7344 Q1821.9219,870.7344 1821.6563,870.5 Q1821.3906,870.2656 1821.3906,869.875 Q1821.3906,869.5 1821.6563,869.2656 Q1821.9219,869.0313 1822.5313,869.0313 L1827.6719,869.0313 Q1828.2813,869.0313 1828.5469,869.2656 Q1828.8125,869.5 1828.8125,869.875 Q1828.8125,870.2656 1828.5469,870.5 Q1828.2813,870.7344 1827.6719,870.7344 L1825.9531,870.7344 Z "/><text fill="#000000" font-family="sans-serif" font-size="12" font-style="italic" lengthAdjust="spacingAndGlyphs" textLength="55" x="1850.5" y="871.457">«Service»</text><text fill="#000000" font-family="sans-serif" font-size="12" font-style="italic" lengthAdjust="spacingAndGlyphs" textLength="78" x="1839" y="886.5508">BusinessTime</text><line style="stroke: #000000; stroke-width: 1.5;" x1="1811" x2="1919" y1="894.1875" y2="894.1875"/><line style="stroke: #000000; stroke-width: 1.5;" x1="1811" x2="1919" y1="902.1875" y2="902.1875"/><!--class org.springframework.context.ApplicationEvent--><rect fill="url(#g103bop5zkpelo0)" filter="url(#f103bop5zkpelo)" height="103.3438" id="org.springframework.context.ApplicationEvent" style="stroke: #000000; stroke-width: 1.5;" width="137" x="1467.5" y="830.5"/><ellipse cx="1489.25" cy="846.5" fill="#ADD1B2" rx="11" ry="11" style="stroke: #000000; stroke-width: 1.0;"/><path d="M1492.0156,842.375 Q1492.1719,842.1563 1492.3594,842.0469 Q1492.5469,841.9375 1492.7656,841.9375 Q1493.1406,841.9375 1493.375,842.1953 Q1493.6094,842.4531 1493.6094,843.0625 L1493.6094,844.5156 Q1493.6094,845.125 1493.375,845.3906 Q1493.1406,845.6563 1492.7656,845.6563 Q1492.4219,845.6563 1492.2188,845.4531 Q1492.0156,845.2656 1491.9063,844.75 Q1491.8594,844.3906 1491.6719,844.2031 Q1491.3438,843.8281 1490.7344,843.6094 Q1490.125,843.3906 1489.5,843.3906 Q1488.7344,843.3906 1488.1016,843.7188 Q1487.4688,844.0469 1486.9766,844.7969 Q1486.4844,845.5469 1486.4844,846.5781 L1486.4844,847.6719 Q1486.4844,848.9063 1487.375,849.7266 Q1488.2656,850.5469 1489.8594,850.5469 Q1490.7969,850.5469 1491.4531,850.2969 Q1491.8438,850.1406 1492.2656,849.7031 Q1492.5313,849.4375 1492.6797,849.3594 Q1492.8281,849.2813 1493.0313,849.2813 Q1493.3594,849.2813 1493.6172,849.5391 Q1493.875,849.7969 1493.875,850.1406 Q1493.875,850.4844 1493.5313,850.8906 Q1493.0313,851.4688 1492.2344,851.7969 Q1491.1563,852.25 1489.8594,852.25 Q1488.3438,852.25 1487.1406,851.625 Q1486.1563,851.125 1485.4688,850.0547 Q1484.7813,848.9844 1484.7813,847.7031 L1484.7813,846.5469 Q1484.7813,845.2188 1485.3984,844.0703 Q1486.0156,842.9219 1487.1094,842.3047 Q1488.2031,841.6875 1489.4375,841.6875 Q1490.1719,841.6875 1490.8203,841.8516 Q1491.4688,842.0156 1492.0156,842.375 Z "/><text fill="#000000" font-family="sans-serif" font-size="12" lengthAdjust="spacingAndGlyphs" textLength="90" x="1504.75" y="851.4102">ApplicationEvent</text><line style="stroke: #000000; stroke-width: 1.5;" x1="1468.5" x2="1603.5" y1="862.5" y2="862.5"/><text fill="#000000" font-family="sans-serif" font-size="11" lengthAdjust="spacingAndGlyphs" text-decoration="underline" textLength="113" x="1473.5" y="877.9189">-serialVersionUID : long</text><line style="stroke: #000000; stroke-width: 1.0;" x1="1473.5" x2="1586.5" y1="879.9189" y2="879.9189"/><text fill="#000000" font-family="sans-serif" font-size="11" lengthAdjust="spacingAndGlyphs" textLength="81" x="1473.5" y="891.7549">-timestamp : long</text><line style="stroke: #000000; stroke-width: 1.5;" x1="1468.5" x2="1603.5" y1="898.1719" y2="898.1719"/><text fill="#000000" font-family="sans-serif" font-size="11" lengthAdjust="spacingAndGlyphs" textLength="125" x="1473.5" y="913.5908">+ApplicationEvent(Object)</text><text fill="#000000" font-family="sans-serif" font-size="11" lengthAdjust="spacingAndGlyphs" textLength="109" x="1473.5" y="927.4268">+getTimestamp() : long</text><!--class org.springframework.context.ApplicationEventPublisher--><rect fill="url(#g103bop5zkpelo0)" filter="url(#f103bop5zkpelo)" height="75.6719" id="org.springframework.context.ApplicationEventPublisher" style="stroke: #000000; stroke-width: 1.5;" width="190" x="1441" y="640"/><ellipse cx="1461.85" cy="656" fill="#B4A7E5" rx="11" ry="11" style="stroke: #000000; stroke-width: 1.0;"/><path d="M1462.8031,652.6406 L1462.8031,659.2969 L1464.5219,659.2969 Q1465.1313,659.2969 1465.3969,659.5313 Q1465.6625,659.7656 1465.6625,660.1563 Q1465.6625,660.5313 1465.3969,660.7656 Q1465.1313,661 1464.5219,661 L1459.3813,661 Q1458.7719,661 1458.5063,660.7656 Q1458.2406,660.5313 1458.2406,660.1406 Q1458.2406,659.7656 1458.5063,659.5313 Q1458.7719,659.2969 1459.3813,659.2969 L1461.1,659.2969 L1461.1,652.6406 L1459.3813,652.6406 Q1458.7719,652.6406 1458.5063,652.4063 Q1458.2406,652.1719 1458.2406,651.7813 Q1458.2406,651.4063 1458.5063,651.1719 Q1458.7719,650.9375 1459.3813,650.9375 L1464.5219,650.9375 Q1465.1313,650.9375 1465.3969,651.1719 Q1465.6625,651.4063 1465.6625,651.7813 Q1465.6625,652.1719 1465.3969,652.4063 Q1465.1313,652.6406 1464.5219,652.6406 L1462.8031,652.6406 Z "/><text fill="#000000" font-family="sans-serif" font-size="12" font-style="italic" lengthAdjust="spacingAndGlyphs" textLength="145" x="1477.15" y="660.9102">ApplicationEventPublisher</text><line style="stroke: #000000; stroke-width: 1.5;" x1="1442" x2="1630" y1="672" y2="672"/><line style="stroke: #000000; stroke-width: 1.5;" x1="1442" x2="1630" y1="680" y2="680"/><text fill="#000000" font-family="sans-serif" font-size="11" lengthAdjust="spacingAndGlyphs" textLength="178" x="1447" y="695.4189">publishEvent(ApplicationEvent) : void</text><text fill="#000000" font-family="sans-serif" font-size="11" lengthAdjust="spacingAndGlyphs" textLength="129" x="1447" y="709.2549">publishEvent(Object) : void</text><!--class org.springframework.context.ApplicationListener--><rect fill="url(#g103bop5zkpelo0)" filter="url(#f103bop5zkpelo)" height="61.8359" id="org.springframework.context.ApplicationListener" style="stroke: #000000; stroke-width: 1.5;" width="290" x="1416" y="1099"/><ellipse cx="1431" cy="1115" fill="#B4A7E5" rx="11" ry="11" style="stroke: #000000; stroke-width: 1.0;"/><path d="M1431.9531,1111.6406 L1431.9531,1118.2969 L1433.6719,1118.2969 Q1434.2813,1118.2969 1434.5469,1118.5313 Q1434.8125,1118.7656 1434.8125,1119.1563 Q1434.8125,1119.5313 1434.5469,1119.7656 Q1434.2813,1120 1433.6719,1120 L1428.5313,1120 Q1427.9219,1120 1427.6563,1119.7656 Q1427.3906,1119.5313 1427.3906,1119.1406 Q1427.3906,1118.7656 1427.6563,1118.5313 Q1427.9219,1118.2969 1428.5313,1118.2969 L1430.25,1118.2969 L1430.25,1111.6406 L1428.5313,1111.6406 Q1427.9219,1111.6406 1427.6563,1111.4063 Q1427.3906,1111.1719 1427.3906,1110.7813 Q1427.3906,1110.4063 1427.6563,1110.1719 Q1427.9219,1109.9375 1428.5313,1109.9375 L1433.6719,1109.9375 Q1434.2813,1109.9375 1434.5469,1110.1719 Q1434.8125,1110.4063 1434.8125,1110.7813 Q1434.8125,1111.1719 1434.5469,1111.4063 Q1434.2813,1111.6406 1433.6719,1111.6406 L1431.9531,1111.6406 Z "/><text fill="#000000" font-family="sans-serif" font-size="12" font-style="italic" lengthAdjust="spacingAndGlyphs" textLength="105" x="1445" y="1119.9102">ApplicationListener</text><rect fill="#FFFFFF" height="17.0938" style="stroke: #000000; stroke-width: 1.0; stroke-dasharray: 2.0,2.0;" width="151" x="1558" y="1096"/><text fill="#000000" font-family="sans-serif" font-size="12" font-style="italic" lengthAdjust="spacingAndGlyphs" textLength="149" x="1559" y="1109.457">E extends ApplicationEvent</text><line style="stroke: #000000; stroke-width: 1.5;" x1="1417" x2="1705" y1="1131" y2="1131"/><line style="stroke: #000000; stroke-width: 1.5;" x1="1417" x2="1705" y1="1139" y2="1139"/><text fill="#000000" font-family="sans-serif" font-size="11" lengthAdjust="spacingAndGlyphs" textLength="135" x="1422" y="1154.4189">onApplicationEvent(E) : void</text><!--link java.lang.Iterable to bioladen.data.log.LogFilter--><path d="M1428.75,507.279 C1428.75,507.279 1428.75,635 1428.75,635 C1428.75,635 1062.85,635 878.109,635 " fill="none" id="java.lang.Iterable-bioladen.data.log.LogFilter" style="stroke: #000000; stroke-width: 1.0;"/><polygon fill="none" points="1421.75,507.279,1428.75,487.279,1435.75,507.279,1421.75,507.279" style="stroke: #000000; stroke-width: 1.0;"/><!--link bioladen.data.log.LogEntry to bioladen.data.log.LogLevel--><path d="M881,933.687 C881,933.687 881,1079.629 881,1079.629 " fill="none" id="bioladen.data.log.LogEntry-bioladen.data.log.LogLevel" style="stroke: #000000; stroke-width: 1.0;"/><polygon fill="#000000" points="881,1084.629,885,1075.629,881,1079.629,877,1075.629,881,1084.629" style="stroke: #000000; stroke-width: 1.0;"/><text fill="#000000" font-family="sans-serif" font-size="13" lengthAdjust="spacingAndGlyphs" textLength="7" x="873.5297" y="955.2031">1</text><text fill="#000000" font-family="sans-serif" font-size="13" lengthAdjust="spacingAndGlyphs" textLength="7" x="873.4641" y="1074.0163">1</text><!--link bioladen.data.log.LogEntry to bioladen.data.log.Log--><path d="M828.75,933.924 C828.75,982.948 828.75,1049 828.75,1049 C828.75,1049 817.005,1049 817.005,1049 " fill="none" id="bioladen.data.log.LogEntry-bioladen.data.log.Log" style="stroke: #000000; stroke-width: 1.0;"/><polygon fill="#000000" points="804.005,1049,810.005,1053,816.005,1049,810.005,1045,804.005,1049" style="stroke: #000000; stroke-width: 1.0;"/><text fill="#000000" font-family="sans-serif" font-size="13" lengthAdjust="spacingAndGlyphs" textLength="20" x="800.3852" y="955.4719">0..*</text><text fill="#000000" font-family="sans-serif" font-size="13" lengthAdjust="spacingAndGlyphs" textLength="7" x="811.853" y="1039.687">1</text><!--link bioladen.data.log.LogFilter to bioladen.data.log.LogExplorer--><path d="M726,732.123 C726,732.123 726,836.791 726,836.791 " fill="none" id="bioladen.data.log.LogFilter-bioladen.data.log.LogExplorer" style="stroke: #000000; stroke-width: 1.0;"/><polygon fill="#000000" points="726,727.123,722,736.123,726,732.123,730,736.123,726,727.123" style="stroke: #000000; stroke-width: 1.0;"/><!--link bioladen.data.log.LogExplorer to bioladen.data.log.Log--><path d="M694,947.199 C694,947.199 694,1029.85 694,1029.85 " fill="none" id="bioladen.data.log.LogExplorer-bioladen.data.log.Log" style="stroke: #000000; stroke-width: 1.0;"/><polygon fill="none" points="687,947.199,694,927.199,701,947.199,687,947.199" style="stroke: #000000; stroke-width: 1.0;"/><!--link bioladen.data.statistic.Chart to bioladen.data.statistic.BarChart--><path d="M336,332.086 C336,332.086 336,431.863 336,431.863 " fill="none" id="bioladen.data.statistic.Chart-bioladen.data.statistic.BarChart" style="stroke: #000000; stroke-width: 1.0;"/><polygon fill="none" points="329,332.086,336,312.086,343,332.086,329,332.086" style="stroke: #000000; stroke-width: 1.0;"/><!--link bioladen.data.statistic.Chart to bioladen.data.statistic.LineChart--><path d="M487,332.086 C487,332.086 487,431.863 487,431.863 " fill="none" id="bioladen.data.statistic.Chart-bioladen.data.statistic.LineChart" style="stroke: #000000; stroke-width: 1.0;"/><polygon fill="none" points="480,332.086,487,312.086,494,332.086,480,332.086" style="stroke: #000000; stroke-width: 1.0;"/><!--link bioladen.data.statistic.Chart to bioladen.data.statistic.PieChart--><path d="M185,332.086 C185,332.086 185,431.863 185,431.863 " fill="none" id="bioladen.data.statistic.Chart-bioladen.data.statistic.PieChart" style="stroke: #000000; stroke-width: 1.0;"/><polygon fill="none" points="178,332.086,185,312.086,192,332.086,178,332.086" style="stroke: #000000; stroke-width: 1.0;"/><!--link bioladen.data.statistic.PieChart to bioladen.data.statistic.StatisticController--><path d="M185,499.263 C185,499.263 185,678 185,678 C185,678 280.16,678 347.255,678 " fill="none" id="bioladen.data.statistic.PieChart-bioladen.data.statistic.StatisticController" style="stroke: #000000; stroke-width: 1.0;"/><polygon fill="#000000" points="185,494.263,181,503.263,185,499.263,189,503.263,185,494.263" style="stroke: #000000; stroke-width: 1.0;"/><!--link bioladen.data.statistic.LineChart to bioladen.data.statistic.StatisticController--><path d="M452.75,499.263 C452.75,499.263 452.75,653.702 452.75,653.702 " fill="none" id="bioladen.data.statistic.LineChart-bioladen.data.statistic.StatisticController" style="stroke: #000000; stroke-width: 1.0;"/><polygon fill="#000000" points="452.75,494.263,448.75,503.263,452.75,499.263,456.75,503.263,452.75,494.263" style="stroke: #000000; stroke-width: 1.0;"/><!--link bioladen.data.statistic.BarChart to bioladen.data.statistic.StatisticController--><path d="M370.75,499.263 C370.75,499.263 370.75,653.702 370.75,653.702 " fill="none" id="bioladen.data.statistic.BarChart-bioladen.data.statistic.StatisticController" style="stroke: #000000; stroke-width: 1.0;"/><polygon fill="#000000" points="370.75,494.263,366.75,503.263,370.75,499.263,374.75,503.263,370.75,494.263" style="stroke: #000000; stroke-width: 1.0;"/><!--link bioladen.data.statistic.StatisticController to bioladen.data.statistic.Statistic--><path d="M470.5,702.203 C470.5,702.203 470.5,848.916 470.5,848.916 " fill="none" id="bioladen.data.statistic.StatisticController-bioladen.data.statistic.Statistic" style="stroke: #000000; stroke-width: 1.0;"/><polygon fill="#000000" points="470.5,853.916,474.5,844.916,470.5,848.916,466.5,844.916,470.5,853.916" style="stroke: #000000; stroke-width: 1.0;"/><!--link bioladen.data.statistic.Statistic to bioladen.data.log.Log--><path d="M506,910.449 C506,975.59 506,1130 506,1130 C506,1130 592.792,1130 592.792,1130 " fill="none" id="bioladen.data.statistic.Statistic-bioladen.data.log.Log" style="stroke: #000000; stroke-width: 1.0;"/><polygon fill="#000000" points="605.792,1130,599.792,1126,593.792,1130,599.792,1134,605.792,1130" style="stroke: #000000; stroke-width: 1.0;"/><!--link bioladen.event.LogEventListener to bioladen.data.statistic.Statistic--><path d="M1065,709.127 C1065,738.804 1065,779 1065,779 C1065,779 510.75,779 510.75,779 C510.75,779 510.75,823.358 510.75,853.855 " fill="none" id="bioladen.event.LogEventListener-bioladen.data.statistic.Statistic" style="stroke: #000000; stroke-width: 1.0;"/><!--link bioladen.event.LogEvent to bioladen.data.log.Log--><path d="M1256.17,714.176 C1256.17,714.176 1256.17,1067 1256.17,1067 C1256.17,1067 962.858,1067 804.174,1067 " fill="none" id="bioladen.event.LogEvent-bioladen.data.log.Log" style="stroke: #000000; stroke-width: 1.0;"/><polygon fill="#000000" points="1256.17,709.176,1252.17,718.176,1256.17,714.176,1260.17,718.176,1256.17,709.176" style="stroke: #000000; stroke-width: 1.0;"/><!--link bioladen.data.log.LogEntry to org.salespointframework.time.BusinessTime--><path d="M933.25,933.757 C933.25,958.158 933.25,982 933.25,982 C933.25,982 1865,982 1865,982 C1865,982 1865,915.122 1865,915.122 " fill="none" id="bioladen.data.log.LogEntry-org.salespointframework.time.BusinessTime" style="stroke: #000000; stroke-width: 1.0;"/><polygon fill="#000000" points="1865,910.122,1861,919.122,1865,915.122,1869,919.122,1865,910.122" style="stroke: #000000; stroke-width: 1.0;"/><!--link org.springframework.context.ApplicationEvent to org.springframework.context.ApplicationListener--><path d="M1536,938.687 C1536,938.687 1536,1098.754 1536,1098.754 " fill="none" id="org.springframework.context.ApplicationEvent-org.springframework.context.ApplicationListener" style="stroke: #000000; stroke-width: 1.0;"/><polygon fill="#000000" points="1536,933.687,1532,942.687,1536,938.687,1540,942.687,1536,933.687" style="stroke: #000000; stroke-width: 1.0;"/><text fill="#000000" font-family="sans-serif" font-size="13" lengthAdjust="spacingAndGlyphs" textLength="45" x="1576.5" y="980.4951">«binds»</text><text fill="#000000" font-family="sans-serif" font-size="13" lengthAdjust="spacingAndGlyphs" textLength="96" x="1553" y="996.8467">ApplicationEvent</text><!--link org.springframework.context.ApplicationEventPublisher to org.springframework.context.ApplicationEvent--><path d="M1536,716.371 C1536,716.371 1536,825.322 1536,825.322 " fill="none" id="org.springframework.context.ApplicationEventPublisher-org.springframework.context.ApplicationEvent" style="stroke: #000000; stroke-width: 1.0;"/><polygon fill="#000000" points="1536,830.322,1540,821.322,1536,825.322,1532,821.322,1536,830.322" style="stroke: #000000; stroke-width: 1.0;"/><!--link bioladen.event.LogEvent to org.springframework.context.ApplicationEvent--><path d="M1283.83,709.428 C1283.83,766.652 1283.83,882 1283.83,882 C1283.83,882 1447.43,882 1447.43,882 " fill="none" id="bioladen.event.LogEvent-org.springframework.context.ApplicationEvent" style="stroke: #000000; stroke-width: 1.0;"/><polygon fill="none" points="1447.43,875,1467.43,882,1447.43,889,1447.43,875" style="stroke: #000000; stroke-width: 1.0;"/><!--link bioladen.event.LogEventListener to org.springframework.context.ApplicationListener--><path d="M1129,709.068 C1129,811.187 1129,1130 1129,1130 C1129,1130 1395.95,1130 1395.95,1130 " fill="none" id="bioladen.event.LogEventListener-org.springframework.context.ApplicationListener" style="stroke: #000000; stroke-width: 1.0;"/><polygon fill="none" points="1395.95,1123,1415.95,1130,1395.95,1137,1395.95,1123" style="stroke: #000000; stroke-width: 1.0;"/><!--
@startuml

skinparam class {
	BackgroundColor #LightCoral/LightPink
    BorderColor Black
    ArrowColor  Black
}

skinparam package {
    FontColor Grey
    BorderColor DarkMagenta
}

skinparam classAttributeIconSize 0
skinparam linetype ortho


rectangle JavaSE-1.8{
    namespace java.lang {

    }
}


rectangle Bioladen {
    namespace bioladen.data.log {

        class Log {
            -log(LogLevel, Order) : boolean
            -log(LogLevel, Sale) : boolean
            -log(LogLevel, Cancellation) : boolean
            -log(LogLevel, LogInventory) : boolean
            -log(LogLevel, User) : boolean
            +info(Object, String) : boolean
            +warning(Object, String) : boolean
            +error(Object, String) : boolean
            +getLog() : Iterable<LogEntry>
            +getLog()
            -publishLogEvent()
        }

        class LogEntry {
            logLevel : LogLevel
            thrownBy : String
            logTime : LocalDateTime
            content : Object
        }



        enum LogLevel {
            INFO
            WARNING
            ERROR
        }


        class LogExplorer{
            +filterBy(Duration) : LogExplorer
            +filterBy(LogLevel) : LogExplorer
            +filterBy(ThrownBy) : LogExplorer
        }

        class LogFilter <<static>> extends java.lang.Iterable  {
            +filterBy(LogFilter, Duration) : LogFilter
            +filterBy(LogFilter, LogLevel) : LogFilter
            +filterBy(LogFilter, ThrownBy) : LogFilter
        }


        LogEntry "1" - -> "1" LogLevel
        LogEntry "0..*" - -* "1" Log
        LogFilter <- - LogExplorer
        LogExplorer <|- - Log

    }

    namespace bioladen.data.statistic {
       class StatisticController {

        }

        abstract class Chart <<static, final>>{
            {abstract} CHART_TYPE : String
            TEMPLATE : String
            TEMPLATE_DATASET : String
            generateChart(title : String, labels : List<T>, data : List<T>) : String
            generateChart(title : String, dataset : Map<T,S>) : String
            generateChart(title : String, labels : List<List<T>>, data : List<List<T>>) : String
            generateChart(title : String, datasets : List<Map<T,S>>) : String
            generateChart(title : String, labels : List<T>, data : List<T>, color : Color) : String
            generateChart(title : String, dataset : Map<T,S>, color : Color) : String
            generateChart(title : String, labels : List<List<T>>, data : List<List<T>>, colors : List<Color>) : String
            generateChart(title : String, datasets : List<Map<T,S>>, colors : List<Color>) : String
        }

        class BarChart extends bioladen.data.statistic.Chart {
            CHART_TYPE : String
        }

        class LineChart extends bioladen.data.statistic.Chart {
            CHART_TYPE : String
        }

        class PieChart extends bioladen.data.statistic.Chart {
            CHART_TYPE : String
        }

        class Statistic <<Service>>{

        }

        PieChart <- - StatisticController
        LineChart <- - StatisticController
        BarChart <- - StatisticController
        StatisticController - -> Statistic
        Statistic - -* bioladen.data.log.Log



    }

    namespace bioladen.event {
        class LogEvent {
            +LogEvent()

        }

        class LogEventListener {
            +onApplicationEvent(LogEvent) : void
        }

        LogEventListener - - bioladen.data.statistic.Statistic
    }


    bioladen.event.LogEvent <- - bioladen.data.log.Log

}

rectangle salespoint-framework-7.0.0.RELEASE.jar {
    namespace org.salespointframework.time {

        interface BusinessTime <<Service>> {

        }

        BusinessTime <-right- bioladen.data.log.LogEntry
    }
}


rectangle spring-data-comments-2.1.0.RELEASE.jar as spring {
    namespace org.springframework.context{

        class ApplicationEvent {
            {static} - serialVersionUID : long
            - timestamp : long
            + ApplicationEvent(Object)
            + getTimestamp() : long
        }

        interface ApplicationEventPublisher {
            publishEvent(ApplicationEvent) : void
            publishEvent(Object) : void
        }

        interface ApplicationListener <E extends ApplicationEvent>{
            onApplicationEvent(E) : void
        }

        ApplicationEvent <- - ApplicationListener: <<binds>>\n ApplicationEvent
        ApplicationEventPublisher - -> ApplicationEvent
    }

}

bioladen.event.LogEvent - -|> org.springframework.context.ApplicationEvent
bioladen.event.LogEventListener - -|> org.springframework.context.ApplicationListener


@enduml

PlantUML version 1.2018.12(Sun Oct 21 12:15:15 CEST 2018)
(GPL source distribution)
Java Runtime: Java(TM) SE Runtime Environment
JVM: Java HotSpot(TM) Client VM
Java Version: 1.8.0_181-b13
Operating System: Windows 10
OS Version: 10.0
Default Encoding: Cp1252
Language: de
Country: DE
--></g></svg>