<?xml version="1.0" encoding="UTF-8" standalone="no"?><svg xmlns="http://www.w3.org/2000/svg" xmlns:xlink="http://www.w3.org/1999/xlink" contentScriptType="application/ecmascript" contentStyleType="text/css" height="145px" preserveAspectRatio="none" style="width:538px;height:145px;" version="1.1" viewBox="0 0 538 145" width="538px" zoomAndPan="magnify"><defs><filter height="300%" id="f17xtsxqm7xg3u" width="300%" x="-1" y="-1"><feGaussianBlur result="blurOut" stdDeviation="2.0"/><feColorMatrix in="blurOut" result="blurOut2" type="matrix" values="0 0 0 0 0 0 0 0 0 0 0 0 0 0 0 0 0 0 .4 0"/><feOffset dx="4.0" dy="4.0" in="blurOut2" result="blurOut3"/><feBlend in="SourceGraphic" in2="blurOut3" mode="normal"/></filter><linearGradient id="g17xtsxqm7xg3u0" x1="0%" x2="100%" y1="0%" y2="100%"><stop offset="0%" stop-color="#F08080"/><stop offset="100%" stop-color="#FFB6C1"/></linearGradient></defs><g><!--cluster Bioladen--><rect fill="#FFFFFF" filter="url(#f17xtsxqm7xg3u)" height="118" style="stroke: #8B008B; stroke-width: 1.5;" width="205" x="319" y="16"/><text fill="#808080" font-family="sans-serif" font-size="14" font-weight="bold" lengthAdjust="spacingAndGlyphs" textLength="67" x="388" y="30.9951">Bioladen</text><!--cluster bioladen.data--><polygon fill="#FFFFFF" filter="url(#f17xtsxqm7xg3u)" points="327,43,439,43,446,65.2969,516,65.2969,516,126,327,126,327,43" style="stroke: #8B008B; stroke-width: 1.5;"/><line style="stroke: #8B008B; stroke-width: 1.5;" x1="327" x2="446" y1="65.2969" y2="65.2969"/><text fill="#808080" font-family="sans-serif" font-size="14" font-weight="bold" lengthAdjust="spacingAndGlyphs" textLength="106" x="331" y="57.9951">bioladen.data</text><!--entity salespoint-framework-7.0.0.RELEASE.jar--><rect fill="#FFFFFF" filter="url(#f17xtsxqm7xg3u)" height="36.2969" style="stroke: #000000; stroke-width: 1.5;" width="294" x="6" y="76"/><text fill="#000000" font-family="sans-serif" font-size="14" lengthAdjust="spacingAndGlyphs" textLength="274" x="16" y="98.9951">salespoint-framework-7.0.0.RELEASE.jar</text><!--class bioladen.data.Log--><rect fill="url(#g17xtsxqm7xg3u0)" filter="url(#f17xtsxqm7xg3u)" height="48" id="bioladen.data.Log" style="stroke: #000000; stroke-width: 1.5;" width="54" x="454" y="70"/><ellipse cx="469" cy="86" fill="#ADD1B2" rx="11" ry="11" style="stroke: #000000; stroke-width: 1.0;"/><path d="M471.9688,91.6406 Q471.3906,91.9375 470.75,92.0781 Q470.1094,92.2344 469.4063,92.2344 Q466.9063,92.2344 465.5781,90.5938 Q464.2656,88.9375 464.2656,85.8125 Q464.2656,82.6875 465.5781,81.0313 Q466.9063,79.375 469.4063,79.375 Q470.1094,79.375 470.75,79.5313 Q471.4063,79.6875 471.9688,79.9844 L471.9688,82.7031 Q471.3438,82.125 470.75,81.8594 Q470.1563,81.5781 469.5313,81.5781 Q468.1875,81.5781 467.5,82.6563 Q466.8125,83.7188 466.8125,85.8125 Q466.8125,87.9063 467.5,88.9844 Q468.1875,90.0469 469.5313,90.0469 Q470.1563,90.0469 470.75,89.7813 Q471.3438,89.5 471.9688,88.9219 L471.9688,91.6406 Z "/><text fill="#000000" font-family="sans-serif" font-size="12" lengthAdjust="spacingAndGlyphs" textLength="22" x="483" y="90.1543">Log</text><line style="stroke: #000000; stroke-width: 1.5;" x1="455" x2="507" y1="102" y2="102"/><line style="stroke: #000000; stroke-width: 1.5;" x1="455" x2="507" y1="110" y2="110"/><!--class bioladen.data.Statistic--><rect fill="url(#g17xtsxqm7xg3u0)" filter="url(#f17xtsxqm7xg3u)" height="48" id="bioladen.data.Statistic" style="stroke: #000000; stroke-width: 1.5;" width="83" x="335.5" y="70"/><ellipse cx="350.5" cy="86" fill="#ADD1B2" rx="11" ry="11" style="stroke: #000000; stroke-width: 1.0;"/><path d="M353.4688,91.6406 Q352.8906,91.9375 352.25,92.0781 Q351.6094,92.2344 350.9063,92.2344 Q348.4063,92.2344 347.0781,90.5938 Q345.7656,88.9375 345.7656,85.8125 Q345.7656,82.6875 347.0781,81.0313 Q348.4063,79.375 350.9063,79.375 Q351.6094,79.375 352.25,79.5313 Q352.9063,79.6875 353.4688,79.9844 L353.4688,82.7031 Q352.8438,82.125 352.25,81.8594 Q351.6563,81.5781 351.0313,81.5781 Q349.6875,81.5781 349,82.6563 Q348.3125,83.7188 348.3125,85.8125 Q348.3125,87.9063 349,88.9844 Q349.6875,90.0469 351.0313,90.0469 Q351.6563,90.0469 352.25,89.7813 Q352.8438,89.5 353.4688,88.9219 L353.4688,91.6406 Z "/><text fill="#000000" font-family="sans-serif" font-size="12" lengthAdjust="spacingAndGlyphs" textLength="51" x="364.5" y="90.1543">Statistic</text><line style="stroke: #000000; stroke-width: 1.5;" x1="336.5" x2="417.5" y1="102" y2="102"/><line style="stroke: #000000; stroke-width: 1.5;" x1="336.5" x2="417.5" y1="110" y2="110"/><!--
@startuml

skinparam class {
	BackgroundColor #LightCoral/LightPink
    BorderColor Black
    ArrowColor  Black
}

skinparam package {
    FontColor Grey
    BorderColor DarkMagenta
}

skinparam classAttributeIconSize 0
skinparam linetype ortho

rectangle salespoint-framework-7.0.0.RELEASE.jar {

}


rectangle Bioladen {
    namespace bioladen.data {

        class Log {

        }

        class Statistic {

        }
    }

}


@enduml

PlantUML version 1.2018.12(Sun Oct 21 12:15:15 CEST 2018)
(GPL source distribution)
Java Runtime: OpenJDK Runtime Environment
JVM: OpenJDK 64-Bit Server VM
Java Version: 11.0.1+13-Debian-2
Operating System: Linux
OS Version: 4.18.0-parrot10-amd64
Default Encoding: UTF-8
Language: en
Country: US
--></g></svg>