<?xml version="1.0" encoding="UTF-8" standalone="no"?><svg xmlns="http://www.w3.org/2000/svg" xmlns:xlink="http://www.w3.org/1999/xlink" contentScriptType="application/ecmascript" contentStyleType="text/css" height="1295px" preserveAspectRatio="none" style="width:2075px;height:1295px;" version="1.1" viewBox="0 0 2075 1295" width="2075px" zoomAndPan="magnify"><defs><filter height="300%" id="fy7mise8ysw0x" width="300%" x="-1" y="-1"><feGaussianBlur result="blurOut" stdDeviation="2.0"/><feColorMatrix in="blurOut" result="blurOut2" type="matrix" values="0 0 0 0 0 0 0 0 0 0 0 0 0 0 0 0 0 0 .4 0"/><feOffset dx="4.0" dy="4.0" in="blurOut2" result="blurOut3"/><feBlend in="SourceGraphic" in2="blurOut3" mode="normal"/></filter><linearGradient id="gy7mise8ysw0x0" x1="0%" x2="100%" y1="0%" y2="100%"><stop offset="0%" stop-color="#F08080"/><stop offset="100%" stop-color="#FFB6C1"/></linearGradient></defs><g><!--cluster JavaSE-1.8--><rect fill="#FFFFFF" filter="url(#fy7mise8ysw0x)" height="168" style="stroke: #8B008B; stroke-width: 1.5;" width="154" x="1376" y="359"/><text fill="#808080" font-family="sans-serif" font-size="14" font-weight="bold" lengthAdjust="spacingAndGlyphs" textLength="76" x="1415" y="375.5332">JavaSE-1.8</text><!--cluster java.lang--><polygon fill="#FFFFFF" filter="url(#fy7mise8ysw0x)" points="1400,403,1469,403,1476,426.6094,1506,426.6094,1506,503,1400,503,1400,403" style="stroke: #8B008B; stroke-width: 1.5;"/><line style="stroke: #8B008B; stroke-width: 1.5;" x1="1400" x2="1476" y1="426.6094" y2="426.6094"/><text fill="#808080" font-family="sans-serif" font-size="14" font-weight="bold" lengthAdjust="spacingAndGlyphs" textLength="63" x="1404" y="419.5332">java.lang</text><!--cluster Bioladen--><rect fill="#FFFFFF" filter="url(#fy7mise8ysw0x)" height="1260" style="stroke: #8B008B; stroke-width: 1.5;" width="1330" x="22" y="24"/><text fill="#808080" font-family="sans-serif" font-size="14" font-weight="bold" lengthAdjust="spacingAndGlyphs" textLength="62" x="656" y="40.5332">Bioladen</text><!--cluster bioladen.data.log--><polygon fill="#FFFFFF" filter="url(#fy7mise8ysw0x)" points="588,597,715,597,722,620.6094,961,620.6094,961,1260,588,1260,588,597" style="stroke: #8B008B; stroke-width: 1.5;"/><line style="stroke: #8B008B; stroke-width: 1.5;" x1="588" x2="722" y1="620.6094" y2="620.6094"/><text fill="#808080" font-family="sans-serif" font-size="14" font-weight="bold" lengthAdjust="spacingAndGlyphs" textLength="121" x="592" y="613.5332">bioladen.data.log</text><!--cluster bioladen.data.statistic--><polygon fill="#FFFFFF" filter="url(#fy7mise8ysw0x)" points="46,68,206,68,213,91.6094,564,91.6094,564,930,46,930,46,68" style="stroke: #8B008B; stroke-width: 1.5;"/><line style="stroke: #8B008B; stroke-width: 1.5;" x1="46" x2="213" y1="91.6094" y2="91.6094"/><text fill="#808080" font-family="sans-serif" font-size="14" font-weight="bold" lengthAdjust="spacingAndGlyphs" textLength="154" x="50" y="84.5332">bioladen.data.statistic</text><!--cluster bioladen.event--><polygon fill="#FFFFFF" filter="url(#fy7mise8ysw0x)" points="985,611,1097,611,1104,634.6094,1328,634.6094,1328,733,985,733,985,611" style="stroke: #8B008B; stroke-width: 1.5;"/><line style="stroke: #8B008B; stroke-width: 1.5;" x1="985" x2="1104" y1="634.6094" y2="634.6094"/><text fill="#808080" font-family="sans-serif" font-size="14" font-weight="bold" lengthAdjust="spacingAndGlyphs" textLength="106" x="989" y="627.5332">bioladen.event</text><!--cluster salespoint-framework-7.0.0.RELEASE.jar--><rect fill="#FFFFFF" filter="url(#fy7mise8ysw0x)" height="176" style="stroke: #8B008B; stroke-width: 1.5;" width="294" x="1770" y="778"/><text fill="#808080" font-family="sans-serif" font-size="14" font-weight="bold" lengthAdjust="spacingAndGlyphs" textLength="278" x="1778" y="794.5332">salespoint-framework-7.0.0.RELEASE.jar</text><!--cluster org.salespointframework.time--><polygon fill="#FFFFFF" filter="url(#fy7mise8ysw0x)" points="1794,822,2009,822,2016,845.6094,2019,845.6094,2019,930,1794,930,1794,822" style="stroke: #8B008B; stroke-width: 1.5;"/><line style="stroke: #8B008B; stroke-width: 1.5;" x1="1794" x2="2016" y1="845.6094" y2="845.6094"/><text fill="#808080" font-family="sans-serif" font-size="14" font-weight="bold" lengthAdjust="spacingAndGlyphs" textLength="209" x="1798" y="838.5332">org.salespointframework.time</text><!--cluster spring--><rect fill="#FFFFFF" filter="url(#fy7mise8ysw0x)" height="655" style="stroke: #8B008B; stroke-width: 1.5;" width="370" x="1376" y="560"/><text fill="#808080" font-family="sans-serif" font-size="14" font-weight="bold" lengthAdjust="spacingAndGlyphs" textLength="283" x="1419.5" y="576.5332">spring-data-comments-2.1.0.RELEASE.jar</text><!--cluster org.springframework.context--><polygon fill="#FFFFFF" filter="url(#fy7mise8ysw0x)" points="1400,604,1610,604,1617,627.6094,1722,627.6094,1722,1191,1400,1191,1400,604" style="stroke: #8B008B; stroke-width: 1.5;"/><line style="stroke: #8B008B; stroke-width: 1.5;" x1="1400" x2="1617" y1="627.6094" y2="627.6094"/><text fill="#808080" font-family="sans-serif" font-size="14" font-weight="bold" lengthAdjust="spacingAndGlyphs" textLength="204" x="1404" y="620.5332">org.springframework.context</text><!--class java.lang.Iterable--><rect fill="url(#gy7mise8ysw0x0)" filter="url(#fy7mise8ysw0x)" height="48" id="java.lang.Iterable" style="stroke: #000000; stroke-width: 1.5;" width="73" x="1416.5" y="439"/><ellipse cx="1431.5" cy="455" fill="#ADD1B2" rx="11" ry="11" style="stroke: #000000; stroke-width: 1.0;"/><path d="M1434.2656,450.875 Q1434.4219,450.6563 1434.6094,450.5469 Q1434.7969,450.4375 1435.0156,450.4375 Q1435.3906,450.4375 1435.625,450.6953 Q1435.8594,450.9531 1435.8594,451.5625 L1435.8594,453.0156 Q1435.8594,453.625 1435.625,453.8906 Q1435.3906,454.1563 1435.0156,454.1563 Q1434.6719,454.1563 1434.4688,453.9531 Q1434.2656,453.7656 1434.1563,453.25 Q1434.1094,452.8906 1433.9219,452.7031 Q1433.5938,452.3281 1432.9844,452.1094 Q1432.375,451.8906 1431.75,451.8906 Q1430.9844,451.8906 1430.3516,452.2188 Q1429.7188,452.5469 1429.2266,453.2969 Q1428.7344,454.0469 1428.7344,455.0781 L1428.7344,456.1719 Q1428.7344,457.4063 1429.625,458.2266 Q1430.5156,459.0469 1432.1094,459.0469 Q1433.0469,459.0469 1433.7031,458.7969 Q1434.0938,458.6406 1434.5156,458.2031 Q1434.7813,457.9375 1434.9297,457.8594 Q1435.0781,457.7813 1435.2813,457.7813 Q1435.6094,457.7813 1435.8672,458.0391 Q1436.125,458.2969 1436.125,458.6406 Q1436.125,458.9844 1435.7813,459.3906 Q1435.2813,459.9688 1434.4844,460.2969 Q1433.4063,460.75 1432.1094,460.75 Q1430.5938,460.75 1429.3906,460.125 Q1428.4063,459.625 1427.7188,458.5547 Q1427.0313,457.4844 1427.0313,456.2031 L1427.0313,455.0469 Q1427.0313,453.7188 1427.6484,452.5703 Q1428.2656,451.4219 1429.3594,450.8047 Q1430.4531,450.1875 1431.6875,450.1875 Q1432.4219,450.1875 1433.0703,450.3516 Q1433.7188,450.5156 1434.2656,450.875 Z "/><text fill="#000000" font-family="sans-serif" font-size="12" lengthAdjust="spacingAndGlyphs" textLength="41" x="1445.5" y="459.9102">Iterable</text><line style="stroke: #000000; stroke-width: 1.5;" x1="1417.5" x2="1488.5" y1="471" y2="471"/><line style="stroke: #000000; stroke-width: 1.5;" x1="1417.5" x2="1488.5" y1="479" y2="479"/><!--class bioladen.data.log.Log--><rect fill="url(#gy7mise8ysw0x0)" filter="url(#fy7mise8ysw0x)" height="208.3828" id="bioladen.data.log.Log" style="stroke: #000000; stroke-width: 1.5;" width="198" x="606" y="1036"/><ellipse cx="680.75" cy="1056.0938" fill="#ADD1B2" rx="11" ry="11" style="stroke: #000000; stroke-width: 1.0;"/><path d="M683.5156,1051.9688 Q683.6719,1051.75 683.8594,1051.6406 Q684.0469,1051.5313 684.2656,1051.5313 Q684.6406,1051.5313 684.875,1051.7891 Q685.1094,1052.0469 685.1094,1052.6563 L685.1094,1054.1094 Q685.1094,1054.7188 684.875,1054.9844 Q684.6406,1055.25 684.2656,1055.25 Q683.9219,1055.25 683.7188,1055.0469 Q683.5156,1054.8594 683.4063,1054.3438 Q683.3594,1053.9844 683.1719,1053.7969 Q682.8438,1053.4219 682.2344,1053.2031 Q681.625,1052.9844 681,1052.9844 Q680.2344,1052.9844 679.6016,1053.3125 Q678.9688,1053.6406 678.4766,1054.3906 Q677.9844,1055.1406 677.9844,1056.1719 L677.9844,1057.2656 Q677.9844,1058.5 678.875,1059.3203 Q679.7656,1060.1406 681.3594,1060.1406 Q682.2969,1060.1406 682.9531,1059.8906 Q683.3438,1059.7344 683.7656,1059.2969 Q684.0313,1059.0313 684.1797,1058.9531 Q684.3281,1058.875 684.5313,1058.875 Q684.8594,1058.875 685.1172,1059.1328 Q685.375,1059.3906 685.375,1059.7344 Q685.375,1060.0781 685.0313,1060.4844 Q684.5313,1061.0625 683.7344,1061.3906 Q682.6563,1061.8438 681.3594,1061.8438 Q679.8438,1061.8438 678.6406,1061.2188 Q677.6563,1060.7188 676.9688,1059.6484 Q676.2813,1058.5781 676.2813,1057.2969 L676.2813,1056.1406 Q676.2813,1054.8125 676.8984,1053.6641 Q677.5156,1052.5156 678.6094,1051.8984 Q679.7031,1051.2813 680.9375,1051.2813 Q681.6719,1051.2813 682.3203,1051.4453 Q682.9688,1051.6094 683.5156,1051.9688 Z "/><text fill="#000000" font-family="sans-serif" font-size="12" font-style="italic" lengthAdjust="spacingAndGlyphs" textLength="44" x="699.25" y="1053.457">«Entity»</text><text fill="#000000" font-family="sans-serif" font-size="12" lengthAdjust="spacingAndGlyphs" textLength="21" x="710.75" y="1068.5508">Log</text><line style="stroke: #000000; stroke-width: 1.5;" x1="607" x2="803" y1="1076.1875" y2="1076.1875"/><line style="stroke: #000000; stroke-width: 1.5;" x1="607" x2="803" y1="1084.1875" y2="1084.1875"/><text fill="#000000" font-family="sans-serif" font-size="11" lengthAdjust="spacingAndGlyphs" textLength="151" x="612" y="1099.6064">-log(LogLevel, Order) : boolean</text><text fill="#000000" font-family="sans-serif" font-size="11" lengthAdjust="spacingAndGlyphs" textLength="144" x="612" y="1113.4424">-log(LogLevel, Sale) : boolean</text><text fill="#000000" font-family="sans-serif" font-size="11" lengthAdjust="spacingAndGlyphs" textLength="181" x="612" y="1127.2783">-log(LogLevel, Cancellation) : boolean</text><text fill="#000000" font-family="sans-serif" font-size="11" lengthAdjust="spacingAndGlyphs" textLength="186" x="612" y="1141.1143">-log(LogLevel, LogInventory) : boolean</text><text fill="#000000" font-family="sans-serif" font-size="11" lengthAdjust="spacingAndGlyphs" textLength="146" x="612" y="1154.9502">-log(LogLevel, User) : boolean</text><text fill="#000000" font-family="sans-serif" font-size="11" lengthAdjust="spacingAndGlyphs" textLength="144" x="612" y="1168.7861">+info(Object, String) : boolean</text><text fill="#000000" font-family="sans-serif" font-size="11" lengthAdjust="spacingAndGlyphs" textLength="166" x="612" y="1182.6221">+warning(Object, String) : boolean</text><text fill="#000000" font-family="sans-serif" font-size="11" lengthAdjust="spacingAndGlyphs" textLength="150" x="612" y="1196.458">+error(Object, String) : boolean</text><text fill="#000000" font-family="sans-serif" font-size="11" lengthAdjust="spacingAndGlyphs" textLength="146" x="612" y="1210.2939">+getLog() : Iterable&lt;LogEntry&gt;</text><text fill="#000000" font-family="sans-serif" font-size="11" lengthAdjust="spacingAndGlyphs" textLength="47" x="612" y="1224.1299">+getLog()</text><text fill="#000000" font-family="sans-serif" font-size="11" lengthAdjust="spacingAndGlyphs" textLength="91" x="612" y="1237.9658">-publishLogEvent()</text><!--class bioladen.data.log.LogEntry--><rect fill="url(#gy7mise8ysw0x0)" filter="url(#fy7mise8ysw0x)" height="111.5313" id="bioladen.data.log.LogEntry" style="stroke: #000000; stroke-width: 1.5;" width="127" x="817.5" y="830"/><ellipse cx="853.65" cy="850.0938" fill="#ADD1B2" rx="11" ry="11" style="stroke: #000000; stroke-width: 1.0;"/><path d="M856.4156,845.9688 Q856.5719,845.75 856.7594,845.6406 Q856.9469,845.5313 857.1656,845.5313 Q857.5406,845.5313 857.775,845.7891 Q858.0094,846.0469 858.0094,846.6563 L858.0094,848.1094 Q858.0094,848.7188 857.775,848.9844 Q857.5406,849.25 857.1656,849.25 Q856.8219,849.25 856.6188,849.0469 Q856.4156,848.8594 856.3063,848.3438 Q856.2594,847.9844 856.0719,847.7969 Q855.7438,847.4219 855.1344,847.2031 Q854.525,846.9844 853.9,846.9844 Q853.1344,846.9844 852.5016,847.3125 Q851.8688,847.6406 851.3766,848.3906 Q850.8844,849.1406 850.8844,850.1719 L850.8844,851.2656 Q850.8844,852.5 851.775,853.3203 Q852.6656,854.1406 854.2594,854.1406 Q855.1969,854.1406 855.8531,853.8906 Q856.2438,853.7344 856.6656,853.2969 Q856.9313,853.0313 857.0797,852.9531 Q857.2281,852.875 857.4313,852.875 Q857.7594,852.875 858.0172,853.1328 Q858.275,853.3906 858.275,853.7344 Q858.275,854.0781 857.9313,854.4844 Q857.4313,855.0625 856.6344,855.3906 Q855.5563,855.8438 854.2594,855.8438 Q852.7438,855.8438 851.5406,855.2188 Q850.5563,854.7188 849.8688,853.6484 Q849.1813,852.5781 849.1813,851.2969 L849.1813,850.1406 Q849.1813,848.8125 849.7984,847.6641 Q850.4156,846.5156 851.5094,845.8984 Q852.6031,845.2813 853.8375,845.2813 Q854.5719,845.2813 855.2203,845.4453 Q855.8688,845.6094 856.4156,845.9688 Z "/><text fill="#000000" font-family="sans-serif" font-size="12" font-style="italic" lengthAdjust="spacingAndGlyphs" textLength="44" x="874.35" y="847.457">«Entity»</text><text fill="#000000" font-family="sans-serif" font-size="12" lengthAdjust="spacingAndGlyphs" textLength="48" x="872.35" y="862.5508">LogEntry</text><line style="stroke: #000000; stroke-width: 1.5;" x1="818.5" x2="943.5" y1="870.1875" y2="870.1875"/><text fill="#000000" font-family="sans-serif" font-size="11" lengthAdjust="spacingAndGlyphs" textLength="93" x="823.5" y="885.6064">logLevel : LogLevel</text><text fill="#000000" font-family="sans-serif" font-size="11" lengthAdjust="spacingAndGlyphs" textLength="85" x="823.5" y="899.4424">thrownBy : String</text><text fill="#000000" font-family="sans-serif" font-size="11" lengthAdjust="spacingAndGlyphs" textLength="115" x="823.5" y="913.2783">logTime : LocalDateTime</text><text fill="#000000" font-family="sans-serif" font-size="11" lengthAdjust="spacingAndGlyphs" textLength="76" x="823.5" y="927.1143">content : Object</text><line style="stroke: #000000; stroke-width: 1.5;" x1="818.5" x2="943.5" y1="933.5313" y2="933.5313"/><!--class bioladen.data.log.LogLevel--><rect fill="url(#gy7mise8ysw0x0)" filter="url(#fy7mise8ysw0x)" height="89.5078" id="bioladen.data.log.LogLevel" style="stroke: #000000; stroke-width: 1.5;" width="82" x="840" y="1095"/><ellipse cx="855" cy="1111" fill="#EB937F" rx="11" ry="11" style="stroke: #000000; stroke-width: 1.0;"/><path d="M853.8594,1111.7969 L853.8594,1114.2969 L858.1875,1114.2969 L858.1875,1113.375 Q858.1875,1112.7656 858.4297,1112.5 Q858.6719,1112.2344 859.0469,1112.2344 Q859.4219,1112.2344 859.6563,1112.5 Q859.8906,1112.7656 859.8906,1113.375 L859.8906,1116 L851.8906,1116 Q851.2656,1116 851.0078,1115.7656 Q850.75,1115.5313 850.75,1115.1406 Q850.75,1114.7656 851.0156,1114.5313 Q851.2813,1114.2969 851.8906,1114.2969 L852.1563,1114.2969 L852.1563,1107.6406 L851.8906,1107.6406 Q851.2656,1107.6406 851.0078,1107.4063 Q850.75,1107.1719 850.75,1106.7813 Q850.75,1106.4063 851.0078,1106.1719 Q851.2656,1105.9375 851.8906,1105.9375 L859.5156,1105.9375 L859.5156,1108.5313 Q859.5156,1109.1406 859.2891,1109.3984 Q859.0625,1109.6563 858.6719,1109.6563 Q858.2969,1109.6563 858.0625,1109.3984 Q857.8281,1109.1406 857.8281,1108.5313 L857.8281,1107.6406 L853.8594,1107.6406 L853.8594,1110.0938 L855.3438,1110.0938 Q855.3438,1109.4375 855.4688,1109.25 Q855.7344,1108.8438 856.2031,1108.8438 Q856.5781,1108.8438 856.8125,1109.1016 Q857.0469,1109.3594 857.0469,1109.9688 L857.0469,1111.9375 Q857.0469,1112.4844 856.9219,1112.6719 Q856.6563,1113.0625 856.2031,1113.0625 Q855.7344,1113.0625 855.4688,1112.6563 Q855.3438,1112.4688 855.3438,1111.7969 L853.8594,1111.7969 Z "/><text fill="#000000" font-family="sans-serif" font-size="12" lengthAdjust="spacingAndGlyphs" textLength="50" x="869" y="1115.9102">LogLevel</text><line style="stroke: #000000; stroke-width: 1.5;" x1="841" x2="921" y1="1127" y2="1127"/><text fill="#000000" font-family="sans-serif" font-size="11" lengthAdjust="spacingAndGlyphs" textLength="23" x="846" y="1142.4189">INFO</text><text fill="#000000" font-family="sans-serif" font-size="11" lengthAdjust="spacingAndGlyphs" textLength="49" x="846" y="1156.2549">WARNING</text><text fill="#000000" font-family="sans-serif" font-size="11" lengthAdjust="spacingAndGlyphs" textLength="35" x="846" y="1170.0908">ERROR</text><line style="stroke: #000000; stroke-width: 1.5;" x1="841" x2="921" y1="1176.5078" y2="1176.5078"/><!--class bioladen.data.log.LogExplorer--><rect fill="url(#gy7mise8ysw0x0)" filter="url(#fy7mise8ysw0x)" height="97.6953" id="bioladen.data.log.LogExplorer" style="stroke: #000000; stroke-width: 1.5;" width="178" x="604" y="837"/><ellipse cx="655.75" cy="857.0938" fill="#ADD1B2" rx="11" ry="11" style="stroke: #000000; stroke-width: 1.0;"/><path d="M658.5156,852.9688 Q658.6719,852.75 658.8594,852.6406 Q659.0469,852.5313 659.2656,852.5313 Q659.6406,852.5313 659.875,852.7891 Q660.1094,853.0469 660.1094,853.6563 L660.1094,855.1094 Q660.1094,855.7188 659.875,855.9844 Q659.6406,856.25 659.2656,856.25 Q658.9219,856.25 658.7188,856.0469 Q658.5156,855.8594 658.4063,855.3438 Q658.3594,854.9844 658.1719,854.7969 Q657.8438,854.4219 657.2344,854.2031 Q656.625,853.9844 656,853.9844 Q655.2344,853.9844 654.6016,854.3125 Q653.9688,854.6406 653.4766,855.3906 Q652.9844,856.1406 652.9844,857.1719 L652.9844,858.2656 Q652.9844,859.5 653.875,860.3203 Q654.7656,861.1406 656.3594,861.1406 Q657.2969,861.1406 657.9531,860.8906 Q658.3438,860.7344 658.7656,860.2969 Q659.0313,860.0313 659.1797,859.9531 Q659.3281,859.875 659.5313,859.875 Q659.8594,859.875 660.1172,860.1328 Q660.375,860.3906 660.375,860.7344 Q660.375,861.0781 660.0313,861.4844 Q659.5313,862.0625 658.7344,862.3906 Q657.6563,862.8438 656.3594,862.8438 Q654.8438,862.8438 653.6406,862.2188 Q652.6563,861.7188 651.9688,860.6484 Q651.2813,859.5781 651.2813,858.2969 L651.2813,857.1406 Q651.2813,855.8125 651.8984,854.6641 Q652.5156,853.5156 653.6094,852.8984 Q654.7031,852.2813 655.9375,852.2813 Q656.6719,852.2813 657.3203,852.4453 Q657.9688,852.6094 658.5156,852.9688 Z "/><text fill="#000000" font-family="sans-serif" font-size="12" font-style="italic" lengthAdjust="spacingAndGlyphs" textLength="44" x="687.25" y="854.457">«Entity»</text><text fill="#000000" font-family="sans-serif" font-size="12" lengthAdjust="spacingAndGlyphs" textLength="66" x="676.25" y="869.5508">LogExplorer</text><line style="stroke: #000000; stroke-width: 1.5;" x1="605" x2="781" y1="877.1875" y2="877.1875"/><line style="stroke: #000000; stroke-width: 1.5;" x1="605" x2="781" y1="885.1875" y2="885.1875"/><text fill="#000000" font-family="sans-serif" font-size="11" lengthAdjust="spacingAndGlyphs" textLength="155" x="610" y="900.6064">+filterBy(Duration) : LogExplorer</text><text fill="#000000" font-family="sans-serif" font-size="11" lengthAdjust="spacingAndGlyphs" textLength="159" x="610" y="914.4424">+filterBy(LogLevel) : LogExplorer</text><text fill="#000000" font-family="sans-serif" font-size="11" lengthAdjust="spacingAndGlyphs" textLength="166" x="610" y="928.2783">+filterBy(ThrownBy) : LogExplorer</text><!--class bioladen.data.log.LogFilter--><rect fill="url(#gy7mise8ysw0x0)" filter="url(#fy7mise8ysw0x)" height="97.6953" id="bioladen.data.log.LogFilter" style="stroke: #000000; stroke-width: 1.5;" width="208" x="670" y="633"/><ellipse cx="745.75" cy="653.0938" fill="#ADD1B2" rx="11" ry="11" style="stroke: #000000; stroke-width: 1.0;"/><path d="M748.5156,648.9688 Q748.6719,648.75 748.8594,648.6406 Q749.0469,648.5313 749.2656,648.5313 Q749.6406,648.5313 749.875,648.7891 Q750.1094,649.0469 750.1094,649.6563 L750.1094,651.1094 Q750.1094,651.7188 749.875,651.9844 Q749.6406,652.25 749.2656,652.25 Q748.9219,652.25 748.7188,652.0469 Q748.5156,651.8594 748.4063,651.3438 Q748.3594,650.9844 748.1719,650.7969 Q747.8438,650.4219 747.2344,650.2031 Q746.625,649.9844 746,649.9844 Q745.2344,649.9844 744.6016,650.3125 Q743.9688,650.6406 743.4766,651.3906 Q742.9844,652.1406 742.9844,653.1719 L742.9844,654.2656 Q742.9844,655.5 743.875,656.3203 Q744.7656,657.1406 746.3594,657.1406 Q747.2969,657.1406 747.9531,656.8906 Q748.3438,656.7344 748.7656,656.2969 Q749.0313,656.0313 749.1797,655.9531 Q749.3281,655.875 749.5313,655.875 Q749.8594,655.875 750.1172,656.1328 Q750.375,656.3906 750.375,656.7344 Q750.375,657.0781 750.0313,657.4844 Q749.5313,658.0625 748.7344,658.3906 Q747.6563,658.8438 746.3594,658.8438 Q744.8438,658.8438 743.6406,658.2188 Q742.6563,657.7188 741.9688,656.6484 Q741.2813,655.5781 741.2813,654.2969 L741.2813,653.1406 Q741.2813,651.8125 741.8984,650.6641 Q742.5156,649.5156 743.6094,648.8984 Q744.7031,648.2813 745.9375,648.2813 Q746.6719,648.2813 747.3203,648.4453 Q747.9688,648.6094 748.5156,648.9688 Z "/><text fill="#000000" font-family="sans-serif" font-size="12" font-style="italic" lengthAdjust="spacingAndGlyphs" textLength="42" x="769.25" y="650.457">«static»</text><text fill="#000000" font-family="sans-serif" font-size="12" lengthAdjust="spacingAndGlyphs" textLength="48" x="766.25" y="665.5508">LogFilter</text><line style="stroke: #000000; stroke-width: 1.5;" x1="671" x2="877" y1="673.1875" y2="673.1875"/><line style="stroke: #000000; stroke-width: 1.5;" x1="671" x2="877" y1="681.1875" y2="681.1875"/><text fill="#000000" font-family="sans-serif" font-size="11" lengthAdjust="spacingAndGlyphs" textLength="185" x="676" y="696.6064">+filterBy(LogFilter, Duration) : LogFilter</text><text fill="#000000" font-family="sans-serif" font-size="11" lengthAdjust="spacingAndGlyphs" textLength="189" x="676" y="710.4424">+filterBy(LogFilter, LogLevel) : LogFilter</text><text fill="#000000" font-family="sans-serif" font-size="11" lengthAdjust="spacingAndGlyphs" textLength="196" x="676" y="724.2783">+filterBy(LogFilter, ThrownBy) : LogFilter</text><!--class bioladen.data.statistic.StatisticController--><rect fill="url(#gy7mise8ysw0x0)" filter="url(#fy7mise8ysw0x)" height="48" id="bioladen.data.statistic.StatisticController" style="stroke: #000000; stroke-width: 1.5;" width="129" x="347.5" y="658"/><ellipse cx="362.5" cy="674" fill="#ADD1B2" rx="11" ry="11" style="stroke: #000000; stroke-width: 1.0;"/><path d="M365.2656,669.875 Q365.4219,669.6563 365.6094,669.5469 Q365.7969,669.4375 366.0156,669.4375 Q366.3906,669.4375 366.625,669.6953 Q366.8594,669.9531 366.8594,670.5625 L366.8594,672.0156 Q366.8594,672.625 366.625,672.8906 Q366.3906,673.1563 366.0156,673.1563 Q365.6719,673.1563 365.4688,672.9531 Q365.2656,672.7656 365.1563,672.25 Q365.1094,671.8906 364.9219,671.7031 Q364.5938,671.3281 363.9844,671.1094 Q363.375,670.8906 362.75,670.8906 Q361.9844,670.8906 361.3516,671.2188 Q360.7188,671.5469 360.2266,672.2969 Q359.7344,673.0469 359.7344,674.0781 L359.7344,675.1719 Q359.7344,676.4063 360.625,677.2266 Q361.5156,678.0469 363.1094,678.0469 Q364.0469,678.0469 364.7031,677.7969 Q365.0938,677.6406 365.5156,677.2031 Q365.7813,676.9375 365.9297,676.8594 Q366.0781,676.7813 366.2813,676.7813 Q366.6094,676.7813 366.8672,677.0391 Q367.125,677.2969 367.125,677.6406 Q367.125,677.9844 366.7813,678.3906 Q366.2813,678.9688 365.4844,679.2969 Q364.4063,679.75 363.1094,679.75 Q361.5938,679.75 360.3906,679.125 Q359.4063,678.625 358.7188,677.5547 Q358.0313,676.4844 358.0313,675.2031 L358.0313,674.0469 Q358.0313,672.7188 358.6484,671.5703 Q359.2656,670.4219 360.3594,669.8047 Q361.4531,669.1875 362.6875,669.1875 Q363.4219,669.1875 364.0703,669.3516 Q364.7188,669.5156 365.2656,669.875 Z "/><text fill="#000000" font-family="sans-serif" font-size="12" lengthAdjust="spacingAndGlyphs" textLength="97" x="376.5" y="678.9102">StatisticController</text><line style="stroke: #000000; stroke-width: 1.5;" x1="348.5" x2="475.5" y1="690" y2="690"/><line style="stroke: #000000; stroke-width: 1.5;" x1="348.5" x2="475.5" y1="698" y2="698"/><!--class bioladen.data.statistic.Chart--><rect fill="url(#gy7mise8ysw0x0)" filter="url(#fy7mise8ysw0x)" height="208.3828" id="bioladen.data.statistic.Chart" style="stroke: #000000; stroke-width: 1.5;" width="485" x="62.5" y="104"/><ellipse cx="267.25" cy="124.0938" fill="#A9DCDF" rx="11" ry="11" style="stroke: #000000; stroke-width: 1.0;"/><path d="M269.4375,125.8594 L265.2969,125.8594 L264.875,126.8906 L265.2969,126.8906 Q265.9063,126.8906 266.1719,127.125 Q266.4375,127.3594 266.4375,127.75 Q266.4375,128.125 266.1719,128.3594 Q265.9063,128.5938 265.2969,128.5938 L263,128.5938 Q262.3906,128.5938 262.1328,128.3594 Q261.875,128.125 261.875,127.7344 Q261.875,127.3594 262.1484,127.1172 Q262.4219,126.875 263.0469,126.8906 L265.7188,120.2344 L264.6094,120.2344 Q264,120.2344 263.7344,120 Q263.4688,119.7656 263.4688,119.375 Q263.4688,119 263.7344,118.7656 Q264,118.5313 264.6094,118.5313 L268.2813,118.5313 L271.6719,126.8906 Q272.2656,126.8906 272.4531,127.0313 Q272.8438,127.2969 272.8438,127.75 Q272.8438,128.125 272.5859,128.3594 Q272.3281,128.5938 271.7188,128.5938 L269.4219,128.5938 Q268.8125,128.5938 268.5469,128.3594 Q268.2813,128.125 268.2813,127.7344 Q268.2813,127.3594 268.5469,127.125 Q268.8125,126.8906 269.4219,126.8906 L269.8438,126.8906 L269.4375,125.8594 Z M268.7188,124.1563 L267.3594,120.7813 L265.9844,124.1563 L268.7188,124.1563 Z "/><text fill="#000000" font-family="sans-serif" font-size="12" font-style="italic" lengthAdjust="spacingAndGlyphs" textLength="71" x="285.75" y="121.457">«static, final»</text><text fill="#000000" font-family="sans-serif" font-size="12" font-style="italic" lengthAdjust="spacingAndGlyphs" textLength="30" x="306.25" y="136.5508">Chart</text><line style="stroke: #000000; stroke-width: 1.5;" x1="63.5" x2="546.5" y1="144.1875" y2="144.1875"/><text fill="#000000" font-family="sans-serif" font-size="11" font-style="italic" lengthAdjust="spacingAndGlyphs" textLength="110" x="68.5" y="159.6064">CHART_TYPE : String</text><text fill="#000000" font-family="sans-serif" font-size="11" lengthAdjust="spacingAndGlyphs" textLength="89" x="68.5" y="173.4424">TEMPLATE : String</text><text fill="#000000" font-family="sans-serif" font-size="11" lengthAdjust="spacingAndGlyphs" textLength="143" x="68.5" y="187.2783">TEMPLATE_DATASET : String</text><line style="stroke: #000000; stroke-width: 1.5;" x1="63.5" x2="546.5" y1="193.6953" y2="193.6953"/><text fill="#000000" font-family="sans-serif" font-size="11" lengthAdjust="spacingAndGlyphs" textLength="316" x="68.5" y="209.1143">generateChart(title : String, labels : List&lt;T&gt;, data : List&lt;T&gt;) : String</text><text fill="#000000" font-family="sans-serif" font-size="11" lengthAdjust="spacingAndGlyphs" textLength="266" x="68.5" y="222.9502">generateChart(title : String, dataset : Map&lt;T,S&gt;) : String</text><text fill="#000000" font-family="sans-serif" font-size="11" lengthAdjust="spacingAndGlyphs" textLength="374" x="68.5" y="236.7861">generateChart(title : String, labels : List&lt;List&lt;T&gt;&gt;, data : List&lt;List&lt;T&gt;&gt;) : String</text><text fill="#000000" font-family="sans-serif" font-size="11" lengthAdjust="spacingAndGlyphs" textLength="301" x="68.5" y="250.6221">generateChart(title : String, datasets : List&lt;Map&lt;T,S&gt;&gt;) : String</text><text fill="#000000" font-family="sans-serif" font-size="11" lengthAdjust="spacingAndGlyphs" textLength="380" x="68.5" y="264.458">generateChart(title : String, labels : List&lt;T&gt;, data : List&lt;T&gt;, color : Color) : String</text><text fill="#000000" font-family="sans-serif" font-size="11" lengthAdjust="spacingAndGlyphs" textLength="330" x="68.5" y="278.2939">generateChart(title : String, dataset : Map&lt;T,S&gt;, color : Color) : String</text><text fill="#000000" font-family="sans-serif" font-size="11" lengthAdjust="spacingAndGlyphs" textLength="473" x="68.5" y="292.1299">generateChart(title : String, labels : List&lt;List&lt;T&gt;&gt;, data : List&lt;List&lt;T&gt;&gt;, colors : List&lt;Color&gt;) : String</text><text fill="#000000" font-family="sans-serif" font-size="11" lengthAdjust="spacingAndGlyphs" textLength="400" x="68.5" y="305.9658">generateChart(title : String, datasets : List&lt;Map&lt;T,S&gt;&gt;, colors : List&lt;Color&gt;) : String</text><!--class bioladen.data.statistic.BarChart--><rect fill="url(#gy7mise8ysw0x0)" filter="url(#fy7mise8ysw0x)" height="70.0234" id="bioladen.data.statistic.BarChart" style="stroke: #000000; stroke-width: 1.5;" width="116" x="278" y="428"/><ellipse cx="308.75" cy="448.0938" fill="#ADD1B2" rx="11" ry="11" style="stroke: #000000; stroke-width: 1.0;"/><path d="M311.5156,443.9688 Q311.6719,443.75 311.8594,443.6406 Q312.0469,443.5313 312.2656,443.5313 Q312.6406,443.5313 312.875,443.7891 Q313.1094,444.0469 313.1094,444.6563 L313.1094,446.1094 Q313.1094,446.7188 312.875,446.9844 Q312.6406,447.25 312.2656,447.25 Q311.9219,447.25 311.7188,447.0469 Q311.5156,446.8594 311.4063,446.3438 Q311.3594,445.9844 311.1719,445.7969 Q310.8438,445.4219 310.2344,445.2031 Q309.625,444.9844 309,444.9844 Q308.2344,444.9844 307.6016,445.3125 Q306.9688,445.6406 306.4766,446.3906 Q305.9844,447.1406 305.9844,448.1719 L305.9844,449.2656 Q305.9844,450.5 306.875,451.3203 Q307.7656,452.1406 309.3594,452.1406 Q310.2969,452.1406 310.9531,451.8906 Q311.3438,451.7344 311.7656,451.2969 Q312.0313,451.0313 312.1797,450.9531 Q312.3281,450.875 312.5313,450.875 Q312.8594,450.875 313.1172,451.1328 Q313.375,451.3906 313.375,451.7344 Q313.375,452.0781 313.0313,452.4844 Q312.5313,453.0625 311.7344,453.3906 Q310.6563,453.8438 309.3594,453.8438 Q307.8438,453.8438 306.6406,453.2188 Q305.6563,452.7188 304.9688,451.6484 Q304.2813,450.5781 304.2813,449.2969 L304.2813,448.1406 Q304.2813,446.8125 304.8984,445.6641 Q305.5156,444.5156 306.6094,443.8984 Q307.7031,443.2813 308.9375,443.2813 Q309.6719,443.2813 310.3203,443.4453 Q310.9688,443.6094 311.5156,443.9688 Z "/><text fill="#000000" font-family="sans-serif" font-size="12" font-style="italic" lengthAdjust="spacingAndGlyphs" textLength="44" x="328.75" y="445.457">«Entity»</text><text fill="#000000" font-family="sans-serif" font-size="12" lengthAdjust="spacingAndGlyphs" textLength="49" x="326.25" y="460.5508">BarChart</text><line style="stroke: #000000; stroke-width: 1.5;" x1="279" x2="393" y1="468.1875" y2="468.1875"/><text fill="#000000" font-family="sans-serif" font-size="11" lengthAdjust="spacingAndGlyphs" textLength="104" x="284" y="483.6064">CHART_TYPE : String</text><line style="stroke: #000000; stroke-width: 1.5;" x1="279" x2="393" y1="490.0234" y2="490.0234"/><!--class bioladen.data.statistic.LineChart--><rect fill="url(#gy7mise8ysw0x0)" filter="url(#fy7mise8ysw0x)" height="70.0234" id="bioladen.data.statistic.LineChart" style="stroke: #000000; stroke-width: 1.5;" width="116" x="429" y="428"/><ellipse cx="457.5" cy="448.0938" fill="#ADD1B2" rx="11" ry="11" style="stroke: #000000; stroke-width: 1.0;"/><path d="M460.2656,443.9688 Q460.4219,443.75 460.6094,443.6406 Q460.7969,443.5313 461.0156,443.5313 Q461.3906,443.5313 461.625,443.7891 Q461.8594,444.0469 461.8594,444.6563 L461.8594,446.1094 Q461.8594,446.7188 461.625,446.9844 Q461.3906,447.25 461.0156,447.25 Q460.6719,447.25 460.4688,447.0469 Q460.2656,446.8594 460.1563,446.3438 Q460.1094,445.9844 459.9219,445.7969 Q459.5938,445.4219 458.9844,445.2031 Q458.375,444.9844 457.75,444.9844 Q456.9844,444.9844 456.3516,445.3125 Q455.7188,445.6406 455.2266,446.3906 Q454.7344,447.1406 454.7344,448.1719 L454.7344,449.2656 Q454.7344,450.5 455.625,451.3203 Q456.5156,452.1406 458.1094,452.1406 Q459.0469,452.1406 459.7031,451.8906 Q460.0938,451.7344 460.5156,451.2969 Q460.7813,451.0313 460.9297,450.9531 Q461.0781,450.875 461.2813,450.875 Q461.6094,450.875 461.8672,451.1328 Q462.125,451.3906 462.125,451.7344 Q462.125,452.0781 461.7813,452.4844 Q461.2813,453.0625 460.4844,453.3906 Q459.4063,453.8438 458.1094,453.8438 Q456.5938,453.8438 455.3906,453.2188 Q454.4063,452.7188 453.7188,451.6484 Q453.0313,450.5781 453.0313,449.2969 L453.0313,448.1406 Q453.0313,446.8125 453.6484,445.6641 Q454.2656,444.5156 455.3594,443.8984 Q456.4531,443.2813 457.6875,443.2813 Q458.4219,443.2813 459.0703,443.4453 Q459.7188,443.6094 460.2656,443.9688 Z "/><text fill="#000000" font-family="sans-serif" font-size="12" font-style="italic" lengthAdjust="spacingAndGlyphs" textLength="44" x="479.5" y="445.457">«Entity»</text><text fill="#000000" font-family="sans-serif" font-size="12" lengthAdjust="spacingAndGlyphs" textLength="54" x="474.5" y="460.5508">LineChart</text><line style="stroke: #000000; stroke-width: 1.5;" x1="430" x2="544" y1="468.1875" y2="468.1875"/><text fill="#000000" font-family="sans-serif" font-size="11" lengthAdjust="spacingAndGlyphs" textLength="104" x="435" y="483.6064">CHART_TYPE : String</text><line style="stroke: #000000; stroke-width: 1.5;" x1="430" x2="544" y1="490.0234" y2="490.0234"/><!--class bioladen.data.statistic.PieChart--><rect fill="url(#gy7mise8ysw0x0)" filter="url(#fy7mise8ysw0x)" height="70.0234" id="bioladen.data.statistic.PieChart" style="stroke: #000000; stroke-width: 1.5;" width="116" x="127" y="428"/><ellipse cx="158.2" cy="448.0938" fill="#ADD1B2" rx="11" ry="11" style="stroke: #000000; stroke-width: 1.0;"/><path d="M160.9656,443.9688 Q161.1219,443.75 161.3094,443.6406 Q161.4969,443.5313 161.7156,443.5313 Q162.0906,443.5313 162.325,443.7891 Q162.5594,444.0469 162.5594,444.6563 L162.5594,446.1094 Q162.5594,446.7188 162.325,446.9844 Q162.0906,447.25 161.7156,447.25 Q161.3719,447.25 161.1688,447.0469 Q160.9656,446.8594 160.8563,446.3438 Q160.8094,445.9844 160.6219,445.7969 Q160.2938,445.4219 159.6844,445.2031 Q159.075,444.9844 158.45,444.9844 Q157.6844,444.9844 157.0516,445.3125 Q156.4188,445.6406 155.9266,446.3906 Q155.4344,447.1406 155.4344,448.1719 L155.4344,449.2656 Q155.4344,450.5 156.325,451.3203 Q157.2156,452.1406 158.8094,452.1406 Q159.7469,452.1406 160.4031,451.8906 Q160.7938,451.7344 161.2156,451.2969 Q161.4813,451.0313 161.6297,450.9531 Q161.7781,450.875 161.9813,450.875 Q162.3094,450.875 162.5672,451.1328 Q162.825,451.3906 162.825,451.7344 Q162.825,452.0781 162.4813,452.4844 Q161.9813,453.0625 161.1844,453.3906 Q160.1063,453.8438 158.8094,453.8438 Q157.2938,453.8438 156.0906,453.2188 Q155.1063,452.7188 154.4188,451.6484 Q153.7313,450.5781 153.7313,449.2969 L153.7313,448.1406 Q153.7313,446.8125 154.3484,445.6641 Q154.9656,444.5156 156.0594,443.8984 Q157.1531,443.2813 158.3875,443.2813 Q159.1219,443.2813 159.7703,443.4453 Q160.4188,443.6094 160.9656,443.9688 Z "/><text fill="#000000" font-family="sans-serif" font-size="12" font-style="italic" lengthAdjust="spacingAndGlyphs" textLength="44" x="177.8" y="445.457">«Entity»</text><text fill="#000000" font-family="sans-serif" font-size="12" lengthAdjust="spacingAndGlyphs" textLength="48" x="175.8" y="460.5508">PieChart</text><line style="stroke: #000000; stroke-width: 1.5;" x1="128" x2="242" y1="468.1875" y2="468.1875"/><text fill="#000000" font-family="sans-serif" font-size="11" lengthAdjust="spacingAndGlyphs" textLength="104" x="133" y="483.6064">CHART_TYPE : String</text><line style="stroke: #000000; stroke-width: 1.5;" x1="128" x2="242" y1="490.0234" y2="490.0234"/><!--class bioladen.data.statistic.Statistic--><rect fill="url(#gy7mise8ysw0x0)" filter="url(#fy7mise8ysw0x)" height="56.1875" id="bioladen.data.statistic.Statistic" style="stroke: #000000; stroke-width: 1.5;" width="83" x="464.5" y="858"/><ellipse cx="479.5" cy="878.0938" fill="#ADD1B2" rx="11" ry="11" style="stroke: #000000; stroke-width: 1.0;"/><path d="M482.2656,873.9688 Q482.4219,873.75 482.6094,873.6406 Q482.7969,873.5313 483.0156,873.5313 Q483.3906,873.5313 483.625,873.7891 Q483.8594,874.0469 483.8594,874.6563 L483.8594,876.1094 Q483.8594,876.7188 483.625,876.9844 Q483.3906,877.25 483.0156,877.25 Q482.6719,877.25 482.4688,877.0469 Q482.2656,876.8594 482.1563,876.3438 Q482.1094,875.9844 481.9219,875.7969 Q481.5938,875.4219 480.9844,875.2031 Q480.375,874.9844 479.75,874.9844 Q478.9844,874.9844 478.3516,875.3125 Q477.7188,875.6406 477.2266,876.3906 Q476.7344,877.1406 476.7344,878.1719 L476.7344,879.2656 Q476.7344,880.5 477.625,881.3203 Q478.5156,882.1406 480.1094,882.1406 Q481.0469,882.1406 481.7031,881.8906 Q482.0938,881.7344 482.5156,881.2969 Q482.7813,881.0313 482.9297,880.9531 Q483.0781,880.875 483.2813,880.875 Q483.6094,880.875 483.8672,881.1328 Q484.125,881.3906 484.125,881.7344 Q484.125,882.0781 483.7813,882.4844 Q483.2813,883.0625 482.4844,883.3906 Q481.4063,883.8438 480.1094,883.8438 Q478.5938,883.8438 477.3906,883.2188 Q476.4063,882.7188 475.7188,881.6484 Q475.0313,880.5781 475.0313,879.2969 L475.0313,878.1406 Q475.0313,876.8125 475.6484,875.6641 Q476.2656,874.5156 477.3594,873.8984 Q478.4531,873.2813 479.6875,873.2813 Q480.4219,873.2813 481.0703,873.4453 Q481.7188,873.6094 482.2656,873.9688 Z "/><text fill="#000000" font-family="sans-serif" font-size="12" font-style="italic" lengthAdjust="spacingAndGlyphs" textLength="55" x="491.5" y="875.457">«Service»</text><text fill="#000000" font-family="sans-serif" font-size="12" lengthAdjust="spacingAndGlyphs" textLength="43" x="497.5" y="890.5508">Statistic</text><line style="stroke: #000000; stroke-width: 1.5;" x1="465.5" x2="546.5" y1="898.1875" y2="898.1875"/><line style="stroke: #000000; stroke-width: 1.5;" x1="465.5" x2="546.5" y1="906.1875" y2="906.1875"/><!--class bioladen.event.LogEvent--><rect fill="url(#gy7mise8ysw0x0)" filter="url(#fy7mise8ysw0x)" height="70.0234" id="bioladen.event.LogEvent" style="stroke: #000000; stroke-width: 1.5;" width="83" x="1228.5" y="647"/><ellipse cx="1243.5" cy="667.0938" fill="#ADD1B2" rx="11" ry="11" style="stroke: #000000; stroke-width: 1.0;"/><path d="M1246.2656,662.9688 Q1246.4219,662.75 1246.6094,662.6406 Q1246.7969,662.5313 1247.0156,662.5313 Q1247.3906,662.5313 1247.625,662.7891 Q1247.8594,663.0469 1247.8594,663.6563 L1247.8594,665.1094 Q1247.8594,665.7188 1247.625,665.9844 Q1247.3906,666.25 1247.0156,666.25 Q1246.6719,666.25 1246.4688,666.0469 Q1246.2656,665.8594 1246.1563,665.3438 Q1246.1094,664.9844 1245.9219,664.7969 Q1245.5938,664.4219 1244.9844,664.2031 Q1244.375,663.9844 1243.75,663.9844 Q1242.9844,663.9844 1242.3516,664.3125 Q1241.7188,664.6406 1241.2266,665.3906 Q1240.7344,666.1406 1240.7344,667.1719 L1240.7344,668.2656 Q1240.7344,669.5 1241.625,670.3203 Q1242.5156,671.1406 1244.1094,671.1406 Q1245.0469,671.1406 1245.7031,670.8906 Q1246.0938,670.7344 1246.5156,670.2969 Q1246.7813,670.0313 1246.9297,669.9531 Q1247.0781,669.875 1247.2813,669.875 Q1247.6094,669.875 1247.8672,670.1328 Q1248.125,670.3906 1248.125,670.7344 Q1248.125,671.0781 1247.7813,671.4844 Q1247.2813,672.0625 1246.4844,672.3906 Q1245.4063,672.8438 1244.1094,672.8438 Q1242.5938,672.8438 1241.3906,672.2188 Q1240.4063,671.7188 1239.7188,670.6484 Q1239.0313,669.5781 1239.0313,668.2969 L1239.0313,667.1406 Q1239.0313,665.8125 1239.6484,664.6641 Q1240.2656,663.5156 1241.3594,662.8984 Q1242.4531,662.2813 1243.6875,662.2813 Q1244.4219,662.2813 1245.0703,662.4453 Q1245.7188,662.6094 1246.2656,662.9688 Z "/><text fill="#000000" font-family="sans-serif" font-size="12" font-style="italic" lengthAdjust="spacingAndGlyphs" textLength="44" x="1261" y="664.457">«Entity»</text><text fill="#000000" font-family="sans-serif" font-size="12" lengthAdjust="spacingAndGlyphs" textLength="51" x="1257.5" y="679.5508">LogEvent</text><line style="stroke: #000000; stroke-width: 1.5;" x1="1229.5" x2="1310.5" y1="687.1875" y2="687.1875"/><line style="stroke: #000000; stroke-width: 1.5;" x1="1229.5" x2="1310.5" y1="695.1875" y2="695.1875"/><text fill="#000000" font-family="sans-serif" font-size="11" lengthAdjust="spacingAndGlyphs" textLength="59" x="1234.5" y="710.6064">+LogEvent()</text><!--class bioladen.event.LogEventListener--><rect fill="url(#gy7mise8ysw0x0)" filter="url(#fy7mise8ysw0x)" height="70.0234" id="bioladen.event.LogEventListener" style="stroke: #000000; stroke-width: 1.5;" width="192" x="1001" y="647"/><ellipse cx="1044.8" cy="667.0938" fill="#ADD1B2" rx="11" ry="11" style="stroke: #000000; stroke-width: 1.0;"/><path d="M1047.5656,662.9688 Q1047.7219,662.75 1047.9094,662.6406 Q1048.0969,662.5313 1048.3156,662.5313 Q1048.6906,662.5313 1048.925,662.7891 Q1049.1594,663.0469 1049.1594,663.6563 L1049.1594,665.1094 Q1049.1594,665.7188 1048.925,665.9844 Q1048.6906,666.25 1048.3156,666.25 Q1047.9719,666.25 1047.7688,666.0469 Q1047.5656,665.8594 1047.4563,665.3438 Q1047.4094,664.9844 1047.2219,664.7969 Q1046.8938,664.4219 1046.2844,664.2031 Q1045.675,663.9844 1045.05,663.9844 Q1044.2844,663.9844 1043.6516,664.3125 Q1043.0188,664.6406 1042.5266,665.3906 Q1042.0344,666.1406 1042.0344,667.1719 L1042.0344,668.2656 Q1042.0344,669.5 1042.925,670.3203 Q1043.8156,671.1406 1045.4094,671.1406 Q1046.3469,671.1406 1047.0031,670.8906 Q1047.3938,670.7344 1047.8156,670.2969 Q1048.0813,670.0313 1048.2297,669.9531 Q1048.3781,669.875 1048.5813,669.875 Q1048.9094,669.875 1049.1672,670.1328 Q1049.425,670.3906 1049.425,670.7344 Q1049.425,671.0781 1049.0813,671.4844 Q1048.5813,672.0625 1047.7844,672.3906 Q1046.7063,672.8438 1045.4094,672.8438 Q1043.8938,672.8438 1042.6906,672.2188 Q1041.7063,671.7188 1041.0188,670.6484 Q1040.3313,669.5781 1040.3313,668.2969 L1040.3313,667.1406 Q1040.3313,665.8125 1040.9484,664.6641 Q1041.5656,663.5156 1042.6594,662.8984 Q1043.7531,662.2813 1044.9875,662.2813 Q1045.7219,662.2813 1046.3703,662.4453 Q1047.0188,662.6094 1047.5656,662.9688 Z "/><text fill="#000000" font-family="sans-serif" font-size="12" font-style="italic" lengthAdjust="spacingAndGlyphs" textLength="55" x="1085.7" y="664.457">«Service»</text><text fill="#000000" font-family="sans-serif" font-size="12" lengthAdjust="spacingAndGlyphs" textLength="96" x="1065.2" y="679.5508">LogEventListener</text><line style="stroke: #000000; stroke-width: 1.5;" x1="1002" x2="1192" y1="687.1875" y2="687.1875"/><line style="stroke: #000000; stroke-width: 1.5;" x1="1002" x2="1192" y1="695.1875" y2="695.1875"/><text fill="#000000" font-family="sans-serif" font-size="11" lengthAdjust="spacingAndGlyphs" textLength="180" x="1007" y="710.6064">+onApplicationEvent(LogEvent) : void</text><!--class org.salespointframework.time.BusinessTime--><rect fill="url(#gy7mise8ysw0x0)" filter="url(#fy7mise8ysw0x)" height="56.1875" id="org.salespointframework.time.BusinessTime" style="stroke: #000000; stroke-width: 1.5;" width="110" x="1810" y="858"/><ellipse cx="1825" cy="878.0938" fill="#B4A7E5" rx="11" ry="11" style="stroke: #000000; stroke-width: 1.0;"/><path d="M1825.9531,874.7344 L1825.9531,881.3906 L1827.6719,881.3906 Q1828.2813,881.3906 1828.5469,881.625 Q1828.8125,881.8594 1828.8125,882.25 Q1828.8125,882.625 1828.5469,882.8594 Q1828.2813,883.0938 1827.6719,883.0938 L1822.5313,883.0938 Q1821.9219,883.0938 1821.6563,882.8594 Q1821.3906,882.625 1821.3906,882.2344 Q1821.3906,881.8594 1821.6563,881.625 Q1821.9219,881.3906 1822.5313,881.3906 L1824.25,881.3906 L1824.25,874.7344 L1822.5313,874.7344 Q1821.9219,874.7344 1821.6563,874.5 Q1821.3906,874.2656 1821.3906,873.875 Q1821.3906,873.5 1821.6563,873.2656 Q1821.9219,873.0313 1822.5313,873.0313 L1827.6719,873.0313 Q1828.2813,873.0313 1828.5469,873.2656 Q1828.8125,873.5 1828.8125,873.875 Q1828.8125,874.2656 1828.5469,874.5 Q1828.2813,874.7344 1827.6719,874.7344 L1825.9531,874.7344 Z "/><text fill="#000000" font-family="sans-serif" font-size="12" font-style="italic" lengthAdjust="spacingAndGlyphs" textLength="55" x="1850.5" y="875.457">«Service»</text><text fill="#000000" font-family="sans-serif" font-size="12" font-style="italic" lengthAdjust="spacingAndGlyphs" textLength="78" x="1839" y="890.5508">BusinessTime</text><line style="stroke: #000000; stroke-width: 1.5;" x1="1811" x2="1919" y1="898.1875" y2="898.1875"/><line style="stroke: #000000; stroke-width: 1.5;" x1="1811" x2="1919" y1="906.1875" y2="906.1875"/><!--class org.springframework.context.ApplicationEvent--><rect fill="url(#gy7mise8ysw0x0)" filter="url(#fy7mise8ysw0x)" height="111.5313" id="org.springframework.context.ApplicationEvent" style="stroke: #000000; stroke-width: 1.5;" width="137" x="1467.5" y="830"/><ellipse cx="1489.25" cy="850.0938" fill="#ADD1B2" rx="11" ry="11" style="stroke: #000000; stroke-width: 1.0;"/><path d="M1492.0156,845.9688 Q1492.1719,845.75 1492.3594,845.6406 Q1492.5469,845.5313 1492.7656,845.5313 Q1493.1406,845.5313 1493.375,845.7891 Q1493.6094,846.0469 1493.6094,846.6563 L1493.6094,848.1094 Q1493.6094,848.7188 1493.375,848.9844 Q1493.1406,849.25 1492.7656,849.25 Q1492.4219,849.25 1492.2188,849.0469 Q1492.0156,848.8594 1491.9063,848.3438 Q1491.8594,847.9844 1491.6719,847.7969 Q1491.3438,847.4219 1490.7344,847.2031 Q1490.125,846.9844 1489.5,846.9844 Q1488.7344,846.9844 1488.1016,847.3125 Q1487.4688,847.6406 1486.9766,848.3906 Q1486.4844,849.1406 1486.4844,850.1719 L1486.4844,851.2656 Q1486.4844,852.5 1487.375,853.3203 Q1488.2656,854.1406 1489.8594,854.1406 Q1490.7969,854.1406 1491.4531,853.8906 Q1491.8438,853.7344 1492.2656,853.2969 Q1492.5313,853.0313 1492.6797,852.9531 Q1492.8281,852.875 1493.0313,852.875 Q1493.3594,852.875 1493.6172,853.1328 Q1493.875,853.3906 1493.875,853.7344 Q1493.875,854.0781 1493.5313,854.4844 Q1493.0313,855.0625 1492.2344,855.3906 Q1491.1563,855.8438 1489.8594,855.8438 Q1488.3438,855.8438 1487.1406,855.2188 Q1486.1563,854.7188 1485.4688,853.6484 Q1484.7813,852.5781 1484.7813,851.2969 L1484.7813,850.1406 Q1484.7813,848.8125 1485.3984,847.6641 Q1486.0156,846.5156 1487.1094,845.8984 Q1488.2031,845.2813 1489.4375,845.2813 Q1490.1719,845.2813 1490.8203,845.4453 Q1491.4688,845.6094 1492.0156,845.9688 Z "/><text fill="#000000" font-family="sans-serif" font-size="12" font-style="italic" lengthAdjust="spacingAndGlyphs" textLength="44" x="1527.75" y="847.457">«Entity»</text><text fill="#000000" font-family="sans-serif" font-size="12" lengthAdjust="spacingAndGlyphs" textLength="90" x="1504.75" y="862.5508">ApplicationEvent</text><line style="stroke: #000000; stroke-width: 1.5;" x1="1468.5" x2="1603.5" y1="870.1875" y2="870.1875"/><text fill="#000000" font-family="sans-serif" font-size="11" lengthAdjust="spacingAndGlyphs" text-decoration="underline" textLength="113" x="1473.5" y="885.6064">-serialVersionUID : long</text><line style="stroke: #000000; stroke-width: 1.0;" x1="1473.5" x2="1586.5" y1="887.6064" y2="887.6064"/><text fill="#000000" font-family="sans-serif" font-size="11" lengthAdjust="spacingAndGlyphs" textLength="81" x="1473.5" y="899.4424">-timestamp : long</text><line style="stroke: #000000; stroke-width: 1.5;" x1="1468.5" x2="1603.5" y1="905.8594" y2="905.8594"/><text fill="#000000" font-family="sans-serif" font-size="11" lengthAdjust="spacingAndGlyphs" textLength="125" x="1473.5" y="921.2783">+ApplicationEvent(Object)</text><text fill="#000000" font-family="sans-serif" font-size="11" lengthAdjust="spacingAndGlyphs" textLength="109" x="1473.5" y="935.1143">+getTimestamp() : long</text><!--class org.springframework.context.ApplicationEventPublisher--><rect fill="url(#gy7mise8ysw0x0)" filter="url(#fy7mise8ysw0x)" height="83.8594" id="org.springframework.context.ApplicationEventPublisher" style="stroke: #000000; stroke-width: 1.5;" width="190" x="1441" y="640"/><ellipse cx="1461.85" cy="660.0938" fill="#B4A7E5" rx="11" ry="11" style="stroke: #000000; stroke-width: 1.0;"/><path d="M1462.8031,656.7344 L1462.8031,663.3906 L1464.5219,663.3906 Q1465.1313,663.3906 1465.3969,663.625 Q1465.6625,663.8594 1465.6625,664.25 Q1465.6625,664.625 1465.3969,664.8594 Q1465.1313,665.0938 1464.5219,665.0938 L1459.3813,665.0938 Q1458.7719,665.0938 1458.5063,664.8594 Q1458.2406,664.625 1458.2406,664.2344 Q1458.2406,663.8594 1458.5063,663.625 Q1458.7719,663.3906 1459.3813,663.3906 L1461.1,663.3906 L1461.1,656.7344 L1459.3813,656.7344 Q1458.7719,656.7344 1458.5063,656.5 Q1458.2406,656.2656 1458.2406,655.875 Q1458.2406,655.5 1458.5063,655.2656 Q1458.7719,655.0313 1459.3813,655.0313 L1464.5219,655.0313 Q1465.1313,655.0313 1465.3969,655.2656 Q1465.6625,655.5 1465.6625,655.875 Q1465.6625,656.2656 1465.3969,656.5 Q1465.1313,656.7344 1464.5219,656.7344 L1462.8031,656.7344 Z "/><text fill="#000000" font-family="sans-serif" font-size="12" font-style="italic" lengthAdjust="spacingAndGlyphs" textLength="55" x="1522.15" y="657.457">«Service»</text><text fill="#000000" font-family="sans-serif" font-size="12" font-style="italic" lengthAdjust="spacingAndGlyphs" textLength="145" x="1477.15" y="672.5508">ApplicationEventPublisher</text><line style="stroke: #000000; stroke-width: 1.5;" x1="1442" x2="1630" y1="680.1875" y2="680.1875"/><line style="stroke: #000000; stroke-width: 1.5;" x1="1442" x2="1630" y1="688.1875" y2="688.1875"/><text fill="#000000" font-family="sans-serif" font-size="11" lengthAdjust="spacingAndGlyphs" textLength="178" x="1447" y="703.6064">publishEvent(ApplicationEvent) : void</text><text fill="#000000" font-family="sans-serif" font-size="11" lengthAdjust="spacingAndGlyphs" textLength="129" x="1447" y="717.4424">publishEvent(Object) : void</text><!--class org.springframework.context.ApplicationListener--><rect fill="url(#gy7mise8ysw0x0)" filter="url(#fy7mise8ysw0x)" height="70.0234" id="org.springframework.context.ApplicationListener" style="stroke: #000000; stroke-width: 1.5;" width="290" x="1416" y="1105"/><ellipse cx="1431" cy="1125.0938" fill="#B4A7E5" rx="11" ry="11" style="stroke: #000000; stroke-width: 1.0;"/><path d="M1431.9531,1121.7344 L1431.9531,1128.3906 L1433.6719,1128.3906 Q1434.2813,1128.3906 1434.5469,1128.625 Q1434.8125,1128.8594 1434.8125,1129.25 Q1434.8125,1129.625 1434.5469,1129.8594 Q1434.2813,1130.0938 1433.6719,1130.0938 L1428.5313,1130.0938 Q1427.9219,1130.0938 1427.6563,1129.8594 Q1427.3906,1129.625 1427.3906,1129.2344 Q1427.3906,1128.8594 1427.6563,1128.625 Q1427.9219,1128.3906 1428.5313,1128.3906 L1430.25,1128.3906 L1430.25,1121.7344 L1428.5313,1121.7344 Q1427.9219,1121.7344 1427.6563,1121.5 Q1427.3906,1121.2656 1427.3906,1120.875 Q1427.3906,1120.5 1427.6563,1120.2656 Q1427.9219,1120.0313 1428.5313,1120.0313 L1433.6719,1120.0313 Q1434.2813,1120.0313 1434.5469,1120.2656 Q1434.8125,1120.5 1434.8125,1120.875 Q1434.8125,1121.2656 1434.5469,1121.5 Q1434.2813,1121.7344 1433.6719,1121.7344 L1431.9531,1121.7344 Z "/><text fill="#000000" font-family="sans-serif" font-size="12" font-style="italic" lengthAdjust="spacingAndGlyphs" textLength="55" x="1470" y="1122.457">«Service»</text><text fill="#000000" font-family="sans-serif" font-size="12" font-style="italic" lengthAdjust="spacingAndGlyphs" textLength="105" x="1445" y="1137.5508">ApplicationListener</text><rect fill="#FFFFFF" height="17.0938" style="stroke: #000000; stroke-width: 1.0; stroke-dasharray: 2.0,2.0;" width="151" x="1558" y="1102"/><text fill="#000000" font-family="sans-serif" font-size="12" font-style="italic" lengthAdjust="spacingAndGlyphs" textLength="149" x="1559" y="1115.457">E extends ApplicationEvent</text><line style="stroke: #000000; stroke-width: 1.5;" x1="1417" x2="1705" y1="1145.1875" y2="1145.1875"/><line style="stroke: #000000; stroke-width: 1.5;" x1="1417" x2="1705" y1="1153.1875" y2="1153.1875"/><text fill="#000000" font-family="sans-serif" font-size="11" lengthAdjust="spacingAndGlyphs" textLength="135" x="1422" y="1168.6064">onApplicationEvent(E) : void</text><!--link java.lang.Iterable to bioladen.data.log.LogFilter--><path d="M1428.75,507.194 C1428.75,507.194 1428.75,637 1428.75,637 C1428.75,637 1062.85,637 878.109,637 " fill="none" id="java.lang.Iterable-bioladen.data.log.LogFilter" style="stroke: #000000; stroke-width: 1.0;"/><polygon fill="none" points="1421.75,507.194,1428.75,487.194,1435.75,507.194,1421.75,507.194" style="stroke: #000000; stroke-width: 1.0;"/><!--link bioladen.data.log.LogEntry to bioladen.data.log.LogLevel--><path d="M881,942.056 C881,942.056 881,1089.669 881,1089.669 " fill="none" id="bioladen.data.log.LogEntry-bioladen.data.log.LogLevel" style="stroke: #000000; stroke-width: 1.0;"/><polygon fill="#000000" points="881,1094.669,885,1085.669,881,1089.669,877,1085.669,881,1094.669" style="stroke: #000000; stroke-width: 1.0;"/><text fill="#000000" font-family="sans-serif" font-size="13" lengthAdjust="spacingAndGlyphs" textLength="7" x="873.5953" y="963.005">1</text><text fill="#000000" font-family="sans-serif" font-size="13" lengthAdjust="spacingAndGlyphs" textLength="7" x="873.4641" y="1084.0624">1</text><!--link bioladen.data.log.LogEntry to bioladen.data.log.Log--><path d="M817.046,939 C803.398,939 793,939 793,939 C793,939 793,1022.967 793,1022.967 " fill="none" id="bioladen.data.log.LogEntry-bioladen.data.log.Log" style="stroke: #000000; stroke-width: 1.0;"/><polygon fill="#000000" points="793,1035.967,797,1029.967,793,1023.967,789,1029.967,793,1035.967" style="stroke: #000000; stroke-width: 1.0;"/><text fill="#000000" font-family="sans-serif" font-size="13" lengthAdjust="spacingAndGlyphs" textLength="20" x="789.9183" y="941.4125">0..*</text><text fill="#000000" font-family="sans-serif" font-size="13" lengthAdjust="spacingAndGlyphs" textLength="7" x="792.2055" y="1025.2335">1</text><!--link bioladen.data.log.LogFilter to bioladen.data.log.LogExplorer--><path d="M726,736.123 C726,736.123 726,836.95 726,836.95 " fill="none" id="bioladen.data.log.LogFilter-bioladen.data.log.LogExplorer" style="stroke: #000000; stroke-width: 1.0;"/><polygon fill="#000000" points="726,731.123,722,740.123,726,736.123,730,740.123,726,731.123" style="stroke: #000000; stroke-width: 1.0;"/><!--link bioladen.data.log.LogExplorer to bioladen.data.log.Log--><path d="M694,955.275 C694,955.275 694,1035.939 694,1035.939 " fill="none" id="bioladen.data.log.LogExplorer-bioladen.data.log.Log" style="stroke: #000000; stroke-width: 1.0;"/><polygon fill="none" points="687,955.275,694,935.275,701,955.275,687,955.275" style="stroke: #000000; stroke-width: 1.0;"/><!--link bioladen.data.statistic.Chart to bioladen.data.statistic.BarChart--><path d="M336,332.086 C336,332.086 336,427.755 336,427.755 " fill="none" id="bioladen.data.statistic.Chart-bioladen.data.statistic.BarChart" style="stroke: #000000; stroke-width: 1.0;"/><polygon fill="none" points="329,332.086,336,312.086,343,332.086,329,332.086" style="stroke: #000000; stroke-width: 1.0;"/><!--link bioladen.data.statistic.Chart to bioladen.data.statistic.LineChart--><path d="M487,332.086 C487,332.086 487,427.755 487,427.755 " fill="none" id="bioladen.data.statistic.Chart-bioladen.data.statistic.LineChart" style="stroke: #000000; stroke-width: 1.0;"/><polygon fill="none" points="480,332.086,487,312.086,494,332.086,480,332.086" style="stroke: #000000; stroke-width: 1.0;"/><!--link bioladen.data.statistic.Chart to bioladen.data.statistic.PieChart--><path d="M185,332.086 C185,332.086 185,427.755 185,427.755 " fill="none" id="bioladen.data.statistic.Chart-bioladen.data.statistic.PieChart" style="stroke: #000000; stroke-width: 1.0;"/><polygon fill="none" points="178,332.086,185,312.086,192,332.086,178,332.086" style="stroke: #000000; stroke-width: 1.0;"/><!--link bioladen.data.statistic.PieChart to bioladen.data.statistic.StatisticController--><path d="M185,503.186 C185,503.186 185,682 185,682 C185,682 280.16,682 347.255,682 " fill="none" id="bioladen.data.statistic.PieChart-bioladen.data.statistic.StatisticController" style="stroke: #000000; stroke-width: 1.0;"/><polygon fill="#000000" points="185,498.186,181,507.186,185,503.186,189,507.186,185,498.186" style="stroke: #000000; stroke-width: 1.0;"/><text fill="#000000" font-family="sans-serif" font-size="13" lengthAdjust="spacingAndGlyphs" textLength="20" x="163.2188" y="519.4028">0..*</text><text fill="#000000" font-family="sans-serif" font-size="13" lengthAdjust="spacingAndGlyphs" textLength="7" x="332.3642" y="678.5904">1</text><!--link bioladen.data.statistic.LineChart to bioladen.data.statistic.StatisticController--><path d="M452.75,503.186 C452.75,503.186 452.75,657.749 452.75,657.749 " fill="none" id="bioladen.data.statistic.LineChart-bioladen.data.statistic.StatisticController" style="stroke: #000000; stroke-width: 1.0;"/><polygon fill="#000000" points="452.75,498.186,448.75,507.186,452.75,503.186,456.75,507.186,452.75,498.186" style="stroke: #000000; stroke-width: 1.0;"/><text fill="#000000" font-family="sans-serif" font-size="13" lengthAdjust="spacingAndGlyphs" textLength="20" x="424.868" y="519.4028">0..*</text><text fill="#000000" font-family="sans-serif" font-size="13" lengthAdjust="spacingAndGlyphs" textLength="7" x="455.2953" y="647.0248">1</text><!--link bioladen.data.statistic.BarChart to bioladen.data.statistic.StatisticController--><path d="M370.75,503.186 C370.75,503.186 370.75,657.749 370.75,657.749 " fill="none" id="bioladen.data.statistic.BarChart-bioladen.data.statistic.StatisticController" style="stroke: #000000; stroke-width: 1.0;"/><polygon fill="#000000" points="370.75,498.186,366.75,507.186,370.75,503.186,374.75,507.186,370.75,498.186" style="stroke: #000000; stroke-width: 1.0;"/><text fill="#000000" font-family="sans-serif" font-size="13" lengthAdjust="spacingAndGlyphs" textLength="20" x="355.1586" y="519.4028">0..*</text><text fill="#000000" font-family="sans-serif" font-size="13" lengthAdjust="spacingAndGlyphs" textLength="7" x="352.2828" y="647.0248">1</text><!--link bioladen.data.statistic.StatisticController to bioladen.data.statistic.Statistic--><path d="M470.5,706.203 C470.5,706.203 470.5,852.916 470.5,852.916 " fill="none" id="bioladen.data.statistic.StatisticController-bioladen.data.statistic.Statistic" style="stroke: #000000; stroke-width: 1.0;"/><polygon fill="#000000" points="470.5,857.916,474.5,848.916,470.5,852.916,466.5,848.916,470.5,857.916" style="stroke: #000000; stroke-width: 1.0;"/><text fill="#000000" font-family="sans-serif" font-size="13" lengthAdjust="spacingAndGlyphs" textLength="7" x="476.9063" y="727.5904">1</text><text fill="#000000" font-family="sans-serif" font-size="13" lengthAdjust="spacingAndGlyphs" textLength="7" x="454.4813" y="847.0857">1</text><!--link bioladen.data.statistic.Statistic to bioladen.data.log.Log--><path d="M506,914.153 C506,980.285 506,1140 506,1140 C506,1140 592.792,1140 592.792,1140 " fill="none" id="bioladen.data.statistic.Statistic-bioladen.data.log.Log" style="stroke: #000000; stroke-width: 1.0;"/><polygon fill="#000000" points="605.792,1140,599.792,1136,593.792,1140,599.792,1144,605.792,1140" style="stroke: #000000; stroke-width: 1.0;"/><text fill="#000000" font-family="sans-serif" font-size="13" lengthAdjust="spacingAndGlyphs" textLength="7" x="498.2344" y="935.5745">1</text><text fill="#000000" font-family="sans-serif" font-size="13" lengthAdjust="spacingAndGlyphs" textLength="7" x="590.9284" y="1136.8814">1</text><!--link bioladen.event.LogEventListener to bioladen.data.statistic.Statistic--><path d="M1065,722.182 C1065,722.182 1065,781 1065,781 C1065,781 510.75,781 510.75,781 C510.75,781 510.75,826.76 510.75,857.862 " fill="none" id="bioladen.event.LogEventListener-bioladen.data.statistic.Statistic" style="stroke: #000000; stroke-width: 1.0;"/><polygon fill="#000000" points="1065,717.182,1061,726.182,1065,722.182,1069,726.182,1065,717.182" style="stroke: #000000; stroke-width: 1.0;"/><text fill="#000000" font-family="sans-serif" font-size="13" lengthAdjust="spacingAndGlyphs" textLength="20" x="1037.5188" y="738.3981">0..*</text><text fill="#000000" font-family="sans-serif" font-size="13" lengthAdjust="spacingAndGlyphs" textLength="7" x="504.0391" y="847.0192">1</text><!--link bioladen.event.LogEvent to bioladen.data.log.Log--><path d="M1256.17,722.095 C1256.17,722.095 1256.17,1066 1256.17,1066 C1256.17,1066 962.858,1066 804.174,1066 " fill="none" id="bioladen.event.LogEvent-bioladen.data.log.Log" style="stroke: #000000; stroke-width: 1.0;"/><polygon fill="#000000" points="1256.17,717.095,1252.17,726.095,1256.17,722.095,1260.17,726.095,1256.17,717.095" style="stroke: #000000; stroke-width: 1.0;"/><text fill="#000000" font-family="sans-serif" font-size="13" lengthAdjust="spacingAndGlyphs" textLength="20" x="1231.7763" y="738.566">0..*</text><text fill="#000000" font-family="sans-serif" font-size="13" lengthAdjust="spacingAndGlyphs" textLength="7" x="812.035" y="1057.2158">1</text><!--link bioladen.data.log.LogEntry to org.salespointframework.time.BusinessTime--><path d="M933.25,942.021 C933.25,966.179 933.25,989 933.25,989 C933.25,989 1865,989 1865,989 C1865,989 1865,919.145 1865,919.145 " fill="none" id="bioladen.data.log.LogEntry-org.salespointframework.time.BusinessTime" style="stroke: #000000; stroke-width: 1.0;"/><polygon fill="#000000" points="1865,914.145,1861,923.145,1865,919.145,1869,923.145,1865,914.145" style="stroke: #000000; stroke-width: 1.0;"/><!--link org.springframework.context.ApplicationEvent to org.springframework.context.ApplicationListener--><path d="M1536,947.056 C1536,947.056 1536,1104.81 1536,1104.81 " fill="none" id="org.springframework.context.ApplicationEvent-org.springframework.context.ApplicationListener" style="stroke: #000000; stroke-width: 1.0;"/><polygon fill="#000000" points="1536,942.056,1532,951.056,1536,947.056,1540,951.056,1536,942.056" style="stroke: #000000; stroke-width: 1.0;"/><text fill="#000000" font-family="sans-serif" font-size="13" lengthAdjust="spacingAndGlyphs" textLength="45" x="1576.5" y="986.4951">«binds»</text><text fill="#000000" font-family="sans-serif" font-size="13" lengthAdjust="spacingAndGlyphs" textLength="96" x="1553" y="1002.8467">ApplicationEvent</text><text fill="#000000" font-family="sans-serif" font-size="13" lengthAdjust="spacingAndGlyphs" textLength="5" x="1530.7109" y="963.005">*</text><text fill="#000000" font-family="sans-serif" font-size="13" lengthAdjust="spacingAndGlyphs" textLength="7" x="1523.5672" y="1094.1033">1</text><!--link org.springframework.context.ApplicationEventPublisher to org.springframework.context.ApplicationEvent--><path d="M1536,724.269 C1536,724.269 1536,824.847 1536,824.847 " fill="none" id="org.springframework.context.ApplicationEventPublisher-org.springframework.context.ApplicationEvent" style="stroke: #000000; stroke-width: 1.0;"/><polygon fill="#000000" points="1536,829.847,1540,820.847,1536,824.847,1532,820.847,1536,829.847" style="stroke: #000000; stroke-width: 1.0;"/><text fill="#000000" font-family="sans-serif" font-size="13" lengthAdjust="spacingAndGlyphs" textLength="7" x="1528.4641" y="745.4992">1</text><text fill="#000000" font-family="sans-serif" font-size="13" lengthAdjust="spacingAndGlyphs" textLength="5" x="1530.6797" y="819.1751">*</text><!--link bioladen.event.LogEvent to org.springframework.context.ApplicationEvent--><path d="M1283.83,717.069 C1283.83,775.395 1283.83,886 1283.83,886 C1283.83,886 1447.43,886 1447.43,886 " fill="none" id="bioladen.event.LogEvent-org.springframework.context.ApplicationEvent" style="stroke: #000000; stroke-width: 1.0;"/><polygon fill="none" points="1447.43,879,1467.43,886,1447.43,893,1447.43,879" style="stroke: #000000; stroke-width: 1.0;"/><!--link bioladen.event.LogEventListener to org.springframework.context.ApplicationListener--><path d="M1129,717.178 C1129,824.424 1129,1140 1129,1140 C1129,1140 1395.95,1140 1395.95,1140 " fill="none" id="bioladen.event.LogEventListener-org.springframework.context.ApplicationListener" style="stroke: #000000; stroke-width: 1.0;"/><polygon fill="none" points="1395.95,1133,1415.95,1140,1395.95,1147,1395.95,1133" style="stroke: #000000; stroke-width: 1.0;"/><!--
@startuml

skinparam class {
	BackgroundColor #LightCoral/LightPink
    BorderColor Black
    ArrowColor  Black
}

skinparam package {
    FontColor Grey
    BorderColor DarkMagenta
}

skinparam classAttributeIconSize 0
skinparam linetype ortho

rectangle JavaSE-1.8{
    namespace java.lang {

    }
}


rectangle Bioladen {
    namespace bioladen.data.log {

        class Log <<Entity>> {
            -log(LogLevel, Order) : boolean
            -log(LogLevel, Sale) : boolean
            -log(LogLevel, Cancellation) : boolean
            -log(LogLevel, LogInventory) : boolean
            -log(LogLevel, User) : boolean
            +info(Object, String) : boolean
            +warning(Object, String) : boolean
            +error(Object, String) : boolean
            +getLog() : Iterable<LogEntry>
            +getLog()
            -publishLogEvent()
        }

        class LogEntry <<Entity>> {
            logLevel : LogLevel
            thrownBy : String
            logTime : LocalDateTime
            content : Object
        }



        enum LogLevel {
            INFO
            WARNING
            ERROR
        }


        class LogExplorer <<Entity>> {
            +filterBy(Duration) : LogExplorer
            +filterBy(LogLevel) : LogExplorer
            +filterBy(ThrownBy) : LogExplorer
        }

        class LogFilter <<static>> extends java.lang.Iterable  {
            +filterBy(LogFilter, Duration) : LogFilter
            +filterBy(LogFilter, LogLevel) : LogFilter
            +filterBy(LogFilter, ThrownBy) : LogFilter
        }


        LogEntry "1" - -> "1" LogLevel
        LogEntry "0..*" - -* "1" Log
        LogFilter <- - LogExplorer
        LogExplorer <|- - Log

    }

    namespace bioladen.data.statistic {
       class StatisticController {

        }

        abstract class Chart <<static, final>>{
            {abstract} CHART_TYPE : String
            TEMPLATE : String
            TEMPLATE_DATASET : String
            generateChart(title : String, labels : List<T>, data : List<T>) : String
            generateChart(title : String, dataset : Map<T,S>) : String
            generateChart(title : String, labels : List<List<T>>, data : List<List<T>>) : String
            generateChart(title : String, datasets : List<Map<T,S>>) : String
            generateChart(title : String, labels : List<T>, data : List<T>, color : Color) : String
            generateChart(title : String, dataset : Map<T,S>, color : Color) : String
            generateChart(title : String, labels : List<List<T>>, data : List<List<T>>, colors : List<Color>) : String
            generateChart(title : String, datasets : List<Map<T,S>>, colors : List<Color>) : String
        }

        class BarChart <<Entity>> extends bioladen.data.statistic.Chart {
            CHART_TYPE : String
        }

        class LineChart <<Entity>> extends bioladen.data.statistic.Chart {
            CHART_TYPE : String
        }

        class PieChart <<Entity>> extends bioladen.data.statistic.Chart  {
            CHART_TYPE : String
        }

        class Statistic <<Service>>{

        }

        PieChart "0..*" <- - "1" StatisticController
        LineChart "0..*" <- - "1" StatisticController
        BarChart "0..*" <- - "1" StatisticController
        StatisticController "1" - -> "1" Statistic
        Statistic "1" - -* "1" bioladen.data.log.Log



    }

    namespace bioladen.event {
        class LogEvent <<Entity>> {
            +LogEvent()

        }

        class LogEventListener <<Service>> {
            +onApplicationEvent(LogEvent) : void
        }

        LogEventListener "0..*" <- - "1" bioladen.data.statistic.Statistic
    }


    bioladen.event.LogEvent "0..*" <- - "1" bioladen.data.log.Log

}

rectangle salespoint-framework-7.0.0.RELEASE.jar {
    namespace org.salespointframework.time {

        interface BusinessTime <<Service>> {

        }

        BusinessTime <-right- bioladen.data.log.LogEntry
    }
}


rectangle spring-data-comments-2.1.0.RELEASE.jar as spring {
    namespace org.springframework.context{

        class ApplicationEvent <<Entity>>{
            {static} - serialVersionUID : long
            - timestamp : long
            + ApplicationEvent(Object)
            + getTimestamp() : long
        }

        interface ApplicationEventPublisher <<Service>>{
            publishEvent(ApplicationEvent) : void
            publishEvent(Object) : void
        }

        interface ApplicationListener <E extends ApplicationEvent> <<Service>>{
            onApplicationEvent(E) : void
        }

        ApplicationEvent "*" <- - "1" ApplicationListener: <<binds>>\n ApplicationEvent
        ApplicationEventPublisher "1" - -> "*" ApplicationEvent
    }

}

bioladen.event.LogEvent - -|> org.springframework.context.ApplicationEvent
bioladen.event.LogEventListener - -|> org.springframework.context.ApplicationListener


@enduml

PlantUML version 1.2018.12(Sun Oct 21 12:15:15 CEST 2018)
(GPL source distribution)
Java Runtime: Java(TM) SE Runtime Environment
JVM: Java HotSpot(TM) Client VM
Java Version: 1.8.0_181-b13
Operating System: Windows 10
OS Version: 10.0
Default Encoding: Cp1252
Language: de
Country: DE
--></g></svg>