<?xml version="1.0" encoding="UTF-8" standalone="no"?><svg xmlns="http://www.w3.org/2000/svg" xmlns:xlink="http://www.w3.org/1999/xlink" contentScriptType="application/ecmascript" contentStyleType="text/css" height="1280px" preserveAspectRatio="none" style="width:1152px;height:1280px;" version="1.1" viewBox="0 0 1152 1280" width="1152px" zoomAndPan="magnify"><defs><filter height="300%" id="fkh7h1qb1a9yx" width="300%" x="-1" y="-1"><feGaussianBlur result="blurOut" stdDeviation="2.0"/><feColorMatrix in="blurOut" result="blurOut2" type="matrix" values="0 0 0 0 0 0 0 0 0 0 0 0 0 0 0 0 0 0 .4 0"/><feOffset dx="4.0" dy="4.0" in="blurOut2" result="blurOut3"/><feBlend in="SourceGraphic" in2="blurOut3" mode="normal"/></filter><linearGradient id="gkh7h1qb1a9yx0" x1="0%" x2="100%" y1="0%" y2="100%"><stop offset="0%" stop-color="#F08080"/><stop offset="100%" stop-color="#FFB6C1"/></linearGradient></defs><g><!--cluster salespoint-framework-7.0.0.RELEASE.jar--><rect fill="#FFFFFF" filter="url(#fkh7h1qb1a9yx)" height="1047" style="stroke: #8B008B; stroke-width: 1.5;" width="782" x="14" y="222"/><text fill="#808080" font-family="sans-serif" font-size="14" font-weight="bold" lengthAdjust="spacingAndGlyphs" textLength="316" x="247" y="236.9951">salespoint-framework-7.0.0.RELEASE.jar</text><!--cluster org.salespointframework.useraccount--><polygon fill="#FFFFFF" filter="url(#fkh7h1qb1a9yx)" points="22,249,331,249,338,271.2969,788,271.2969,788,1261,22,1261,22,249" style="stroke: #8B008B; stroke-width: 1.5;"/><line style="stroke: #8B008B; stroke-width: 1.5;" x1="22" x2="338" y1="271.2969" y2="271.2969"/><text fill="#808080" font-family="sans-serif" font-size="14" font-weight="bold" lengthAdjust="spacingAndGlyphs" textLength="303" x="26" y="263.9951">org.salespointframework.useraccount</text><!--cluster Bioladen--><rect fill="#FFFFFF" filter="url(#fkh7h1qb1a9yx)" height="137" style="stroke: #8B008B; stroke-width: 1.5;" width="178" x="336" y="16"/><text fill="#808080" font-family="sans-serif" font-size="14" font-weight="bold" lengthAdjust="spacingAndGlyphs" textLength="67" x="391.5" y="30.9951">Bioladen</text><!--cluster bioladen.user--><polygon fill="#FFFFFF" filter="url(#fkh7h1qb1a9yx)" points="344,43,458,43,465,65.2969,506,65.2969,506,145,344,145,344,43" style="stroke: #8B008B; stroke-width: 1.5;"/><line style="stroke: #8B008B; stroke-width: 1.5;" x1="344" x2="465" y1="65.2969" y2="65.2969"/><text fill="#808080" font-family="sans-serif" font-size="14" font-weight="bold" lengthAdjust="spacingAndGlyphs" textLength="108" x="348" y="57.9951">bioladen.user</text><!--cluster spring--><rect fill="#FFFFFF" filter="url(#fkh7h1qb1a9yx)" height="259" style="stroke: #8B008B; stroke-width: 1.5;" width="337" x="804" y="566"/><text fill="#808080" font-family="sans-serif" font-size="14" font-weight="bold" lengthAdjust="spacingAndGlyphs" textLength="321" x="812" y="580.9951">spring-data-comments-2.1.0.RELEASE.jar</text><!--cluster org.springframework.data.repository--><polygon fill="#FFFFFF" filter="url(#fkh7h1qb1a9yx)" points="812,593,1112,593,1119,615.2969,1128,615.2969,1128,817,812,817,812,593" style="stroke: #8B008B; stroke-width: 1.5;"/><line style="stroke: #8B008B; stroke-width: 1.5;" x1="812" x2="1119" y1="615.2969" y2="615.2969"/><text fill="#808080" font-family="sans-serif" font-size="14" font-weight="bold" lengthAdjust="spacingAndGlyphs" textLength="294" x="816" y="607.9951">org.springframework.data.repository</text><!--class UserAccount--><rect fill="url(#gkh7h1qb1a9yx0)" filter="url(#fkh7h1qb1a9yx)" height="258.8125" id="UserAccount" style="stroke: #000000; stroke-width: 1.5;" width="485" x="30.5" y="994"/><ellipse cx="228.75" cy="1012.9688" fill="#ADD1B2" rx="11" ry="11" style="stroke: #000000; stroke-width: 1.0;"/><path d="M231.7188,1018.6094 Q231.1406,1018.9063 230.5,1019.0469 Q229.8594,1019.2031 229.1563,1019.2031 Q226.6563,1019.2031 225.3281,1017.5625 Q224.0156,1015.9063 224.0156,1012.7813 Q224.0156,1009.6563 225.3281,1008 Q226.6563,1006.3438 229.1563,1006.3438 Q229.8594,1006.3438 230.5,1006.5 Q231.1563,1006.6563 231.7188,1006.9531 L231.7188,1009.6719 Q231.0938,1009.0938 230.5,1008.8281 Q229.9063,1008.5469 229.2813,1008.5469 Q227.9375,1008.5469 227.25,1009.625 Q226.5625,1010.6875 226.5625,1012.7813 Q226.5625,1014.875 227.25,1015.9531 Q227.9375,1017.0156 229.2813,1017.0156 Q229.9063,1017.0156 230.5,1016.75 Q231.0938,1016.4688 231.7188,1015.8906 L231.7188,1018.6094 Z "/><text fill="#000000" font-family="sans-serif" font-size="12" font-style="italic" lengthAdjust="spacingAndGlyphs" textLength="50" x="264.25" y="1010.1387">«Entity»</text><text fill="#000000" font-family="sans-serif" font-size="12" lengthAdjust="spacingAndGlyphs" textLength="80" x="249.25" y="1024.1074">UserAccount</text><line style="stroke: #000000; stroke-width: 1.5;" x1="31.5" x2="514.5" y1="1031.9375" y2="1031.9375"/><text fill="#000000" font-family="sans-serif" font-size="11" lengthAdjust="spacingAndGlyphs" textLength="257" x="36.5" y="1046.1479">-userAccountIdentifier : UserAccountIdentifier</text><text fill="#000000" font-family="sans-serif" font-size="11" lengthAdjust="spacingAndGlyphs" textLength="128" x="36.5" y="1058.9526">-password : Password</text><text fill="#000000" font-family="sans-serif" font-size="11" lengthAdjust="spacingAndGlyphs" textLength="105" x="36.5" y="1071.7573">-firstname : String</text><text fill="#000000" font-family="sans-serif" font-size="11" lengthAdjust="spacingAndGlyphs" textLength="103" x="36.5" y="1084.562">-lastname : String</text><text fill="#000000" font-family="sans-serif" font-size="11" lengthAdjust="spacingAndGlyphs" textLength="81" x="36.5" y="1097.3667">-email : String</text><text fill="#000000" font-family="sans-serif" font-size="11" lengthAdjust="spacingAndGlyphs" textLength="106" x="36.5" y="1110.1714">-roles : Set&lt;Role&gt;</text><text fill="#000000" font-family="sans-serif" font-size="11" lengthAdjust="spacingAndGlyphs" textLength="99" x="36.5" y="1122.9761">-enable : boolean</text><line style="stroke: #000000; stroke-width: 1.5;" x1="31.5" x2="514.5" y1="1129.5703" y2="1129.5703"/><text fill="#000000" font-family="sans-serif" font-size="11" lengthAdjust="spacingAndGlyphs" textLength="79" x="36.5" y="1143.7808">UserAccount()</text><text fill="#000000" font-family="sans-serif" font-size="11" lengthAdjust="spacingAndGlyphs" textLength="286" x="36.5" y="1156.5854">UserAccount(UserAccountIdentifier, String, Role...)</text><text fill="#000000" font-family="sans-serif" font-size="11" lengthAdjust="spacingAndGlyphs" textLength="473" x="36.5" y="1169.3901">UserAccount(UserAccountIdentifier, String, String, String, String, Collection&lt;Role&gt;)</text><text fill="#000000" font-family="sans-serif" font-size="11" lengthAdjust="spacingAndGlyphs" textLength="179" x="36.5" y="1182.1948">+getID() : UserAccountIdentifier</text><text fill="#000000" font-family="sans-serif" font-size="11" lengthAdjust="spacingAndGlyphs" textLength="141" x="36.5" y="1194.9995">+getUserName() : String</text><text fill="#000000" font-family="sans-serif" font-size="11" lengthAdjust="spacingAndGlyphs" textLength="119" x="36.5" y="1207.8042">+add(Role) : boolean</text><text fill="#000000" font-family="sans-serif" font-size="11" lengthAdjust="spacingAndGlyphs" textLength="141" x="36.5" y="1220.6089">+remove(Role) : boolean</text><text fill="#000000" font-family="sans-serif" font-size="11" lengthAdjust="spacingAndGlyphs" textLength="119" x="36.5" y="1233.4136">+hasRole() : boolean</text><text fill="#000000" font-family="sans-serif" font-size="11" lengthAdjust="spacingAndGlyphs" textLength="186" x="36.5" y="1246.2183">+getRoles() : Streamable&lt;Role&gt;</text><!--class Role--><rect fill="url(#gkh7h1qb1a9yx0)" filter="url(#fkh7h1qb1a9yx)" height="79.5469" id="Role" style="stroke: #000000; stroke-width: 1.5;" width="110" x="670" y="346"/><ellipse cx="698.05" cy="364.9688" fill="#ADD1B2" rx="11" ry="11" style="stroke: #000000; stroke-width: 1.0;"/><path d="M701.0188,370.6094 Q700.4406,370.9063 699.8,371.0469 Q699.1594,371.2031 698.4563,371.2031 Q695.9563,371.2031 694.6281,369.5625 Q693.3156,367.9063 693.3156,364.7813 Q693.3156,361.6563 694.6281,360 Q695.9563,358.3438 698.4563,358.3438 Q699.1594,358.3438 699.8,358.5 Q700.4563,358.6563 701.0188,358.9531 L701.0188,361.6719 Q700.3938,361.0938 699.8,360.8281 Q699.2063,360.5469 698.5813,360.5469 Q697.2375,360.5469 696.55,361.625 Q695.8625,362.6875 695.8625,364.7813 Q695.8625,366.875 696.55,367.9531 Q697.2375,369.0156 698.5813,369.0156 Q699.2063,369.0156 699.8,368.75 Q700.3938,368.4688 701.0188,367.8906 L701.0188,370.6094 Z "/><text fill="#000000" font-family="sans-serif" font-size="12" font-style="italic" lengthAdjust="spacingAndGlyphs" textLength="53" x="712.95" y="362.1387">«Object»</text><text fill="#000000" font-family="sans-serif" font-size="12" lengthAdjust="spacingAndGlyphs" textLength="27" x="725.95" y="376.1074">Role</text><line style="stroke: #000000; stroke-width: 1.5;" x1="671" x2="779" y1="383.9375" y2="383.9375"/><text fill="#000000" font-family="sans-serif" font-size="11" lengthAdjust="spacingAndGlyphs" textLength="82" x="676" y="398.1479">-name : String</text><line style="stroke: #000000; stroke-width: 1.5;" x1="671" x2="779" y1="404.7422" y2="404.7422"/><text fill="#000000" font-family="sans-serif" font-size="11" lengthAdjust="spacingAndGlyphs" text-decoration="underline" textLength="98" x="676" y="418.9526">+of(String) : Role</text><line style="stroke: #000000; stroke-width: 1.0;" x1="676" x2="774" y1="420.9526" y2="420.9526"/><!--class UserRepository--><rect fill="url(#gkh7h1qb1a9yx0)" filter="url(#fkh7h1qb1a9yx)" height="220.3984" id="UserRepository" style="stroke: #000000; stroke-width: 1.5;" width="404" x="30" y="276"/><ellipse cx="180.75" cy="294.9688" fill="#B4A7E5" rx="11" ry="11" style="stroke: #000000; stroke-width: 1.0;"/><path d="M176.6719,290.7344 L176.6719,288.5781 L184.0625,288.5781 L184.0625,290.7344 L181.5938,290.7344 L181.5938,298.8125 L184.0625,298.8125 L184.0625,300.9688 L176.6719,300.9688 L176.6719,298.8125 L179.1406,298.8125 L179.1406,290.7344 L176.6719,290.7344 Z "/><text fill="#000000" font-family="sans-serif" font-size="12" font-style="italic" lengthAdjust="spacingAndGlyphs" textLength="80" x="208.25" y="292.1387">«Repository»</text><text fill="#000000" font-family="sans-serif" font-size="12" font-style="italic" lengthAdjust="spacingAndGlyphs" textLength="94" x="201.25" y="306.1074">UserRepository</text><line style="stroke: #000000; stroke-width: 1.5;" x1="31" x2="433" y1="313.9375" y2="313.9375"/><line style="stroke: #000000; stroke-width: 1.5;" x1="31" x2="433" y1="321.9375" y2="321.9375"/><text fill="#000000" font-family="sans-serif" font-size="11" lengthAdjust="spacingAndGlyphs" textLength="189" x="36" y="336.1479">save(UserAccount) : UserAccount</text><text fill="#000000" font-family="sans-serif" font-size="11" lengthAdjust="spacingAndGlyphs" textLength="324" x="36" y="348.9526">saveAll(Iterable&lt;UserAccount&gt;) : Iterable&lt;UserAccount&gt;</text><text fill="#000000" font-family="sans-serif" font-size="11" lengthAdjust="spacingAndGlyphs" textLength="322" x="36" y="361.7573">findById(UserAccountIdentifier) : Optional&lt;UserAccount&gt;</text><text fill="#000000" font-family="sans-serif" font-size="11" lengthAdjust="spacingAndGlyphs" textLength="244" x="36" y="374.562">existsById(UserAccountIdentifier) : boolean</text><text fill="#000000" font-family="sans-serif" font-size="11" lengthAdjust="spacingAndGlyphs" textLength="186" x="36" y="387.3667">findAll() : Iterable&lt;UserAccount&gt;</text><text fill="#000000" font-family="sans-serif" font-size="11" lengthAdjust="spacingAndGlyphs" textLength="392" x="36" y="400.1714">findAllById(Iterable&lt;UserAccountIdentifier&gt;) : Iterable&lt;UserAccount&gt;</text><text fill="#000000" font-family="sans-serif" font-size="11" lengthAdjust="spacingAndGlyphs" textLength="75" x="36" y="412.9761">count() : long</text><text fill="#000000" font-family="sans-serif" font-size="11" lengthAdjust="spacingAndGlyphs" textLength="223" x="36" y="425.7808">deleteById(UserAccountIdentifier) : void</text><text fill="#000000" font-family="sans-serif" font-size="11" lengthAdjust="spacingAndGlyphs" textLength="149" x="36" y="438.5854">delete(UserAccount) : void</text><text fill="#000000" font-family="sans-serif" font-size="11" lengthAdjust="spacingAndGlyphs" textLength="223" x="36" y="451.3901">deleteAll(Iterable&lt;UserAccount&gt;) : void</text><text fill="#000000" font-family="sans-serif" font-size="11" lengthAdjust="spacingAndGlyphs" textLength="91" x="36" y="464.1948">deleteAll() : void</text><text fill="#000000" font-family="sans-serif" font-size="11" lengthAdjust="spacingAndGlyphs" textLength="281" x="36" y="476.9995">findByEnabledTrue() : Streamable&lt;UserAccount&gt;</text><text fill="#000000" font-family="sans-serif" font-size="11" lengthAdjust="spacingAndGlyphs" textLength="285" x="36" y="489.8042">findByEnabledFalse() : Streamable&lt;UserAccount&gt;</text><!--class UserAccountManager--><rect fill="url(#gkh7h1qb1a9yx0)" filter="url(#fkh7h1qb1a9yx)" height="53.9375" id="UserAccountManager" style="stroke: #000000; stroke-width: 1.5;" width="166" x="469" y="359"/><ellipse cx="484" cy="377.9688" fill="#B4A7E5" rx="11" ry="11" style="stroke: #000000; stroke-width: 1.0;"/><path d="M479.9219,373.7344 L479.9219,371.5781 L487.3125,371.5781 L487.3125,373.7344 L484.8438,373.7344 L484.8438,381.8125 L487.3125,381.8125 L487.3125,383.9688 L479.9219,383.9688 L479.9219,381.8125 L482.3906,381.8125 L482.3906,373.7344 L479.9219,373.7344 Z "/><text fill="#000000" font-family="sans-serif" font-size="12" font-style="italic" lengthAdjust="spacingAndGlyphs" textLength="59" x="535.5" y="375.1387">«Service»</text><text fill="#000000" font-family="sans-serif" font-size="12" font-style="italic" lengthAdjust="spacingAndGlyphs" textLength="134" x="498" y="389.1074">UserAccountManager</text><line style="stroke: #000000; stroke-width: 1.5;" x1="470" x2="634" y1="396.9375" y2="396.9375"/><line style="stroke: #000000; stroke-width: 1.5;" x1="470" x2="634" y1="404.9375" y2="404.9375"/><!--class UserManagement--><rect fill="url(#gkh7h1qb1a9yx0)" filter="url(#fkh7h1qb1a9yx)" height="66.7422" id="UserManagement" style="stroke: #000000; stroke-width: 1.5;" width="145" x="352.5" y="70"/><ellipse cx="368.4" cy="88.9688" fill="#ADD1B2" rx="11" ry="11" style="stroke: #000000; stroke-width: 1.0;"/><path d="M371.3688,94.6094 Q370.7906,94.9063 370.15,95.0469 Q369.5094,95.2031 368.8063,95.2031 Q366.3063,95.2031 364.9781,93.5625 Q363.6656,91.9063 363.6656,88.7813 Q363.6656,85.6563 364.9781,84 Q366.3063,82.3438 368.8063,82.3438 Q369.5094,82.3438 370.15,82.5 Q370.8063,82.6563 371.3688,82.9531 L371.3688,85.6719 Q370.7438,85.0938 370.15,84.8281 Q369.5563,84.5469 368.9313,84.5469 Q367.5875,84.5469 366.9,85.625 Q366.2125,86.6875 366.2125,88.7813 Q366.2125,90.875 366.9,91.9531 Q367.5875,93.0156 368.9313,93.0156 Q369.5563,93.0156 370.15,92.75 Q370.7438,92.4688 371.3688,91.8906 L371.3688,94.6094 Z "/><text fill="#000000" font-family="sans-serif" font-size="12" font-style="italic" lengthAdjust="spacingAndGlyphs" textLength="59" x="408.6" y="86.1387">«Service»</text><text fill="#000000" font-family="sans-serif" font-size="12" lengthAdjust="spacingAndGlyphs" textLength="111" x="382.6" y="100.1074">UserManagement</text><line style="stroke: #000000; stroke-width: 1.5;" x1="353.5" x2="496.5" y1="107.9375" y2="107.9375"/><line style="stroke: #000000; stroke-width: 1.5;" x1="353.5" x2="496.5" y1="115.9375" y2="115.9375"/><text fill="#000000" font-family="sans-serif" font-size="11" lengthAdjust="spacingAndGlyphs" textLength="133" x="358.5" y="130.1479">login(LoginForm) : User</text><!--class CrudRepository--><rect fill="url(#gkh7h1qb1a9yx0)" filter="url(#fkh7h1qb1a9yx)" height="188.8516" id="CrudRepository" style="stroke: #000000; stroke-width: 1.5;" width="300" x="820" y="620"/><ellipse cx="902.25" cy="636" fill="#B4A7E5" rx="11" ry="11" style="stroke: #000000; stroke-width: 1.0;"/><path d="M898.1719,631.7656 L898.1719,629.6094 L905.5625,629.6094 L905.5625,631.7656 L903.0938,631.7656 L903.0938,639.8438 L905.5625,639.8438 L905.5625,642 L898.1719,642 L898.1719,639.8438 L900.6406,639.8438 L900.6406,631.7656 L898.1719,631.7656 Z "/><text fill="#000000" font-family="sans-serif" font-size="12" font-style="italic" lengthAdjust="spacingAndGlyphs" textLength="95" x="922.75" y="640.1543">CrudRepository</text><rect fill="#FFFFFF" height="15.9688" style="stroke: #000000; stroke-width: 1.0; stroke-dasharray: 2.0,2.0;" width="30" x="1093" y="617"/><text fill="#000000" font-family="sans-serif" font-size="12" font-style="italic" lengthAdjust="spacingAndGlyphs" textLength="28" x="1094" y="629.1387">T, ID</text><line style="stroke: #000000; stroke-width: 1.5;" x1="821" x2="1119" y1="652" y2="652"/><line style="stroke: #000000; stroke-width: 1.5;" x1="821" x2="1119" y1="660" y2="660"/><text fill="#000000" font-family="sans-serif" font-size="11" lengthAdjust="spacingAndGlyphs" textLength="153" x="826" y="674.2104">&lt;S extends T&gt; save(S) : S</text><text fill="#000000" font-family="sans-serif" font-size="11" lengthAdjust="spacingAndGlyphs" textLength="288" x="826" y="687.0151">&lt;S extends T&gt; saveAll(Iterable&lt;S​&gt;) : Iterable&lt;S&gt;</text><text fill="#000000" font-family="sans-serif" font-size="11" lengthAdjust="spacingAndGlyphs" textLength="148" x="826" y="699.8198">findById(ID) : Optional&lt;T&gt;</text><text fill="#000000" font-family="sans-serif" font-size="11" lengthAdjust="spacingAndGlyphs" textLength="134" x="826" y="712.6245">existsById(ID) : boolean</text><text fill="#000000" font-family="sans-serif" font-size="11" lengthAdjust="spacingAndGlyphs" textLength="122" x="826" y="725.4292">findAll() : Iterable&lt;T&gt;</text><text fill="#000000" font-family="sans-serif" font-size="11" lengthAdjust="spacingAndGlyphs" textLength="218" x="826" y="738.2339">findAllById(Iterable&lt;ID&gt;) : Iterable&lt;T&gt;</text><text fill="#000000" font-family="sans-serif" font-size="11" lengthAdjust="spacingAndGlyphs" textLength="75" x="826" y="751.0386">count() : long</text><text fill="#000000" font-family="sans-serif" font-size="11" lengthAdjust="spacingAndGlyphs" textLength="113" x="826" y="763.8433">deleteById(ID) : void</text><text fill="#000000" font-family="sans-serif" font-size="11" lengthAdjust="spacingAndGlyphs" textLength="85" x="826" y="776.6479">delete(T) : void</text><text fill="#000000" font-family="sans-serif" font-size="11" lengthAdjust="spacingAndGlyphs" textLength="218" x="826" y="789.4526">deleteAll(Iterable&lt;? extends T&gt;) : void</text><text fill="#000000" font-family="sans-serif" font-size="11" lengthAdjust="spacingAndGlyphs" textLength="91" x="826" y="802.2573">deleteAll() : void</text><!--link UserRepository to UserAccount--><path d="M232.25,509.0128 C232.25,509.0128 232.25,993.8386 232.25,993.8386 " fill="none" id="UserRepository-UserAccount" style="stroke: #000000; stroke-width: 1.0;"/><polygon fill="#000000" points="232.25,496.0128,228.25,502.0128,232.25,508.0128,236.25,502.0128,232.25,496.0128" style="stroke: #000000; stroke-width: 1.0;"/><text fill="#000000" font-family="sans-serif" font-size="13" lengthAdjust="spacingAndGlyphs" textLength="8" x="223.9863" y="516.333">1</text><text fill="#000000" font-family="sans-serif" font-size="13" lengthAdjust="spacingAndGlyphs" textLength="23" x="206.2293" y="982.9851">0..*</text><!--link UserRepository to CrudRepository--><path d="M434.1496,461 C652.6427,461 970,461 970,461 C970,461 970,599.7455 970,599.7455 " fill="none" id="UserRepository-CrudRepository" style="stroke: #000000; stroke-width: 1.0;"/><polygon fill="none" points="977.0001,599.7455,970,619.7455,963.0001,599.7454,977.0001,599.7455" style="stroke: #000000; stroke-width: 1.0;"/><text fill="#000000" font-family="sans-serif" font-size="13" lengthAdjust="spacingAndGlyphs" textLength="50" x="741.5" y="539.0669">«binds»</text><text fill="#000000" font-family="sans-serif" font-size="13" lengthAdjust="spacingAndGlyphs" textLength="249" x="642" y="554.1997">&lt;UserAccount, UserAccountIdentifier&gt;</text><!--link UserManagement to UserAccountManager--><path d="M483.25,137.0158 C483.25,137.0158 483.25,353.8386 483.25,353.8386 " fill="none" id="UserManagement-UserAccountManager" style="stroke: #000000; stroke-width: 1.0;"/><polygon fill="#000000" points="483.25,358.8386,487.25,349.8386,483.25,353.8386,479.25,349.8386,483.25,358.8386" style="stroke: #000000; stroke-width: 1.0;"/><text fill="#000000" font-family="sans-serif" font-size="13" lengthAdjust="spacingAndGlyphs" textLength="0" x="546.5" y="180.0669"/><text fill="#000000" font-family="sans-serif" font-size="13" lengthAdjust="spacingAndGlyphs" textLength="0" x="546.5" y="195.1997"/><text fill="#000000" font-family="sans-serif" font-size="13" lengthAdjust="spacingAndGlyphs" textLength="115" x="487" y="210.3325">USER_ACCOUNTS</text><text fill="#000000" font-family="sans-serif" font-size="13" lengthAdjust="spacingAndGlyphs" textLength="8" x="485.2523" y="156.681">1</text><text fill="#000000" font-family="sans-serif" font-size="13" lengthAdjust="spacingAndGlyphs" textLength="8" x="458.4266" y="347.9126">1</text><!--link UserManagement to UserRepository--><path d="M393.25,137.0158 C393.25,137.0158 393.25,270.7479 393.25,270.7479 " fill="none" id="UserManagement-UserRepository" style="stroke: #000000; stroke-width: 1.0;"/><polygon fill="#000000" points="393.25,275.7479,397.25,266.7479,393.25,270.7479,389.25,266.7479,393.25,275.7479" style="stroke: #000000; stroke-width: 1.0;"/><text fill="#000000" font-family="sans-serif" font-size="13" lengthAdjust="spacingAndGlyphs" textLength="8" x="378.6586" y="156.681">1</text><text fill="#000000" font-family="sans-serif" font-size="13" lengthAdjust="spacingAndGlyphs" textLength="8" x="395.8152" y="264.8944">1</text><!--
@startuml

skinparam class {
	BackgroundColor #LightCoral/LightPink
    BorderColor Black
    ArrowColor  Black
}

skinparam package {
    FontColor Grey
    BorderColor DarkMagenta
}

skinparam classAttributeIconSize 0
skinparam linetype ortho

rectangle salespoint-framework-7.0.0.RELEASE.jar {

    package org.salespointframework.useraccount {
        class UserAccount <<Entity>>{
            -userAccountIdentifier : UserAccountIdentifier
            -password : Password
            -firstname : String
            -lastname : String
            -email : String
            -roles : Set<Role>
            -enable : boolean

            UserAccount()
            UserAccount(UserAccountIdentifier, String, Role...)
            UserAccount(UserAccountIdentifier, String, String, String, String, Collection<Role>)
            +getID() : UserAccountIdentifier
            +getUserName() : String
            +add(Role) : boolean
            +remove(Role) : boolean
            +hasRole() : boolean
            +getRoles() : Streamable<Role>
        }

        class Role <<Object>>{
            -name : String

            +{static} of(String) : Role
        }

        interface UserRepository <<Repository>> {
            save(UserAccount) : UserAccount
            saveAll(Iterable<UserAccount>) : Iterable<UserAccount>
            findById(UserAccountIdentifier) : Optional<UserAccount>
            existsById(UserAccountIdentifier) : boolean
            findAll() : Iterable<UserAccount>
            findAllById(Iterable<UserAccountIdentifier>) : Iterable<UserAccount>
            count() : long
            deleteById(UserAccountIdentifier) : void
            delete(UserAccount) : void
            deleteAll(Iterable<UserAccount>) : void
            deleteAll() : void
            findByEnabledTrue() : Streamable<UserAccount>
            findByEnabledFalse() : Streamable<UserAccount>
        }

        interface UserAccountManager <<Service>>

    }

}



rectangle Bioladen {

    package bioladen.user {

        class UserManagement <<Service>> {
            login(LoginForm) : User
        }
    }

}



rectangle spring-data-comments-2.1.0.RELEASE.jar as spring {

    package org.springframework.data.repository {
        interface CrudRepository <T, ID>{
            <S extends T> save(S) : S
            <S extends T> saveAll(Iterable<S​>) : Iterable<S>
            findById(ID) : Optional<T>
            existsById(ID) : boolean
            findAll() : Iterable<T>
            findAllById(Iterable<ID>) : Iterable<T>
            count() : long
            deleteById(ID) : void
            delete(T) : void
            deleteAll(Iterable<? extends T>) : void
            deleteAll() : void
        }
    }

}



UserRepository "1" *- - "0..*" UserAccount
UserRepository - -|> CrudRepository: <<binds>>\n<UserAccount, UserAccountIdentifier>
UserManagement "1" - -> "1" UserAccountManager: \n\nUSER_ACCOUNTS
UserManagement "1" - -> "1" UserRepository

@enduml

PlantUML version 1.2018.12(Sun Oct 21 12:15:15 CEST 2018)
(GPL source distribution)
Java Runtime: OpenJDK Runtime Environment
JVM: OpenJDK 64-Bit Server VM
Java Version: 11.0.1+13-Debian-2
Operating System: Linux
OS Version: 4.18.0-parrot10-amd64
Default Encoding: UTF-8
Language: en
Country: US
--></g></svg>