<?xml version="1.0" encoding="UTF-8" standalone="no"?><svg xmlns="http://www.w3.org/2000/svg" xmlns:xlink="http://www.w3.org/1999/xlink" contentScriptType="application/ecmascript" contentStyleType="text/css" height="1688px" preserveAspectRatio="none" style="width:2194px;height:1688px;" version="1.1" viewBox="0 0 2194 1688" width="2194px" zoomAndPan="magnify"><defs><filter height="300%" id="f1rsrbxs3xuphe" width="300%" x="-1" y="-1"><feGaussianBlur result="blurOut" stdDeviation="2.0"/><feColorMatrix in="blurOut" result="blurOut2" type="matrix" values="0 0 0 0 0 0 0 0 0 0 0 0 0 0 0 0 0 0 .4 0"/><feOffset dx="4.0" dy="4.0" in="blurOut2" result="blurOut3"/><feBlend in="SourceGraphic" in2="blurOut3" mode="normal"/></filter><linearGradient id="g1rsrbxs3xuphe0" x1="0%" x2="100%" y1="0%" y2="100%"><stop offset="0%" stop-color="#F08080"/><stop offset="100%" stop-color="#FFB6C1"/></linearGradient></defs><g><!--cluster salespoint-framework-7.0.0.RELEASE.jar--><rect fill="#FFFFFF" filter="url(#f1rsrbxs3xuphe)" height="316" style="stroke: #8B008B; stroke-width: 1.5;" width="1094" x="1078" y="700"/><text fill="#808080" font-family="sans-serif" font-size="14" font-weight="bold" lengthAdjust="spacingAndGlyphs" textLength="316" x="1467" y="714.9951">salespoint-framework-7.0.0.RELEASE.jar</text><!--cluster org.salespointframework.catalog--><polygon fill="#FFFFFF" filter="url(#f1rsrbxs3xuphe)" points="1636,727,1903,727,1910,749.2969,2164,749.2969,2164,1008,1636,1008,1636,727" style="stroke: #8B008B; stroke-width: 1.5;"/><line style="stroke: #8B008B; stroke-width: 1.5;" x1="1636" x2="1910" y1="749.2969" y2="749.2969"/><text fill="#808080" font-family="sans-serif" font-size="14" font-weight="bold" lengthAdjust="spacingAndGlyphs" textLength="261" x="1640" y="741.9951">org.salespointframework.catalog</text><!--cluster org.salespointframework.time--><polygon fill="#FFFFFF" filter="url(#f1rsrbxs3xuphe)" points="1374,823,1618,823,1625,845.2969,1628,845.2969,1628,912,1374,912,1374,823" style="stroke: #8B008B; stroke-width: 1.5;"/><line style="stroke: #8B008B; stroke-width: 1.5;" x1="1374" x2="1625" y1="845.2969" y2="845.2969"/><text fill="#808080" font-family="sans-serif" font-size="14" font-weight="bold" lengthAdjust="spacingAndGlyphs" textLength="238" x="1378" y="837.9951">org.salespointframework.time</text><!--cluster org.salespointframework.context--><polygon fill="#FFFFFF" filter="url(#f1rsrbxs3xuphe)" points="1086,826,1356,826,1363,848.2969,1366,848.2969,1366,909,1086,909,1086,826" style="stroke: #8B008B; stroke-width: 1.5;"/><line style="stroke: #8B008B; stroke-width: 1.5;" x1="1086" x2="1363" y1="848.2969" y2="848.2969"/><text fill="#808080" font-family="sans-serif" font-size="14" font-weight="bold" lengthAdjust="spacingAndGlyphs" textLength="264" x="1090" y="840.9951">org.salespointframework.context</text><!--cluster spring--><rect fill="#FFFFFF" filter="url(#f1rsrbxs3xuphe)" height="259" style="stroke: #8B008B; stroke-width: 1.5;" width="340" x="1666" y="1070"/><text fill="#808080" font-family="sans-serif" font-size="14" font-weight="bold" lengthAdjust="spacingAndGlyphs" textLength="321" x="1675.5" y="1084.9951">spring-data-comments-2.1.0.RELEASE.jar</text><!--cluster org.springframework.data.repository--><polygon fill="#FFFFFF" filter="url(#f1rsrbxs3xuphe)" points="1674,1097,1974,1097,1981,1119.2969,1998,1119.2969,1998,1321,1674,1321,1674,1097" style="stroke: #8B008B; stroke-width: 1.5;"/><line style="stroke: #8B008B; stroke-width: 1.5;" x1="1674" x2="1981" y1="1119.2969" y2="1119.2969"/><text fill="#808080" font-family="sans-serif" font-size="14" font-weight="bold" lengthAdjust="spacingAndGlyphs" textLength="294" x="1678" y="1111.9951">org.springframework.data.repository</text><!--cluster Bioladen--><rect fill="#FFFFFF" filter="url(#f1rsrbxs3xuphe)" height="1661" style="stroke: #8B008B; stroke-width: 1.5;" width="1056" x="14" y="16"/><text fill="#808080" font-family="sans-serif" font-size="14" font-weight="bold" lengthAdjust="spacingAndGlyphs" textLength="67" x="508.5" y="30.9951">Bioladen</text><!--cluster bioladen.product--><polygon fill="#FFFFFF" filter="url(#f1rsrbxs3xuphe)" points="51,232,191,232,198,254.2969,689,254.2969,689,1669,51,1669,51,232" style="stroke: #8B008B; stroke-width: 1.5;"/><line style="stroke: #8B008B; stroke-width: 1.5;" x1="51" x2="198" y1="254.2969" y2="254.2969"/><text fill="#808080" font-family="sans-serif" font-size="14" font-weight="bold" lengthAdjust="spacingAndGlyphs" textLength="134" x="55" y="246.9951">bioladen.product</text><!--cluster bioladen.event--><polygon fill="#FFFFFF" filter="url(#f1rsrbxs3xuphe)" points="894,583,1017,583,1024,605.2969,1062,605.2969,1062,666,894,666,894,583" style="stroke: #8B008B; stroke-width: 1.5;"/><line style="stroke: #8B008B; stroke-width: 1.5;" x1="894" x2="1024" y1="605.2969" y2="605.2969"/><text fill="#808080" font-family="sans-serif" font-size="14" font-weight="bold" lengthAdjust="spacingAndGlyphs" textLength="117" x="898" y="597.9951">bioladen.event</text><!--cluster bioladen.product.web--><polygon fill="#FFFFFF" filter="url(#f1rsrbxs3xuphe)" points="697,580,876,580,883,602.2969,886,602.2969,886,669,697,669,697,580" style="stroke: #8B008B; stroke-width: 1.5;"/><line style="stroke: #8B008B; stroke-width: 1.5;" x1="697" x2="883" y1="602.2969" y2="602.2969"/><text fill="#808080" font-family="sans-serif" font-size="14" font-weight="bold" lengthAdjust="spacingAndGlyphs" textLength="173" x="701" y="594.9951">bioladen.product.web</text><!--cluster Amount--><polygon fill="#FFFFFF" filter="url(#f1rsrbxs3xuphe)" points="78,43,145,43,152,65.2969,214,65.2969,214,139,78,139,78,43" style="stroke: #8B008B; stroke-width: 1.5;"/><line style="stroke: #8B008B; stroke-width: 1.5;" x1="78" x2="152" y1="65.2969" y2="65.2969"/><text fill="#808080" font-family="sans-serif" font-size="14" font-weight="bold" lengthAdjust="spacingAndGlyphs" textLength="61" x="82" y="57.9951">Amount</text><!--class org.salespointframework.catalog.Catalog--><rect fill="url(#g1rsrbxs3xuphe0)" filter="url(#f1rsrbxs3xuphe)" height="53.9375" id="org.salespointframework.catalog.Catalog" style="stroke: #000000; stroke-width: 1.5;" width="225" x="1930.5" y="850"/><ellipse cx="1945.5" cy="868.9688" fill="#B4A7E5" rx="11" ry="11" style="stroke: #000000; stroke-width: 1.0;"/><path d="M1941.4219,864.7344 L1941.4219,862.5781 L1948.8125,862.5781 L1948.8125,864.7344 L1946.3438,864.7344 L1946.3438,872.8125 L1948.8125,872.8125 L1948.8125,874.9688 L1941.4219,874.9688 L1941.4219,872.8125 L1943.8906,872.8125 L1943.8906,864.7344 L1941.4219,864.7344 Z "/><text fill="#000000" font-family="sans-serif" font-size="12" font-style="italic" lengthAdjust="spacingAndGlyphs" textLength="80" x="1957.5" y="866.1387">«Repository»</text><text fill="#000000" font-family="sans-serif" font-size="12" font-style="italic" lengthAdjust="spacingAndGlyphs" textLength="48" x="1973.5" y="880.1074">Catalog</text><rect fill="#FFFFFF" height="15.9688" style="stroke: #000000; stroke-width: 1.0; stroke-dasharray: 2.0,2.0;" width="115" x="2043.5" y="847"/><text fill="#000000" font-family="sans-serif" font-size="12" font-style="italic" lengthAdjust="spacingAndGlyphs" textLength="113" x="2044.5" y="859.1387">T extends Product</text><line style="stroke: #000000; stroke-width: 1.5;" x1="1931.5" x2="2154.5" y1="887.9375" y2="887.9375"/><line style="stroke: #000000; stroke-width: 1.5;" x1="1931.5" x2="2154.5" y1="895.9375" y2="895.9375"/><!--class org.salespointframework.catalog.Product--><rect fill="url(#g1rsrbxs3xuphe0)" filter="url(#f1rsrbxs3xuphe)" height="246.0078" id="org.salespointframework.catalog.Product" style="stroke: #000000; stroke-width: 1.5;" width="251" x="1644.5" y="754"/><ellipse cx="1741.25" cy="772.9688" fill="#ADD1B2" rx="11" ry="11" style="stroke: #000000; stroke-width: 1.0;"/><path d="M1744.2188,778.6094 Q1743.6406,778.9063 1743,779.0469 Q1742.3594,779.2031 1741.6563,779.2031 Q1739.1563,779.2031 1737.8281,777.5625 Q1736.5156,775.9063 1736.5156,772.7813 Q1736.5156,769.6563 1737.8281,768 Q1739.1563,766.3438 1741.6563,766.3438 Q1742.3594,766.3438 1743,766.5 Q1743.6563,766.6563 1744.2188,766.9531 L1744.2188,769.6719 Q1743.5938,769.0938 1743,768.8281 Q1742.4063,768.5469 1741.7813,768.5469 Q1740.4375,768.5469 1739.75,769.625 Q1739.0625,770.6875 1739.0625,772.7813 Q1739.0625,774.875 1739.75,775.9531 Q1740.4375,777.0156 1741.7813,777.0156 Q1742.4063,777.0156 1743,776.75 Q1743.5938,776.4688 1744.2188,775.8906 L1744.2188,778.6094 Z "/><text fill="#000000" font-family="sans-serif" font-size="12" font-style="italic" lengthAdjust="spacingAndGlyphs" textLength="50" x="1761.25" y="770.1387">«Entity»</text><text fill="#000000" font-family="sans-serif" font-size="12" lengthAdjust="spacingAndGlyphs" textLength="49" x="1761.75" y="784.1074">Product</text><line style="stroke: #000000; stroke-width: 1.5;" x1="1645.5" x2="1894.5" y1="791.9375" y2="791.9375"/><text fill="#000000" font-family="sans-serif" font-size="11" lengthAdjust="spacingAndGlyphs" textLength="202" x="1650.5" y="806.1479">-productIdentifier : ProductIdentifier</text><text fill="#000000" font-family="sans-serif" font-size="11" lengthAdjust="spacingAndGlyphs" textLength="82" x="1650.5" y="818.9526">-name : String</text><text fill="#000000" font-family="sans-serif" font-size="11" lengthAdjust="spacingAndGlyphs" textLength="139" x="1650.5" y="831.7573">-price : MonetaryAmount</text><text fill="#000000" font-family="sans-serif" font-size="11" lengthAdjust="spacingAndGlyphs" textLength="147" x="1650.5" y="844.562">-categories : Set&lt;String&gt;</text><text fill="#000000" font-family="sans-serif" font-size="11" lengthAdjust="spacingAndGlyphs" textLength="86" x="1650.5" y="857.3667">-metric : Metric</text><line style="stroke: #000000; stroke-width: 1.5;" x1="1645.5" x2="1894.5" y1="863.9609" y2="863.9609"/><text fill="#000000" font-family="sans-serif" font-size="11" lengthAdjust="spacingAndGlyphs" textLength="197" x="1650.5" y="878.1714">+Product(String, MonetaryAmount)</text><text fill="#000000" font-family="sans-serif" font-size="11" lengthAdjust="spacingAndGlyphs" textLength="239" x="1650.5" y="890.9761">+Product(String, MonetaryAmount, Metric)</text><text fill="#000000" font-family="sans-serif" font-size="11" lengthAdjust="spacingAndGlyphs" textLength="150" x="1650.5" y="903.7808">+getId() : ProductIdentifier</text><text fill="#000000" font-family="sans-serif" font-size="11" lengthAdjust="spacingAndGlyphs" textLength="227" x="1650.5" y="916.5854">+getCategories() : Streamable&lt;String&gt;</text><text fill="#000000" font-family="sans-serif" font-size="11" lengthAdjust="spacingAndGlyphs" textLength="180" x="1650.5" y="929.3901">+addCategory(String) : boolean</text><text fill="#000000" font-family="sans-serif" font-size="11" lengthAdjust="spacingAndGlyphs" textLength="202" x="1650.5" y="942.1948">+removeCategory(String) : boolean</text><text fill="#000000" font-family="sans-serif" font-size="11" lengthAdjust="spacingAndGlyphs" textLength="172" x="1650.5" y="954.9995">+supports(Quantity) : boolean</text><text fill="#000000" font-family="sans-serif" font-size="11" lengthAdjust="spacingAndGlyphs" textLength="130" x="1650.5" y="967.8042">+verify(Quantity) : void</text><text fill="#000000" font-family="sans-serif" font-size="11" lengthAdjust="spacingAndGlyphs" textLength="197" x="1650.5" y="980.6089">+createQuantity(double) : Quantity</text><text fill="#000000" font-family="sans-serif" font-size="11" lengthAdjust="spacingAndGlyphs" textLength="183" x="1650.5" y="993.4136">+createQuantity(long) : Quantity</text><!--class BusinessTime--><rect fill="url(#g1rsrbxs3xuphe0)" filter="url(#f1rsrbxs3xuphe)" height="53.9375" id="BusinessTime" style="stroke: #000000; stroke-width: 1.5;" width="114" x="1382" y="850"/><ellipse cx="1397" cy="868.9688" fill="#B4A7E5" rx="11" ry="11" style="stroke: #000000; stroke-width: 1.0;"/><path d="M1392.9219,864.7344 L1392.9219,862.5781 L1400.3125,862.5781 L1400.3125,864.7344 L1397.8438,864.7344 L1397.8438,872.8125 L1400.3125,872.8125 L1400.3125,874.9688 L1392.9219,874.9688 L1392.9219,872.8125 L1395.3906,872.8125 L1395.3906,864.7344 L1392.9219,864.7344 Z "/><text fill="#000000" font-family="sans-serif" font-size="12" font-style="italic" lengthAdjust="spacingAndGlyphs" textLength="59" x="1422.5" y="866.1387">«Service»</text><text fill="#000000" font-family="sans-serif" font-size="12" font-style="italic" lengthAdjust="spacingAndGlyphs" textLength="82" x="1411" y="880.1074">BusinessTime</text><line style="stroke: #000000; stroke-width: 1.5;" x1="1383" x2="1495" y1="887.9375" y2="887.9375"/><line style="stroke: #000000; stroke-width: 1.5;" x1="1383" x2="1495" y1="895.9375" y2="895.9375"/><!--class org.salespointframework.context.ApplicationEvent--><rect fill="url(#g1rsrbxs3xuphe0)" filter="url(#f1rsrbxs3xuphe)" height="48" id="org.salespointframework.context.ApplicationEvent" style="stroke: #000000; stroke-width: 1.5;" width="136" x="1094" y="853"/><ellipse cx="1109" cy="869" fill="#ADD1B2" rx="11" ry="11" style="stroke: #000000; stroke-width: 1.0;"/><path d="M1111.9688,874.6406 Q1111.3906,874.9375 1110.75,875.0781 Q1110.1094,875.2344 1109.4063,875.2344 Q1106.9063,875.2344 1105.5781,873.5938 Q1104.2656,871.9375 1104.2656,868.8125 Q1104.2656,865.6875 1105.5781,864.0313 Q1106.9063,862.375 1109.4063,862.375 Q1110.1094,862.375 1110.75,862.5313 Q1111.4063,862.6875 1111.9688,862.9844 L1111.9688,865.7031 Q1111.3438,865.125 1110.75,864.8594 Q1110.1563,864.5781 1109.5313,864.5781 Q1108.1875,864.5781 1107.5,865.6563 Q1106.8125,866.7188 1106.8125,868.8125 Q1106.8125,870.9063 1107.5,871.9844 Q1108.1875,873.0469 1109.5313,873.0469 Q1110.1563,873.0469 1110.75,872.7813 Q1111.3438,872.5 1111.9688,871.9219 L1111.9688,874.6406 Z "/><text fill="#000000" font-family="sans-serif" font-size="12" lengthAdjust="spacingAndGlyphs" textLength="104" x="1123" y="873.1543">ApplicationEvent</text><line style="stroke: #000000; stroke-width: 1.5;" x1="1095" x2="1229" y1="885" y2="885"/><line style="stroke: #000000; stroke-width: 1.5;" x1="1095" x2="1229" y1="893" y2="893"/><!--class org.springframework.data.repository.CrudRepository--><rect fill="url(#g1rsrbxs3xuphe0)" filter="url(#f1rsrbxs3xuphe)" height="188.8516" id="org.springframework.data.repository.CrudRepository" style="stroke: #000000; stroke-width: 1.5;" width="309" x="1681.5" y="1124"/><ellipse cx="1768.25" cy="1140" fill="#B4A7E5" rx="11" ry="11" style="stroke: #000000; stroke-width: 1.0;"/><path d="M1764.1719,1135.7656 L1764.1719,1133.6094 L1771.5625,1133.6094 L1771.5625,1135.7656 L1769.0938,1135.7656 L1769.0938,1143.8438 L1771.5625,1143.8438 L1771.5625,1146 L1764.1719,1146 L1764.1719,1143.8438 L1766.6406,1143.8438 L1766.6406,1135.7656 L1764.1719,1135.7656 Z "/><text fill="#000000" font-family="sans-serif" font-size="12" font-style="italic" lengthAdjust="spacingAndGlyphs" textLength="95" x="1788.75" y="1144.1543">CrudRepository</text><rect fill="#FFFFFF" height="15.9688" style="stroke: #000000; stroke-width: 1.0; stroke-dasharray: 2.0,2.0;" width="30" x="1963.5" y="1121"/><text fill="#000000" font-family="sans-serif" font-size="12" font-style="italic" lengthAdjust="spacingAndGlyphs" textLength="28" x="1964.5" y="1133.1387">T, ID</text><line style="stroke: #000000; stroke-width: 1.5;" x1="1682.5" x2="1989.5" y1="1156" y2="1156"/><line style="stroke: #000000; stroke-width: 1.5;" x1="1682.5" x2="1989.5" y1="1164" y2="1164"/><text fill="#000000" font-family="sans-serif" font-size="11" lengthAdjust="spacingAndGlyphs" textLength="162" x="1687.5" y="1178.2104">&lt;S extends T&gt; +save(S) : S</text><text fill="#000000" font-family="sans-serif" font-size="11" lengthAdjust="spacingAndGlyphs" textLength="297" x="1687.5" y="1191.0151">&lt;S extends T&gt; +saveAll(Iterable&lt;S​&gt;) : Iterable&lt;S&gt;</text><text fill="#000000" font-family="sans-serif" font-size="11" lengthAdjust="spacingAndGlyphs" textLength="157" x="1687.5" y="1203.8198">+findById(ID) : Optional&lt;T&gt;</text><text fill="#000000" font-family="sans-serif" font-size="11" lengthAdjust="spacingAndGlyphs" textLength="143" x="1687.5" y="1216.6245">+existsById(ID) : boolean</text><text fill="#000000" font-family="sans-serif" font-size="11" lengthAdjust="spacingAndGlyphs" textLength="131" x="1687.5" y="1229.4292">+findAll() : Iterable&lt;T&gt;</text><text fill="#000000" font-family="sans-serif" font-size="11" lengthAdjust="spacingAndGlyphs" textLength="227" x="1687.5" y="1242.2339">+findAllById(Iterable&lt;ID&gt;) : Iterable&lt;T&gt;</text><text fill="#000000" font-family="sans-serif" font-size="11" lengthAdjust="spacingAndGlyphs" textLength="84" x="1687.5" y="1255.0386">+count() : long</text><text fill="#000000" font-family="sans-serif" font-size="11" lengthAdjust="spacingAndGlyphs" textLength="122" x="1687.5" y="1267.8433">+deleteById(ID) : void</text><text fill="#000000" font-family="sans-serif" font-size="11" lengthAdjust="spacingAndGlyphs" textLength="94" x="1687.5" y="1280.6479">+delete(T) : void</text><text fill="#000000" font-family="sans-serif" font-size="11" lengthAdjust="spacingAndGlyphs" textLength="227" x="1687.5" y="1293.4526">+deleteAll(Iterable&lt;? extends T&gt;) : void</text><text fill="#000000" font-family="sans-serif" font-size="11" lengthAdjust="spacingAndGlyphs" textLength="100" x="1687.5" y="1306.2573">+deleteAll() : void</text><!--class bioladen.product.ProductCatalog--><rect fill="url(#g1rsrbxs3xuphe0)" filter="url(#f1rsrbxs3xuphe)" height="66.7422" id="bioladen.product.ProductCatalog" style="stroke: #000000; stroke-width: 1.5;" width="246" x="435" y="1185"/><ellipse cx="505.75" cy="1203.9688" fill="#B4A7E5" rx="11" ry="11" style="stroke: #000000; stroke-width: 1.0;"/><path d="M501.6719,1199.7344 L501.6719,1197.5781 L509.0625,1197.5781 L509.0625,1199.7344 L506.5938,1199.7344 L506.5938,1207.8125 L509.0625,1207.8125 L509.0625,1209.9688 L501.6719,1209.9688 L501.6719,1207.8125 L504.1406,1207.8125 L504.1406,1199.7344 L501.6719,1199.7344 Z "/><text fill="#000000" font-family="sans-serif" font-size="12" font-style="italic" lengthAdjust="spacingAndGlyphs" textLength="80" x="534.25" y="1201.1387">«Repository»</text><text fill="#000000" font-family="sans-serif" font-size="12" font-style="italic" lengthAdjust="spacingAndGlyphs" textLength="96" x="526.25" y="1215.1074">ProductCatalog</text><line style="stroke: #000000; stroke-width: 1.5;" x1="436" x2="680" y1="1222.9375" y2="1222.9375"/><line style="stroke: #000000; stroke-width: 1.5;" x1="436" x2="680" y1="1230.9375" y2="1230.9375"/><text fill="#000000" font-family="sans-serif" font-size="11" lengthAdjust="spacingAndGlyphs" textLength="234" x="441" y="1245.1479">+findBy(Product) : Streamable&lt;Product&gt;</text><!--class bioladen.product.DistributorProductCatalog--><rect fill="url(#g1rsrbxs3xuphe0)" filter="url(#f1rsrbxs3xuphe)" height="66.7422" id="bioladen.product.DistributorProductCatalog" style="stroke: #000000; stroke-width: 1.5;" width="366" x="315" y="1594"/><ellipse cx="413.25" cy="1612.9688" fill="#B4A7E5" rx="11" ry="11" style="stroke: #000000; stroke-width: 1.0;"/><path d="M409.1719,1608.7344 L409.1719,1606.5781 L416.5625,1606.5781 L416.5625,1608.7344 L414.0938,1608.7344 L414.0938,1616.8125 L416.5625,1616.8125 L416.5625,1618.9688 L409.1719,1618.9688 L409.1719,1616.8125 L411.6406,1616.8125 L411.6406,1608.7344 L409.1719,1608.7344 Z "/><text fill="#000000" font-family="sans-serif" font-size="12" font-style="italic" lengthAdjust="spacingAndGlyphs" textLength="80" x="474.25" y="1610.1387">«Repository»</text><text fill="#000000" font-family="sans-serif" font-size="12" font-style="italic" lengthAdjust="spacingAndGlyphs" textLength="161" x="433.75" y="1624.1074">DistributorProductCatalog</text><line style="stroke: #000000; stroke-width: 1.5;" x1="316" x2="680" y1="1631.9375" y2="1631.9375"/><line style="stroke: #000000; stroke-width: 1.5;" x1="316" x2="680" y1="1639.9375" y2="1639.9375"/><text fill="#000000" font-family="sans-serif" font-size="11" lengthAdjust="spacingAndGlyphs" textLength="354" x="321" y="1654.1479">+findBy(DistributorProduct) : Streamable&lt;DistributorProduct&gt;</text><!--class bioladen.product.DistributorProduct--><rect fill="url(#g1rsrbxs3xuphe0)" filter="url(#f1rsrbxs3xuphe)" height="194.7891" id="bioladen.product.DistributorProduct" style="stroke: #000000; stroke-width: 1.5;" width="223" x="176.5" y="1121"/><ellipse cx="226.25" cy="1139.9688" fill="#ADD1B2" rx="11" ry="11" style="stroke: #000000; stroke-width: 1.0;"/><path d="M229.2188,1145.6094 Q228.6406,1145.9063 228,1146.0469 Q227.3594,1146.2031 226.6563,1146.2031 Q224.1563,1146.2031 222.8281,1144.5625 Q221.5156,1142.9063 221.5156,1139.7813 Q221.5156,1136.6563 222.8281,1135 Q224.1563,1133.3438 226.6563,1133.3438 Q227.3594,1133.3438 228,1133.5 Q228.6563,1133.6563 229.2188,1133.9531 L229.2188,1136.6719 Q228.5938,1136.0938 228,1135.8281 Q227.4063,1135.5469 226.7813,1135.5469 Q225.4375,1135.5469 224.75,1136.625 Q224.0625,1137.6875 224.0625,1139.7813 Q224.0625,1141.875 224.75,1142.9531 Q225.4375,1144.0156 226.7813,1144.0156 Q227.4063,1144.0156 228,1143.75 Q228.5938,1143.4688 229.2188,1142.8906 L229.2188,1145.6094 Z "/><text fill="#000000" font-family="sans-serif" font-size="12" font-style="italic" lengthAdjust="spacingAndGlyphs" textLength="50" x="279.25" y="1137.1387">«Entity»</text><text fill="#000000" font-family="sans-serif" font-size="12" lengthAdjust="spacingAndGlyphs" textLength="115" x="246.75" y="1151.1074">DistributorProduct</text><line style="stroke: #000000; stroke-width: 1.5;" x1="177.5" x2="398.5" y1="1158.9375" y2="1158.9375"/><text fill="#000000" font-family="sans-serif" font-size="11" lengthAdjust="spacingAndGlyphs" textLength="119" x="182.5" y="1173.1479">-id : ProductIdentifier</text><text fill="#000000" font-family="sans-serif" font-size="11" lengthAdjust="spacingAndGlyphs" textLength="84" x="182.5" y="1185.9526">-unit : Quantity</text><text fill="#000000" font-family="sans-serif" font-size="11" lengthAdjust="spacingAndGlyphs" textLength="135" x="182.5" y="1198.7573">-distributor : Distributor</text><text fill="#000000" font-family="sans-serif" font-size="11" lengthAdjust="spacingAndGlyphs" textLength="188" x="182.5" y="1211.562">-minimumOrderAmount : Amount</text><line style="stroke: #000000; stroke-width: 1.5;" x1="177.5" x2="398.5" y1="1218.1563" y2="1218.1563"/><text fill="#000000" font-family="sans-serif" font-size="11" lengthAdjust="spacingAndGlyphs" textLength="91" x="182.5" y="1232.3667">+getUnit() : Unit</text><text fill="#000000" font-family="sans-serif" font-size="11" lengthAdjust="spacingAndGlyphs" textLength="185" x="182.5" y="1245.1714">+getInventoryAmount() : Amount</text><text fill="#000000" font-family="sans-serif" font-size="11" lengthAdjust="spacingAndGlyphs" textLength="188" x="182.5" y="1257.9761">+getDisplayedAmount() : Amount</text><text fill="#000000" font-family="sans-serif" font-size="11" lengthAdjust="spacingAndGlyphs" textLength="139" x="182.5" y="1270.7808">+setUnit(Quantity) : void</text><text fill="#000000" font-family="sans-serif" font-size="11" lengthAdjust="spacingAndGlyphs" textLength="208" x="182.5" y="1283.5854">+setInventoryAmount(Amount) : void</text><text fill="#000000" font-family="sans-serif" font-size="11" lengthAdjust="spacingAndGlyphs" textLength="211" x="182.5" y="1296.3901">+setDisplayedAmount(Amount) : void</text><text fill="#000000" font-family="sans-serif" font-size="11" lengthAdjust="spacingAndGlyphs" textLength="193" x="182.5" y="1309.1948">+setPrice(MonetaryAmount) : void</text><!--class bioladen.product.Product--><rect fill="url(#g1rsrbxs3xuphe0)" filter="url(#f1rsrbxs3xuphe)" height="220.3984" id="bioladen.product.Product" style="stroke: #000000; stroke-width: 1.5;" width="285" x="59.5" y="259"/><ellipse cx="173.25" cy="277.9688" fill="#ADD1B2" rx="11" ry="11" style="stroke: #000000; stroke-width: 1.0;"/><path d="M176.2188,283.6094 Q175.6406,283.9063 175,284.0469 Q174.3594,284.2031 173.6563,284.2031 Q171.1563,284.2031 169.8281,282.5625 Q168.5156,280.9063 168.5156,277.7813 Q168.5156,274.6563 169.8281,273 Q171.1563,271.3438 173.6563,271.3438 Q174.3594,271.3438 175,271.5 Q175.6563,271.6563 176.2188,271.9531 L176.2188,274.6719 Q175.5938,274.0938 175,273.8281 Q174.4063,273.5469 173.7813,273.5469 Q172.4375,273.5469 171.75,274.625 Q171.0625,275.6875 171.0625,277.7813 Q171.0625,279.875 171.75,280.9531 Q172.4375,282.0156 173.7813,282.0156 Q174.4063,282.0156 175,281.75 Q175.5938,281.4688 176.2188,280.8906 L176.2188,283.6094 Z "/><text fill="#000000" font-family="sans-serif" font-size="12" font-style="italic" lengthAdjust="spacingAndGlyphs" textLength="50" x="193.25" y="275.1387">«Entity»</text><text fill="#000000" font-family="sans-serif" font-size="12" lengthAdjust="spacingAndGlyphs" textLength="49" x="193.75" y="289.1074">Product</text><line style="stroke: #000000; stroke-width: 1.5;" x1="60.5" x2="343.5" y1="296.9375" y2="296.9375"/><text fill="#000000" font-family="sans-serif" font-size="11" lengthAdjust="spacingAndGlyphs" textLength="84" x="65.5" y="311.1479">-unit : Quantity</text><text fill="#000000" font-family="sans-serif" font-size="11" lengthAdjust="spacingAndGlyphs" textLength="154" x="65.5" y="323.9526">-inventoryAmount : Amount</text><text fill="#000000" font-family="sans-serif" font-size="11" lengthAdjust="spacingAndGlyphs" textLength="156" x="65.5" y="336.7573">-displayedAmount : Amount</text><text fill="#000000" font-family="sans-serif" font-size="11" lengthAdjust="spacingAndGlyphs" textLength="273" x="65.5" y="349.562">-distributorProducts : List&lt;DistributorProducts&gt;</text><line style="stroke: #000000; stroke-width: 1.5;" x1="60.5" x2="343.5" y1="356.1563" y2="356.1563"/><text fill="#000000" font-family="sans-serif" font-size="11" lengthAdjust="spacingAndGlyphs" textLength="91" x="65.5" y="370.3667">+getUnit() : Unit</text><text fill="#000000" font-family="sans-serif" font-size="11" lengthAdjust="spacingAndGlyphs" textLength="185" x="65.5" y="383.1714">+getInventoryAmount() : Amount</text><text fill="#000000" font-family="sans-serif" font-size="11" lengthAdjust="spacingAndGlyphs" textLength="188" x="65.5" y="395.9761">+getDisplayedAmount() : Amount</text><text fill="#000000" font-family="sans-serif" font-size="11" lengthAdjust="spacingAndGlyphs" textLength="139" x="65.5" y="408.7808">+setUnit(Quantity) : void</text><text fill="#000000" font-family="sans-serif" font-size="11" lengthAdjust="spacingAndGlyphs" textLength="208" x="65.5" y="421.5854">+setInventoryAmount(Amount) : void</text><text fill="#000000" font-family="sans-serif" font-size="11" lengthAdjust="spacingAndGlyphs" textLength="211" x="65.5" y="434.3901">+setDisplayedAmount(Amount) : void</text><text fill="#000000" font-family="sans-serif" font-size="11" lengthAdjust="spacingAndGlyphs" textLength="193" x="65.5" y="447.1948">+setPrice(MonetaryAmount) : void</text><text fill="#000000" font-family="sans-serif" font-size="11" lengthAdjust="spacingAndGlyphs" textLength="105" x="65.5" y="459.9995">+verify() : boolean</text><text fill="#000000" font-family="sans-serif" font-size="11" lengthAdjust="spacingAndGlyphs" textLength="170" x="65.5" y="472.8042">+getPrice() : MonetaryAmount</text><!--class bioladen.product.Distributor--><rect fill="url(#g1rsrbxs3xuphe0)" filter="url(#f1rsrbxs3xuphe)" height="117.9609" id="bioladen.product.Distributor" style="stroke: #000000; stroke-width: 1.5;" width="301" x="379.5" y="310"/><ellipse cx="492.75" cy="328.9688" fill="#ADD1B2" rx="11" ry="11" style="stroke: #000000; stroke-width: 1.0;"/><path d="M495.7188,334.6094 Q495.1406,334.9063 494.5,335.0469 Q493.8594,335.2031 493.1563,335.2031 Q490.6563,335.2031 489.3281,333.5625 Q488.0156,331.9063 488.0156,328.7813 Q488.0156,325.6563 489.3281,324 Q490.6563,322.3438 493.1563,322.3438 Q493.8594,322.3438 494.5,322.5 Q495.1563,322.6563 495.7188,322.9531 L495.7188,325.6719 Q495.0938,325.0938 494.5,324.8281 Q493.9063,324.5469 493.2813,324.5469 Q491.9375,324.5469 491.25,325.625 Q490.5625,326.6875 490.5625,328.7813 Q490.5625,330.875 491.25,331.9531 Q491.9375,333.0156 493.2813,333.0156 Q493.9063,333.0156 494.5,332.75 Q495.0938,332.4688 495.7188,331.8906 L495.7188,334.6094 Z "/><text fill="#000000" font-family="sans-serif" font-size="12" font-style="italic" lengthAdjust="spacingAndGlyphs" textLength="50" x="521.25" y="326.1387">«Entity»</text><text fill="#000000" font-family="sans-serif" font-size="12" lengthAdjust="spacingAndGlyphs" textLength="66" x="513.25" y="340.1074">Distributor</text><line style="stroke: #000000; stroke-width: 1.5;" x1="380.5" x2="679.5" y1="347.9375" y2="347.9375"/><text fill="#000000" font-family="sans-serif" font-size="11" lengthAdjust="spacingAndGlyphs" textLength="82" x="385.5" y="362.1479">-name : String</text><text fill="#000000" font-family="sans-serif" font-size="11" lengthAdjust="spacingAndGlyphs" textLength="81" x="385.5" y="374.9526">-email : String</text><text fill="#000000" font-family="sans-serif" font-size="11" lengthAdjust="spacingAndGlyphs" textLength="124" x="385.5" y="387.7573">-contactName : String</text><text fill="#000000" font-family="sans-serif" font-size="11" lengthAdjust="spacingAndGlyphs" textLength="98" x="385.5" y="400.562">-phoneNr : String</text><line style="stroke: #000000; stroke-width: 1.5;" x1="380.5" x2="679.5" y1="407.1563" y2="407.1563"/><text fill="#000000" font-family="sans-serif" font-size="11" lengthAdjust="spacingAndGlyphs" textLength="289" x="385.5" y="421.3667">+publishDistributorCreatedEvent(Distributor) : void</text><!--class bioladen.event.EntityCreatedEvent--><rect fill="url(#g1rsrbxs3xuphe0)" filter="url(#f1rsrbxs3xuphe)" height="48" id="bioladen.event.EntityCreatedEvent" style="stroke: #000000; stroke-width: 1.5;" width="152" x="902" y="610"/><ellipse cx="917" cy="626" fill="#ADD1B2" rx="11" ry="11" style="stroke: #000000; stroke-width: 1.0;"/><path d="M919.9688,631.6406 Q919.3906,631.9375 918.75,632.0781 Q918.1094,632.2344 917.4063,632.2344 Q914.9063,632.2344 913.5781,630.5938 Q912.2656,628.9375 912.2656,625.8125 Q912.2656,622.6875 913.5781,621.0313 Q914.9063,619.375 917.4063,619.375 Q918.1094,619.375 918.75,619.5313 Q919.4063,619.6875 919.9688,619.9844 L919.9688,622.7031 Q919.3438,622.125 918.75,621.8594 Q918.1563,621.5781 917.5313,621.5781 Q916.1875,621.5781 915.5,622.6563 Q914.8125,623.7188 914.8125,625.8125 Q914.8125,627.9063 915.5,628.9844 Q916.1875,630.0469 917.5313,630.0469 Q918.1563,630.0469 918.75,629.7813 Q919.3438,629.5 919.9688,628.9219 L919.9688,631.6406 Z "/><text fill="#000000" font-family="sans-serif" font-size="12" lengthAdjust="spacingAndGlyphs" textLength="120" x="931" y="630.1543">EntityCreatedEvent</text><line style="stroke: #000000; stroke-width: 1.5;" x1="903" x2="1053" y1="642" y2="642"/><line style="stroke: #000000; stroke-width: 1.5;" x1="903" x2="1053" y1="650" y2="650"/><!--class CatalogController--><rect fill="url(#g1rsrbxs3xuphe0)" filter="url(#f1rsrbxs3xuphe)" height="53.9375" id="CatalogController" style="stroke: #000000; stroke-width: 1.5;" width="141" x="705.5" y="607"/><ellipse cx="720.5" cy="625.9688" fill="#ADD1B2" rx="11" ry="11" style="stroke: #000000; stroke-width: 1.0;"/><path d="M723.4688,631.6094 Q722.8906,631.9063 722.25,632.0469 Q721.6094,632.2031 720.9063,632.2031 Q718.4063,632.2031 717.0781,630.5625 Q715.7656,628.9063 715.7656,625.7813 Q715.7656,622.6563 717.0781,621 Q718.4063,619.3438 720.9063,619.3438 Q721.6094,619.3438 722.25,619.5 Q722.9063,619.6563 723.4688,619.9531 L723.4688,622.6719 Q722.8438,622.0938 722.25,621.8281 Q721.6563,621.5469 721.0313,621.5469 Q719.6875,621.5469 719,622.625 Q718.3125,623.6875 718.3125,625.7813 Q718.3125,627.875 719,628.9531 Q719.6875,630.0156 721.0313,630.0156 Q721.6563,630.0156 722.25,629.75 Q722.8438,629.4688 723.4688,628.8906 L723.4688,631.6094 Z "/><text fill="#000000" font-family="sans-serif" font-size="12" font-style="italic" lengthAdjust="spacingAndGlyphs" textLength="75" x="751.5" y="623.1387">«Controller»</text><text fill="#000000" font-family="sans-serif" font-size="12" lengthAdjust="spacingAndGlyphs" textLength="109" x="734.5" y="637.1074">CatalogController</text><line style="stroke: #000000; stroke-width: 1.5;" x1="706.5" x2="845.5" y1="644.9375" y2="644.9375"/><line style="stroke: #000000; stroke-width: 1.5;" x1="706.5" x2="845.5" y1="652.9375" y2="652.9375"/><!--class Amount.Amount--><rect fill="url(#g1rsrbxs3xuphe0)" filter="url(#f1rsrbxs3xuphe)" height="60.8047" id="Amount.Amount" style="stroke: #000000; stroke-width: 1.5;" width="119" x="86.5" y="70"/><ellipse cx="119.05" cy="86" fill="#ADD1B2" rx="11" ry="11" style="stroke: #000000; stroke-width: 1.0;"/><path d="M122.0188,91.6406 Q121.4406,91.9375 120.8,92.0781 Q120.1594,92.2344 119.4563,92.2344 Q116.9563,92.2344 115.6281,90.5938 Q114.3156,88.9375 114.3156,85.8125 Q114.3156,82.6875 115.6281,81.0313 Q116.9563,79.375 119.4563,79.375 Q120.1594,79.375 120.8,79.5313 Q121.4563,79.6875 122.0188,79.9844 L122.0188,82.7031 Q121.3938,82.125 120.8,81.8594 Q120.2063,81.5781 119.5813,81.5781 Q118.2375,81.5781 117.55,82.6563 Q116.8625,83.7188 116.8625,85.8125 Q116.8625,87.9063 117.55,88.9844 Q118.2375,90.0469 119.5813,90.0469 Q120.2063,90.0469 120.8,89.7813 Q121.3938,89.5 122.0188,88.9219 L122.0188,91.6406 Z "/><text fill="#000000" font-family="sans-serif" font-size="12" lengthAdjust="spacingAndGlyphs" textLength="48" x="136.95" y="90.1543">Amount</text><line style="stroke: #000000; stroke-width: 1.5;" x1="87.5" x2="204.5" y1="102" y2="102"/><line style="stroke: #000000; stroke-width: 1.5;" x1="87.5" x2="204.5" y1="110" y2="110"/><text fill="#000000" font-family="sans-serif" font-size="11" lengthAdjust="spacingAndGlyphs" textLength="107" x="92.5" y="124.2104">+of(long) : Amount</text><!--link org.salespointframework.catalog.Product to bioladen.product.DistributorProduct--><path d="M1663,1020.1489 C1663,1020.1489 1663,1155 1663,1155 C1663,1155 727.2514,1155 399.648,1155 " fill="none" id="org.salespointframework.catalog.Product-bioladen.product.DistributorProduct" style="stroke: #000000; stroke-width: 1.0;"/><polygon fill="none" points="1656.0001,1020.1489,1663,1000.1489,1670.0001,1020.1488,1656.0001,1020.1489" style="stroke: #000000; stroke-width: 1.0;"/><!--link bioladen.product.Product to bioladen.product.DistributorProduct--><path d="M260.5,492.1864 C260.5,492.1864 260.5,1120.6795 260.5,1120.6795 " fill="none" id="bioladen.product.Product-bioladen.product.DistributorProduct" style="stroke: #000000; stroke-width: 1.0;"/><polygon fill="#FFFFFF" points="260.5,479.1864,256.5,485.1864,260.5,491.1864,264.5,485.1864,260.5,479.1864" style="stroke: #000000; stroke-width: 1.0;"/><!--link bioladen.product.DistributorProduct to bioladen.product.DistributorProductCatalog--><path d="M357.25,1316.2058 C357.25,1316.2058 357.25,1580.5261 357.25,1580.5261 " fill="none" id="bioladen.product.DistributorProduct-bioladen.product.DistributorProductCatalog" style="stroke: #000000; stroke-width: 1.0;"/><polygon fill="#000000" points="357.25,1593.5261,361.25,1587.5261,357.25,1581.5261,353.25,1587.5261,357.25,1593.5261" style="stroke: #000000; stroke-width: 1.0;"/><text fill="#000000" font-family="sans-serif" font-size="13" lengthAdjust="spacingAndGlyphs" textLength="8" x="322.5617" y="1582.9823">1</text><!--link bioladen.product.Product to bioladen.product.ProductCatalog--><path d="M344.6781,454 C427.979,454 516.8333,454 516.8333,454 C516.8333,454 516.8333,1171.664 516.8333,1171.664 " fill="none" id="bioladen.product.Product-bioladen.product.ProductCatalog" style="stroke: #000000; stroke-width: 1.0;"/><polygon fill="#000000" points="516.8333,1184.664,520.8333,1178.664,516.8333,1172.664,512.8333,1178.664,516.8333,1184.664" style="stroke: #000000; stroke-width: 1.0;"/><text fill="#000000" font-family="sans-serif" font-size="13" lengthAdjust="spacingAndGlyphs" textLength="8" x="500.2234" y="1173.8885">1</text><!--link bioladen.event.EntityCreatedEvent to org.salespointframework.context.ApplicationEvent--><path d="M1054.168,634 C1104.7876,634 1162,634 1162,634 C1162,634 1162,832.8118 1162,832.8118 " fill="none" id="bioladen.event.EntityCreatedEvent-org.salespointframework.context.ApplicationEvent" style="stroke: #000000; stroke-width: 1.0;"/><polygon fill="none" points="1169.0001,832.8119,1162,852.8118,1155.0001,832.8118,1169.0001,832.8119" style="stroke: #000000; stroke-width: 1.0;"/><!--link Amount.Amount to bioladen.product.Product--><path d="M146,136.039 C146,136.039 146,258.8912 146,258.8912 " fill="none" id="Amount.Amount-bioladen.product.Product" style="stroke: #000000; stroke-width: 1.0;"/><polygon fill="#000000" points="146,131.039,142,140.039,146,136.039,150,140.039,146,131.039" style="stroke: #000000; stroke-width: 1.0;"/><!--link Amount.Amount to bioladen.product.DistributorProduct--><path d="M210.5947,101 C210.5947,101 362,101 362,101 C362,101 362,848.5104 362,1120.7969 " fill="none" id="Amount.Amount-bioladen.product.DistributorProduct" style="stroke: #000000; stroke-width: 1.0;"/><polygon fill="#000000" points="205.5947,101,214.5947,105,210.5947,101,214.5947,97,205.5947,101" style="stroke: #000000; stroke-width: 1.0;"/><!--link bioladen.product.Distributor to bioladen.event.EntityCreatedEvent--><path d="M680.7357,369 C810.8399,369 978,369 978,369 C978,369 978,604.5444 978,604.5444 " fill="none" id="bioladen.product.Distributor-bioladen.event.EntityCreatedEvent" style="stroke: #000000; stroke-width: 1.0;"/><polygon fill="#000000" points="978,609.5444,982,600.5444,978,604.5444,974,600.5444,978,609.5444" style="stroke: #000000; stroke-width: 1.0;"/><!--link CatalogController to bioladen.product.ProductCatalog--><path d="M740.75,674.0425 C740.75,674.0425 740.75,1219 740.75,1219 C740.75,1219 714.1053,1219 681.1637,1219 " fill="none" id="CatalogController-bioladen.product.ProductCatalog" style="stroke: #000000; stroke-width: 1.0;"/><polygon fill="#000000" points="740.75,661.0425,736.75,667.0425,740.75,673.0425,744.75,667.0425,740.75,661.0425" style="stroke: #000000; stroke-width: 1.0;"/><text fill="#000000" font-family="sans-serif" font-size="13" lengthAdjust="spacingAndGlyphs" textLength="8" x="723.6734" y="681.1199">1</text><text fill="#000000" font-family="sans-serif" font-size="13" lengthAdjust="spacingAndGlyphs" textLength="8" x="688.9127" y="1215.6522">1</text><!--link CatalogController to bioladen.product.DistributorProductCatalog--><path d="M776,674.0593 C776,674.0593 776,1617 776,1617 C776,1617 733.1553,1617 681.1057,1617 " fill="none" id="CatalogController-bioladen.product.DistributorProductCatalog" style="stroke: #000000; stroke-width: 1.0;"/><polygon fill="#000000" points="776,661.0593,772,667.0593,776,673.0593,780,667.0593,776,661.0593" style="stroke: #000000; stroke-width: 1.0;"/><text fill="#000000" font-family="sans-serif" font-size="13" lengthAdjust="spacingAndGlyphs" textLength="8" x="767.075" y="681.1406">1</text><text fill="#000000" font-family="sans-serif" font-size="13" lengthAdjust="spacingAndGlyphs" textLength="8" x="688.9992" y="1613.3158">1</text><!--link CatalogController to BusinessTime--><path d="M811.25,661.1347 C811.25,682.2542 811.25,708 811.25,708 C811.25,708 1439,708 1439,708 C1439,708 1439,844.8472 1439,844.8472 " fill="none" id="CatalogController-BusinessTime" style="stroke: #000000; stroke-width: 1.0;"/><polygon fill="#000000" points="1439,849.8472,1443,840.8472,1439,844.8472,1435,840.8472,1439,849.8472" style="stroke: #000000; stroke-width: 1.0;"/><!--link org.salespointframework.catalog.Catalog to org.springframework.data.repository.CrudRepository--><path d="M1970.5,904.0824 C1970.5,904.0824 1970.5,1103.8962 1970.5,1103.8962 " fill="none" id="org.salespointframework.catalog.Catalog-org.springframework.data.repository.CrudRepository" style="stroke: #000000; stroke-width: 1.0;"/><polygon fill="none" points="1977.5001,1103.8962,1970.5,1123.8962,1963.5001,1103.8962,1977.5001,1103.8962" style="stroke: #000000; stroke-width: 1.0;"/><text fill="#000000" font-family="sans-serif" font-size="13" lengthAdjust="spacingAndGlyphs" textLength="50" x="1902.5" y="1043.0669">«binds»</text><text fill="#000000" font-family="sans-serif" font-size="13" lengthAdjust="spacingAndGlyphs" textLength="141" x="1857" y="1058.1997">&lt;T, ProductIdentifier&gt;</text><!--link org.salespointframework.catalog.Catalog to bioladen.product.ProductCatalog--><path d="M1950.5,924.1498 C1950.5,924.1498 1950.5,1061 1950.5,1061 C1950.5,1061 598.6667,1061 598.6667,1061 C598.6667,1061 598.6667,1138.4336 598.6667,1184.7123 " fill="none" id="org.salespointframework.catalog.Catalog-bioladen.product.ProductCatalog" style="stroke: #000000; stroke-width: 1.0;"/><polygon fill="none" points="1943.5001,924.1499,1950.5,904.1498,1957.5001,924.1498,1943.5001,924.1499" style="stroke: #000000; stroke-width: 1.0;"/><text fill="#000000" font-family="sans-serif" font-size="13" lengthAdjust="spacingAndGlyphs" textLength="50" x="1488.5" y="1043.0669">«binds»</text><text fill="#000000" font-family="sans-serif" font-size="13" lengthAdjust="spacingAndGlyphs" textLength="71" x="1478" y="1058.1997">&lt;Product&gt;</text><!--link org.salespointframework.catalog.Catalog to bioladen.product.DistributorProductCatalog--><path d="M2073,924.12 C2073,924.12 2073,1639 2073,1639 C2073,1639 1096.6172,1639 681.3685,1639 " fill="none" id="org.salespointframework.catalog.Catalog-bioladen.product.DistributorProductCatalog" style="stroke: #000000; stroke-width: 1.0;"/><polygon fill="none" points="2066.0001,924.12,2073,904.12,2080.0001,924.1199,2066.0001,924.12" style="stroke: #000000; stroke-width: 1.0;"/><text fill="#000000" font-family="sans-serif" font-size="13" lengthAdjust="spacingAndGlyphs" textLength="50" x="2088" y="1421.0669">«binds»</text><text fill="#000000" font-family="sans-serif" font-size="13" lengthAdjust="spacingAndGlyphs" textLength="138" x="2044" y="1436.1997">&lt;DistributorProduct&gt;</text><!--link bioladen.product.Distributor to bioladen.product.DistributorProduct--><path d="M389.5,441.0607 C389.5,441.0607 389.5,1120.6969 389.5,1120.6969 " fill="none" id="bioladen.product.Distributor-bioladen.product.DistributorProduct" style="stroke: #000000; stroke-width: 1.0;"/><polygon fill="#000000" points="389.5,428.0607,385.5,434.0607,389.5,440.0607,393.5,434.0607,389.5,428.0607" style="stroke: #000000; stroke-width: 1.0;"/><text fill="#000000" font-family="sans-serif" font-size="13" lengthAdjust="spacingAndGlyphs" textLength="8" x="364.7922" y="447.8336">1</text><!--
@startuml

skinparam class {
	BackgroundColor #LightCoral/LightPink
    BorderColor Black
    ArrowColor  Black
}

skinparam package {
    FontColor Grey
    BorderColor DarkMagenta
}

skinparam classAttributeIconSize 0
skinparam linetype ortho



rectangle salespoint-framework-7.0.0.RELEASE.jar {

    namespace org.salespointframework.catalog {
        interface Catalog <T extends Product> <<Repository>> {

        }

        class Product <<Entity>> {
            -productIdentifier : ProductIdentifier
            -name : String
            -price : MonetaryAmount
            -categories : Set<String>
            -metric : Metric

            +Product(String, MonetaryAmount)
            +Product(String, MonetaryAmount, Metric)
            +getId() : ProductIdentifier
            +getCategories() : Streamable<String>
            +addCategory(String) : boolean
            +removeCategory(String) : boolean
            +supports(Quantity) : boolean
            +verify(Quantity) : void
            +createQuantity(double) : Quantity
            +createQuantity(long) : Quantity

        }

    }

    package org.salespointframework.time {
        interface BusinessTime <<Service>> {

        }
    }

    namespace org.salespointframework.context {
            class ApplicationEvent {

            }

        }

}


rectangle spring-data-comments-2.1.0.RELEASE.jar as spring {

    namespace org.springframework.data.repository {
        interface CrudRepository <T, ID>{
            <S extends T> +save(S) : S
            <S extends T> +saveAll(Iterable<S​>) : Iterable<S>
            +findById(ID) : Optional<T>
            +existsById(ID) : boolean
            +findAll() : Iterable<T>
            +findAllById(Iterable<ID>) : Iterable<T>
            +count() : long
            +deleteById(ID) : void
            +delete(T) : void
            +deleteAll(Iterable<? extends T>) : void
            +deleteAll() : void
        }
    }
}

rectangle Bioladen {

    namespace bioladen.product {

        interface ProductCatalog <<Repository>> {
            +findBy(Product) : Streamable<Product>
        }

        interface DistributorProductCatalog <<Repository>> {
            +findBy(DistributorProduct) : Streamable<DistributorProduct>
        }

        class DistributorProduct <<Entity>> extends org.salespointframework.catalog.Product {
            -id : ProductIdentifier
            -unit : Quantity
            -distributor : Distributor
            -minimumOrderAmount : Amount

            +getUnit() : Unit
            +getInventoryAmount() : Amount
            +getDisplayedAmount() : Amount
            +setUnit(Quantity) : void
            +setInventoryAmount(Amount) : void
            +setDisplayedAmount(Amount) : void
            +setPrice(MonetaryAmount) : void
        }

        class Product <<Entity>> {
            -unit : Quantity
            -inventoryAmount : Amount
            -displayedAmount : Amount
            -distributorProducts : List<DistributorProducts>

            +getUnit() : Unit
            +getInventoryAmount() : Amount
            +getDisplayedAmount() : Amount
            +setUnit(Quantity) : void
            +setInventoryAmount(Amount) : void
            +setDisplayedAmount(Amount) : void
            +setPrice(MonetaryAmount) : void
            +verify() : boolean
            +getPrice() : MonetaryAmount
        }

        class Distributor <<Entity>> {
            -name : String
            -email : String
            -contactName : String
            -phoneNr : String

            +publishDistributorCreatedEvent(Distributor) : void
         }




        Product  o- -  DistributorProduct
        DistributorProduct  - -* "1" DistributorProductCatalog
        Product - -* "1" ProductCatalog


    }

    namespace bioladen.event {
        class EntityCreatedEvent {

        }
        EntityCreatedEvent - -|> org.salespointframework.context.ApplicationEvent
    }


    package bioladen.product.web {
        class CatalogController <<Controller>> {

        }
    }

    namespace Amount {
        class Amount {
            +of(long) : Amount

        }
        Amount <- - bioladen.product.Product
        Amount <- - bioladen.product.DistributorProduct
    }





}

bioladen.product.Distributor - -> bioladen.event.EntityCreatedEvent

CatalogController "1" *- - "1" bioladen.product.ProductCatalog
CatalogController "1" *- - "1" bioladen.product.DistributorProductCatalog
CatalogController - -> BusinessTime
org.salespointframework.catalog.Catalog - -|> org.springframework.data.repository.CrudRepository: <<binds>>\n<T, ProductIdentifier>
org.salespointframework.catalog.Catalog <|- - bioladen.product.ProductCatalog: <<binds>>\n<Product>
org.salespointframework.catalog.Catalog <|- - bioladen.product.DistributorProductCatalog: <<binds>>\n<DistributorProduct>
bioladen.product.Distributor "1" *- -  bioladen.product.DistributorProduct

@enduml

PlantUML version 1.2018.12(Sun Oct 21 12:15:15 CEST 2018)
(GPL source distribution)
Java Runtime: OpenJDK Runtime Environment
JVM: OpenJDK 64-Bit Server VM
Java Version: 11.0.1+13-Debian-2
Operating System: Linux
OS Version: 4.18.0-parrot10-amd64
Default Encoding: UTF-8
Language: en
Country: US
--></g></svg>