<?xml version="1.0" encoding="UTF-8" standalone="no"?><svg xmlns="http://www.w3.org/2000/svg" xmlns:xlink="http://www.w3.org/1999/xlink" contentScriptType="application/ecmascript" contentStyleType="text/css" height="629px" preserveAspectRatio="none" style="width:1193px;height:629px;" version="1.1" viewBox="0 0 1193 629" width="1193px" zoomAndPan="magnify"><defs><filter height="300%" id="f1gzuunh2lxez5" width="300%" x="-1" y="-1"><feGaussianBlur result="blurOut" stdDeviation="2.0"/><feColorMatrix in="blurOut" result="blurOut2" type="matrix" values="0 0 0 0 0 0 0 0 0 0 0 0 0 0 0 0 0 0 .4 0"/><feOffset dx="4.0" dy="4.0" in="blurOut2" result="blurOut3"/><feBlend in="SourceGraphic" in2="blurOut3" mode="normal"/></filter><linearGradient id="g1gzuunh2lxez50" x1="0%" x2="100%" y1="0%" y2="100%"><stop offset="0%" stop-color="#F08080"/><stop offset="100%" stop-color="#FFB6C1"/></linearGradient></defs><g><!--cluster Bioladen--><rect fill="#FFFFFF" filter="url(#f1gzuunh2lxez5)" height="602" style="stroke: #8B008B; stroke-width: 1.5;" width="356" x="192" y="16"/><text fill="#808080" font-family="sans-serif" font-size="14" font-weight="bold" lengthAdjust="spacingAndGlyphs" textLength="67" x="336.5" y="30.9951">Bioladen</text><!--cluster bioladen.finances--><polygon fill="#FFFFFF" filter="url(#f1gzuunh2lxez5)" points="200,43,345,43,352,65.2969,540,65.2969,540,502,200,502,200,43" style="stroke: #8B008B; stroke-width: 1.5;"/><line style="stroke: #8B008B; stroke-width: 1.5;" x1="200" x2="352" y1="65.2969" y2="65.2969"/><text fill="#808080" font-family="sans-serif" font-size="14" font-weight="bold" lengthAdjust="spacingAndGlyphs" textLength="139" x="204" y="57.9951">bioladen.finances</text><!--cluster bioladen.event--><polygon fill="#FFFFFF" filter="url(#f1gzuunh2lxez5)" points="329,527,452,527,459,549.2969,497,549.2969,497,610,329,610,329,527" style="stroke: #8B008B; stroke-width: 1.5;"/><line style="stroke: #8B008B; stroke-width: 1.5;" x1="329" x2="459" y1="549.2969" y2="549.2969"/><text fill="#808080" font-family="sans-serif" font-size="14" font-weight="bold" lengthAdjust="spacingAndGlyphs" textLength="117" x="333" y="541.9951">bioladen.event</text><!--cluster money-api-1.0.3.jar--><rect fill="#FFFFFF" filter="url(#f1gzuunh2lxez5)" height="118" style="stroke: #8B008B; stroke-width: 1.5;" width="170" x="14" y="306"/><text fill="#808080" font-family="sans-serif" font-size="14" font-weight="bold" lengthAdjust="spacingAndGlyphs" textLength="153" x="22.5" y="320.9951">money-api-1.0.3.jar</text><!--cluster javax.money--><polygon fill="#FFFFFF" filter="url(#f1gzuunh2lxez5)" points="22,333,126,333,133,355.2969,176,355.2969,176,416,22,416,22,333" style="stroke: #8B008B; stroke-width: 1.5;"/><line style="stroke: #8B008B; stroke-width: 1.5;" x1="22" x2="133" y1="355.2969" y2="355.2969"/><text fill="#808080" font-family="sans-serif" font-size="14" font-weight="bold" lengthAdjust="spacingAndGlyphs" textLength="98" x="26" y="347.9951">javax.money</text><!--cluster salespoint-framework-7.0.0.RELEASE.jar--><rect fill="#FFFFFF" filter="url(#f1gzuunh2lxez5)" height="124" style="stroke: #8B008B; stroke-width: 1.5;" width="623" x="556" y="61"/><text fill="#808080" font-family="sans-serif" font-size="14" font-weight="bold" lengthAdjust="spacingAndGlyphs" textLength="316" x="709.5" y="75.9951">salespoint-framework-7.0.0.RELEASE.jar</text><!--cluster org.salespointframework.useraccount--><polygon fill="#FFFFFF" filter="url(#f1gzuunh2lxez5)" points="564,88,873,88,880,110.2969,883,110.2969,883,177,564,177,564,88" style="stroke: #8B008B; stroke-width: 1.5;"/><line style="stroke: #8B008B; stroke-width: 1.5;" x1="564" x2="880" y1="110.2969" y2="110.2969"/><text fill="#808080" font-family="sans-serif" font-size="14" font-weight="bold" lengthAdjust="spacingAndGlyphs" textLength="303" x="568" y="102.9951">org.salespointframework.useraccount</text><!--cluster org.salespointframework.context--><polygon fill="#FFFFFF" filter="url(#f1gzuunh2lxez5)" points="891,91,1161,91,1168,113.2969,1171,113.2969,1171,174,891,174,891,91" style="stroke: #8B008B; stroke-width: 1.5;"/><line style="stroke: #8B008B; stroke-width: 1.5;" x1="891" x2="1168" y1="113.2969" y2="113.2969"/><text fill="#808080" font-family="sans-serif" font-size="14" font-weight="bold" lengthAdjust="spacingAndGlyphs" textLength="264" x="895" y="105.9951">org.salespointframework.context</text><!--class bioladen.finances.CashierSystem--><rect fill="url(#g1gzuunh2lxez50)" filter="url(#f1gzuunh2lxez5)" height="220.3984" id="bioladen.finances.CashierSystem" style="stroke: #000000; stroke-width: 1.5;" width="324" x="208" y="274"/><ellipse cx="319.75" cy="292.9688" fill="#ADD1B2" rx="11" ry="11" style="stroke: #000000; stroke-width: 1.0;"/><path d="M322.7188,298.6094 Q322.1406,298.9063 321.5,299.0469 Q320.8594,299.2031 320.1563,299.2031 Q317.6563,299.2031 316.3281,297.5625 Q315.0156,295.9063 315.0156,292.7813 Q315.0156,289.6563 316.3281,288 Q317.6563,286.3438 320.1563,286.3438 Q320.8594,286.3438 321.5,286.5 Q322.1563,286.6563 322.7188,286.9531 L322.7188,289.6719 Q322.0938,289.0938 321.5,288.8281 Q320.9063,288.5469 320.2813,288.5469 Q318.9375,288.5469 318.25,289.625 Q317.5625,290.6875 317.5625,292.7813 Q317.5625,294.875 318.25,295.9531 Q318.9375,297.0156 320.2813,297.0156 Q320.9063,297.0156 321.5,296.75 Q322.0938,296.4688 322.7188,295.8906 L322.7188,298.6094 Z "/><text fill="#000000" font-family="sans-serif" font-size="12" font-style="italic" lengthAdjust="spacingAndGlyphs" textLength="75" x="348.75" y="290.1387">«Controller»</text><text fill="#000000" font-family="sans-serif" font-size="12" lengthAdjust="spacingAndGlyphs" textLength="92" x="340.25" y="304.1074">CashierSystem</text><line style="stroke: #000000; stroke-width: 1.5;" x1="209" x2="531" y1="311.9375" y2="311.9375"/><text fill="#000000" font-family="sans-serif" font-size="11" lengthAdjust="spacingAndGlyphs" textLength="113" x="214" y="326.1479">-user : UserAccount</text><text fill="#000000" font-family="sans-serif" font-size="11" lengthAdjust="spacingAndGlyphs" textLength="123" x="214" y="338.9526">-userDiscount : Enum</text><line style="stroke: #000000; stroke-width: 1.5;" x1="209" x2="531" y1="345.5469" y2="345.5469"/><text fill="#000000" font-family="sans-serif" font-size="11" lengthAdjust="spacingAndGlyphs" textLength="175" x="214" y="359.7573">+CashierSystem(UserAccount)</text><text fill="#000000" font-family="sans-serif" font-size="11" lengthAdjust="spacingAndGlyphs" textLength="138" x="214" y="372.562">+add(Product) : boolean</text><text fill="#000000" font-family="sans-serif" font-size="11" lengthAdjust="spacingAndGlyphs" textLength="160" x="214" y="385.3667">+remove(Product) : boolean</text><text fill="#000000" font-family="sans-serif" font-size="11" lengthAdjust="spacingAndGlyphs" textLength="102" x="214" y="398.1714">+clear() : boolean</text><text fill="#000000" font-family="sans-serif" font-size="11" lengthAdjust="spacingAndGlyphs" textLength="183" x="214" y="410.9761">+getSums() : MonetaryAmount[]</text><text fill="#000000" font-family="sans-serif" font-size="11" lengthAdjust="spacingAndGlyphs" textLength="232" x="214" y="423.7808">+getDiscountSums() : MonetaryAmount[]</text><text fill="#000000" font-family="sans-serif" font-size="11" lengthAdjust="spacingAndGlyphs" textLength="213" x="214" y="436.5854">+getMwStSums() : MonetaryAmount[]</text><text fill="#000000" font-family="sans-serif" font-size="11" lengthAdjust="spacingAndGlyphs" textLength="168" x="214" y="449.3901">+getSum() : MonetaryAmount</text><text fill="#000000" font-family="sans-serif" font-size="11" lengthAdjust="spacingAndGlyphs" textLength="312" x="214" y="462.1948">+calculateChange(MonetaryAmount) : MonetaryAmount</text><text fill="#000000" font-family="sans-serif" font-size="11" lengthAdjust="spacingAndGlyphs" textLength="130" x="214" y="474.9995">+finishSale() : boolean</text><text fill="#000000" font-family="sans-serif" font-size="11" lengthAdjust="spacingAndGlyphs" textLength="271" x="214" y="487.8042">+publishSaleCreatedEvent(ShoppingCart) : void</text><!--class bioladen.finances.ShoppingCart--><rect fill="url(#g1gzuunh2lxez50)" filter="url(#f1gzuunh2lxez5)" height="143.5703" id="bioladen.finances.ShoppingCart" style="stroke: #000000; stroke-width: 1.5;" width="226" x="257" y="70"/><ellipse cx="323.25" cy="88.9688" fill="#ADD1B2" rx="11" ry="11" style="stroke: #000000; stroke-width: 1.0;"/><path d="M326.2188,94.6094 Q325.6406,94.9063 325,95.0469 Q324.3594,95.2031 323.6563,95.2031 Q321.1563,95.2031 319.8281,93.5625 Q318.5156,91.9063 318.5156,88.7813 Q318.5156,85.6563 319.8281,84 Q321.1563,82.3438 323.6563,82.3438 Q324.3594,82.3438 325,82.5 Q325.6563,82.6563 326.2188,82.9531 L326.2188,85.6719 Q325.5938,85.0938 325,84.8281 Q324.4063,84.5469 323.7813,84.5469 Q322.4375,84.5469 321.75,85.625 Q321.0625,86.6875 321.0625,88.7813 Q321.0625,90.875 321.75,91.9531 Q322.4375,93.0156 323.7813,93.0156 Q324.4063,93.0156 325,92.75 Q325.5938,92.4688 326.2188,91.8906 L326.2188,94.6094 Z "/><text fill="#000000" font-family="sans-serif" font-size="12" font-style="italic" lengthAdjust="spacingAndGlyphs" textLength="50" x="361.25" y="86.1387">«Entity»</text><text fill="#000000" font-family="sans-serif" font-size="12" lengthAdjust="spacingAndGlyphs" textLength="85" x="343.75" y="100.1074">ShoppingCart</text><line style="stroke: #000000; stroke-width: 1.5;" x1="258" x2="482" y1="107.9375" y2="107.9375"/><text fill="#000000" font-family="sans-serif" font-size="11" lengthAdjust="spacingAndGlyphs" textLength="113" x="263" y="122.1479">-user : UserAccount</text><text fill="#000000" font-family="sans-serif" font-size="11" lengthAdjust="spacingAndGlyphs" textLength="214" x="263" y="134.9526">-productList : Map&lt;Product, Amount&gt;</text><line style="stroke: #000000; stroke-width: 1.5;" x1="258" x2="482" y1="141.5469" y2="141.5469"/><text fill="#000000" font-family="sans-serif" font-size="11" lengthAdjust="spacingAndGlyphs" textLength="165" x="263" y="155.7573">+ShoppingCart(UserAccount)</text><text fill="#000000" font-family="sans-serif" font-size="11" lengthAdjust="spacingAndGlyphs" textLength="138" x="263" y="168.562">+add(Product) : boolean</text><text fill="#000000" font-family="sans-serif" font-size="11" lengthAdjust="spacingAndGlyphs" textLength="160" x="263" y="181.3667">+remove(Product) : boolean</text><text fill="#000000" font-family="sans-serif" font-size="11" lengthAdjust="spacingAndGlyphs" textLength="102" x="263" y="194.1714">+clear() : boolean</text><text fill="#000000" font-family="sans-serif" font-size="11" lengthAdjust="spacingAndGlyphs" textLength="168" x="263" y="206.9761">+getSum() : MonetaryAmount</text><!--class bioladen.event.EntityCreatedEvent--><rect fill="url(#g1gzuunh2lxez50)" filter="url(#f1gzuunh2lxez5)" height="48" id="bioladen.event.EntityCreatedEvent" style="stroke: #000000; stroke-width: 1.5;" width="152" x="337" y="554"/><ellipse cx="352" cy="570" fill="#ADD1B2" rx="11" ry="11" style="stroke: #000000; stroke-width: 1.0;"/><path d="M354.9688,575.6406 Q354.3906,575.9375 353.75,576.0781 Q353.1094,576.2344 352.4063,576.2344 Q349.9063,576.2344 348.5781,574.5938 Q347.2656,572.9375 347.2656,569.8125 Q347.2656,566.6875 348.5781,565.0313 Q349.9063,563.375 352.4063,563.375 Q353.1094,563.375 353.75,563.5313 Q354.4063,563.6875 354.9688,563.9844 L354.9688,566.7031 Q354.3438,566.125 353.75,565.8594 Q353.1563,565.5781 352.5313,565.5781 Q351.1875,565.5781 350.5,566.6563 Q349.8125,567.7188 349.8125,569.8125 Q349.8125,571.9063 350.5,572.9844 Q351.1875,574.0469 352.5313,574.0469 Q353.1563,574.0469 353.75,573.7813 Q354.3438,573.5 354.9688,572.9219 L354.9688,575.6406 Z "/><text fill="#000000" font-family="sans-serif" font-size="12" lengthAdjust="spacingAndGlyphs" textLength="120" x="366" y="574.1543">EntityCreatedEvent</text><line style="stroke: #000000; stroke-width: 1.5;" x1="338" x2="488" y1="586" y2="586"/><line style="stroke: #000000; stroke-width: 1.5;" x1="338" x2="488" y1="594" y2="594"/><!--class javax.money.MonetaryAmount--><rect fill="url(#g1gzuunh2lxez50)" filter="url(#f1gzuunh2lxez5)" height="48" id="javax.money.MonetaryAmount" style="stroke: #000000; stroke-width: 1.5;" width="138" x="30" y="360"/><ellipse cx="45" cy="376" fill="#ADD1B2" rx="11" ry="11" style="stroke: #000000; stroke-width: 1.0;"/><path d="M47.9688,381.6406 Q47.3906,381.9375 46.75,382.0781 Q46.1094,382.2344 45.4063,382.2344 Q42.9063,382.2344 41.5781,380.5938 Q40.2656,378.9375 40.2656,375.8125 Q40.2656,372.6875 41.5781,371.0313 Q42.9063,369.375 45.4063,369.375 Q46.1094,369.375 46.75,369.5313 Q47.4063,369.6875 47.9688,369.9844 L47.9688,372.7031 Q47.3438,372.125 46.75,371.8594 Q46.1563,371.5781 45.5313,371.5781 Q44.1875,371.5781 43.5,372.6563 Q42.8125,373.7188 42.8125,375.8125 Q42.8125,377.9063 43.5,378.9844 Q44.1875,380.0469 45.5313,380.0469 Q46.1563,380.0469 46.75,379.7813 Q47.3438,379.5 47.9688,378.9219 L47.9688,381.6406 Z "/><text fill="#000000" font-family="sans-serif" font-size="12" lengthAdjust="spacingAndGlyphs" textLength="106" x="59" y="380.1543">MonetaryAmount</text><line style="stroke: #000000; stroke-width: 1.5;" x1="31" x2="167" y1="392" y2="392"/><line style="stroke: #000000; stroke-width: 1.5;" x1="31" x2="167" y1="400" y2="400"/><!--class org.salespointframework.useraccount.UserAccount--><rect fill="url(#g1gzuunh2lxez50)" filter="url(#f1gzuunh2lxez5)" height="53.9375" id="org.salespointframework.useraccount.UserAccount" style="stroke: #000000; stroke-width: 1.5;" width="112" x="572" y="115"/><ellipse cx="587" cy="133.9688" fill="#ADD1B2" rx="11" ry="11" style="stroke: #000000; stroke-width: 1.0;"/><path d="M589.9688,139.6094 Q589.3906,139.9063 588.75,140.0469 Q588.1094,140.2031 587.4063,140.2031 Q584.9063,140.2031 583.5781,138.5625 Q582.2656,136.9063 582.2656,133.7813 Q582.2656,130.6563 583.5781,129 Q584.9063,127.3438 587.4063,127.3438 Q588.1094,127.3438 588.75,127.5 Q589.4063,127.6563 589.9688,127.9531 L589.9688,130.6719 Q589.3438,130.0938 588.75,129.8281 Q588.1563,129.5469 587.5313,129.5469 Q586.1875,129.5469 585.5,130.625 Q584.8125,131.6875 584.8125,133.7813 Q584.8125,135.875 585.5,136.9531 Q586.1875,138.0156 587.5313,138.0156 Q588.1563,138.0156 588.75,137.75 Q589.3438,137.4688 589.9688,136.8906 L589.9688,139.6094 Z "/><text fill="#000000" font-family="sans-serif" font-size="12" font-style="italic" lengthAdjust="spacingAndGlyphs" textLength="50" x="616" y="131.1387">«Entity»</text><text fill="#000000" font-family="sans-serif" font-size="12" lengthAdjust="spacingAndGlyphs" textLength="80" x="601" y="145.1074">UserAccount</text><line style="stroke: #000000; stroke-width: 1.5;" x1="573" x2="683" y1="152.9375" y2="152.9375"/><line style="stroke: #000000; stroke-width: 1.5;" x1="573" x2="683" y1="160.9375" y2="160.9375"/><!--class org.salespointframework.context.ApplicationEvent--><rect fill="url(#g1gzuunh2lxez50)" filter="url(#f1gzuunh2lxez5)" height="48" id="org.salespointframework.context.ApplicationEvent" style="stroke: #000000; stroke-width: 1.5;" width="136" x="899" y="118"/><ellipse cx="914" cy="134" fill="#ADD1B2" rx="11" ry="11" style="stroke: #000000; stroke-width: 1.0;"/><path d="M916.9688,139.6406 Q916.3906,139.9375 915.75,140.0781 Q915.1094,140.2344 914.4063,140.2344 Q911.9063,140.2344 910.5781,138.5938 Q909.2656,136.9375 909.2656,133.8125 Q909.2656,130.6875 910.5781,129.0313 Q911.9063,127.375 914.4063,127.375 Q915.1094,127.375 915.75,127.5313 Q916.4063,127.6875 916.9688,127.9844 L916.9688,130.7031 Q916.3438,130.125 915.75,129.8594 Q915.1563,129.5781 914.5313,129.5781 Q913.1875,129.5781 912.5,130.6563 Q911.8125,131.7188 911.8125,133.8125 Q911.8125,135.9063 912.5,136.9844 Q913.1875,138.0469 914.5313,138.0469 Q915.1563,138.0469 915.75,137.7813 Q916.3438,137.5 916.9688,136.9219 L916.9688,139.6406 Z "/><text fill="#000000" font-family="sans-serif" font-size="12" lengthAdjust="spacingAndGlyphs" textLength="104" x="928" y="138.1543">ApplicationEvent</text><line style="stroke: #000000; stroke-width: 1.5;" x1="900" x2="1034" y1="150" y2="150"/><line style="stroke: #000000; stroke-width: 1.5;" x1="900" x2="1034" y1="158" y2="158"/><!--link bioladen.finances.ShoppingCart to bioladen.finances.CashierSystem--><path d="M370,234.2802 C370,234.2802 370,273.5881 370,273.5881 " fill="none" id="bioladen.finances.ShoppingCart-bioladen.finances.CashierSystem" style="stroke: #000000; stroke-width: 1.0;"/><polygon fill="none" points="363.0001,234.2802,370,214.2802,377.0001,234.2801,363.0001,234.2802" style="stroke: #000000; stroke-width: 1.0;"/><!--link bioladen.finances.CashierSystem to bioladen.event.EntityCreatedEvent--><path d="M413,494.0371 C413,494.0371 413,548.877 413,548.877 " fill="none" id="bioladen.finances.CashierSystem-bioladen.event.EntityCreatedEvent" style="stroke: #000000; stroke-width: 1.0;"/><polygon fill="#000000" points="413,553.877,417,544.877,413,548.877,409,544.877,413,553.877" style="stroke: #000000; stroke-width: 1.0;"/><!--link bioladen.finances.CashierSystem to javax.money.MonetaryAmount--><path d="M207.6646,384 C207.6646,384 173.1573,384 173.1573,384 " fill="none" id="bioladen.finances.CashierSystem-javax.money.MonetaryAmount" style="stroke: #000000; stroke-width: 1.0;"/><polygon fill="#000000" points="168.1573,384,177.1573,388,173.1573,384,177.1573,380,168.1573,384" style="stroke: #000000; stroke-width: 1.0;"/><!--link bioladen.finances.ShoppingCart to javax.money.MonetaryAmount--><path d="M256.6418,142 C182.3808,142 99,142 99,142 C99,142 99,354.9114 99,354.9114 " fill="none" id="bioladen.finances.ShoppingCart-javax.money.MonetaryAmount" style="stroke: #000000; stroke-width: 1.0;"/><polygon fill="#000000" points="99,359.9114,103,350.9114,99,354.9114,95,350.9114,99,359.9114" style="stroke: #000000; stroke-width: 1.0;"/><!--link org.salespointframework.useraccount.UserAccount to bioladen.finances.ShoppingCart--><path d="M566.6996,133 C566.6996,133 483.1314,133 483.1314,133 " fill="none" id="org.salespointframework.useraccount.UserAccount-bioladen.finances.ShoppingCart" style="stroke: #000000; stroke-width: 1.0;"/><polygon fill="#000000" points="571.6996,133,562.6996,129,566.6996,133,562.6996,137,571.6996,133" style="stroke: #000000; stroke-width: 1.0;"/><text fill="#000000" font-family="sans-serif" font-size="13" lengthAdjust="spacingAndGlyphs" textLength="8" x="555.9736" y="127.9653">1</text><text fill="#000000" font-family="sans-serif" font-size="13" lengthAdjust="spacingAndGlyphs" textLength="8" x="491.0012" y="128.9772">1</text><!--link org.salespointframework.useraccount.UserAccount to bioladen.finances.CashierSystem--><path d="M566.9832,151 C566.9832,151 507.5,151 507.5,151 C507.5,151 507.5,213.6535 507.5,273.9819 " fill="none" id="org.salespointframework.useraccount.UserAccount-bioladen.finances.CashierSystem" style="stroke: #000000; stroke-width: 1.0;"/><polygon fill="#000000" points="571.9832,151,562.9832,147,566.9832,151,562.9832,155,571.9832,151" style="stroke: #000000; stroke-width: 1.0;"/><text fill="#000000" font-family="sans-serif" font-size="13" lengthAdjust="spacingAndGlyphs" textLength="8" x="555.9184" y="148.2816">1</text><text fill="#000000" font-family="sans-serif" font-size="13" lengthAdjust="spacingAndGlyphs" textLength="8" x="508.8867" y="262.7765">1</text><!--link org.salespointframework.context.ApplicationEvent to bioladen.event.EntityCreatedEvent--><path d="M967,186.0623 C967,186.0623 967,578 967,578 C967,578 641.0115,578 489.1595,578 " fill="none" id="org.salespointframework.context.ApplicationEvent-bioladen.event.EntityCreatedEvent" style="stroke: #000000; stroke-width: 1.0;"/><polygon fill="none" points="960.0001,186.0623,967,166.0623,974.0001,186.0623,960.0001,186.0623" style="stroke: #000000; stroke-width: 1.0;"/><!--
@startuml

skinparam class {
	BackgroundColor #LightCoral/LightPink
    BorderColor Black
    ArrowColor  Black
}

skinparam package {
    FontColor Grey
    BorderColor DarkMagenta
}

skinparam classAttributeIconSize 0
skinparam linetype ortho


rectangle Bioladen {
    namespace bioladen.finances {

        class CashierSystem <<Controller>> extends ShoppingCart {
            -user : UserAccount
            -userDiscount : Enum
            +CashierSystem(UserAccount)
            +add(Product) : boolean
            +remove(Product) : boolean
            +clear() : boolean
            +getSums() : MonetaryAmount[]
            +getDiscountSums() : MonetaryAmount[]
            +getMwStSums() : MonetaryAmount[]
            +getSum() : MonetaryAmount
            +calculateChange(MonetaryAmount) : MonetaryAmount
            +finishSale() : boolean
            +publishSaleCreatedEvent(ShoppingCart) : void
        }

        class ShoppingCart <<Entity>> {
            -user : UserAccount
            -productList : Map<Product, Amount>
            +ShoppingCart(UserAccount)
            +add(Product) : boolean
            +remove(Product) : boolean
            +clear() : boolean
            +getSum() : MonetaryAmount


        }

    }

    namespace bioladen.event {
        class EntityCreatedEvent {

        }

        bioladen.finances.CashierSystem - -> bioladen.event.EntityCreatedEvent

    }

}

rectangle money-api-1.0.3.jar {
    namespace javax.money {
        class MonetaryAmount{

        }
        bioladen.finances.CashierSystem -right-> MonetaryAmount
        bioladen.finances.ShoppingCart -right-> MonetaryAmount
    }

}

rectangle salespoint-framework-7.0.0.RELEASE.jar {

    namespace org.salespointframework.useraccount {

        class UserAccount <<Entity>>{

        }

        bioladen.finances.ShoppingCart "1" -left-> "1" UserAccount
        bioladen.finances.CashierSystem "1" -left-> "1" UserAccount
    }

    namespace org.salespointframework.context {
        class ApplicationEvent {

        }

        ApplicationEvent <|- - bioladen.event.EntityCreatedEvent
    }

}


@enduml

PlantUML version 1.2018.12(Sun Oct 21 12:15:15 CEST 2018)
(GPL source distribution)
Java Runtime: OpenJDK Runtime Environment
JVM: OpenJDK 64-Bit Server VM
Java Version: 11.0.1+13-Debian-2
Operating System: Linux
OS Version: 4.18.0-parrot10-amd64
Default Encoding: UTF-8
Language: en
Country: US
--></g></svg>