<?xml version="1.0" encoding="UTF-8" standalone="no"?><svg xmlns="http://www.w3.org/2000/svg" xmlns:xlink="http://www.w3.org/1999/xlink" contentScriptType="application/ecmascript" contentStyleType="text/css" height="1561px" preserveAspectRatio="none" style="width:2274px;height:1561px;" version="1.1" viewBox="0 0 2274 1561" width="2274px" zoomAndPan="magnify"><defs><filter height="300%" id="f1hlh3afb37jpr" width="300%" x="-1" y="-1"><feGaussianBlur result="blurOut" stdDeviation="2.0"/><feColorMatrix in="blurOut" result="blurOut2" type="matrix" values="0 0 0 0 0 0 0 0 0 0 0 0 0 0 0 0 0 0 .4 0"/><feOffset dx="4.0" dy="4.0" in="blurOut2" result="blurOut3"/><feBlend in="SourceGraphic" in2="blurOut3" mode="normal"/></filter><linearGradient id="g1hlh3afb37jpr0" x1="0%" x2="100%" y1="0%" y2="100%"><stop offset="0%" stop-color="#C0C0C0"/><stop offset="100%" stop-color="#FFFFFF"/></linearGradient><linearGradient id="g1hlh3afb37jpr1" x1="0%" x2="100%" y1="0%" y2="100%"><stop offset="0%" stop-color="#6495ED"/><stop offset="100%" stop-color="#00FFFF"/></linearGradient><linearGradient id="g1hlh3afb37jpr2" x1="0%" x2="100%" y1="0%" y2="100%"><stop offset="0%" stop-color="#32CD32"/><stop offset="100%" stop-color="#90EE90"/></linearGradient></defs><g><!--cluster JavaSE-1.8--><rect fill="#FFFFFF" filter="url(#f1hlh3afb37jpr)" height="168" style="stroke: #A9A9A9; stroke-width: 1.5;" width="154" x="1575" y="359"/><text fill="#808080" font-family="sans-serif" font-size="14" font-weight="bold" lengthAdjust="spacingAndGlyphs" textLength="76" x="1614" y="375.5332">JavaSE-1.8</text><!--cluster java.lang--><polygon fill="#FFFFFF" filter="url(#f1hlh3afb37jpr)" points="1599,403,1668,403,1675,426.6094,1705,426.6094,1705,503,1599,503,1599,403" style="stroke: #A9A9A9; stroke-width: 1.5;"/><line style="stroke: #A9A9A9; stroke-width: 1.5;" x1="1599" x2="1675" y1="426.6094" y2="426.6094"/><text fill="#808080" font-family="sans-serif" font-size="14" font-weight="bold" lengthAdjust="spacingAndGlyphs" textLength="63" x="1603" y="419.5332">java.lang</text><!--cluster Bioladen--><rect fill="#FFFFFF" filter="url(#f1hlh3afb37jpr)" height="1218" style="stroke: #A9A9A9; stroke-width: 1.5;" width="1529" x="22" y="24"/><text fill="#808080" font-family="sans-serif" font-size="14" font-weight="bold" lengthAdjust="spacingAndGlyphs" textLength="62" x="755.5" y="40.5332">Bioladen</text><!--cluster bioladen.data.log--><polygon fill="#FFFFFF" filter="url(#f1hlh3afb37jpr)" points="791,560,918,560,925,583.6094,1527,583.6094,1527,1218,791,1218,791,560" style="stroke: #A9A9A9; stroke-width: 1.5;"/><line style="stroke: #A9A9A9; stroke-width: 1.5;" x1="791" x2="925" y1="583.6094" y2="583.6094"/><text fill="#808080" font-family="sans-serif" font-size="14" font-weight="bold" lengthAdjust="spacingAndGlyphs" textLength="121" x="795" y="576.5332">bioladen.data.log</text><!--cluster bioladen.data.statistic--><polygon fill="#FFFFFF" filter="url(#f1hlh3afb37jpr)" points="249,68,409,68,416,91.6094,767,91.6094,767,921,249,921,249,68" style="stroke: #A9A9A9; stroke-width: 1.5;"/><line style="stroke: #A9A9A9; stroke-width: 1.5;" x1="249" x2="416" y1="91.6094" y2="91.6094"/><text fill="#808080" font-family="sans-serif" font-size="14" font-weight="bold" lengthAdjust="spacingAndGlyphs" textLength="154" x="253" y="84.5332">bioladen.data.statistic</text><!--cluster ressources.templates--><polygon fill="#FFFFFF" filter="url(#f1hlh3afb37jpr)" points="56,813.5,215,813.5,222,837.1094,225,837.1094,225,920.5,56,920.5,56,813.5" style="stroke: #A9A9A9; stroke-width: 1.5;"/><line style="stroke: #A9A9A9; stroke-width: 1.5;" x1="56" x2="222" y1="837.1094" y2="837.1094"/><text fill="#808080" font-family="sans-serif" font-size="14" font-weight="bold" lengthAdjust="spacingAndGlyphs" textLength="153" x="60" y="830.0332">ressources.templates</text><!--cluster salespoint-framework-7.0.0.RELEASE.jar--><rect fill="#FFFFFF" filter="url(#f1hlh3afb37jpr)" height="176" style="stroke: #A9A9A9; stroke-width: 1.5;" width="294" x="1969" y="769"/><text fill="#808080" font-family="sans-serif" font-size="14" font-weight="bold" lengthAdjust="spacingAndGlyphs" textLength="278" x="1977" y="785.5332">salespoint-framework-7.0.0.RELEASE.jar</text><!--cluster org.salespointframework.time--><polygon fill="#FFFFFF" filter="url(#f1hlh3afb37jpr)" points="1993,813,2208,813,2215,836.6094,2218,836.6094,2218,921,1993,921,1993,813" style="stroke: #A9A9A9; stroke-width: 1.5;"/><line style="stroke: #A9A9A9; stroke-width: 1.5;" x1="1993" x2="2215" y1="836.6094" y2="836.6094"/><text fill="#808080" font-family="sans-serif" font-size="14" font-weight="bold" lengthAdjust="spacingAndGlyphs" textLength="209" x="1997" y="829.5332">org.salespointframework.time</text><!--cluster spring--><rect fill="#FFFFFF" filter="url(#f1hlh3afb37jpr)" height="677" style="stroke: #A9A9A9; stroke-width: 1.5;" width="370" x="1575" y="755"/><text fill="#808080" font-family="sans-serif" font-size="14" font-weight="bold" lengthAdjust="spacingAndGlyphs" textLength="283" x="1618.5" y="771.5332">spring-data-comments-2.1.0.RELEASE.jar</text><!--cluster org.springframework.context--><polygon fill="#FFFFFF" filter="url(#f1hlh3afb37jpr)" points="1599,799,1809,799,1816,822.6094,1921,822.6094,1921,1408,1599,1408,1599,799" style="stroke: #A9A9A9; stroke-width: 1.5;"/><line style="stroke: #A9A9A9; stroke-width: 1.5;" x1="1599" x2="1816" y1="822.6094" y2="822.6094"/><text fill="#808080" font-family="sans-serif" font-size="14" font-weight="bold" lengthAdjust="spacingAndGlyphs" textLength="204" x="1603" y="815.5332">org.springframework.context</text><!--class java.lang.Iterable--><rect fill="url(#g1hlh3afb37jpr0)" filter="url(#f1hlh3afb37jpr)" height="48" id="java.lang.Iterable" style="stroke: #000000; stroke-width: 1.5;" width="73" x="1615.5" y="439"/><ellipse cx="1630.5" cy="455" fill="#ADD1B2" rx="11" ry="11" style="stroke: #000000; stroke-width: 1.0;"/><path d="M1633.2656,450.875 Q1633.4219,450.6563 1633.6094,450.5469 Q1633.7969,450.4375 1634.0156,450.4375 Q1634.3906,450.4375 1634.625,450.6953 Q1634.8594,450.9531 1634.8594,451.5625 L1634.8594,453.0156 Q1634.8594,453.625 1634.625,453.8906 Q1634.3906,454.1563 1634.0156,454.1563 Q1633.6719,454.1563 1633.4688,453.9531 Q1633.2656,453.7656 1633.1563,453.25 Q1633.1094,452.8906 1632.9219,452.7031 Q1632.5938,452.3281 1631.9844,452.1094 Q1631.375,451.8906 1630.75,451.8906 Q1629.9844,451.8906 1629.3516,452.2188 Q1628.7188,452.5469 1628.2266,453.2969 Q1627.7344,454.0469 1627.7344,455.0781 L1627.7344,456.1719 Q1627.7344,457.4063 1628.625,458.2266 Q1629.5156,459.0469 1631.1094,459.0469 Q1632.0469,459.0469 1632.7031,458.7969 Q1633.0938,458.6406 1633.5156,458.2031 Q1633.7813,457.9375 1633.9297,457.8594 Q1634.0781,457.7813 1634.2813,457.7813 Q1634.6094,457.7813 1634.8672,458.0391 Q1635.125,458.2969 1635.125,458.6406 Q1635.125,458.9844 1634.7813,459.3906 Q1634.2813,459.9688 1633.4844,460.2969 Q1632.4063,460.75 1631.1094,460.75 Q1629.5938,460.75 1628.3906,460.125 Q1627.4063,459.625 1626.7188,458.5547 Q1626.0313,457.4844 1626.0313,456.2031 L1626.0313,455.0469 Q1626.0313,453.7188 1626.6484,452.5703 Q1627.2656,451.4219 1628.3594,450.8047 Q1629.4531,450.1875 1630.6875,450.1875 Q1631.4219,450.1875 1632.0703,450.3516 Q1632.7188,450.5156 1633.2656,450.875 Z "/><text fill="#000000" font-family="sans-serif" font-size="12" lengthAdjust="spacingAndGlyphs" textLength="41" x="1644.5" y="459.9102">Iterable</text><line style="stroke: #000000; stroke-width: 1.5;" x1="1616.5" x2="1687.5" y1="471" y2="471"/><line style="stroke: #000000; stroke-width: 1.5;" x1="1616.5" x2="1687.5" y1="479" y2="479"/><!--class bioladen.data.log.Logger--><rect fill="url(#g1hlh3afb37jpr0)" filter="url(#f1hlh3afb37jpr)" height="208.3828" id="bioladen.data.log.Logger" style="stroke: #000000; stroke-width: 1.5;" width="198" x="812" y="994"/><ellipse cx="881.25" cy="1014.0938" fill="#ADD1B2" rx="11" ry="11" style="stroke: #000000; stroke-width: 1.0;"/><path d="M884.0156,1009.9688 Q884.1719,1009.75 884.3594,1009.6406 Q884.5469,1009.5313 884.7656,1009.5313 Q885.1406,1009.5313 885.375,1009.7891 Q885.6094,1010.0469 885.6094,1010.6563 L885.6094,1012.1094 Q885.6094,1012.7188 885.375,1012.9844 Q885.1406,1013.25 884.7656,1013.25 Q884.4219,1013.25 884.2188,1013.0469 Q884.0156,1012.8594 883.9063,1012.3438 Q883.8594,1011.9844 883.6719,1011.7969 Q883.3438,1011.4219 882.7344,1011.2031 Q882.125,1010.9844 881.5,1010.9844 Q880.7344,1010.9844 880.1016,1011.3125 Q879.4688,1011.6406 878.9766,1012.3906 Q878.4844,1013.1406 878.4844,1014.1719 L878.4844,1015.2656 Q878.4844,1016.5 879.375,1017.3203 Q880.2656,1018.1406 881.8594,1018.1406 Q882.7969,1018.1406 883.4531,1017.8906 Q883.8438,1017.7344 884.2656,1017.2969 Q884.5313,1017.0313 884.6797,1016.9531 Q884.8281,1016.875 885.0313,1016.875 Q885.3594,1016.875 885.6172,1017.1328 Q885.875,1017.3906 885.875,1017.7344 Q885.875,1018.0781 885.5313,1018.4844 Q885.0313,1019.0625 884.2344,1019.3906 Q883.1563,1019.8438 881.8594,1019.8438 Q880.3438,1019.8438 879.1406,1019.2188 Q878.1563,1018.7188 877.4688,1017.6484 Q876.7813,1016.5781 876.7813,1015.2969 L876.7813,1014.1406 Q876.7813,1012.8125 877.3984,1011.6641 Q878.0156,1010.5156 879.1094,1009.8984 Q880.2031,1009.2813 881.4375,1009.2813 Q882.1719,1009.2813 882.8203,1009.4453 Q883.4688,1009.6094 884.0156,1009.9688 Z "/><text fill="#000000" font-family="sans-serif" font-size="12" font-style="italic" lengthAdjust="spacingAndGlyphs" textLength="55" x="899.75" y="1011.457">«Service»</text><text fill="#000000" font-family="sans-serif" font-size="12" lengthAdjust="spacingAndGlyphs" textLength="39" x="907.75" y="1026.5508">Logger</text><line style="stroke: #000000; stroke-width: 1.5;" x1="813" x2="1009" y1="1034.1875" y2="1034.1875"/><line style="stroke: #000000; stroke-width: 1.5;" x1="813" x2="1009" y1="1042.1875" y2="1042.1875"/><text fill="#000000" font-family="sans-serif" font-size="11" lengthAdjust="spacingAndGlyphs" textLength="151" x="818" y="1057.6064">-log(LogLevel, Order) : boolean</text><text fill="#000000" font-family="sans-serif" font-size="11" lengthAdjust="spacingAndGlyphs" textLength="144" x="818" y="1071.4424">-log(LogLevel, Sale) : boolean</text><text fill="#000000" font-family="sans-serif" font-size="11" lengthAdjust="spacingAndGlyphs" textLength="181" x="818" y="1085.2783">-log(LogLevel, Cancellation) : boolean</text><text fill="#000000" font-family="sans-serif" font-size="11" lengthAdjust="spacingAndGlyphs" textLength="186" x="818" y="1099.1143">-log(LogLevel, LogInventory) : boolean</text><text fill="#000000" font-family="sans-serif" font-size="11" lengthAdjust="spacingAndGlyphs" textLength="146" x="818" y="1112.9502">-log(LogLevel, User) : boolean</text><text fill="#000000" font-family="sans-serif" font-size="11" lengthAdjust="spacingAndGlyphs" textLength="144" x="818" y="1126.7861">+info(Object, String) : boolean</text><text fill="#000000" font-family="sans-serif" font-size="11" lengthAdjust="spacingAndGlyphs" textLength="166" x="818" y="1140.6221">+warning(Object, String) : boolean</text><text fill="#000000" font-family="sans-serif" font-size="11" lengthAdjust="spacingAndGlyphs" textLength="150" x="818" y="1154.458">+error(Object, String) : boolean</text><text fill="#000000" font-family="sans-serif" font-size="11" lengthAdjust="spacingAndGlyphs" textLength="146" x="818" y="1168.2939">+getLog() : Iterable&lt;LogEntry&gt;</text><text fill="#000000" font-family="sans-serif" font-size="11" lengthAdjust="spacingAndGlyphs" textLength="47" x="818" y="1182.1299">+getLog()</text><text fill="#000000" font-family="sans-serif" font-size="11" lengthAdjust="spacingAndGlyphs" textLength="91" x="818" y="1195.9658">-publishLogEvent()</text><!--class bioladen.data.log.LogEntry--><rect fill="url(#g1hlh3afb37jpr0)" filter="url(#f1hlh3afb37jpr)" height="111.5313" id="bioladen.data.log.LogEntry" style="stroke: #000000; stroke-width: 1.5;" width="131" x="1148.5" y="821"/><ellipse cx="1186.45" cy="841.0938" fill="#ADD1B2" rx="11" ry="11" style="stroke: #000000; stroke-width: 1.0;"/><path d="M1189.2156,836.9688 Q1189.3719,836.75 1189.5594,836.6406 Q1189.7469,836.5313 1189.9656,836.5313 Q1190.3406,836.5313 1190.575,836.7891 Q1190.8094,837.0469 1190.8094,837.6563 L1190.8094,839.1094 Q1190.8094,839.7188 1190.575,839.9844 Q1190.3406,840.25 1189.9656,840.25 Q1189.6219,840.25 1189.4188,840.0469 Q1189.2156,839.8594 1189.1063,839.3438 Q1189.0594,838.9844 1188.8719,838.7969 Q1188.5438,838.4219 1187.9344,838.2031 Q1187.325,837.9844 1186.7,837.9844 Q1185.9344,837.9844 1185.3016,838.3125 Q1184.6688,838.6406 1184.1766,839.3906 Q1183.6844,840.1406 1183.6844,841.1719 L1183.6844,842.2656 Q1183.6844,843.5 1184.575,844.3203 Q1185.4656,845.1406 1187.0594,845.1406 Q1187.9969,845.1406 1188.6531,844.8906 Q1189.0438,844.7344 1189.4656,844.2969 Q1189.7313,844.0313 1189.8797,843.9531 Q1190.0281,843.875 1190.2313,843.875 Q1190.5594,843.875 1190.8172,844.1328 Q1191.075,844.3906 1191.075,844.7344 Q1191.075,845.0781 1190.7313,845.4844 Q1190.2313,846.0625 1189.4344,846.3906 Q1188.3563,846.8438 1187.0594,846.8438 Q1185.5438,846.8438 1184.3406,846.2188 Q1183.3563,845.7188 1182.6688,844.6484 Q1181.9813,843.5781 1181.9813,842.2969 L1181.9813,841.1406 Q1181.9813,839.8125 1182.5984,838.6641 Q1183.2156,837.5156 1184.3094,836.8984 Q1185.4031,836.2813 1186.6375,836.2813 Q1187.3719,836.2813 1188.0203,836.4453 Q1188.6688,836.6094 1189.2156,836.9688 Z "/><text fill="#000000" font-family="sans-serif" font-size="12" font-style="italic" lengthAdjust="spacingAndGlyphs" textLength="44" x="1207.55" y="838.457">«Entity»</text><text fill="#000000" font-family="sans-serif" font-size="12" lengthAdjust="spacingAndGlyphs" textLength="48" x="1205.55" y="853.5508">LogEntry</text><line style="stroke: #000000; stroke-width: 1.5;" x1="1149.5" x2="1278.5" y1="861.1875" y2="861.1875"/><text fill="#000000" font-family="sans-serif" font-size="11" lengthAdjust="spacingAndGlyphs" textLength="97" x="1154.5" y="876.6064">-logLevel : LogLevel</text><text fill="#000000" font-family="sans-serif" font-size="11" lengthAdjust="spacingAndGlyphs" textLength="89" x="1154.5" y="890.4424">-thrownBy : String</text><text fill="#000000" font-family="sans-serif" font-size="11" lengthAdjust="spacingAndGlyphs" textLength="119" x="1154.5" y="904.2783">-logTime : LocalDateTime</text><text fill="#000000" font-family="sans-serif" font-size="11" lengthAdjust="spacingAndGlyphs" textLength="80" x="1154.5" y="918.1143">-content : Object</text><line style="stroke: #000000; stroke-width: 1.5;" x1="1149.5" x2="1278.5" y1="924.5313" y2="924.5313"/><!--class bioladen.data.log.EntityCreatedEventListener--><rect fill="url(#g1hlh3afb37jpr0)" filter="url(#f1hlh3afb37jpr)" height="111.5313" id="bioladen.data.log.EntityCreatedEventListener" style="stroke: #000000; stroke-width: 1.5;" width="233" x="1277.5" y="596"/><ellipse cx="1316.35" cy="616.0938" fill="#ADD1B2" rx="11" ry="11" style="stroke: #000000; stroke-width: 1.0;"/><path d="M1319.1156,611.9688 Q1319.2719,611.75 1319.4594,611.6406 Q1319.6469,611.5313 1319.8656,611.5313 Q1320.2406,611.5313 1320.475,611.7891 Q1320.7094,612.0469 1320.7094,612.6563 L1320.7094,614.1094 Q1320.7094,614.7188 1320.475,614.9844 Q1320.2406,615.25 1319.8656,615.25 Q1319.5219,615.25 1319.3188,615.0469 Q1319.1156,614.8594 1319.0063,614.3438 Q1318.9594,613.9844 1318.7719,613.7969 Q1318.4438,613.4219 1317.8344,613.2031 Q1317.225,612.9844 1316.6,612.9844 Q1315.8344,612.9844 1315.2016,613.3125 Q1314.5688,613.6406 1314.0766,614.3906 Q1313.5844,615.1406 1313.5844,616.1719 L1313.5844,617.2656 Q1313.5844,618.5 1314.475,619.3203 Q1315.3656,620.1406 1316.9594,620.1406 Q1317.8969,620.1406 1318.5531,619.8906 Q1318.9438,619.7344 1319.3656,619.2969 Q1319.6313,619.0313 1319.7797,618.9531 Q1319.9281,618.875 1320.1313,618.875 Q1320.4594,618.875 1320.7172,619.1328 Q1320.975,619.3906 1320.975,619.7344 Q1320.975,620.0781 1320.6313,620.4844 Q1320.1313,621.0625 1319.3344,621.3906 Q1318.2563,621.8438 1316.9594,621.8438 Q1315.4438,621.8438 1314.2406,621.2188 Q1313.2563,620.7188 1312.5688,619.6484 Q1311.8813,618.5781 1311.8813,617.2969 L1311.8813,616.1406 Q1311.8813,614.8125 1312.4984,613.6641 Q1313.1156,612.5156 1314.2094,611.8984 Q1315.3031,611.2813 1316.5375,611.2813 Q1317.2719,611.2813 1317.9203,611.4453 Q1318.5688,611.6094 1319.1156,611.9688 Z "/><text fill="#000000" font-family="sans-serif" font-size="12" font-style="italic" lengthAdjust="spacingAndGlyphs" textLength="55" x="1382.15" y="613.457">«Service»</text><text fill="#000000" font-family="sans-serif" font-size="12" lengthAdjust="spacingAndGlyphs" textLength="148" x="1335.65" y="628.5508">EntityCreatedEventListener</text><line style="stroke: #000000; stroke-width: 1.5;" x1="1278.5" x2="1509.5" y1="636.1875" y2="636.1875"/><line style="stroke: #000000; stroke-width: 1.5;" x1="1278.5" x2="1509.5" y1="644.1875" y2="644.1875"/><text fill="#000000" font-family="sans-serif" font-size="11" lengthAdjust="spacingAndGlyphs" textLength="212" x="1283.5" y="659.6064">-listenOrderEvent(EntityCreatedEvent) : void</text><text fill="#000000" font-family="sans-serif" font-size="11" lengthAdjust="spacingAndGlyphs" textLength="205" x="1283.5" y="673.4424">-listenSaleEvent(EntityCreatedEvent) : void</text><text fill="#000000" font-family="sans-serif" font-size="11" lengthAdjust="spacingAndGlyphs" textLength="207" x="1283.5" y="687.2783">-listenUserEvent(EntityCreatedEvent) : void</text><text fill="#000000" font-family="sans-serif" font-size="11" lengthAdjust="spacingAndGlyphs" textLength="221" x="1283.5" y="701.1143">-listenProductEvent(EntityCreatedEvent) : void</text><!--class bioladen.data.log.LogLevel--><rect fill="url(#g1hlh3afb37jpr0)" filter="url(#f1hlh3afb37jpr)" height="103.3438" id="bioladen.data.log.LogLevel" style="stroke: #000000; stroke-width: 1.5;" width="82" x="1173" y="1046.5"/><ellipse cx="1188" cy="1062.5" fill="#EB937F" rx="11" ry="11" style="stroke: #000000; stroke-width: 1.0;"/><path d="M1186.8594,1063.2969 L1186.8594,1065.7969 L1191.1875,1065.7969 L1191.1875,1064.875 Q1191.1875,1064.2656 1191.4297,1064 Q1191.6719,1063.7344 1192.0469,1063.7344 Q1192.4219,1063.7344 1192.6563,1064 Q1192.8906,1064.2656 1192.8906,1064.875 L1192.8906,1067.5 L1184.8906,1067.5 Q1184.2656,1067.5 1184.0078,1067.2656 Q1183.75,1067.0313 1183.75,1066.6406 Q1183.75,1066.2656 1184.0156,1066.0313 Q1184.2813,1065.7969 1184.8906,1065.7969 L1185.1563,1065.7969 L1185.1563,1059.1406 L1184.8906,1059.1406 Q1184.2656,1059.1406 1184.0078,1058.9063 Q1183.75,1058.6719 1183.75,1058.2813 Q1183.75,1057.9063 1184.0078,1057.6719 Q1184.2656,1057.4375 1184.8906,1057.4375 L1192.5156,1057.4375 L1192.5156,1060.0313 Q1192.5156,1060.6406 1192.2891,1060.8984 Q1192.0625,1061.1563 1191.6719,1061.1563 Q1191.2969,1061.1563 1191.0625,1060.8984 Q1190.8281,1060.6406 1190.8281,1060.0313 L1190.8281,1059.1406 L1186.8594,1059.1406 L1186.8594,1061.5938 L1188.3438,1061.5938 Q1188.3438,1060.9375 1188.4688,1060.75 Q1188.7344,1060.3438 1189.2031,1060.3438 Q1189.5781,1060.3438 1189.8125,1060.6016 Q1190.0469,1060.8594 1190.0469,1061.4688 L1190.0469,1063.4375 Q1190.0469,1063.9844 1189.9219,1064.1719 Q1189.6563,1064.5625 1189.2031,1064.5625 Q1188.7344,1064.5625 1188.4688,1064.1563 Q1188.3438,1063.9688 1188.3438,1063.2969 L1186.8594,1063.2969 Z "/><text fill="#000000" font-family="sans-serif" font-size="12" lengthAdjust="spacingAndGlyphs" textLength="50" x="1202" y="1067.4102">LogLevel</text><line style="stroke: #000000; stroke-width: 1.5;" x1="1174" x2="1254" y1="1078.5" y2="1078.5"/><text fill="#000000" font-family="sans-serif" font-size="11" lengthAdjust="spacingAndGlyphs" textLength="23" x="1179" y="1093.9189">INFO</text><text fill="#000000" font-family="sans-serif" font-size="11" lengthAdjust="spacingAndGlyphs" textLength="49" x="1179" y="1107.7549">WARNING</text><text fill="#000000" font-family="sans-serif" font-size="11" lengthAdjust="spacingAndGlyphs" textLength="35" x="1179" y="1121.5908">ERROR</text><text fill="#000000" font-family="sans-serif" font-size="11" lengthAdjust="spacingAndGlyphs" textLength="35" x="1179" y="1135.4268">ENTITY</text><line style="stroke: #000000; stroke-width: 1.5;" x1="1174" x2="1254" y1="1141.8438" y2="1141.8438"/><!--class bioladen.data.log.LogExplorer--><rect fill="url(#g1hlh3afb37jpr0)" filter="url(#f1hlh3afb37jpr)" height="97.6953" id="bioladen.data.log.LogExplorer" style="stroke: #000000; stroke-width: 1.5;" width="178" x="822" y="828"/><ellipse cx="873.75" cy="848.0938" fill="#ADD1B2" rx="11" ry="11" style="stroke: #000000; stroke-width: 1.0;"/><path d="M876.5156,843.9688 Q876.6719,843.75 876.8594,843.6406 Q877.0469,843.5313 877.2656,843.5313 Q877.6406,843.5313 877.875,843.7891 Q878.1094,844.0469 878.1094,844.6563 L878.1094,846.1094 Q878.1094,846.7188 877.875,846.9844 Q877.6406,847.25 877.2656,847.25 Q876.9219,847.25 876.7188,847.0469 Q876.5156,846.8594 876.4063,846.3438 Q876.3594,845.9844 876.1719,845.7969 Q875.8438,845.4219 875.2344,845.2031 Q874.625,844.9844 874,844.9844 Q873.2344,844.9844 872.6016,845.3125 Q871.9688,845.6406 871.4766,846.3906 Q870.9844,847.1406 870.9844,848.1719 L870.9844,849.2656 Q870.9844,850.5 871.875,851.3203 Q872.7656,852.1406 874.3594,852.1406 Q875.2969,852.1406 875.9531,851.8906 Q876.3438,851.7344 876.7656,851.2969 Q877.0313,851.0313 877.1797,850.9531 Q877.3281,850.875 877.5313,850.875 Q877.8594,850.875 878.1172,851.1328 Q878.375,851.3906 878.375,851.7344 Q878.375,852.0781 878.0313,852.4844 Q877.5313,853.0625 876.7344,853.3906 Q875.6563,853.8438 874.3594,853.8438 Q872.8438,853.8438 871.6406,853.2188 Q870.6563,852.7188 869.9688,851.6484 Q869.2813,850.5781 869.2813,849.2969 L869.2813,848.1406 Q869.2813,846.8125 869.8984,845.6641 Q870.5156,844.5156 871.6094,843.8984 Q872.7031,843.2813 873.9375,843.2813 Q874.6719,843.2813 875.3203,843.4453 Q875.9688,843.6094 876.5156,843.9688 Z "/><text fill="#000000" font-family="sans-serif" font-size="12" font-style="italic" lengthAdjust="spacingAndGlyphs" textLength="44" x="905.25" y="845.457">«Entity»</text><text fill="#000000" font-family="sans-serif" font-size="12" lengthAdjust="spacingAndGlyphs" textLength="66" x="894.25" y="860.5508">LogExplorer</text><line style="stroke: #000000; stroke-width: 1.5;" x1="823" x2="999" y1="868.1875" y2="868.1875"/><line style="stroke: #000000; stroke-width: 1.5;" x1="823" x2="999" y1="876.1875" y2="876.1875"/><text fill="#000000" font-family="sans-serif" font-size="11" lengthAdjust="spacingAndGlyphs" textLength="155" x="828" y="891.6064">+filterBy(Duration) : LogExplorer</text><text fill="#000000" font-family="sans-serif" font-size="11" lengthAdjust="spacingAndGlyphs" textLength="159" x="828" y="905.4424">+filterBy(LogLevel) : LogExplorer</text><text fill="#000000" font-family="sans-serif" font-size="11" lengthAdjust="spacingAndGlyphs" textLength="166" x="828" y="919.2783">+filterBy(ThrownBy) : LogExplorer</text><!--class bioladen.data.log.LogFilter--><rect fill="url(#g1hlh3afb37jpr0)" filter="url(#f1hlh3afb37jpr)" height="97.6953" id="bioladen.data.log.LogFilter" style="stroke: #000000; stroke-width: 1.5;" width="208" x="807" y="603"/><ellipse cx="882.75" cy="623.0938" fill="#ADD1B2" rx="11" ry="11" style="stroke: #000000; stroke-width: 1.0;"/><path d="M885.5156,618.9688 Q885.6719,618.75 885.8594,618.6406 Q886.0469,618.5313 886.2656,618.5313 Q886.6406,618.5313 886.875,618.7891 Q887.1094,619.0469 887.1094,619.6563 L887.1094,621.1094 Q887.1094,621.7188 886.875,621.9844 Q886.6406,622.25 886.2656,622.25 Q885.9219,622.25 885.7188,622.0469 Q885.5156,621.8594 885.4063,621.3438 Q885.3594,620.9844 885.1719,620.7969 Q884.8438,620.4219 884.2344,620.2031 Q883.625,619.9844 883,619.9844 Q882.2344,619.9844 881.6016,620.3125 Q880.9688,620.6406 880.4766,621.3906 Q879.9844,622.1406 879.9844,623.1719 L879.9844,624.2656 Q879.9844,625.5 880.875,626.3203 Q881.7656,627.1406 883.3594,627.1406 Q884.2969,627.1406 884.9531,626.8906 Q885.3438,626.7344 885.7656,626.2969 Q886.0313,626.0313 886.1797,625.9531 Q886.3281,625.875 886.5313,625.875 Q886.8594,625.875 887.1172,626.1328 Q887.375,626.3906 887.375,626.7344 Q887.375,627.0781 887.0313,627.4844 Q886.5313,628.0625 885.7344,628.3906 Q884.6563,628.8438 883.3594,628.8438 Q881.8438,628.8438 880.6406,628.2188 Q879.6563,627.7188 878.9688,626.6484 Q878.2813,625.5781 878.2813,624.2969 L878.2813,623.1406 Q878.2813,621.8125 878.8984,620.6641 Q879.5156,619.5156 880.6094,618.8984 Q881.7031,618.2813 882.9375,618.2813 Q883.6719,618.2813 884.3203,618.4453 Q884.9688,618.6094 885.5156,618.9688 Z "/><text fill="#000000" font-family="sans-serif" font-size="12" font-style="italic" lengthAdjust="spacingAndGlyphs" textLength="42" x="906.25" y="620.457">«static»</text><text fill="#000000" font-family="sans-serif" font-size="12" lengthAdjust="spacingAndGlyphs" textLength="48" x="903.25" y="635.5508">LogFilter</text><line style="stroke: #000000; stroke-width: 1.5;" x1="808" x2="1014" y1="643.1875" y2="643.1875"/><line style="stroke: #000000; stroke-width: 1.5;" x1="808" x2="1014" y1="651.1875" y2="651.1875"/><text fill="#000000" font-family="sans-serif" font-size="11" lengthAdjust="spacingAndGlyphs" textLength="185" x="813" y="666.6064">+filterBy(LogFilter, Duration) : LogFilter</text><text fill="#000000" font-family="sans-serif" font-size="11" lengthAdjust="spacingAndGlyphs" textLength="189" x="813" y="680.4424">+filterBy(LogFilter, LogLevel) : LogFilter</text><text fill="#000000" font-family="sans-serif" font-size="11" lengthAdjust="spacingAndGlyphs" textLength="196" x="813" y="694.2783">+filterBy(LogFilter, ThrownBy) : LogFilter</text><!--class bioladen.data.log.LogEvent--><rect fill="url(#g1hlh3afb37jpr0)" filter="url(#f1hlh3afb37jpr)" height="70.0234" id="bioladen.data.log.LogEvent" style="stroke: #000000; stroke-width: 1.5;" width="83" x="1370.5" y="842"/><ellipse cx="1385.5" cy="862.0938" fill="#ADD1B2" rx="11" ry="11" style="stroke: #000000; stroke-width: 1.0;"/><path d="M1388.2656,857.9688 Q1388.4219,857.75 1388.6094,857.6406 Q1388.7969,857.5313 1389.0156,857.5313 Q1389.3906,857.5313 1389.625,857.7891 Q1389.8594,858.0469 1389.8594,858.6563 L1389.8594,860.1094 Q1389.8594,860.7188 1389.625,860.9844 Q1389.3906,861.25 1389.0156,861.25 Q1388.6719,861.25 1388.4688,861.0469 Q1388.2656,860.8594 1388.1563,860.3438 Q1388.1094,859.9844 1387.9219,859.7969 Q1387.5938,859.4219 1386.9844,859.2031 Q1386.375,858.9844 1385.75,858.9844 Q1384.9844,858.9844 1384.3516,859.3125 Q1383.7188,859.6406 1383.2266,860.3906 Q1382.7344,861.1406 1382.7344,862.1719 L1382.7344,863.2656 Q1382.7344,864.5 1383.625,865.3203 Q1384.5156,866.1406 1386.1094,866.1406 Q1387.0469,866.1406 1387.7031,865.8906 Q1388.0938,865.7344 1388.5156,865.2969 Q1388.7813,865.0313 1388.9297,864.9531 Q1389.0781,864.875 1389.2813,864.875 Q1389.6094,864.875 1389.8672,865.1328 Q1390.125,865.3906 1390.125,865.7344 Q1390.125,866.0781 1389.7813,866.4844 Q1389.2813,867.0625 1388.4844,867.3906 Q1387.4063,867.8438 1386.1094,867.8438 Q1384.5938,867.8438 1383.3906,867.2188 Q1382.4063,866.7188 1381.7188,865.6484 Q1381.0313,864.5781 1381.0313,863.2969 L1381.0313,862.1406 Q1381.0313,860.8125 1381.6484,859.6641 Q1382.2656,858.5156 1383.3594,857.8984 Q1384.4531,857.2813 1385.6875,857.2813 Q1386.4219,857.2813 1387.0703,857.4453 Q1387.7188,857.6094 1388.2656,857.9688 Z "/><text fill="#000000" font-family="sans-serif" font-size="12" font-style="italic" lengthAdjust="spacingAndGlyphs" textLength="44" x="1403" y="859.457">«Entity»</text><text fill="#000000" font-family="sans-serif" font-size="12" lengthAdjust="spacingAndGlyphs" textLength="51" x="1399.5" y="874.5508">LogEvent</text><line style="stroke: #000000; stroke-width: 1.5;" x1="1371.5" x2="1452.5" y1="882.1875" y2="882.1875"/><line style="stroke: #000000; stroke-width: 1.5;" x1="1371.5" x2="1452.5" y1="890.1875" y2="890.1875"/><text fill="#000000" font-family="sans-serif" font-size="11" lengthAdjust="spacingAndGlyphs" textLength="59" x="1376.5" y="905.6064">+LogEvent()</text><!--class bioladen.data.log.LogEventListener--><rect fill="url(#g1hlh3afb37jpr0)" filter="url(#f1hlh3afb37jpr)" height="70.0234" id="bioladen.data.log.LogEventListener" style="stroke: #000000; stroke-width: 1.5;" width="192" x="1050" y="617"/><ellipse cx="1093.8" cy="637.0938" fill="#ADD1B2" rx="11" ry="11" style="stroke: #000000; stroke-width: 1.0;"/><path d="M1096.5656,632.9688 Q1096.7219,632.75 1096.9094,632.6406 Q1097.0969,632.5313 1097.3156,632.5313 Q1097.6906,632.5313 1097.925,632.7891 Q1098.1594,633.0469 1098.1594,633.6563 L1098.1594,635.1094 Q1098.1594,635.7188 1097.925,635.9844 Q1097.6906,636.25 1097.3156,636.25 Q1096.9719,636.25 1096.7688,636.0469 Q1096.5656,635.8594 1096.4563,635.3438 Q1096.4094,634.9844 1096.2219,634.7969 Q1095.8938,634.4219 1095.2844,634.2031 Q1094.675,633.9844 1094.05,633.9844 Q1093.2844,633.9844 1092.6516,634.3125 Q1092.0188,634.6406 1091.5266,635.3906 Q1091.0344,636.1406 1091.0344,637.1719 L1091.0344,638.2656 Q1091.0344,639.5 1091.925,640.3203 Q1092.8156,641.1406 1094.4094,641.1406 Q1095.3469,641.1406 1096.0031,640.8906 Q1096.3938,640.7344 1096.8156,640.2969 Q1097.0813,640.0313 1097.2297,639.9531 Q1097.3781,639.875 1097.5813,639.875 Q1097.9094,639.875 1098.1672,640.1328 Q1098.425,640.3906 1098.425,640.7344 Q1098.425,641.0781 1098.0813,641.4844 Q1097.5813,642.0625 1096.7844,642.3906 Q1095.7063,642.8438 1094.4094,642.8438 Q1092.8938,642.8438 1091.6906,642.2188 Q1090.7063,641.7188 1090.0188,640.6484 Q1089.3313,639.5781 1089.3313,638.2969 L1089.3313,637.1406 Q1089.3313,635.8125 1089.9484,634.6641 Q1090.5656,633.5156 1091.6594,632.8984 Q1092.7531,632.2813 1093.9875,632.2813 Q1094.7219,632.2813 1095.3703,632.4453 Q1096.0188,632.6094 1096.5656,632.9688 Z "/><text fill="#000000" font-family="sans-serif" font-size="12" font-style="italic" lengthAdjust="spacingAndGlyphs" textLength="55" x="1134.7" y="634.457">«Service»</text><text fill="#000000" font-family="sans-serif" font-size="12" lengthAdjust="spacingAndGlyphs" textLength="96" x="1114.2" y="649.5508">LogEventListener</text><line style="stroke: #000000; stroke-width: 1.5;" x1="1051" x2="1241" y1="657.1875" y2="657.1875"/><line style="stroke: #000000; stroke-width: 1.5;" x1="1051" x2="1241" y1="665.1875" y2="665.1875"/><text fill="#000000" font-family="sans-serif" font-size="11" lengthAdjust="spacingAndGlyphs" textLength="180" x="1056" y="680.6064">+onApplicationEvent(LogEvent) : void</text><!--class bioladen.data.statistic.StatisticController--><rect fill="url(#g1hlh3afb37jpr1)" filter="url(#f1hlh3afb37jpr)" height="70.0234" id="bioladen.data.statistic.StatisticController" style="stroke: #000000; stroke-width: 1.5;" width="129" x="314.5" y="617"/><ellipse cx="329.5" cy="637.0938" fill="#ADD1B2" rx="11" ry="11" style="stroke: #000000; stroke-width: 1.0;"/><path d="M332.2656,632.9688 Q332.4219,632.75 332.6094,632.6406 Q332.7969,632.5313 333.0156,632.5313 Q333.3906,632.5313 333.625,632.7891 Q333.8594,633.0469 333.8594,633.6563 L333.8594,635.1094 Q333.8594,635.7188 333.625,635.9844 Q333.3906,636.25 333.0156,636.25 Q332.6719,636.25 332.4688,636.0469 Q332.2656,635.8594 332.1563,635.3438 Q332.1094,634.9844 331.9219,634.7969 Q331.5938,634.4219 330.9844,634.2031 Q330.375,633.9844 329.75,633.9844 Q328.9844,633.9844 328.3516,634.3125 Q327.7188,634.6406 327.2266,635.3906 Q326.7344,636.1406 326.7344,637.1719 L326.7344,638.2656 Q326.7344,639.5 327.625,640.3203 Q328.5156,641.1406 330.1094,641.1406 Q331.0469,641.1406 331.7031,640.8906 Q332.0938,640.7344 332.5156,640.2969 Q332.7813,640.0313 332.9297,639.9531 Q333.0781,639.875 333.2813,639.875 Q333.6094,639.875 333.8672,640.1328 Q334.125,640.3906 334.125,640.7344 Q334.125,641.0781 333.7813,641.4844 Q333.2813,642.0625 332.4844,642.3906 Q331.4063,642.8438 330.1094,642.8438 Q328.5938,642.8438 327.3906,642.2188 Q326.4063,641.7188 325.7188,640.6484 Q325.0313,639.5781 325.0313,638.2969 L325.0313,637.1406 Q325.0313,635.8125 325.6484,634.6641 Q326.2656,633.5156 327.3594,632.8984 Q328.4531,632.2813 329.6875,632.2813 Q330.4219,632.2813 331.0703,632.4453 Q331.7188,632.6094 332.2656,632.9688 Z "/><text fill="#000000" font-family="sans-serif" font-size="12" font-style="italic" lengthAdjust="spacingAndGlyphs" textLength="68" x="358" y="634.457">«Controller»</text><text fill="#000000" font-family="sans-serif" font-size="12" lengthAdjust="spacingAndGlyphs" textLength="97" x="343.5" y="649.5508">StatisticController</text><line style="stroke: #000000; stroke-width: 1.5;" x1="315.5" x2="442.5" y1="657.1875" y2="657.1875"/><line style="stroke: #000000; stroke-width: 1.5;" x1="315.5" x2="442.5" y1="665.1875" y2="665.1875"/><text fill="#000000" font-family="sans-serif" font-size="11" lengthAdjust="spacingAndGlyphs" textLength="94" x="320.5" y="680.6064">+statistics() : String</text><!--class bioladen.data.statistic.Chart--><rect fill="url(#g1hlh3afb37jpr0)" filter="url(#f1hlh3afb37jpr)" height="208.3828" id="bioladen.data.statistic.Chart" style="stroke: #000000; stroke-width: 1.5;" width="485" x="265.5" y="104"/><ellipse cx="470.25" cy="124.0938" fill="#A9DCDF" rx="11" ry="11" style="stroke: #000000; stroke-width: 1.0;"/><path d="M472.4375,125.8594 L468.2969,125.8594 L467.875,126.8906 L468.2969,126.8906 Q468.9063,126.8906 469.1719,127.125 Q469.4375,127.3594 469.4375,127.75 Q469.4375,128.125 469.1719,128.3594 Q468.9063,128.5938 468.2969,128.5938 L466,128.5938 Q465.3906,128.5938 465.1328,128.3594 Q464.875,128.125 464.875,127.7344 Q464.875,127.3594 465.1484,127.1172 Q465.4219,126.875 466.0469,126.8906 L468.7188,120.2344 L467.6094,120.2344 Q467,120.2344 466.7344,120 Q466.4688,119.7656 466.4688,119.375 Q466.4688,119 466.7344,118.7656 Q467,118.5313 467.6094,118.5313 L471.2813,118.5313 L474.6719,126.8906 Q475.2656,126.8906 475.4531,127.0313 Q475.8438,127.2969 475.8438,127.75 Q475.8438,128.125 475.5859,128.3594 Q475.3281,128.5938 474.7188,128.5938 L472.4219,128.5938 Q471.8125,128.5938 471.5469,128.3594 Q471.2813,128.125 471.2813,127.7344 Q471.2813,127.3594 471.5469,127.125 Q471.8125,126.8906 472.4219,126.8906 L472.8438,126.8906 L472.4375,125.8594 Z M471.7188,124.1563 L470.3594,120.7813 L468.9844,124.1563 L471.7188,124.1563 Z "/><text fill="#000000" font-family="sans-serif" font-size="12" font-style="italic" lengthAdjust="spacingAndGlyphs" textLength="71" x="488.75" y="121.457">«static, final»</text><text fill="#000000" font-family="sans-serif" font-size="12" font-style="italic" lengthAdjust="spacingAndGlyphs" textLength="30" x="509.25" y="136.5508">Chart</text><line style="stroke: #000000; stroke-width: 1.5;" x1="266.5" x2="749.5" y1="144.1875" y2="144.1875"/><text fill="#000000" font-family="sans-serif" font-size="11" font-style="italic" lengthAdjust="spacingAndGlyphs" textLength="110" x="271.5" y="159.6064">CHART_TYPE : String</text><text fill="#000000" font-family="sans-serif" font-size="11" lengthAdjust="spacingAndGlyphs" textLength="89" x="271.5" y="173.4424">TEMPLATE : String</text><text fill="#000000" font-family="sans-serif" font-size="11" lengthAdjust="spacingAndGlyphs" textLength="143" x="271.5" y="187.2783">TEMPLATE_DATASET : String</text><line style="stroke: #000000; stroke-width: 1.5;" x1="266.5" x2="749.5" y1="193.6953" y2="193.6953"/><text fill="#000000" font-family="sans-serif" font-size="11" lengthAdjust="spacingAndGlyphs" textLength="316" x="271.5" y="209.1143">generateChart(title : String, labels : List&lt;T&gt;, data : List&lt;T&gt;) : String</text><text fill="#000000" font-family="sans-serif" font-size="11" lengthAdjust="spacingAndGlyphs" textLength="266" x="271.5" y="222.9502">generateChart(title : String, dataset : Map&lt;T,S&gt;) : String</text><text fill="#000000" font-family="sans-serif" font-size="11" lengthAdjust="spacingAndGlyphs" textLength="374" x="271.5" y="236.7861">generateChart(title : String, labels : List&lt;List&lt;T&gt;&gt;, data : List&lt;List&lt;T&gt;&gt;) : String</text><text fill="#000000" font-family="sans-serif" font-size="11" lengthAdjust="spacingAndGlyphs" textLength="301" x="271.5" y="250.6221">generateChart(title : String, datasets : List&lt;Map&lt;T,S&gt;&gt;) : String</text><text fill="#000000" font-family="sans-serif" font-size="11" lengthAdjust="spacingAndGlyphs" textLength="380" x="271.5" y="264.458">generateChart(title : String, labels : List&lt;T&gt;, data : List&lt;T&gt;, color : Color) : String</text><text fill="#000000" font-family="sans-serif" font-size="11" lengthAdjust="spacingAndGlyphs" textLength="330" x="271.5" y="278.2939">generateChart(title : String, dataset : Map&lt;T,S&gt;, color : Color) : String</text><text fill="#000000" font-family="sans-serif" font-size="11" lengthAdjust="spacingAndGlyphs" textLength="473" x="271.5" y="292.1299">generateChart(title : String, labels : List&lt;List&lt;T&gt;&gt;, data : List&lt;List&lt;T&gt;&gt;, colors : List&lt;Color&gt;) : String</text><text fill="#000000" font-family="sans-serif" font-size="11" lengthAdjust="spacingAndGlyphs" textLength="400" x="271.5" y="305.9658">generateChart(title : String, datasets : List&lt;Map&lt;T,S&gt;&gt;, colors : List&lt;Color&gt;) : String</text><!--class bioladen.data.statistic.BarChart--><rect fill="url(#g1hlh3afb37jpr0)" filter="url(#f1hlh3afb37jpr)" height="70.0234" id="bioladen.data.statistic.BarChart" style="stroke: #000000; stroke-width: 1.5;" width="116" x="432" y="428"/><ellipse cx="462.75" cy="448.0938" fill="#ADD1B2" rx="11" ry="11" style="stroke: #000000; stroke-width: 1.0;"/><path d="M465.5156,443.9688 Q465.6719,443.75 465.8594,443.6406 Q466.0469,443.5313 466.2656,443.5313 Q466.6406,443.5313 466.875,443.7891 Q467.1094,444.0469 467.1094,444.6563 L467.1094,446.1094 Q467.1094,446.7188 466.875,446.9844 Q466.6406,447.25 466.2656,447.25 Q465.9219,447.25 465.7188,447.0469 Q465.5156,446.8594 465.4063,446.3438 Q465.3594,445.9844 465.1719,445.7969 Q464.8438,445.4219 464.2344,445.2031 Q463.625,444.9844 463,444.9844 Q462.2344,444.9844 461.6016,445.3125 Q460.9688,445.6406 460.4766,446.3906 Q459.9844,447.1406 459.9844,448.1719 L459.9844,449.2656 Q459.9844,450.5 460.875,451.3203 Q461.7656,452.1406 463.3594,452.1406 Q464.2969,452.1406 464.9531,451.8906 Q465.3438,451.7344 465.7656,451.2969 Q466.0313,451.0313 466.1797,450.9531 Q466.3281,450.875 466.5313,450.875 Q466.8594,450.875 467.1172,451.1328 Q467.375,451.3906 467.375,451.7344 Q467.375,452.0781 467.0313,452.4844 Q466.5313,453.0625 465.7344,453.3906 Q464.6563,453.8438 463.3594,453.8438 Q461.8438,453.8438 460.6406,453.2188 Q459.6563,452.7188 458.9688,451.6484 Q458.2813,450.5781 458.2813,449.2969 L458.2813,448.1406 Q458.2813,446.8125 458.8984,445.6641 Q459.5156,444.5156 460.6094,443.8984 Q461.7031,443.2813 462.9375,443.2813 Q463.6719,443.2813 464.3203,443.4453 Q464.9688,443.6094 465.5156,443.9688 Z "/><text fill="#000000" font-family="sans-serif" font-size="12" font-style="italic" lengthAdjust="spacingAndGlyphs" textLength="44" x="482.75" y="445.457">«Entity»</text><text fill="#000000" font-family="sans-serif" font-size="12" lengthAdjust="spacingAndGlyphs" textLength="49" x="480.25" y="460.5508">BarChart</text><line style="stroke: #000000; stroke-width: 1.5;" x1="433" x2="547" y1="468.1875" y2="468.1875"/><text fill="#000000" font-family="sans-serif" font-size="11" lengthAdjust="spacingAndGlyphs" textLength="104" x="438" y="483.6064">CHART_TYPE : String</text><line style="stroke: #000000; stroke-width: 1.5;" x1="433" x2="547" y1="490.0234" y2="490.0234"/><!--class bioladen.data.statistic.LineChart--><rect fill="url(#g1hlh3afb37jpr0)" filter="url(#f1hlh3afb37jpr)" height="70.0234" id="bioladen.data.statistic.LineChart" style="stroke: #000000; stroke-width: 1.5;" width="116" x="583" y="428"/><ellipse cx="611.5" cy="448.0938" fill="#ADD1B2" rx="11" ry="11" style="stroke: #000000; stroke-width: 1.0;"/><path d="M614.2656,443.9688 Q614.4219,443.75 614.6094,443.6406 Q614.7969,443.5313 615.0156,443.5313 Q615.3906,443.5313 615.625,443.7891 Q615.8594,444.0469 615.8594,444.6563 L615.8594,446.1094 Q615.8594,446.7188 615.625,446.9844 Q615.3906,447.25 615.0156,447.25 Q614.6719,447.25 614.4688,447.0469 Q614.2656,446.8594 614.1563,446.3438 Q614.1094,445.9844 613.9219,445.7969 Q613.5938,445.4219 612.9844,445.2031 Q612.375,444.9844 611.75,444.9844 Q610.9844,444.9844 610.3516,445.3125 Q609.7188,445.6406 609.2266,446.3906 Q608.7344,447.1406 608.7344,448.1719 L608.7344,449.2656 Q608.7344,450.5 609.625,451.3203 Q610.5156,452.1406 612.1094,452.1406 Q613.0469,452.1406 613.7031,451.8906 Q614.0938,451.7344 614.5156,451.2969 Q614.7813,451.0313 614.9297,450.9531 Q615.0781,450.875 615.2813,450.875 Q615.6094,450.875 615.8672,451.1328 Q616.125,451.3906 616.125,451.7344 Q616.125,452.0781 615.7813,452.4844 Q615.2813,453.0625 614.4844,453.3906 Q613.4063,453.8438 612.1094,453.8438 Q610.5938,453.8438 609.3906,453.2188 Q608.4063,452.7188 607.7188,451.6484 Q607.0313,450.5781 607.0313,449.2969 L607.0313,448.1406 Q607.0313,446.8125 607.6484,445.6641 Q608.2656,444.5156 609.3594,443.8984 Q610.4531,443.2813 611.6875,443.2813 Q612.4219,443.2813 613.0703,443.4453 Q613.7188,443.6094 614.2656,443.9688 Z "/><text fill="#000000" font-family="sans-serif" font-size="12" font-style="italic" lengthAdjust="spacingAndGlyphs" textLength="44" x="633.5" y="445.457">«Entity»</text><text fill="#000000" font-family="sans-serif" font-size="12" lengthAdjust="spacingAndGlyphs" textLength="54" x="628.5" y="460.5508">LineChart</text><line style="stroke: #000000; stroke-width: 1.5;" x1="584" x2="698" y1="468.1875" y2="468.1875"/><text fill="#000000" font-family="sans-serif" font-size="11" lengthAdjust="spacingAndGlyphs" textLength="104" x="589" y="483.6064">CHART_TYPE : String</text><line style="stroke: #000000; stroke-width: 1.5;" x1="584" x2="698" y1="490.0234" y2="490.0234"/><!--class bioladen.data.statistic.PieChart--><rect fill="url(#g1hlh3afb37jpr0)" filter="url(#f1hlh3afb37jpr)" height="70.0234" id="bioladen.data.statistic.PieChart" style="stroke: #000000; stroke-width: 1.5;" width="116" x="281" y="428"/><ellipse cx="312.2" cy="448.0938" fill="#ADD1B2" rx="11" ry="11" style="stroke: #000000; stroke-width: 1.0;"/><path d="M314.9656,443.9688 Q315.1219,443.75 315.3094,443.6406 Q315.4969,443.5313 315.7156,443.5313 Q316.0906,443.5313 316.325,443.7891 Q316.5594,444.0469 316.5594,444.6563 L316.5594,446.1094 Q316.5594,446.7188 316.325,446.9844 Q316.0906,447.25 315.7156,447.25 Q315.3719,447.25 315.1688,447.0469 Q314.9656,446.8594 314.8563,446.3438 Q314.8094,445.9844 314.6219,445.7969 Q314.2938,445.4219 313.6844,445.2031 Q313.075,444.9844 312.45,444.9844 Q311.6844,444.9844 311.0516,445.3125 Q310.4188,445.6406 309.9266,446.3906 Q309.4344,447.1406 309.4344,448.1719 L309.4344,449.2656 Q309.4344,450.5 310.325,451.3203 Q311.2156,452.1406 312.8094,452.1406 Q313.7469,452.1406 314.4031,451.8906 Q314.7938,451.7344 315.2156,451.2969 Q315.4813,451.0313 315.6297,450.9531 Q315.7781,450.875 315.9813,450.875 Q316.3094,450.875 316.5672,451.1328 Q316.825,451.3906 316.825,451.7344 Q316.825,452.0781 316.4813,452.4844 Q315.9813,453.0625 315.1844,453.3906 Q314.1063,453.8438 312.8094,453.8438 Q311.2938,453.8438 310.0906,453.2188 Q309.1063,452.7188 308.4188,451.6484 Q307.7313,450.5781 307.7313,449.2969 L307.7313,448.1406 Q307.7313,446.8125 308.3484,445.6641 Q308.9656,444.5156 310.0594,443.8984 Q311.1531,443.2813 312.3875,443.2813 Q313.1219,443.2813 313.7703,443.4453 Q314.4188,443.6094 314.9656,443.9688 Z "/><text fill="#000000" font-family="sans-serif" font-size="12" font-style="italic" lengthAdjust="spacingAndGlyphs" textLength="44" x="331.8" y="445.457">«Entity»</text><text fill="#000000" font-family="sans-serif" font-size="12" lengthAdjust="spacingAndGlyphs" textLength="48" x="329.8" y="460.5508">PieChart</text><line style="stroke: #000000; stroke-width: 1.5;" x1="282" x2="396" y1="468.1875" y2="468.1875"/><text fill="#000000" font-family="sans-serif" font-size="11" lengthAdjust="spacingAndGlyphs" textLength="104" x="287" y="483.6064">CHART_TYPE : String</text><line style="stroke: #000000; stroke-width: 1.5;" x1="282" x2="396" y1="490.0234" y2="490.0234"/><!--class bioladen.data.statistic.Statistic--><rect fill="url(#g1hlh3afb37jpr0)" filter="url(#f1hlh3afb37jpr)" height="56.1875" id="bioladen.data.statistic.Statistic" style="stroke: #000000; stroke-width: 1.5;" width="83" x="667.5" y="849"/><ellipse cx="682.5" cy="869.0938" fill="#ADD1B2" rx="11" ry="11" style="stroke: #000000; stroke-width: 1.0;"/><path d="M685.2656,864.9688 Q685.4219,864.75 685.6094,864.6406 Q685.7969,864.5313 686.0156,864.5313 Q686.3906,864.5313 686.625,864.7891 Q686.8594,865.0469 686.8594,865.6563 L686.8594,867.1094 Q686.8594,867.7188 686.625,867.9844 Q686.3906,868.25 686.0156,868.25 Q685.6719,868.25 685.4688,868.0469 Q685.2656,867.8594 685.1563,867.3438 Q685.1094,866.9844 684.9219,866.7969 Q684.5938,866.4219 683.9844,866.2031 Q683.375,865.9844 682.75,865.9844 Q681.9844,865.9844 681.3516,866.3125 Q680.7188,866.6406 680.2266,867.3906 Q679.7344,868.1406 679.7344,869.1719 L679.7344,870.2656 Q679.7344,871.5 680.625,872.3203 Q681.5156,873.1406 683.1094,873.1406 Q684.0469,873.1406 684.7031,872.8906 Q685.0938,872.7344 685.5156,872.2969 Q685.7813,872.0313 685.9297,871.9531 Q686.0781,871.875 686.2813,871.875 Q686.6094,871.875 686.8672,872.1328 Q687.125,872.3906 687.125,872.7344 Q687.125,873.0781 686.7813,873.4844 Q686.2813,874.0625 685.4844,874.3906 Q684.4063,874.8438 683.1094,874.8438 Q681.5938,874.8438 680.3906,874.2188 Q679.4063,873.7188 678.7188,872.6484 Q678.0313,871.5781 678.0313,870.2969 L678.0313,869.1406 Q678.0313,867.8125 678.6484,866.6641 Q679.2656,865.5156 680.3594,864.8984 Q681.4531,864.2813 682.6875,864.2813 Q683.4219,864.2813 684.0703,864.4453 Q684.7188,864.6094 685.2656,864.9688 Z "/><text fill="#000000" font-family="sans-serif" font-size="12" font-style="italic" lengthAdjust="spacingAndGlyphs" textLength="55" x="694.5" y="866.457">«Service»</text><text fill="#000000" font-family="sans-serif" font-size="12" lengthAdjust="spacingAndGlyphs" textLength="43" x="700.5" y="881.5508">Statistic</text><line style="stroke: #000000; stroke-width: 1.5;" x1="668.5" x2="749.5" y1="889.1875" y2="889.1875"/><line style="stroke: #000000; stroke-width: 1.5;" x1="668.5" x2="749.5" y1="897.1875" y2="897.1875"/><!--entity statistic.html--><polygon fill="url(#g1hlh3afb37jpr2)" filter="url(#f1hlh3afb37jpr)" points="111.5,849.5,111.5,904.7188,208.5,904.7188,208.5,859.5,198.5,849.5,111.5,849.5" style="stroke: #000000; stroke-width: 1.5;"/><path d="M198.5,849.5 L198.5,859.5 L208.5,859.5 " fill="url(#g1hlh3afb37jpr2)" style="stroke: #000000; stroke-width: 1.5;"/><text fill="#000000" font-family="sans-serif" font-size="14" font-style="italic" lengthAdjust="spacingAndGlyphs" textLength="45" x="137.5" y="874.0332">«View»</text><text fill="#000000" font-family="sans-serif" font-size="14" lengthAdjust="spacingAndGlyphs" textLength="77" x="121.5" y="891.6426">statistic.html</text><!--class org.salespointframework.time.BusinessTime--><rect fill="url(#g1hlh3afb37jpr0)" filter="url(#f1hlh3afb37jpr)" height="56.1875" id="org.salespointframework.time.BusinessTime" style="stroke: #000000; stroke-width: 1.5;" width="110" x="2009" y="849"/><ellipse cx="2024" cy="869.0938" fill="#B4A7E5" rx="11" ry="11" style="stroke: #000000; stroke-width: 1.0;"/><path d="M2024.9531,865.7344 L2024.9531,872.3906 L2026.6719,872.3906 Q2027.2813,872.3906 2027.5469,872.625 Q2027.8125,872.8594 2027.8125,873.25 Q2027.8125,873.625 2027.5469,873.8594 Q2027.2813,874.0938 2026.6719,874.0938 L2021.5313,874.0938 Q2020.9219,874.0938 2020.6563,873.8594 Q2020.3906,873.625 2020.3906,873.2344 Q2020.3906,872.8594 2020.6563,872.625 Q2020.9219,872.3906 2021.5313,872.3906 L2023.25,872.3906 L2023.25,865.7344 L2021.5313,865.7344 Q2020.9219,865.7344 2020.6563,865.5 Q2020.3906,865.2656 2020.3906,864.875 Q2020.3906,864.5 2020.6563,864.2656 Q2020.9219,864.0313 2021.5313,864.0313 L2026.6719,864.0313 Q2027.2813,864.0313 2027.5469,864.2656 Q2027.8125,864.5 2027.8125,864.875 Q2027.8125,865.2656 2027.5469,865.5 Q2027.2813,865.7344 2026.6719,865.7344 L2024.9531,865.7344 Z "/><text fill="#000000" font-family="sans-serif" font-size="12" font-style="italic" lengthAdjust="spacingAndGlyphs" textLength="55" x="2049.5" y="866.457">«Service»</text><text fill="#000000" font-family="sans-serif" font-size="12" font-style="italic" lengthAdjust="spacingAndGlyphs" textLength="78" x="2038" y="881.5508">BusinessTime</text><line style="stroke: #000000; stroke-width: 1.5;" x1="2010" x2="2118" y1="889.1875" y2="889.1875"/><line style="stroke: #000000; stroke-width: 1.5;" x1="2010" x2="2118" y1="897.1875" y2="897.1875"/><!--class org.springframework.context.ApplicationEvent--><rect fill="url(#g1hlh3afb37jpr0)" filter="url(#f1hlh3afb37jpr)" height="111.5313" id="org.springframework.context.ApplicationEvent" style="stroke: #000000; stroke-width: 1.5;" width="137" x="1641.5" y="1042"/><ellipse cx="1663.25" cy="1062.0938" fill="#ADD1B2" rx="11" ry="11" style="stroke: #000000; stroke-width: 1.0;"/><path d="M1666.0156,1057.9688 Q1666.1719,1057.75 1666.3594,1057.6406 Q1666.5469,1057.5313 1666.7656,1057.5313 Q1667.1406,1057.5313 1667.375,1057.7891 Q1667.6094,1058.0469 1667.6094,1058.6563 L1667.6094,1060.1094 Q1667.6094,1060.7188 1667.375,1060.9844 Q1667.1406,1061.25 1666.7656,1061.25 Q1666.4219,1061.25 1666.2188,1061.0469 Q1666.0156,1060.8594 1665.9063,1060.3438 Q1665.8594,1059.9844 1665.6719,1059.7969 Q1665.3438,1059.4219 1664.7344,1059.2031 Q1664.125,1058.9844 1663.5,1058.9844 Q1662.7344,1058.9844 1662.1016,1059.3125 Q1661.4688,1059.6406 1660.9766,1060.3906 Q1660.4844,1061.1406 1660.4844,1062.1719 L1660.4844,1063.2656 Q1660.4844,1064.5 1661.375,1065.3203 Q1662.2656,1066.1406 1663.8594,1066.1406 Q1664.7969,1066.1406 1665.4531,1065.8906 Q1665.8438,1065.7344 1666.2656,1065.2969 Q1666.5313,1065.0313 1666.6797,1064.9531 Q1666.8281,1064.875 1667.0313,1064.875 Q1667.3594,1064.875 1667.6172,1065.1328 Q1667.875,1065.3906 1667.875,1065.7344 Q1667.875,1066.0781 1667.5313,1066.4844 Q1667.0313,1067.0625 1666.2344,1067.3906 Q1665.1563,1067.8438 1663.8594,1067.8438 Q1662.3438,1067.8438 1661.1406,1067.2188 Q1660.1563,1066.7188 1659.4688,1065.6484 Q1658.7813,1064.5781 1658.7813,1063.2969 L1658.7813,1062.1406 Q1658.7813,1060.8125 1659.3984,1059.6641 Q1660.0156,1058.5156 1661.1094,1057.8984 Q1662.2031,1057.2813 1663.4375,1057.2813 Q1664.1719,1057.2813 1664.8203,1057.4453 Q1665.4688,1057.6094 1666.0156,1057.9688 Z "/><text fill="#000000" font-family="sans-serif" font-size="12" font-style="italic" lengthAdjust="spacingAndGlyphs" textLength="44" x="1701.75" y="1059.457">«Entity»</text><text fill="#000000" font-family="sans-serif" font-size="12" lengthAdjust="spacingAndGlyphs" textLength="90" x="1678.75" y="1074.5508">ApplicationEvent</text><line style="stroke: #000000; stroke-width: 1.5;" x1="1642.5" x2="1777.5" y1="1082.1875" y2="1082.1875"/><text fill="#000000" font-family="sans-serif" font-size="11" lengthAdjust="spacingAndGlyphs" text-decoration="underline" textLength="113" x="1647.5" y="1097.6064">-serialVersionUID : long</text><line style="stroke: #000000; stroke-width: 1.0;" x1="1647.5" x2="1760.5" y1="1099.6064" y2="1099.6064"/><text fill="#000000" font-family="sans-serif" font-size="11" lengthAdjust="spacingAndGlyphs" textLength="81" x="1647.5" y="1111.4424">-timestamp : long</text><line style="stroke: #000000; stroke-width: 1.5;" x1="1642.5" x2="1777.5" y1="1117.8594" y2="1117.8594"/><text fill="#000000" font-family="sans-serif" font-size="11" lengthAdjust="spacingAndGlyphs" textLength="125" x="1647.5" y="1133.2783">+ApplicationEvent(Object)</text><text fill="#000000" font-family="sans-serif" font-size="11" lengthAdjust="spacingAndGlyphs" textLength="109" x="1647.5" y="1147.1143">+getTimestamp() : long</text><!--class org.springframework.context.ApplicationEventPublisher--><rect fill="url(#g1hlh3afb37jpr0)" filter="url(#f1hlh3afb37jpr)" height="83.8594" id="org.springframework.context.ApplicationEventPublisher" style="stroke: #000000; stroke-width: 1.5;" width="190" x="1615" y="835"/><ellipse cx="1635.85" cy="855.0938" fill="#B4A7E5" rx="11" ry="11" style="stroke: #000000; stroke-width: 1.0;"/><path d="M1636.8031,851.7344 L1636.8031,858.3906 L1638.5219,858.3906 Q1639.1313,858.3906 1639.3969,858.625 Q1639.6625,858.8594 1639.6625,859.25 Q1639.6625,859.625 1639.3969,859.8594 Q1639.1313,860.0938 1638.5219,860.0938 L1633.3813,860.0938 Q1632.7719,860.0938 1632.5063,859.8594 Q1632.2406,859.625 1632.2406,859.2344 Q1632.2406,858.8594 1632.5063,858.625 Q1632.7719,858.3906 1633.3813,858.3906 L1635.1,858.3906 L1635.1,851.7344 L1633.3813,851.7344 Q1632.7719,851.7344 1632.5063,851.5 Q1632.2406,851.2656 1632.2406,850.875 Q1632.2406,850.5 1632.5063,850.2656 Q1632.7719,850.0313 1633.3813,850.0313 L1638.5219,850.0313 Q1639.1313,850.0313 1639.3969,850.2656 Q1639.6625,850.5 1639.6625,850.875 Q1639.6625,851.2656 1639.3969,851.5 Q1639.1313,851.7344 1638.5219,851.7344 L1636.8031,851.7344 Z "/><text fill="#000000" font-family="sans-serif" font-size="12" font-style="italic" lengthAdjust="spacingAndGlyphs" textLength="55" x="1696.15" y="852.457">«Service»</text><text fill="#000000" font-family="sans-serif" font-size="12" font-style="italic" lengthAdjust="spacingAndGlyphs" textLength="145" x="1651.15" y="867.5508">ApplicationEventPublisher</text><line style="stroke: #000000; stroke-width: 1.5;" x1="1616" x2="1804" y1="875.1875" y2="875.1875"/><line style="stroke: #000000; stroke-width: 1.5;" x1="1616" x2="1804" y1="883.1875" y2="883.1875"/><text fill="#000000" font-family="sans-serif" font-size="11" lengthAdjust="spacingAndGlyphs" textLength="178" x="1621" y="898.6064">publishEvent(ApplicationEvent) : void</text><text fill="#000000" font-family="sans-serif" font-size="11" lengthAdjust="spacingAndGlyphs" textLength="129" x="1621" y="912.4424">publishEvent(Object) : void</text><!--class org.springframework.context.ApplicationListener--><rect fill="url(#g1hlh3afb37jpr0)" filter="url(#f1hlh3afb37jpr)" height="70.0234" id="org.springframework.context.ApplicationListener" style="stroke: #000000; stroke-width: 1.5;" width="290" x="1615" y="1322"/><ellipse cx="1630" cy="1342.0938" fill="#B4A7E5" rx="11" ry="11" style="stroke: #000000; stroke-width: 1.0;"/><path d="M1630.9531,1338.7344 L1630.9531,1345.3906 L1632.6719,1345.3906 Q1633.2813,1345.3906 1633.5469,1345.625 Q1633.8125,1345.8594 1633.8125,1346.25 Q1633.8125,1346.625 1633.5469,1346.8594 Q1633.2813,1347.0938 1632.6719,1347.0938 L1627.5313,1347.0938 Q1626.9219,1347.0938 1626.6563,1346.8594 Q1626.3906,1346.625 1626.3906,1346.2344 Q1626.3906,1345.8594 1626.6563,1345.625 Q1626.9219,1345.3906 1627.5313,1345.3906 L1629.25,1345.3906 L1629.25,1338.7344 L1627.5313,1338.7344 Q1626.9219,1338.7344 1626.6563,1338.5 Q1626.3906,1338.2656 1626.3906,1337.875 Q1626.3906,1337.5 1626.6563,1337.2656 Q1626.9219,1337.0313 1627.5313,1337.0313 L1632.6719,1337.0313 Q1633.2813,1337.0313 1633.5469,1337.2656 Q1633.8125,1337.5 1633.8125,1337.875 Q1633.8125,1338.2656 1633.5469,1338.5 Q1633.2813,1338.7344 1632.6719,1338.7344 L1630.9531,1338.7344 Z "/><text fill="#000000" font-family="sans-serif" font-size="12" font-style="italic" lengthAdjust="spacingAndGlyphs" textLength="55" x="1669" y="1339.457">«Service»</text><text fill="#000000" font-family="sans-serif" font-size="12" font-style="italic" lengthAdjust="spacingAndGlyphs" textLength="105" x="1644" y="1354.5508">ApplicationListener</text><rect fill="#FFFFFF" height="17.0938" style="stroke: #000000; stroke-width: 1.0; stroke-dasharray: 2.0,2.0;" width="151" x="1757" y="1319"/><text fill="#000000" font-family="sans-serif" font-size="12" font-style="italic" lengthAdjust="spacingAndGlyphs" textLength="149" x="1758" y="1332.457">E extends ApplicationEvent</text><line style="stroke: #000000; stroke-width: 1.5;" x1="1616" x2="1904" y1="1362.1875" y2="1362.1875"/><line style="stroke: #000000; stroke-width: 1.5;" x1="1616" x2="1904" y1="1370.1875" y2="1370.1875"/><text fill="#000000" font-family="sans-serif" font-size="11" lengthAdjust="spacingAndGlyphs" textLength="135" x="1621" y="1385.6064">onApplicationEvent(E) : void</text><!--link java.lang.Iterable to bioladen.data.log.LogFilter--><path d="M1595.25,463 C1595.25,463 911,463 911,463 C911,463 911,546.836 911,602.836 " fill="none" id="java.lang.Iterable-bioladen.data.log.LogFilter" style="stroke: #000000; stroke-width: 1.0;"/><polygon fill="none" points="1595.25,456,1615.25,463,1595.25,470,1595.25,456" style="stroke: #000000; stroke-width: 1.0;"/><!--link bioladen.data.log.LogEntry to bioladen.data.log.LogLevel--><path d="M1214,933.053 C1214,933.053 1214,1041.177 1214,1041.177 " fill="none" id="bioladen.data.log.LogEntry-bioladen.data.log.LogLevel" style="stroke: #000000; stroke-width: 1.0;"/><polygon fill="#000000" points="1214,1046.177,1218,1037.177,1214,1041.177,1210,1037.177,1214,1046.177" style="stroke: #000000; stroke-width: 1.0;"/><text fill="#000000" font-family="sans-serif" font-size="13" lengthAdjust="spacingAndGlyphs" textLength="7" x="1206.5953" y="954.0017">1</text><text fill="#000000" font-family="sans-serif" font-size="13" lengthAdjust="spacingAndGlyphs" textLength="7" x="1206.5297" y="1035.6339">1</text><!--link bioladen.data.log.LogEntry to bioladen.data.log.Logger--><path d="M1148.44,930 C1087.15,930 1005,930 1005,930 C1005,930 1005,980.993 1005,980.993 " fill="none" id="bioladen.data.log.LogEntry-bioladen.data.log.Logger" style="stroke: #000000; stroke-width: 1.0;"/><polygon fill="#000000" points="1005,993.993,1009,987.993,1005,981.993,1001,987.993,1005,993.993" style="stroke: #000000; stroke-width: 1.0;"/><text fill="#000000" font-family="sans-serif" font-size="13" lengthAdjust="spacingAndGlyphs" textLength="20" x="1120.6479" y="932.178">0..*</text><text fill="#000000" font-family="sans-serif" font-size="13" lengthAdjust="spacingAndGlyphs" textLength="7" x="1004.6461" y="983.2615">1</text><!--link bioladen.data.log.LogFilter to bioladen.data.log.LogExplorer--><path d="M911,706.099 C911,706.099 911,827.617 911,827.617 " fill="none" id="bioladen.data.log.LogFilter-bioladen.data.log.LogExplorer" style="stroke: #000000; stroke-width: 1.0;"/><polygon fill="#000000" points="911,701.099,907,710.099,911,706.099,915,710.099,911,701.099" style="stroke: #000000; stroke-width: 1.0;"/><!--link bioladen.data.log.LogExplorer to bioladen.data.log.Logger--><path d="M911,946.047 C911,946.047 911,993.88 911,993.88 " fill="none" id="bioladen.data.log.LogExplorer-bioladen.data.log.Logger" style="stroke: #000000; stroke-width: 1.0;"/><polygon fill="none" points="904,946.047,911,926.047,918,946.047,904,946.047" style="stroke: #000000; stroke-width: 1.0;"/><!--link bioladen.data.statistic.Chart to bioladen.data.statistic.BarChart--><path d="M490,332.09 C490,332.09 490,427.76 490,427.76 " fill="none" id="bioladen.data.statistic.Chart-bioladen.data.statistic.BarChart" style="stroke: #000000; stroke-width: 1.0;"/><polygon fill="none" points="483,332.09,490,312.09,497,332.09,483,332.09" style="stroke: #000000; stroke-width: 1.0;"/><!--link bioladen.data.statistic.Chart to bioladen.data.statistic.LineChart--><path d="M641,332.09 C641,332.09 641,427.76 641,427.76 " fill="none" id="bioladen.data.statistic.Chart-bioladen.data.statistic.LineChart" style="stroke: #000000; stroke-width: 1.0;"/><polygon fill="none" points="634,332.09,641,312.09,648,332.09,634,332.09" style="stroke: #000000; stroke-width: 1.0;"/><!--link bioladen.data.statistic.Chart to bioladen.data.statistic.PieChart--><path d="M339,332.09 C339,332.09 339,427.76 339,427.76 " fill="none" id="bioladen.data.statistic.Chart-bioladen.data.statistic.PieChart" style="stroke: #000000; stroke-width: 1.0;"/><polygon fill="none" points="332,332.09,339,312.09,346,332.09,332,332.09" style="stroke: #000000; stroke-width: 1.0;"/><!--link bioladen.data.statistic.PieChart to bioladen.data.statistic.StatisticController--><path d="M355.75,503.107 C355.75,503.107 355.75,616.761 355.75,616.761 " fill="none" id="bioladen.data.statistic.PieChart-bioladen.data.statistic.StatisticController" style="stroke: #000000; stroke-width: 1.0;"/><polygon fill="#000000" points="355.75,498.107,351.75,507.107,355.75,503.107,359.75,507.107,355.75,498.107" style="stroke: #000000; stroke-width: 1.0;"/><text fill="#000000" font-family="sans-serif" font-size="13" lengthAdjust="spacingAndGlyphs" textLength="20" x="336.9945" y="519.5802">0..*</text><text fill="#000000" font-family="sans-serif" font-size="13" lengthAdjust="spacingAndGlyphs" textLength="7" x="343.6508" y="606.045">1</text><!--link bioladen.data.statistic.LineChart to bioladen.data.statistic.StatisticController--><path d="M625.25,503.167 C625.25,503.167 625.25,641 625.25,641 C625.25,641 516.659,641 443.699,641 " fill="none" id="bioladen.data.statistic.LineChart-bioladen.data.statistic.StatisticController" style="stroke: #000000; stroke-width: 1.0;"/><polygon fill="#000000" points="625.25,498.167,621.25,507.167,625.25,503.167,629.25,507.167,625.25,498.167" style="stroke: #000000; stroke-width: 1.0;"/><text fill="#000000" font-family="sans-serif" font-size="13" lengthAdjust="spacingAndGlyphs" textLength="20" x="600.5023" y="519.6513">0..*</text><text fill="#000000" font-family="sans-serif" font-size="13" lengthAdjust="spacingAndGlyphs" textLength="7" x="451.5845" y="636.3172">1</text><!--link bioladen.data.statistic.BarChart to bioladen.data.statistic.StatisticController--><path d="M437.75,503.107 C437.75,503.107 437.75,616.761 437.75,616.761 " fill="none" id="bioladen.data.statistic.BarChart-bioladen.data.statistic.StatisticController" style="stroke: #000000; stroke-width: 1.0;"/><polygon fill="#000000" points="437.75,498.107,433.75,507.107,437.75,503.107,441.75,507.107,437.75,498.107" style="stroke: #000000; stroke-width: 1.0;"/><text fill="#000000" font-family="sans-serif" font-size="13" lengthAdjust="spacingAndGlyphs" textLength="20" x="406.2727" y="519.5802">0..*</text><text fill="#000000" font-family="sans-serif" font-size="13" lengthAdjust="spacingAndGlyphs" textLength="7" x="441.282" y="606.045">1</text><!--link bioladen.data.statistic.StatisticController to bioladen.data.statistic.Statistic--><path d="M443.524,664 C532.833,664 683.25,664 683.25,664 C683.25,664 683.25,843.715 683.25,843.715 " fill="none" id="bioladen.data.statistic.StatisticController-bioladen.data.statistic.Statistic" style="stroke: #000000; stroke-width: 1.0;"/><polygon fill="#000000" points="683.25,848.715,687.25,839.715,683.25,843.715,679.25,839.715,683.25,848.715" style="stroke: #000000; stroke-width: 1.0;"/><text fill="#000000" font-family="sans-serif" font-size="13" lengthAdjust="spacingAndGlyphs" textLength="7" x="451.3893" y="661.9766">1</text><text fill="#000000" font-family="sans-serif" font-size="13" lengthAdjust="spacingAndGlyphs" textLength="7" x="669.8516" y="838.2907">1</text><!--link bioladen.data.statistic.Statistic to bioladen.data.log.Logger--><path d="M750.756,877 C781.147,877 817,877 817,877 C817,877 817,980.971 817,980.971 " fill="none" id="bioladen.data.statistic.Statistic-bioladen.data.log.Logger" style="stroke: #000000; stroke-width: 1.0;"/><polygon fill="#000000" points="817,993.971,821,987.971,817,981.971,813,987.971,817,993.971" style="stroke: #000000; stroke-width: 1.0;"/><text fill="#000000" font-family="sans-serif" font-size="13" lengthAdjust="spacingAndGlyphs" textLength="7" x="758.5344" y="873.1342">1</text><text fill="#000000" font-family="sans-serif" font-size="13" lengthAdjust="spacingAndGlyphs" textLength="7" x="802.8398" y="983.2378">1</text><!--link bioladen.data.statistic.StatisticController to bioladen.data.log.Logger--><path d="M379,687.37 C379,792.858 379,1098 379,1098 C379,1098 806.87,1098 806.87,1098 " fill="none" id="bioladen.data.statistic.StatisticController-bioladen.data.log.Logger" style="stroke: #000000; stroke-width: 1.0;"/><polygon fill="#000000" points="811.87,1098,802.87,1094,806.87,1098,802.87,1102,811.87,1098" style="stroke: #000000; stroke-width: 1.0;"/><!--link bioladen.data.statistic.StatisticController to statistic.html--><path d="M314.477,652 C249.878,652 160,652 160,652 C160,652 160,844.411 160,844.411 " fill="none" id="bioladen.data.statistic.StatisticController-statistic.html" style="stroke: #000000; stroke-width: 1.0;"/><polygon fill="#000000" points="160,849.411,164,840.411,160,844.411,156,840.411,160,849.411" style="stroke: #000000; stroke-width: 1.0;"/><!--link bioladen.data.log.LogEntry to org.salespointframework.time.BusinessTime--><path d="M1279.64,926 C1479.01,926 2064,926 2064,926 C2064,926 2064,910.22 2064,910.22 " fill="none" id="bioladen.data.log.LogEntry-org.salespointframework.time.BusinessTime" style="stroke: #000000; stroke-width: 1.0;"/><polygon fill="#000000" points="2064,905.22,2060,914.22,2064,910.22,2068,914.22,2064,905.22" style="stroke: #000000; stroke-width: 1.0;"/><!--link org.springframework.context.ApplicationEvent to org.springframework.context.ApplicationListener--><path d="M1710,1159.199 C1710,1159.199 1710,1321.98 1710,1321.98 " fill="none" id="org.springframework.context.ApplicationEvent-org.springframework.context.ApplicationListener" style="stroke: #000000; stroke-width: 1.0;"/><polygon fill="#000000" points="1710,1154.199,1706,1163.199,1710,1159.199,1714,1163.199,1710,1154.199" style="stroke: #000000; stroke-width: 1.0;"/><text fill="#000000" font-family="sans-serif" font-size="13" lengthAdjust="spacingAndGlyphs" textLength="45" x="1749.5" y="1272.4951">«binds»</text><text fill="#000000" font-family="sans-serif" font-size="13" lengthAdjust="spacingAndGlyphs" textLength="96" x="1726" y="1288.8467">ApplicationEvent</text><text fill="#000000" font-family="sans-serif" font-size="13" lengthAdjust="spacingAndGlyphs" textLength="5" x="1704.7109" y="1175.1646">*</text><text fill="#000000" font-family="sans-serif" font-size="13" lengthAdjust="spacingAndGlyphs" textLength="7" x="1692.4672" y="1311.0379">1</text><!--link org.springframework.context.ApplicationEventPublisher to org.springframework.context.ApplicationEvent--><path d="M1710,919.089 C1710,919.089 1710,1036.864 1710,1036.864 " fill="none" id="org.springframework.context.ApplicationEventPublisher-org.springframework.context.ApplicationEvent" style="stroke: #000000; stroke-width: 1.0;"/><polygon fill="#000000" points="1710,1041.864,1714,1032.864,1710,1036.864,1706,1032.864,1710,1041.864" style="stroke: #000000; stroke-width: 1.0;"/><text fill="#000000" font-family="sans-serif" font-size="13" lengthAdjust="spacingAndGlyphs" textLength="7" x="1702.4641" y="940.2917">1</text><text fill="#000000" font-family="sans-serif" font-size="13" lengthAdjust="spacingAndGlyphs" textLength="5" x="1704.6797" y="1031.1942">*</text><!--link bioladen.data.log.LogEvent to org.springframework.context.ApplicationEvent--><path d="M1425.83,912.018 C1425.83,974.334 1425.83,1098 1425.83,1098 C1425.83,1098 1621.21,1098 1621.21,1098 " fill="none" id="bioladen.data.log.LogEvent-org.springframework.context.ApplicationEvent" style="stroke: #000000; stroke-width: 1.0;"/><polygon fill="none" points="1621.21,1091,1641.21,1098,1621.21,1105,1621.21,1091" style="stroke: #000000; stroke-width: 1.0;"/><!--link bioladen.data.log.LogEventListener to org.springframework.context.ApplicationListener--><path d="M1115.67,687.444 C1115.67,830.406 1115.67,1357 1115.67,1357 C1115.67,1357 1595,1357 1595,1357 " fill="none" id="bioladen.data.log.LogEventListener-org.springframework.context.ApplicationListener" style="stroke: #000000; stroke-width: 1.0;"/><polygon fill="none" points="1595,1349.9999,1615,1357,1595,1363.9999,1595,1349.9999" style="stroke: #000000; stroke-width: 1.0;"/><!--link bioladen.data.log.LogEvent to bioladen.data.log.Logger--><path d="M1398.17,917.217 C1398.17,917.217 1398.17,1018 1398.17,1018 C1398.17,1018 1152.61,1018 1010.17,1018 " fill="none" id="bioladen.data.log.LogEvent-bioladen.data.log.Logger" style="stroke: #000000; stroke-width: 1.0;"/><polygon fill="#000000" points="1398.17,912.217,1394.17,921.217,1398.17,917.217,1402.17,921.217,1398.17,912.217" style="stroke: #000000; stroke-width: 1.0;"/><text fill="#000000" font-family="sans-serif" font-size="13" lengthAdjust="spacingAndGlyphs" textLength="20" x="1373.9253" y="933.4394">0..*</text><text fill="#000000" font-family="sans-serif" font-size="13" lengthAdjust="spacingAndGlyphs" textLength="7" x="1018.0307" y="1008.7564">1</text><!--link bioladen.data.log.LogEventListener to bioladen.data.statistic.Statistic--><path d="M1082.83,692.057 C1082.83,692.057 1082.83,705 1082.83,705 C1082.83,705 724.75,705 724.75,705 C724.75,705 724.75,800.244 724.75,848.982 " fill="none" id="bioladen.data.log.LogEventListener-bioladen.data.statistic.Statistic" style="stroke: #000000; stroke-width: 1.0;"/><polygon fill="#000000" points="1082.83,687.057,1078.83,696.057,1082.83,692.057,1086.83,696.057,1082.83,687.057" style="stroke: #000000; stroke-width: 1.0;"/><text fill="#000000" font-family="sans-serif" font-size="13" lengthAdjust="spacingAndGlyphs" textLength="20" x="1049.3393" y="708.521">0..*</text><text fill="#000000" font-family="sans-serif" font-size="13" lengthAdjust="spacingAndGlyphs" textLength="7" x="720.5828" y="838.1669">1</text><rect fill="#DDDDDD" height="84.4375" rx="5" ry="5" style="stroke: #000000; stroke-width: 1.0;" width="194" x="1051" y="1466"/><text fill="#000000" font-family="sans-serif" font-size="14" font-weight="bold" lengthAdjust="spacingAndGlyphs" textLength="85" x="1061" y="1487.5332">Background</text><text fill="#000000" font-family="sans-serif" font-size="14" font-weight="bold" lengthAdjust="spacingAndGlyphs" textLength="81" x="1154" y="1487.5332">Component</text><rect fill="#FE8052" height="17.6094" style="stroke: none; stroke-width: 1.0;" width="93" x="1057" y="1490.6094"/><text fill="#000000" font-family="sans-serif" font-size="14" lengthAdjust="spacingAndGlyphs" textLength="0" x="1077" y="1505.1426"/><text fill="#000000" font-family="sans-serif" font-size="14" lengthAdjust="spacingAndGlyphs" textLength="38" x="1154" y="1505.1426">Model</text><rect fill="#3DD13F" height="17.6094" style="stroke: none; stroke-width: 1.0;" width="93" x="1057" y="1508.2188"/><text fill="#000000" font-family="sans-serif" font-size="14" lengthAdjust="spacingAndGlyphs" textLength="0" x="1077" y="1522.752"/><text fill="#000000" font-family="sans-serif" font-size="14" lengthAdjust="spacingAndGlyphs" textLength="29" x="1154" y="1522.752">View</text><rect fill="#5F9AEA" height="17.6094" style="stroke: none; stroke-width: 1.0;" width="93" x="1057" y="1525.8281"/><text fill="#000000" font-family="sans-serif" font-size="14" lengthAdjust="spacingAndGlyphs" textLength="0" x="1077" y="1540.3613"/><text fill="#000000" font-family="sans-serif" font-size="14" lengthAdjust="spacingAndGlyphs" textLength="62" x="1154" y="1540.3613">Controller</text><line style="stroke: #000000; stroke-width: 1.0;" x1="1057" x2="1239" y1="1473" y2="1473"/><line style="stroke: #000000; stroke-width: 1.0;" x1="1057" x2="1239" y1="1490.6094" y2="1490.6094"/><line style="stroke: #000000; stroke-width: 1.0;" x1="1057" x2="1239" y1="1508.2188" y2="1508.2188"/><line style="stroke: #000000; stroke-width: 1.0;" x1="1057" x2="1239" y1="1525.8281" y2="1525.8281"/><line style="stroke: #000000; stroke-width: 1.0;" x1="1057" x2="1239" y1="1543.4375" y2="1543.4375"/><line style="stroke: #000000; stroke-width: 1.0;" x1="1057" x2="1057" y1="1473" y2="1543.4375"/><line style="stroke: #000000; stroke-width: 1.0;" x1="1150" x2="1150" y1="1473" y2="1543.4375"/><line style="stroke: #000000; stroke-width: 1.0;" x1="1239" x2="1239" y1="1473" y2="1543.4375"/><!--
@startuml




skinparam class {
	BackgroundColor #Silver/white
	BackgroundColor<<Repository>> #Coral/Lightsalmon
	BackgroundColor<<Controller>> #Cornflowerblue/Cyan
    BorderColor Black
    ArrowColor  Black
}

skinparam package {
    FontColor Grey
    BorderColor Darkgrey
}

skinparam classAttributeIconSize 0
skinparam linetype ortho

legend
| Background | Component |
|<#fe8052>     | Model |
|<#3dd13f>     | View |
|<#5f9aea>     | Controller |
endlegend


rectangle JavaSE-1.8{
    namespace java.lang {

    }
}


rectangle Bioladen {
    namespace bioladen.data.log {

        class Logger <<Service>> {
            -log(LogLevel, Order) : boolean
            -log(LogLevel, Sale) : boolean
            -log(LogLevel, Cancellation) : boolean
            -log(LogLevel, LogInventory) : boolean
            -log(LogLevel, User) : boolean
            +info(Object, String) : boolean
            +warning(Object, String) : boolean
            +error(Object, String) : boolean
            +getLog() : Iterable<LogEntry>
            +getLog()
            -publishLogEvent()
        }

        class LogEntry <<Entity>> {
            -logLevel : LogLevel
            -thrownBy : String
            -logTime : LocalDateTime
            -content : Object
        }

        class EntityCreatedEventListener <<Service>> {
            -listenOrderEvent(EntityCreatedEvent) : void
            -listenSaleEvent(EntityCreatedEvent) : void
            -listenUserEvent(EntityCreatedEvent) : void
            -listenProductEvent(EntityCreatedEvent) : void
        }

        enum LogLevel {
            INFO
            WARNING
            ERROR
            ENTITY
        }


        class LogExplorer <<Entity>> {
            +filterBy(Duration) : LogExplorer
            +filterBy(LogLevel) : LogExplorer
            +filterBy(ThrownBy) : LogExplorer
        }

        class LogFilter <<static>> extends java.lang.Iterable  {
            +filterBy(LogFilter, Duration) : LogFilter
            +filterBy(LogFilter, LogLevel) : LogFilter
            +filterBy(LogFilter, ThrownBy) : LogFilter
        }



        class LogEvent <<Entity>> {
            +LogEvent()

        }

        class LogEventListener <<Service>> {
            +onApplicationEvent(LogEvent) : void
        }







        LogEntry "1" - -> "1" LogLevel
        LogEntry "0..*" - -* "1" Logger
        LogFilter <- - LogExplorer
        LogExplorer <|- - Logger

    }

    namespace bioladen.data.statistic {
        class StatisticController <<Controller>> {
            +statistics() : String
        }

        abstract class Chart <<static, final>>{
            {abstract} CHART_TYPE : String
            TEMPLATE : String
            TEMPLATE_DATASET : String
            generateChart(title : String, labels : List<T>, data : List<T>) : String
            generateChart(title : String, dataset : Map<T,S>) : String
            generateChart(title : String, labels : List<List<T>>, data : List<List<T>>) : String
            generateChart(title : String, datasets : List<Map<T,S>>) : String
            generateChart(title : String, labels : List<T>, data : List<T>, color : Color) : String
            generateChart(title : String, dataset : Map<T,S>, color : Color) : String
            generateChart(title : String, labels : List<List<T>>, data : List<List<T>>, colors : List<Color>) : String
            generateChart(title : String, datasets : List<Map<T,S>>, colors : List<Color>) : String
        }

        class BarChart <<Entity>> extends bioladen.data.statistic.Chart {
            CHART_TYPE : String
        }

        class LineChart <<Entity>> extends bioladen.data.statistic.Chart {
            CHART_TYPE : String
        }

        class PieChart <<Entity>> extends bioladen.data.statistic.Chart  {
            CHART_TYPE : String
        }

        class Statistic <<Service>>{

        }

        PieChart "0..*" <- - "1" StatisticController
        LineChart "0..*" <- - "1" StatisticController
        BarChart "0..*" <- - "1" StatisticController
        StatisticController "1" - -> "1" Statistic
        Statistic "1" - -* "1" bioladen.data.log.Logger
        StatisticController - -> bioladen.data.log.Logger


    }


    namespace ressources.templates {

        file statistic.html <<View>> #limegreen/technology {

        }

        bioladen.data.statistic.StatisticController - -> statistic.html
    }



}

rectangle salespoint-framework-7.0.0.RELEASE.jar {
    namespace org.salespointframework.time {

        interface BusinessTime <<Service>> {

        }

        BusinessTime <-right- bioladen.data.log.LogEntry
    }
}


rectangle spring-data-comments-2.1.0.RELEASE.jar as spring {
    namespace org.springframework.context{

        class ApplicationEvent <<Entity>>{
            {static} - serialVersionUID : long
            - timestamp : long
            + ApplicationEvent(Object)
            + getTimestamp() : long
        }

        interface ApplicationEventPublisher <<Service>>{
            publishEvent(ApplicationEvent) : void
            publishEvent(Object) : void
        }

        interface ApplicationListener <E extends ApplicationEvent> <<Service>>{
            onApplicationEvent(E) : void
        }

        ApplicationEvent "*" <- - "1" ApplicationListener: <<binds>>\n ApplicationEvent
        ApplicationEventPublisher "1" - -> "*" ApplicationEvent
    }

}

bioladen.data.log.LogEvent - -|> org.springframework.context.ApplicationEvent
bioladen.data.log.LogEventListener - -|> org.springframework.context.ApplicationListener
bioladen.data.log.LogEvent "0..*" <- - "1" bioladen.data.log.Logger
bioladen.data.log.LogEventListener "0..*" <- - "1" bioladen.data.statistic.Statistic


@enduml

PlantUML version 1.2018.12(Sun Oct 21 12:15:15 CEST 2018)
(GPL source distribution)
Java Runtime: Java(TM) SE Runtime Environment
JVM: Java HotSpot(TM) Client VM
Java Version: 1.8.0_181-b13
Operating System: Windows 10
OS Version: 10.0
Default Encoding: Cp1252
Language: de
Country: DE
--></g></svg>