<?xml version="1.0" encoding="UTF-8" standalone="no"?><svg xmlns="http://www.w3.org/2000/svg" xmlns:xlink="http://www.w3.org/1999/xlink" contentScriptType="application/ecmascript" contentStyleType="text/css" height="771px" preserveAspectRatio="none" style="width:1345px;height:771px;" version="1.1" viewBox="0 0 1345 771" width="1345px" zoomAndPan="magnify"><defs><filter height="300%" id="fcjcmslmsglhu" width="300%" x="-1" y="-1"><feGaussianBlur result="blurOut" stdDeviation="2.0"/><feColorMatrix in="blurOut" result="blurOut2" type="matrix" values="0 0 0 0 0 0 0 0 0 0 0 0 0 0 0 0 0 0 .4 0"/><feOffset dx="4.0" dy="4.0" in="blurOut2" result="blurOut3"/><feBlend in="SourceGraphic" in2="blurOut3" mode="normal"/></filter><linearGradient id="gcjcmslmsglhu0" x1="0%" x2="100%" y1="0%" y2="100%"><stop offset="0%" stop-color="#6495ED"/><stop offset="100%" stop-color="#00FFFF"/></linearGradient><linearGradient id="gcjcmslmsglhu1" x1="0%" x2="100%" y1="0%" y2="100%"><stop offset="0%" stop-color="#C0C0C0"/><stop offset="100%" stop-color="#FFFFFF"/></linearGradient><linearGradient id="gcjcmslmsglhu2" x1="0%" x2="100%" y1="0%" y2="100%"><stop offset="0%" stop-color="#32CD32"/><stop offset="100%" stop-color="#90EE90"/></linearGradient><linearGradient id="gcjcmslmsglhu3" x1="0%" x2="100%" y1="0%" y2="100%"><stop offset="0%" stop-color="#F9ED93"/><stop offset="100%" stop-color="#FBB4CE"/></linearGradient><linearGradient id="gcjcmslmsglhu4" x1="0%" x2="100%" y1="0%" y2="100%"><stop offset="0%" stop-color="#F5A9BC"/><stop offset="100%" stop-color="#F6E3CE"/></linearGradient></defs><g><!--cluster Bioladen--><rect fill="#FFFFFF" filter="url(#fcjcmslmsglhu)" height="607" style="stroke: #A9A9A9; stroke-width: 1.5;" width="522" x="192" y="16"/><text fill="#808080" font-family="sans-serif" font-size="14" font-weight="bold" lengthAdjust="spacingAndGlyphs" textLength="68" x="419" y="30.9951">Bioladen</text><!--cluster bioladen.finances--><polygon fill="#FFFFFF" filter="url(#fcjcmslmsglhu)" points="264,43,408,43,415,65.2969,604,65.2969,604,502,264,502,264,43" style="stroke: #A9A9A9; stroke-width: 1.5;"/><line style="stroke: #A9A9A9; stroke-width: 1.5;" x1="264" x2="415" y1="65.2969" y2="65.2969"/><text fill="#808080" font-family="sans-serif" font-size="14" font-weight="bold" lengthAdjust="spacingAndGlyphs" textLength="138" x="268" y="57.9951">bioladen.finances</text><!--cluster bioladen.event--><polygon fill="#FFFFFF" filter="url(#fcjcmslmsglhu)" points="538,529.5,660,529.5,667,551.7969,706,551.7969,706,612.5,538,612.5,538,529.5" style="stroke: #A9A9A9; stroke-width: 1.5;"/><line style="stroke: #A9A9A9; stroke-width: 1.5;" x1="538" x2="667" y1="551.7969" y2="551.7969"/><text fill="#808080" font-family="sans-serif" font-size="14" font-weight="bold" lengthAdjust="spacingAndGlyphs" textLength="116" x="542" y="544.4951">bioladen.event</text><!--cluster ressources.templates--><polygon fill="#FFFFFF" filter="url(#fcjcmslmsglhu)" points="200,527,377,527,384,549.2969,519,549.2969,519,615,200,615,200,527" style="stroke: #A9A9A9; stroke-width: 1.5;"/><line style="stroke: #A9A9A9; stroke-width: 1.5;" x1="200" x2="384" y1="549.2969" y2="549.2969"/><text fill="#808080" font-family="sans-serif" font-size="14" font-weight="bold" lengthAdjust="spacingAndGlyphs" textLength="171" x="204" y="541.9951">ressources.templates</text><!--cluster money-api-1.0.3.jar--><rect fill="#FFFFFF" filter="url(#fcjcmslmsglhu)" height="124" style="stroke: #A9A9A9; stroke-width: 1.5;" width="170" x="14" y="303"/><text fill="#808080" font-family="sans-serif" font-size="14" font-weight="bold" lengthAdjust="spacingAndGlyphs" textLength="151" x="23.5" y="317.9951">money-api-1.0.3.jar</text><!--cluster javax.money--><polygon fill="#FFFFFF" filter="url(#fcjcmslmsglhu)" points="22,330,123,330,130,352.2969,176,352.2969,176,419,22,419,22,330" style="stroke: #A9A9A9; stroke-width: 1.5;"/><line style="stroke: #A9A9A9; stroke-width: 1.5;" x1="22" x2="130" y1="352.2969" y2="352.2969"/><text fill="#808080" font-family="sans-serif" font-size="14" font-weight="bold" lengthAdjust="spacingAndGlyphs" textLength="95" x="26" y="344.9951">javax.money</text><!--cluster salespoint-framework-7.0.0.RELEASE.jar--><rect fill="#FFFFFF" filter="url(#fcjcmslmsglhu)" height="138" style="stroke: #A9A9A9; stroke-width: 1.5;" width="609" x="722" y="54"/><text fill="#808080" font-family="sans-serif" font-size="14" font-weight="bold" lengthAdjust="spacingAndGlyphs" textLength="312" x="870.5" y="68.9951">salespoint-framework-7.0.0.RELEASE.jar</text><!--cluster org.salespointframework.useraccount--><polygon fill="#FFFFFF" filter="url(#fcjcmslmsglhu)" points="730,81,1032,81,1039,103.2969,1042,103.2969,1042,184,730,184,730,81" style="stroke: #A9A9A9; stroke-width: 1.5;"/><line style="stroke: #A9A9A9; stroke-width: 1.5;" x1="730" x2="1039" y1="103.2969" y2="103.2969"/><text fill="#808080" font-family="sans-serif" font-size="14" font-weight="bold" lengthAdjust="spacingAndGlyphs" textLength="296" x="734" y="95.9951">org.salespointframework.useraccount</text><!--cluster org.salespointframework.context--><polygon fill="#FFFFFF" filter="url(#fcjcmslmsglhu)" points="1050,88,1313,88,1320,110.2969,1323,110.2969,1323,177,1050,177,1050,88" style="stroke: #A9A9A9; stroke-width: 1.5;"/><line style="stroke: #A9A9A9; stroke-width: 1.5;" x1="1050" x2="1320" y1="110.2969" y2="110.2969"/><text fill="#808080" font-family="sans-serif" font-size="14" font-weight="bold" lengthAdjust="spacingAndGlyphs" textLength="257" x="1054" y="102.9951">org.salespointframework.context</text><!--class bioladen.finances.CashierSystem--><rect fill="url(#gcjcmslmsglhu0)" filter="url(#fcjcmslmsglhu)" height="220.3984" id="bioladen.finances.CashierSystem" style="stroke: #000000; stroke-width: 1.5;" width="324" x="272" y="274"/><ellipse cx="383.75" cy="292.9688" fill="#ADD1B2" rx="11" ry="11" style="stroke: #000000; stroke-width: 1.0;"/><path d="M387.0938,298.3906 Q386.2344,298.8594 385.5156,299.0313 Q384.8125,299.2031 384.0156,299.2031 Q381.4531,299.2031 380.0469,297.4219 Q378.6563,295.625 378.6563,292.4375 Q378.6563,289.2813 380.0625,287.4688 Q381.4688,285.6563 384.0156,285.6563 Q384.8125,285.6563 385.5156,285.8438 Q386.2344,286.0156 387.0938,286.4844 L387.0938,289.1406 Q385.9688,288.2031 385.3125,287.9688 Q384.6563,287.7188 384.0156,287.7188 Q382.5625,287.7188 381.8281,288.8594 Q381.0938,289.9844 381.0938,292.4375 Q381.0938,294.8906 381.8281,296.0313 Q382.5625,297.1563 384.0156,297.1563 Q384.6719,297.1563 385.3125,296.9219 Q385.9688,296.6719 387.0938,295.7344 L387.0938,298.3906 Z "/><text fill="#000000" font-family="sans-serif" font-size="12" font-style="italic" lengthAdjust="spacingAndGlyphs" textLength="75" x="412.75" y="290.1387">«Controller»</text><text fill="#000000" font-family="sans-serif" font-size="12" lengthAdjust="spacingAndGlyphs" textLength="92" x="404.25" y="304.1074">CashierSystem</text><line style="stroke: #000000; stroke-width: 1.5;" x1="273" x2="595" y1="311.9375" y2="311.9375"/><text fill="#000000" font-family="sans-serif" font-size="11" lengthAdjust="spacingAndGlyphs" textLength="113" x="278" y="326.1479">-user : UserAccount</text><text fill="#000000" font-family="sans-serif" font-size="11" lengthAdjust="spacingAndGlyphs" textLength="123" x="278" y="338.9526">-userDiscount : Enum</text><line style="stroke: #000000; stroke-width: 1.5;" x1="273" x2="595" y1="345.5469" y2="345.5469"/><text fill="#000000" font-family="sans-serif" font-size="11" lengthAdjust="spacingAndGlyphs" textLength="175" x="278" y="359.7573">+CashierSystem(UserAccount)</text><text fill="#000000" font-family="sans-serif" font-size="11" lengthAdjust="spacingAndGlyphs" textLength="138" x="278" y="372.562">+add(Product) : boolean</text><text fill="#000000" font-family="sans-serif" font-size="11" lengthAdjust="spacingAndGlyphs" textLength="160" x="278" y="385.3667">+remove(Product) : boolean</text><text fill="#000000" font-family="sans-serif" font-size="11" lengthAdjust="spacingAndGlyphs" textLength="102" x="278" y="398.1714">+clear() : boolean</text><text fill="#000000" font-family="sans-serif" font-size="11" lengthAdjust="spacingAndGlyphs" textLength="183" x="278" y="410.9761">+getSums() : MonetaryAmount[]</text><text fill="#000000" font-family="sans-serif" font-size="11" lengthAdjust="spacingAndGlyphs" textLength="232" x="278" y="423.7808">+getDiscountSums() : MonetaryAmount[]</text><text fill="#000000" font-family="sans-serif" font-size="11" lengthAdjust="spacingAndGlyphs" textLength="213" x="278" y="436.5854">+getMwStSums() : MonetaryAmount[]</text><text fill="#000000" font-family="sans-serif" font-size="11" lengthAdjust="spacingAndGlyphs" textLength="168" x="278" y="449.3901">+getSum() : MonetaryAmount</text><text fill="#000000" font-family="sans-serif" font-size="11" lengthAdjust="spacingAndGlyphs" textLength="312" x="278" y="462.1948">+calculateChange(MonetaryAmount) : MonetaryAmount</text><text fill="#000000" font-family="sans-serif" font-size="11" lengthAdjust="spacingAndGlyphs" textLength="130" x="278" y="474.9995">+finishSale() : boolean</text><text fill="#000000" font-family="sans-serif" font-size="11" lengthAdjust="spacingAndGlyphs" textLength="271" x="278" y="487.8042">+publishSaleCreatedEvent(ShoppingCart) : void</text><!--class bioladen.finances.ShoppingCart--><rect fill="url(#gcjcmslmsglhu1)" filter="url(#fcjcmslmsglhu)" height="143.5703" id="bioladen.finances.ShoppingCart" style="stroke: #000000; stroke-width: 1.5;" width="226" x="321" y="70"/><ellipse cx="387.25" cy="88.9688" fill="#ADD1B2" rx="11" ry="11" style="stroke: #000000; stroke-width: 1.0;"/><path d="M390.5938,94.3906 Q389.7344,94.8594 389.0156,95.0313 Q388.3125,95.2031 387.5156,95.2031 Q384.9531,95.2031 383.5469,93.4219 Q382.1563,91.625 382.1563,88.4375 Q382.1563,85.2813 383.5625,83.4688 Q384.9688,81.6563 387.5156,81.6563 Q388.3125,81.6563 389.0156,81.8438 Q389.7344,82.0156 390.5938,82.4844 L390.5938,85.1406 Q389.4688,84.2031 388.8125,83.9688 Q388.1563,83.7188 387.5156,83.7188 Q386.0625,83.7188 385.3281,84.8594 Q384.5938,85.9844 384.5938,88.4375 Q384.5938,90.8906 385.3281,92.0313 Q386.0625,93.1563 387.5156,93.1563 Q388.1719,93.1563 388.8125,92.9219 Q389.4688,92.6719 390.5938,91.7344 L390.5938,94.3906 Z "/><text fill="#000000" font-family="sans-serif" font-size="12" font-style="italic" lengthAdjust="spacingAndGlyphs" textLength="50" x="425.25" y="86.1387">«Entity»</text><text fill="#000000" font-family="sans-serif" font-size="12" lengthAdjust="spacingAndGlyphs" textLength="85" x="407.75" y="100.1074">ShoppingCart</text><line style="stroke: #000000; stroke-width: 1.5;" x1="322" x2="546" y1="107.9375" y2="107.9375"/><text fill="#000000" font-family="sans-serif" font-size="11" lengthAdjust="spacingAndGlyphs" textLength="113" x="327" y="122.1479">-user : UserAccount</text><text fill="#000000" font-family="sans-serif" font-size="11" lengthAdjust="spacingAndGlyphs" textLength="214" x="327" y="134.9526">-productList : Map&lt;Product, Amount&gt;</text><line style="stroke: #000000; stroke-width: 1.5;" x1="322" x2="546" y1="141.5469" y2="141.5469"/><text fill="#000000" font-family="sans-serif" font-size="11" lengthAdjust="spacingAndGlyphs" textLength="165" x="327" y="155.7573">+ShoppingCart(UserAccount)</text><text fill="#000000" font-family="sans-serif" font-size="11" lengthAdjust="spacingAndGlyphs" textLength="138" x="327" y="168.562">+add(Product) : boolean</text><text fill="#000000" font-family="sans-serif" font-size="11" lengthAdjust="spacingAndGlyphs" textLength="160" x="327" y="181.3667">+remove(Product) : boolean</text><text fill="#000000" font-family="sans-serif" font-size="11" lengthAdjust="spacingAndGlyphs" textLength="102" x="327" y="194.1714">+clear() : boolean</text><text fill="#000000" font-family="sans-serif" font-size="11" lengthAdjust="spacingAndGlyphs" textLength="168" x="327" y="206.9761">+getSum() : MonetaryAmount</text><!--class bioladen.event.EntityCreatedEvent--><rect fill="url(#gcjcmslmsglhu1)" filter="url(#fcjcmslmsglhu)" height="48" id="bioladen.event.EntityCreatedEvent" style="stroke: #000000; stroke-width: 1.5;" width="152" x="546" y="556.5"/><ellipse cx="561" cy="572.5" fill="#ADD1B2" rx="11" ry="11" style="stroke: #000000; stroke-width: 1.0;"/><path d="M564.3438,577.9219 Q563.4844,578.3906 562.7656,578.5625 Q562.0625,578.7344 561.2656,578.7344 Q558.7031,578.7344 557.2969,576.9531 Q555.9063,575.1563 555.9063,571.9688 Q555.9063,568.8125 557.3125,567 Q558.7188,565.1875 561.2656,565.1875 Q562.0625,565.1875 562.7656,565.375 Q563.4844,565.5469 564.3438,566.0156 L564.3438,568.6719 Q563.2188,567.7344 562.5625,567.5 Q561.9063,567.25 561.2656,567.25 Q559.8125,567.25 559.0781,568.3906 Q558.3438,569.5156 558.3438,571.9688 Q558.3438,574.4219 559.0781,575.5625 Q559.8125,576.6875 561.2656,576.6875 Q561.9219,576.6875 562.5625,576.4531 Q563.2188,576.2031 564.3438,575.2656 L564.3438,577.9219 Z "/><text fill="#000000" font-family="sans-serif" font-size="12" lengthAdjust="spacingAndGlyphs" textLength="120" x="575" y="576.6543">EntityCreatedEvent</text><line style="stroke: #000000; stroke-width: 1.5;" x1="547" x2="697" y1="588.5" y2="588.5"/><line style="stroke: #000000; stroke-width: 1.5;" x1="547" x2="697" y1="596.5" y2="596.5"/><!--entity cashiersystem.html--><polygon fill="url(#gcjcmslmsglhu2)" filter="url(#fcjcmslmsglhu)" points="357,554,357,606.5938,511,606.5938,511,564,501,554,357,554" style="stroke: #000000; stroke-width: 1.5;"/><path d="M501,554 L501,564 L511,564 " fill="url(#gcjcmslmsglhu2)" style="stroke: #000000; stroke-width: 1.5;"/><text fill="#000000" font-family="sans-serif" font-size="14" font-style="italic" lengthAdjust="spacingAndGlyphs" textLength="51" x="408.5" y="576.9951">«View»</text><text fill="#000000" font-family="sans-serif" font-size="14" lengthAdjust="spacingAndGlyphs" textLength="134" x="367" y="593.292">cashiersystem.html</text><!--entity watchlist.html--><polygon fill="url(#gcjcmslmsglhu2)" filter="url(#fcjcmslmsglhu)" points="208,554,208,606.5938,322,606.5938,322,564,312,554,208,554" style="stroke: #000000; stroke-width: 1.5;"/><path d="M312,554 L312,564 L322,564 " fill="url(#gcjcmslmsglhu2)" style="stroke: #000000; stroke-width: 1.5;"/><text fill="#000000" font-family="sans-serif" font-size="14" font-style="italic" lengthAdjust="spacingAndGlyphs" textLength="51" x="239.5" y="576.9951">«View»</text><text fill="#000000" font-family="sans-serif" font-size="14" lengthAdjust="spacingAndGlyphs" textLength="94" x="218" y="593.292">watchlist.html</text><!--class javax.money.MonetaryAmount--><rect fill="url(#gcjcmslmsglhu3)" filter="url(#fcjcmslmsglhu)" height="53.9375" id="javax.money.MonetaryAmount" style="stroke: #000000; stroke-width: 1.5;" width="138" x="30" y="357"/><ellipse cx="45" cy="375.9688" fill="#ADD1B2" rx="11" ry="11" style="stroke: #000000; stroke-width: 1.0;"/><path d="M48.3438,381.3906 Q47.4844,381.8594 46.7656,382.0313 Q46.0625,382.2031 45.2656,382.2031 Q42.7031,382.2031 41.2969,380.4219 Q39.9063,378.625 39.9063,375.4375 Q39.9063,372.2813 41.3125,370.4688 Q42.7188,368.6563 45.2656,368.6563 Q46.0625,368.6563 46.7656,368.8438 Q47.4844,369.0156 48.3438,369.4844 L48.3438,372.1406 Q47.2188,371.2031 46.5625,370.9688 Q45.9063,370.7188 45.2656,370.7188 Q43.8125,370.7188 43.0781,371.8594 Q42.3438,372.9844 42.3438,375.4375 Q42.3438,377.8906 43.0781,379.0313 Q43.8125,380.1563 45.2656,380.1563 Q45.9219,380.1563 46.5625,379.9219 Q47.2188,379.6719 48.3438,378.7344 L48.3438,381.3906 Z "/><text fill="#000000" font-family="sans-serif" font-size="12" font-style="italic" lengthAdjust="spacingAndGlyphs" textLength="40" x="92" y="373.1387">«Java»</text><text fill="#000000" font-family="sans-serif" font-size="12" lengthAdjust="spacingAndGlyphs" textLength="106" x="59" y="387.1074">MonetaryAmount</text><line style="stroke: #000000; stroke-width: 1.5;" x1="31" x2="167" y1="394.9375" y2="394.9375"/><line style="stroke: #000000; stroke-width: 1.5;" x1="31" x2="167" y1="402.9375" y2="402.9375"/><!--class org.salespointframework.useraccount.UserAccount--><rect fill="url(#gcjcmslmsglhu4)" filter="url(#fcjcmslmsglhu)" height="67.9063" id="org.salespointframework.useraccount.UserAccount" style="stroke: #000000; stroke-width: 1.5;" width="112" x="738" y="108"/><ellipse cx="753" cy="133.9531" fill="#ADD1B2" rx="11" ry="11" style="stroke: #000000; stroke-width: 1.0;"/><path d="M756.3438,139.375 Q755.4844,139.8438 754.7656,140.0156 Q754.0625,140.1875 753.2656,140.1875 Q750.7031,140.1875 749.2969,138.4063 Q747.9063,136.6094 747.9063,133.4219 Q747.9063,130.2656 749.3125,128.4531 Q750.7188,126.6406 753.2656,126.6406 Q754.0625,126.6406 754.7656,126.8281 Q755.4844,127 756.3438,127.4688 L756.3438,130.125 Q755.2188,129.1875 754.5625,128.9531 Q753.9063,128.7031 753.2656,128.7031 Q751.8125,128.7031 751.0781,129.8438 Q750.3438,130.9688 750.3438,133.4219 Q750.3438,135.875 751.0781,137.0156 Q751.8125,138.1406 753.2656,138.1406 Q753.9219,138.1406 754.5625,137.9063 Q755.2188,137.6563 756.3438,136.7188 L756.3438,139.375 Z "/><text fill="#000000" font-family="sans-serif" font-size="12" font-style="italic" lengthAdjust="spacingAndGlyphs" textLength="50" x="782" y="124.1387">«Entity»</text><text fill="#000000" font-family="sans-serif" font-size="12" font-style="italic" lengthAdjust="spacingAndGlyphs" textLength="79" x="767.5" y="138.1074">«Salespoint»</text><text fill="#000000" font-family="sans-serif" font-size="12" lengthAdjust="spacingAndGlyphs" textLength="80" x="767" y="152.0762">UserAccount</text><line style="stroke: #000000; stroke-width: 1.5;" x1="739" x2="849" y1="159.9063" y2="159.9063"/><line style="stroke: #000000; stroke-width: 1.5;" x1="739" x2="849" y1="167.9063" y2="167.9063"/><!--class org.salespointframework.context.ApplicationEvent--><rect fill="url(#gcjcmslmsglhu4)" filter="url(#fcjcmslmsglhu)" height="53.9375" id="org.salespointframework.context.ApplicationEvent" style="stroke: #000000; stroke-width: 1.5;" width="136" x="1058" y="115"/><ellipse cx="1073" cy="133.9688" fill="#ADD1B2" rx="11" ry="11" style="stroke: #000000; stroke-width: 1.0;"/><path d="M1076.3438,139.3906 Q1075.4844,139.8594 1074.7656,140.0313 Q1074.0625,140.2031 1073.2656,140.2031 Q1070.7031,140.2031 1069.2969,138.4219 Q1067.9063,136.625 1067.9063,133.4375 Q1067.9063,130.2813 1069.3125,128.4688 Q1070.7188,126.6563 1073.2656,126.6563 Q1074.0625,126.6563 1074.7656,126.8438 Q1075.4844,127.0156 1076.3438,127.4844 L1076.3438,130.1406 Q1075.2188,129.2031 1074.5625,128.9688 Q1073.9063,128.7188 1073.2656,128.7188 Q1071.8125,128.7188 1071.0781,129.8594 Q1070.3438,130.9844 1070.3438,133.4375 Q1070.3438,135.8906 1071.0781,137.0313 Q1071.8125,138.1563 1073.2656,138.1563 Q1073.9219,138.1563 1074.5625,137.9219 Q1075.2188,137.6719 1076.3438,136.7344 L1076.3438,139.3906 Z "/><text fill="#000000" font-family="sans-serif" font-size="12" font-style="italic" lengthAdjust="spacingAndGlyphs" textLength="79" x="1099.5" y="131.1387">«Salespoint»</text><text fill="#000000" font-family="sans-serif" font-size="12" lengthAdjust="spacingAndGlyphs" textLength="104" x="1087" y="145.1074">ApplicationEvent</text><line style="stroke: #000000; stroke-width: 1.5;" x1="1059" x2="1193" y1="152.9375" y2="152.9375"/><line style="stroke: #000000; stroke-width: 1.5;" x1="1059" x2="1193" y1="160.9375" y2="160.9375"/><!--link bioladen.finances.ShoppingCart to bioladen.finances.CashierSystem--><path d="M434,234.2802 C434,234.2802 434,273.5881 434,273.5881 " fill="none" id="bioladen.finances.ShoppingCart-bioladen.finances.CashierSystem" style="stroke: #000000; stroke-width: 1.0;"/><polygon fill="none" points="427.0001,234.2802,434,214.2802,441.0001,234.2801,427.0001,234.2802" style="stroke: #000000; stroke-width: 1.0;"/><!--link bioladen.finances.CashierSystem to bioladen.event.EntityCreatedEvent--><path d="M571,494.0263 C571,494.0263 571,551.3145 571,551.3145 " fill="none" id="bioladen.finances.CashierSystem-bioladen.event.EntityCreatedEvent" style="stroke: #000000; stroke-width: 1.0;"/><polygon fill="#000000" points="571,556.3145,575,547.3145,571,551.3145,567,547.3145,571,556.3145" style="stroke: #000000; stroke-width: 1.0;"/><!--link bioladen.finances.CashierSystem to cashiersystem.html--><path d="M434,494.0263 C434,494.0263 434,548.725 434,548.725 " fill="none" id="bioladen.finances.CashierSystem-cashiersystem.html" style="stroke: #000000; stroke-width: 1.0;"/><polygon fill="#000000" points="434,553.725,438,544.725,434,548.725,430,544.725,434,553.725" style="stroke: #000000; stroke-width: 1.0;"/><!--link bioladen.finances.CashierSystem to watchlist.html--><path d="M297,494.0263 C297,494.0263 297,548.725 297,548.725 " fill="none" id="bioladen.finances.CashierSystem-watchlist.html" style="stroke: #000000; stroke-width: 1.0;"/><polygon fill="#000000" points="297,553.725,301,544.725,297,548.725,293,544.725,297,553.725" style="stroke: #000000; stroke-width: 1.0;"/><!--link bioladen.finances.CashierSystem to javax.money.MonetaryAmount--><path d="M271.8971,384 C271.8971,384 173.1257,384 173.1257,384 " fill="none" id="bioladen.finances.CashierSystem-javax.money.MonetaryAmount" style="stroke: #000000; stroke-width: 1.0;"/><polygon fill="#000000" points="168.1257,384,177.1257,388,173.1257,384,177.1257,380,168.1257,384" style="stroke: #000000; stroke-width: 1.0;"/><!--link bioladen.finances.ShoppingCart to javax.money.MonetaryAmount--><path d="M320.5843,142 C223.3982,142 99,142 99,142 C99,142 99,351.7099 99,351.7099 " fill="none" id="bioladen.finances.ShoppingCart-javax.money.MonetaryAmount" style="stroke: #000000; stroke-width: 1.0;"/><polygon fill="#000000" points="99,356.7099,103,347.7099,99,351.7099,95,347.7099,99,356.7099" style="stroke: #000000; stroke-width: 1.0;"/><!--link org.salespointframework.useraccount.UserAccount to bioladen.finances.ShoppingCart--><path d="M732.75,131 C732.75,131 547.1653,131 547.1653,131 " fill="none" id="org.salespointframework.useraccount.UserAccount-bioladen.finances.ShoppingCart" style="stroke: #000000; stroke-width: 1.0;"/><polygon fill="#000000" points="737.75,131,728.75,127,732.75,131,728.75,135,737.75,131" style="stroke: #000000; stroke-width: 1.0;"/><text fill="#000000" font-family="sans-serif" font-size="13" lengthAdjust="spacingAndGlyphs" textLength="8" x="722.0305" y="125.7111">1</text><text fill="#000000" font-family="sans-serif" font-size="13" lengthAdjust="spacingAndGlyphs" textLength="8" x="555.0373" y="126.8428">1</text><!--link org.salespointframework.useraccount.UserAccount to bioladen.finances.CashierSystem--><path d="M732.8539,154 C732.8539,154 571.5,154 571.5,154 C571.5,154 571.5,214.6875 571.5,273.7156 " fill="none" id="org.salespointframework.useraccount.UserAccount-bioladen.finances.CashierSystem" style="stroke: #000000; stroke-width: 1.0;"/><polygon fill="#000000" points="737.8539,154,728.8539,150,732.8539,154,728.8539,158,737.8539,154" style="stroke: #000000; stroke-width: 1.0;"/><text fill="#000000" font-family="sans-serif" font-size="13" lengthAdjust="spacingAndGlyphs" textLength="8" x="722.1477" y="151.658">1</text><text fill="#000000" font-family="sans-serif" font-size="13" lengthAdjust="spacingAndGlyphs" textLength="8" x="572.4695" y="262.8599">1</text><!--link org.salespointframework.context.ApplicationEvent to bioladen.event.EntityCreatedEvent--><path d="M1126,189.1301 C1126,189.1301 1126,581 1126,581 C1126,581 839.168,581 698.273,581 " fill="none" id="org.salespointframework.context.ApplicationEvent-bioladen.event.EntityCreatedEvent" style="stroke: #000000; stroke-width: 1.0;"/><polygon fill="none" points="1119.0001,189.1302,1126,169.1301,1133.0001,189.1301,1119.0001,189.1302" style="stroke: #000000; stroke-width: 1.0;"/><rect fill="#DDDDDD" height="111.7813" rx="5" ry="5" style="stroke: #000000; stroke-width: 1.0;" width="213" x="571.5" y="649"/><text fill="#000000" font-family="sans-serif" font-size="14" font-weight="bold" lengthAdjust="spacingAndGlyphs" textLength="94" x="581.5" y="668.9951">Background</text><text fill="#000000" font-family="sans-serif" font-size="14" font-weight="bold" lengthAdjust="spacingAndGlyphs" textLength="91" x="683.5" y="668.9951">Component</text><rect fill="#3DD13F" height="16.2969" style="stroke: none; stroke-width: 1.0;" width="102" x="577.5" y="672.2969"/><text fill="#000000" font-family="sans-serif" font-size="14" lengthAdjust="spacingAndGlyphs" textLength="0" x="597.5" y="685.292"/><text fill="#000000" font-family="sans-serif" font-size="14" lengthAdjust="spacingAndGlyphs" textLength="32" x="683.5" y="685.292">View</text><rect fill="#5F9AEA" height="16.2969" style="stroke: none; stroke-width: 1.0;" width="102" x="577.5" y="688.5938"/><text fill="#000000" font-family="sans-serif" font-size="14" lengthAdjust="spacingAndGlyphs" textLength="0" x="597.5" y="701.5889"/><text fill="#000000" font-family="sans-serif" font-size="14" lengthAdjust="spacingAndGlyphs" textLength="67" x="683.5" y="701.5889">Controller</text><rect fill="#CEF6CE" height="16.2969" style="stroke: none; stroke-width: 1.0;" width="102" x="577.5" y="704.8906"/><text fill="#000000" font-family="sans-serif" font-size="14" lengthAdjust="spacingAndGlyphs" textLength="0" x="597.5" y="717.8857"/><text fill="#000000" font-family="sans-serif" font-size="14" lengthAdjust="spacingAndGlyphs" textLength="44" x="683.5" y="717.8857">Spring</text><rect fill="#F5A9BC" height="16.2969" style="stroke: none; stroke-width: 1.0;" width="102" x="577.5" y="721.1875"/><text fill="#000000" font-family="sans-serif" font-size="14" lengthAdjust="spacingAndGlyphs" textLength="0" x="597.5" y="734.1826"/><text fill="#000000" font-family="sans-serif" font-size="14" lengthAdjust="spacingAndGlyphs" textLength="72" x="683.5" y="734.1826">Salespoint</text><rect fill="#F9ED93" height="16.2969" style="stroke: none; stroke-width: 1.0;" width="102" x="577.5" y="737.4844"/><text fill="#000000" font-family="sans-serif" font-size="14" lengthAdjust="spacingAndGlyphs" textLength="0" x="597.5" y="750.4795"/><text fill="#000000" font-family="sans-serif" font-size="14" lengthAdjust="spacingAndGlyphs" textLength="26" x="683.5" y="750.4795">Java</text><line style="stroke: #000000; stroke-width: 1.0;" x1="577.5" x2="778.5" y1="656" y2="656"/><line style="stroke: #000000; stroke-width: 1.0;" x1="577.5" x2="778.5" y1="672.2969" y2="672.2969"/><line style="stroke: #000000; stroke-width: 1.0;" x1="577.5" x2="778.5" y1="688.5938" y2="688.5938"/><line style="stroke: #000000; stroke-width: 1.0;" x1="577.5" x2="778.5" y1="704.8906" y2="704.8906"/><line style="stroke: #000000; stroke-width: 1.0;" x1="577.5" x2="778.5" y1="721.1875" y2="721.1875"/><line style="stroke: #000000; stroke-width: 1.0;" x1="577.5" x2="778.5" y1="737.4844" y2="737.4844"/><line style="stroke: #000000; stroke-width: 1.0;" x1="577.5" x2="778.5" y1="753.7813" y2="753.7813"/><line style="stroke: #000000; stroke-width: 1.0;" x1="577.5" x2="577.5" y1="656" y2="753.7813"/><line style="stroke: #000000; stroke-width: 1.0;" x1="679.5" x2="679.5" y1="656" y2="753.7813"/><line style="stroke: #000000; stroke-width: 1.0;" x1="778.5" x2="778.5" y1="656" y2="753.7813"/><!--
@startuml




skinparam class {
	BackgroundColor #Silver/white
	BackgroundColor<<Spring>> #a9f5e1/cef6ce
	BackgroundColor<<Salespoint>> #f5a9bc/f6e3ce
	BackgroundColor<<Java>> #f9ed93/fbb4ce
	BackgroundColor<<Controller>> #Cornflowerblue/Cyan
    BorderColor Black
    ArrowColor  Black
}

skinparam package {
    FontColor Grey
    BorderColor Darkgrey
}

skinparam classAttributeIconSize 0
skinparam linetype ortho

legend
| Background | Component |
|<#3dd13f>     | View |
|<#5f9aea>     | Controller |
|<#cef6ce>     | Spring |
|<#f5a9bc>     | Salespoint |
|<#f9ed93>     | Java |
endlegend



rectangle Bioladen {
    namespace bioladen.finances {

        class CashierSystem <<Controller>>  extends ShoppingCart {
            -user : UserAccount
            -userDiscount : Enum
            +CashierSystem(UserAccount)
            +add(Product) : boolean
            +remove(Product) : boolean
            +clear() : boolean
            +getSums() : MonetaryAmount[]
            +getDiscountSums() : MonetaryAmount[]
            +getMwStSums() : MonetaryAmount[]
            +getSum() : MonetaryAmount
            +calculateChange(MonetaryAmount) : MonetaryAmount
            +finishSale() : boolean
            +publishSaleCreatedEvent(ShoppingCart) : void
        }

        class ShoppingCart <<Entity>> {
            -user : UserAccount
            -productList : Map<Product, Amount>
            +ShoppingCart(UserAccount)
            +add(Product) : boolean
            +remove(Product) : boolean
            +clear() : boolean
            +getSum() : MonetaryAmount


        }

    }

    namespace bioladen.event {
        class EntityCreatedEvent {

        }

        bioladen.finances.CashierSystem - -> bioladen.event.EntityCreatedEvent

    }

    namespace ressources.templates {

        file cashiersystem.html <<View>> #limegreen/technology {

        }

        file watchlist.html <<View>> #limegreen/technology {

        }

        bioladen.finances.CashierSystem - -> cashiersystem.html
        bioladen.finances.CashierSystem - -> watchlist.html
    }

}

rectangle money-api-1.0.3.jar {
    namespace javax.money {
        class MonetaryAmount <<Java>>{

        }
        bioladen.finances.CashierSystem -right-> MonetaryAmount
        bioladen.finances.ShoppingCart -right-> MonetaryAmount
    }

}

rectangle salespoint-framework-7.0.0.RELEASE.jar {

    namespace org.salespointframework.useraccount {

        class UserAccount <<Entity>> <<Salespoint>>{

        }

        bioladen.finances.ShoppingCart "1" -left-> "1" UserAccount
        bioladen.finances.CashierSystem "1" -left-> "1" UserAccount
    }

    namespace org.salespointframework.context {
        class ApplicationEvent <<Salespoint>>{

        }

        ApplicationEvent <|- - bioladen.event.EntityCreatedEvent
    }

}


@enduml

PlantUML version 1.2018.12(Sun Oct 21 12:15:15 CEST 2018)
(GPL source distribution)
Java Runtime: OpenJDK Runtime Environment
JVM: OpenJDK 64-Bit Server VM
Java Version: 11.0.1+13-Ubuntu-2ubuntu1
Operating System: Linux
OS Version: 4.18.0-10-generic
Default Encoding: UTF-8
Language: de
Country: DE
--></g></svg>