<?xml version="1.0" encoding="UTF-8" standalone="no"?><svg xmlns="http://www.w3.org/2000/svg" xmlns:xlink="http://www.w3.org/1999/xlink" contentScriptType="application/ecmascript" contentStyleType="text/css" height="840px" preserveAspectRatio="none" style="width:2588px;height:840px;" version="1.1" viewBox="0 0 2588 840" width="2588px" zoomAndPan="magnify"><defs><filter height="300%" id="f1wd05c6mozv4i" width="300%" x="-1" y="-1"><feGaussianBlur result="blurOut" stdDeviation="2.0"/><feColorMatrix in="blurOut" result="blurOut2" type="matrix" values="0 0 0 0 0 0 0 0 0 0 0 0 0 0 0 0 0 0 .4 0"/><feOffset dx="4.0" dy="4.0" in="blurOut2" result="blurOut3"/><feBlend in="SourceGraphic" in2="blurOut3" mode="normal"/></filter><linearGradient id="g1wd05c6mozv4i0" x1="0%" x2="100%" y1="0%" y2="100%"><stop offset="0%" stop-color="#F08080"/><stop offset="100%" stop-color="#FFB6C1"/></linearGradient></defs><g><!--cluster salespoint-framework-7.0.0.RELEASE.jar--><rect fill="#FFFFFF" filter="url(#f1wd05c6mozv4i)" height="699" style="stroke: #8B008B; stroke-width: 1.5;" width="1302" x="14" y="16"/><text fill="#808080" font-family="sans-serif" font-size="14" font-weight="bold" lengthAdjust="spacingAndGlyphs" textLength="316" x="507" y="30.9951">salespoint-framework-7.0.0.RELEASE.jar</text><!--cluster org.salespointframework.order--><polygon fill="#FFFFFF" filter="url(#f1wd05c6mozv4i)" points="22,43,276,43,283,65.2969,1308,65.2969,1308,707,22,707,22,43" style="stroke: #8B008B; stroke-width: 1.5;"/><line style="stroke: #8B008B; stroke-width: 1.5;" x1="22" x2="283" y1="65.2969" y2="65.2969"/><text fill="#808080" font-family="sans-serif" font-size="14" font-weight="bold" lengthAdjust="spacingAndGlyphs" textLength="248" x="26" y="57.9951">org.salespointframework.order</text><!--cluster Bioladen--><rect fill="#FFFFFF" filter="url(#f1wd05c6mozv4i)" height="627.5" style="stroke: #8B008B; stroke-width: 1.5;" width="1250" x="1324" y="201.5"/><text fill="#808080" font-family="sans-serif" font-size="14" font-weight="bold" lengthAdjust="spacingAndGlyphs" textLength="67" x="1915.5" y="216.4951">Bioladen</text><!--cluster bioladen.order--><polygon fill="#FFFFFF" filter="url(#f1wd05c6mozv4i)" points="1332,560,1454,560,1461,582.2969,2220,582.2969,2220,675,1332,675,1332,560" style="stroke: #8B008B; stroke-width: 1.5;"/><line style="stroke: #8B008B; stroke-width: 1.5;" x1="1332" x2="1461" y1="582.2969" y2="582.2969"/><text fill="#808080" font-family="sans-serif" font-size="14" font-weight="bold" lengthAdjust="spacingAndGlyphs" textLength="116" x="1336" y="574.9951">bioladen.order</text><!--cluster bioladen.product--><polygon fill="#FFFFFF" filter="url(#f1wd05c6mozv4i)" points="2239,228.5,2379,228.5,2386,250.7969,2566,250.7969,2566,821,2239,821,2239,228.5" style="stroke: #8B008B; stroke-width: 1.5;"/><line style="stroke: #8B008B; stroke-width: 1.5;" x1="2239" x2="2386" y1="250.7969" y2="250.7969"/><text fill="#808080" font-family="sans-serif" font-size="14" font-weight="bold" lengthAdjust="spacingAndGlyphs" textLength="134" x="2243" y="243.4951">bioladen.product</text><!--class org.salespointframework.order.OrderManager--><rect fill="url(#g1wd05c6mozv4i0)" filter="url(#f1wd05c6mozv4i)" height="130.7656" id="org.salespointframework.order.OrderManager" style="stroke: #000000; stroke-width: 1.5;" width="237" x="730.5" y="217"/><ellipse cx="751.35" cy="235.9688" fill="#B4A7E5" rx="11" ry="11" style="stroke: #000000; stroke-width: 1.0;"/><path d="M747.2719,231.7344 L747.2719,229.5781 L754.6625,229.5781 L754.6625,231.7344 L752.1938,231.7344 L752.1938,239.8125 L754.6625,239.8125 L754.6625,241.9688 L747.2719,241.9688 L747.2719,239.8125 L749.7406,239.8125 L749.7406,231.7344 L747.2719,231.7344 Z "/><text fill="#000000" font-family="sans-serif" font-size="12" font-style="italic" lengthAdjust="spacingAndGlyphs" textLength="59" x="781.65" y="233.1387">«Service»</text><text fill="#000000" font-family="sans-serif" font-size="12" font-style="italic" lengthAdjust="spacingAndGlyphs" textLength="89" x="766.65" y="247.1074">OrderManager</text><rect fill="#FFFFFF" height="15.9688" style="stroke: #000000; stroke-width: 1.0; stroke-dasharray: 2.0,2.0;" width="101" x="869.5" y="214"/><text fill="#000000" font-family="sans-serif" font-size="12" font-style="italic" lengthAdjust="spacingAndGlyphs" textLength="99" x="870.5" y="226.1387">T extends Order</text><line style="stroke: #000000; stroke-width: 1.5;" x1="731.5" x2="966.5" y1="254.9375" y2="254.9375"/><line style="stroke: #000000; stroke-width: 1.5;" x1="731.5" x2="966.5" y1="262.9375" y2="262.9375"/><text fill="#000000" font-family="sans-serif" font-size="11" lengthAdjust="spacingAndGlyphs" textLength="150" x="736.5" y="277.1479">+cancelOrder(T) : boolean</text><text fill="#000000" font-family="sans-serif" font-size="11" lengthAdjust="spacingAndGlyphs" textLength="144" x="736.5" y="289.9526">+completeOrder(T) : void</text><text fill="#000000" font-family="sans-serif" font-size="11" lengthAdjust="spacingAndGlyphs" textLength="205" x="736.5" y="302.7573">+contains(OrderIdentifier) : boolean</text><text fill="#000000" font-family="sans-serif" font-size="11" lengthAdjust="spacingAndGlyphs" textLength="225" x="736.5" y="315.562">+findBy(OrderStatus) : Streamable&lt;T&gt;</text><text fill="#000000" font-family="sans-serif" font-size="11" lengthAdjust="spacingAndGlyphs" textLength="202" x="736.5" y="328.3667">+get(OrderIdentifier) : Optional&lt;T&gt;</text><text fill="#000000" font-family="sans-serif" font-size="11" lengthAdjust="spacingAndGlyphs" textLength="70" x="736.5" y="341.1714">+save(T) : T</text><!--class org.salespointframework.order.Order--><rect fill="url(#g1wd05c6mozv4i0)" filter="url(#f1wd05c6mozv4i)" height="425.2734" id="org.salespointframework.order.Order" style="stroke: #000000; stroke-width: 1.5;" width="278" x="344" y="70"/><ellipse cx="455.75" cy="88.9688" fill="#ADD1B2" rx="11" ry="11" style="stroke: #000000; stroke-width: 1.0;"/><path d="M458.7188,94.6094 Q458.1406,94.9063 457.5,95.0469 Q456.8594,95.2031 456.1563,95.2031 Q453.6563,95.2031 452.3281,93.5625 Q451.0156,91.9063 451.0156,88.7813 Q451.0156,85.6563 452.3281,84 Q453.6563,82.3438 456.1563,82.3438 Q456.8594,82.3438 457.5,82.5 Q458.1563,82.6563 458.7188,82.9531 L458.7188,85.6719 Q458.0938,85.0938 457.5,84.8281 Q456.9063,84.5469 456.2813,84.5469 Q454.9375,84.5469 454.25,85.625 Q453.5625,86.6875 453.5625,88.7813 Q453.5625,90.875 454.25,91.9531 Q454.9375,93.0156 456.2813,93.0156 Q456.9063,93.0156 457.5,92.75 Q458.0938,92.4688 458.7188,91.8906 L458.7188,94.6094 Z "/><text fill="#000000" font-family="sans-serif" font-size="12" font-style="italic" lengthAdjust="spacingAndGlyphs" textLength="50" x="474.25" y="86.1387">«Entity»</text><text fill="#000000" font-family="sans-serif" font-size="12" lengthAdjust="spacingAndGlyphs" textLength="35" x="481.75" y="100.1074">Order</text><line style="stroke: #000000; stroke-width: 1.5;" x1="345" x2="621" y1="107.9375" y2="107.9375"/><text fill="#000000" font-family="sans-serif" font-size="11" lengthAdjust="spacingAndGlyphs" textLength="180" x="350" y="122.1479">-orderIdentifier : OrderIdentifier</text><text fill="#000000" font-family="sans-serif" font-size="11" lengthAdjust="spacingAndGlyphs" textLength="196" x="350" y="134.9526">-paymentMethod : PaymentMethod</text><text fill="#000000" font-family="sans-serif" font-size="11" lengthAdjust="spacingAndGlyphs" textLength="157" x="350" y="147.7573">-userAccount : UserAccount</text><text fill="#000000" font-family="sans-serif" font-size="11" lengthAdjust="spacingAndGlyphs" textLength="169" x="350" y="160.562">-dateCreated : LocalDateTime</text><text fill="#000000" font-family="sans-serif" font-size="11" lengthAdjust="spacingAndGlyphs" textLength="154" x="350" y="173.3667">-orderStatus : OrderStatus</text><text fill="#000000" font-family="sans-serif" font-size="11" lengthAdjust="spacingAndGlyphs" textLength="170" x="350" y="186.1714">-orderLines : Set&lt;OrderLine&gt;</text><text fill="#000000" font-family="sans-serif" font-size="11" lengthAdjust="spacingAndGlyphs" textLength="193" x="350" y="198.9761">-chargeLines : Set&lt;ChargeLines&gt;</text><line style="stroke: #000000; stroke-width: 1.5;" x1="345" x2="621" y1="205.5703" y2="205.5703"/><text fill="#000000" font-family="sans-serif" font-size="11" lengthAdjust="spacingAndGlyphs" textLength="121" x="350" y="219.7808">+Order(UserAccount)</text><text fill="#000000" font-family="sans-serif" font-size="11" lengthAdjust="spacingAndGlyphs" textLength="137" x="350" y="232.5854">+add(ChargeLine) : void</text><text fill="#000000" font-family="sans-serif" font-size="11" lengthAdjust="spacingAndGlyphs" textLength="159" x="350" y="245.3901">+remove(ChargeLine) : void</text><text fill="#000000" font-family="sans-serif" font-size="11" lengthAdjust="spacingAndGlyphs" textLength="266" x="350" y="258.1948">+getChargeLines() : Streamable&lt;ChargeLine&gt;</text><text fill="#000000" font-family="sans-serif" font-size="11" lengthAdjust="spacingAndGlyphs" textLength="241" x="350" y="270.9995">+getChargeLinesPrice() : MonetaryAmount</text><text fill="#000000" font-family="sans-serif" font-size="11" lengthAdjust="spacingAndGlyphs" textLength="129" x="350" y="283.8042">+add(OrderLine) : void</text><text fill="#000000" font-family="sans-serif" font-size="11" lengthAdjust="spacingAndGlyphs" textLength="151" x="350" y="296.6089">+remove(OrderLine) : void</text><text fill="#000000" font-family="sans-serif" font-size="11" lengthAdjust="spacingAndGlyphs" textLength="250" x="350" y="309.4136">+getOrderLines() : Streamable&lt;OrderLine&gt;</text><text fill="#000000" font-family="sans-serif" font-size="11" lengthAdjust="spacingAndGlyphs" textLength="247" x="350" y="322.2183">+getOrderedLinesPrice() : MonetaryAmount</text><text fill="#000000" font-family="sans-serif" font-size="11" lengthAdjust="spacingAndGlyphs" textLength="201" x="350" y="335.0229">+getDateCreated() : LocalDateTime</text><text fill="#000000" font-family="sans-serif" font-size="11" lengthAdjust="spacingAndGlyphs" textLength="140" x="350" y="347.8276">+getId() : OrderIdentifier</text><text fill="#000000" font-family="sans-serif" font-size="11" lengthAdjust="spacingAndGlyphs" textLength="187" x="350" y="360.6323">+getOrderStatus() : OrderStatus</text><text fill="#000000" font-family="sans-serif" font-size="11" lengthAdjust="spacingAndGlyphs" textLength="198" x="350" y="373.437">+getTotalPrice() : MonetaryAmount</text><text fill="#000000" font-family="sans-serif" font-size="11" lengthAdjust="spacingAndGlyphs" textLength="114" x="350" y="386.2417">+isOpen() : boolean</text><text fill="#000000" font-family="sans-serif" font-size="11" lengthAdjust="spacingAndGlyphs" textLength="108" x="350" y="399.0464">+isPaid() : boolean</text><text fill="#000000" font-family="sans-serif" font-size="11" lengthAdjust="spacingAndGlyphs" textLength="145" x="350" y="411.8511">+isCompleted() : boolean</text><text fill="#000000" font-family="sans-serif" font-size="11" lengthAdjust="spacingAndGlyphs" textLength="139" x="350" y="424.6558">+isCancelled() : boolean</text><text fill="#000000" font-family="sans-serif" font-size="11" lengthAdjust="spacingAndGlyphs" textLength="114" x="350" y="437.4604">+complete() : Order</text><text fill="#000000" font-family="sans-serif" font-size="11" lengthAdjust="spacingAndGlyphs" textLength="88" x="350" y="450.2651">+cancel() : void</text><text fill="#000000" font-family="sans-serif" font-size="11" lengthAdjust="spacingAndGlyphs" textLength="174" x="350" y="463.0698">+getNumberOfLineItems() : int</text><text fill="#000000" font-family="sans-serif" font-size="11" lengthAdjust="spacingAndGlyphs" textLength="115" x="350" y="475.8745">+markPaid() : Order</text><text fill="#000000" font-family="sans-serif" font-size="11" lengthAdjust="spacingAndGlyphs" textLength="157" x="350" y="488.6792">-assertOrderIsOpen() : void</text><!--class org.salespointframework.order.Cart--><rect fill="url(#g1wd05c6mozv4i0)" filter="url(#f1wd05c6mozv4i)" height="194.7891" id="org.salespointframework.order.Cart" style="stroke: #000000; stroke-width: 1.5;" width="297" x="1002.5" y="185"/><ellipse cx="1123.75" cy="203.9688" fill="#ADD1B2" rx="11" ry="11" style="stroke: #000000; stroke-width: 1.0;"/><path d="M1126.7188,209.6094 Q1126.1406,209.9063 1125.5,210.0469 Q1124.8594,210.2031 1124.1563,210.2031 Q1121.6563,210.2031 1120.3281,208.5625 Q1119.0156,206.9063 1119.0156,203.7813 Q1119.0156,200.6563 1120.3281,199 Q1121.6563,197.3438 1124.1563,197.3438 Q1124.8594,197.3438 1125.5,197.5 Q1126.1563,197.6563 1126.7188,197.9531 L1126.7188,200.6719 Q1126.0938,200.0938 1125.5,199.8281 Q1124.9063,199.5469 1124.2813,199.5469 Q1122.9375,199.5469 1122.25,200.625 Q1121.5625,201.6875 1121.5625,203.7813 Q1121.5625,205.875 1122.25,206.9531 Q1122.9375,208.0156 1124.2813,208.0156 Q1124.9063,208.0156 1125.5,207.75 Q1126.0938,207.4688 1126.7188,206.8906 L1126.7188,209.6094 Z "/><text fill="#000000" font-family="sans-serif" font-size="12" font-style="italic" lengthAdjust="spacingAndGlyphs" textLength="50" x="1142.25" y="201.1387">«Entity»</text><text fill="#000000" font-family="sans-serif" font-size="12" lengthAdjust="spacingAndGlyphs" textLength="26" x="1154.25" y="215.1074">Cart</text><line style="stroke: #000000; stroke-width: 1.5;" x1="1003.5" x2="1298.5" y1="222.9375" y2="222.9375"/><line style="stroke: #000000; stroke-width: 1.5;" x1="1003.5" x2="1298.5" y1="230.9375" y2="230.9375"/><text fill="#000000" font-family="sans-serif" font-size="11" lengthAdjust="spacingAndGlyphs" textLength="155" x="1008.5" y="245.1479">+addItemTo(Order) : Order</text><text fill="#000000" font-family="sans-serif" font-size="11" lengthAdjust="spacingAndGlyphs" textLength="253" x="1008.5" y="257.9526">+addOrUpdateItem(Product, long) : CartItem</text><text fill="#000000" font-family="sans-serif" font-size="11" lengthAdjust="spacingAndGlyphs" textLength="285" x="1008.5" y="270.7573">+addOrUpdateItem(Product, Quantity) : CartItem+</text><text fill="#000000" font-family="sans-serif" font-size="11" lengthAdjust="spacingAndGlyphs" textLength="80" x="1008.5" y="283.562">+clear() : void</text><text fill="#000000" font-family="sans-serif" font-size="11" lengthAdjust="spacingAndGlyphs" textLength="220" x="1008.5" y="296.3667">+createOrderFor(UserAccount) : Order</text><text fill="#000000" font-family="sans-serif" font-size="11" lengthAdjust="spacingAndGlyphs" textLength="220" x="1008.5" y="309.1714">+getItem(String) : Optional&lt;CartItem&gt;</text><text fill="#000000" font-family="sans-serif" font-size="11" lengthAdjust="spacingAndGlyphs" textLength="170" x="1008.5" y="321.9761">+getPrice() : MonetaryAmount</text><text fill="#000000" font-family="sans-serif" font-size="11" lengthAdjust="spacingAndGlyphs" textLength="119" x="1008.5" y="334.7808">+isEmpty() : boolean</text><text fill="#000000" font-family="sans-serif" font-size="11" lengthAdjust="spacingAndGlyphs" textLength="180" x="1008.5" y="347.5854">+iterator() : Iterator&lt;CartItem&gt;</text><text fill="#000000" font-family="sans-serif" font-size="11" lengthAdjust="spacingAndGlyphs" textLength="245" x="1008.5" y="360.3901">+removeItem(String) : Optional&lt;CartItem&gt;</text><text fill="#000000" font-family="sans-serif" font-size="11" lengthAdjust="spacingAndGlyphs" textLength="251" x="1008.5" y="373.1948">+sumUp(Iterable&lt;? extends Priced&gt; priced)</text><!--class org.salespointframework.order.CartItem--><rect fill="url(#g1wd05c6mozv4i0)" filter="url(#f1wd05c6mozv4i)" height="143.5703" id="org.salespointframework.order.CartItem" style="stroke: #000000; stroke-width: 1.5;" width="331" x="968.5" y="555"/><ellipse cx="1103.25" cy="573.9688" fill="#ADD1B2" rx="11" ry="11" style="stroke: #000000; stroke-width: 1.0;"/><path d="M1106.2188,579.6094 Q1105.6406,579.9063 1105,580.0469 Q1104.3594,580.2031 1103.6563,580.2031 Q1101.1563,580.2031 1099.8281,578.5625 Q1098.5156,576.9063 1098.5156,573.7813 Q1098.5156,570.6563 1099.8281,569 Q1101.1563,567.3438 1103.6563,567.3438 Q1104.3594,567.3438 1105,567.5 Q1105.6563,567.6563 1106.2188,567.9531 L1106.2188,570.6719 Q1105.5938,570.0938 1105,569.8281 Q1104.4063,569.5469 1103.7813,569.5469 Q1102.4375,569.5469 1101.75,570.625 Q1101.0625,571.6875 1101.0625,573.7813 Q1101.0625,575.875 1101.75,576.9531 Q1102.4375,578.0156 1103.7813,578.0156 Q1104.4063,578.0156 1105,577.75 Q1105.5938,577.4688 1106.2188,576.8906 L1106.2188,579.6094 Z "/><text fill="#000000" font-family="sans-serif" font-size="12" font-style="italic" lengthAdjust="spacingAndGlyphs" textLength="50" x="1125.25" y="571.1387">«Entity»</text><text fill="#000000" font-family="sans-serif" font-size="12" lengthAdjust="spacingAndGlyphs" textLength="53" x="1123.75" y="585.1074">CartItem</text><line style="stroke: #000000; stroke-width: 1.5;" x1="969.5" x2="1298.5" y1="592.9375" y2="592.9375"/><line style="stroke: #000000; stroke-width: 1.5;" x1="969.5" x2="1298.5" y1="600.9375" y2="600.9375"/><text fill="#000000" font-family="sans-serif" font-size="11" lengthAdjust="spacingAndGlyphs" textLength="92" x="974.5" y="615.1479">+getID() : String</text><text fill="#000000" font-family="sans-serif" font-size="11" lengthAdjust="spacingAndGlyphs" textLength="170" x="974.5" y="627.9526">+getPrice() : MonetaryAmount</text><text fill="#000000" font-family="sans-serif" font-size="11" lengthAdjust="spacingAndGlyphs" textLength="133" x="974.5" y="640.7573">+getProduct() : Product</text><text fill="#000000" font-family="sans-serif" font-size="11" lengthAdjust="spacingAndGlyphs" textLength="157" x="974.5" y="653.562">+getProductName() : String</text><text fill="#000000" font-family="sans-serif" font-size="11" lengthAdjust="spacingAndGlyphs" textLength="141" x="974.5" y="666.3667">+getQuantity() : Quantity</text><text fill="#000000" font-family="sans-serif" font-size="11" lengthAdjust="spacingAndGlyphs" textLength="100" x="974.5" y="679.1714">+hashCode() : int</text><text fill="#000000" font-family="sans-serif" font-size="11" lengthAdjust="spacingAndGlyphs" textLength="319" x="974.5" y="691.9761">+sumUp(Iterable&lt;? extends Priced&gt;) : MonetaryAmount</text><!--class org.salespointframework.order.OrderLine--><rect fill="url(#g1wd05c6mozv4i0)" filter="url(#f1wd05c6mozv4i)" height="130.7656" id="org.salespointframework.order.OrderLine" style="stroke: #000000; stroke-width: 1.5;" width="331" x="244.5" y="561.5"/><ellipse cx="375.75" cy="580.4688" fill="#ADD1B2" rx="11" ry="11" style="stroke: #000000; stroke-width: 1.0;"/><path d="M378.7188,586.1094 Q378.1406,586.4063 377.5,586.5469 Q376.8594,586.7031 376.1563,586.7031 Q373.6563,586.7031 372.3281,585.0625 Q371.0156,583.4063 371.0156,580.2813 Q371.0156,577.1563 372.3281,575.5 Q373.6563,573.8438 376.1563,573.8438 Q376.8594,573.8438 377.5,574 Q378.1563,574.1563 378.7188,574.4531 L378.7188,577.1719 Q378.0938,576.5938 377.5,576.3281 Q376.9063,576.0469 376.2813,576.0469 Q374.9375,576.0469 374.25,577.125 Q373.5625,578.1875 373.5625,580.2813 Q373.5625,582.375 374.25,583.4531 Q374.9375,584.5156 376.2813,584.5156 Q376.9063,584.5156 377.5,584.25 Q378.0938,583.9688 378.7188,583.3906 L378.7188,586.1094 Z "/><text fill="#000000" font-family="sans-serif" font-size="12" font-style="italic" lengthAdjust="spacingAndGlyphs" textLength="50" x="401.25" y="577.6387">«Entity»</text><text fill="#000000" font-family="sans-serif" font-size="12" lengthAdjust="spacingAndGlyphs" textLength="60" x="396.25" y="591.6074">OrderLine</text><line style="stroke: #000000; stroke-width: 1.5;" x1="245.5" x2="574.5" y1="599.4375" y2="599.4375"/><line style="stroke: #000000; stroke-width: 1.5;" x1="245.5" x2="574.5" y1="607.4375" y2="607.4375"/><text fill="#000000" font-family="sans-serif" font-size="11" lengthAdjust="spacingAndGlyphs" textLength="163" x="250.5" y="621.6479">+getId() : OrderLineIdentifier</text><text fill="#000000" font-family="sans-serif" font-size="11" lengthAdjust="spacingAndGlyphs" textLength="170" x="250.5" y="634.4526">+getPrice() : MonetaryAmount</text><text fill="#000000" font-family="sans-serif" font-size="11" lengthAdjust="spacingAndGlyphs" textLength="233" x="250.5" y="647.2573">+getProductIdentifier() : ProductIdentifier</text><text fill="#000000" font-family="sans-serif" font-size="11" lengthAdjust="spacingAndGlyphs" textLength="157" x="250.5" y="660.062">+getProductName() : String</text><text fill="#000000" font-family="sans-serif" font-size="11" lengthAdjust="spacingAndGlyphs" textLength="141" x="250.5" y="672.8667">+getQuantity() : Quantity</text><text fill="#000000" font-family="sans-serif" font-size="11" lengthAdjust="spacingAndGlyphs" textLength="319" x="250.5" y="685.6714">+sumUp(Iterable&lt;? extends Priced&gt;) : MonetaryAmount</text><!--class org.salespointframework.order.ChargeLine--><rect fill="url(#g1wd05c6mozv4i0)" filter="url(#f1wd05c6mozv4i)" height="79.5469" id="org.salespointframework.order.ChargeLine" style="stroke: #000000; stroke-width: 1.5;" width="322" x="611" y="587"/><ellipse cx="732.75" cy="605.9688" fill="#ADD1B2" rx="11" ry="11" style="stroke: #000000; stroke-width: 1.0;"/><path d="M735.7188,611.6094 Q735.1406,611.9063 734.5,612.0469 Q733.8594,612.2031 733.1563,612.2031 Q730.6563,612.2031 729.3281,610.5625 Q728.0156,608.9063 728.0156,605.7813 Q728.0156,602.6563 729.3281,601 Q730.6563,599.3438 733.1563,599.3438 Q733.8594,599.3438 734.5,599.5 Q735.1563,599.6563 735.7188,599.9531 L735.7188,602.6719 Q735.0938,602.0938 734.5,601.8281 Q733.9063,601.5469 733.2813,601.5469 Q731.9375,601.5469 731.25,602.625 Q730.5625,603.6875 730.5625,605.7813 Q730.5625,607.875 731.25,608.9531 Q731.9375,610.0156 733.2813,610.0156 Q733.9063,610.0156 734.5,609.75 Q735.0938,609.4688 735.7188,608.8906 L735.7188,611.6094 Z "/><text fill="#000000" font-family="sans-serif" font-size="12" font-style="italic" lengthAdjust="spacingAndGlyphs" textLength="50" x="763.25" y="603.1387">«Entity»</text><text fill="#000000" font-family="sans-serif" font-size="12" lengthAdjust="spacingAndGlyphs" textLength="70" x="753.25" y="617.1074">ChargeLine</text><line style="stroke: #000000; stroke-width: 1.5;" x1="612" x2="932" y1="624.9375" y2="624.9375"/><line style="stroke: #000000; stroke-width: 1.5;" x1="612" x2="932" y1="632.9375" y2="632.9375"/><text fill="#000000" font-family="sans-serif" font-size="11" lengthAdjust="spacingAndGlyphs" textLength="162" x="617" y="647.1479">getId() : ChargeLineIdentifier</text><text fill="#000000" font-family="sans-serif" font-size="11" lengthAdjust="spacingAndGlyphs" textLength="310" x="617" y="659.9526">sumUp(Iterable&lt;? extends Priced&gt;) : MonetaryAmount</text><!--class org.salespointframework.order.OrderStatus--><rect fill="url(#g1wd05c6mozv4i0)" filter="url(#f1wd05c6mozv4i)" height="124.8281" id="org.salespointframework.order.OrderStatus" style="stroke: #000000; stroke-width: 1.5;" width="179" x="30.5" y="564.5"/><ellipse cx="77.75" cy="580.5" fill="#EB937F" rx="11" ry="11" style="stroke: #000000; stroke-width: 1.0;"/><path d="M81.8594,586.5 L74.1406,586.5 L74.1406,574.1094 L81.8594,574.1094 L81.8594,576.2656 L76.5938,576.2656 L76.5938,578.9375 L81.3594,578.9375 L81.3594,581.0938 L76.5938,581.0938 L76.5938,584.3438 L81.8594,584.3438 L81.8594,586.5 Z "/><text fill="#000000" font-family="sans-serif" font-size="12" lengthAdjust="spacingAndGlyphs" textLength="76" x="98.25" y="584.6543">OrderStatus</text><line style="stroke: #000000; stroke-width: 1.5;" x1="31.5" x2="208.5" y1="596.5" y2="596.5"/><text fill="#000000" font-family="sans-serif" font-size="11" lengthAdjust="spacingAndGlyphs" textLength="65" x="36.5" y="610.7104">CANCELLED</text><text fill="#000000" font-family="sans-serif" font-size="11" lengthAdjust="spacingAndGlyphs" textLength="68" x="36.5" y="623.5151">COMPLETED</text><text fill="#000000" font-family="sans-serif" font-size="11" lengthAdjust="spacingAndGlyphs" textLength="31" x="36.5" y="636.3198">OPEN</text><text fill="#000000" font-family="sans-serif" font-size="11" lengthAdjust="spacingAndGlyphs" textLength="25" x="36.5" y="649.1245">PAID</text><line style="stroke: #000000; stroke-width: 1.5;" x1="31.5" x2="208.5" y1="655.7188" y2="655.7188"/><text fill="#000000" font-family="sans-serif" font-size="11" lengthAdjust="spacingAndGlyphs" text-decoration="underline" textLength="167" x="36.5" y="669.9292">valueOf(String) : OrderStatus</text><line style="stroke: #000000; stroke-width: 1.0;" x1="36.5" x2="203.5" y1="671.9292" y2="671.9292"/><text fill="#000000" font-family="sans-serif" font-size="11" lengthAdjust="spacingAndGlyphs" text-decoration="underline" textLength="135" x="36.5" y="682.7339">values() : OrderStatus[]</text><line style="stroke: #000000; stroke-width: 1.0;" x1="36.5" x2="171.5" y1="684.7339" y2="684.7339"/><!--class bioladen.order.Order--><rect fill="url(#g1wd05c6mozv4i0)" filter="url(#f1wd05c6mozv4i)" height="79.5469" id="bioladen.order.Order" style="stroke: #000000; stroke-width: 1.5;" width="201" x="2010.5" y="587"/><ellipse cx="2083.75" cy="605.9688" fill="#ADD1B2" rx="11" ry="11" style="stroke: #000000; stroke-width: 1.0;"/><path d="M2086.7188,611.6094 Q2086.1406,611.9063 2085.5,612.0469 Q2084.8594,612.2031 2084.1563,612.2031 Q2081.6563,612.2031 2080.3281,610.5625 Q2079.0156,608.9063 2079.0156,605.7813 Q2079.0156,602.6563 2080.3281,601 Q2081.6563,599.3438 2084.1563,599.3438 Q2084.8594,599.3438 2085.5,599.5 Q2086.1563,599.6563 2086.7188,599.9531 L2086.7188,602.6719 Q2086.0938,602.0938 2085.5,601.8281 Q2084.9063,601.5469 2084.2813,601.5469 Q2082.9375,601.5469 2082.25,602.625 Q2081.5625,603.6875 2081.5625,605.7813 Q2081.5625,607.875 2082.25,608.9531 Q2082.9375,610.0156 2084.2813,610.0156 Q2084.9063,610.0156 2085.5,609.75 Q2086.0938,609.4688 2086.7188,608.8906 L2086.7188,611.6094 Z "/><text fill="#000000" font-family="sans-serif" font-size="12" font-style="italic" lengthAdjust="spacingAndGlyphs" textLength="50" x="2102.25" y="603.1387">«Entity»</text><text fill="#000000" font-family="sans-serif" font-size="12" lengthAdjust="spacingAndGlyphs" textLength="35" x="2109.75" y="617.1074">Order</text><line style="stroke: #000000; stroke-width: 1.5;" x1="2011.5" x2="2210.5" y1="624.9375" y2="624.9375"/><text fill="#000000" font-family="sans-serif" font-size="11" lengthAdjust="spacingAndGlyphs" textLength="135" x="2016.5" y="639.1479">-distributor : Distributor</text><line style="stroke: #000000; stroke-width: 1.5;" x1="2011.5" x2="2210.5" y1="645.7422" y2="645.7422"/><text fill="#000000" font-family="sans-serif" font-size="11" lengthAdjust="spacingAndGlyphs" textLength="189" x="2016.5" y="659.9526">+Order(UserAccount, Distributor)</text><!--class bioladen.order.OrderAssistant--><rect fill="url(#g1wd05c6mozv4i0)" filter="url(#f1wd05c6mozv4i)" height="79.5469" id="bioladen.order.OrderAssistant" style="stroke: #000000; stroke-width: 1.5;" width="330" x="1645" y="587"/><ellipse cx="1759.25" cy="605.9688" fill="#ADD1B2" rx="11" ry="11" style="stroke: #000000; stroke-width: 1.0;"/><path d="M1762.2188,611.6094 Q1761.6406,611.9063 1761,612.0469 Q1760.3594,612.2031 1759.6563,612.2031 Q1757.1563,612.2031 1755.8281,610.5625 Q1754.5156,608.9063 1754.5156,605.7813 Q1754.5156,602.6563 1755.8281,601 Q1757.1563,599.3438 1759.6563,599.3438 Q1760.3594,599.3438 1761,599.5 Q1761.6563,599.6563 1762.2188,599.9531 L1762.2188,602.6719 Q1761.5938,602.0938 1761,601.8281 Q1760.4063,601.5469 1759.7813,601.5469 Q1758.4375,601.5469 1757.75,602.625 Q1757.0625,603.6875 1757.0625,605.7813 Q1757.0625,607.875 1757.75,608.9531 Q1758.4375,610.0156 1759.7813,610.0156 Q1760.4063,610.0156 1761,609.75 Q1761.5938,609.4688 1762.2188,608.8906 L1762.2188,611.6094 Z "/><text fill="#000000" font-family="sans-serif" font-size="12" font-style="italic" lengthAdjust="spacingAndGlyphs" textLength="59" x="1796.75" y="603.1387">«Service»</text><text fill="#000000" font-family="sans-serif" font-size="12" lengthAdjust="spacingAndGlyphs" textLength="93" x="1779.75" y="617.1074">OrderAssistant</text><line style="stroke: #000000; stroke-width: 1.5;" x1="1646" x2="1974" y1="624.9375" y2="624.9375"/><text fill="#000000" font-family="sans-serif" font-size="11" lengthAdjust="spacingAndGlyphs" textLength="318" x="1651" y="639.1479">-productsToBeOrdered : Map&lt;DistributorProduct, long&gt;</text><line style="stroke: #000000; stroke-width: 1.5;" x1="1646" x2="1974" y1="645.7422" y2="645.7422"/><text fill="#000000" font-family="sans-serif" font-size="11" lengthAdjust="spacingAndGlyphs" textLength="168" x="1651" y="659.9526">+getAvailable(Product, long) :</text><!--class bioladen.order.AvailabilityFlag--><rect fill="url(#g1wd05c6mozv4i0)" filter="url(#f1wd05c6mozv4i)" height="73.6094" id="bioladen.order.AvailabilityFlag" style="stroke: #000000; stroke-width: 1.5;" width="270" x="1340" y="590"/><ellipse cx="1425.75" cy="606" fill="#EB937F" rx="11" ry="11" style="stroke: #000000; stroke-width: 1.0;"/><path d="M1429.8594,612 L1422.1406,612 L1422.1406,599.6094 L1429.8594,599.6094 L1429.8594,601.7656 L1424.5938,601.7656 L1424.5938,604.4375 L1429.3594,604.4375 L1429.3594,606.5938 L1424.5938,606.5938 L1424.5938,609.8438 L1429.8594,609.8438 L1429.8594,612 Z "/><text fill="#000000" font-family="sans-serif" font-size="12" lengthAdjust="spacingAndGlyphs" textLength="90" x="1446.25" y="610.1543">AvailabilityFlag</text><line style="stroke: #000000; stroke-width: 1.5;" x1="1341" x2="1609" y1="622" y2="622"/><text fill="#000000" font-family="sans-serif" font-size="11" lengthAdjust="spacingAndGlyphs" textLength="183" x="1346" y="636.2104">OVER_MINIMUM_ORDER_AMOUNT</text><line style="stroke: #000000; stroke-width: 1.5;" x1="1341" x2="1609" y1="642.8047" y2="642.8047"/><text fill="#000000" font-family="sans-serif" font-size="11" lengthAdjust="spacingAndGlyphs" textLength="258" x="1346" y="657.0151">UNDER_MINIMUM_ORDER_AMOUNT(CHEAPEST)</text><!--class bioladen.product.ProductCatalog--><rect fill="url(#g1wd05c6mozv4i0)" filter="url(#f1wd05c6mozv4i)" height="53.9375" id="bioladen.product.ProductCatalog" style="stroke: #000000; stroke-width: 1.5;" width="128" x="2247" y="600"/><ellipse cx="2262" cy="618.9688" fill="#B4A7E5" rx="11" ry="11" style="stroke: #000000; stroke-width: 1.0;"/><path d="M2257.9219,614.7344 L2257.9219,612.5781 L2265.3125,612.5781 L2265.3125,614.7344 L2262.8438,614.7344 L2262.8438,622.8125 L2265.3125,622.8125 L2265.3125,624.9688 L2257.9219,624.9688 L2257.9219,622.8125 L2260.3906,622.8125 L2260.3906,614.7344 L2257.9219,614.7344 Z "/><text fill="#000000" font-family="sans-serif" font-size="12" font-style="italic" lengthAdjust="spacingAndGlyphs" textLength="80" x="2284" y="616.1387">«Repository»</text><text fill="#000000" font-family="sans-serif" font-size="12" font-style="italic" lengthAdjust="spacingAndGlyphs" textLength="96" x="2276" y="630.1074">ProductCatalog</text><line style="stroke: #000000; stroke-width: 1.5;" x1="2248" x2="2374" y1="637.9375" y2="637.9375"/><line style="stroke: #000000; stroke-width: 1.5;" x1="2248" x2="2374" y1="645.9375" y2="645.9375"/><!--class bioladen.product.DistributorProductCatalog--><rect fill="url(#g1wd05c6mozv4i0)" filter="url(#f1wd05c6mozv4i)" height="53.9375" id="bioladen.product.DistributorProductCatalog" style="stroke: #000000; stroke-width: 1.5;" width="193" x="2305.5" y="759"/><ellipse cx="2320.5" cy="777.9688" fill="#B4A7E5" rx="11" ry="11" style="stroke: #000000; stroke-width: 1.0;"/><path d="M2316.4219,773.7344 L2316.4219,771.5781 L2323.8125,771.5781 L2323.8125,773.7344 L2321.3438,773.7344 L2321.3438,781.8125 L2323.8125,781.8125 L2323.8125,783.9688 L2316.4219,783.9688 L2316.4219,781.8125 L2318.8906,781.8125 L2318.8906,773.7344 L2316.4219,773.7344 Z "/><text fill="#000000" font-family="sans-serif" font-size="12" font-style="italic" lengthAdjust="spacingAndGlyphs" textLength="80" x="2375" y="775.1387">«Repository»</text><text fill="#000000" font-family="sans-serif" font-size="12" font-style="italic" lengthAdjust="spacingAndGlyphs" textLength="161" x="2334.5" y="789.1074">DistributorProductCatalog</text><line style="stroke: #000000; stroke-width: 1.5;" x1="2306.5" x2="2497.5" y1="796.9375" y2="796.9375"/><line style="stroke: #000000; stroke-width: 1.5;" x1="2306.5" x2="2497.5" y1="804.9375" y2="804.9375"/><!--class bioladen.product.DistributorProduct--><rect fill="url(#g1wd05c6mozv4i0)" filter="url(#f1wd05c6mozv4i)" height="53.9375" id="bioladen.product.DistributorProduct" style="stroke: #000000; stroke-width: 1.5;" width="147" x="2410.5" y="600"/><ellipse cx="2425.5" cy="618.9688" fill="#ADD1B2" rx="11" ry="11" style="stroke: #000000; stroke-width: 1.0;"/><path d="M2428.4688,624.6094 Q2427.8906,624.9063 2427.25,625.0469 Q2426.6094,625.2031 2425.9063,625.2031 Q2423.4063,625.2031 2422.0781,623.5625 Q2420.7656,621.9063 2420.7656,618.7813 Q2420.7656,615.6563 2422.0781,614 Q2423.4063,612.3438 2425.9063,612.3438 Q2426.6094,612.3438 2427.25,612.5 Q2427.9063,612.6563 2428.4688,612.9531 L2428.4688,615.6719 Q2427.8438,615.0938 2427.25,614.8281 Q2426.6563,614.5469 2426.0313,614.5469 Q2424.6875,614.5469 2424,615.625 Q2423.3125,616.6875 2423.3125,618.7813 Q2423.3125,620.875 2424,621.9531 Q2424.6875,623.0156 2426.0313,623.0156 Q2426.6563,623.0156 2427.25,622.75 Q2427.8438,622.4688 2428.4688,621.8906 L2428.4688,624.6094 Z "/><text fill="#000000" font-family="sans-serif" font-size="12" font-style="italic" lengthAdjust="spacingAndGlyphs" textLength="50" x="2472" y="616.1387">«Entity»</text><text fill="#000000" font-family="sans-serif" font-size="12" lengthAdjust="spacingAndGlyphs" textLength="115" x="2439.5" y="630.1074">DistributorProduct</text><line style="stroke: #000000; stroke-width: 1.5;" x1="2411.5" x2="2556.5" y1="637.9375" y2="637.9375"/><line style="stroke: #000000; stroke-width: 1.5;" x1="2411.5" x2="2556.5" y1="645.9375" y2="645.9375"/><!--class bioladen.product.Product--><rect fill="url(#g1wd05c6mozv4i0)" filter="url(#f1wd05c6mozv4i)" height="53.9375" id="bioladen.product.Product" style="stroke: #000000; stroke-width: 1.5;" width="81" x="2427.5" y="255.5"/><ellipse cx="2442.5" cy="274.4688" fill="#ADD1B2" rx="11" ry="11" style="stroke: #000000; stroke-width: 1.0;"/><path d="M2445.4688,280.1094 Q2444.8906,280.4063 2444.25,280.5469 Q2443.6094,280.7031 2442.9063,280.7031 Q2440.4063,280.7031 2439.0781,279.0625 Q2437.7656,277.4063 2437.7656,274.2813 Q2437.7656,271.1563 2439.0781,269.5 Q2440.4063,267.8438 2442.9063,267.8438 Q2443.6094,267.8438 2444.25,268 Q2444.9063,268.1563 2445.4688,268.4531 L2445.4688,271.1719 Q2444.8438,270.5938 2444.25,270.3281 Q2443.6563,270.0469 2443.0313,270.0469 Q2441.6875,270.0469 2441,271.125 Q2440.3125,272.1875 2440.3125,274.2813 Q2440.3125,276.375 2441,277.4531 Q2441.6875,278.5156 2443.0313,278.5156 Q2443.6563,278.5156 2444.25,278.25 Q2444.8438,277.9688 2445.4688,277.3906 L2445.4688,280.1094 Z "/><text fill="#000000" font-family="sans-serif" font-size="12" font-style="italic" lengthAdjust="spacingAndGlyphs" textLength="50" x="2456" y="271.6387">«Entity»</text><text fill="#000000" font-family="sans-serif" font-size="12" lengthAdjust="spacingAndGlyphs" textLength="49" x="2456.5" y="285.6074">Product</text><line style="stroke: #000000; stroke-width: 1.5;" x1="2428.5" x2="2507.5" y1="293.4375" y2="293.4375"/><line style="stroke: #000000; stroke-width: 1.5;" x1="2428.5" x2="2507.5" y1="301.4375" y2="301.4375"/><!--class bioladen.product.Distributor--><rect fill="url(#g1wd05c6mozv4i0)" filter="url(#f1wd05c6mozv4i)" height="53.9375" id="bioladen.product.Distributor" style="stroke: #000000; stroke-width: 1.5;" width="98" x="2278" y="255.5"/><ellipse cx="2293" cy="274.4688" fill="#ADD1B2" rx="11" ry="11" style="stroke: #000000; stroke-width: 1.0;"/><path d="M2295.9688,280.1094 Q2295.3906,280.4063 2294.75,280.5469 Q2294.1094,280.7031 2293.4063,280.7031 Q2290.9063,280.7031 2289.5781,279.0625 Q2288.2656,277.4063 2288.2656,274.2813 Q2288.2656,271.1563 2289.5781,269.5 Q2290.9063,267.8438 2293.4063,267.8438 Q2294.1094,267.8438 2294.75,268 Q2295.4063,268.1563 2295.9688,268.4531 L2295.9688,271.1719 Q2295.3438,270.5938 2294.75,270.3281 Q2294.1563,270.0469 2293.5313,270.0469 Q2292.1875,270.0469 2291.5,271.125 Q2290.8125,272.1875 2290.8125,274.2813 Q2290.8125,276.375 2291.5,277.4531 Q2292.1875,278.5156 2293.5313,278.5156 Q2294.1563,278.5156 2294.75,278.25 Q2295.3438,277.9688 2295.9688,277.3906 L2295.9688,280.1094 Z "/><text fill="#000000" font-family="sans-serif" font-size="12" font-style="italic" lengthAdjust="spacingAndGlyphs" textLength="50" x="2315" y="271.6387">«Entity»</text><text fill="#000000" font-family="sans-serif" font-size="12" lengthAdjust="spacingAndGlyphs" textLength="66" x="2307" y="285.6074">Distributor</text><line style="stroke: #000000; stroke-width: 1.5;" x1="2279" x2="2375" y1="293.4375" y2="293.4375"/><line style="stroke: #000000; stroke-width: 1.5;" x1="2279" x2="2375" y1="301.4375" y2="301.4375"/><!--link org.salespointframework.order.Order to org.salespointframework.order.OrderStatus--><path d="M343.9522,283 C241.53,283 120,283 120,283 C120,283 120,559.3051 120,559.3051 " fill="none" id="org.salespointframework.order.Order-org.salespointframework.order.OrderStatus" style="stroke: #000000; stroke-width: 1.0;"/><polygon fill="#000000" points="120,564.3051,124,555.3051,120,559.3051,116,555.3051,120,564.3051" style="stroke: #000000; stroke-width: 1.0;"/><!--link org.salespointframework.order.Order to org.salespointframework.order.OrderLine--><path d="M459.75,495.2847 C459.75,495.2847 459.75,556.3056 459.75,556.3056 " fill="none" id="org.salespointframework.order.Order-org.salespointframework.order.OrderLine" style="stroke: #000000; stroke-width: 1.0;"/><polygon fill="#000000" points="459.75,561.3056,463.75,552.3056,459.75,556.3056,455.75,552.3056,459.75,561.3056" style="stroke: #000000; stroke-width: 1.0;"/><!--link org.salespointframework.order.Order to org.salespointframework.order.ChargeLine--><path d="M616.5,495.2847 C616.5,495.2847 616.5,581.7987 616.5,581.7987 " fill="none" id="org.salespointframework.order.Order-org.salespointframework.order.ChargeLine" style="stroke: #000000; stroke-width: 1.0;"/><polygon fill="#000000" points="616.5,586.7987,620.5,577.7987,616.5,581.7987,612.5,577.7987,616.5,586.7987" style="stroke: #000000; stroke-width: 1.0;"/><!--link org.salespointframework.order.Order to bioladen.order.Order--><path d="M642.1541,438 C642.1541,438 2111,438 2111,438 C2111,438 2111,531.4387 2111,586.918 " fill="none" id="org.salespointframework.order.Order-bioladen.order.Order" style="stroke: #000000; stroke-width: 1.0;"/><polygon fill="none" points="642.1541,444.9999,622.1541,438,642.154,430.9999,642.1541,444.9999" style="stroke: #000000; stroke-width: 1.0;"/><!--link bioladen.product.Product to bioladen.product.DistributorProduct--><path d="M2468,322.5323 C2468,322.5323 2468,599.6165 2468,599.6165 " fill="none" id="bioladen.product.Product-bioladen.product.DistributorProduct" style="stroke: #000000; stroke-width: 1.0;"/><polygon fill="#FFFFFF" points="2468,309.5323,2464,315.5323,2468,321.5323,2472,315.5323,2468,309.5323" style="stroke: #000000; stroke-width: 1.0;"/><text fill="#000000" font-family="sans-serif" font-size="13" lengthAdjust="spacingAndGlyphs" textLength="23" x="2442.3406" y="329.6074">0..*</text><text fill="#000000" font-family="sans-serif" font-size="13" lengthAdjust="spacingAndGlyphs" textLength="23" x="2438.9844" y="589.074">0..*</text><!--link bioladen.product.DistributorProduct to bioladen.product.DistributorProductCatalog--><path d="M2454.5,654.3331 C2454.5,654.3331 2454.5,745.758 2454.5,745.758 " fill="none" id="bioladen.product.DistributorProduct-bioladen.product.DistributorProductCatalog" style="stroke: #000000; stroke-width: 1.0;"/><polygon fill="#000000" points="2454.5,758.758,2458.5,752.758,2454.5,746.758,2450.5,752.758,2454.5,758.758" style="stroke: #000000; stroke-width: 1.0;"/><text fill="#000000" font-family="sans-serif" font-size="13" lengthAdjust="spacingAndGlyphs" textLength="23" x="2422.5313" y="674.0411">0..*</text><text fill="#000000" font-family="sans-serif" font-size="13" lengthAdjust="spacingAndGlyphs" textLength="8" x="2457.7156" y="747.8134">1</text><!--link bioladen.product.Product to bioladen.product.ProductCatalog--><path d="M2427.1257,283 C2409.6746,283 2393.25,283 2393.25,283 C2393.25,283 2393.25,627 2393.25,627 C2393.25,627 2388.403,627 2388.403,627 " fill="none" id="bioladen.product.Product-bioladen.product.ProductCatalog" style="stroke: #000000; stroke-width: 1.0;"/><polygon fill="#000000" points="2375.403,627,2381.403,631,2387.403,627,2381.403,623,2375.403,627" style="stroke: #000000; stroke-width: 1.0;"/><text fill="#000000" font-family="sans-serif" font-size="13" lengthAdjust="spacingAndGlyphs" textLength="23" x="2396.4332" y="279.0531">0..*</text><text fill="#000000" font-family="sans-serif" font-size="13" lengthAdjust="spacingAndGlyphs" textLength="8" x="2382.8846" y="623.2573">1</text><!--link bioladen.order.OrderAssistant to bioladen.product.DistributorProductCatalog--><path d="M1810,680.1224 C1810,680.1224 1810,786 1810,786 C1810,786 2137.3871,786 2305.237,786 " fill="none" id="bioladen.order.OrderAssistant-bioladen.product.DistributorProductCatalog" style="stroke: #000000; stroke-width: 1.0;"/><polygon fill="#000000" points="1810,667.1224,1806,673.1224,1810,679.1224,1814,673.1224,1810,667.1224" style="stroke: #000000; stroke-width: 1.0;"/><text fill="#000000" font-family="sans-serif" font-size="13" lengthAdjust="spacingAndGlyphs" textLength="8" x="1801.3875" y="686.5263">1</text><text fill="#000000" font-family="sans-serif" font-size="13" lengthAdjust="spacingAndGlyphs" textLength="8" x="2289.5223" y="782.5002">1</text><!--link org.salespointframework.order.OrderManager to org.salespointframework.order.Cart--><!--link org.salespointframework.order.OrderManager to org.salespointframework.order.CartItem--><!--
@startuml

skinparam class {
	BackgroundColor #LightCoral/LightPink
    BorderColor Black
    ArrowColor  Black
}

skinparam package {
    FontColor Grey
    BorderColor DarkMagenta
}

skinparam classAttributeIconSize 0
skinparam linetype ortho

rectangle salespoint-framework-7.0.0.RELEASE.jar {
    namespace org.salespointframework.order {
        interface OrderManager <T extends Order> <<Service>>{
            +cancelOrder(T) : boolean
            +completeOrder(T) : void
            +contains(OrderIdentifier) : boolean
            +findBy(OrderStatus) : Streamable<T>
            +get(OrderIdentifier) : Optional<T>
            +save(T) : T
        }

        class Order <<Entity>>{
            -orderIdentifier : OrderIdentifier
            -paymentMethod : PaymentMethod
            -userAccount : UserAccount
            -dateCreated : LocalDateTime
            -orderStatus : OrderStatus
            -orderLines : Set<OrderLine>
            -chargeLines : Set<ChargeLines>

            +Order(UserAccount)
            +add(ChargeLine) : void
            +remove(ChargeLine) : void
            +getChargeLines() : Streamable<ChargeLine>
            +getChargeLinesPrice() : MonetaryAmount
            +add(OrderLine) : void
            +remove(OrderLine) : void
            +getOrderLines() : Streamable<OrderLine>
            +getOrderedLinesPrice() : MonetaryAmount
            +getDateCreated() : LocalDateTime
            +getId() : OrderIdentifier
            +getOrderStatus() : OrderStatus
            +getTotalPrice() : MonetaryAmount
            +isOpen() : boolean
            +isPaid() : boolean
            +isCompleted() : boolean
            +isCancelled() : boolean
            +complete() : Order
            +cancel() : void
            +getNumberOfLineItems() : int
            +markPaid() : Order
            -assertOrderIsOpen() : void
        }

        class Cart <<Entity>>{
            +addItemTo(Order) : Order
            +addOrUpdateItem(Product, long) : CartItem
            +addOrUpdateItem(Product, Quantity) : CartItem+
            +clear() : void
            +createOrderFor(UserAccount) : Order
            +getItem(String) : Optional<CartItem>
            +getPrice() : MonetaryAmount
            +isEmpty() : boolean
            +iterator() : Iterator<CartItem>
            +removeItem(String) : Optional<CartItem>
            +sumUp(Iterable<? extends Priced> priced)
        }

        class CartItem <<Entity>>{
            +getID() : String
            +getPrice() : MonetaryAmount
            +getProduct() : Product
            +getProductName() : String
            +getQuantity() : Quantity
            +hashCode() : int
            +sumUp(Iterable<? extends Priced>) : MonetaryAmount
        }

        class OrderLine <<Entity>> {
            +getId() : OrderLineIdentifier
            +getPrice() : MonetaryAmount
            +getProductIdentifier() : ProductIdentifier
            +getProductName() : String
            +getQuantity() : Quantity
            +sumUp(Iterable<? extends Priced>) : MonetaryAmount
        }

        class ChargeLine <<Entity>> {
            getId() : ChargeLineIdentifier
            sumUp(Iterable<? extends Priced>) : MonetaryAmount
        }

        enum OrderStatus {
            CANCELLED
            COMPLETED
            OPEN
            PAID

            {static} valueOf(String) : OrderStatus
            {static} values() : OrderStatus[]
        }


        Order - -> OrderStatus
        Order - -> OrderLine
        Order - -> ChargeLine

    }

}



rectangle Bioladen {
    namespace bioladen.order {
        class Order <<Entity>> extends org.salespointframework.order.Order {
            -distributor : Distributor

            +Order(UserAccount, Distributor)
        }

        class OrderAssistant <<Service>> {
            -productsToBeOrdered : Map<DistributorProduct, long>

            +getAvailable(Product, long) :
        }

        enum AvailabilityFlag {
            UNDER_MINIMUM_ORDER_AMOUNT(CHEAPEST)
            OVER_MINIMUM_ORDER_AMOUNT

        }

    }

    namespace bioladen.product {

        interface ProductCatalog <<Repository>> {

        }

        interface DistributorProductCatalog <<Repository>> {

        }

        class DistributorProduct <<Entity>> {

        }

        class Product <<Entity>> {

        }

        class Distributor <<Entity>> {

        }



        Product "0..*" o- - "0..*" DistributorProduct
        DistributorProduct "0..*" - -* "1" DistributorProductCatalog
        Product "0..*" - -* "1" ProductCatalog


        bioladen.order.OrderAssistant "1" *- - "1" DistributorProductCatalog


    }

}

@enduml

PlantUML version 1.2018.12(Sun Oct 21 12:15:15 CEST 2018)
(GPL source distribution)
Java Runtime: OpenJDK Runtime Environment
JVM: OpenJDK 64-Bit Server VM
Java Version: 11.0.1+13-Debian-2
Operating System: Linux
OS Version: 4.18.0-parrot10-amd64
Default Encoding: UTF-8
Language: en
Country: US
--></g></svg>