<?xml version="1.0" encoding="UTF-8" standalone="no"?><svg xmlns="http://www.w3.org/2000/svg" xmlns:xlink="http://www.w3.org/1999/xlink" contentScriptType="application/ecmascript" contentStyleType="text/css" height="990px" preserveAspectRatio="none" style="width:1989px;height:990px;" version="1.1" viewBox="0 0 1989 990" width="1989px" zoomAndPan="magnify"><defs><filter height="300%" id="fjzwiig6bk9ry" width="300%" x="-1" y="-1"><feGaussianBlur result="blurOut" stdDeviation="2.0"/><feColorMatrix in="blurOut" result="blurOut2" type="matrix" values="0 0 0 0 0 0 0 0 0 0 0 0 0 0 0 0 0 0 .4 0"/><feOffset dx="4.0" dy="4.0" in="blurOut2" result="blurOut3"/><feBlend in="SourceGraphic" in2="blurOut3" mode="normal"/></filter><linearGradient id="gjzwiig6bk9ry0" x1="0%" x2="100%" y1="0%" y2="100%"><stop offset="0%" stop-color="#6495ED"/><stop offset="100%" stop-color="#00FFFF"/></linearGradient><linearGradient id="gjzwiig6bk9ry1" x1="0%" x2="100%" y1="0%" y2="100%"><stop offset="0%" stop-color="#C0C0C0"/><stop offset="100%" stop-color="#FFFFFF"/></linearGradient><linearGradient id="gjzwiig6bk9ry2" x1="0%" x2="100%" y1="0%" y2="100%"><stop offset="0%" stop-color="#32CD32"/><stop offset="100%" stop-color="#90EE90"/></linearGradient><linearGradient id="gjzwiig6bk9ry3" x1="0%" x2="100%" y1="0%" y2="100%"><stop offset="0%" stop-color="#F5A9BC"/><stop offset="100%" stop-color="#FCC4F0"/></linearGradient></defs><g><!--cluster Bioladen--><rect fill="#FFFFFF" filter="url(#fjzwiig6bk9ry)" height="826" style="stroke: #A9A9A9; stroke-width: 1.5;" width="1624" x="14" y="16"/><text fill="#808080" font-family="sans-serif" font-size="14" font-weight="bold" lengthAdjust="spacingAndGlyphs" textLength="67" x="792.5" y="30.9951">Bioladen</text><!--cluster bioladen.finances--><polygon fill="#FFFFFF" filter="url(#fjzwiig6bk9ry)" points="193,43,338,43,345,65.2969,1126,65.2969,1126,834,193,834,193,43" style="stroke: #A9A9A9; stroke-width: 1.5;"/><line style="stroke: #A9A9A9; stroke-width: 1.5;" x1="193" x2="345" y1="65.2969" y2="65.2969"/><text fill="#808080" font-family="sans-serif" font-size="14" font-weight="bold" lengthAdjust="spacingAndGlyphs" textLength="139" x="197" y="57.9951">bioladen.finances</text><!--cluster bioladen.event--><polygon fill="#FFFFFF" filter="url(#fjzwiig6bk9ry)" points="1462,423,1585,423,1592,445.2969,1630,445.2969,1630,506,1462,506,1462,423" style="stroke: #A9A9A9; stroke-width: 1.5;"/><line style="stroke: #A9A9A9; stroke-width: 1.5;" x1="1462" x2="1592" y1="445.2969" y2="445.2969"/><text fill="#808080" font-family="sans-serif" font-size="14" font-weight="bold" lengthAdjust="spacingAndGlyphs" textLength="117" x="1466" y="437.9951">bioladen.event</text><!--cluster ressources.templates--><polygon fill="#FFFFFF" filter="url(#fjzwiig6bk9ry)" points="1134,420.5,1313,420.5,1320,442.7969,1443,442.7969,1443,508.5,1134,508.5,1134,420.5" style="stroke: #A9A9A9; stroke-width: 1.5;"/><line style="stroke: #A9A9A9; stroke-width: 1.5;" x1="1134" x2="1320" y1="442.7969" y2="442.7969"/><text fill="#808080" font-family="sans-serif" font-size="14" font-weight="bold" lengthAdjust="spacingAndGlyphs" textLength="173" x="1138" y="435.4951">ressources.templates</text><!--cluster bioladen.customer--><polygon fill="#FFFFFF" filter="url(#fjzwiig6bk9ry)" points="22,120,175,120,182,142.2969,185,142.2969,185,209,22,209,22,120" style="stroke: #A9A9A9; stroke-width: 1.5;"/><line style="stroke: #A9A9A9; stroke-width: 1.5;" x1="22" x2="182" y1="142.2969" y2="142.2969"/><text fill="#808080" font-family="sans-serif" font-size="14" font-weight="bold" lengthAdjust="spacingAndGlyphs" textLength="147" x="26" y="134.9951">bioladen.customer</text><!--cluster salespoint-framework-7.0.0.RELEASE.jar--><rect fill="#FFFFFF" filter="url(#fjzwiig6bk9ry)" height="124" style="stroke: #A9A9A9; stroke-width: 1.5;" width="332" x="1646" y="93"/><text fill="#808080" font-family="sans-serif" font-size="14" font-weight="bold" lengthAdjust="spacingAndGlyphs" textLength="316" x="1654" y="107.9951">salespoint-framework-7.0.0.RELEASE.jar</text><!--cluster org.salespointframework.context--><polygon fill="#FFFFFF" filter="url(#fjzwiig6bk9ry)" points="1654,120,1924,120,1931,142.2969,1934,142.2969,1934,209,1654,209,1654,120" style="stroke: #A9A9A9; stroke-width: 1.5;"/><line style="stroke: #A9A9A9; stroke-width: 1.5;" x1="1654" x2="1931" y1="142.2969" y2="142.2969"/><text fill="#808080" font-family="sans-serif" font-size="14" font-weight="bold" lengthAdjust="spacingAndGlyphs" textLength="264" x="1658" y="134.9951">org.salespointframework.context</text><!--class bioladen.finances.CashierSystem--><rect fill="url(#gjzwiig6bk9ry0)" filter="url(#fjzwiig6bk9ry)" height="207.5938" id="bioladen.finances.CashierSystem" style="stroke: #000000; stroke-width: 1.5;" width="515" x="602.5" y="70"/><ellipse cx="809.75" cy="88.9688" fill="#ADD1B2" rx="11" ry="11" style="stroke: #000000; stroke-width: 1.0;"/><path d="M812.7188,94.6094 Q812.1406,94.9063 811.5,95.0469 Q810.8594,95.2031 810.1563,95.2031 Q807.6563,95.2031 806.3281,93.5625 Q805.0156,91.9063 805.0156,88.7813 Q805.0156,85.6563 806.3281,84 Q807.6563,82.3438 810.1563,82.3438 Q810.8594,82.3438 811.5,82.5 Q812.1563,82.6563 812.7188,82.9531 L812.7188,85.6719 Q812.0938,85.0938 811.5,84.8281 Q810.9063,84.5469 810.2813,84.5469 Q808.9375,84.5469 808.25,85.625 Q807.5625,86.6875 807.5625,88.7813 Q807.5625,90.875 808.25,91.9531 Q808.9375,93.0156 810.2813,93.0156 Q810.9063,93.0156 811.5,92.75 Q812.0938,92.4688 812.7188,91.8906 L812.7188,94.6094 Z "/><text fill="#000000" font-family="sans-serif" font-size="12" font-style="italic" lengthAdjust="spacingAndGlyphs" textLength="75" x="838.75" y="86.1387">«Controller»</text><text fill="#000000" font-family="sans-serif" font-size="12" lengthAdjust="spacingAndGlyphs" textLength="92" x="830.25" y="100.1074">CashierSystem</text><line style="stroke: #000000; stroke-width: 1.5;" x1="603.5" x2="1116.5" y1="107.9375" y2="107.9375"/><text fill="#000000" font-family="sans-serif" font-size="11" lengthAdjust="spacingAndGlyphs" textLength="292" x="608.5" y="122.1479">-inventoryProductCatalog : InventoryProductCatalog</text><text fill="#000000" font-family="sans-serif" font-size="11" lengthAdjust="spacingAndGlyphs" textLength="246" x="608.5" y="134.9526">-customerRepository : CustomerRepository</text><text fill="#000000" font-family="sans-serif" font-size="11" lengthAdjust="spacingAndGlyphs" textLength="274" x="608.5" y="147.7573">-authenticationManager : AuthenticationManager</text><line style="stroke: #000000; stroke-width: 1.5;" x1="603.5" x2="1116.5" y1="154.3516" y2="154.3516"/><text fill="#000000" font-family="sans-serif" font-size="11" lengthAdjust="spacingAndGlyphs" textLength="503" x="608.5" y="168.562">+CashierSystem(InventoryProductCatalog, CustomerRepository, AuthenticationManager)</text><text fill="#000000" font-family="sans-serif" font-size="11" lengthAdjust="spacingAndGlyphs" textLength="278" x="608.5" y="181.3667">+addProduct(String, long, ShoppingCart) : String</text><text fill="#000000" font-family="sans-serif" font-size="11" lengthAdjust="spacingAndGlyphs" textLength="260" x="608.5" y="194.1714">+deleteProduct(String, ShoppingCart) : String</text><text fill="#000000" font-family="sans-serif" font-size="11" lengthAdjust="spacingAndGlyphs" textLength="251" x="608.5" y="206.9761">+calcChange(double, ShoppingCart) : String</text><text fill="#000000" font-family="sans-serif" font-size="11" lengthAdjust="spacingAndGlyphs" textLength="208" x="608.5" y="219.7808">+userId(long, ShoppingCart) : String</text><text fill="#000000" font-family="sans-serif" font-size="11" lengthAdjust="spacingAndGlyphs" textLength="178" x="608.5" y="232.5854">+addPfand(Long, Long) : String</text><text fill="#000000" font-family="sans-serif" font-size="11" lengthAdjust="spacingAndGlyphs" textLength="171" x="608.5" y="245.3901">+finish(ShoppingCart) : String</text><text fill="#000000" font-family="sans-serif" font-size="11" lengthAdjust="spacingAndGlyphs" textLength="170" x="608.5" y="258.1948">+abort(ShoppingCart) : String</text><text fill="#000000" font-family="sans-serif" font-size="11" lengthAdjust="spacingAndGlyphs" textLength="344" x="608.5" y="270.9995">+pushShoppingCart(ShoppingCart, EntityLevel, String) : void</text><!--class bioladen.finances.CartController--><rect fill="url(#gjzwiig6bk9ry0)" filter="url(#fjzwiig6bk9ry)" height="130.7656" id="bioladen.finances.CartController" style="stroke: #000000; stroke-width: 1.5;" width="332" x="235" y="108.5"/><ellipse cx="353.25" cy="127.4688" fill="#ADD1B2" rx="11" ry="11" style="stroke: #000000; stroke-width: 1.0;"/><path d="M356.2188,133.1094 Q355.6406,133.4063 355,133.5469 Q354.3594,133.7031 353.6563,133.7031 Q351.1563,133.7031 349.8281,132.0625 Q348.5156,130.4063 348.5156,127.2813 Q348.5156,124.1563 349.8281,122.5 Q351.1563,120.8438 353.6563,120.8438 Q354.3594,120.8438 355,121 Q355.6563,121.1563 356.2188,121.4531 L356.2188,124.1719 Q355.5938,123.5938 355,123.3281 Q354.4063,123.0469 353.7813,123.0469 Q352.4375,123.0469 351.75,124.125 Q351.0625,125.1875 351.0625,127.2813 Q351.0625,129.375 351.75,130.4531 Q352.4375,131.5156 353.7813,131.5156 Q354.4063,131.5156 355,131.25 Q355.5938,130.9688 356.2188,130.3906 L356.2188,133.1094 Z "/><text fill="#000000" font-family="sans-serif" font-size="12" font-style="italic" lengthAdjust="spacingAndGlyphs" textLength="75" x="379.75" y="124.6387">«Controller»</text><text fill="#000000" font-family="sans-serif" font-size="12" lengthAdjust="spacingAndGlyphs" textLength="87" x="373.75" y="138.6074">CartController</text><line style="stroke: #000000; stroke-width: 1.5;" x1="236" x2="566" y1="146.4375" y2="146.4375"/><text fill="#000000" font-family="sans-serif" font-size="11" lengthAdjust="spacingAndGlyphs" textLength="292" x="241" y="160.6479">-inventoryProductCatalog : InventoryProductCatalog</text><line style="stroke: #000000; stroke-width: 1.5;" x1="236" x2="566" y1="167.2422" y2="167.2422"/><text fill="#000000" font-family="sans-serif" font-size="11" lengthAdjust="spacingAndGlyphs" textLength="235" x="241" y="181.4526">+CartController(InventoryProductCatalog)</text><text fill="#000000" font-family="sans-serif" font-size="11" lengthAdjust="spacingAndGlyphs" textLength="260" x="241" y="194.2573">+addToWishlist(String, ShoppingCart) : String</text><text fill="#000000" font-family="sans-serif" font-size="11" lengthAdjust="spacingAndGlyphs" textLength="289" x="241" y="207.062">+deleteFromWishlist(String, ShoppingCart) : String</text><text fill="#000000" font-family="sans-serif" font-size="11" lengthAdjust="spacingAndGlyphs" textLength="283" x="241" y="219.8667">+addOneToWishlist(String, ShoppingCart) : String</text><text fill="#000000" font-family="sans-serif" font-size="11" lengthAdjust="spacingAndGlyphs" textLength="320" x="241" y="232.6714">+removeOneFromWishlist(String, ShoppingCart) : String</text><!--class bioladen.finances.ShoppingCart--><rect fill="url(#gjzwiig6bk9ry1)" filter="url(#fjzwiig6bk9ry)" height="271.6172" id="bioladen.finances.ShoppingCart" style="stroke: #000000; stroke-width: 1.5;" width="341" x="339.5" y="338"/><ellipse cx="463.25" cy="356.9688" fill="#ADD1B2" rx="11" ry="11" style="stroke: #000000; stroke-width: 1.0;"/><path d="M466.2188,362.6094 Q465.6406,362.9063 465,363.0469 Q464.3594,363.2031 463.6563,363.2031 Q461.1563,363.2031 459.8281,361.5625 Q458.5156,359.9063 458.5156,356.7813 Q458.5156,353.6563 459.8281,352 Q461.1563,350.3438 463.6563,350.3438 Q464.3594,350.3438 465,350.5 Q465.6563,350.6563 466.2188,350.9531 L466.2188,353.6719 Q465.5938,353.0938 465,352.8281 Q464.4063,352.5469 463.7813,352.5469 Q462.4375,352.5469 461.75,353.625 Q461.0625,354.6875 461.0625,356.7813 Q461.0625,358.875 461.75,359.9531 Q462.4375,361.0156 463.7813,361.0156 Q464.4063,361.0156 465,360.75 Q465.5938,360.4688 466.2188,359.8906 L466.2188,362.6094 Z "/><text fill="#000000" font-family="sans-serif" font-size="12" font-style="italic" lengthAdjust="spacingAndGlyphs" textLength="50" x="501.25" y="354.1387">«Entity»</text><text fill="#000000" font-family="sans-serif" font-size="12" lengthAdjust="spacingAndGlyphs" textLength="85" x="483.75" y="368.1074">ShoppingCart</text><line style="stroke: #000000; stroke-width: 1.5;" x1="340.5" x2="679.5" y1="375.9375" y2="375.9375"/><text fill="#000000" font-family="sans-serif" font-size="11" lengthAdjust="spacingAndGlyphs" textLength="265" x="345.5" y="390.1479">-items : Map&lt;InventoryProduct, CartCartItem&gt;</text><text fill="#000000" font-family="sans-serif" font-size="11" lengthAdjust="spacingAndGlyphs" textLength="187" x="345.5" y="402.9526">-pfand : Map&lt;BigDecimal, Long&gt;</text><text fill="#000000" font-family="sans-serif" font-size="11" lengthAdjust="spacingAndGlyphs" textLength="126" x="345.5" y="415.7573">-customer : Customer</text><line style="stroke: #000000; stroke-width: 1.5;" x1="340.5" x2="679.5" y1="422.3516" y2="422.3516"/><text fill="#000000" font-family="sans-serif" font-size="11" lengthAdjust="spacingAndGlyphs" textLength="329" x="345.5" y="436.562">+addOrUpdateItem(InventoryProduct, long) : CartCartItem</text><text fill="#000000" font-family="sans-serif" font-size="11" lengthAdjust="spacingAndGlyphs" textLength="269" x="345.5" y="449.3667">+removeItem(String) : Optional&lt;CartCartItem&gt;</text><text fill="#000000" font-family="sans-serif" font-size="11" lengthAdjust="spacingAndGlyphs" textLength="244" x="345.5" y="462.1714">+getItem(String) : Optional&lt;CartCartItem&gt;</text><text fill="#000000" font-family="sans-serif" font-size="11" lengthAdjust="spacingAndGlyphs" textLength="80" x="345.5" y="474.9761">+clear() : void</text><text fill="#000000" font-family="sans-serif" font-size="11" lengthAdjust="spacingAndGlyphs" textLength="119" x="345.5" y="487.7808">+isEmpty() : boolean</text><text fill="#000000" font-family="sans-serif" font-size="11" lengthAdjust="spacingAndGlyphs" textLength="138" x="345.5" y="500.5854">+getPrice() : BigDecimal</text><text fill="#000000" font-family="sans-serif" font-size="11" lengthAdjust="spacingAndGlyphs" textLength="169" x="345.5" y="513.3901">+getBasicPrice() : BigDecimal</text><text fill="#000000" font-family="sans-serif" font-size="11" lengthAdjust="spacingAndGlyphs" textLength="149" x="345.5" y="526.1948">+getAmountOfItems() : int</text><text fill="#000000" font-family="sans-serif" font-size="11" lengthAdjust="spacingAndGlyphs" textLength="220" x="345.5" y="538.9995">+getCustomerDiscountString() : String</text><text fill="#000000" font-family="sans-serif" font-size="11" lengthAdjust="spacingAndGlyphs" textLength="134" x="345.5" y="551.8042">+getDiscount() : double</text><text fill="#000000" font-family="sans-serif" font-size="11" lengthAdjust="spacingAndGlyphs" textLength="261" x="345.5" y="564.6089">+addOrUpdatePfand(BigDecimal, Long) : Long</text><text fill="#000000" font-family="sans-serif" font-size="11" lengthAdjust="spacingAndGlyphs" textLength="178" x="345.5" y="577.4136">+getPfandMoney() : BigDecimal</text><text fill="#000000" font-family="sans-serif" font-size="11" lengthAdjust="spacingAndGlyphs" textLength="175" x="345.5" y="590.2183">+getMwstMoney() : BigDecimal</text><text fill="#000000" font-family="sans-serif" font-size="11" lengthAdjust="spacingAndGlyphs" textLength="171" x="345.5" y="603.0229">+getSaleMoney() : BigDecimal</text><!--class bioladen.finances.CartCartItem--><rect fill="url(#gjzwiig6bk9ry1)" filter="url(#fjzwiig6bk9ry)" height="156.375" id="bioladen.finances.CartCartItem" style="stroke: #000000; stroke-width: 1.5;" width="229" x="201.5" y="670"/><ellipse cx="272.25" cy="688.9688" fill="#ADD1B2" rx="11" ry="11" style="stroke: #000000; stroke-width: 1.0;"/><path d="M275.2188,694.6094 Q274.6406,694.9063 274,695.0469 Q273.3594,695.2031 272.6563,695.2031 Q270.1563,695.2031 268.8281,693.5625 Q267.5156,691.9063 267.5156,688.7813 Q267.5156,685.6563 268.8281,684 Q270.1563,682.3438 272.6563,682.3438 Q273.3594,682.3438 274,682.5 Q274.6563,682.6563 275.2188,682.9531 L275.2188,685.6719 Q274.5938,685.0938 274,684.8281 Q273.4063,684.5469 272.7813,684.5469 Q271.4375,684.5469 270.75,685.625 Q270.0625,686.6875 270.0625,688.7813 Q270.0625,690.875 270.75,691.9531 Q271.4375,693.0156 272.7813,693.0156 Q273.4063,693.0156 274,692.75 Q274.5938,692.4688 275.2188,691.8906 L275.2188,694.6094 Z "/><text fill="#000000" font-family="sans-serif" font-size="12" font-style="italic" lengthAdjust="spacingAndGlyphs" textLength="50" x="307.25" y="686.1387">«Entity»</text><text fill="#000000" font-family="sans-serif" font-size="12" lengthAdjust="spacingAndGlyphs" textLength="79" x="292.75" y="700.1074">CartCartItem</text><line style="stroke: #000000; stroke-width: 1.5;" x1="202.5" x2="429.5" y1="707.9375" y2="707.9375"/><text fill="#000000" font-family="sans-serif" font-size="11" lengthAdjust="spacingAndGlyphs" textLength="60" x="207.5" y="722.1479">-id : String</text><text fill="#000000" font-family="sans-serif" font-size="11" lengthAdjust="spacingAndGlyphs" textLength="107" x="207.5" y="734.9526">-price : BigDecimal</text><text fill="#000000" font-family="sans-serif" font-size="11" lengthAdjust="spacingAndGlyphs" textLength="85" x="207.5" y="747.7573">-quantity : long</text><text fill="#000000" font-family="sans-serif" font-size="11" lengthAdjust="spacingAndGlyphs" textLength="206" x="207.5" y="760.562">-inventoryProduct : InventoryProduct</text><line style="stroke: #000000; stroke-width: 1.5;" x1="202.5" x2="429.5" y1="767.1563" y2="767.1563"/><text fill="#000000" font-family="sans-serif" font-size="11" lengthAdjust="spacingAndGlyphs" textLength="217" x="207.5" y="781.3667">+CartCartItem(InventoryProduct, long)</text><text fill="#000000" font-family="sans-serif" font-size="11" lengthAdjust="spacingAndGlyphs" textLength="202" x="207.5" y="794.1714">-CartCartItem(String, Product, long)</text><text fill="#000000" font-family="sans-serif" font-size="11" lengthAdjust="spacingAndGlyphs" textLength="157" x="207.5" y="806.9761">+getProductName() : String</text><text fill="#000000" font-family="sans-serif" font-size="11" lengthAdjust="spacingAndGlyphs" textLength="147" x="207.5" y="819.7808">+add(long) : CartCartItem</text><!--class bioladen.finances.ShoppingCartCancel--><rect fill="url(#gjzwiig6bk9ry1)" filter="url(#fjzwiig6bk9ry)" height="105.1563" id="bioladen.finances.ShoppingCartCancel" style="stroke: #000000; stroke-width: 1.5;" width="309" x="465.5" y="695.5"/><ellipse cx="552.25" cy="714.4688" fill="#ADD1B2" rx="11" ry="11" style="stroke: #000000; stroke-width: 1.0;"/><path d="M555.2188,720.1094 Q554.6406,720.4063 554,720.5469 Q553.3594,720.7031 552.6563,720.7031 Q550.1563,720.7031 548.8281,719.0625 Q547.5156,717.4063 547.5156,714.2813 Q547.5156,711.1563 548.8281,709.5 Q550.1563,707.8438 552.6563,707.8438 Q553.3594,707.8438 554,708 Q554.6563,708.1563 555.2188,708.4531 L555.2188,711.1719 Q554.5938,710.5938 554,710.3281 Q553.4063,710.0469 552.7813,710.0469 Q551.4375,710.0469 550.75,711.125 Q550.0625,712.1875 550.0625,714.2813 Q550.0625,716.375 550.75,717.4531 Q551.4375,718.5156 552.7813,718.5156 Q553.4063,718.5156 554,718.25 Q554.5938,717.9688 555.2188,717.3906 L555.2188,720.1094 Z "/><text fill="#000000" font-family="sans-serif" font-size="12" font-style="italic" lengthAdjust="spacingAndGlyphs" textLength="50" x="611.25" y="711.6387">«Entity»</text><text fill="#000000" font-family="sans-serif" font-size="12" lengthAdjust="spacingAndGlyphs" textLength="127" x="572.75" y="725.6074">ShoppingCartCancel</text><line style="stroke: #000000; stroke-width: 1.5;" x1="466.5" x2="773.5" y1="733.4375" y2="733.4375"/><text fill="#000000" font-family="sans-serif" font-size="11" lengthAdjust="spacingAndGlyphs" textLength="126" x="471.5" y="747.6479">-customer : Customer</text><text fill="#000000" font-family="sans-serif" font-size="11" lengthAdjust="spacingAndGlyphs" textLength="114" x="471.5" y="760.4526">-amountOfItems: int</text><line style="stroke: #000000; stroke-width: 1.5;" x1="466.5" x2="773.5" y1="767.0469" y2="767.0469"/><text fill="#000000" font-family="sans-serif" font-size="11" lengthAdjust="spacingAndGlyphs" textLength="297" x="471.5" y="781.2573">+defineCharts() : Map&lt;String, DataHistoryRequest&gt;</text><text fill="#000000" font-family="sans-serif" font-size="11" lengthAdjust="spacingAndGlyphs" textLength="189" x="471.5" y="794.062">+sumUp(String, Double) : Double</text><!--class bioladen.finances.ShoppingCartSale--><rect fill="url(#gjzwiig6bk9ry1)" filter="url(#fjzwiig6bk9ry)" height="130.7656" id="bioladen.finances.ShoppingCartSale" style="stroke: #000000; stroke-width: 1.5;" width="309" x="809.5" y="682.5"/><ellipse cx="903.75" cy="701.4688" fill="#ADD1B2" rx="11" ry="11" style="stroke: #000000; stroke-width: 1.0;"/><path d="M906.7188,707.1094 Q906.1406,707.4063 905.5,707.5469 Q904.8594,707.7031 904.1563,707.7031 Q901.6563,707.7031 900.3281,706.0625 Q899.0156,704.4063 899.0156,701.2813 Q899.0156,698.1563 900.3281,696.5 Q901.6563,694.8438 904.1563,694.8438 Q904.8594,694.8438 905.5,695 Q906.1563,695.1563 906.7188,695.4531 L906.7188,698.1719 Q906.0938,697.5938 905.5,697.3281 Q904.9063,697.0469 904.2813,697.0469 Q902.9375,697.0469 902.25,698.125 Q901.5625,699.1875 901.5625,701.2813 Q901.5625,703.375 902.25,704.4531 Q902.9375,705.5156 904.2813,705.5156 Q904.9063,705.5156 905.5,705.25 Q906.0938,704.9688 906.7188,704.3906 L906.7188,707.1094 Z "/><text fill="#000000" font-family="sans-serif" font-size="12" font-style="italic" lengthAdjust="spacingAndGlyphs" textLength="50" x="955.25" y="698.6387">«Entity»</text><text fill="#000000" font-family="sans-serif" font-size="12" lengthAdjust="spacingAndGlyphs" textLength="112" x="924.25" y="712.6074">ShoppingCartSale</text><line style="stroke: #000000; stroke-width: 1.5;" x1="810.5" x2="1117.5" y1="720.4375" y2="720.4375"/><text fill="#000000" font-family="sans-serif" font-size="11" lengthAdjust="spacingAndGlyphs" textLength="126" x="815.5" y="734.6479">-customer : Customer</text><text fill="#000000" font-family="sans-serif" font-size="11" lengthAdjust="spacingAndGlyphs" textLength="147" x="815.5" y="747.4526">-pfandMoney : BigDecimal</text><text fill="#000000" font-family="sans-serif" font-size="11" lengthAdjust="spacingAndGlyphs" textLength="146" x="815.5" y="760.2573">-mwstMoney : BigDecimal</text><text fill="#000000" font-family="sans-serif" font-size="11" lengthAdjust="spacingAndGlyphs" textLength="139" x="815.5" y="773.062">-saleMoney : BigDecimal</text><line style="stroke: #000000; stroke-width: 1.5;" x1="810.5" x2="1117.5" y1="779.6563" y2="779.6563"/><text fill="#000000" font-family="sans-serif" font-size="11" lengthAdjust="spacingAndGlyphs" textLength="297" x="815.5" y="793.8667">+defineCharts() : Map&lt;String, DataHistoryRequest&gt;</text><text fill="#000000" font-family="sans-serif" font-size="11" lengthAdjust="spacingAndGlyphs" textLength="189" x="815.5" y="806.6714">+sumUp(String, Double) : Double</text><!--class bioladen.event.EntityCreatedEvent--><rect fill="url(#gjzwiig6bk9ry1)" filter="url(#fjzwiig6bk9ry)" height="48" id="bioladen.event.EntityCreatedEvent" style="stroke: #000000; stroke-width: 1.5;" width="152" x="1470" y="450"/><ellipse cx="1485" cy="466" fill="#ADD1B2" rx="11" ry="11" style="stroke: #000000; stroke-width: 1.0;"/><path d="M1487.9688,471.6406 Q1487.3906,471.9375 1486.75,472.0781 Q1486.1094,472.2344 1485.4063,472.2344 Q1482.9063,472.2344 1481.5781,470.5938 Q1480.2656,468.9375 1480.2656,465.8125 Q1480.2656,462.6875 1481.5781,461.0313 Q1482.9063,459.375 1485.4063,459.375 Q1486.1094,459.375 1486.75,459.5313 Q1487.4063,459.6875 1487.9688,459.9844 L1487.9688,462.7031 Q1487.3438,462.125 1486.75,461.8594 Q1486.1563,461.5781 1485.5313,461.5781 Q1484.1875,461.5781 1483.5,462.6563 Q1482.8125,463.7188 1482.8125,465.8125 Q1482.8125,467.9063 1483.5,468.9844 Q1484.1875,470.0469 1485.5313,470.0469 Q1486.1563,470.0469 1486.75,469.7813 Q1487.3438,469.5 1487.9688,468.9219 L1487.9688,471.6406 Z "/><text fill="#000000" font-family="sans-serif" font-size="12" lengthAdjust="spacingAndGlyphs" textLength="120" x="1499" y="470.1543">EntityCreatedEvent</text><line style="stroke: #000000; stroke-width: 1.5;" x1="1471" x2="1621" y1="482" y2="482"/><line style="stroke: #000000; stroke-width: 1.5;" x1="1471" x2="1621" y1="490" y2="490"/><!--entity cashiersystem.html--><polygon fill="url(#gjzwiig6bk9ry2)" filter="url(#fjzwiig6bk9ry)" points="1281,447.5,1281,500.0938,1435,500.0938,1435,457.5,1425,447.5,1281,447.5" style="stroke: #000000; stroke-width: 1.5;"/><path d="M1425,447.5 L1425,457.5 L1435,457.5 " fill="url(#gjzwiig6bk9ry2)" style="stroke: #000000; stroke-width: 1.5;"/><text fill="#000000" font-family="sans-serif" font-size="14" font-style="italic" lengthAdjust="spacingAndGlyphs" textLength="51" x="1332.5" y="470.4951">«View»</text><text fill="#000000" font-family="sans-serif" font-size="14" lengthAdjust="spacingAndGlyphs" textLength="134" x="1291" y="486.792">cashiersystem.html</text><!--entity wishlist.html--><polygon fill="url(#gjzwiig6bk9ry2)" filter="url(#fjzwiig6bk9ry)" points="1142,447.5,1142,500.0938,1246,500.0938,1246,457.5,1236,447.5,1142,447.5" style="stroke: #000000; stroke-width: 1.5;"/><path d="M1236,447.5 L1236,457.5 L1246,457.5 " fill="url(#gjzwiig6bk9ry2)" style="stroke: #000000; stroke-width: 1.5;"/><text fill="#000000" font-family="sans-serif" font-size="14" font-style="italic" lengthAdjust="spacingAndGlyphs" textLength="51" x="1168.5" y="470.4951">«View»</text><text fill="#000000" font-family="sans-serif" font-size="14" lengthAdjust="spacingAndGlyphs" textLength="84" x="1152" y="486.792">wishlist.html</text><!--class bioladen.customer.Customer--><rect fill="url(#gjzwiig6bk9ry1)" filter="url(#fjzwiig6bk9ry)" height="53.9375" id="bioladen.customer.Customer" style="stroke: #000000; stroke-width: 1.5;" width="92" x="85" y="147"/><ellipse cx="100" cy="165.9688" fill="#ADD1B2" rx="11" ry="11" style="stroke: #000000; stroke-width: 1.0;"/><path d="M102.9688,171.6094 Q102.3906,171.9063 101.75,172.0469 Q101.1094,172.2031 100.4063,172.2031 Q97.9063,172.2031 96.5781,170.5625 Q95.2656,168.9063 95.2656,165.7813 Q95.2656,162.6563 96.5781,161 Q97.9063,159.3438 100.4063,159.3438 Q101.1094,159.3438 101.75,159.5 Q102.4063,159.6563 102.9688,159.9531 L102.9688,162.6719 Q102.3438,162.0938 101.75,161.8281 Q101.1563,161.5469 100.5313,161.5469 Q99.1875,161.5469 98.5,162.625 Q97.8125,163.6875 97.8125,165.7813 Q97.8125,167.875 98.5,168.9531 Q99.1875,170.0156 100.5313,170.0156 Q101.1563,170.0156 101.75,169.75 Q102.3438,169.4688 102.9688,168.8906 L102.9688,171.6094 Z "/><text fill="#000000" font-family="sans-serif" font-size="12" font-style="italic" lengthAdjust="spacingAndGlyphs" textLength="50" x="119" y="163.1387">«Entity»</text><text fill="#000000" font-family="sans-serif" font-size="12" lengthAdjust="spacingAndGlyphs" textLength="60" x="114" y="177.1074">Customer</text><line style="stroke: #000000; stroke-width: 1.5;" x1="86" x2="176" y1="184.9375" y2="184.9375"/><line style="stroke: #000000; stroke-width: 1.5;" x1="86" x2="176" y1="192.9375" y2="192.9375"/><!--class org.salespointframework.context.ApplicationEvent--><rect fill="url(#gjzwiig6bk9ry3)" filter="url(#fjzwiig6bk9ry)" height="53.9375" id="org.salespointframework.context.ApplicationEvent" style="stroke: #000000; stroke-width: 1.5;" width="136" x="1662" y="147"/><ellipse cx="1677" cy="165.9688" fill="#ADD1B2" rx="11" ry="11" style="stroke: #000000; stroke-width: 1.0;"/><path d="M1679.9688,171.6094 Q1679.3906,171.9063 1678.75,172.0469 Q1678.1094,172.2031 1677.4063,172.2031 Q1674.9063,172.2031 1673.5781,170.5625 Q1672.2656,168.9063 1672.2656,165.7813 Q1672.2656,162.6563 1673.5781,161 Q1674.9063,159.3438 1677.4063,159.3438 Q1678.1094,159.3438 1678.75,159.5 Q1679.4063,159.6563 1679.9688,159.9531 L1679.9688,162.6719 Q1679.3438,162.0938 1678.75,161.8281 Q1678.1563,161.5469 1677.5313,161.5469 Q1676.1875,161.5469 1675.5,162.625 Q1674.8125,163.6875 1674.8125,165.7813 Q1674.8125,167.875 1675.5,168.9531 Q1676.1875,170.0156 1677.5313,170.0156 Q1678.1563,170.0156 1678.75,169.75 Q1679.3438,169.4688 1679.9688,168.8906 L1679.9688,171.6094 Z "/><text fill="#000000" font-family="sans-serif" font-size="12" font-style="italic" lengthAdjust="spacingAndGlyphs" textLength="79" x="1703.5" y="163.1387">«Salespoint»</text><text fill="#000000" font-family="sans-serif" font-size="12" lengthAdjust="spacingAndGlyphs" textLength="104" x="1691" y="177.1074">ApplicationEvent</text><line style="stroke: #000000; stroke-width: 1.5;" x1="1663" x2="1797" y1="184.9375" y2="184.9375"/><line style="stroke: #000000; stroke-width: 1.5;" x1="1663" x2="1797" y1="192.9375" y2="192.9375"/><!--link bioladen.finances.ShoppingCart to bioladen.finances.ShoppingCartCancel--><path d="M537.1667,630.1973 C537.1667,630.1973 537.1667,695.4563 537.1667,695.4563 " fill="none" id="bioladen.finances.ShoppingCart-bioladen.finances.ShoppingCartCancel" style="stroke: #000000; stroke-width: 1.0;"/><polygon fill="none" points="530.1668,630.1973,537.1667,610.1973,544.1668,630.1972,530.1668,630.1973" style="stroke: #000000; stroke-width: 1.0;"/><!--link bioladen.finances.ShoppingCart to bioladen.finances.ShoppingCartSale--><path d="M608.8333,630.1628 C608.8333,630.1628 608.8333,689 608.8333,689 C608.8333,689 713.5418,689 809.2519,689 " fill="none" id="bioladen.finances.ShoppingCart-bioladen.finances.ShoppingCartSale" style="stroke: #000000; stroke-width: 1.0;"/><polygon fill="none" points="601.8334,630.1628,608.8333,610.1628,615.8334,630.1627,601.8334,630.1628" style="stroke: #000000; stroke-width: 1.0;"/><!--link bioladen.finances.CashierSystem to bioladen.finances.ShoppingCart--><path d="M641.5,278.0835 C641.5,278.0835 641.5,332.8698 641.5,332.8698 " fill="none" id="bioladen.finances.CashierSystem-bioladen.finances.ShoppingCart" style="stroke: #000000; stroke-width: 1.0;"/><polygon fill="#000000" points="641.5,337.8698,645.5,328.8698,641.5,332.8698,637.5,328.8698,641.5,337.8698" style="stroke: #000000; stroke-width: 1.0;"/><!--link bioladen.finances.CartController to bioladen.finances.ShoppingCart--><path d="M415.3333,239.8363 C415.3333,239.8363 415.3333,332.8621 415.3333,332.8621 " fill="none" id="bioladen.finances.CartController-bioladen.finances.ShoppingCart" style="stroke: #000000; stroke-width: 1.0;"/><polygon fill="#000000" points="415.3333,337.8621,419.3333,328.8621,415.3333,332.8621,411.3333,328.8621,415.3333,337.8621" style="stroke: #000000; stroke-width: 1.0;"/><!--link bioladen.finances.ShoppingCart to bioladen.finances.CartCartItem--><path d="M385,610.1973 C385,610.1973 385,664.7004 385,664.7004 " fill="none" id="bioladen.finances.ShoppingCart-bioladen.finances.CartCartItem" style="stroke: #000000; stroke-width: 1.0;"/><polygon fill="#000000" points="385,669.7004,389,660.7004,385,664.7004,381,660.7004,385,669.7004" style="stroke: #000000; stroke-width: 1.0;"/><!--link bioladen.finances.CashierSystem to bioladen.event.EntityCreatedEvent--><path d="M1117.8812,227 C1312.4392,227 1546,227 1546,227 C1546,227 1546,444.8669 1546,444.8669 " fill="none" id="bioladen.finances.CashierSystem-bioladen.event.EntityCreatedEvent" style="stroke: #000000; stroke-width: 1.0;"/><polygon fill="#000000" points="1546,449.8669,1550,440.8669,1546,444.8669,1542,440.8669,1546,449.8669" style="stroke: #000000; stroke-width: 1.0;"/><!--link bioladen.finances.CashierSystem to cashiersystem.html--><path d="M1117.7523,253 C1239.2675,253 1358,253 1358,253 C1358,253 1358,442.3422 1358,442.3422 " fill="none" id="bioladen.finances.CashierSystem-cashiersystem.html" style="stroke: #000000; stroke-width: 1.0;"/><polygon fill="#000000" points="1358,447.3422,1362,438.3422,1358,442.3422,1354,438.3422,1358,447.3422" style="stroke: #000000; stroke-width: 1.0;"/><!--link bioladen.finances.CartController to wishlist.html--><path d="M491.1667,239.8223 C491.1667,273.7102 491.1667,308 491.1667,308 C491.1667,308 1194,308 1194,308 C1194,308 1194,442.3292 1194,442.3292 " fill="none" id="bioladen.finances.CartController-wishlist.html" style="stroke: #000000; stroke-width: 1.0;"/><polygon fill="#000000" points="1194,447.3292,1198,438.3292,1194,442.3292,1190,438.3292,1194,447.3292" style="stroke: #000000; stroke-width: 1.0;"/><!--link bioladen.customer.Customer to bioladen.finances.ShoppingCart--><path d="M115.6667,206.1521 C115.6667,206.1521 115.6667,474 115.6667,474 C115.6667,474 232.7599,474 339.3331,474 " fill="none" id="bioladen.customer.Customer-bioladen.finances.ShoppingCart" style="stroke: #000000; stroke-width: 1.0;"/><polygon fill="#000000" points="115.6667,201.1521,111.6667,210.1521,115.6667,206.1521,119.6667,210.1521,115.6667,201.1521" style="stroke: #000000; stroke-width: 1.0;"/><text fill="#000000" font-family="sans-serif" font-size="13" lengthAdjust="spacingAndGlyphs" textLength="8" x="103.4375" y="220.8205">1</text><text fill="#000000" font-family="sans-serif" font-size="13" lengthAdjust="spacingAndGlyphs" textLength="8" x="323.4185" y="470.7387">1</text><!--link bioladen.customer.Customer to bioladen.finances.CashierSystem--><path d="M146.3333,206.3624 C146.3333,206.3624 146.3333,259 146.3333,259 C146.3333,259 397.9287,259 602.35,259 " fill="none" id="bioladen.customer.Customer-bioladen.finances.CashierSystem" style="stroke: #000000; stroke-width: 1.0;"/><polygon fill="#000000" points="146.3333,201.3624,142.3333,210.3624,146.3333,206.3624,150.3333,210.3624,146.3333,201.3624" style="stroke: #000000; stroke-width: 1.0;"/><text fill="#000000" font-family="sans-serif" font-size="13" lengthAdjust="spacingAndGlyphs" textLength="8" x="140.8125" y="221.0768">1</text><text fill="#000000" font-family="sans-serif" font-size="13" lengthAdjust="spacingAndGlyphs" textLength="8" x="586.5823" y="258.3757">1</text><!--link org.salespointframework.context.ApplicationEvent to bioladen.event.EntityCreatedEvent--><path d="M1730,221.1521 C1730,221.1521 1730,474 1730,474 C1730,474 1672.7876,474 1622.168,474 " fill="none" id="org.salespointframework.context.ApplicationEvent-bioladen.event.EntityCreatedEvent" style="stroke: #000000; stroke-width: 1.0;"/><polygon fill="none" points="1723.0001,221.1521,1730,201.1521,1737.0001,221.1521,1723.0001,221.1521" style="stroke: #000000; stroke-width: 1.0;"/><rect fill="#DDDDDD" height="111.7813" rx="5" ry="5" style="stroke: #000000; stroke-width: 1.0;" width="217" x="893" y="868"/><text fill="#000000" font-family="sans-serif" font-size="14" font-weight="bold" lengthAdjust="spacingAndGlyphs" textLength="94" x="904" y="887.9951">Background</text><text fill="#000000" font-family="sans-serif" font-size="14" font-weight="bold" lengthAdjust="spacingAndGlyphs" textLength="91" x="1008" y="887.9951">Component</text><rect fill="#3DD13F" height="16.2969" style="stroke: none; stroke-width: 1.0;" width="104" x="899" y="891.2969"/><text fill="#000000" font-family="sans-serif" font-size="14" lengthAdjust="spacingAndGlyphs" textLength="0" x="919" y="904.292"/><text fill="#000000" font-family="sans-serif" font-size="14" lengthAdjust="spacingAndGlyphs" textLength="32" x="1007" y="904.292">View</text><rect fill="#5F9AEA" height="16.2969" style="stroke: none; stroke-width: 1.0;" width="104" x="899" y="907.5938"/><text fill="#000000" font-family="sans-serif" font-size="14" lengthAdjust="spacingAndGlyphs" textLength="0" x="919" y="920.5889"/><text fill="#000000" font-family="sans-serif" font-size="14" lengthAdjust="spacingAndGlyphs" textLength="67" x="1007" y="920.5889">Controller</text><rect fill="#CEF6CE" height="16.2969" style="stroke: none; stroke-width: 1.0;" width="104" x="899" y="923.8906"/><text fill="#000000" font-family="sans-serif" font-size="14" lengthAdjust="spacingAndGlyphs" textLength="0" x="919" y="936.8857"/><text fill="#000000" font-family="sans-serif" font-size="14" lengthAdjust="spacingAndGlyphs" textLength="44" x="1007" y="936.8857">Spring</text><rect fill="#F5A9BC" height="16.2969" style="stroke: none; stroke-width: 1.0;" width="104" x="899" y="940.1875"/><text fill="#000000" font-family="sans-serif" font-size="14" lengthAdjust="spacingAndGlyphs" textLength="0" x="919" y="953.1826"/><text fill="#000000" font-family="sans-serif" font-size="14" lengthAdjust="spacingAndGlyphs" textLength="72" x="1007" y="953.1826">Salespoint</text><rect fill="#F9ED93" height="16.2969" style="stroke: none; stroke-width: 1.0;" width="104" x="899" y="956.4844"/><text fill="#000000" font-family="sans-serif" font-size="14" lengthAdjust="spacingAndGlyphs" textLength="0" x="919" y="969.4795"/><text fill="#000000" font-family="sans-serif" font-size="14" lengthAdjust="spacingAndGlyphs" textLength="26" x="1007" y="969.4795">Java</text><line style="stroke: #000000; stroke-width: 1.0;" x1="899" x2="1104" y1="875" y2="875"/><line style="stroke: #000000; stroke-width: 1.0;" x1="899" x2="1104" y1="891.2969" y2="891.2969"/><line style="stroke: #000000; stroke-width: 1.0;" x1="899" x2="1104" y1="907.5938" y2="907.5938"/><line style="stroke: #000000; stroke-width: 1.0;" x1="899" x2="1104" y1="923.8906" y2="923.8906"/><line style="stroke: #000000; stroke-width: 1.0;" x1="899" x2="1104" y1="940.1875" y2="940.1875"/><line style="stroke: #000000; stroke-width: 1.0;" x1="899" x2="1104" y1="956.4844" y2="956.4844"/><line style="stroke: #000000; stroke-width: 1.0;" x1="899" x2="1104" y1="972.7813" y2="972.7813"/><line style="stroke: #000000; stroke-width: 1.0;" x1="899" x2="899" y1="875" y2="972.7813"/><line style="stroke: #000000; stroke-width: 1.0;" x1="1003" x2="1003" y1="875" y2="972.7813"/><line style="stroke: #000000; stroke-width: 1.0;" x1="1104" x2="1104" y1="875" y2="972.7813"/><!--
@startuml




skinparam class {
	BackgroundColor #Silver/white
	BackgroundColor<<Spring>> #a9f5e1/cef6ce
	BackgroundColor<<Salespoint>> #f5a9bc/fcc4f0
	BackgroundColor<<Java>> #f9ed93/f7f583
	BackgroundColor<<Controller>> #Cornflowerblue/Cyan
    BorderColor Black
    ArrowColor  Black
}

skinparam package {
    FontColor Grey
    BorderColor Darkgrey
}

skinparam classAttributeIconSize 0
skinparam linetype ortho

legend
| Background | Component |
|<#3dd13f>     | View |
|<#5f9aea>     | Controller |
|<#cef6ce>     | Spring |
|<#f5a9bc>     | Salespoint |
|<#f9ed93>     | Java |
endlegend



rectangle Bioladen {
    namespace bioladen.finances {

        class CashierSystem <<Controller>> {
            -inventoryProductCatalog : InventoryProductCatalog
            -customerRepository : CustomerRepository
            -authenticationManager : AuthenticationManager

            +CashierSystem(InventoryProductCatalog, CustomerRepository, AuthenticationManager)
            +addProduct(String, long, ShoppingCart) : String
            +deleteProduct(String, ShoppingCart) : String
            +calcChange(double, ShoppingCart) : String
            +userId(long, ShoppingCart) : String
            +addPfand(Long, Long) : String
            +finish(ShoppingCart) : String
            +abort(ShoppingCart) : String
            +pushShoppingCart(ShoppingCart, EntityLevel, String) : void
        }

        class CartController <<Controller>> {
            -inventoryProductCatalog : InventoryProductCatalog

            +CartController(InventoryProductCatalog)
            +addToWishlist(String, ShoppingCart) : String
            +deleteFromWishlist(String, ShoppingCart) : String
            +addOneToWishlist(String, ShoppingCart) : String
            +removeOneFromWishlist(String, ShoppingCart) : String
        }

        class ShoppingCart <<Entity>> {
            -items : Map<InventoryProduct, CartCartItem>
            -pfand : Map<BigDecimal, Long>
            -customer : Customer

            +addOrUpdateItem(InventoryProduct, long) : CartCartItem
            +removeItem(String) : Optional<CartCartItem>
            +getItem(String) : Optional<CartCartItem>
            +clear() : void
            +isEmpty() : boolean
            +getPrice() : BigDecimal
            +getBasicPrice() : BigDecimal
            +getAmountOfItems() : int
            +getCustomerDiscountString() : String
            +getDiscount() : double
            +addOrUpdatePfand(BigDecimal, Long) : Long
            +getPfandMoney() : BigDecimal
            +getMwstMoney() : BigDecimal
            +getSaleMoney() : BigDecimal
        }

        class CartCartItem <<Entity>> {
            -id : String
            -price : BigDecimal
            -quantity : long
            -inventoryProduct : InventoryProduct

            +CartCartItem(InventoryProduct, long)
            -CartCartItem(String, Product, long)
            +getProductName() : String
            +add(long) : CartCartItem
        }

        class ShoppingCartCancel <<Entity>> extends ShoppingCart {
            -customer : Customer
            -amountOfItems: int

            +defineCharts() : Map<String, DataHistoryRequest>
            +sumUp(String, Double) : Double
        }

        class ShoppingCartSale <<Entity>> extends ShoppingCart {
            -customer : Customer
            -pfandMoney : BigDecimal
            -mwstMoney : BigDecimal
            -saleMoney : BigDecimal

            +defineCharts() : Map<String, DataHistoryRequest>
            +sumUp(String, Double) : Double
        }

        CashierSystem - -> ShoppingCart
        CartController - -> ShoppingCart
        ShoppingCart - -> CartCartItem

    }

    namespace bioladen.event {
        class EntityCreatedEvent {

        }

        bioladen.finances.CashierSystem - -> bioladen.event.EntityCreatedEvent

    }

    namespace ressources.templates {

        file cashiersystem.html <<View>> #limegreen/technology {

        }

        file wishlist.html <<View>> #limegreen/technology {

        }

        bioladen.finances.CashierSystem - -> cashiersystem.html
        bioladen.finances.CartController - -> wishlist.html
    }

    namespace bioladen.customer {

            class Customer <<Entity>> {

            }

            bioladen.finances.ShoppingCart "1" -left-> "1" Customer
            bioladen.finances.CashierSystem "1" -left-> "1" Customer
        }

}



rectangle salespoint-framework-7.0.0.RELEASE.jar {

    namespace org.salespointframework.context {
        class ApplicationEvent <<Salespoint>>{

        }

        ApplicationEvent <|- - bioladen.event.EntityCreatedEvent
    }

}


@enduml

PlantUML version 1.2018.12(Sun Oct 21 12:15:15 CEST 2018)
(GPL source distribution)
Java Runtime: OpenJDK Runtime Environment
JVM: OpenJDK 64-Bit Server VM
Java Version: 11.0.1+13-Debian-2
Operating System: Linux
OS Version: 4.18.0-parrot10-amd64
Default Encoding: UTF-8
Language: en
Country: US
--></g></svg>