<?xml version="1.0" encoding="UTF-8" standalone="no"?><svg xmlns="http://www.w3.org/2000/svg" xmlns:xlink="http://www.w3.org/1999/xlink" contentScriptType="application/ecmascript" contentStyleType="text/css" height="1676px" preserveAspectRatio="none" style="width:2258px;height:1676px;" version="1.1" viewBox="0 0 2258 1676" width="2258px" zoomAndPan="magnify"><defs><filter height="300%" id="f152ciep95enue" width="300%" x="-1" y="-1"><feGaussianBlur result="blurOut" stdDeviation="2.0"/><feColorMatrix in="blurOut" result="blurOut2" type="matrix" values="0 0 0 0 0 0 0 0 0 0 0 0 0 0 0 0 0 0 .4 0"/><feOffset dx="4.0" dy="4.0" in="blurOut2" result="blurOut3"/><feBlend in="SourceGraphic" in2="blurOut3" mode="normal"/></filter><linearGradient id="g152ciep95enue0" x1="0%" x2="100%" y1="0%" y2="100%"><stop offset="0%" stop-color="#F5A9BC"/><stop offset="100%" stop-color="#F6E3CE"/></linearGradient><linearGradient id="g152ciep95enue1" x1="0%" x2="100%" y1="0%" y2="100%"><stop offset="0%" stop-color="#6495ED"/><stop offset="100%" stop-color="#00FFFF"/></linearGradient><linearGradient id="g152ciep95enue2" x1="0%" x2="100%" y1="0%" y2="100%"><stop offset="0%" stop-color="#C0C0C0"/><stop offset="100%" stop-color="#FFFFFF"/></linearGradient><linearGradient id="g152ciep95enue3" x1="0%" x2="100%" y1="0%" y2="100%"><stop offset="0%" stop-color="#32CD32"/><stop offset="100%" stop-color="#90EE90"/></linearGradient><linearGradient id="g152ciep95enue4" x1="0%" x2="100%" y1="0%" y2="100%"><stop offset="0%" stop-color="#A9F5E1"/><stop offset="100%" stop-color="#CEF6CE"/></linearGradient></defs><g><!--cluster salespoint-framework-7.0.0.RELEASE.jar--><rect fill="#FFFFFF" filter="url(#f152ciep95enue)" height="1053" style="stroke: #A9A9A9; stroke-width: 1.5;" width="1329" x="567" y="475"/><text fill="#808080" font-family="sans-serif" font-size="14" font-weight="bold" lengthAdjust="spacingAndGlyphs" textLength="312" x="1075.5" y="489.9951">salespoint-framework-7.0.0.RELEASE.jar</text><!--cluster org.salespointframework.useraccount--><polygon fill="#FFFFFF" filter="url(#f152ciep95enue)" points="575,502,877,502,884,524.2969,1351,524.2969,1351,1520,575,1520,575,502" style="stroke: #A9A9A9; stroke-width: 1.5;"/><line style="stroke: #A9A9A9; stroke-width: 1.5;" x1="575" x2="884" y1="524.2969" y2="524.2969"/><text fill="#808080" font-family="sans-serif" font-size="14" font-weight="bold" lengthAdjust="spacingAndGlyphs" textLength="296" x="579" y="516.9951">org.salespointframework.useraccount</text><!--cluster org.salespointframework.context--><polygon fill="#FFFFFF" filter="url(#f152ciep95enue)" points="1615,585,1878,585,1885,607.2969,1888,607.2969,1888,674,1615,674,1615,585" style="stroke: #A9A9A9; stroke-width: 1.5;"/><line style="stroke: #A9A9A9; stroke-width: 1.5;" x1="1615" x2="1885" y1="607.2969" y2="607.2969"/><text fill="#808080" font-family="sans-serif" font-size="14" font-weight="bold" lengthAdjust="spacingAndGlyphs" textLength="257" x="1619" y="599.9951">org.salespointframework.context</text><!--cluster org.salespointframework.time--><polygon fill="#FFFFFF" filter="url(#f152ciep95enue)" points="1359,585,1597,585,1604,607.2969,1607,607.2969,1607,674,1359,674,1359,585" style="stroke: #A9A9A9; stroke-width: 1.5;"/><line style="stroke: #A9A9A9; stroke-width: 1.5;" x1="1359" x2="1604" y1="607.2969" y2="607.2969"/><text fill="#808080" font-family="sans-serif" font-size="14" font-weight="bold" lengthAdjust="spacingAndGlyphs" textLength="232" x="1363" y="599.9951">org.salespointframework.time</text><!--cluster Bioladen--><rect fill="#FFFFFF" filter="url(#f152ciep95enue)" height="997" style="stroke: #A9A9A9; stroke-width: 1.5;" width="545" x="14" y="16"/><text fill="#808080" font-family="sans-serif" font-size="14" font-weight="bold" lengthAdjust="spacingAndGlyphs" textLength="68" x="252.5" y="30.9951">Bioladen</text><!--cluster bioladen.useraccount--><polygon fill="#FFFFFF" filter="url(#f152ciep95enue)" points="32,219,208,219,215,241.2969,551,241.2969,551,398,32,398,32,219" style="stroke: #A9A9A9; stroke-width: 1.5;"/><line style="stroke: #A9A9A9; stroke-width: 1.5;" x1="32" x2="215" y1="241.2969" y2="241.2969"/><text fill="#808080" font-family="sans-serif" font-size="14" font-weight="bold" lengthAdjust="spacingAndGlyphs" textLength="170" x="36" y="233.9951">bioladen.useraccount</text><!--cluster bioladen.event--><polygon fill="#FFFFFF" filter="url(#f152ciep95enue)" points="365,43,487,43,494,65.2969,533,65.2969,533,126,365,126,365,43" style="stroke: #A9A9A9; stroke-width: 1.5;"/><line style="stroke: #A9A9A9; stroke-width: 1.5;" x1="365" x2="494" y1="65.2969" y2="65.2969"/><text fill="#808080" font-family="sans-serif" font-size="14" font-weight="bold" lengthAdjust="spacingAndGlyphs" textLength="116" x="369" y="57.9951">bioladen.event</text><!--cluster ressources.templates--><polygon fill="#FFFFFF" filter="url(#f152ciep95enue)" points="22,917,199,917,206,939.2969,551,939.2969,551,1005,22,1005,22,917" style="stroke: #A9A9A9; stroke-width: 1.5;"/><line style="stroke: #A9A9A9; stroke-width: 1.5;" x1="22" x2="206" y1="939.2969" y2="939.2969"/><text fill="#808080" font-family="sans-serif" font-size="14" font-weight="bold" lengthAdjust="spacingAndGlyphs" textLength="171" x="26" y="931.9951">ressources.templates</text><!--cluster spring--><rect fill="#FFFFFF" filter="url(#f152ciep95enue)" height="265" style="stroke: #A9A9A9; stroke-width: 1.5;" width="340" x="1904" y="819"/><text fill="#808080" font-family="sans-serif" font-size="14" font-weight="bold" lengthAdjust="spacingAndGlyphs" textLength="321" x="1913.5" y="833.9951">spring-data-comments-2.1.0.RELEASE.jar</text><!--cluster org.springframework.data.repository--><polygon fill="#FFFFFF" filter="url(#f152ciep95enue)" points="1912,846,2202,846,2209,868.2969,2236,868.2969,2236,1076,1912,1076,1912,846" style="stroke: #A9A9A9; stroke-width: 1.5;"/><line style="stroke: #A9A9A9; stroke-width: 1.5;" x1="1912" x2="2209" y1="868.2969" y2="868.2969"/><text fill="#808080" font-family="sans-serif" font-size="14" font-weight="bold" lengthAdjust="spacingAndGlyphs" textLength="284" x="1916" y="860.9951">org.springframework.data.repository</text><!--class org.salespointframework.useraccount.UserAccount--><rect fill="url(#g152ciep95enue0)" filter="url(#f152ciep95enue)" height="258.8125" id="org.salespointframework.useraccount.UserAccount" style="stroke: #000000; stroke-width: 1.5;" width="494" x="716" y="1253"/><ellipse cx="918.75" cy="1271.9688" fill="#ADD1B2" rx="11" ry="11" style="stroke: #000000; stroke-width: 1.0;"/><path d="M922.0938,1277.3906 Q921.2344,1277.8594 920.5156,1278.0313 Q919.8125,1278.2031 919.0156,1278.2031 Q916.4531,1278.2031 915.0469,1276.4219 Q913.6563,1274.625 913.6563,1271.4375 Q913.6563,1268.2813 915.0625,1266.4688 Q916.4688,1264.6563 919.0156,1264.6563 Q919.8125,1264.6563 920.5156,1264.8438 Q921.2344,1265.0156 922.0938,1265.4844 L922.0938,1268.1406 Q920.9688,1267.2031 920.3125,1266.9688 Q919.6563,1266.7188 919.0156,1266.7188 Q917.5625,1266.7188 916.8281,1267.8594 Q916.0938,1268.9844 916.0938,1271.4375 Q916.0938,1273.8906 916.8281,1275.0313 Q917.5625,1276.1563 919.0156,1276.1563 Q919.6719,1276.1563 920.3125,1275.9219 Q920.9688,1275.6719 922.0938,1274.7344 L922.0938,1277.3906 Z "/><text fill="#000000" font-family="sans-serif" font-size="12" font-style="italic" lengthAdjust="spacingAndGlyphs" textLength="79" x="939.75" y="1269.1387">«Salespoint»</text><text fill="#000000" font-family="sans-serif" font-size="12" lengthAdjust="spacingAndGlyphs" textLength="80" x="939.25" y="1283.1074">UserAccount</text><line style="stroke: #000000; stroke-width: 1.5;" x1="717" x2="1209" y1="1290.9375" y2="1290.9375"/><text fill="#000000" font-family="sans-serif" font-size="11" lengthAdjust="spacingAndGlyphs" textLength="257" x="722" y="1305.1479">-userAccountIdentifier : UserAccountIdentifier</text><text fill="#000000" font-family="sans-serif" font-size="11" lengthAdjust="spacingAndGlyphs" textLength="128" x="722" y="1317.9526">-password : Password</text><text fill="#000000" font-family="sans-serif" font-size="11" lengthAdjust="spacingAndGlyphs" textLength="105" x="722" y="1330.7573">-firstname : String</text><text fill="#000000" font-family="sans-serif" font-size="11" lengthAdjust="spacingAndGlyphs" textLength="103" x="722" y="1343.562">-lastname : String</text><text fill="#000000" font-family="sans-serif" font-size="11" lengthAdjust="spacingAndGlyphs" textLength="81" x="722" y="1356.3667">-email : String</text><text fill="#000000" font-family="sans-serif" font-size="11" lengthAdjust="spacingAndGlyphs" textLength="106" x="722" y="1369.1714">-roles : Set&lt;Role&gt;</text><text fill="#000000" font-family="sans-serif" font-size="11" lengthAdjust="spacingAndGlyphs" textLength="99" x="722" y="1381.9761">-enable : boolean</text><line style="stroke: #000000; stroke-width: 1.5;" x1="717" x2="1209" y1="1388.5703" y2="1388.5703"/><text fill="#000000" font-family="sans-serif" font-size="11" lengthAdjust="spacingAndGlyphs" textLength="88" x="722" y="1402.7808">+UserAccount()</text><text fill="#000000" font-family="sans-serif" font-size="11" lengthAdjust="spacingAndGlyphs" textLength="295" x="722" y="1415.5854">+UserAccount(UserAccountIdentifier, String, Role...)</text><text fill="#000000" font-family="sans-serif" font-size="11" lengthAdjust="spacingAndGlyphs" textLength="482" x="722" y="1428.3901">+UserAccount(UserAccountIdentifier, String, String, String, String, Collection&lt;Role&gt;)</text><text fill="#000000" font-family="sans-serif" font-size="11" lengthAdjust="spacingAndGlyphs" textLength="179" x="722" y="1441.1948">+getID() : UserAccountIdentifier</text><text fill="#000000" font-family="sans-serif" font-size="11" lengthAdjust="spacingAndGlyphs" textLength="141" x="722" y="1453.9995">+getUserName() : String</text><text fill="#000000" font-family="sans-serif" font-size="11" lengthAdjust="spacingAndGlyphs" textLength="119" x="722" y="1466.8042">+add(Role) : boolean</text><text fill="#000000" font-family="sans-serif" font-size="11" lengthAdjust="spacingAndGlyphs" textLength="141" x="722" y="1479.6089">+remove(Role) : boolean</text><text fill="#000000" font-family="sans-serif" font-size="11" lengthAdjust="spacingAndGlyphs" textLength="119" x="722" y="1492.4136">+hasRole() : boolean</text><text fill="#000000" font-family="sans-serif" font-size="11" lengthAdjust="spacingAndGlyphs" textLength="186" x="722" y="1505.2183">+getRoles() : Streamable&lt;Role&gt;</text><!--class org.salespointframework.useraccount.Role--><rect fill="url(#g152ciep95enue0)" filter="url(#f152ciep95enue)" height="79.5469" id="org.salespointframework.useraccount.Role" style="stroke: #000000; stroke-width: 1.5;" width="110" x="1233" y="599"/><ellipse cx="1249.35" cy="617.9688" fill="#ADD1B2" rx="11" ry="11" style="stroke: #000000; stroke-width: 1.0;"/><path d="M1252.6938,623.3906 Q1251.8344,623.8594 1251.1156,624.0313 Q1250.4125,624.2031 1249.6156,624.2031 Q1247.0531,624.2031 1245.6469,622.4219 Q1244.2563,620.625 1244.2563,617.4375 Q1244.2563,614.2813 1245.6625,612.4688 Q1247.0688,610.6563 1249.6156,610.6563 Q1250.4125,610.6563 1251.1156,610.8438 Q1251.8344,611.0156 1252.6938,611.4844 L1252.6938,614.1406 Q1251.5688,613.2031 1250.9125,612.9688 Q1250.2563,612.7188 1249.6156,612.7188 Q1248.1625,612.7188 1247.4281,613.8594 Q1246.6938,614.9844 1246.6938,617.4375 Q1246.6938,619.8906 1247.4281,621.0313 Q1248.1625,622.1563 1249.6156,622.1563 Q1250.2719,622.1563 1250.9125,621.9219 Q1251.5688,621.6719 1252.6938,620.7344 L1252.6938,623.3906 Z "/><text fill="#000000" font-family="sans-serif" font-size="12" font-style="italic" lengthAdjust="spacingAndGlyphs" textLength="79" x="1261.65" y="615.1387">«Salespoint»</text><text fill="#000000" font-family="sans-serif" font-size="12" lengthAdjust="spacingAndGlyphs" textLength="27" x="1287.65" y="629.1074">Role</text><line style="stroke: #000000; stroke-width: 1.5;" x1="1234" x2="1342" y1="636.9375" y2="636.9375"/><text fill="#000000" font-family="sans-serif" font-size="11" lengthAdjust="spacingAndGlyphs" textLength="82" x="1239" y="651.1479">-name : String</text><line style="stroke: #000000; stroke-width: 1.5;" x1="1234" x2="1342" y1="657.7422" y2="657.7422"/><text fill="#000000" font-family="sans-serif" font-size="11" lengthAdjust="spacingAndGlyphs" text-decoration="underline" textLength="98" x="1239" y="671.9526">+of(String) : Role</text><line style="stroke: #000000; stroke-width: 1.0;" x1="1239" x2="1337" y1="673.9526" y2="673.9526"/><!--class org.salespointframework.useraccount.UserAccountRepository--><rect fill="url(#g152ciep95enue0)" filter="url(#f152ciep95enue)" height="220.3984" id="org.salespointframework.useraccount.UserAccountRepository" style="stroke: #000000; stroke-width: 1.5;" width="413" x="583.5" y="529"/><ellipse cx="713.25" cy="547.9688" fill="#B4A7E5" rx="11" ry="11" style="stroke: #000000; stroke-width: 1.0;"/><path d="M709.4219,540.8906 L716.9844,540.8906 L716.9844,542.9844 L714.3906,542.9844 L714.3906,551.875 L716.9844,551.875 L716.9844,553.9688 L709.4219,553.9688 L709.4219,551.875 L712.0156,551.875 L712.0156,542.9844 L709.4219,542.9844 L709.4219,540.8906 Z "/><text fill="#000000" font-family="sans-serif" font-size="12" font-style="italic" lengthAdjust="spacingAndGlyphs" textLength="79" x="766.75" y="545.1387">«Salespoint»</text><text fill="#000000" font-family="sans-serif" font-size="12" font-style="italic" lengthAdjust="spacingAndGlyphs" textLength="145" x="733.75" y="559.1074">UserAccountRepository</text><line style="stroke: #000000; stroke-width: 1.5;" x1="584.5" x2="995.5" y1="566.9375" y2="566.9375"/><line style="stroke: #000000; stroke-width: 1.5;" x1="584.5" x2="995.5" y1="574.9375" y2="574.9375"/><text fill="#000000" font-family="sans-serif" font-size="11" lengthAdjust="spacingAndGlyphs" textLength="198" x="589.5" y="589.1479">+save(UserAccount) : UserAccount</text><text fill="#000000" font-family="sans-serif" font-size="11" lengthAdjust="spacingAndGlyphs" textLength="333" x="589.5" y="601.9526">+saveAll(Iterable&lt;UserAccount&gt;) : Iterable&lt;UserAccount&gt;</text><text fill="#000000" font-family="sans-serif" font-size="11" lengthAdjust="spacingAndGlyphs" textLength="331" x="589.5" y="614.7573">+findById(UserAccountIdentifier) : Optional&lt;UserAccount&gt;</text><text fill="#000000" font-family="sans-serif" font-size="11" lengthAdjust="spacingAndGlyphs" textLength="253" x="589.5" y="627.562">+existsById(UserAccountIdentifier) : boolean</text><text fill="#000000" font-family="sans-serif" font-size="11" lengthAdjust="spacingAndGlyphs" textLength="195" x="589.5" y="640.3667">+findAll() : Iterable&lt;UserAccount&gt;</text><text fill="#000000" font-family="sans-serif" font-size="11" lengthAdjust="spacingAndGlyphs" textLength="401" x="589.5" y="653.1714">+findAllById(Iterable&lt;UserAccountIdentifier&gt;) : Iterable&lt;UserAccount&gt;</text><text fill="#000000" font-family="sans-serif" font-size="11" lengthAdjust="spacingAndGlyphs" textLength="84" x="589.5" y="665.9761">+count() : long</text><text fill="#000000" font-family="sans-serif" font-size="11" lengthAdjust="spacingAndGlyphs" textLength="232" x="589.5" y="678.7808">+deleteById(UserAccountIdentifier) : void</text><text fill="#000000" font-family="sans-serif" font-size="11" lengthAdjust="spacingAndGlyphs" textLength="158" x="589.5" y="691.5854">+delete(UserAccount) : void</text><text fill="#000000" font-family="sans-serif" font-size="11" lengthAdjust="spacingAndGlyphs" textLength="232" x="589.5" y="704.3901">+deleteAll(Iterable&lt;UserAccount&gt;) : void</text><text fill="#000000" font-family="sans-serif" font-size="11" lengthAdjust="spacingAndGlyphs" textLength="100" x="589.5" y="717.1948">+deleteAll() : void</text><text fill="#000000" font-family="sans-serif" font-size="11" lengthAdjust="spacingAndGlyphs" textLength="290" x="589.5" y="729.9995">+findByEnabledTrue() : Streamable&lt;UserAccount&gt;</text><text fill="#000000" font-family="sans-serif" font-size="11" lengthAdjust="spacingAndGlyphs" textLength="294" x="589.5" y="742.8042">+findByEnabledFalse() : Streamable&lt;UserAccount&gt;</text><!--class org.salespointframework.useraccount.UserAccountManager--><rect fill="url(#g152ciep95enue0)" filter="url(#f152ciep95enue)" height="53.9375" id="org.salespointframework.useraccount.UserAccountManager" style="stroke: #000000; stroke-width: 1.5;" width="166" x="1032" y="612"/><ellipse cx="1047" cy="630.9688" fill="#B4A7E5" rx="11" ry="11" style="stroke: #000000; stroke-width: 1.0;"/><path d="M1043.1719,623.8906 L1050.7344,623.8906 L1050.7344,625.9844 L1048.1406,625.9844 L1048.1406,634.875 L1050.7344,634.875 L1050.7344,636.9688 L1043.1719,636.9688 L1043.1719,634.875 L1045.7656,634.875 L1045.7656,625.9844 L1043.1719,625.9844 L1043.1719,623.8906 Z "/><text fill="#000000" font-family="sans-serif" font-size="12" font-style="italic" lengthAdjust="spacingAndGlyphs" textLength="79" x="1088.5" y="628.1387">«Salespoint»</text><text fill="#000000" font-family="sans-serif" font-size="12" font-style="italic" lengthAdjust="spacingAndGlyphs" textLength="134" x="1061" y="642.1074">UserAccountManager</text><line style="stroke: #000000; stroke-width: 1.5;" x1="1033" x2="1197" y1="649.9375" y2="649.9375"/><line style="stroke: #000000; stroke-width: 1.5;" x1="1033" x2="1197" y1="657.9375" y2="657.9375"/><!--class org.salespointframework.context.ApplicationEvent--><rect fill="url(#g152ciep95enue0)" filter="url(#f152ciep95enue)" height="53.9375" id="org.salespointframework.context.ApplicationEvent" style="stroke: #000000; stroke-width: 1.5;" width="136" x="1744" y="612"/><ellipse cx="1759" cy="630.9688" fill="#ADD1B2" rx="11" ry="11" style="stroke: #000000; stroke-width: 1.0;"/><path d="M1762.3438,636.3906 Q1761.4844,636.8594 1760.7656,637.0313 Q1760.0625,637.2031 1759.2656,637.2031 Q1756.7031,637.2031 1755.2969,635.4219 Q1753.9063,633.625 1753.9063,630.4375 Q1753.9063,627.2813 1755.3125,625.4688 Q1756.7188,623.6563 1759.2656,623.6563 Q1760.0625,623.6563 1760.7656,623.8438 Q1761.4844,624.0156 1762.3438,624.4844 L1762.3438,627.1406 Q1761.2188,626.2031 1760.5625,625.9688 Q1759.9063,625.7188 1759.2656,625.7188 Q1757.8125,625.7188 1757.0781,626.8594 Q1756.3438,627.9844 1756.3438,630.4375 Q1756.3438,632.8906 1757.0781,634.0313 Q1757.8125,635.1563 1759.2656,635.1563 Q1759.9219,635.1563 1760.5625,634.9219 Q1761.2188,634.6719 1762.3438,633.7344 L1762.3438,636.3906 Z "/><text fill="#000000" font-family="sans-serif" font-size="12" font-style="italic" lengthAdjust="spacingAndGlyphs" textLength="79" x="1785.5" y="628.1387">«Salespoint»</text><text fill="#000000" font-family="sans-serif" font-size="12" lengthAdjust="spacingAndGlyphs" textLength="104" x="1773" y="642.1074">ApplicationEvent</text><line style="stroke: #000000; stroke-width: 1.5;" x1="1745" x2="1879" y1="649.9375" y2="649.9375"/><line style="stroke: #000000; stroke-width: 1.5;" x1="1745" x2="1879" y1="657.9375" y2="657.9375"/><!--class BusinessTime--><rect fill="url(#g152ciep95enue0)" filter="url(#f152ciep95enue)" height="53.9375" id="BusinessTime" style="stroke: #000000; stroke-width: 1.5;" width="114" x="1378" y="612"/><ellipse cx="1393" cy="630.9688" fill="#B4A7E5" rx="11" ry="11" style="stroke: #000000; stroke-width: 1.0;"/><path d="M1389.1719,623.8906 L1396.7344,623.8906 L1396.7344,625.9844 L1394.1406,625.9844 L1394.1406,634.875 L1396.7344,634.875 L1396.7344,636.9688 L1389.1719,636.9688 L1389.1719,634.875 L1391.7656,634.875 L1391.7656,625.9844 L1389.1719,625.9844 L1389.1719,623.8906 Z "/><text fill="#000000" font-family="sans-serif" font-size="12" font-style="italic" lengthAdjust="spacingAndGlyphs" textLength="79" x="1408.5" y="628.1387">«Salespoint»</text><text fill="#000000" font-family="sans-serif" font-size="12" font-style="italic" lengthAdjust="spacingAndGlyphs" textLength="82" x="1407" y="642.1074">BusinessTime</text><line style="stroke: #000000; stroke-width: 1.5;" x1="1379" x2="1491" y1="649.9375" y2="649.9375"/><line style="stroke: #000000; stroke-width: 1.5;" x1="1379" x2="1491" y1="657.9375" y2="657.9375"/><!--class bioladen.useraccount.UserAccountController--><rect fill="url(#g152ciep95enue1)" filter="url(#f152ciep95enue)" height="143.5703" id="bioladen.useraccount.UserAccountController" style="stroke: #000000; stroke-width: 1.5;" width="241" x="40.5" y="246"/><ellipse cx="86.25" cy="264.9688" fill="#ADD1B2" rx="11" ry="11" style="stroke: #000000; stroke-width: 1.0;"/><path d="M89.5938,270.3906 Q88.7344,270.8594 88.0156,271.0313 Q87.3125,271.2031 86.5156,271.2031 Q83.9531,271.2031 82.5469,269.4219 Q81.1563,267.625 81.1563,264.4375 Q81.1563,261.2813 82.5625,259.4688 Q83.9688,257.6563 86.5156,257.6563 Q87.3125,257.6563 88.0156,257.8438 Q88.7344,258.0156 89.5938,258.4844 L89.5938,261.1406 Q88.4688,260.2031 87.8125,259.9688 Q87.1563,259.7188 86.5156,259.7188 Q85.0625,259.7188 84.3281,260.8594 Q83.5938,261.9844 83.5938,264.4375 Q83.5938,266.8906 84.3281,268.0313 Q85.0625,269.1563 86.5156,269.1563 Q87.1719,269.1563 87.8125,268.9219 Q88.4688,268.6719 89.5938,267.7344 L89.5938,270.3906 Z "/><text fill="#000000" font-family="sans-serif" font-size="12" font-style="italic" lengthAdjust="spacingAndGlyphs" textLength="75" x="139.75" y="262.1387">«Controller»</text><text fill="#000000" font-family="sans-serif" font-size="12" lengthAdjust="spacingAndGlyphs" textLength="141" x="106.75" y="276.1074">UserAccountController</text><line style="stroke: #000000; stroke-width: 1.5;" x1="41.5" x2="280.5" y1="283.9375" y2="283.9375"/><line style="stroke: #000000; stroke-width: 1.5;" x1="41.5" x2="280.5" y1="291.9375" y2="291.9375"/><text fill="#000000" font-family="sans-serif" font-size="11" lengthAdjust="spacingAndGlyphs" textLength="142" x="46.5" y="306.1479">+login(LoginForm) : User</text><text fill="#000000" font-family="sans-serif" font-size="11" lengthAdjust="spacingAndGlyphs" textLength="176" x="46.5" y="318.9526">+logout(LogoutForm) : boolean</text><text fill="#000000" font-family="sans-serif" font-size="11" lengthAdjust="spacingAndGlyphs" textLength="221" x="46.5" y="331.7573">+resetPassword(ResetForm) : boolean</text><text fill="#000000" font-family="sans-serif" font-size="11" lengthAdjust="spacingAndGlyphs" textLength="193" x="46.5" y="344.562">+createUser(UserForm) : boolean</text><text fill="#000000" font-family="sans-serif" font-size="11" lengthAdjust="spacingAndGlyphs" textLength="192" x="46.5" y="357.3667">+deleteUser(UserForm) : boolean</text><text fill="#000000" font-family="sans-serif" font-size="11" lengthAdjust="spacingAndGlyphs" textLength="229" x="46.5" y="370.1714">+searchUser(SearchForm) : List&lt;User&gt;</text><text fill="#000000" font-family="sans-serif" font-size="11" lengthAdjust="spacingAndGlyphs" textLength="220" x="46.5" y="382.9761">+setNewPassword(SetForm) : boolean</text><!--class bioladen.useraccount.UserAccount--><rect fill="url(#g152ciep95enue2)" filter="url(#f152ciep95enue)" height="66.7422" id="bioladen.useraccount.UserAccount" style="stroke: #000000; stroke-width: 1.5;" width="226" x="317" y="284.5"/><ellipse cx="385.75" cy="303.4688" fill="#ADD1B2" rx="11" ry="11" style="stroke: #000000; stroke-width: 1.0;"/><path d="M389.0938,308.8906 Q388.2344,309.3594 387.5156,309.5313 Q386.8125,309.7031 386.0156,309.7031 Q383.4531,309.7031 382.0469,307.9219 Q380.6563,306.125 380.6563,302.9375 Q380.6563,299.7813 382.0625,297.9688 Q383.4688,296.1563 386.0156,296.1563 Q386.8125,296.1563 387.5156,296.3438 Q388.2344,296.5156 389.0938,296.9844 L389.0938,299.6406 Q387.9688,298.7031 387.3125,298.4688 Q386.6563,298.2188 386.0156,298.2188 Q384.5625,298.2188 383.8281,299.3594 Q383.0938,300.4844 383.0938,302.9375 Q383.0938,305.3906 383.8281,306.5313 Q384.5625,307.6563 386.0156,307.6563 Q386.6719,307.6563 387.3125,307.4219 Q387.9688,307.1719 389.0938,306.2344 L389.0938,308.8906 Z "/><text fill="#000000" font-family="sans-serif" font-size="12" font-style="italic" lengthAdjust="spacingAndGlyphs" textLength="50" x="421.25" y="300.6387">«Entity»</text><text fill="#000000" font-family="sans-serif" font-size="12" lengthAdjust="spacingAndGlyphs" textLength="80" x="406.25" y="314.6074">UserAccount</text><line style="stroke: #000000; stroke-width: 1.5;" x1="318" x2="542" y1="322.4375" y2="322.4375"/><line style="stroke: #000000; stroke-width: 1.5;" x1="318" x2="542" y1="330.4375" y2="330.4375"/><text fill="#000000" font-family="sans-serif" font-size="11" lengthAdjust="spacingAndGlyphs" textLength="214" x="323" y="344.6479">publishUserCreatedEvent(User) : void</text><!--class bioladen.event.EntityCreatedEvent--><rect fill="url(#g152ciep95enue2)" filter="url(#f152ciep95enue)" height="48" id="bioladen.event.EntityCreatedEvent" style="stroke: #000000; stroke-width: 1.5;" width="152" x="373" y="70"/><ellipse cx="388" cy="86" fill="#ADD1B2" rx="11" ry="11" style="stroke: #000000; stroke-width: 1.0;"/><path d="M391.3438,91.4219 Q390.4844,91.8906 389.7656,92.0625 Q389.0625,92.2344 388.2656,92.2344 Q385.7031,92.2344 384.2969,90.4531 Q382.9063,88.6563 382.9063,85.4688 Q382.9063,82.3125 384.3125,80.5 Q385.7188,78.6875 388.2656,78.6875 Q389.0625,78.6875 389.7656,78.875 Q390.4844,79.0469 391.3438,79.5156 L391.3438,82.1719 Q390.2188,81.2344 389.5625,81 Q388.9063,80.75 388.2656,80.75 Q386.8125,80.75 386.0781,81.8906 Q385.3438,83.0156 385.3438,85.4688 Q385.3438,87.9219 386.0781,89.0625 Q386.8125,90.1875 388.2656,90.1875 Q388.9219,90.1875 389.5625,89.9531 Q390.2188,89.7031 391.3438,88.7656 L391.3438,91.4219 Z "/><text fill="#000000" font-family="sans-serif" font-size="12" lengthAdjust="spacingAndGlyphs" textLength="120" x="402" y="90.1543">EntityCreatedEvent</text><line style="stroke: #000000; stroke-width: 1.5;" x1="374" x2="524" y1="102" y2="102"/><line style="stroke: #000000; stroke-width: 1.5;" x1="374" x2="524" y1="110" y2="110"/><!--entity register.html--><polygon fill="url(#g152ciep95enue3)" filter="url(#f152ciep95enue)" points="313.5,944,313.5,996.5938,420.5,996.5938,420.5,954,410.5,944,313.5,944" style="stroke: #000000; stroke-width: 1.5;"/><path d="M410.5,944 L410.5,954 L420.5,954 " fill="url(#g152ciep95enue3)" style="stroke: #000000; stroke-width: 1.5;"/><text fill="#000000" font-family="sans-serif" font-size="14" font-style="italic" lengthAdjust="spacingAndGlyphs" textLength="51" x="341.5" y="966.9951">«View»</text><text fill="#000000" font-family="sans-serif" font-size="14" lengthAdjust="spacingAndGlyphs" textLength="87" x="323.5" y="983.292">register.html</text><!--entity login.html--><polygon fill="url(#g152ciep95enue3)" filter="url(#f152ciep95enue)" points="455.5,944,455.5,996.5938,542.5,996.5938,542.5,954,532.5,944,455.5,944" style="stroke: #000000; stroke-width: 1.5;"/><path d="M532.5,944 L532.5,954 L542.5,954 " fill="url(#g152ciep95enue3)" style="stroke: #000000; stroke-width: 1.5;"/><text fill="#000000" font-family="sans-serif" font-size="14" font-style="italic" lengthAdjust="spacingAndGlyphs" textLength="51" x="473.5" y="966.9951">«View»</text><text fill="#000000" font-family="sans-serif" font-size="14" lengthAdjust="spacingAndGlyphs" textLength="67" x="465.5" y="983.292">login.html</text><!--entity userlist.html--><polygon fill="url(#g152ciep95enue3)" filter="url(#f152ciep95enue)" points="30,944,30,996.5938,134,996.5938,134,954,124,944,30,944" style="stroke: #000000; stroke-width: 1.5;"/><path d="M124,944 L124,954 L134,954 " fill="url(#g152ciep95enue3)" style="stroke: #000000; stroke-width: 1.5;"/><text fill="#000000" font-family="sans-serif" font-size="14" font-style="italic" lengthAdjust="spacingAndGlyphs" textLength="51" x="56.5" y="966.9951">«View»</text><text fill="#000000" font-family="sans-serif" font-size="14" lengthAdjust="spacingAndGlyphs" textLength="84" x="40" y="983.292">userlist.html</text><!--entity useracc.html--><polygon fill="url(#g152ciep95enue3)" filter="url(#f152ciep95enue)" points="169.5,944,169.5,996.5938,278.5,996.5938,278.5,954,268.5,944,169.5,944" style="stroke: #000000; stroke-width: 1.5;"/><path d="M268.5,944 L268.5,954 L278.5,954 " fill="url(#g152ciep95enue3)" style="stroke: #000000; stroke-width: 1.5;"/><text fill="#000000" font-family="sans-serif" font-size="14" font-style="italic" lengthAdjust="spacingAndGlyphs" textLength="51" x="198.5" y="966.9951">«View»</text><text fill="#000000" font-family="sans-serif" font-size="14" lengthAdjust="spacingAndGlyphs" textLength="89" x="179.5" y="983.292">useracc.html</text><!--class CrudRepository--><rect fill="url(#g152ciep95enue4)" filter="url(#f152ciep95enue)" height="194.7891" id="CrudRepository" style="stroke: #000000; stroke-width: 1.5;" width="309" x="1919.5" y="873"/><ellipse cx="2006.25" cy="891.9688" fill="#B4A7E5" rx="11" ry="11" style="stroke: #000000; stroke-width: 1.0;"/><path d="M2002.4219,884.8906 L2009.9844,884.8906 L2009.9844,886.9844 L2007.3906,886.9844 L2007.3906,895.875 L2009.9844,895.875 L2009.9844,897.9688 L2002.4219,897.9688 L2002.4219,895.875 L2005.0156,895.875 L2005.0156,886.9844 L2002.4219,886.9844 L2002.4219,884.8906 Z "/><text fill="#000000" font-family="sans-serif" font-size="12" font-style="italic" lengthAdjust="spacingAndGlyphs" textLength="54" x="2047.25" y="889.1387">«Spring»</text><text fill="#000000" font-family="sans-serif" font-size="12" font-style="italic" lengthAdjust="spacingAndGlyphs" textLength="95" x="2026.75" y="903.1074">CrudRepository</text><rect fill="#FFFFFF" height="15.9688" style="stroke: #000000; stroke-width: 1.0; stroke-dasharray: 2.0,2.0;" width="30" x="2201.5" y="870"/><text fill="#000000" font-family="sans-serif" font-size="12" font-style="italic" lengthAdjust="spacingAndGlyphs" textLength="28" x="2202.5" y="882.1387">T, ID</text><line style="stroke: #000000; stroke-width: 1.5;" x1="1920.5" x2="2227.5" y1="910.9375" y2="910.9375"/><line style="stroke: #000000; stroke-width: 1.5;" x1="1920.5" x2="2227.5" y1="918.9375" y2="918.9375"/><text fill="#000000" font-family="sans-serif" font-size="11" lengthAdjust="spacingAndGlyphs" textLength="162" x="1925.5" y="933.1479">&lt;S extends T&gt; +save(S) : S</text><text fill="#000000" font-family="sans-serif" font-size="11" lengthAdjust="spacingAndGlyphs" textLength="297" x="1925.5" y="945.9526">&lt;S extends T&gt; +saveAll(Iterable&lt;S​&gt;) : Iterable&lt;S&gt;</text><text fill="#000000" font-family="sans-serif" font-size="11" lengthAdjust="spacingAndGlyphs" textLength="157" x="1925.5" y="958.7573">+findById(ID) : Optional&lt;T&gt;</text><text fill="#000000" font-family="sans-serif" font-size="11" lengthAdjust="spacingAndGlyphs" textLength="143" x="1925.5" y="971.562">+existsById(ID) : boolean</text><text fill="#000000" font-family="sans-serif" font-size="11" lengthAdjust="spacingAndGlyphs" textLength="131" x="1925.5" y="984.3667">+findAll() : Iterable&lt;T&gt;</text><text fill="#000000" font-family="sans-serif" font-size="11" lengthAdjust="spacingAndGlyphs" textLength="227" x="1925.5" y="997.1714">+findAllById(Iterable&lt;ID&gt;) : Iterable&lt;T&gt;</text><text fill="#000000" font-family="sans-serif" font-size="11" lengthAdjust="spacingAndGlyphs" textLength="84" x="1925.5" y="1009.9761">+count() : long</text><text fill="#000000" font-family="sans-serif" font-size="11" lengthAdjust="spacingAndGlyphs" textLength="122" x="1925.5" y="1022.7808">+deleteById(ID) : void</text><text fill="#000000" font-family="sans-serif" font-size="11" lengthAdjust="spacingAndGlyphs" textLength="94" x="1925.5" y="1035.5854">+delete(T) : void</text><text fill="#000000" font-family="sans-serif" font-size="11" lengthAdjust="spacingAndGlyphs" textLength="227" x="1925.5" y="1048.3901">+deleteAll(Iterable&lt;? extends T&gt;) : void</text><text fill="#000000" font-family="sans-serif" font-size="11" lengthAdjust="spacingAndGlyphs" textLength="100" x="1925.5" y="1061.1948">+deleteAll() : void</text><!--link bioladen.event.EntityCreatedEvent to org.salespointframework.context.ApplicationEvent--><path d="M525.2014,94 C812.2414,94 1812,94 1812,94 C1812,94 1812,591.9734 1812,591.9734 " fill="none" id="bioladen.event.EntityCreatedEvent-org.salespointframework.context.ApplicationEvent" style="stroke: #000000; stroke-width: 1.0;"/><polygon fill="none" points="1819.0001,591.9734,1812,611.9734,1805.0001,591.9733,1819.0001,591.9734" style="stroke: #000000; stroke-width: 1.0;"/><!--link bioladen.event.EntityCreatedEvent to bioladen.useraccount.UserAccount--><path d="M449,123.3983 C449,123.3983 449,284.175 449,284.175 " fill="none" id="bioladen.event.EntityCreatedEvent-bioladen.useraccount.UserAccount" style="stroke: #000000; stroke-width: 1.0;"/><polygon fill="#000000" points="449,118.3983,445,127.3983,449,123.3983,453,127.3983,449,118.3983" style="stroke: #000000; stroke-width: 1.0;"/><!--link bioladen.useraccount.UserAccountController to register.html--><path d="M281.5483,383 C327.3716,383 368.75,383 368.75,383 C368.75,383 368.75,938.7297 368.75,938.7297 " fill="none" id="bioladen.useraccount.UserAccountController-register.html" style="stroke: #000000; stroke-width: 1.0;"/><polygon fill="#000000" points="368.75,943.7297,372.75,934.7297,368.75,938.7297,364.75,934.7297,368.75,943.7297" style="stroke: #000000; stroke-width: 1.0;"/><!--link bioladen.useraccount.UserAccountController to login.html--><path d="M281.5943,375 C378.663,375 499,375 499,375 C499,375 499,938.7557 499,938.7557 " fill="none" id="bioladen.useraccount.UserAccountController-login.html" style="stroke: #000000; stroke-width: 1.0;"/><polygon fill="#000000" points="499,943.7557,503,934.7557,499,938.7557,495,934.7557,499,943.7557" style="stroke: #000000; stroke-width: 1.0;"/><!--link bioladen.useraccount.UserAccountController to userlist.html--><path d="M87.25,390.0084 C87.25,390.0084 87.25,938.8796 87.25,938.8796 " fill="none" id="bioladen.useraccount.UserAccountController-userlist.html" style="stroke: #000000; stroke-width: 1.0;"/><polygon fill="#000000" points="87.25,943.8796,91.25,934.8796,87.25,938.8796,83.25,934.8796,87.25,943.8796" style="stroke: #000000; stroke-width: 1.0;"/><!--link bioladen.useraccount.UserAccountController to useracc.html--><path d="M205.8333,390.0084 C205.8333,390.0084 205.8333,938.8796 205.8333,938.8796 " fill="none" id="bioladen.useraccount.UserAccountController-useracc.html" style="stroke: #000000; stroke-width: 1.0;"/><polygon fill="#000000" points="205.8333,943.8796,209.8333,934.8796,205.8333,938.8796,201.8333,934.8796,205.8333,943.8796" style="stroke: #000000; stroke-width: 1.0;"/><!--link org.salespointframework.useraccount.UserAccountRepository to org.salespointframework.useraccount.UserAccount--><path d="M809.5,762.106 C809.5,762.106 809.5,1252.7728 809.5,1252.7728 " fill="none" id="org.salespointframework.useraccount.UserAccountRepository-org.salespointframework.useraccount.UserAccount" style="stroke: #000000; stroke-width: 1.0;"/><polygon fill="#000000" points="809.5,749.106,805.5,755.106,809.5,761.106,813.5,755.106,809.5,749.106" style="stroke: #000000; stroke-width: 1.0;"/><!--link org.salespointframework.useraccount.UserAccountRepository to CrudRepository--><path d="M903,749.2088 C903,823.8667 903,909 903,909 C903,909 1899.4064,909 1899.4064,909 " fill="none" id="org.salespointframework.useraccount.UserAccountRepository-CrudRepository" style="stroke: #000000; stroke-width: 1.0;"/><polygon fill="none" points="1899.4065,901.9999,1919.4064,909,1899.4064,915.9999,1899.4065,901.9999" style="stroke: #000000; stroke-width: 1.0;"/><text fill="#000000" font-family="sans-serif" font-size="13" lengthAdjust="spacingAndGlyphs" textLength="50" x="1672.5" y="792.0669">«binds»</text><text fill="#000000" font-family="sans-serif" font-size="13" lengthAdjust="spacingAndGlyphs" textLength="249" x="1573" y="807.1997">&lt;UserAccount, UserAccountIdentifier&gt;</text><!--link bioladen.useraccount.UserAccountController to org.salespointframework.useraccount.UserAccountManager--><path d="M281.8248,367 C538.5328,367 1115,367 1115,367 C1115,367 1115,606.9252 1115,606.9252 " fill="none" id="bioladen.useraccount.UserAccountController-org.salespointframework.useraccount.UserAccountManager" style="stroke: #000000; stroke-width: 1.0;"/><polygon fill="#000000" points="1115,611.9252,1119,602.9252,1115,606.9252,1111,602.9252,1115,611.9252" style="stroke: #000000; stroke-width: 1.0;"/><text fill="#000000" font-family="sans-serif" font-size="13" lengthAdjust="spacingAndGlyphs" textLength="0" x="1042.5" y="433.0669"/><text fill="#000000" font-family="sans-serif" font-size="13" lengthAdjust="spacingAndGlyphs" textLength="0" x="1042.5" y="448.1997"/><text fill="#000000" font-family="sans-serif" font-size="13" lengthAdjust="spacingAndGlyphs" textLength="115" x="983" y="463.3325">USER_ACCOUNTS</text><text fill="#000000" font-family="sans-serif" font-size="13" lengthAdjust="spacingAndGlyphs" textLength="8" x="289.4313" y="366.6129">1</text><text fill="#000000" font-family="sans-serif" font-size="13" lengthAdjust="spacingAndGlyphs" textLength="8" x="1106.075" y="601.0193">1</text><!--link bioladen.useraccount.UserAccountController to org.salespointframework.useraccount.UserAccountRepository--><path d="M242.1667,390.0387 C242.1667,484.6801 242.1667,639 242.1667,639 C242.1667,639 578.2781,639 578.2781,639 " fill="none" id="bioladen.useraccount.UserAccountController-org.salespointframework.useraccount.UserAccountRepository" style="stroke: #000000; stroke-width: 1.0;"/><polygon fill="#000000" points="583.2781,639,574.2781,635,578.2781,639,574.2781,643,583.2781,639" style="stroke: #000000; stroke-width: 1.0;"/><text fill="#000000" font-family="sans-serif" font-size="13" lengthAdjust="spacingAndGlyphs" textLength="8" x="241.5217" y="409.7134">1</text><text fill="#000000" font-family="sans-serif" font-size="13" lengthAdjust="spacingAndGlyphs" textLength="8" x="567.7053" y="635.7926">1</text><!--link bioladen.useraccount.UserAccountController to BusinessTime--><path d="M281.7158,360 C599.5115,360 1435,360 1435,360 C1435,360 1435,606.9948 1435,606.9948 " fill="none" id="bioladen.useraccount.UserAccountController-BusinessTime" style="stroke: #000000; stroke-width: 1.0;"/><polygon fill="#000000" points="1435,611.9948,1439,602.9948,1435,606.9948,1431,602.9948,1435,611.9948" style="stroke: #000000; stroke-width: 1.0;"/><!--link bioladen.useraccount.UserAccount to org.salespointframework.useraccount.UserAccount--><path d="M438,351.6323 C438,532.6614 438,1383 438,1383 C438,1383 695.873,1383 695.873,1383 " fill="none" id="bioladen.useraccount.UserAccount-org.salespointframework.useraccount.UserAccount" style="stroke: #000000; stroke-width: 1.0;"/><polygon fill="none" points="695.8731,1375.9999,715.873,1383,695.873,1389.9999,695.8731,1375.9999" style="stroke: #000000; stroke-width: 1.0;"/><rect fill="#DDDDDD" height="111.7813" rx="5" ry="5" style="stroke: #000000; stroke-width: 1.0;" width="213" x="1028" y="1554"/><text fill="#000000" font-family="sans-serif" font-size="14" font-weight="bold" lengthAdjust="spacingAndGlyphs" textLength="94" x="1038" y="1573.9951">Background</text><text fill="#000000" font-family="sans-serif" font-size="14" font-weight="bold" lengthAdjust="spacingAndGlyphs" textLength="91" x="1140" y="1573.9951">Component</text><rect fill="#3DD13F" height="16.2969" style="stroke: none; stroke-width: 1.0;" width="102" x="1034" y="1577.2969"/><text fill="#000000" font-family="sans-serif" font-size="14" lengthAdjust="spacingAndGlyphs" textLength="0" x="1054" y="1590.292"/><text fill="#000000" font-family="sans-serif" font-size="14" lengthAdjust="spacingAndGlyphs" textLength="32" x="1140" y="1590.292">View</text><rect fill="#5F9AEA" height="16.2969" style="stroke: none; stroke-width: 1.0;" width="102" x="1034" y="1593.5938"/><text fill="#000000" font-family="sans-serif" font-size="14" lengthAdjust="spacingAndGlyphs" textLength="0" x="1054" y="1606.5889"/><text fill="#000000" font-family="sans-serif" font-size="14" lengthAdjust="spacingAndGlyphs" textLength="67" x="1140" y="1606.5889">Controller</text><rect fill="#CEF6CE" height="16.2969" style="stroke: none; stroke-width: 1.0;" width="102" x="1034" y="1609.8906"/><text fill="#000000" font-family="sans-serif" font-size="14" lengthAdjust="spacingAndGlyphs" textLength="0" x="1054" y="1622.8857"/><text fill="#000000" font-family="sans-serif" font-size="14" lengthAdjust="spacingAndGlyphs" textLength="44" x="1140" y="1622.8857">Spring</text><rect fill="#F5A9BC" height="16.2969" style="stroke: none; stroke-width: 1.0;" width="102" x="1034" y="1626.1875"/><text fill="#000000" font-family="sans-serif" font-size="14" lengthAdjust="spacingAndGlyphs" textLength="0" x="1054" y="1639.1826"/><text fill="#000000" font-family="sans-serif" font-size="14" lengthAdjust="spacingAndGlyphs" textLength="72" x="1140" y="1639.1826">Salespoint</text><rect fill="#F9ED93" height="16.2969" style="stroke: none; stroke-width: 1.0;" width="102" x="1034" y="1642.4844"/><text fill="#000000" font-family="sans-serif" font-size="14" lengthAdjust="spacingAndGlyphs" textLength="0" x="1054" y="1655.4795"/><text fill="#000000" font-family="sans-serif" font-size="14" lengthAdjust="spacingAndGlyphs" textLength="26" x="1140" y="1655.4795">Java</text><line style="stroke: #000000; stroke-width: 1.0;" x1="1034" x2="1235" y1="1561" y2="1561"/><line style="stroke: #000000; stroke-width: 1.0;" x1="1034" x2="1235" y1="1577.2969" y2="1577.2969"/><line style="stroke: #000000; stroke-width: 1.0;" x1="1034" x2="1235" y1="1593.5938" y2="1593.5938"/><line style="stroke: #000000; stroke-width: 1.0;" x1="1034" x2="1235" y1="1609.8906" y2="1609.8906"/><line style="stroke: #000000; stroke-width: 1.0;" x1="1034" x2="1235" y1="1626.1875" y2="1626.1875"/><line style="stroke: #000000; stroke-width: 1.0;" x1="1034" x2="1235" y1="1642.4844" y2="1642.4844"/><line style="stroke: #000000; stroke-width: 1.0;" x1="1034" x2="1235" y1="1658.7813" y2="1658.7813"/><line style="stroke: #000000; stroke-width: 1.0;" x1="1034" x2="1034" y1="1561" y2="1658.7813"/><line style="stroke: #000000; stroke-width: 1.0;" x1="1136" x2="1136" y1="1561" y2="1658.7813"/><line style="stroke: #000000; stroke-width: 1.0;" x1="1235" x2="1235" y1="1561" y2="1658.7813"/><!--
@startuml




skinparam class {
	BackgroundColor #Silver/white
	BackgroundColor<<Spring>> #a9f5e1/cef6ce
	BackgroundColor<<Salespoint>> #f5a9bc/f6e3ce
	BackgroundColor<<Java>> #f9ed93/fbb4ce
	BackgroundColor<<Controller>> #Cornflowerblue/Cyan
    BorderColor Black
    ArrowColor  Black
}

skinparam package {
    FontColor Grey
    BorderColor Darkgrey
}

skinparam classAttributeIconSize 0
skinparam linetype ortho

legend
| Background | Component |
|<#3dd13f>     | View |
|<#5f9aea>     | Controller |
|<#cef6ce>     | Spring |
|<#f5a9bc>     | Salespoint |
|<#f9ed93>     | Java |
endlegend


rectangle salespoint-framework-7.0.0.RELEASE.jar {

    namespace org.salespointframework.useraccount {
        class UserAccount <<Salespoint>> {
            -userAccountIdentifier : UserAccountIdentifier
            -password : Password
            -firstname : String
            -lastname : String
            -email : String
            -roles : Set<Role>
            -enable : boolean

            +UserAccount()
            +UserAccount(UserAccountIdentifier, String, Role...)
            +UserAccount(UserAccountIdentifier, String, String, String, String, Collection<Role>)
            +getID() : UserAccountIdentifier
            +getUserName() : String
            +add(Role) : boolean
            +remove(Role) : boolean
            +hasRole() : boolean
            +getRoles() : Streamable<Role>
        }

        class Role <<Salespoint>>{
            -name : String

            +{static} of(String) : Role
        }

        interface UserAccountRepository <<Salespoint>> {
            +save(UserAccount) : UserAccount
            +saveAll(Iterable<UserAccount>) : Iterable<UserAccount>
            +findById(UserAccountIdentifier) : Optional<UserAccount>
            +existsById(UserAccountIdentifier) : boolean
            +findAll() : Iterable<UserAccount>
            +findAllById(Iterable<UserAccountIdentifier>) : Iterable<UserAccount>
            +count() : long
            +deleteById(UserAccountIdentifier) : void
            +delete(UserAccount) : void
            +deleteAll(Iterable<UserAccount>) : void
            +deleteAll() : void
            +findByEnabledTrue() : Streamable<UserAccount>
            +findByEnabledFalse() : Streamable<UserAccount>
        }

        interface UserAccountManager <<Salespoint>>

    }

    namespace org.salespointframework.context {
        class ApplicationEvent <<Salespoint>>{

        }

    }

    package org.salespointframework.time {
        interface BusinessTime <<Salespoint>> {

        }
    }

}



rectangle Bioladen {

    namespace bioladen.useraccount {

        class UserAccountController <<Controller>>  {
            +login(LoginForm) : User
            +logout(LogoutForm) : boolean
            +resetPassword(ResetForm) : boolean
            +createUser(UserForm) : boolean
            +deleteUser(UserForm) : boolean
            +searchUser(SearchForm) : List<User>
            +setNewPassword(SetForm) : boolean

        }

        class UserAccount <<Entity>> {
            publishUserCreatedEvent(User) : void
        }
    }

    namespace bioladen.event {
        class EntityCreatedEvent {

        }
        EntityCreatedEvent - -|> org.salespointframework.context.ApplicationEvent

        EntityCreatedEvent <- - bioladen.useraccount.UserAccount

    }

    namespace ressources.templates {

        file register.html <<View>> #limegreen/technology {

        }

        file login.html <<View>> #limegreen/technology {

        }

        file userlist.html <<View>> #limegreen/technology {

        }

        file useracc.html <<View>> #limegreen/technology {

        }

        bioladen.useraccount.UserAccountController - -> register.html
        bioladen.useraccount.UserAccountController - -> login.html
        bioladen.useraccount.UserAccountController - -> userlist.html
        bioladen.useraccount.UserAccountController - -> useracc.html

    }

}





rectangle spring-data-comments-2.1.0.RELEASE.jar as spring {

    package org.springframework.data.repository {
        interface CrudRepository <T, ID> <<Spring>>{
            <S extends T> +save(S) : S
            <S extends T> +saveAll(Iterable<S​>) : Iterable<S>
            +findById(ID) : Optional<T>
            +existsById(ID) : boolean
            +findAll() : Iterable<T>
            +findAllById(Iterable<ID>) : Iterable<T>
            +count() : long
            +deleteById(ID) : void
            +delete(T) : void
            +deleteAll(Iterable<? extends T>) : void
            +deleteAll() : void
        }
    }

}



org.salespointframework.useraccount.UserAccountRepository  *- -  org.salespointframework.useraccount.UserAccount
org.salespointframework.useraccount.UserAccountRepository - -|> CrudRepository: <<binds>>\n<UserAccount, UserAccountIdentifier>
bioladen.useraccount.UserAccountController "1" - -> "1" org.salespointframework.useraccount.UserAccountManager: \n\nUSER_ACCOUNTS
bioladen.useraccount.UserAccountController "1" - -> "1" org.salespointframework.useraccount.UserAccountRepository
bioladen.useraccount.UserAccountController - -> BusinessTime

bioladen.useraccount.UserAccount - -|> org.salespointframework.useraccount.UserAccount

@enduml

PlantUML version 1.2018.12(Sun Oct 21 12:15:15 CEST 2018)
(GPL source distribution)
Java Runtime: OpenJDK Runtime Environment
JVM: OpenJDK 64-Bit Server VM
Java Version: 11.0.1+13-Ubuntu-2ubuntu1
Operating System: Linux
OS Version: 4.18.0-10-generic
Default Encoding: UTF-8
Language: de
Country: DE
--></g></svg>