<?xml version="1.0" encoding="UTF-8" standalone="no"?><svg xmlns="http://www.w3.org/2000/svg" xmlns:xlink="http://www.w3.org/1999/xlink" contentScriptType="application/ecmascript" contentStyleType="text/css" height="292px" preserveAspectRatio="none" style="width:903px;height:292px;" version="1.1" viewBox="0 0 903 292" width="903px" zoomAndPan="magnify"><defs><filter height="300%" id="f17uptnyy1wavn" width="300%" x="-1" y="-1"><feGaussianBlur result="blurOut" stdDeviation="2.0"/><feColorMatrix in="blurOut" result="blurOut2" type="matrix" values="0 0 0 0 0 0 0 0 0 0 0 0 0 0 0 0 0 0 .4 0"/><feOffset dx="4.0" dy="4.0" in="blurOut2" result="blurOut3"/><feBlend in="SourceGraphic" in2="blurOut3" mode="normal"/></filter><linearGradient id="g17uptnyy1wavn0" x1="0%" x2="100%" y1="0%" y2="100%"><stop offset="0%" stop-color="#F08080"/><stop offset="100%" stop-color="#FFB6C1"/></linearGradient></defs><g><!--cluster salespoint-framework-7.0.0.RELEASE.jar--><rect fill="#FFFFFF" filter="url(#f17uptnyy1wavn)" height="265" style="stroke: #8B008B; stroke-width: 1.5;" width="696" x="14" y="16"/><text fill="#808080" font-family="sans-serif" font-size="14" font-weight="bold" lengthAdjust="spacingAndGlyphs" textLength="316" x="204" y="30.9951">salespoint-framework-7.0.0.RELEASE.jar</text><!--cluster org.salespointframework.order--><polygon fill="#FFFFFF" filter="url(#f17uptnyy1wavn)" points="22,43,276,43,283,65.2969,702,65.2969,702,273,22,273,22,43" style="stroke: #8B008B; stroke-width: 1.5;"/><line style="stroke: #8B008B; stroke-width: 1.5;" x1="22" x2="283" y1="65.2969" y2="65.2969"/><text fill="#808080" font-family="sans-serif" font-size="14" font-weight="bold" lengthAdjust="spacingAndGlyphs" textLength="248" x="26" y="57.9951">org.salespointframework.order</text><!--cluster Bioladen--><rect fill="#FFFFFF" filter="url(#f17uptnyy1wavn)" height="124" style="stroke: #8B008B; stroke-width: 1.5;" width="171" x="718" y="86.5"/><text fill="#808080" font-family="sans-serif" font-size="14" font-weight="bold" lengthAdjust="spacingAndGlyphs" textLength="67" x="770" y="101.4951">Bioladen</text><!--cluster bioladen.finances--><polygon fill="#FFFFFF" filter="url(#f17uptnyy1wavn)" points="726,113.5,871,113.5,878,135.7969,881,135.7969,881,202.5,726,202.5,726,113.5" style="stroke: #8B008B; stroke-width: 1.5;"/><line style="stroke: #8B008B; stroke-width: 1.5;" x1="726" x2="878" y1="135.7969" y2="135.7969"/><text fill="#808080" font-family="sans-serif" font-size="14" font-weight="bold" lengthAdjust="spacingAndGlyphs" textLength="139" x="730" y="128.4951">bioladen.finances</text><!--class org.salespointframework.order.Cart--><rect fill="url(#g17uptnyy1wavn0)" filter="url(#f17uptnyy1wavn)" height="194.7891" id="org.salespointframework.order.Cart" style="stroke: #000000; stroke-width: 1.5;" width="297" x="396.5" y="70"/><ellipse cx="517.75" cy="88.9688" fill="#ADD1B2" rx="11" ry="11" style="stroke: #000000; stroke-width: 1.0;"/><path d="M520.7188,94.6094 Q520.1406,94.9063 519.5,95.0469 Q518.8594,95.2031 518.1563,95.2031 Q515.6563,95.2031 514.3281,93.5625 Q513.0156,91.9063 513.0156,88.7813 Q513.0156,85.6563 514.3281,84 Q515.6563,82.3438 518.1563,82.3438 Q518.8594,82.3438 519.5,82.5 Q520.1563,82.6563 520.7188,82.9531 L520.7188,85.6719 Q520.0938,85.0938 519.5,84.8281 Q518.9063,84.5469 518.2813,84.5469 Q516.9375,84.5469 516.25,85.625 Q515.5625,86.6875 515.5625,88.7813 Q515.5625,90.875 516.25,91.9531 Q516.9375,93.0156 518.2813,93.0156 Q518.9063,93.0156 519.5,92.75 Q520.0938,92.4688 520.7188,91.8906 L520.7188,94.6094 Z "/><text fill="#000000" font-family="sans-serif" font-size="12" font-style="italic" lengthAdjust="spacingAndGlyphs" textLength="50" x="536.25" y="86.1387">«Entity»</text><text fill="#000000" font-family="sans-serif" font-size="12" lengthAdjust="spacingAndGlyphs" textLength="26" x="548.25" y="100.1074">Cart</text><line style="stroke: #000000; stroke-width: 1.5;" x1="397.5" x2="692.5" y1="107.9375" y2="107.9375"/><line style="stroke: #000000; stroke-width: 1.5;" x1="397.5" x2="692.5" y1="115.9375" y2="115.9375"/><text fill="#000000" font-family="sans-serif" font-size="11" lengthAdjust="spacingAndGlyphs" textLength="155" x="402.5" y="130.1479">+addItemTo(Order) : Order</text><text fill="#000000" font-family="sans-serif" font-size="11" lengthAdjust="spacingAndGlyphs" textLength="253" x="402.5" y="142.9526">+addOrUpdateItem(Product, long) : CartItem</text><text fill="#000000" font-family="sans-serif" font-size="11" lengthAdjust="spacingAndGlyphs" textLength="285" x="402.5" y="155.7573">+addOrUpdateItem(Product, Quantity) : CartItem+</text><text fill="#000000" font-family="sans-serif" font-size="11" lengthAdjust="spacingAndGlyphs" textLength="80" x="402.5" y="168.562">+clear() : void</text><text fill="#000000" font-family="sans-serif" font-size="11" lengthAdjust="spacingAndGlyphs" textLength="220" x="402.5" y="181.3667">+createOrderFor(UserAccount) : Order</text><text fill="#000000" font-family="sans-serif" font-size="11" lengthAdjust="spacingAndGlyphs" textLength="220" x="402.5" y="194.1714">+getItem(String) : Optional&lt;CartItem&gt;</text><text fill="#000000" font-family="sans-serif" font-size="11" lengthAdjust="spacingAndGlyphs" textLength="170" x="402.5" y="206.9761">+getPrice() : MonetaryAmount</text><text fill="#000000" font-family="sans-serif" font-size="11" lengthAdjust="spacingAndGlyphs" textLength="119" x="402.5" y="219.7808">+isEmpty() : boolean</text><text fill="#000000" font-family="sans-serif" font-size="11" lengthAdjust="spacingAndGlyphs" textLength="180" x="402.5" y="232.5854">+iterator() : Iterator&lt;CartItem&gt;</text><text fill="#000000" font-family="sans-serif" font-size="11" lengthAdjust="spacingAndGlyphs" textLength="245" x="402.5" y="245.3901">+removeItem(String) : Optional&lt;CartItem&gt;</text><text fill="#000000" font-family="sans-serif" font-size="11" lengthAdjust="spacingAndGlyphs" textLength="251" x="402.5" y="258.1948">+sumUp(Iterable&lt;? extends Priced&gt; priced)</text><!--class org.salespointframework.order.CartItem--><rect fill="url(#g17uptnyy1wavn0)" filter="url(#f17uptnyy1wavn)" height="143.5703" id="org.salespointframework.order.CartItem" style="stroke: #000000; stroke-width: 1.5;" width="331" x="30.5" y="95.5"/><ellipse cx="165.25" cy="114.4688" fill="#ADD1B2" rx="11" ry="11" style="stroke: #000000; stroke-width: 1.0;"/><path d="M168.2188,120.1094 Q167.6406,120.4063 167,120.5469 Q166.3594,120.7031 165.6563,120.7031 Q163.1563,120.7031 161.8281,119.0625 Q160.5156,117.4063 160.5156,114.2813 Q160.5156,111.1563 161.8281,109.5 Q163.1563,107.8438 165.6563,107.8438 Q166.3594,107.8438 167,108 Q167.6563,108.1563 168.2188,108.4531 L168.2188,111.1719 Q167.5938,110.5938 167,110.3281 Q166.4063,110.0469 165.7813,110.0469 Q164.4375,110.0469 163.75,111.125 Q163.0625,112.1875 163.0625,114.2813 Q163.0625,116.375 163.75,117.4531 Q164.4375,118.5156 165.7813,118.5156 Q166.4063,118.5156 167,118.25 Q167.5938,117.9688 168.2188,117.3906 L168.2188,120.1094 Z "/><text fill="#000000" font-family="sans-serif" font-size="12" font-style="italic" lengthAdjust="spacingAndGlyphs" textLength="50" x="187.25" y="111.6387">«Entity»</text><text fill="#000000" font-family="sans-serif" font-size="12" lengthAdjust="spacingAndGlyphs" textLength="53" x="185.75" y="125.6074">CartItem</text><line style="stroke: #000000; stroke-width: 1.5;" x1="31.5" x2="360.5" y1="133.4375" y2="133.4375"/><line style="stroke: #000000; stroke-width: 1.5;" x1="31.5" x2="360.5" y1="141.4375" y2="141.4375"/><text fill="#000000" font-family="sans-serif" font-size="11" lengthAdjust="spacingAndGlyphs" textLength="92" x="36.5" y="155.6479">+getID() : String</text><text fill="#000000" font-family="sans-serif" font-size="11" lengthAdjust="spacingAndGlyphs" textLength="170" x="36.5" y="168.4526">+getPrice() : MonetaryAmount</text><text fill="#000000" font-family="sans-serif" font-size="11" lengthAdjust="spacingAndGlyphs" textLength="133" x="36.5" y="181.2573">+getProduct() : Product</text><text fill="#000000" font-family="sans-serif" font-size="11" lengthAdjust="spacingAndGlyphs" textLength="157" x="36.5" y="194.062">+getProductName() : String</text><text fill="#000000" font-family="sans-serif" font-size="11" lengthAdjust="spacingAndGlyphs" textLength="141" x="36.5" y="206.8667">+getQuantity() : Quantity</text><text fill="#000000" font-family="sans-serif" font-size="11" lengthAdjust="spacingAndGlyphs" textLength="100" x="36.5" y="219.6714">+hashCode() : int</text><text fill="#000000" font-family="sans-serif" font-size="11" lengthAdjust="spacingAndGlyphs" textLength="319" x="36.5" y="232.4761">+sumUp(Iterable&lt;? extends Priced&gt;) : MonetaryAmount</text><!--class bioladen.finances.CashierSystem--><rect fill="url(#g17uptnyy1wavn0)" filter="url(#f17uptnyy1wavn)" height="53.9375" id="bioladen.finances.CashierSystem" style="stroke: #000000; stroke-width: 1.5;" width="124" x="741" y="140.5"/><ellipse cx="756" cy="159.4688" fill="#ADD1B2" rx="11" ry="11" style="stroke: #000000; stroke-width: 1.0;"/><path d="M758.9688,165.1094 Q758.3906,165.4063 757.75,165.5469 Q757.1094,165.7031 756.4063,165.7031 Q753.9063,165.7031 752.5781,164.0625 Q751.2656,162.4063 751.2656,159.2813 Q751.2656,156.1563 752.5781,154.5 Q753.9063,152.8438 756.4063,152.8438 Q757.1094,152.8438 757.75,153 Q758.4063,153.1563 758.9688,153.4531 L758.9688,156.1719 Q758.3438,155.5938 757.75,155.3281 Q757.1563,155.0469 756.5313,155.0469 Q755.1875,155.0469 754.5,156.125 Q753.8125,157.1875 753.8125,159.2813 Q753.8125,161.375 754.5,162.4531 Q755.1875,163.5156 756.5313,163.5156 Q757.1563,163.5156 757.75,163.25 Q758.3438,162.9688 758.9688,162.3906 L758.9688,165.1094 Z "/><text fill="#000000" font-family="sans-serif" font-size="12" font-style="italic" lengthAdjust="spacingAndGlyphs" textLength="50" x="791" y="156.6387">«Entity»</text><text fill="#000000" font-family="sans-serif" font-size="12" lengthAdjust="spacingAndGlyphs" textLength="92" x="770" y="170.6074">CashierSystem</text><line style="stroke: #000000; stroke-width: 1.5;" x1="742" x2="864" y1="178.4375" y2="178.4375"/><line style="stroke: #000000; stroke-width: 1.5;" x1="742" x2="864" y1="186.4375" y2="186.4375"/><!--
@startuml

skinparam class {
	BackgroundColor #LightCoral/LightPink
    BorderColor Black
    ArrowColor  Black
}

skinparam package {
    FontColor Grey
    BorderColor DarkMagenta
}

skinparam classAttributeIconSize 0
skinparam linetype ortho


rectangle salespoint-framework-7.0.0.RELEASE.jar {
    namespace org.salespointframework.order {
        class Cart <<Entity>>{
            +addItemTo(Order) : Order
            +addOrUpdateItem(Product, long) : CartItem
            +addOrUpdateItem(Product, Quantity) : CartItem+
            +clear() : void
            +createOrderFor(UserAccount) : Order
            +getItem(String) : Optional<CartItem>
            +getPrice() : MonetaryAmount
            +isEmpty() : boolean
            +iterator() : Iterator<CartItem>
            +removeItem(String) : Optional<CartItem>
            +sumUp(Iterable<? extends Priced> priced)
        }

        class CartItem <<Entity>>{
            +getID() : String
            +getPrice() : MonetaryAmount
            +getProduct() : Product
            +getProductName() : String
            +getQuantity() : Quantity
            +hashCode() : int
            +sumUp(Iterable<? extends Priced>) : MonetaryAmount
        }

    }
}


rectangle Bioladen {
    namespace bioladen.finances {

        class CashierSystem <<Entity>> {

        }

    }

}


@enduml

PlantUML version 1.2018.12(Sun Oct 21 12:15:15 CEST 2018)
(GPL source distribution)
Java Runtime: OpenJDK Runtime Environment
JVM: OpenJDK 64-Bit Server VM
Java Version: 11.0.1+13-Debian-2
Operating System: Linux
OS Version: 4.18.0-parrot10-amd64
Default Encoding: UTF-8
Language: en
Country: US
--></g></svg>