<?xml version="1.0" encoding="UTF-8" standalone="no"?><svg xmlns="http://www.w3.org/2000/svg" xmlns:xlink="http://www.w3.org/1999/xlink" contentScriptType="application/ecmascript" contentStyleType="text/css" height="1640px" preserveAspectRatio="none" style="width:1536px;height:1640px;" version="1.1" viewBox="0 0 1536 1640" width="1536px" zoomAndPan="magnify"><defs><filter height="300%" id="f1m2didczg5y0y" width="300%" x="-1" y="-1"><feGaussianBlur result="blurOut" stdDeviation="2.0"/><feColorMatrix in="blurOut" result="blurOut2" type="matrix" values="0 0 0 0 0 0 0 0 0 0 0 0 0 0 0 0 0 0 .4 0"/><feOffset dx="4.0" dy="4.0" in="blurOut2" result="blurOut3"/><feBlend in="SourceGraphic" in2="blurOut3" mode="normal"/></filter><linearGradient id="g1m2didczg5y0y0" x1="0%" x2="100%" y1="0%" y2="100%"><stop offset="0%" stop-color="#F08080"/><stop offset="100%" stop-color="#FFB6C1"/></linearGradient></defs><g><!--cluster salespoint-framework-7.0.0.RELEASE.jar--><rect fill="#FFFFFF" filter="url(#f1m2didczg5y0y)" height="316" style="stroke: #8B008B; stroke-width: 1.5;" width="806" x="708" y="499"/><text fill="#808080" font-family="sans-serif" font-size="14" font-weight="bold" lengthAdjust="spacingAndGlyphs" textLength="316" x="953" y="513.9951">salespoint-framework-7.0.0.RELEASE.jar</text><!--cluster org.salespointframework.catalog--><polygon fill="#FFFFFF" filter="url(#f1m2didczg5y0y)" points="978,526,1245,526,1252,548.2969,1506,548.2969,1506,807,978,807,978,526" style="stroke: #8B008B; stroke-width: 1.5;"/><line style="stroke: #8B008B; stroke-width: 1.5;" x1="978" x2="1252" y1="548.2969" y2="548.2969"/><text fill="#808080" font-family="sans-serif" font-size="14" font-weight="bold" lengthAdjust="spacingAndGlyphs" textLength="261" x="982" y="540.9951">org.salespointframework.catalog</text><!--cluster org.salespointframework.time--><polygon fill="#FFFFFF" filter="url(#f1m2didczg5y0y)" points="716,622,960,622,967,644.2969,970,644.2969,970,711,716,711,716,622" style="stroke: #8B008B; stroke-width: 1.5;"/><line style="stroke: #8B008B; stroke-width: 1.5;" x1="716" x2="967" y1="644.2969" y2="644.2969"/><text fill="#808080" font-family="sans-serif" font-size="14" font-weight="bold" lengthAdjust="spacingAndGlyphs" textLength="238" x="720" y="636.9951">org.salespointframework.time</text><!--cluster spring--><rect fill="#FFFFFF" filter="url(#f1m2didczg5y0y)" height="259" style="stroke: #8B008B; stroke-width: 1.5;" width="340" x="1008" y="937.5"/><text fill="#808080" font-family="sans-serif" font-size="14" font-weight="bold" lengthAdjust="spacingAndGlyphs" textLength="321" x="1017.5" y="952.4951">spring-data-comments-2.1.0.RELEASE.jar</text><!--cluster org.springframework.data.repository--><polygon fill="#FFFFFF" filter="url(#f1m2didczg5y0y)" points="1016,964.5,1316,964.5,1323,986.7969,1340,986.7969,1340,1188.5,1016,1188.5,1016,964.5" style="stroke: #8B008B; stroke-width: 1.5;"/><line style="stroke: #8B008B; stroke-width: 1.5;" x1="1016" x2="1323" y1="986.7969" y2="986.7969"/><text fill="#808080" font-family="sans-serif" font-size="14" font-weight="bold" lengthAdjust="spacingAndGlyphs" textLength="294" x="1020" y="979.4951">org.springframework.data.repository</text><!--cluster Bioladen--><rect fill="#FFFFFF" filter="url(#f1m2didczg5y0y)" height="1613" style="stroke: #8B008B; stroke-width: 1.5;" width="686" x="14" y="16"/><text fill="#808080" font-family="sans-serif" font-size="14" font-weight="bold" lengthAdjust="spacingAndGlyphs" textLength="67" x="323.5" y="30.9951">Bioladen</text><!--cluster bioladen.product--><polygon fill="#FFFFFF" filter="url(#f1m2didczg5y0y)" points="219,43,359,43,366,65.2969,692,65.2969,692,1621,219,1621,219,43" style="stroke: #8B008B; stroke-width: 1.5;"/><line style="stroke: #8B008B; stroke-width: 1.5;" x1="219" x2="366" y1="65.2969" y2="65.2969"/><text fill="#808080" font-family="sans-serif" font-size="14" font-weight="bold" lengthAdjust="spacingAndGlyphs" textLength="134" x="223" y="57.9951">bioladen.product</text><!--cluster bioladen.product.web--><polygon fill="#FFFFFF" filter="url(#f1m2didczg5y0y)" points="22,379,201,379,208,401.2969,211,401.2969,211,468,22,468,22,379" style="stroke: #8B008B; stroke-width: 1.5;"/><line style="stroke: #8B008B; stroke-width: 1.5;" x1="22" x2="208" y1="401.2969" y2="401.2969"/><text fill="#808080" font-family="sans-serif" font-size="14" font-weight="bold" lengthAdjust="spacingAndGlyphs" textLength="173" x="26" y="393.9951">bioladen.product.web</text><!--class org.salespointframework.catalog.Catalog--><rect fill="url(#g1m2didczg5y0y0)" filter="url(#f1m2didczg5y0y)" height="53.9375" id="org.salespointframework.catalog.Catalog" style="stroke: #000000; stroke-width: 1.5;" width="225" x="1272.5" y="649"/><ellipse cx="1287.5" cy="667.9688" fill="#B4A7E5" rx="11" ry="11" style="stroke: #000000; stroke-width: 1.0;"/><path d="M1283.4219,663.7344 L1283.4219,661.5781 L1290.8125,661.5781 L1290.8125,663.7344 L1288.3438,663.7344 L1288.3438,671.8125 L1290.8125,671.8125 L1290.8125,673.9688 L1283.4219,673.9688 L1283.4219,671.8125 L1285.8906,671.8125 L1285.8906,663.7344 L1283.4219,663.7344 Z "/><text fill="#000000" font-family="sans-serif" font-size="12" font-style="italic" lengthAdjust="spacingAndGlyphs" textLength="80" x="1299.5" y="665.1387">«Repository»</text><text fill="#000000" font-family="sans-serif" font-size="12" font-style="italic" lengthAdjust="spacingAndGlyphs" textLength="48" x="1315.5" y="679.1074">Catalog</text><rect fill="#FFFFFF" height="15.9688" style="stroke: #000000; stroke-width: 1.0; stroke-dasharray: 2.0,2.0;" width="115" x="1385.5" y="646"/><text fill="#000000" font-family="sans-serif" font-size="12" font-style="italic" lengthAdjust="spacingAndGlyphs" textLength="113" x="1386.5" y="658.1387">T extends Product</text><line style="stroke: #000000; stroke-width: 1.5;" x1="1273.5" x2="1496.5" y1="686.9375" y2="686.9375"/><line style="stroke: #000000; stroke-width: 1.5;" x1="1273.5" x2="1496.5" y1="694.9375" y2="694.9375"/><!--class org.salespointframework.catalog.Product--><rect fill="url(#g1m2didczg5y0y0)" filter="url(#f1m2didczg5y0y)" height="246.0078" id="org.salespointframework.catalog.Product" style="stroke: #000000; stroke-width: 1.5;" width="251" x="986.5" y="553"/><ellipse cx="1083.25" cy="571.9688" fill="#ADD1B2" rx="11" ry="11" style="stroke: #000000; stroke-width: 1.0;"/><path d="M1086.2188,577.6094 Q1085.6406,577.9063 1085,578.0469 Q1084.3594,578.2031 1083.6563,578.2031 Q1081.1563,578.2031 1079.8281,576.5625 Q1078.5156,574.9063 1078.5156,571.7813 Q1078.5156,568.6563 1079.8281,567 Q1081.1563,565.3438 1083.6563,565.3438 Q1084.3594,565.3438 1085,565.5 Q1085.6563,565.6563 1086.2188,565.9531 L1086.2188,568.6719 Q1085.5938,568.0938 1085,567.8281 Q1084.4063,567.5469 1083.7813,567.5469 Q1082.4375,567.5469 1081.75,568.625 Q1081.0625,569.6875 1081.0625,571.7813 Q1081.0625,573.875 1081.75,574.9531 Q1082.4375,576.0156 1083.7813,576.0156 Q1084.4063,576.0156 1085,575.75 Q1085.5938,575.4688 1086.2188,574.8906 L1086.2188,577.6094 Z "/><text fill="#000000" font-family="sans-serif" font-size="12" font-style="italic" lengthAdjust="spacingAndGlyphs" textLength="50" x="1103.25" y="569.1387">«Entity»</text><text fill="#000000" font-family="sans-serif" font-size="12" lengthAdjust="spacingAndGlyphs" textLength="49" x="1103.75" y="583.1074">Product</text><line style="stroke: #000000; stroke-width: 1.5;" x1="987.5" x2="1236.5" y1="590.9375" y2="590.9375"/><text fill="#000000" font-family="sans-serif" font-size="11" lengthAdjust="spacingAndGlyphs" textLength="202" x="992.5" y="605.1479">-productIdentifier : ProductIdentifier</text><text fill="#000000" font-family="sans-serif" font-size="11" lengthAdjust="spacingAndGlyphs" textLength="82" x="992.5" y="617.9526">-name : String</text><text fill="#000000" font-family="sans-serif" font-size="11" lengthAdjust="spacingAndGlyphs" textLength="139" x="992.5" y="630.7573">-price : MonetaryAmount</text><text fill="#000000" font-family="sans-serif" font-size="11" lengthAdjust="spacingAndGlyphs" textLength="147" x="992.5" y="643.562">-categories : Set&lt;String&gt;</text><text fill="#000000" font-family="sans-serif" font-size="11" lengthAdjust="spacingAndGlyphs" textLength="86" x="992.5" y="656.3667">-metric : Metric</text><line style="stroke: #000000; stroke-width: 1.5;" x1="987.5" x2="1236.5" y1="662.9609" y2="662.9609"/><text fill="#000000" font-family="sans-serif" font-size="11" lengthAdjust="spacingAndGlyphs" textLength="197" x="992.5" y="677.1714">+Product(String, MonetaryAmount)</text><text fill="#000000" font-family="sans-serif" font-size="11" lengthAdjust="spacingAndGlyphs" textLength="239" x="992.5" y="689.9761">+Product(String, MonetaryAmount, Metric)</text><text fill="#000000" font-family="sans-serif" font-size="11" lengthAdjust="spacingAndGlyphs" textLength="150" x="992.5" y="702.7808">+getId() : ProductIdentifier</text><text fill="#000000" font-family="sans-serif" font-size="11" lengthAdjust="spacingAndGlyphs" textLength="227" x="992.5" y="715.5854">+getCategories() : Streamable&lt;String&gt;</text><text fill="#000000" font-family="sans-serif" font-size="11" lengthAdjust="spacingAndGlyphs" textLength="180" x="992.5" y="728.3901">+addCategory(String) : boolean</text><text fill="#000000" font-family="sans-serif" font-size="11" lengthAdjust="spacingAndGlyphs" textLength="202" x="992.5" y="741.1948">+removeCategory(String) : boolean</text><text fill="#000000" font-family="sans-serif" font-size="11" lengthAdjust="spacingAndGlyphs" textLength="172" x="992.5" y="753.9995">+supports(Quantity) : boolean</text><text fill="#000000" font-family="sans-serif" font-size="11" lengthAdjust="spacingAndGlyphs" textLength="130" x="992.5" y="766.8042">+verify(Quantity) : void</text><text fill="#000000" font-family="sans-serif" font-size="11" lengthAdjust="spacingAndGlyphs" textLength="197" x="992.5" y="779.6089">+createQuantity(double) : Quantity</text><text fill="#000000" font-family="sans-serif" font-size="11" lengthAdjust="spacingAndGlyphs" textLength="183" x="992.5" y="792.4136">+createQuantity(long) : Quantity</text><!--class BusinessTime--><rect fill="url(#g1m2didczg5y0y0)" filter="url(#f1m2didczg5y0y)" height="53.9375" id="BusinessTime" style="stroke: #000000; stroke-width: 1.5;" width="114" x="724" y="649"/><ellipse cx="739" cy="667.9688" fill="#B4A7E5" rx="11" ry="11" style="stroke: #000000; stroke-width: 1.0;"/><path d="M734.9219,663.7344 L734.9219,661.5781 L742.3125,661.5781 L742.3125,663.7344 L739.8438,663.7344 L739.8438,671.8125 L742.3125,671.8125 L742.3125,673.9688 L734.9219,673.9688 L734.9219,671.8125 L737.3906,671.8125 L737.3906,663.7344 L734.9219,663.7344 Z "/><text fill="#000000" font-family="sans-serif" font-size="12" font-style="italic" lengthAdjust="spacingAndGlyphs" textLength="59" x="764.5" y="665.1387">«Service»</text><text fill="#000000" font-family="sans-serif" font-size="12" font-style="italic" lengthAdjust="spacingAndGlyphs" textLength="82" x="753" y="679.1074">BusinessTime</text><line style="stroke: #000000; stroke-width: 1.5;" x1="725" x2="837" y1="686.9375" y2="686.9375"/><line style="stroke: #000000; stroke-width: 1.5;" x1="725" x2="837" y1="694.9375" y2="694.9375"/><!--class org.springframework.data.repository.CrudRepository--><rect fill="url(#g1m2didczg5y0y0)" filter="url(#f1m2didczg5y0y)" height="188.8516" id="org.springframework.data.repository.CrudRepository" style="stroke: #000000; stroke-width: 1.5;" width="309" x="1023.5" y="991.5"/><ellipse cx="1110.25" cy="1007.5" fill="#B4A7E5" rx="11" ry="11" style="stroke: #000000; stroke-width: 1.0;"/><path d="M1106.1719,1003.2656 L1106.1719,1001.1094 L1113.5625,1001.1094 L1113.5625,1003.2656 L1111.0938,1003.2656 L1111.0938,1011.3438 L1113.5625,1011.3438 L1113.5625,1013.5 L1106.1719,1013.5 L1106.1719,1011.3438 L1108.6406,1011.3438 L1108.6406,1003.2656 L1106.1719,1003.2656 Z "/><text fill="#000000" font-family="sans-serif" font-size="12" font-style="italic" lengthAdjust="spacingAndGlyphs" textLength="95" x="1130.75" y="1011.6543">CrudRepository</text><rect fill="#FFFFFF" height="15.9688" style="stroke: #000000; stroke-width: 1.0; stroke-dasharray: 2.0,2.0;" width="30" x="1305.5" y="988.5"/><text fill="#000000" font-family="sans-serif" font-size="12" font-style="italic" lengthAdjust="spacingAndGlyphs" textLength="28" x="1306.5" y="1000.6387">T, ID</text><line style="stroke: #000000; stroke-width: 1.5;" x1="1024.5" x2="1331.5" y1="1023.5" y2="1023.5"/><line style="stroke: #000000; stroke-width: 1.5;" x1="1024.5" x2="1331.5" y1="1031.5" y2="1031.5"/><text fill="#000000" font-family="sans-serif" font-size="11" lengthAdjust="spacingAndGlyphs" textLength="162" x="1029.5" y="1045.7104">&lt;S extends T&gt; +save(S) : S</text><text fill="#000000" font-family="sans-serif" font-size="11" lengthAdjust="spacingAndGlyphs" textLength="297" x="1029.5" y="1058.5151">&lt;S extends T&gt; +saveAll(Iterable&lt;S​&gt;) : Iterable&lt;S&gt;</text><text fill="#000000" font-family="sans-serif" font-size="11" lengthAdjust="spacingAndGlyphs" textLength="157" x="1029.5" y="1071.3198">+findById(ID) : Optional&lt;T&gt;</text><text fill="#000000" font-family="sans-serif" font-size="11" lengthAdjust="spacingAndGlyphs" textLength="143" x="1029.5" y="1084.1245">+existsById(ID) : boolean</text><text fill="#000000" font-family="sans-serif" font-size="11" lengthAdjust="spacingAndGlyphs" textLength="131" x="1029.5" y="1096.9292">+findAll() : Iterable&lt;T&gt;</text><text fill="#000000" font-family="sans-serif" font-size="11" lengthAdjust="spacingAndGlyphs" textLength="227" x="1029.5" y="1109.7339">+findAllById(Iterable&lt;ID&gt;) : Iterable&lt;T&gt;</text><text fill="#000000" font-family="sans-serif" font-size="11" lengthAdjust="spacingAndGlyphs" textLength="84" x="1029.5" y="1122.5386">+count() : long</text><text fill="#000000" font-family="sans-serif" font-size="11" lengthAdjust="spacingAndGlyphs" textLength="122" x="1029.5" y="1135.3433">+deleteById(ID) : void</text><text fill="#000000" font-family="sans-serif" font-size="11" lengthAdjust="spacingAndGlyphs" textLength="94" x="1029.5" y="1148.1479">+delete(T) : void</text><text fill="#000000" font-family="sans-serif" font-size="11" lengthAdjust="spacingAndGlyphs" textLength="227" x="1029.5" y="1160.9526">+deleteAll(Iterable&lt;? extends T&gt;) : void</text><text fill="#000000" font-family="sans-serif" font-size="11" lengthAdjust="spacingAndGlyphs" textLength="100" x="1029.5" y="1173.7573">+deleteAll() : void</text><!--class bioladen.product.ProductCatalog--><rect fill="url(#g1m2didczg5y0y0)" filter="url(#f1m2didczg5y0y)" height="53.9375" id="bioladen.product.ProductCatalog" style="stroke: #000000; stroke-width: 1.5;" width="128" x="269" y="1059"/><ellipse cx="284" cy="1077.9688" fill="#B4A7E5" rx="11" ry="11" style="stroke: #000000; stroke-width: 1.0;"/><path d="M279.9219,1073.7344 L279.9219,1071.5781 L287.3125,1071.5781 L287.3125,1073.7344 L284.8438,1073.7344 L284.8438,1081.8125 L287.3125,1081.8125 L287.3125,1083.9688 L279.9219,1083.9688 L279.9219,1081.8125 L282.3906,1081.8125 L282.3906,1073.7344 L279.9219,1073.7344 Z "/><text fill="#000000" font-family="sans-serif" font-size="12" font-style="italic" lengthAdjust="spacingAndGlyphs" textLength="80" x="306" y="1075.1387">«Repository»</text><text fill="#000000" font-family="sans-serif" font-size="12" font-style="italic" lengthAdjust="spacingAndGlyphs" textLength="96" x="298" y="1089.1074">ProductCatalog</text><line style="stroke: #000000; stroke-width: 1.5;" x1="270" x2="396" y1="1096.9375" y2="1096.9375"/><line style="stroke: #000000; stroke-width: 1.5;" x1="270" x2="396" y1="1104.9375" y2="1104.9375"/><!--class bioladen.product.DistributorProductCatalog--><rect fill="url(#g1m2didczg5y0y0)" filter="url(#f1m2didczg5y0y)" height="53.9375" id="bioladen.product.DistributorProductCatalog" style="stroke: #000000; stroke-width: 1.5;" width="193" x="461.5" y="1559"/><ellipse cx="476.5" cy="1577.9688" fill="#B4A7E5" rx="11" ry="11" style="stroke: #000000; stroke-width: 1.0;"/><path d="M472.4219,1573.7344 L472.4219,1571.5781 L479.8125,1571.5781 L479.8125,1573.7344 L477.3438,1573.7344 L477.3438,1581.8125 L479.8125,1581.8125 L479.8125,1583.9688 L472.4219,1583.9688 L472.4219,1581.8125 L474.8906,1581.8125 L474.8906,1573.7344 L472.4219,1573.7344 Z "/><text fill="#000000" font-family="sans-serif" font-size="12" font-style="italic" lengthAdjust="spacingAndGlyphs" textLength="80" x="531" y="1575.1387">«Repository»</text><text fill="#000000" font-family="sans-serif" font-size="12" font-style="italic" lengthAdjust="spacingAndGlyphs" textLength="161" x="490.5" y="1589.1074">DistributorProductCatalog</text><line style="stroke: #000000; stroke-width: 1.5;" x1="462.5" x2="653.5" y1="1596.9375" y2="1596.9375"/><line style="stroke: #000000; stroke-width: 1.5;" x1="462.5" x2="653.5" y1="1604.9375" y2="1604.9375"/><!--class bioladen.product.DistributorProduct--><rect fill="url(#g1m2didczg5y0y0)" filter="url(#f1m2didczg5y0y)" height="390.0547" id="bioladen.product.DistributorProduct" style="stroke: #000000; stroke-width: 1.5;" width="251" x="432.5" y="891"/><ellipse cx="496.25" cy="909.9688" fill="#ADD1B2" rx="11" ry="11" style="stroke: #000000; stroke-width: 1.0;"/><path d="M499.2188,915.6094 Q498.6406,915.9063 498,916.0469 Q497.3594,916.2031 496.6563,916.2031 Q494.1563,916.2031 492.8281,914.5625 Q491.5156,912.9063 491.5156,909.7813 Q491.5156,906.6563 492.8281,905 Q494.1563,903.3438 496.6563,903.3438 Q497.3594,903.3438 498,903.5 Q498.6563,903.6563 499.2188,903.9531 L499.2188,906.6719 Q498.5938,906.0938 498,905.8281 Q497.4063,905.5469 496.7813,905.5469 Q495.4375,905.5469 494.75,906.625 Q494.0625,907.6875 494.0625,909.7813 Q494.0625,911.875 494.75,912.9531 Q495.4375,914.0156 496.7813,914.0156 Q497.4063,914.0156 498,913.75 Q498.5938,913.4688 499.2188,912.8906 L499.2188,915.6094 Z "/><text fill="#000000" font-family="sans-serif" font-size="12" font-style="italic" lengthAdjust="spacingAndGlyphs" textLength="50" x="549.25" y="907.1387">«Entity»</text><text fill="#000000" font-family="sans-serif" font-size="12" lengthAdjust="spacingAndGlyphs" textLength="115" x="516.75" y="921.1074">DistributorProduct</text><line style="stroke: #000000; stroke-width: 1.5;" x1="433.5" x2="682.5" y1="928.9375" y2="928.9375"/><text fill="#000000" font-family="sans-serif" font-size="11" lengthAdjust="spacingAndGlyphs" textLength="119" x="438.5" y="943.1479">-id : ProductIdentifier</text><text fill="#000000" font-family="sans-serif" font-size="11" lengthAdjust="spacingAndGlyphs" textLength="82" x="438.5" y="955.9526">-name : String</text><text fill="#000000" font-family="sans-serif" font-size="11" lengthAdjust="spacingAndGlyphs" textLength="139" x="438.5" y="968.7573">-price : MonetaryAmount</text><text fill="#000000" font-family="sans-serif" font-size="11" lengthAdjust="spacingAndGlyphs" textLength="147" x="438.5" y="981.562">-categories : Set&lt;String&gt;</text><text fill="#000000" font-family="sans-serif" font-size="11" lengthAdjust="spacingAndGlyphs" textLength="86" x="438.5" y="994.3667">-metric : Metric</text><line style="stroke: #000000; stroke-width: 1.0; stroke-dasharray: 1.0,2.0;" x1="433.5" x2="682.5" y1="1000.9609" y2="1000.9609"/><text fill="#000000" font-family="sans-serif" font-size="11" lengthAdjust="spacingAndGlyphs" textLength="84" x="438.5" y="1015.1714">-unit : Quantity</text><text fill="#000000" font-family="sans-serif" font-size="11" lengthAdjust="spacingAndGlyphs" textLength="135" x="438.5" y="1027.9761">-distributor : Distributor</text><text fill="#000000" font-family="sans-serif" font-size="11" lengthAdjust="spacingAndGlyphs" textLength="169" x="438.5" y="1040.7808">-minimumOrderAmount : long</text><line style="stroke: #000000; stroke-width: 1.5;" x1="433.5" x2="682.5" y1="1047.375" y2="1047.375"/><text fill="#000000" font-family="sans-serif" font-size="11" lengthAdjust="spacingAndGlyphs" textLength="197" x="438.5" y="1061.5854">+Product(String, MonetaryAmount)</text><text fill="#000000" font-family="sans-serif" font-size="11" lengthAdjust="spacingAndGlyphs" textLength="239" x="438.5" y="1074.3901">+Product(String, MonetaryAmount, Metric)</text><text fill="#000000" font-family="sans-serif" font-size="11" lengthAdjust="spacingAndGlyphs" textLength="150" x="438.5" y="1087.1948">+getId() : ProductIdentifier</text><text fill="#000000" font-family="sans-serif" font-size="11" lengthAdjust="spacingAndGlyphs" textLength="227" x="438.5" y="1099.9995">+getCategories() : Streamable&lt;String&gt;</text><text fill="#000000" font-family="sans-serif" font-size="11" lengthAdjust="spacingAndGlyphs" textLength="180" x="438.5" y="1112.8042">+addCategory(String) : boolean</text><text fill="#000000" font-family="sans-serif" font-size="11" lengthAdjust="spacingAndGlyphs" textLength="202" x="438.5" y="1125.6089">+removeCategory(String) : boolean</text><text fill="#000000" font-family="sans-serif" font-size="11" lengthAdjust="spacingAndGlyphs" textLength="172" x="438.5" y="1138.4136">+supports(Quantity) : boolean</text><text fill="#000000" font-family="sans-serif" font-size="11" lengthAdjust="spacingAndGlyphs" textLength="130" x="438.5" y="1151.2183">+verify(Quantity) : void</text><text fill="#000000" font-family="sans-serif" font-size="11" lengthAdjust="spacingAndGlyphs" textLength="197" x="438.5" y="1164.0229">+createQuantity(double) : Quantity</text><text fill="#000000" font-family="sans-serif" font-size="11" lengthAdjust="spacingAndGlyphs" textLength="183" x="438.5" y="1176.8276">+createQuantity(long) : Quantity</text><line style="stroke: #000000; stroke-width: 1.0; stroke-dasharray: 1.0,2.0;" x1="433.5" x2="682.5" y1="1183.4219" y2="1183.4219"/><text fill="#000000" font-family="sans-serif" font-size="11" lengthAdjust="spacingAndGlyphs" textLength="91" x="438.5" y="1197.6323">+getUnit() : Unit</text><text fill="#000000" font-family="sans-serif" font-size="11" lengthAdjust="spacingAndGlyphs" textLength="166" x="438.5" y="1210.437">+getInventoryAmount() : long</text><text fill="#000000" font-family="sans-serif" font-size="11" lengthAdjust="spacingAndGlyphs" textLength="169" x="438.5" y="1223.2417">+getDisplayedAmount() : long</text><text fill="#000000" font-family="sans-serif" font-size="11" lengthAdjust="spacingAndGlyphs" textLength="139" x="438.5" y="1236.0464">+setUnit(Quantity) : void</text><text fill="#000000" font-family="sans-serif" font-size="11" lengthAdjust="spacingAndGlyphs" textLength="189" x="438.5" y="1248.8511">+setInventoryAmount(long) : void</text><text fill="#000000" font-family="sans-serif" font-size="11" lengthAdjust="spacingAndGlyphs" textLength="192" x="438.5" y="1261.6558">+setDisplayedAmount(long) : void</text><text fill="#000000" font-family="sans-serif" font-size="11" lengthAdjust="spacingAndGlyphs" textLength="193" x="438.5" y="1274.4604">+setPrice(MonetaryAmount) : void</text><!--class bioladen.product.Product--><rect fill="url(#g1m2didczg5y0y0)" filter="url(#f1m2didczg5y0y)" height="207.5938" id="bioladen.product.Product" style="stroke: #000000; stroke-width: 1.5;" width="285" x="227.5" y="70"/><ellipse cx="341.25" cy="88.9688" fill="#ADD1B2" rx="11" ry="11" style="stroke: #000000; stroke-width: 1.0;"/><path d="M344.2188,94.6094 Q343.6406,94.9063 343,95.0469 Q342.3594,95.2031 341.6563,95.2031 Q339.1563,95.2031 337.8281,93.5625 Q336.5156,91.9063 336.5156,88.7813 Q336.5156,85.6563 337.8281,84 Q339.1563,82.3438 341.6563,82.3438 Q342.3594,82.3438 343,82.5 Q343.6563,82.6563 344.2188,82.9531 L344.2188,85.6719 Q343.5938,85.0938 343,84.8281 Q342.4063,84.5469 341.7813,84.5469 Q340.4375,84.5469 339.75,85.625 Q339.0625,86.6875 339.0625,88.7813 Q339.0625,90.875 339.75,91.9531 Q340.4375,93.0156 341.7813,93.0156 Q342.4063,93.0156 343,92.75 Q343.5938,92.4688 344.2188,91.8906 L344.2188,94.6094 Z "/><text fill="#000000" font-family="sans-serif" font-size="12" font-style="italic" lengthAdjust="spacingAndGlyphs" textLength="50" x="361.25" y="86.1387">«Entity»</text><text fill="#000000" font-family="sans-serif" font-size="12" lengthAdjust="spacingAndGlyphs" textLength="49" x="361.75" y="100.1074">Product</text><line style="stroke: #000000; stroke-width: 1.5;" x1="228.5" x2="511.5" y1="107.9375" y2="107.9375"/><text fill="#000000" font-family="sans-serif" font-size="11" lengthAdjust="spacingAndGlyphs" textLength="84" x="233.5" y="122.1479">-unit : Quantity</text><text fill="#000000" font-family="sans-serif" font-size="11" lengthAdjust="spacingAndGlyphs" textLength="135" x="233.5" y="134.9526">-inventoryAmount : long</text><text fill="#000000" font-family="sans-serif" font-size="11" lengthAdjust="spacingAndGlyphs" textLength="137" x="233.5" y="147.7573">-displayedAmount : long</text><text fill="#000000" font-family="sans-serif" font-size="11" lengthAdjust="spacingAndGlyphs" textLength="273" x="233.5" y="160.562">-distributorProducts : List&lt;DistributorProducts&gt;</text><line style="stroke: #000000; stroke-width: 1.5;" x1="228.5" x2="511.5" y1="167.1563" y2="167.1563"/><text fill="#000000" font-family="sans-serif" font-size="11" lengthAdjust="spacingAndGlyphs" textLength="91" x="233.5" y="181.3667">+getUnit() : Unit</text><text fill="#000000" font-family="sans-serif" font-size="11" lengthAdjust="spacingAndGlyphs" textLength="166" x="233.5" y="194.1714">+getInventoryAmount() : long</text><text fill="#000000" font-family="sans-serif" font-size="11" lengthAdjust="spacingAndGlyphs" textLength="169" x="233.5" y="206.9761">+getDisplayedAmount() : long</text><text fill="#000000" font-family="sans-serif" font-size="11" lengthAdjust="spacingAndGlyphs" textLength="139" x="233.5" y="219.7808">+setUnit(Quantity) : void</text><text fill="#000000" font-family="sans-serif" font-size="11" lengthAdjust="spacingAndGlyphs" textLength="189" x="233.5" y="232.5854">+setInventoryAmount(long) : void</text><text fill="#000000" font-family="sans-serif" font-size="11" lengthAdjust="spacingAndGlyphs" textLength="192" x="233.5" y="245.3901">+setDisplayedAmount(long) : void</text><text fill="#000000" font-family="sans-serif" font-size="11" lengthAdjust="spacingAndGlyphs" textLength="193" x="233.5" y="258.1948">+setPrice(MonetaryAmount) : void</text><text fill="#000000" font-family="sans-serif" font-size="11" lengthAdjust="spacingAndGlyphs" textLength="105" x="233.5" y="270.9995">+verify() : boolean</text><!--class bioladen.product.Distributor--><rect fill="url(#g1m2didczg5y0y0)" filter="url(#f1m2didczg5y0y)" height="105.1563" id="bioladen.product.Distributor" style="stroke: #000000; stroke-width: 1.5;" width="136" x="548" y="121.5"/><ellipse cx="580.1" cy="140.4688" fill="#ADD1B2" rx="11" ry="11" style="stroke: #000000; stroke-width: 1.0;"/><path d="M583.0688,146.1094 Q582.4906,146.4063 581.85,146.5469 Q581.2094,146.7031 580.5063,146.7031 Q578.0063,146.7031 576.6781,145.0625 Q575.3656,143.4063 575.3656,140.2813 Q575.3656,137.1563 576.6781,135.5 Q578.0063,133.8438 580.5063,133.8438 Q581.2094,133.8438 581.85,134 Q582.5063,134.1563 583.0688,134.4531 L583.0688,137.1719 Q582.4438,136.5938 581.85,136.3281 Q581.2563,136.0469 580.6313,136.0469 Q579.2875,136.0469 578.6,137.125 Q577.9125,138.1875 577.9125,140.2813 Q577.9125,142.375 578.6,143.4531 Q579.2875,144.5156 580.6313,144.5156 Q581.2563,144.5156 581.85,144.25 Q582.4438,143.9688 583.0688,143.3906 L583.0688,146.1094 Z "/><text fill="#000000" font-family="sans-serif" font-size="12" font-style="italic" lengthAdjust="spacingAndGlyphs" textLength="50" x="605.9" y="137.6387">«Entity»</text><text fill="#000000" font-family="sans-serif" font-size="12" lengthAdjust="spacingAndGlyphs" textLength="66" x="597.9" y="151.6074">Distributor</text><line style="stroke: #000000; stroke-width: 1.5;" x1="549" x2="683" y1="159.4375" y2="159.4375"/><text fill="#000000" font-family="sans-serif" font-size="11" lengthAdjust="spacingAndGlyphs" textLength="82" x="554" y="173.6479">-name : String</text><text fill="#000000" font-family="sans-serif" font-size="11" lengthAdjust="spacingAndGlyphs" textLength="81" x="554" y="186.4526">-email : String</text><text fill="#000000" font-family="sans-serif" font-size="11" lengthAdjust="spacingAndGlyphs" textLength="124" x="554" y="199.2573">-contactName : String</text><text fill="#000000" font-family="sans-serif" font-size="11" lengthAdjust="spacingAndGlyphs" textLength="98" x="554" y="212.062">-phoneNr : String</text><line style="stroke: #000000; stroke-width: 1.5;" x1="549" x2="683" y1="218.6563" y2="218.6563"/><!--class CatalogController--><rect fill="url(#g1m2didczg5y0y0)" filter="url(#f1m2didczg5y0y)" height="53.9375" id="CatalogController" style="stroke: #000000; stroke-width: 1.5;" width="141" x="61.5" y="406"/><ellipse cx="76.5" cy="424.9688" fill="#ADD1B2" rx="11" ry="11" style="stroke: #000000; stroke-width: 1.0;"/><path d="M79.4688,430.6094 Q78.8906,430.9063 78.25,431.0469 Q77.6094,431.2031 76.9063,431.2031 Q74.4063,431.2031 73.0781,429.5625 Q71.7656,427.9063 71.7656,424.7813 Q71.7656,421.6563 73.0781,420 Q74.4063,418.3438 76.9063,418.3438 Q77.6094,418.3438 78.25,418.5 Q78.9063,418.6563 79.4688,418.9531 L79.4688,421.6719 Q78.8438,421.0938 78.25,420.8281 Q77.6563,420.5469 77.0313,420.5469 Q75.6875,420.5469 75,421.625 Q74.3125,422.6875 74.3125,424.7813 Q74.3125,426.875 75,427.9531 Q75.6875,429.0156 77.0313,429.0156 Q77.6563,429.0156 78.25,428.75 Q78.8438,428.4688 79.4688,427.8906 L79.4688,430.6094 Z "/><text fill="#000000" font-family="sans-serif" font-size="12" font-style="italic" lengthAdjust="spacingAndGlyphs" textLength="75" x="107.5" y="422.1387">«Controller»</text><text fill="#000000" font-family="sans-serif" font-size="12" lengthAdjust="spacingAndGlyphs" textLength="109" x="90.5" y="436.1074">CatalogController</text><line style="stroke: #000000; stroke-width: 1.5;" x1="62.5" x2="201.5" y1="443.9375" y2="443.9375"/><line style="stroke: #000000; stroke-width: 1.5;" x1="62.5" x2="201.5" y1="451.9375" y2="451.9375"/><!--link org.salespointframework.catalog.Product to bioladen.product.DistributorProduct--><path d="M1005,819.2665 C1005,819.2665 1005,942 1005,942 C1005,942 815.9154,942 683.704,942 " fill="none" id="org.salespointframework.catalog.Product-bioladen.product.DistributorProduct" style="stroke: #000000; stroke-width: 1.0;"/><polygon fill="none" points="998.0001,819.2666,1005,799.2665,1012.0001,819.2665,998.0001,819.2666" style="stroke: #000000; stroke-width: 1.0;"/><!--link bioladen.product.Product to bioladen.product.DistributorProduct--><path d="M472.5,291.1737 C472.5,291.1737 472.5,890.8499 472.5,890.8499 " fill="none" id="bioladen.product.Product-bioladen.product.DistributorProduct" style="stroke: #000000; stroke-width: 1.0;"/><polygon fill="#FFFFFF" points="472.5,278.1737,468.5,284.1737,472.5,290.1737,476.5,284.1737,472.5,278.1737" style="stroke: #000000; stroke-width: 1.0;"/><text fill="#000000" font-family="sans-serif" font-size="13" lengthAdjust="spacingAndGlyphs" textLength="23" x="455.6141" y="297.7618">0..*</text><text fill="#000000" font-family="sans-serif" font-size="13" lengthAdjust="spacingAndGlyphs" textLength="23" x="445.7109" y="880.0023">0..*</text><!--link bioladen.product.DistributorProduct to bioladen.product.DistributorProductCatalog--><path d="M558,1281.103 C558,1281.103 558,1545.9121 558,1545.9121 " fill="none" id="bioladen.product.DistributorProduct-bioladen.product.DistributorProductCatalog" style="stroke: #000000; stroke-width: 1.0;"/><polygon fill="#000000" points="558,1558.9121,562,1552.9121,558,1546.9121,554,1552.9121,558,1558.9121" style="stroke: #000000; stroke-width: 1.0;"/><text fill="#000000" font-family="sans-serif" font-size="13" lengthAdjust="spacingAndGlyphs" textLength="23" x="534.5508" y="1301.0856">0..*</text><text fill="#000000" font-family="sans-serif" font-size="13" lengthAdjust="spacingAndGlyphs" textLength="8" x="549.075" y="1548.0031">1</text><!--link bioladen.product.Product to bioladen.product.ProductCatalog--><path d="M333,278.1737 C333,278.1737 333,1045.8048 333,1045.8048 " fill="none" id="bioladen.product.Product-bioladen.product.ProductCatalog" style="stroke: #000000; stroke-width: 1.0;"/><polygon fill="#000000" points="333,1058.8048,337,1052.8048,333,1046.8048,329,1052.8048,333,1058.8048" style="stroke: #000000; stroke-width: 1.0;"/><text fill="#000000" font-family="sans-serif" font-size="13" lengthAdjust="spacingAndGlyphs" textLength="23" x="306.7414" y="297.7618">0..*</text><text fill="#000000" font-family="sans-serif" font-size="13" lengthAdjust="spacingAndGlyphs" textLength="8" x="324.075" y="1047.871">1</text><!--link CatalogController to bioladen.product.ProductCatalog--><path d="M215.692,442 C215.692,442 301,442 301,442 C301,442 301,936.1637 301,1058.7395 " fill="none" id="CatalogController-bioladen.product.ProductCatalog" style="stroke: #000000; stroke-width: 1.0;"/><polygon fill="#000000" points="202.692,442,208.692,446,214.692,442,208.692,438,202.692,442" style="stroke: #000000; stroke-width: 1.0;"/><text fill="#000000" font-family="sans-serif" font-size="13" lengthAdjust="spacingAndGlyphs" textLength="8" x="210.3946" y="439.2317">1</text><text fill="#000000" font-family="sans-serif" font-size="13" lengthAdjust="spacingAndGlyphs" textLength="8" x="284.675" y="1047.7906">1</text><!--link CatalogController to bioladen.product.DistributorProductCatalog--><path d="M132,473.0831 C132,473.0831 132,1586 132,1586 C132,1586 335.6461,1586 461.334,1586 " fill="none" id="CatalogController-bioladen.product.DistributorProductCatalog" style="stroke: #000000; stroke-width: 1.0;"/><polygon fill="#000000" points="132,460.0831,128,466.0831,132,472.0831,136,466.0831,132,460.0831" style="stroke: #000000; stroke-width: 1.0;"/><text fill="#000000" font-family="sans-serif" font-size="13" lengthAdjust="spacingAndGlyphs" textLength="8" x="123.075" y="480.1699">1</text><text fill="#000000" font-family="sans-serif" font-size="13" lengthAdjust="spacingAndGlyphs" textLength="8" x="445.6268" y="1582.5002">1</text><!--link CatalogController to BusinessTime--><path d="M202.6898,424 C370.8964,424 781,424 781,424 C781,424 781,643.5519 781,643.5519 " fill="none" id="CatalogController-BusinessTime" style="stroke: #000000; stroke-width: 1.0;"/><polygon fill="#000000" points="781,648.5519,785,639.5519,781,643.5519,777,639.5519,781,648.5519" style="stroke: #000000; stroke-width: 1.0;"/><!--link org.salespointframework.catalog.Catalog to org.springframework.data.repository.CrudRepository--><path d="M1312.5,703.2188 C1312.5,703.2188 1312.5,971.211 1312.5,971.211 " fill="none" id="org.salespointframework.catalog.Catalog-org.springframework.data.repository.CrudRepository" style="stroke: #000000; stroke-width: 1.0;"/><polygon fill="none" points="1319.5001,971.211,1312.5,991.211,1305.5001,971.211,1319.5001,971.211" style="stroke: #000000; stroke-width: 1.0;"/><text fill="#000000" font-family="sans-serif" font-size="13" lengthAdjust="spacingAndGlyphs" textLength="50" x="1244.5" y="842.0669">«binds»</text><text fill="#000000" font-family="sans-serif" font-size="13" lengthAdjust="spacingAndGlyphs" textLength="141" x="1199" y="857.1997">&lt;T, ProductIdentifier&gt;</text><!--link org.salespointframework.catalog.Catalog to bioladen.product.ProductCatalog--><path d="M1292.5,723.1528 C1292.5,723.1528 1292.5,845 1292.5,845 C1292.5,845 365,845 365,845 C365,845 365,995.7951 365,1058.8227 " fill="none" id="org.salespointframework.catalog.Catalog-bioladen.product.ProductCatalog" style="stroke: #000000; stroke-width: 1.0;"/><polygon fill="none" points="1285.5001,723.1528,1292.5,703.1528,1299.5001,723.1527,1285.5001,723.1528" style="stroke: #000000; stroke-width: 1.0;"/><text fill="#000000" font-family="sans-serif" font-size="13" lengthAdjust="spacingAndGlyphs" textLength="50" x="998.5" y="842.0669">«binds»</text><text fill="#000000" font-family="sans-serif" font-size="13" lengthAdjust="spacingAndGlyphs" textLength="71" x="988" y="857.1997">&lt;Product&gt;</text><!--link org.salespointframework.catalog.Catalog to bioladen.product.DistributorProductCatalog--><path d="M1415,723.2345 C1415,723.2345 1415,1586 1415,1586 C1415,1586 878.7702,1586 654.6429,1586 " fill="none" id="org.salespointframework.catalog.Catalog-bioladen.product.DistributorProductCatalog" style="stroke: #000000; stroke-width: 1.0;"/><polygon fill="none" points="1408.0001,723.2345,1415,703.2345,1422.0001,723.2345,1408.0001,723.2345" style="stroke: #000000; stroke-width: 1.0;"/><text fill="#000000" font-family="sans-serif" font-size="13" lengthAdjust="spacingAndGlyphs" textLength="50" x="1430" y="1386.0669">«binds»</text><text fill="#000000" font-family="sans-serif" font-size="13" lengthAdjust="spacingAndGlyphs" textLength="138" x="1386" y="1401.1997">&lt;DistributorProduct&gt;</text><!--link bioladen.product.Distributor to bioladen.product.DistributorProduct--><path d="M615.75,239.6414 C615.75,239.6414 615.75,890.6516 615.75,890.6516 " fill="none" id="bioladen.product.Distributor-bioladen.product.DistributorProduct" style="stroke: #000000; stroke-width: 1.0;"/><polygon fill="#000000" points="615.75,226.6414,611.75,232.6414,615.75,238.6414,619.75,232.6414,615.75,226.6414" style="stroke: #000000; stroke-width: 1.0;"/><text fill="#000000" font-family="sans-serif" font-size="13" lengthAdjust="spacingAndGlyphs" textLength="8" x="607.1789" y="246.7882">1</text><text fill="#000000" font-family="sans-serif" font-size="13" lengthAdjust="spacingAndGlyphs" textLength="23" x="594.5566" y="879.7963">0..*</text><!--
@startuml

skinparam class {
	BackgroundColor #LightCoral/LightPink
    BorderColor Black
    ArrowColor  Black
}

skinparam package {
    FontColor Grey
    BorderColor DarkMagenta
}

skinparam classAttributeIconSize 0
skinparam linetype ortho



rectangle salespoint-framework-7.0.0.RELEASE.jar {

    namespace org.salespointframework.catalog {
        interface Catalog <T extends Product> <<Repository>> {

        }

        class Product <<Entity>> {
            -productIdentifier : ProductIdentifier
            -name : String
            -price : MonetaryAmount
            -categories : Set<String>
            -metric : Metric

            +Product(String, MonetaryAmount)
            +Product(String, MonetaryAmount, Metric)
            +getId() : ProductIdentifier
            +getCategories() : Streamable<String>
            +addCategory(String) : boolean
            +removeCategory(String) : boolean
            +supports(Quantity) : boolean
            +verify(Quantity) : void
            +createQuantity(double) : Quantity
            +createQuantity(long) : Quantity
        }

    }

    package org.salespointframework.time {
        interface BusinessTime <<Service>> {

        }
    }


}


rectangle spring-data-comments-2.1.0.RELEASE.jar as spring {

    namespace org.springframework.data.repository {
        interface CrudRepository <T, ID>{
            <S extends T> +save(S) : S
            <S extends T> +saveAll(Iterable<S​>) : Iterable<S>
            +findById(ID) : Optional<T>
            +existsById(ID) : boolean
            +findAll() : Iterable<T>
            +findAllById(Iterable<ID>) : Iterable<T>
            +count() : long
            +deleteById(ID) : void
            +delete(T) : void
            +deleteAll(Iterable<? extends T>) : void
            +deleteAll() : void
        }
    }
}

rectangle Bioladen {

    namespace bioladen.product {

        interface ProductCatalog <<Repository>> {

        }

        interface DistributorProductCatalog <<Repository>> {

        }

        class DistributorProduct <<Entity>> extends org.salespointframework.catalog.Product {
            -id : ProductIdentifier
            -name : String
            -price : MonetaryAmount
            -categories : Set<String>
            -metric : Metric
            ..
            -unit : Quantity
            -distributor : Distributor
            -minimumOrderAmount : long
            __
            +Product(String, MonetaryAmount)
            +Product(String, MonetaryAmount, Metric)
            +getId() : ProductIdentifier
            +getCategories() : Streamable<String>
            +addCategory(String) : boolean
            +removeCategory(String) : boolean
            +supports(Quantity) : boolean
            +verify(Quantity) : void
            +createQuantity(double) : Quantity
            +createQuantity(long) : Quantity
            ..
            +getUnit() : Unit
            +getInventoryAmount() : long
            +getDisplayedAmount() : long
            +setUnit(Quantity) : void
            +setInventoryAmount(long) : void
            +setDisplayedAmount(long) : void
            +setPrice(MonetaryAmount) : void
        }

        class Product <<Entity>> {
            -unit : Quantity
            -inventoryAmount : long
            -displayedAmount : long
            -distributorProducts : List<DistributorProducts>

            +getUnit() : Unit
            +getInventoryAmount() : long
            +getDisplayedAmount() : long
            +setUnit(Quantity) : void
            +setInventoryAmount(long) : void
            +setDisplayedAmount(long) : void
            +setPrice(MonetaryAmount) : void
            +verify() : boolean
        }

        class Distributor <<Entity>> {
        -name : String
        -email : String
        -contactName : String
        -phoneNr : String
         }




        Product "0..*" o- - "0..*" DistributorProduct
        DistributorProduct "0..*" - -* "1" DistributorProductCatalog
        Product "0..*" - -* "1" ProductCatalog


    }

    package bioladen.product.web {
        class CatalogController <<Controller>> {

        }
    }





}

CatalogController "1" *- - "1" bioladen.product.ProductCatalog
CatalogController "1" *- - "1" bioladen.product.DistributorProductCatalog
CatalogController - -> BusinessTime
org.salespointframework.catalog.Catalog - -|> org.springframework.data.repository.CrudRepository: <<binds>>\n<T, ProductIdentifier>
org.salespointframework.catalog.Catalog <|- - bioladen.product.ProductCatalog: <<binds>>\n<Product>
org.salespointframework.catalog.Catalog <|- - bioladen.product.DistributorProductCatalog: <<binds>>\n<DistributorProduct>
bioladen.product.Distributor "1" *- - "0..*" bioladen.product.DistributorProduct

@enduml

PlantUML version 1.2018.12(Sun Oct 21 12:15:15 CEST 2018)
(GPL source distribution)
Java Runtime: OpenJDK Runtime Environment
JVM: OpenJDK 64-Bit Server VM
Java Version: 11.0.1+13-Debian-2
Operating System: Linux
OS Version: 4.18.0-parrot10-amd64
Default Encoding: UTF-8
Language: en
Country: US
--></g></svg>