<?xml version="1.0" encoding="UTF-8" standalone="no"?><svg xmlns="http://www.w3.org/2000/svg" xmlns:xlink="http://www.w3.org/1999/xlink" contentScriptType="application/ecmascript" contentStyleType="text/css" height="563px" preserveAspectRatio="none" style="width:976px;height:563px;" version="1.1" viewBox="0 0 976 563" width="976px" zoomAndPan="magnify"><defs><filter height="300%" id="flthelkgwpim9" width="300%" x="-1" y="-1"><feGaussianBlur result="blurOut" stdDeviation="2.0"/><feColorMatrix in="blurOut" result="blurOut2" type="matrix" values="0 0 0 0 0 0 0 0 0 0 0 0 0 0 0 0 0 0 .4 0"/><feOffset dx="4.0" dy="4.0" in="blurOut2" result="blurOut3"/><feBlend in="SourceGraphic" in2="blurOut3" mode="normal"/></filter><linearGradient id="glthelkgwpim90" x1="0%" x2="100%" y1="0%" y2="100%"><stop offset="0%" stop-color="#F08080"/><stop offset="100%" stop-color="#FFB6C1"/></linearGradient></defs><g><!--cluster Bioladen--><rect fill="#FFFFFF" filter="url(#flthelkgwpim9)" height="528" style="stroke: #8B008B; stroke-width: 1.5;" width="360" x="377" y="24"/><text fill="#808080" font-family="sans-serif" font-size="14" font-weight="bold" lengthAdjust="spacingAndGlyphs" textLength="62" x="526" y="40.5332">Bioladen</text><!--cluster bioladen.finances--><polygon fill="#FFFFFF" filter="url(#flthelkgwpim9)" points="401,68,532,68,539,91.6094,713,91.6094,713,528,401,528,401,68" style="stroke: #8B008B; stroke-width: 1.5;"/><line style="stroke: #8B008B; stroke-width: 1.5;" x1="401" x2="539" y1="91.6094" y2="91.6094"/><text fill="#808080" font-family="sans-serif" font-size="14" font-weight="bold" lengthAdjust="spacingAndGlyphs" textLength="125" x="405" y="84.5332">bioladen.finances</text><!--cluster money-api-1.0.3.jar--><rect fill="#FFFFFF" filter="url(#flthelkgwpim9)" height="168" style="stroke: #8B008B; stroke-width: 1.5;" width="204" x="761" y="310.5"/><text fill="#808080" font-family="sans-serif" font-size="14" font-weight="bold" lengthAdjust="spacingAndGlyphs" textLength="131" x="797.5" y="327.0332">money-api-1.0.3.jar</text><!--cluster javax.money--><polygon fill="#FFFFFF" filter="url(#flthelkgwpim9)" points="785,354.5,878,354.5,885,378.1094,941,378.1094,941,454.5,785,454.5,785,354.5" style="stroke: #8B008B; stroke-width: 1.5;"/><line style="stroke: #8B008B; stroke-width: 1.5;" x1="785" x2="885" y1="378.1094" y2="378.1094"/><text fill="#808080" font-family="sans-serif" font-size="14" font-weight="bold" lengthAdjust="spacingAndGlyphs" textLength="87" x="789" y="371.0332">javax.money</text><!--cluster salespoint-framework-7.0.0.RELEASE.jar--><rect fill="#FFFFFF" filter="url(#flthelkgwpim9)" height="176" style="stroke: #8B008B; stroke-width: 1.5;" width="331" x="22" y="72.5"/><text fill="#808080" font-family="sans-serif" font-size="14" font-weight="bold" lengthAdjust="spacingAndGlyphs" textLength="278" x="48.5" y="89.0332">salespoint-framework-7.0.0.RELEASE.jar</text><!--cluster org.salespointframework.useraccount--><polygon fill="#FFFFFF" filter="url(#flthelkgwpim9)" points="46,116.5,319,116.5,326,140.1094,329,140.1094,329,224.5,46,224.5,46,116.5" style="stroke: #8B008B; stroke-width: 1.5;"/><line style="stroke: #8B008B; stroke-width: 1.5;" x1="46" x2="326" y1="140.1094" y2="140.1094"/><text fill="#808080" font-family="sans-serif" font-size="14" font-weight="bold" lengthAdjust="spacingAndGlyphs" textLength="267" x="50" y="133.0332">org.salespointframework.useraccount</text><!--class bioladen.finances.CashierSystem--><rect fill="url(#glthelkgwpim90)" filter="url(#flthelkgwpim9)" height="194.5469" id="bioladen.finances.CashierSystem" style="stroke: #000000; stroke-width: 1.5;" width="279" x="417.5" y="317"/><ellipse cx="510.25" cy="337.0938" fill="#ADD1B2" rx="11" ry="11" style="stroke: #000000; stroke-width: 1.0;"/><path d="M513.0156,332.9688 Q513.1719,332.75 513.3594,332.6406 Q513.5469,332.5313 513.7656,332.5313 Q514.1406,332.5313 514.375,332.7891 Q514.6094,333.0469 514.6094,333.6563 L514.6094,335.1094 Q514.6094,335.7188 514.375,335.9844 Q514.1406,336.25 513.7656,336.25 Q513.4219,336.25 513.2188,336.0469 Q513.0156,335.8594 512.9063,335.3438 Q512.8594,334.9844 512.6719,334.7969 Q512.3438,334.4219 511.7344,334.2031 Q511.125,333.9844 510.5,333.9844 Q509.7344,333.9844 509.1016,334.3125 Q508.4688,334.6406 507.9766,335.3906 Q507.4844,336.1406 507.4844,337.1719 L507.4844,338.2656 Q507.4844,339.5 508.375,340.3203 Q509.2656,341.1406 510.8594,341.1406 Q511.7969,341.1406 512.4531,340.8906 Q512.8438,340.7344 513.2656,340.2969 Q513.5313,340.0313 513.6797,339.9531 Q513.8281,339.875 514.0313,339.875 Q514.3594,339.875 514.6172,340.1328 Q514.875,340.3906 514.875,340.7344 Q514.875,341.0781 514.5313,341.4844 Q514.0313,342.0625 513.2344,342.3906 Q512.1563,342.8438 510.8594,342.8438 Q509.3438,342.8438 508.1406,342.2188 Q507.1563,341.7188 506.4688,340.6484 Q505.7813,339.5781 505.7813,338.2969 L505.7813,337.1406 Q505.7813,335.8125 506.3984,334.6641 Q507.0156,333.5156 508.1094,332.8984 Q509.2031,332.2813 510.4375,332.2813 Q511.1719,332.2813 511.8203,332.4453 Q512.4688,332.6094 513.0156,332.9688 Z "/><text fill="#000000" font-family="sans-serif" font-size="12" font-style="italic" lengthAdjust="spacingAndGlyphs" textLength="44" x="551.25" y="334.457">«Entity»</text><text fill="#000000" font-family="sans-serif" font-size="12" lengthAdjust="spacingAndGlyphs" textLength="85" x="530.75" y="349.5508">CashierSystem</text><line style="stroke: #000000; stroke-width: 1.5;" x1="418.5" x2="695.5" y1="357.1875" y2="357.1875"/><text fill="#000000" font-family="sans-serif" font-size="11" lengthAdjust="spacingAndGlyphs" textLength="99" x="423.5" y="372.6064">-user : UserAccount</text><line style="stroke: #000000; stroke-width: 1.5;" x1="418.5" x2="695.5" y1="379.0234" y2="379.0234"/><text fill="#000000" font-family="sans-serif" font-size="11" lengthAdjust="spacingAndGlyphs" textLength="151" x="423.5" y="394.4424">+CashierSystem(UserAccount)</text><text fill="#000000" font-family="sans-serif" font-size="11" lengthAdjust="spacingAndGlyphs" textLength="116" x="423.5" y="408.2783">+add(Product) : boolean</text><text fill="#000000" font-family="sans-serif" font-size="11" lengthAdjust="spacingAndGlyphs" textLength="134" x="423.5" y="422.1143">+remove(Product) : boolean</text><text fill="#000000" font-family="sans-serif" font-size="11" lengthAdjust="spacingAndGlyphs" textLength="85" x="423.5" y="435.9502">+clear() : boolean</text><text fill="#000000" font-family="sans-serif" font-size="11" lengthAdjust="spacingAndGlyphs" textLength="153" x="423.5" y="449.7861">+getSums() : MonetaryAmount[]</text><text fill="#000000" font-family="sans-serif" font-size="11" lengthAdjust="spacingAndGlyphs" textLength="195" x="423.5" y="463.6221">+getDiscountSums() : MonetaryAmount[]</text><text fill="#000000" font-family="sans-serif" font-size="11" lengthAdjust="spacingAndGlyphs" textLength="181" x="423.5" y="477.458">+getMwStSums() : MonetaryAmount[]</text><text fill="#000000" font-family="sans-serif" font-size="11" lengthAdjust="spacingAndGlyphs" textLength="141" x="423.5" y="491.2939">+getSum() : MonetaryAmount</text><text fill="#000000" font-family="sans-serif" font-size="11" lengthAdjust="spacingAndGlyphs" textLength="267" x="423.5" y="505.1299">+calculateChange(MonetaryAmount) : MonetaryAmount</text><!--class bioladen.finances.WatchList--><rect fill="url(#glthelkgwpim90)" filter="url(#flthelkgwpim9)" height="153.0391" id="bioladen.finances.WatchList" style="stroke: #000000; stroke-width: 1.5;" width="191" x="461.5" y="104"/><ellipse cx="525.75" cy="124.0938" fill="#ADD1B2" rx="11" ry="11" style="stroke: #000000; stroke-width: 1.0;"/><path d="M528.5156,119.9688 Q528.6719,119.75 528.8594,119.6406 Q529.0469,119.5313 529.2656,119.5313 Q529.6406,119.5313 529.875,119.7891 Q530.1094,120.0469 530.1094,120.6563 L530.1094,122.1094 Q530.1094,122.7188 529.875,122.9844 Q529.6406,123.25 529.2656,123.25 Q528.9219,123.25 528.7188,123.0469 Q528.5156,122.8594 528.4063,122.3438 Q528.3594,121.9844 528.1719,121.7969 Q527.8438,121.4219 527.2344,121.2031 Q526.625,120.9844 526,120.9844 Q525.2344,120.9844 524.6016,121.3125 Q523.9688,121.6406 523.4766,122.3906 Q522.9844,123.1406 522.9844,124.1719 L522.9844,125.2656 Q522.9844,126.5 523.875,127.3203 Q524.7656,128.1406 526.3594,128.1406 Q527.2969,128.1406 527.9531,127.8906 Q528.3438,127.7344 528.7656,127.2969 Q529.0313,127.0313 529.1797,126.9531 Q529.3281,126.875 529.5313,126.875 Q529.8594,126.875 530.1172,127.1328 Q530.375,127.3906 530.375,127.7344 Q530.375,128.0781 530.0313,128.4844 Q529.5313,129.0625 528.7344,129.3906 Q527.6563,129.8438 526.3594,129.8438 Q524.8438,129.8438 523.6406,129.2188 Q522.6563,128.7188 521.9688,127.6484 Q521.2813,126.5781 521.2813,125.2969 L521.2813,124.1406 Q521.2813,122.8125 521.8984,121.6641 Q522.5156,120.5156 523.6094,119.8984 Q524.7031,119.2813 525.9375,119.2813 Q526.6719,119.2813 527.3203,119.4453 Q527.9688,119.6094 528.5156,119.9688 Z "/><text fill="#000000" font-family="sans-serif" font-size="12" font-style="italic" lengthAdjust="spacingAndGlyphs" textLength="44" x="551.25" y="121.457">«Entity»</text><text fill="#000000" font-family="sans-serif" font-size="12" lengthAdjust="spacingAndGlyphs" textLength="54" x="546.25" y="136.5508">WatchList</text><line style="stroke: #000000; stroke-width: 1.5;" x1="462.5" x2="651.5" y1="144.1875" y2="144.1875"/><text fill="#000000" font-family="sans-serif" font-size="11" lengthAdjust="spacingAndGlyphs" textLength="99" x="467.5" y="159.6064">-user : UserAccount</text><text fill="#000000" font-family="sans-serif" font-size="11" lengthAdjust="spacingAndGlyphs" textLength="179" x="467.5" y="173.4424">-productList : Map&lt;Product, Amount&gt;</text><line style="stroke: #000000; stroke-width: 1.5;" x1="462.5" x2="651.5" y1="179.8594" y2="179.8594"/><text fill="#000000" font-family="sans-serif" font-size="11" lengthAdjust="spacingAndGlyphs" textLength="143" x="467.5" y="195.2783">+ShoppingCart(UserAccount)</text><text fill="#000000" font-family="sans-serif" font-size="11" lengthAdjust="spacingAndGlyphs" textLength="116" x="467.5" y="209.1143">+add(Product) : boolean</text><text fill="#000000" font-family="sans-serif" font-size="11" lengthAdjust="spacingAndGlyphs" textLength="134" x="467.5" y="222.9502">+remove(Product) : boolean</text><text fill="#000000" font-family="sans-serif" font-size="11" lengthAdjust="spacingAndGlyphs" textLength="85" x="467.5" y="236.7861">+clear() : boolean</text><text fill="#000000" font-family="sans-serif" font-size="11" lengthAdjust="spacingAndGlyphs" textLength="141" x="467.5" y="250.6221">+getSum() : MonetaryAmount</text><!--class javax.money.MonetaryAmount--><rect fill="url(#glthelkgwpim90)" filter="url(#flthelkgwpim9)" height="48" id="javax.money.MonetaryAmount" style="stroke: #000000; stroke-width: 1.5;" width="123" x="801.5" y="390.5"/><ellipse cx="816.5" cy="406.5" fill="#ADD1B2" rx="11" ry="11" style="stroke: #000000; stroke-width: 1.0;"/><path d="M819.2656,402.375 Q819.4219,402.1563 819.6094,402.0469 Q819.7969,401.9375 820.0156,401.9375 Q820.3906,401.9375 820.625,402.1953 Q820.8594,402.4531 820.8594,403.0625 L820.8594,404.5156 Q820.8594,405.125 820.625,405.3906 Q820.3906,405.6563 820.0156,405.6563 Q819.6719,405.6563 819.4688,405.4531 Q819.2656,405.2656 819.1563,404.75 Q819.1094,404.3906 818.9219,404.2031 Q818.5938,403.8281 817.9844,403.6094 Q817.375,403.3906 816.75,403.3906 Q815.9844,403.3906 815.3516,403.7188 Q814.7188,404.0469 814.2266,404.7969 Q813.7344,405.5469 813.7344,406.5781 L813.7344,407.6719 Q813.7344,408.9063 814.625,409.7266 Q815.5156,410.5469 817.1094,410.5469 Q818.0469,410.5469 818.7031,410.2969 Q819.0938,410.1406 819.5156,409.7031 Q819.7813,409.4375 819.9297,409.3594 Q820.0781,409.2813 820.2813,409.2813 Q820.6094,409.2813 820.8672,409.5391 Q821.125,409.7969 821.125,410.1406 Q821.125,410.4844 820.7813,410.8906 Q820.2813,411.4688 819.4844,411.7969 Q818.4063,412.25 817.1094,412.25 Q815.5938,412.25 814.3906,411.625 Q813.4063,411.125 812.7188,410.0547 Q812.0313,408.9844 812.0313,407.7031 L812.0313,406.5469 Q812.0313,405.2188 812.6484,404.0703 Q813.2656,402.9219 814.3594,402.3047 Q815.4531,401.6875 816.6875,401.6875 Q817.4219,401.6875 818.0703,401.8516 Q818.7188,402.0156 819.2656,402.375 Z "/><text fill="#000000" font-family="sans-serif" font-size="12" lengthAdjust="spacingAndGlyphs" textLength="91" x="830.5" y="411.4102">MonetaryAmount</text><line style="stroke: #000000; stroke-width: 1.5;" x1="802.5" x2="923.5" y1="422.5" y2="422.5"/><line style="stroke: #000000; stroke-width: 1.5;" x1="802.5" x2="923.5" y1="430.5" y2="430.5"/><!--class org.salespointframework.useraccount.UserAccount--><rect fill="url(#glthelkgwpim90)" filter="url(#flthelkgwpim9)" height="56.1875" id="org.salespointframework.useraccount.UserAccount" style="stroke: #000000; stroke-width: 1.5;" width="102" x="211" y="152.5"/><ellipse cx="226" cy="172.5938" fill="#ADD1B2" rx="11" ry="11" style="stroke: #000000; stroke-width: 1.0;"/><path d="M228.7656,168.4688 Q228.9219,168.25 229.1094,168.1406 Q229.2969,168.0313 229.5156,168.0313 Q229.8906,168.0313 230.125,168.2891 Q230.3594,168.5469 230.3594,169.1563 L230.3594,170.6094 Q230.3594,171.2188 230.125,171.4844 Q229.8906,171.75 229.5156,171.75 Q229.1719,171.75 228.9688,171.5469 Q228.7656,171.3594 228.6563,170.8438 Q228.6094,170.4844 228.4219,170.2969 Q228.0938,169.9219 227.4844,169.7031 Q226.875,169.4844 226.25,169.4844 Q225.4844,169.4844 224.8516,169.8125 Q224.2188,170.1406 223.7266,170.8906 Q223.2344,171.6406 223.2344,172.6719 L223.2344,173.7656 Q223.2344,175 224.125,175.8203 Q225.0156,176.6406 226.6094,176.6406 Q227.5469,176.6406 228.2031,176.3906 Q228.5938,176.2344 229.0156,175.7969 Q229.2813,175.5313 229.4297,175.4531 Q229.5781,175.375 229.7813,175.375 Q230.1094,175.375 230.3672,175.6328 Q230.625,175.8906 230.625,176.2344 Q230.625,176.5781 230.2813,176.9844 Q229.7813,177.5625 228.9844,177.8906 Q227.9063,178.3438 226.6094,178.3438 Q225.0938,178.3438 223.8906,177.7188 Q222.9063,177.2188 222.2188,176.1484 Q221.5313,175.0781 221.5313,173.7969 L221.5313,172.6406 Q221.5313,171.3125 222.1484,170.1641 Q222.7656,169.0156 223.8594,168.3984 Q224.9531,167.7813 226.1875,167.7813 Q226.9219,167.7813 227.5703,167.9453 Q228.2188,168.1094 228.7656,168.4688 Z "/><text fill="#000000" font-family="sans-serif" font-size="12" font-style="italic" lengthAdjust="spacingAndGlyphs" textLength="44" x="253" y="169.957">«Entity»</text><text fill="#000000" font-family="sans-serif" font-size="12" lengthAdjust="spacingAndGlyphs" textLength="70" x="240" y="185.0508">UserAccount</text><line style="stroke: #000000; stroke-width: 1.5;" x1="212" x2="312" y1="192.6875" y2="192.6875"/><line style="stroke: #000000; stroke-width: 1.5;" x1="212" x2="312" y1="200.6875" y2="200.6875"/><!--link bioladen.finances.WatchList to bioladen.finances.CashierSystem--><path d="M557,277.12 C557,277.12 557,316.793 557,316.793 " fill="none" id="bioladen.finances.WatchList-bioladen.finances.CashierSystem" style="stroke: #000000; stroke-width: 1.0;"/><polygon fill="none" points="550,277.12,557,257.12,564,277.12,550,277.12" style="stroke: #000000; stroke-width: 1.0;"/><!--link bioladen.finances.CashierSystem to javax.money.MonetaryAmount--><path d="M696.568,415 C696.568,415 796.317,415 796.317,415 " fill="none" id="bioladen.finances.CashierSystem-javax.money.MonetaryAmount" style="stroke: #000000; stroke-width: 1.0;"/><polygon fill="#000000" points="801.317,415,792.317,411,796.317,415,792.317,419,801.317,415" style="stroke: #000000; stroke-width: 1.0;"/><!--link bioladen.finances.WatchList to javax.money.MonetaryAmount--><path d="M652.562,181 C742.346,181 863,181 863,181 C863,181 863,385.391 863,385.391 " fill="none" id="bioladen.finances.WatchList-javax.money.MonetaryAmount" style="stroke: #000000; stroke-width: 1.0;"/><polygon fill="#000000" points="863,390.391,867,381.391,863,385.391,859,381.391,863,390.391" style="stroke: #000000; stroke-width: 1.0;"/><!--link org.salespointframework.useraccount.UserAccount to bioladen.finances.WatchList--><path d="M318.048,172 C318.048,172 461.329,172 461.329,172 " fill="none" id="org.salespointframework.useraccount.UserAccount-bioladen.finances.WatchList" style="stroke: #000000; stroke-width: 1.0;"/><polygon fill="#000000" points="313.048,172,322.048,176,318.048,172,322.048,168,313.048,172" style="stroke: #000000; stroke-width: 1.0;"/><text fill="#000000" font-family="sans-serif" font-size="13" lengthAdjust="spacingAndGlyphs" textLength="7" x="321.0597" y="167.0837">1</text><text fill="#000000" font-family="sans-serif" font-size="13" lengthAdjust="spacingAndGlyphs" textLength="7" x="446.4263" y="168.1927">1</text><!--link org.salespointframework.useraccount.UserAccount to bioladen.finances.CashierSystem--><path d="M318.34,190 C318.34,190 439.5,190 439.5,190 C439.5,190 439.5,256.186 439.5,316.684 " fill="none" id="org.salespointframework.useraccount.UserAccount-bioladen.finances.CashierSystem" style="stroke: #000000; stroke-width: 1.0;"/><polygon fill="#000000" points="313.34,190,322.34,194,318.34,190,322.34,186,313.34,190" style="stroke: #000000; stroke-width: 1.0;"/><text fill="#000000" font-family="sans-serif" font-size="13" lengthAdjust="spacingAndGlyphs" textLength="7" x="321.0519" y="187.7176">1</text><text fill="#000000" font-family="sans-serif" font-size="13" lengthAdjust="spacingAndGlyphs" textLength="7" x="423.2359" y="306.1084">1</text><!--
@startuml

skinparam class {
	BackgroundColor #LightCoral/LightPink
    BorderColor Black
    ArrowColor  Black
}

skinparam package {
    FontColor Grey
    BorderColor DarkMagenta
}

skinparam classAttributeIconSize 0
skinparam linetype ortho


rectangle Bioladen {
    namespace bioladen.finances {

        class CashierSystem <<Entity>> extends WatchList {
            -user : UserAccount
            +CashierSystem(UserAccount)
            +add(Product) : boolean
            +remove(Product) : boolean
            +clear() : boolean
            +getSums() : MonetaryAmount[]
            +getDiscountSums() : MonetaryAmount[]
            +getMwStSums() : MonetaryAmount[]
            +getSum() : MonetaryAmount
            +calculateChange(MonetaryAmount) : MonetaryAmount


        }
        class WatchList <<Entity>> {
            -user : UserAccount
            -productList : Map<Product, Amount>
            +ShoppingCart(UserAccount)
            +add(Product) : boolean
            +remove(Product) : boolean
            +clear() : boolean
            +getSum() : MonetaryAmount


        }


    }

}

rectangle money-api-1.0.3.jar {
    namespace javax.money {
        class MonetaryAmount{

        }
        bioladen.finances.CashierSystem -right-> MonetaryAmount
        bioladen.finances.WatchList -right-> MonetaryAmount
    }

}

rectangle salespoint-framework-7.0.0.RELEASE.jar {

    namespace org.salespointframework.useraccount {

        class UserAccount <<Entity>>{

        }

        bioladen.finances.WatchList "1" -left-> "1" UserAccount
        bioladen.finances.CashierSystem "1" -left-> "1" UserAccount
    }

}


@enduml

PlantUML version 1.2018.12(Sun Oct 21 12:15:15 CEST 2018)
(GPL source distribution)
Java Runtime: Java(TM) SE Runtime Environment
JVM: Java HotSpot(TM) Client VM
Java Version: 1.8.0_181-b13
Operating System: Windows 10
OS Version: 10.0
Default Encoding: Cp1252
Language: de
Country: DE
--></g></svg>