<?xml version="1.0" encoding="UTF-8" standalone="no"?><svg xmlns="http://www.w3.org/2000/svg" xmlns:xlink="http://www.w3.org/1999/xlink" contentScriptType="application/ecmascript" contentStyleType="text/css" height="1280px" preserveAspectRatio="none" style="width:1430px;height:1280px;" version="1.1" viewBox="0 0 1430 1280" width="1430px" zoomAndPan="magnify"><defs><filter height="300%" id="f1iggc6rsyti91" width="300%" x="-1" y="-1"><feGaussianBlur result="blurOut" stdDeviation="2.0"/><feColorMatrix in="blurOut" result="blurOut2" type="matrix" values="0 0 0 0 0 0 0 0 0 0 0 0 0 0 0 0 0 0 .4 0"/><feOffset dx="4.0" dy="4.0" in="blurOut2" result="blurOut3"/><feBlend in="SourceGraphic" in2="blurOut3" mode="normal"/></filter><linearGradient id="g1iggc6rsyti910" x1="0%" x2="100%" y1="0%" y2="100%"><stop offset="0%" stop-color="#F08080"/><stop offset="100%" stop-color="#FFB6C1"/></linearGradient></defs><g><!--cluster salespoint-framework-7.0.0.RELEASE.jar--><rect fill="#FFFFFF" filter="url(#f1iggc6rsyti91)" height="1047" style="stroke: #8B008B; stroke-width: 1.5;" width="1054" x="14" y="222"/><text fill="#808080" font-family="sans-serif" font-size="14" font-weight="bold" lengthAdjust="spacingAndGlyphs" textLength="316" x="383" y="236.9951">salespoint-framework-7.0.0.RELEASE.jar</text><!--cluster org.salespointframework.useraccount--><polygon fill="#FFFFFF" filter="url(#f1iggc6rsyti91)" points="22,249,331,249,338,271.2969,798,271.2969,798,1261,22,1261,22,249" style="stroke: #8B008B; stroke-width: 1.5;"/><line style="stroke: #8B008B; stroke-width: 1.5;" x1="22" x2="338" y1="271.2969" y2="271.2969"/><text fill="#808080" font-family="sans-serif" font-size="14" font-weight="bold" lengthAdjust="spacingAndGlyphs" textLength="303" x="26" y="263.9951">org.salespointframework.useraccount</text><!--cluster org.salespointframework.time--><polygon fill="#FFFFFF" filter="url(#f1iggc6rsyti91)" points="806,332,1050,332,1057,354.2969,1060,354.2969,1060,421,806,421,806,332" style="stroke: #8B008B; stroke-width: 1.5;"/><line style="stroke: #8B008B; stroke-width: 1.5;" x1="806" x2="1057" y1="354.2969" y2="354.2969"/><text fill="#808080" font-family="sans-serif" font-size="14" font-weight="bold" lengthAdjust="spacingAndGlyphs" textLength="238" x="810" y="346.9951">org.salespointframework.time</text><!--cluster Bioladen--><rect fill="#FFFFFF" filter="url(#f1iggc6rsyti91)" height="137" style="stroke: #8B008B; stroke-width: 1.5;" width="186" x="469" y="16"/><text fill="#808080" font-family="sans-serif" font-size="14" font-weight="bold" lengthAdjust="spacingAndGlyphs" textLength="67" x="528.5" y="30.9951">Bioladen</text><!--cluster bioladen.user--><polygon fill="#FFFFFF" filter="url(#f1iggc6rsyti91)" points="477,43,591,43,598,65.2969,647,65.2969,647,145,477,145,477,43" style="stroke: #8B008B; stroke-width: 1.5;"/><line style="stroke: #8B008B; stroke-width: 1.5;" x1="477" x2="598" y1="65.2969" y2="65.2969"/><text fill="#808080" font-family="sans-serif" font-size="14" font-weight="bold" lengthAdjust="spacingAndGlyphs" textLength="108" x="481" y="57.9951">bioladen.user</text><!--cluster spring--><rect fill="#FFFFFF" filter="url(#f1iggc6rsyti91)" height="259" style="stroke: #8B008B; stroke-width: 1.5;" width="340" x="1076" y="566"/><text fill="#808080" font-family="sans-serif" font-size="14" font-weight="bold" lengthAdjust="spacingAndGlyphs" textLength="321" x="1085.5" y="580.9951">spring-data-comments-2.1.0.RELEASE.jar</text><!--cluster org.springframework.data.repository--><polygon fill="#FFFFFF" filter="url(#f1iggc6rsyti91)" points="1084,593,1384,593,1391,615.2969,1408,615.2969,1408,817,1084,817,1084,593" style="stroke: #8B008B; stroke-width: 1.5;"/><line style="stroke: #8B008B; stroke-width: 1.5;" x1="1084" x2="1391" y1="615.2969" y2="615.2969"/><text fill="#808080" font-family="sans-serif" font-size="14" font-weight="bold" lengthAdjust="spacingAndGlyphs" textLength="294" x="1088" y="607.9951">org.springframework.data.repository</text><!--class UserAccount--><rect fill="url(#g1iggc6rsyti910)" filter="url(#f1iggc6rsyti91)" height="258.8125" id="UserAccount" style="stroke: #000000; stroke-width: 1.5;" width="494" x="30" y="994"/><ellipse cx="232.75" cy="1012.9688" fill="#ADD1B2" rx="11" ry="11" style="stroke: #000000; stroke-width: 1.0;"/><path d="M235.7188,1018.6094 Q235.1406,1018.9063 234.5,1019.0469 Q233.8594,1019.2031 233.1563,1019.2031 Q230.6563,1019.2031 229.3281,1017.5625 Q228.0156,1015.9063 228.0156,1012.7813 Q228.0156,1009.6563 229.3281,1008 Q230.6563,1006.3438 233.1563,1006.3438 Q233.8594,1006.3438 234.5,1006.5 Q235.1563,1006.6563 235.7188,1006.9531 L235.7188,1009.6719 Q235.0938,1009.0938 234.5,1008.8281 Q233.9063,1008.5469 233.2813,1008.5469 Q231.9375,1008.5469 231.25,1009.625 Q230.5625,1010.6875 230.5625,1012.7813 Q230.5625,1014.875 231.25,1015.9531 Q231.9375,1017.0156 233.2813,1017.0156 Q233.9063,1017.0156 234.5,1016.75 Q235.0938,1016.4688 235.7188,1015.8906 L235.7188,1018.6094 Z "/><text fill="#000000" font-family="sans-serif" font-size="12" font-style="italic" lengthAdjust="spacingAndGlyphs" textLength="50" x="268.25" y="1010.1387">«Entity»</text><text fill="#000000" font-family="sans-serif" font-size="12" lengthAdjust="spacingAndGlyphs" textLength="80" x="253.25" y="1024.1074">UserAccount</text><line style="stroke: #000000; stroke-width: 1.5;" x1="31" x2="523" y1="1031.9375" y2="1031.9375"/><text fill="#000000" font-family="sans-serif" font-size="11" lengthAdjust="spacingAndGlyphs" textLength="257" x="36" y="1046.1479">-userAccountIdentifier : UserAccountIdentifier</text><text fill="#000000" font-family="sans-serif" font-size="11" lengthAdjust="spacingAndGlyphs" textLength="128" x="36" y="1058.9526">-password : Password</text><text fill="#000000" font-family="sans-serif" font-size="11" lengthAdjust="spacingAndGlyphs" textLength="105" x="36" y="1071.7573">-firstname : String</text><text fill="#000000" font-family="sans-serif" font-size="11" lengthAdjust="spacingAndGlyphs" textLength="103" x="36" y="1084.562">-lastname : String</text><text fill="#000000" font-family="sans-serif" font-size="11" lengthAdjust="spacingAndGlyphs" textLength="81" x="36" y="1097.3667">-email : String</text><text fill="#000000" font-family="sans-serif" font-size="11" lengthAdjust="spacingAndGlyphs" textLength="106" x="36" y="1110.1714">-roles : Set&lt;Role&gt;</text><text fill="#000000" font-family="sans-serif" font-size="11" lengthAdjust="spacingAndGlyphs" textLength="99" x="36" y="1122.9761">-enable : boolean</text><line style="stroke: #000000; stroke-width: 1.5;" x1="31" x2="523" y1="1129.5703" y2="1129.5703"/><text fill="#000000" font-family="sans-serif" font-size="11" lengthAdjust="spacingAndGlyphs" textLength="88" x="36" y="1143.7808">+UserAccount()</text><text fill="#000000" font-family="sans-serif" font-size="11" lengthAdjust="spacingAndGlyphs" textLength="295" x="36" y="1156.5854">+UserAccount(UserAccountIdentifier, String, Role...)</text><text fill="#000000" font-family="sans-serif" font-size="11" lengthAdjust="spacingAndGlyphs" textLength="482" x="36" y="1169.3901">+UserAccount(UserAccountIdentifier, String, String, String, String, Collection&lt;Role&gt;)</text><text fill="#000000" font-family="sans-serif" font-size="11" lengthAdjust="spacingAndGlyphs" textLength="179" x="36" y="1182.1948">+getID() : UserAccountIdentifier</text><text fill="#000000" font-family="sans-serif" font-size="11" lengthAdjust="spacingAndGlyphs" textLength="141" x="36" y="1194.9995">+getUserName() : String</text><text fill="#000000" font-family="sans-serif" font-size="11" lengthAdjust="spacingAndGlyphs" textLength="119" x="36" y="1207.8042">+add(Role) : boolean</text><text fill="#000000" font-family="sans-serif" font-size="11" lengthAdjust="spacingAndGlyphs" textLength="141" x="36" y="1220.6089">+remove(Role) : boolean</text><text fill="#000000" font-family="sans-serif" font-size="11" lengthAdjust="spacingAndGlyphs" textLength="119" x="36" y="1233.4136">+hasRole() : boolean</text><text fill="#000000" font-family="sans-serif" font-size="11" lengthAdjust="spacingAndGlyphs" textLength="186" x="36" y="1246.2183">+getRoles() : Streamable&lt;Role&gt;</text><!--class Role--><rect fill="url(#g1iggc6rsyti910)" filter="url(#f1iggc6rsyti91)" height="79.5469" id="Role" style="stroke: #000000; stroke-width: 1.5;" width="110" x="680" y="346"/><ellipse cx="708.05" cy="364.9688" fill="#ADD1B2" rx="11" ry="11" style="stroke: #000000; stroke-width: 1.0;"/><path d="M711.0188,370.6094 Q710.4406,370.9063 709.8,371.0469 Q709.1594,371.2031 708.4563,371.2031 Q705.9563,371.2031 704.6281,369.5625 Q703.3156,367.9063 703.3156,364.7813 Q703.3156,361.6563 704.6281,360 Q705.9563,358.3438 708.4563,358.3438 Q709.1594,358.3438 709.8,358.5 Q710.4563,358.6563 711.0188,358.9531 L711.0188,361.6719 Q710.3938,361.0938 709.8,360.8281 Q709.2063,360.5469 708.5813,360.5469 Q707.2375,360.5469 706.55,361.625 Q705.8625,362.6875 705.8625,364.7813 Q705.8625,366.875 706.55,367.9531 Q707.2375,369.0156 708.5813,369.0156 Q709.2063,369.0156 709.8,368.75 Q710.3938,368.4688 711.0188,367.8906 L711.0188,370.6094 Z "/><text fill="#000000" font-family="sans-serif" font-size="12" font-style="italic" lengthAdjust="spacingAndGlyphs" textLength="53" x="722.95" y="362.1387">«Object»</text><text fill="#000000" font-family="sans-serif" font-size="12" lengthAdjust="spacingAndGlyphs" textLength="27" x="735.95" y="376.1074">Role</text><line style="stroke: #000000; stroke-width: 1.5;" x1="681" x2="789" y1="383.9375" y2="383.9375"/><text fill="#000000" font-family="sans-serif" font-size="11" lengthAdjust="spacingAndGlyphs" textLength="82" x="686" y="398.1479">-name : String</text><line style="stroke: #000000; stroke-width: 1.5;" x1="681" x2="789" y1="404.7422" y2="404.7422"/><text fill="#000000" font-family="sans-serif" font-size="11" lengthAdjust="spacingAndGlyphs" text-decoration="underline" textLength="98" x="686" y="418.9526">+of(String) : Role</text><line style="stroke: #000000; stroke-width: 1.0;" x1="686" x2="784" y1="420.9526" y2="420.9526"/><!--class UserRepository--><rect fill="url(#g1iggc6rsyti910)" filter="url(#f1iggc6rsyti91)" height="220.3984" id="UserRepository" style="stroke: #000000; stroke-width: 1.5;" width="413" x="30.5" y="276"/><ellipse cx="185.75" cy="294.9688" fill="#B4A7E5" rx="11" ry="11" style="stroke: #000000; stroke-width: 1.0;"/><path d="M181.6719,290.7344 L181.6719,288.5781 L189.0625,288.5781 L189.0625,290.7344 L186.5938,290.7344 L186.5938,298.8125 L189.0625,298.8125 L189.0625,300.9688 L181.6719,300.9688 L181.6719,298.8125 L184.1406,298.8125 L184.1406,290.7344 L181.6719,290.7344 Z "/><text fill="#000000" font-family="sans-serif" font-size="12" font-style="italic" lengthAdjust="spacingAndGlyphs" textLength="80" x="213.25" y="292.1387">«Repository»</text><text fill="#000000" font-family="sans-serif" font-size="12" font-style="italic" lengthAdjust="spacingAndGlyphs" textLength="94" x="206.25" y="306.1074">UserRepository</text><line style="stroke: #000000; stroke-width: 1.5;" x1="31.5" x2="442.5" y1="313.9375" y2="313.9375"/><line style="stroke: #000000; stroke-width: 1.5;" x1="31.5" x2="442.5" y1="321.9375" y2="321.9375"/><text fill="#000000" font-family="sans-serif" font-size="11" lengthAdjust="spacingAndGlyphs" textLength="198" x="36.5" y="336.1479">+save(UserAccount) : UserAccount</text><text fill="#000000" font-family="sans-serif" font-size="11" lengthAdjust="spacingAndGlyphs" textLength="333" x="36.5" y="348.9526">+saveAll(Iterable&lt;UserAccount&gt;) : Iterable&lt;UserAccount&gt;</text><text fill="#000000" font-family="sans-serif" font-size="11" lengthAdjust="spacingAndGlyphs" textLength="331" x="36.5" y="361.7573">+findById(UserAccountIdentifier) : Optional&lt;UserAccount&gt;</text><text fill="#000000" font-family="sans-serif" font-size="11" lengthAdjust="spacingAndGlyphs" textLength="253" x="36.5" y="374.562">+existsById(UserAccountIdentifier) : boolean</text><text fill="#000000" font-family="sans-serif" font-size="11" lengthAdjust="spacingAndGlyphs" textLength="195" x="36.5" y="387.3667">+findAll() : Iterable&lt;UserAccount&gt;</text><text fill="#000000" font-family="sans-serif" font-size="11" lengthAdjust="spacingAndGlyphs" textLength="401" x="36.5" y="400.1714">+findAllById(Iterable&lt;UserAccountIdentifier&gt;) : Iterable&lt;UserAccount&gt;</text><text fill="#000000" font-family="sans-serif" font-size="11" lengthAdjust="spacingAndGlyphs" textLength="84" x="36.5" y="412.9761">+count() : long</text><text fill="#000000" font-family="sans-serif" font-size="11" lengthAdjust="spacingAndGlyphs" textLength="232" x="36.5" y="425.7808">+deleteById(UserAccountIdentifier) : void</text><text fill="#000000" font-family="sans-serif" font-size="11" lengthAdjust="spacingAndGlyphs" textLength="158" x="36.5" y="438.5854">+delete(UserAccount) : void</text><text fill="#000000" font-family="sans-serif" font-size="11" lengthAdjust="spacingAndGlyphs" textLength="232" x="36.5" y="451.3901">+deleteAll(Iterable&lt;UserAccount&gt;) : void</text><text fill="#000000" font-family="sans-serif" font-size="11" lengthAdjust="spacingAndGlyphs" textLength="100" x="36.5" y="464.1948">+deleteAll() : void</text><text fill="#000000" font-family="sans-serif" font-size="11" lengthAdjust="spacingAndGlyphs" textLength="290" x="36.5" y="476.9995">+findByEnabledTrue() : Streamable&lt;UserAccount&gt;</text><text fill="#000000" font-family="sans-serif" font-size="11" lengthAdjust="spacingAndGlyphs" textLength="294" x="36.5" y="489.8042">+findByEnabledFalse() : Streamable&lt;UserAccount&gt;</text><!--class UserAccountManager--><rect fill="url(#g1iggc6rsyti910)" filter="url(#f1iggc6rsyti91)" height="53.9375" id="UserAccountManager" style="stroke: #000000; stroke-width: 1.5;" width="166" x="479" y="359"/><ellipse cx="494" cy="377.9688" fill="#B4A7E5" rx="11" ry="11" style="stroke: #000000; stroke-width: 1.0;"/><path d="M489.9219,373.7344 L489.9219,371.5781 L497.3125,371.5781 L497.3125,373.7344 L494.8438,373.7344 L494.8438,381.8125 L497.3125,381.8125 L497.3125,383.9688 L489.9219,383.9688 L489.9219,381.8125 L492.3906,381.8125 L492.3906,373.7344 L489.9219,373.7344 Z "/><text fill="#000000" font-family="sans-serif" font-size="12" font-style="italic" lengthAdjust="spacingAndGlyphs" textLength="59" x="545.5" y="375.1387">«Service»</text><text fill="#000000" font-family="sans-serif" font-size="12" font-style="italic" lengthAdjust="spacingAndGlyphs" textLength="134" x="508" y="389.1074">UserAccountManager</text><line style="stroke: #000000; stroke-width: 1.5;" x1="480" x2="644" y1="396.9375" y2="396.9375"/><line style="stroke: #000000; stroke-width: 1.5;" x1="480" x2="644" y1="404.9375" y2="404.9375"/><!--class BusinessTime--><rect fill="url(#g1iggc6rsyti910)" filter="url(#f1iggc6rsyti91)" height="53.9375" id="BusinessTime" style="stroke: #000000; stroke-width: 1.5;" width="114" x="825" y="359"/><ellipse cx="840" cy="377.9688" fill="#B4A7E5" rx="11" ry="11" style="stroke: #000000; stroke-width: 1.0;"/><path d="M835.9219,373.7344 L835.9219,371.5781 L843.3125,371.5781 L843.3125,373.7344 L840.8438,373.7344 L840.8438,381.8125 L843.3125,381.8125 L843.3125,383.9688 L835.9219,383.9688 L835.9219,381.8125 L838.3906,381.8125 L838.3906,373.7344 L835.9219,373.7344 Z "/><text fill="#000000" font-family="sans-serif" font-size="12" font-style="italic" lengthAdjust="spacingAndGlyphs" textLength="59" x="865.5" y="375.1387">«Service»</text><text fill="#000000" font-family="sans-serif" font-size="12" font-style="italic" lengthAdjust="spacingAndGlyphs" textLength="82" x="854" y="389.1074">BusinessTime</text><line style="stroke: #000000; stroke-width: 1.5;" x1="826" x2="938" y1="396.9375" y2="396.9375"/><line style="stroke: #000000; stroke-width: 1.5;" x1="826" x2="938" y1="404.9375" y2="404.9375"/><!--class UserManagement--><rect fill="url(#g1iggc6rsyti910)" filter="url(#f1iggc6rsyti91)" height="66.7422" id="UserManagement" style="stroke: #000000; stroke-width: 1.5;" width="154" x="485" y="70"/><ellipse cx="504.95" cy="88.9688" fill="#ADD1B2" rx="11" ry="11" style="stroke: #000000; stroke-width: 1.0;"/><path d="M507.9188,94.6094 Q507.3406,94.9063 506.7,95.0469 Q506.0594,95.2031 505.3563,95.2031 Q502.8563,95.2031 501.5281,93.5625 Q500.2156,91.9063 500.2156,88.7813 Q500.2156,85.6563 501.5281,84 Q502.8563,82.3438 505.3563,82.3438 Q506.0594,82.3438 506.7,82.5 Q507.3563,82.6563 507.9188,82.9531 L507.9188,85.6719 Q507.2938,85.0938 506.7,84.8281 Q506.1063,84.5469 505.4813,84.5469 Q504.1375,84.5469 503.45,85.625 Q502.7625,86.6875 502.7625,88.7813 Q502.7625,90.875 503.45,91.9531 Q504.1375,93.0156 505.4813,93.0156 Q506.1063,93.0156 506.7,92.75 Q507.2938,92.4688 507.9188,91.8906 L507.9188,94.6094 Z "/><text fill="#000000" font-family="sans-serif" font-size="12" font-style="italic" lengthAdjust="spacingAndGlyphs" textLength="59" x="546.05" y="86.1387">«Service»</text><text fill="#000000" font-family="sans-serif" font-size="12" lengthAdjust="spacingAndGlyphs" textLength="111" x="520.05" y="100.1074">UserManagement</text><line style="stroke: #000000; stroke-width: 1.5;" x1="486" x2="638" y1="107.9375" y2="107.9375"/><line style="stroke: #000000; stroke-width: 1.5;" x1="486" x2="638" y1="115.9375" y2="115.9375"/><text fill="#000000" font-family="sans-serif" font-size="11" lengthAdjust="spacingAndGlyphs" textLength="142" x="491" y="130.1479">+login(LoginForm) : User</text><!--class CrudRepository--><rect fill="url(#g1iggc6rsyti910)" filter="url(#f1iggc6rsyti91)" height="188.8516" id="CrudRepository" style="stroke: #000000; stroke-width: 1.5;" width="309" x="1091.5" y="620"/><ellipse cx="1178.25" cy="636" fill="#B4A7E5" rx="11" ry="11" style="stroke: #000000; stroke-width: 1.0;"/><path d="M1174.1719,631.7656 L1174.1719,629.6094 L1181.5625,629.6094 L1181.5625,631.7656 L1179.0938,631.7656 L1179.0938,639.8438 L1181.5625,639.8438 L1181.5625,642 L1174.1719,642 L1174.1719,639.8438 L1176.6406,639.8438 L1176.6406,631.7656 L1174.1719,631.7656 Z "/><text fill="#000000" font-family="sans-serif" font-size="12" font-style="italic" lengthAdjust="spacingAndGlyphs" textLength="95" x="1198.75" y="640.1543">CrudRepository</text><rect fill="#FFFFFF" height="15.9688" style="stroke: #000000; stroke-width: 1.0; stroke-dasharray: 2.0,2.0;" width="30" x="1373.5" y="617"/><text fill="#000000" font-family="sans-serif" font-size="12" font-style="italic" lengthAdjust="spacingAndGlyphs" textLength="28" x="1374.5" y="629.1387">T, ID</text><line style="stroke: #000000; stroke-width: 1.5;" x1="1092.5" x2="1399.5" y1="652" y2="652"/><line style="stroke: #000000; stroke-width: 1.5;" x1="1092.5" x2="1399.5" y1="660" y2="660"/><text fill="#000000" font-family="sans-serif" font-size="11" lengthAdjust="spacingAndGlyphs" textLength="162" x="1097.5" y="674.2104">&lt;S extends T&gt; +save(S) : S</text><text fill="#000000" font-family="sans-serif" font-size="11" lengthAdjust="spacingAndGlyphs" textLength="297" x="1097.5" y="687.0151">&lt;S extends T&gt; +saveAll(Iterable&lt;S​&gt;) : Iterable&lt;S&gt;</text><text fill="#000000" font-family="sans-serif" font-size="11" lengthAdjust="spacingAndGlyphs" textLength="157" x="1097.5" y="699.8198">+findById(ID) : Optional&lt;T&gt;</text><text fill="#000000" font-family="sans-serif" font-size="11" lengthAdjust="spacingAndGlyphs" textLength="143" x="1097.5" y="712.6245">+existsById(ID) : boolean</text><text fill="#000000" font-family="sans-serif" font-size="11" lengthAdjust="spacingAndGlyphs" textLength="131" x="1097.5" y="725.4292">+findAll() : Iterable&lt;T&gt;</text><text fill="#000000" font-family="sans-serif" font-size="11" lengthAdjust="spacingAndGlyphs" textLength="227" x="1097.5" y="738.2339">+findAllById(Iterable&lt;ID&gt;) : Iterable&lt;T&gt;</text><text fill="#000000" font-family="sans-serif" font-size="11" lengthAdjust="spacingAndGlyphs" textLength="84" x="1097.5" y="751.0386">+count() : long</text><text fill="#000000" font-family="sans-serif" font-size="11" lengthAdjust="spacingAndGlyphs" textLength="122" x="1097.5" y="763.8433">+deleteById(ID) : void</text><text fill="#000000" font-family="sans-serif" font-size="11" lengthAdjust="spacingAndGlyphs" textLength="94" x="1097.5" y="776.6479">+delete(T) : void</text><text fill="#000000" font-family="sans-serif" font-size="11" lengthAdjust="spacingAndGlyphs" textLength="227" x="1097.5" y="789.4526">+deleteAll(Iterable&lt;? extends T&gt;) : void</text><text fill="#000000" font-family="sans-serif" font-size="11" lengthAdjust="spacingAndGlyphs" textLength="100" x="1097.5" y="802.2573">+deleteAll() : void</text><!--link UserRepository to UserAccount--><path d="M237,509.0128 C237,509.0128 237,993.8386 237,993.8386 " fill="none" id="UserRepository-UserAccount" style="stroke: #000000; stroke-width: 1.0;"/><polygon fill="#000000" points="237,496.0128,233,502.0128,237,508.0128,241,502.0128,237,496.0128" style="stroke: #000000; stroke-width: 1.0;"/><text fill="#000000" font-family="sans-serif" font-size="13" lengthAdjust="spacingAndGlyphs" textLength="8" x="228.7188" y="516.333">1</text><text fill="#000000" font-family="sans-serif" font-size="13" lengthAdjust="spacingAndGlyphs" textLength="23" x="211.0227" y="982.9851">0..*</text><!--link UserRepository to CrudRepository--><path d="M443.621,461 C738.8172,461 1246,461 1246,461 C1246,461 1246,599.7455 1246,599.7455 " fill="none" id="UserRepository-CrudRepository" style="stroke: #000000; stroke-width: 1.0;"/><polygon fill="none" points="1253.0001,599.7455,1246,619.7455,1239.0001,599.7454,1253.0001,599.7455" style="stroke: #000000; stroke-width: 1.0;"/><text fill="#000000" font-family="sans-serif" font-size="13" lengthAdjust="spacingAndGlyphs" textLength="50" x="882.5" y="539.0669">«binds»</text><text fill="#000000" font-family="sans-serif" font-size="13" lengthAdjust="spacingAndGlyphs" textLength="249" x="783" y="554.1997">&lt;UserAccount, UserAccountIdentifier&gt;</text><!--link UserManagement to UserAccountManager--><path d="M587.6667,137.0158 C587.6667,137.0158 587.6667,353.8386 587.6667,353.8386 " fill="none" id="UserManagement-UserAccountManager" style="stroke: #000000; stroke-width: 1.0;"/><polygon fill="#000000" points="587.6667,358.8386,591.6667,349.8386,587.6667,353.8386,583.6667,349.8386,587.6667,358.8386" style="stroke: #000000; stroke-width: 1.0;"/><text fill="#000000" font-family="sans-serif" font-size="13" lengthAdjust="spacingAndGlyphs" textLength="0" x="622.5" y="180.0669"/><text fill="#000000" font-family="sans-serif" font-size="13" lengthAdjust="spacingAndGlyphs" textLength="0" x="622.5" y="195.1997"/><text fill="#000000" font-family="sans-serif" font-size="13" lengthAdjust="spacingAndGlyphs" textLength="115" x="563" y="210.3325">USER_ACCOUNTS</text><text fill="#000000" font-family="sans-serif" font-size="13" lengthAdjust="spacingAndGlyphs" textLength="8" x="583.6615" y="156.681">1</text><text fill="#000000" font-family="sans-serif" font-size="13" lengthAdjust="spacingAndGlyphs" textLength="8" x="584.6771" y="347.9126">1</text><!--link UserManagement to UserRepository--><path d="M536.3333,137.3003 C536.3333,196.0979 536.3333,311 536.3333,311 C536.3333,311 448.6723,311 448.6723,311 " fill="none" id="UserManagement-UserRepository" style="stroke: #000000; stroke-width: 1.0;"/><polygon fill="#000000" points="443.6723,311,452.6723,315,448.6723,311,452.6723,307,443.6723,311" style="stroke: #000000; stroke-width: 1.0;"/><text fill="#000000" font-family="sans-serif" font-size="13" lengthAdjust="spacingAndGlyphs" textLength="8" x="523.0489" y="156.7586">1</text><text fill="#000000" font-family="sans-serif" font-size="13" lengthAdjust="spacingAndGlyphs" textLength="8" x="451.2433" y="305.0973">1</text><!--link UserManagement to BusinessTime--><path d="M639.0552,104 C733.7429,104 882,104 882,104 C882,104 882,353.9607 882,353.9607 " fill="none" id="UserManagement-BusinessTime" style="stroke: #000000; stroke-width: 1.0;"/><polygon fill="#000000" points="882,358.9607,886,349.9607,882,353.9607,878,349.9607,882,358.9607" style="stroke: #000000; stroke-width: 1.0;"/><!--
@startuml

skinparam class {
	BackgroundColor #LightCoral/LightPink
    BorderColor Black
    ArrowColor  Black
}

skinparam package {
    FontColor Grey
    BorderColor DarkMagenta
}

skinparam classAttributeIconSize 0
skinparam linetype ortho

rectangle salespoint-framework-7.0.0.RELEASE.jar {

    package org.salespointframework.useraccount {
        class UserAccount <<Entity>>{
            -userAccountIdentifier : UserAccountIdentifier
            -password : Password
            -firstname : String
            -lastname : String
            -email : String
            -roles : Set<Role>
            -enable : boolean

            +UserAccount()
            +UserAccount(UserAccountIdentifier, String, Role...)
            +UserAccount(UserAccountIdentifier, String, String, String, String, Collection<Role>)
            +getID() : UserAccountIdentifier
            +getUserName() : String
            +add(Role) : boolean
            +remove(Role) : boolean
            +hasRole() : boolean
            +getRoles() : Streamable<Role>
        }

        class Role <<Object>>{
            -name : String

            +{static} of(String) : Role
        }

        interface UserRepository <<Repository>> {
            +save(UserAccount) : UserAccount
            +saveAll(Iterable<UserAccount>) : Iterable<UserAccount>
            +findById(UserAccountIdentifier) : Optional<UserAccount>
            +existsById(UserAccountIdentifier) : boolean
            +findAll() : Iterable<UserAccount>
            +findAllById(Iterable<UserAccountIdentifier>) : Iterable<UserAccount>
            +count() : long
            +deleteById(UserAccountIdentifier) : void
            +delete(UserAccount) : void
            +deleteAll(Iterable<UserAccount>) : void
            +deleteAll() : void
            +findByEnabledTrue() : Streamable<UserAccount>
            +findByEnabledFalse() : Streamable<UserAccount>
        }

        interface UserAccountManager <<Service>>

    }

    package org.salespointframework.time {
        interface BusinessTime <<Service>> {

        }
    }

}



rectangle Bioladen {

    package bioladen.user {

        class UserManagement <<Service>> {
            +login(LoginForm) : User
        }
    }

}



rectangle spring-data-comments-2.1.0.RELEASE.jar as spring {

    package org.springframework.data.repository {
        interface CrudRepository <T, ID>{
            <S extends T> +save(S) : S
            <S extends T> +saveAll(Iterable<S​>) : Iterable<S>
            +findById(ID) : Optional<T>
            +existsById(ID) : boolean
            +findAll() : Iterable<T>
            +findAllById(Iterable<ID>) : Iterable<T>
            +count() : long
            +deleteById(ID) : void
            +delete(T) : void
            +deleteAll(Iterable<? extends T>) : void
            +deleteAll() : void
        }
    }

}



UserRepository "1" *- - "0..*" UserAccount
UserRepository - -|> CrudRepository: <<binds>>\n<UserAccount, UserAccountIdentifier>
UserManagement "1" - -> "1" UserAccountManager: \n\nUSER_ACCOUNTS
UserManagement "1" - -> "1" UserRepository
UserManagement - -> BusinessTime

@enduml

PlantUML version 1.2018.12(Sun Oct 21 12:15:15 CEST 2018)
(GPL source distribution)
Java Runtime: OpenJDK Runtime Environment
JVM: OpenJDK 64-Bit Server VM
Java Version: 11.0.1+13-Debian-2
Operating System: Linux
OS Version: 4.18.0-parrot10-amd64
Default Encoding: UTF-8
Language: en
Country: US
--></g></svg>