<?xml version="1.0" encoding="UTF-8" standalone="no"?><svg xmlns="http://www.w3.org/2000/svg" xmlns:xlink="http://www.w3.org/1999/xlink" contentScriptType="application/ecmascript" contentStyleType="text/css" height="1580px" preserveAspectRatio="none" style="width:1902px;height:1580px;" version="1.1" viewBox="0 0 1902 1580" width="1902px" zoomAndPan="magnify"><defs><filter height="300%" id="fgloafir6e89y" width="300%" x="-1" y="-1"><feGaussianBlur result="blurOut" stdDeviation="2.0"/><feColorMatrix in="blurOut" result="blurOut2" type="matrix" values="0 0 0 0 0 0 0 0 0 0 0 0 0 0 0 0 0 0 .4 0"/><feOffset dx="4.0" dy="4.0" in="blurOut2" result="blurOut3"/><feBlend in="SourceGraphic" in2="blurOut3" mode="normal"/></filter><linearGradient id="ggloafir6e89y0" x1="0%" x2="100%" y1="0%" y2="100%"><stop offset="0%" stop-color="#F08080"/><stop offset="100%" stop-color="#FFB6C1"/></linearGradient></defs><g><!--cluster salespoint-framework-7.0.0.RELEASE.jar--><rect fill="#FFFFFF" filter="url(#fgloafir6e89y)" height="316" style="stroke: #8B008B; stroke-width: 1.5;" width="1196" x="692" y="940"/><text fill="#808080" font-family="sans-serif" font-size="14" font-weight="bold" lengthAdjust="spacingAndGlyphs" textLength="316" x="1132" y="954.9951">salespoint-framework-7.0.0.RELEASE.jar</text><!--cluster org.salespointframework.catalog--><polygon fill="#FFFFFF" filter="url(#fgloafir6e89y)" points="1352,967,1619,967,1626,989.2969,1880,989.2969,1880,1248,1352,1248,1352,967" style="stroke: #8B008B; stroke-width: 1.5;"/><line style="stroke: #8B008B; stroke-width: 1.5;" x1="1352" x2="1626" y1="989.2969" y2="989.2969"/><text fill="#808080" font-family="sans-serif" font-size="14" font-weight="bold" lengthAdjust="spacingAndGlyphs" textLength="261" x="1356" y="981.9951">org.salespointframework.catalog</text><!--cluster org.salespointframework.time--><polygon fill="#FFFFFF" filter="url(#fgloafir6e89y)" points="700,1063,944,1063,951,1085.2969,954,1085.2969,954,1152,700,1152,700,1063" style="stroke: #8B008B; stroke-width: 1.5;"/><line style="stroke: #8B008B; stroke-width: 1.5;" x1="700" x2="951" y1="1085.2969" y2="1085.2969"/><text fill="#808080" font-family="sans-serif" font-size="14" font-weight="bold" lengthAdjust="spacingAndGlyphs" textLength="238" x="704" y="1077.9951">org.salespointframework.time</text><!--cluster org.salespointframework.inventory--><polygon fill="#FFFFFF" filter="url(#fgloafir6e89y)" points="962,992.5,1247,992.5,1254,1014.7969,1334,1014.7969,1334,1222.5,962,1222.5,962,992.5" style="stroke: #8B008B; stroke-width: 1.5;"/><line style="stroke: #8B008B; stroke-width: 1.5;" x1="962" x2="1254" y1="1014.7969" y2="1014.7969"/><text fill="#808080" font-family="sans-serif" font-size="14" font-weight="bold" lengthAdjust="spacingAndGlyphs" textLength="279" x="966" y="1007.4951">org.salespointframework.inventory</text><!--cluster spring--><rect fill="#FFFFFF" filter="url(#fgloafir6e89y)" height="259" style="stroke: #8B008B; stroke-width: 1.5;" width="340" x="1186" y="1310"/><text fill="#808080" font-family="sans-serif" font-size="14" font-weight="bold" lengthAdjust="spacingAndGlyphs" textLength="321" x="1195.5" y="1324.9951">spring-data-comments-2.1.0.RELEASE.jar</text><!--cluster org.springframework.data.repository--><polygon fill="#FFFFFF" filter="url(#fgloafir6e89y)" points="1194,1337,1494,1337,1501,1359.2969,1518,1359.2969,1518,1561,1194,1561,1194,1337" style="stroke: #8B008B; stroke-width: 1.5;"/><line style="stroke: #8B008B; stroke-width: 1.5;" x1="1194" x2="1501" y1="1359.2969" y2="1359.2969"/><text fill="#808080" font-family="sans-serif" font-size="14" font-weight="bold" lengthAdjust="spacingAndGlyphs" textLength="294" x="1198" y="1351.9951">org.springframework.data.repository</text><!--cluster Bioladen--><rect fill="#FFFFFF" filter="url(#fgloafir6e89y)" height="1498.5" style="stroke: #8B008B; stroke-width: 1.5;" width="670" x="14" y="16"/><text fill="#808080" font-family="sans-serif" font-size="14" font-weight="bold" lengthAdjust="spacingAndGlyphs" textLength="67" x="315.5" y="30.9951">Bioladen</text><!--cluster bioladen.catalog--><polygon fill="#FFFFFF" filter="url(#fgloafir6e89y)" points="22,270,157,270,164,292.2969,484,292.2969,484,1506.5,22,1506.5,22,270" style="stroke: #8B008B; stroke-width: 1.5;"/><line style="stroke: #8B008B; stroke-width: 1.5;" x1="22" x2="164" y1="292.2969" y2="292.2969"/><text fill="#808080" font-family="sans-serif" font-size="14" font-weight="bold" lengthAdjust="spacingAndGlyphs" textLength="129" x="26" y="284.9951">bioladen.catalog</text><!--cluster bioladen.catalog.web--><polygon fill="#FFFFFF" filter="url(#fgloafir6e89y)" points="492,826,666,826,673,848.2969,676,848.2969,676,909,492,909,492,826" style="stroke: #8B008B; stroke-width: 1.5;"/><line style="stroke: #8B008B; stroke-width: 1.5;" x1="492" x2="673" y1="848.2969" y2="848.2969"/><text fill="#808080" font-family="sans-serif" font-size="14" font-weight="bold" lengthAdjust="spacingAndGlyphs" textLength="168" x="496" y="840.9951">bioladen.catalog.web</text><!--cluster bioladen.distributor--><polygon fill="#FFFFFF" filter="url(#fgloafir6e89y)" points="168,43,329,43,336,65.2969,339,65.2969,339,177,168,177,168,43" style="stroke: #8B008B; stroke-width: 1.5;"/><line style="stroke: #8B008B; stroke-width: 1.5;" x1="168" x2="336" y1="65.2969" y2="65.2969"/><text fill="#808080" font-family="sans-serif" font-size="14" font-weight="bold" lengthAdjust="spacingAndGlyphs" textLength="155" x="172" y="57.9951">bioladen.distributor</text><!--class org.salespointframework.catalog.Catalog--><rect fill="url(#ggloafir6e89y0)" filter="url(#fgloafir6e89y)" height="53.9375" id="org.salespointframework.catalog.Catalog" style="stroke: #000000; stroke-width: 1.5;" width="225" x="1646.5" y="1090"/><ellipse cx="1661.5" cy="1108.9688" fill="#B4A7E5" rx="11" ry="11" style="stroke: #000000; stroke-width: 1.0;"/><path d="M1657.4219,1104.7344 L1657.4219,1102.5781 L1664.8125,1102.5781 L1664.8125,1104.7344 L1662.3438,1104.7344 L1662.3438,1112.8125 L1664.8125,1112.8125 L1664.8125,1114.9688 L1657.4219,1114.9688 L1657.4219,1112.8125 L1659.8906,1112.8125 L1659.8906,1104.7344 L1657.4219,1104.7344 Z "/><text fill="#000000" font-family="sans-serif" font-size="12" font-style="italic" lengthAdjust="spacingAndGlyphs" textLength="80" x="1673.5" y="1106.1387">«Repository»</text><text fill="#000000" font-family="sans-serif" font-size="12" font-style="italic" lengthAdjust="spacingAndGlyphs" textLength="48" x="1689.5" y="1120.1074">Catalog</text><rect fill="#FFFFFF" height="15.9688" style="stroke: #000000; stroke-width: 1.0; stroke-dasharray: 2.0,2.0;" width="115" x="1759.5" y="1087"/><text fill="#000000" font-family="sans-serif" font-size="12" font-style="italic" lengthAdjust="spacingAndGlyphs" textLength="113" x="1760.5" y="1099.1387">T extends Product</text><line style="stroke: #000000; stroke-width: 1.5;" x1="1647.5" x2="1870.5" y1="1127.9375" y2="1127.9375"/><line style="stroke: #000000; stroke-width: 1.5;" x1="1647.5" x2="1870.5" y1="1135.9375" y2="1135.9375"/><!--class org.salespointframework.catalog.Product--><rect fill="url(#ggloafir6e89y0)" filter="url(#fgloafir6e89y)" height="246.0078" id="org.salespointframework.catalog.Product" style="stroke: #000000; stroke-width: 1.5;" width="251" x="1360.5" y="994"/><ellipse cx="1457.25" cy="1012.9688" fill="#ADD1B2" rx="11" ry="11" style="stroke: #000000; stroke-width: 1.0;"/><path d="M1460.2188,1018.6094 Q1459.6406,1018.9063 1459,1019.0469 Q1458.3594,1019.2031 1457.6563,1019.2031 Q1455.1563,1019.2031 1453.8281,1017.5625 Q1452.5156,1015.9063 1452.5156,1012.7813 Q1452.5156,1009.6563 1453.8281,1008 Q1455.1563,1006.3438 1457.6563,1006.3438 Q1458.3594,1006.3438 1459,1006.5 Q1459.6563,1006.6563 1460.2188,1006.9531 L1460.2188,1009.6719 Q1459.5938,1009.0938 1459,1008.8281 Q1458.4063,1008.5469 1457.7813,1008.5469 Q1456.4375,1008.5469 1455.75,1009.625 Q1455.0625,1010.6875 1455.0625,1012.7813 Q1455.0625,1014.875 1455.75,1015.9531 Q1456.4375,1017.0156 1457.7813,1017.0156 Q1458.4063,1017.0156 1459,1016.75 Q1459.5938,1016.4688 1460.2188,1015.8906 L1460.2188,1018.6094 Z "/><text fill="#000000" font-family="sans-serif" font-size="12" font-style="italic" lengthAdjust="spacingAndGlyphs" textLength="50" x="1477.25" y="1010.1387">«Entity»</text><text fill="#000000" font-family="sans-serif" font-size="12" lengthAdjust="spacingAndGlyphs" textLength="49" x="1477.75" y="1024.1074">Product</text><line style="stroke: #000000; stroke-width: 1.5;" x1="1361.5" x2="1610.5" y1="1031.9375" y2="1031.9375"/><text fill="#000000" font-family="sans-serif" font-size="11" lengthAdjust="spacingAndGlyphs" textLength="202" x="1366.5" y="1046.1479">-productIdentifier : ProductIdentifier</text><text fill="#000000" font-family="sans-serif" font-size="11" lengthAdjust="spacingAndGlyphs" textLength="82" x="1366.5" y="1058.9526">-name : String</text><text fill="#000000" font-family="sans-serif" font-size="11" lengthAdjust="spacingAndGlyphs" textLength="139" x="1366.5" y="1071.7573">-price : MonetaryAmount</text><text fill="#000000" font-family="sans-serif" font-size="11" lengthAdjust="spacingAndGlyphs" textLength="147" x="1366.5" y="1084.562">-categories : Set&lt;String&gt;</text><text fill="#000000" font-family="sans-serif" font-size="11" lengthAdjust="spacingAndGlyphs" textLength="86" x="1366.5" y="1097.3667">-metric : Metric</text><line style="stroke: #000000; stroke-width: 1.5;" x1="1361.5" x2="1610.5" y1="1103.9609" y2="1103.9609"/><text fill="#000000" font-family="sans-serif" font-size="11" lengthAdjust="spacingAndGlyphs" textLength="197" x="1366.5" y="1118.1714">+Product(String, MonetaryAmount)</text><text fill="#000000" font-family="sans-serif" font-size="11" lengthAdjust="spacingAndGlyphs" textLength="239" x="1366.5" y="1130.9761">+Product(String, MonetaryAmount, Metric)</text><text fill="#000000" font-family="sans-serif" font-size="11" lengthAdjust="spacingAndGlyphs" textLength="150" x="1366.5" y="1143.7808">+getId() : ProductIdentifier</text><text fill="#000000" font-family="sans-serif" font-size="11" lengthAdjust="spacingAndGlyphs" textLength="227" x="1366.5" y="1156.5854">+getCategories() : Streamable&lt;String&gt;</text><text fill="#000000" font-family="sans-serif" font-size="11" lengthAdjust="spacingAndGlyphs" textLength="180" x="1366.5" y="1169.3901">+addCategory(String) : boolean</text><text fill="#000000" font-family="sans-serif" font-size="11" lengthAdjust="spacingAndGlyphs" textLength="202" x="1366.5" y="1182.1948">+removeCategory(String) : boolean</text><text fill="#000000" font-family="sans-serif" font-size="11" lengthAdjust="spacingAndGlyphs" textLength="172" x="1366.5" y="1194.9995">+supports(Quantity) : boolean</text><text fill="#000000" font-family="sans-serif" font-size="11" lengthAdjust="spacingAndGlyphs" textLength="130" x="1366.5" y="1207.8042">+verify(Quantity) : void</text><text fill="#000000" font-family="sans-serif" font-size="11" lengthAdjust="spacingAndGlyphs" textLength="197" x="1366.5" y="1220.6089">+createQuantity(double) : Quantity</text><text fill="#000000" font-family="sans-serif" font-size="11" lengthAdjust="spacingAndGlyphs" textLength="183" x="1366.5" y="1233.4136">+createQuantity(long) : Quantity</text><!--class BusinessTime--><rect fill="url(#ggloafir6e89y0)" filter="url(#fgloafir6e89y)" height="53.9375" id="BusinessTime" style="stroke: #000000; stroke-width: 1.5;" width="114" x="708" y="1090"/><ellipse cx="723" cy="1108.9688" fill="#B4A7E5" rx="11" ry="11" style="stroke: #000000; stroke-width: 1.0;"/><path d="M718.9219,1104.7344 L718.9219,1102.5781 L726.3125,1102.5781 L726.3125,1104.7344 L723.8438,1104.7344 L723.8438,1112.8125 L726.3125,1112.8125 L726.3125,1114.9688 L718.9219,1114.9688 L718.9219,1112.8125 L721.3906,1112.8125 L721.3906,1104.7344 L718.9219,1104.7344 Z "/><text fill="#000000" font-family="sans-serif" font-size="12" font-style="italic" lengthAdjust="spacingAndGlyphs" textLength="59" x="748.5" y="1106.1387">«Service»</text><text fill="#000000" font-family="sans-serif" font-size="12" font-style="italic" lengthAdjust="spacingAndGlyphs" textLength="82" x="737" y="1120.1074">BusinessTime</text><line style="stroke: #000000; stroke-width: 1.5;" x1="709" x2="821" y1="1127.9375" y2="1127.9375"/><line style="stroke: #000000; stroke-width: 1.5;" x1="709" x2="821" y1="1135.9375" y2="1135.9375"/><!--class Inventory--><rect fill="url(#ggloafir6e89y0)" filter="url(#fgloafir6e89y)" height="194.7891" id="Inventory" style="stroke: #000000; stroke-width: 1.5;" width="355" x="970.5" y="1019.5"/><ellipse cx="1027.75" cy="1038.4688" fill="#B4A7E5" rx="11" ry="11" style="stroke: #000000; stroke-width: 1.0;"/><path d="M1023.6719,1034.2344 L1023.6719,1032.0781 L1031.0625,1032.0781 L1031.0625,1034.2344 L1028.5938,1034.2344 L1028.5938,1042.3125 L1031.0625,1042.3125 L1031.0625,1044.4688 L1023.6719,1044.4688 L1023.6719,1042.3125 L1026.1406,1042.3125 L1026.1406,1034.2344 L1023.6719,1034.2344 Z "/><text fill="#000000" font-family="sans-serif" font-size="12" font-style="italic" lengthAdjust="spacingAndGlyphs" textLength="80" x="1046.25" y="1035.6387">«Repository»</text><text fill="#000000" font-family="sans-serif" font-size="12" font-style="italic" lengthAdjust="spacingAndGlyphs" textLength="59" x="1056.75" y="1049.6074">Inventory</text><rect fill="#FFFFFF" height="15.9688" style="stroke: #000000; stroke-width: 1.0; stroke-dasharray: 2.0,2.0;" width="154" x="1174.5" y="1016.5"/><text fill="#000000" font-family="sans-serif" font-size="12" font-style="italic" lengthAdjust="spacingAndGlyphs" textLength="152" x="1175.5" y="1028.6387">T extends InventoryItem</text><line style="stroke: #000000; stroke-width: 1.5;" x1="971.5" x2="1324.5" y1="1057.4375" y2="1057.4375"/><line style="stroke: #000000; stroke-width: 1.5;" x1="971.5" x2="1324.5" y1="1065.4375" y2="1065.4375"/><text fill="#000000" font-family="sans-serif" font-size="11" lengthAdjust="spacingAndGlyphs" textLength="162" x="976.5" y="1079.6479">&lt;S extends T&gt; +save(S) : S</text><text fill="#000000" font-family="sans-serif" font-size="11" lengthAdjust="spacingAndGlyphs" textLength="297" x="976.5" y="1092.4526">&lt;S extends T&gt; +saveAll(Iterable&lt;S​&gt;) : Iterable&lt;S&gt;</text><text fill="#000000" font-family="sans-serif" font-size="11" lengthAdjust="spacingAndGlyphs" textLength="273" x="976.5" y="1105.2573">+findById(InventoryItemIdentifier) : Optional&lt;T&gt;</text><text fill="#000000" font-family="sans-serif" font-size="11" lengthAdjust="spacingAndGlyphs" textLength="259" x="976.5" y="1118.062">+existsById(InventoryItemIdentifier) : boolean</text><text fill="#000000" font-family="sans-serif" font-size="11" lengthAdjust="spacingAndGlyphs" textLength="131" x="976.5" y="1130.8667">+findAll() : Iterable&lt;T&gt;</text><text fill="#000000" font-family="sans-serif" font-size="11" lengthAdjust="spacingAndGlyphs" textLength="343" x="976.5" y="1143.6714">+findAllById(Iterable&lt;InventoryItemIdentifier&gt;) : Iterable&lt;T&gt;</text><text fill="#000000" font-family="sans-serif" font-size="11" lengthAdjust="spacingAndGlyphs" textLength="84" x="976.5" y="1156.4761">+count() : long</text><text fill="#000000" font-family="sans-serif" font-size="11" lengthAdjust="spacingAndGlyphs" textLength="238" x="976.5" y="1169.2808">+deleteById(InventoryItemIdentifier) : void</text><text fill="#000000" font-family="sans-serif" font-size="11" lengthAdjust="spacingAndGlyphs" textLength="94" x="976.5" y="1182.0854">+delete(T) : void</text><text fill="#000000" font-family="sans-serif" font-size="11" lengthAdjust="spacingAndGlyphs" textLength="227" x="976.5" y="1194.8901">+deleteAll(Iterable&lt;? extends T&gt;) : void</text><text fill="#000000" font-family="sans-serif" font-size="11" lengthAdjust="spacingAndGlyphs" textLength="100" x="976.5" y="1207.6948">+deleteAll() : void</text><!--class org.springframework.data.repository.CrudRepository--><rect fill="url(#ggloafir6e89y0)" filter="url(#fgloafir6e89y)" height="188.8516" id="org.springframework.data.repository.CrudRepository" style="stroke: #000000; stroke-width: 1.5;" width="309" x="1201.5" y="1364"/><ellipse cx="1288.25" cy="1380" fill="#B4A7E5" rx="11" ry="11" style="stroke: #000000; stroke-width: 1.0;"/><path d="M1284.1719,1375.7656 L1284.1719,1373.6094 L1291.5625,1373.6094 L1291.5625,1375.7656 L1289.0938,1375.7656 L1289.0938,1383.8438 L1291.5625,1383.8438 L1291.5625,1386 L1284.1719,1386 L1284.1719,1383.8438 L1286.6406,1383.8438 L1286.6406,1375.7656 L1284.1719,1375.7656 Z "/><text fill="#000000" font-family="sans-serif" font-size="12" font-style="italic" lengthAdjust="spacingAndGlyphs" textLength="95" x="1308.75" y="1384.1543">CrudRepository</text><rect fill="#FFFFFF" height="15.9688" style="stroke: #000000; stroke-width: 1.0; stroke-dasharray: 2.0,2.0;" width="30" x="1483.5" y="1361"/><text fill="#000000" font-family="sans-serif" font-size="12" font-style="italic" lengthAdjust="spacingAndGlyphs" textLength="28" x="1484.5" y="1373.1387">T, ID</text><line style="stroke: #000000; stroke-width: 1.5;" x1="1202.5" x2="1509.5" y1="1396" y2="1396"/><line style="stroke: #000000; stroke-width: 1.5;" x1="1202.5" x2="1509.5" y1="1404" y2="1404"/><text fill="#000000" font-family="sans-serif" font-size="11" lengthAdjust="spacingAndGlyphs" textLength="162" x="1207.5" y="1418.2104">&lt;S extends T&gt; +save(S) : S</text><text fill="#000000" font-family="sans-serif" font-size="11" lengthAdjust="spacingAndGlyphs" textLength="297" x="1207.5" y="1431.0151">&lt;S extends T&gt; +saveAll(Iterable&lt;S​&gt;) : Iterable&lt;S&gt;</text><text fill="#000000" font-family="sans-serif" font-size="11" lengthAdjust="spacingAndGlyphs" textLength="157" x="1207.5" y="1443.8198">+findById(ID) : Optional&lt;T&gt;</text><text fill="#000000" font-family="sans-serif" font-size="11" lengthAdjust="spacingAndGlyphs" textLength="143" x="1207.5" y="1456.6245">+existsById(ID) : boolean</text><text fill="#000000" font-family="sans-serif" font-size="11" lengthAdjust="spacingAndGlyphs" textLength="131" x="1207.5" y="1469.4292">+findAll() : Iterable&lt;T&gt;</text><text fill="#000000" font-family="sans-serif" font-size="11" lengthAdjust="spacingAndGlyphs" textLength="227" x="1207.5" y="1482.2339">+findAllById(Iterable&lt;ID&gt;) : Iterable&lt;T&gt;</text><text fill="#000000" font-family="sans-serif" font-size="11" lengthAdjust="spacingAndGlyphs" textLength="84" x="1207.5" y="1495.0386">+count() : long</text><text fill="#000000" font-family="sans-serif" font-size="11" lengthAdjust="spacingAndGlyphs" textLength="122" x="1207.5" y="1507.8433">+deleteById(ID) : void</text><text fill="#000000" font-family="sans-serif" font-size="11" lengthAdjust="spacingAndGlyphs" textLength="94" x="1207.5" y="1520.6479">+delete(T) : void</text><text fill="#000000" font-family="sans-serif" font-size="11" lengthAdjust="spacingAndGlyphs" textLength="227" x="1207.5" y="1533.4526">+deleteAll(Iterable&lt;? extends T&gt;) : void</text><text fill="#000000" font-family="sans-serif" font-size="11" lengthAdjust="spacingAndGlyphs" textLength="100" x="1207.5" y="1546.2573">+deleteAll() : void</text><!--class bioladen.catalog.ProductCatalog--><rect fill="url(#ggloafir6e89y0)" filter="url(#fgloafir6e89y)" height="53.9375" id="bioladen.catalog.ProductCatalog" style="stroke: #000000; stroke-width: 1.5;" width="128" x="348" y="1431.5"/><ellipse cx="363" cy="1450.4688" fill="#B4A7E5" rx="11" ry="11" style="stroke: #000000; stroke-width: 1.0;"/><path d="M358.9219,1446.2344 L358.9219,1444.0781 L366.3125,1444.0781 L366.3125,1446.2344 L363.8438,1446.2344 L363.8438,1454.3125 L366.3125,1454.3125 L366.3125,1456.4688 L358.9219,1456.4688 L358.9219,1454.3125 L361.3906,1454.3125 L361.3906,1446.2344 L358.9219,1446.2344 Z "/><text fill="#000000" font-family="sans-serif" font-size="12" font-style="italic" lengthAdjust="spacingAndGlyphs" textLength="80" x="385" y="1447.6387">«Repository»</text><text fill="#000000" font-family="sans-serif" font-size="12" font-style="italic" lengthAdjust="spacingAndGlyphs" textLength="96" x="377" y="1461.6074">ProductCatalog</text><line style="stroke: #000000; stroke-width: 1.5;" x1="349" x2="475" y1="1469.4375" y2="1469.4375"/><line style="stroke: #000000; stroke-width: 1.5;" x1="349" x2="475" y1="1477.4375" y2="1477.4375"/><!--class bioladen.catalog.Product--><rect fill="url(#ggloafir6e89y0)" filter="url(#fgloafir6e89y)" height="428.4688" id="bioladen.catalog.Product" style="stroke: #000000; stroke-width: 1.5;" width="445" x="30.5" y="297"/><ellipse cx="224.25" cy="315.9688" fill="#ADD1B2" rx="11" ry="11" style="stroke: #000000; stroke-width: 1.0;"/><path d="M227.2188,321.6094 Q226.6406,321.9063 226,322.0469 Q225.3594,322.2031 224.6563,322.2031 Q222.1563,322.2031 220.8281,320.5625 Q219.5156,318.9063 219.5156,315.7813 Q219.5156,312.6563 220.8281,311 Q222.1563,309.3438 224.6563,309.3438 Q225.3594,309.3438 226,309.5 Q226.6563,309.6563 227.2188,309.9531 L227.2188,312.6719 Q226.5938,312.0938 226,311.8281 Q225.4063,311.5469 224.7813,311.5469 Q223.4375,311.5469 222.75,312.625 Q222.0625,313.6875 222.0625,315.7813 Q222.0625,317.875 222.75,318.9531 Q223.4375,320.0156 224.7813,320.0156 Q225.4063,320.0156 226,319.75 Q226.5938,319.4688 227.2188,318.8906 L227.2188,321.6094 Z "/><text fill="#000000" font-family="sans-serif" font-size="12" font-style="italic" lengthAdjust="spacingAndGlyphs" textLength="50" x="244.25" y="313.1387">«Entity»</text><text fill="#000000" font-family="sans-serif" font-size="12" lengthAdjust="spacingAndGlyphs" textLength="49" x="244.75" y="327.1074">Product</text><line style="stroke: #000000; stroke-width: 1.5;" x1="31.5" x2="474.5" y1="334.9375" y2="334.9375"/><text fill="#000000" font-family="sans-serif" font-size="11" lengthAdjust="spacingAndGlyphs" textLength="202" x="36.5" y="349.1479">-productIdentifier : ProductIdentifier</text><text fill="#000000" font-family="sans-serif" font-size="11" lengthAdjust="spacingAndGlyphs" textLength="82" x="36.5" y="361.9526">-name : String</text><text fill="#000000" font-family="sans-serif" font-size="11" lengthAdjust="spacingAndGlyphs" textLength="139" x="36.5" y="374.7573">-price : MonetaryAmount</text><text fill="#000000" font-family="sans-serif" font-size="11" lengthAdjust="spacingAndGlyphs" textLength="147" x="36.5" y="387.562">-categories : Set&lt;String&gt;</text><text fill="#000000" font-family="sans-serif" font-size="11" lengthAdjust="spacingAndGlyphs" textLength="86" x="36.5" y="400.3667">-metric : Metric</text><line style="stroke: #000000; stroke-width: 1.0; stroke-dasharray: 1.0,2.0;" x1="31.5" x2="474.5" y1="406.9609" y2="406.9609"/><text fill="#000000" font-family="sans-serif" font-size="11" lengthAdjust="spacingAndGlyphs" textLength="401" x="36.5" y="421.1714">-distributorSpecificValues : Map&lt;Distributor, DistributorSpecificValue&gt;</text><text fill="#000000" font-family="sans-serif" font-size="11" lengthAdjust="spacingAndGlyphs" textLength="84" x="36.5" y="433.9761">-unit : Quantity</text><text fill="#000000" font-family="sans-serif" font-size="11" lengthAdjust="spacingAndGlyphs" textLength="135" x="36.5" y="446.7808">-inventoryAmount : long</text><text fill="#000000" font-family="sans-serif" font-size="11" lengthAdjust="spacingAndGlyphs" textLength="137" x="36.5" y="459.5854">-displayedAmount : long</text><line style="stroke: #000000; stroke-width: 1.5;" x1="31.5" x2="474.5" y1="466.1797" y2="466.1797"/><text fill="#000000" font-family="sans-serif" font-size="11" lengthAdjust="spacingAndGlyphs" textLength="197" x="36.5" y="480.3901">+Product(String, MonetaryAmount)</text><text fill="#000000" font-family="sans-serif" font-size="11" lengthAdjust="spacingAndGlyphs" textLength="239" x="36.5" y="493.1948">+Product(String, MonetaryAmount, Metric)</text><text fill="#000000" font-family="sans-serif" font-size="11" lengthAdjust="spacingAndGlyphs" textLength="150" x="36.5" y="505.9995">+getId() : ProductIdentifier</text><text fill="#000000" font-family="sans-serif" font-size="11" lengthAdjust="spacingAndGlyphs" textLength="227" x="36.5" y="518.8042">+getCategories() : Streamable&lt;String&gt;</text><text fill="#000000" font-family="sans-serif" font-size="11" lengthAdjust="spacingAndGlyphs" textLength="180" x="36.5" y="531.6089">+addCategory(String) : boolean</text><text fill="#000000" font-family="sans-serif" font-size="11" lengthAdjust="spacingAndGlyphs" textLength="202" x="36.5" y="544.4136">+removeCategory(String) : boolean</text><text fill="#000000" font-family="sans-serif" font-size="11" lengthAdjust="spacingAndGlyphs" textLength="172" x="36.5" y="557.2183">+supports(Quantity) : boolean</text><text fill="#000000" font-family="sans-serif" font-size="11" lengthAdjust="spacingAndGlyphs" textLength="130" x="36.5" y="570.0229">+verify(Quantity) : void</text><text fill="#000000" font-family="sans-serif" font-size="11" lengthAdjust="spacingAndGlyphs" textLength="197" x="36.5" y="582.8276">+createQuantity(double) : Quantity</text><text fill="#000000" font-family="sans-serif" font-size="11" lengthAdjust="spacingAndGlyphs" textLength="183" x="36.5" y="595.6323">+createQuantity(long) : Quantity</text><line style="stroke: #000000; stroke-width: 1.0; stroke-dasharray: 1.0,2.0;" x1="31.5" x2="474.5" y1="602.2266" y2="602.2266"/><text fill="#000000" font-family="sans-serif" font-size="11" lengthAdjust="spacingAndGlyphs" textLength="433" x="36.5" y="616.437">+getDistributorSpecificValues() : Map&lt;Distributor, DistributorSpecificValue&gt;</text><text fill="#000000" font-family="sans-serif" font-size="11" lengthAdjust="spacingAndGlyphs" textLength="91" x="36.5" y="629.2417">+getUnit() : Unit</text><text fill="#000000" font-family="sans-serif" font-size="11" lengthAdjust="spacingAndGlyphs" textLength="166" x="36.5" y="642.0464">+getInventoryAmount() : long</text><text fill="#000000" font-family="sans-serif" font-size="11" lengthAdjust="spacingAndGlyphs" textLength="169" x="36.5" y="654.8511">+getDisplayedAmount() : long</text><text fill="#000000" font-family="sans-serif" font-size="11" lengthAdjust="spacingAndGlyphs" textLength="365" x="36.5" y="667.6558">+addDistributorSpecificValue(DistributorSpecificValue) : boolean</text><text fill="#000000" font-family="sans-serif" font-size="11" lengthAdjust="spacingAndGlyphs" textLength="139" x="36.5" y="680.4604">+setUnit(Quantity) : void</text><text fill="#000000" font-family="sans-serif" font-size="11" lengthAdjust="spacingAndGlyphs" textLength="189" x="36.5" y="693.2651">+setInventoryAmount(long) : void</text><text fill="#000000" font-family="sans-serif" font-size="11" lengthAdjust="spacingAndGlyphs" textLength="192" x="36.5" y="706.0698">+setDisplayedAmount(long) : void</text><text fill="#000000" font-family="sans-serif" font-size="11" lengthAdjust="spacingAndGlyphs" textLength="193" x="36.5" y="718.8745">+setPrice(MonetaryAmount) : void</text><!--class bioladen.catalog.DistributorSpecificValue--><rect fill="url(#ggloafir6e89y0)" filter="url(#fgloafir6e89y)" height="79.5469" id="bioladen.catalog.DistributorSpecificValue" style="stroke: #000000; stroke-width: 1.5;" width="181" x="131.5" y="1418.5"/><ellipse cx="146.5" cy="1437.4688" fill="#ADD1B2" rx="11" ry="11" style="stroke: #000000; stroke-width: 1.0;"/><path d="M149.4688,1443.1094 Q148.8906,1443.4063 148.25,1443.5469 Q147.6094,1443.7031 146.9063,1443.7031 Q144.4063,1443.7031 143.0781,1442.0625 Q141.7656,1440.4063 141.7656,1437.2813 Q141.7656,1434.1563 143.0781,1432.5 Q144.4063,1430.8438 146.9063,1430.8438 Q147.6094,1430.8438 148.25,1431 Q148.9063,1431.1563 149.4688,1431.4531 L149.4688,1434.1719 Q148.8438,1433.5938 148.25,1433.3281 Q147.6563,1433.0469 147.0313,1433.0469 Q145.6875,1433.0469 145,1434.125 Q144.3125,1435.1875 144.3125,1437.2813 Q144.3125,1439.375 145,1440.4531 Q145.6875,1441.5156 147.0313,1441.5156 Q147.6563,1441.5156 148.25,1441.25 Q148.8438,1440.9688 149.4688,1440.3906 L149.4688,1443.1094 Z "/><text fill="#000000" font-family="sans-serif" font-size="12" font-style="italic" lengthAdjust="spacingAndGlyphs" textLength="50" x="210" y="1434.6387">«Entity»</text><text fill="#000000" font-family="sans-serif" font-size="12" lengthAdjust="spacingAndGlyphs" textLength="149" x="160.5" y="1448.6074">DistributorSpecificValue</text><line style="stroke: #000000; stroke-width: 1.5;" x1="132.5" x2="311.5" y1="1456.4375" y2="1456.4375"/><text fill="#000000" font-family="sans-serif" font-size="11" lengthAdjust="spacingAndGlyphs" textLength="139" x="137.5" y="1470.6479">-price : MonetaryAmount</text><text fill="#000000" font-family="sans-serif" font-size="11" lengthAdjust="spacingAndGlyphs" textLength="169" x="137.5" y="1483.4526">-minimumOrderAmount : long</text><line style="stroke: #000000; stroke-width: 1.5;" x1="132.5" x2="311.5" y1="1490.0469" y2="1490.0469"/><!--class CatalogController--><rect fill="url(#ggloafir6e89y0)" filter="url(#fgloafir6e89y)" height="48" id="CatalogController" style="stroke: #000000; stroke-width: 1.5;" width="141" x="526.5" y="853"/><ellipse cx="541.5" cy="869" fill="#ADD1B2" rx="11" ry="11" style="stroke: #000000; stroke-width: 1.0;"/><path d="M544.4688,874.6406 Q543.8906,874.9375 543.25,875.0781 Q542.6094,875.2344 541.9063,875.2344 Q539.4063,875.2344 538.0781,873.5938 Q536.7656,871.9375 536.7656,868.8125 Q536.7656,865.6875 538.0781,864.0313 Q539.4063,862.375 541.9063,862.375 Q542.6094,862.375 543.25,862.5313 Q543.9063,862.6875 544.4688,862.9844 L544.4688,865.7031 Q543.8438,865.125 543.25,864.8594 Q542.6563,864.5781 542.0313,864.5781 Q540.6875,864.5781 540,865.6563 Q539.3125,866.7188 539.3125,868.8125 Q539.3125,870.9063 540,871.9844 Q540.6875,873.0469 542.0313,873.0469 Q542.6563,873.0469 543.25,872.7813 Q543.8438,872.5 544.4688,871.9219 L544.4688,874.6406 Z "/><text fill="#000000" font-family="sans-serif" font-size="12" lengthAdjust="spacingAndGlyphs" textLength="109" x="555.5" y="873.1543">CatalogController</text><line style="stroke: #000000; stroke-width: 1.5;" x1="527.5" x2="666.5" y1="885" y2="885"/><line style="stroke: #000000; stroke-width: 1.5;" x1="527.5" x2="666.5" y1="893" y2="893"/><!--class bioladen.distributor.Distributor--><rect fill="url(#ggloafir6e89y0)" filter="url(#fgloafir6e89y)" height="99.2188" id="bioladen.distributor.Distributor" style="stroke: #000000; stroke-width: 1.5;" width="136" x="185" y="70"/><ellipse cx="217.1" cy="86" fill="#ADD1B2" rx="11" ry="11" style="stroke: #000000; stroke-width: 1.0;"/><path d="M220.0688,91.6406 Q219.4906,91.9375 218.85,92.0781 Q218.2094,92.2344 217.5063,92.2344 Q215.0063,92.2344 213.6781,90.5938 Q212.3656,88.9375 212.3656,85.8125 Q212.3656,82.6875 213.6781,81.0313 Q215.0063,79.375 217.5063,79.375 Q218.2094,79.375 218.85,79.5313 Q219.5063,79.6875 220.0688,79.9844 L220.0688,82.7031 Q219.4438,82.125 218.85,81.8594 Q218.2563,81.5781 217.6313,81.5781 Q216.2875,81.5781 215.6,82.6563 Q214.9125,83.7188 214.9125,85.8125 Q214.9125,87.9063 215.6,88.9844 Q216.2875,90.0469 217.6313,90.0469 Q218.2563,90.0469 218.85,89.7813 Q219.4438,89.5 220.0688,88.9219 L220.0688,91.6406 Z "/><text fill="#000000" font-family="sans-serif" font-size="12" lengthAdjust="spacingAndGlyphs" textLength="66" x="234.9" y="90.1543">Distributor</text><line style="stroke: #000000; stroke-width: 1.5;" x1="186" x2="320" y1="102" y2="102"/><text fill="#000000" font-family="sans-serif" font-size="11" lengthAdjust="spacingAndGlyphs" textLength="82" x="191" y="116.2104">-name : String</text><text fill="#000000" font-family="sans-serif" font-size="11" lengthAdjust="spacingAndGlyphs" textLength="81" x="191" y="129.0151">-email : String</text><text fill="#000000" font-family="sans-serif" font-size="11" lengthAdjust="spacingAndGlyphs" textLength="124" x="191" y="141.8198">-contactName : String</text><text fill="#000000" font-family="sans-serif" font-size="11" lengthAdjust="spacingAndGlyphs" textLength="98" x="191" y="154.6245">-phoneNr : String</text><line style="stroke: #000000; stroke-width: 1.5;" x1="186" x2="320" y1="161.2188" y2="161.2188"/><!--link org.salespointframework.catalog.Product to bioladen.catalog.Product--><path d="M1340.2454,1007 C1340.2454,1007 399,1007 399,1007 C399,1007 399,859.4538 399,725.3077 " fill="none" id="org.salespointframework.catalog.Product-bioladen.catalog.Product" style="stroke: #000000; stroke-width: 1.0;"/><polygon fill="none" points="1340.2454,999.9999,1360.2454,1007,1340.2453,1013.9999,1340.2454,999.9999" style="stroke: #000000; stroke-width: 1.0;"/><!--link bioladen.catalog.Product to bioladen.catalog.ProductCatalog--><path d="M373.5,725.1146 C373.5,725.1146 373.5,1418.2557 373.5,1418.2557 " fill="none" id="bioladen.catalog.Product-bioladen.catalog.ProductCatalog" style="stroke: #000000; stroke-width: 1.0;"/><polygon fill="#000000" points="373.5,1431.2557,377.5,1425.2557,373.5,1419.2557,369.5,1425.2557,373.5,1431.2557" style="stroke: #000000; stroke-width: 1.0;"/><!--link CatalogController to bioladen.catalog.ProductCatalog--><path d="M526.3399,877 C478.7017,877 424.5,877 424.5,877 C424.5,877 424.5,1426.233 424.5,1426.233 " fill="none" id="CatalogController-bioladen.catalog.ProductCatalog" style="stroke: #000000; stroke-width: 1.0;"/><polygon fill="#000000" points="424.5,1431.233,428.5,1422.233,424.5,1426.233,420.5,1422.233,424.5,1431.233" style="stroke: #000000; stroke-width: 1.0;"/><!--link CatalogController to BusinessTime--><path d="M667.7602,877 C713.6734,877 765,877 765,877 C765,877 765,1084.9355 765,1084.9355 " fill="none" id="CatalogController-BusinessTime" style="stroke: #000000; stroke-width: 1.0;"/><polygon fill="#000000" points="765,1089.9355,769,1080.9355,765,1084.9355,761,1080.9355,765,1089.9355" style="stroke: #000000; stroke-width: 1.0;"/><!--link CatalogController to Inventory--><path d="M597,901.0059 C597,949.5923 597,1055 597,1055 C597,1055 965.2472,1055 965.2472,1055 " fill="none" id="CatalogController-Inventory" style="stroke: #000000; stroke-width: 1.0;"/><polygon fill="#000000" points="970.2472,1055,961.2472,1051,965.2472,1055,961.2472,1059,970.2472,1055" style="stroke: #000000; stroke-width: 1.0;"/><!--link org.salespointframework.catalog.Catalog to org.springframework.data.repository.CrudRepository--><path d="M1796.5,1144.122 C1796.5,1225.0123 1796.5,1459 1796.5,1459 C1796.5,1459 1530.6844,1459 1530.6844,1459 " fill="none" id="org.salespointframework.catalog.Catalog-org.springframework.data.repository.CrudRepository" style="stroke: #000000; stroke-width: 1.0;"/><polygon fill="none" points="1530.6845,1465.9999,1510.6844,1459,1530.6844,1451.9999,1530.6845,1465.9999" style="stroke: #000000; stroke-width: 1.0;"/><text fill="#000000" font-family="sans-serif" font-size="13" lengthAdjust="spacingAndGlyphs" textLength="50" x="1707.5" y="1283.0669">«binds»</text><text fill="#000000" font-family="sans-serif" font-size="13" lengthAdjust="spacingAndGlyphs" textLength="141" x="1662" y="1298.1997">&lt;T, ProductIdentifier&gt;</text><!--link Inventory to org.springframework.data.repository.CrudRepository--><path d="M1263.5,1214.8602 C1263.5,1214.8602 1263.5,1343.863 1263.5,1343.863 " fill="none" id="Inventory-org.springframework.data.repository.CrudRepository" style="stroke: #000000; stroke-width: 1.0;"/><polygon fill="none" points="1270.5001,1343.863,1263.5,1363.863,1256.5001,1343.863,1270.5001,1343.863" style="stroke: #000000; stroke-width: 1.0;"/><text fill="#000000" font-family="sans-serif" font-size="13" lengthAdjust="spacingAndGlyphs" textLength="50" x="1311" y="1283.0669">«binds»</text><text fill="#000000" font-family="sans-serif" font-size="13" lengthAdjust="spacingAndGlyphs" textLength="180" x="1246" y="1298.1997">&lt;T, InventoryItemIdentifier&gt;</text><!--link bioladen.catalog.Product to bioladen.catalog.DistributorSpecificValue--><path d="M222,725.1146 C222,725.1146 222,1413.1788 222,1413.1788 " fill="none" id="bioladen.catalog.Product-bioladen.catalog.DistributorSpecificValue" style="stroke: #000000; stroke-width: 1.0;"/><polygon fill="#000000" points="222,1418.1788,226,1409.1788,222,1413.1788,218,1409.1788,222,1418.1788" style="stroke: #000000; stroke-width: 1.0;"/><!--link org.salespointframework.catalog.Catalog to bioladen.catalog.ProductCatalog--><path d="M1721.5,1164.2974 C1721.5,1164.2974 1721.5,1302 1721.5,1302 C1721.5,1302 450,1302 450,1302 C450,1302 450,1386.4015 450,1431.2398 " fill="none" id="org.salespointframework.catalog.Catalog-bioladen.catalog.ProductCatalog" style="stroke: #000000; stroke-width: 1.0;"/><polygon fill="none" points="1714.5001,1164.2974,1721.5,1144.2974,1728.5001,1164.2974,1714.5001,1164.2974" style="stroke: #000000; stroke-width: 1.0;"/><text fill="#000000" font-family="sans-serif" font-size="13" lengthAdjust="spacingAndGlyphs" textLength="50" x="802.5" y="1283.0669">«binds»</text><text fill="#000000" font-family="sans-serif" font-size="13" lengthAdjust="spacingAndGlyphs" textLength="71" x="792" y="1298.1997">&lt;Product&gt;</text><!--link bioladen.distributor.Distributor to bioladen.catalog.Product--><path d="M253,182.0837 C253,182.0837 253,296.842 253,296.842 " fill="none" id="bioladen.distributor.Distributor-bioladen.catalog.Product" style="stroke: #000000; stroke-width: 1.0;"/><polygon fill="#000000" points="253,169.0837,249,175.0837,253,181.0837,257,175.0837,253,169.0837" style="stroke: #000000; stroke-width: 1.0;"/><!--
@startuml

skinparam class {
	BackgroundColor #LightCoral/LightPink
    BorderColor Black
    ArrowColor  Black
}

skinparam package {
    FontColor Grey
    BorderColor DarkMagenta
}

skinparam classAttributeIconSize 0
skinparam linetype ortho



rectangle salespoint-framework-7.0.0.RELEASE.jar {

    namespace org.salespointframework.catalog {
        interface Catalog <T extends Product> <<Repository>> {

        }

        class Product <<Entity>> {
            -productIdentifier : ProductIdentifier
            -name : String
            -price : MonetaryAmount
            -categories : Set<String>
            -metric : Metric

            +Product(String, MonetaryAmount)
            +Product(String, MonetaryAmount, Metric)
            +getId() : ProductIdentifier
            +getCategories() : Streamable<String>
            +addCategory(String) : boolean
            +removeCategory(String) : boolean
            +supports(Quantity) : boolean
            +verify(Quantity) : void
            +createQuantity(double) : Quantity
            +createQuantity(long) : Quantity
        }

    }

    package org.salespointframework.time {
        interface BusinessTime <<Service>> {

        }
    }

    package org.salespointframework.inventory {
        interface Inventory <T extends InventoryItem> <<Repository>> {
            <S extends T> +save(S) : S
            <S extends T> +saveAll(Iterable<S​>) : Iterable<S>
            +findById(InventoryItemIdentifier) : Optional<T>
            +existsById(InventoryItemIdentifier) : boolean
            +findAll() : Iterable<T>
            +findAllById(Iterable<InventoryItemIdentifier>) : Iterable<T>
            +count() : long
            +deleteById(InventoryItemIdentifier) : void
            +delete(T) : void
            +deleteAll(Iterable<? extends T>) : void
            +deleteAll() : void
        }

    }
}


rectangle spring-data-comments-2.1.0.RELEASE.jar as spring {

    namespace org.springframework.data.repository {
        interface CrudRepository <T, ID>{
            <S extends T> +save(S) : S
            <S extends T> +saveAll(Iterable<S​>) : Iterable<S>
            +findById(ID) : Optional<T>
            +existsById(ID) : boolean
            +findAll() : Iterable<T>
            +findAllById(Iterable<ID>) : Iterable<T>
            +count() : long
            +deleteById(ID) : void
            +delete(T) : void
            +deleteAll(Iterable<? extends T>) : void
            +deleteAll() : void
        }
    }
}

rectangle Bioladen {

    namespace bioladen.catalog {

        interface ProductCatalog <<Repository>> {

        }

        class Product <<Entity>> extends org.salespointframework.catalog.Product {
            -productIdentifier : ProductIdentifier
            -name : String
            -price : MonetaryAmount
            -categories : Set<String>
            -metric : Metric
            ..
            -distributorSpecificValues : Map<Distributor, DistributorSpecificValue>
            -unit : Quantity
            -inventoryAmount : long
            -displayedAmount : long
            __
            +Product(String, MonetaryAmount)
            +Product(String, MonetaryAmount, Metric)
            +getId() : ProductIdentifier
            +getCategories() : Streamable<String>
            +addCategory(String) : boolean
            +removeCategory(String) : boolean
            +supports(Quantity) : boolean
            +verify(Quantity) : void
            +createQuantity(double) : Quantity
            +createQuantity(long) : Quantity
            ..
            +getDistributorSpecificValues() : Map<Distributor, DistributorSpecificValue>
            +getUnit() : Unit
            +getInventoryAmount() : long
            +getDisplayedAmount() : long
            +addDistributorSpecificValue(DistributorSpecificValue) : boolean
            +setUnit(Quantity) : void
            +setInventoryAmount(long) : void
            +setDisplayedAmount(long) : void
            +setPrice(MonetaryAmount) : void
        }

        class DistributorSpecificValue <<Entity>>{
            -price : MonetaryAmount
            -minimumOrderAmount : long
        }



        Product - -* ProductCatalog


    }

    package bioladen.catalog.web {
        class CatalogController {

        }
    }

    namespace bioladen.distributor {
        class Distributor {
            -name : String
            -email : String
            -contactName : String
            -phoneNr : String
        }
    }

}

CatalogController - -> bioladen.catalog.ProductCatalog
CatalogController - -> BusinessTime
CatalogController - -> Inventory
org.salespointframework.catalog.Catalog - -|> org.springframework.data.repository.CrudRepository: <<binds>>\n<T, ProductIdentifier>
Inventory - -|> org.springframework.data.repository.CrudRepository: <<binds>>\n<T, InventoryItemIdentifier>
bioladen.catalog.Product - -> bioladen.catalog.DistributorSpecificValue
org.salespointframework.catalog.Catalog <|- - bioladen.catalog.ProductCatalog: <<binds>>\n<Product>
bioladen.distributor.Distributor *- - bioladen.catalog.Product

@enduml

PlantUML version 1.2018.12(Sun Oct 21 12:15:15 CEST 2018)
(GPL source distribution)
Java Runtime: OpenJDK Runtime Environment
JVM: OpenJDK 64-Bit Server VM
Java Version: 11.0.1+13-Debian-2
Operating System: Linux
OS Version: 4.18.0-parrot10-amd64
Default Encoding: UTF-8
Language: en
Country: US
--></g></svg>