<?xml version="1.0" encoding="UTF-8" standalone="no"?><svg xmlns="http://www.w3.org/2000/svg" xmlns:xlink="http://www.w3.org/1999/xlink" contentScriptType="application/ecmascript" contentStyleType="text/css" height="1494px" preserveAspectRatio="none" style="width:1718px;height:1494px;" version="1.1" viewBox="0 0 1718 1494" width="1718px" zoomAndPan="magnify"><defs><filter height="300%" id="f14defdnqde7jh" width="300%" x="-1" y="-1"><feGaussianBlur result="blurOut" stdDeviation="2.0"/><feColorMatrix in="blurOut" result="blurOut2" type="matrix" values="0 0 0 0 0 0 0 0 0 0 0 0 0 0 0 0 0 0 .4 0"/><feOffset dx="4.0" dy="4.0" in="blurOut2" result="blurOut3"/><feBlend in="SourceGraphic" in2="blurOut3" mode="normal"/></filter><linearGradient id="g14defdnqde7jh0" x1="0%" x2="100%" y1="0%" y2="100%"><stop offset="0%" stop-color="#F08080"/><stop offset="100%" stop-color="#FFB6C1"/></linearGradient></defs><g><!--cluster salespoint-framework-7.0.0.RELEASE.jar--><rect fill="#FFFFFF" filter="url(#f14defdnqde7jh)" height="1047" style="stroke: #8B008B; stroke-width: 1.5;" width="1342" x="14" y="436"/><text fill="#808080" font-family="sans-serif" font-size="14" font-weight="bold" lengthAdjust="spacingAndGlyphs" textLength="316" x="527" y="450.9951">salespoint-framework-7.0.0.RELEASE.jar</text><!--cluster org.salespointframework.useraccount--><polygon fill="#FFFFFF" filter="url(#f14defdnqde7jh)" points="22,463,331,463,338,485.2969,798,485.2969,798,1475,22,1475,22,463" style="stroke: #8B008B; stroke-width: 1.5;"/><line style="stroke: #8B008B; stroke-width: 1.5;" x1="22" x2="338" y1="485.2969" y2="485.2969"/><text fill="#808080" font-family="sans-serif" font-size="14" font-weight="bold" lengthAdjust="spacingAndGlyphs" textLength="303" x="26" y="477.9951">org.salespointframework.useraccount</text><!--cluster org.salespointframework.context--><polygon fill="#FFFFFF" filter="url(#f14defdnqde7jh)" points="1068,549,1338,549,1345,571.2969,1348,571.2969,1348,632,1068,632,1068,549" style="stroke: #8B008B; stroke-width: 1.5;"/><line style="stroke: #8B008B; stroke-width: 1.5;" x1="1068" x2="1345" y1="571.2969" y2="571.2969"/><text fill="#808080" font-family="sans-serif" font-size="14" font-weight="bold" lengthAdjust="spacingAndGlyphs" textLength="264" x="1072" y="563.9951">org.salespointframework.context</text><!--cluster org.salespointframework.time--><polygon fill="#FFFFFF" filter="url(#f14defdnqde7jh)" points="806,546,1050,546,1057,568.2969,1060,568.2969,1060,635,806,635,806,546" style="stroke: #8B008B; stroke-width: 1.5;"/><line style="stroke: #8B008B; stroke-width: 1.5;" x1="806" x2="1057" y1="568.2969" y2="568.2969"/><text fill="#808080" font-family="sans-serif" font-size="14" font-weight="bold" lengthAdjust="spacingAndGlyphs" textLength="238" x="810" y="560.9951">org.salespointframework.time</text><!--cluster Bioladen--><rect fill="#FFFFFF" filter="url(#f14defdnqde7jh)" height="351" style="stroke: #8B008B; stroke-width: 1.5;" width="526" x="806" y="16"/><text fill="#808080" font-family="sans-serif" font-size="14" font-weight="bold" lengthAdjust="spacingAndGlyphs" textLength="67" x="1035.5" y="30.9951">Bioladen</text><!--cluster bioladen.user--><polygon fill="#FFFFFF" filter="url(#f14defdnqde7jh)" points="814,219,928,219,935,241.2969,1324,241.2969,1324,359,814,359,814,219" style="stroke: #8B008B; stroke-width: 1.5;"/><line style="stroke: #8B008B; stroke-width: 1.5;" x1="814" x2="935" y1="241.2969" y2="241.2969"/><text fill="#808080" font-family="sans-serif" font-size="14" font-weight="bold" lengthAdjust="spacingAndGlyphs" textLength="108" x="818" y="233.9951">bioladen.user</text><!--cluster bioladen.event--><polygon fill="#FFFFFF" filter="url(#f14defdnqde7jh)" points="1138,43,1261,43,1268,65.2969,1306,65.2969,1306,126,1138,126,1138,43" style="stroke: #8B008B; stroke-width: 1.5;"/><line style="stroke: #8B008B; stroke-width: 1.5;" x1="1138" x2="1268" y1="65.2969" y2="65.2969"/><text fill="#808080" font-family="sans-serif" font-size="14" font-weight="bold" lengthAdjust="spacingAndGlyphs" textLength="117" x="1142" y="57.9951">bioladen.event</text><!--cluster spring--><rect fill="#FFFFFF" filter="url(#f14defdnqde7jh)" height="259" style="stroke: #8B008B; stroke-width: 1.5;" width="340" x="1364" y="780"/><text fill="#808080" font-family="sans-serif" font-size="14" font-weight="bold" lengthAdjust="spacingAndGlyphs" textLength="321" x="1373.5" y="794.9951">spring-data-comments-2.1.0.RELEASE.jar</text><!--cluster org.springframework.data.repository--><polygon fill="#FFFFFF" filter="url(#f14defdnqde7jh)" points="1372,807,1672,807,1679,829.2969,1696,829.2969,1696,1031,1372,1031,1372,807" style="stroke: #8B008B; stroke-width: 1.5;"/><line style="stroke: #8B008B; stroke-width: 1.5;" x1="1372" x2="1679" y1="829.2969" y2="829.2969"/><text fill="#808080" font-family="sans-serif" font-size="14" font-weight="bold" lengthAdjust="spacingAndGlyphs" textLength="294" x="1376" y="821.9951">org.springframework.data.repository</text><!--class org.salespointframework.useraccount.UserAccount--><rect fill="url(#g14defdnqde7jh0)" filter="url(#f14defdnqde7jh)" height="258.8125" id="org.salespointframework.useraccount.UserAccount" style="stroke: #000000; stroke-width: 1.5;" width="494" x="163" y="1208"/><ellipse cx="365.75" cy="1226.9688" fill="#ADD1B2" rx="11" ry="11" style="stroke: #000000; stroke-width: 1.0;"/><path d="M368.7188,1232.6094 Q368.1406,1232.9063 367.5,1233.0469 Q366.8594,1233.2031 366.1563,1233.2031 Q363.6563,1233.2031 362.3281,1231.5625 Q361.0156,1229.9063 361.0156,1226.7813 Q361.0156,1223.6563 362.3281,1222 Q363.6563,1220.3438 366.1563,1220.3438 Q366.8594,1220.3438 367.5,1220.5 Q368.1563,1220.6563 368.7188,1220.9531 L368.7188,1223.6719 Q368.0938,1223.0938 367.5,1222.8281 Q366.9063,1222.5469 366.2813,1222.5469 Q364.9375,1222.5469 364.25,1223.625 Q363.5625,1224.6875 363.5625,1226.7813 Q363.5625,1228.875 364.25,1229.9531 Q364.9375,1231.0156 366.2813,1231.0156 Q366.9063,1231.0156 367.5,1230.75 Q368.0938,1230.4688 368.7188,1229.8906 L368.7188,1232.6094 Z "/><text fill="#000000" font-family="sans-serif" font-size="12" font-style="italic" lengthAdjust="spacingAndGlyphs" textLength="50" x="401.25" y="1224.1387">«Entity»</text><text fill="#000000" font-family="sans-serif" font-size="12" lengthAdjust="spacingAndGlyphs" textLength="80" x="386.25" y="1238.1074">UserAccount</text><line style="stroke: #000000; stroke-width: 1.5;" x1="164" x2="656" y1="1245.9375" y2="1245.9375"/><text fill="#000000" font-family="sans-serif" font-size="11" lengthAdjust="spacingAndGlyphs" textLength="257" x="169" y="1260.1479">-userAccountIdentifier : UserAccountIdentifier</text><text fill="#000000" font-family="sans-serif" font-size="11" lengthAdjust="spacingAndGlyphs" textLength="128" x="169" y="1272.9526">-password : Password</text><text fill="#000000" font-family="sans-serif" font-size="11" lengthAdjust="spacingAndGlyphs" textLength="105" x="169" y="1285.7573">-firstname : String</text><text fill="#000000" font-family="sans-serif" font-size="11" lengthAdjust="spacingAndGlyphs" textLength="103" x="169" y="1298.562">-lastname : String</text><text fill="#000000" font-family="sans-serif" font-size="11" lengthAdjust="spacingAndGlyphs" textLength="81" x="169" y="1311.3667">-email : String</text><text fill="#000000" font-family="sans-serif" font-size="11" lengthAdjust="spacingAndGlyphs" textLength="106" x="169" y="1324.1714">-roles : Set&lt;Role&gt;</text><text fill="#000000" font-family="sans-serif" font-size="11" lengthAdjust="spacingAndGlyphs" textLength="99" x="169" y="1336.9761">-enable : boolean</text><line style="stroke: #000000; stroke-width: 1.5;" x1="164" x2="656" y1="1343.5703" y2="1343.5703"/><text fill="#000000" font-family="sans-serif" font-size="11" lengthAdjust="spacingAndGlyphs" textLength="88" x="169" y="1357.7808">+UserAccount()</text><text fill="#000000" font-family="sans-serif" font-size="11" lengthAdjust="spacingAndGlyphs" textLength="295" x="169" y="1370.5854">+UserAccount(UserAccountIdentifier, String, Role...)</text><text fill="#000000" font-family="sans-serif" font-size="11" lengthAdjust="spacingAndGlyphs" textLength="482" x="169" y="1383.3901">+UserAccount(UserAccountIdentifier, String, String, String, String, Collection&lt;Role&gt;)</text><text fill="#000000" font-family="sans-serif" font-size="11" lengthAdjust="spacingAndGlyphs" textLength="179" x="169" y="1396.1948">+getID() : UserAccountIdentifier</text><text fill="#000000" font-family="sans-serif" font-size="11" lengthAdjust="spacingAndGlyphs" textLength="141" x="169" y="1408.9995">+getUserName() : String</text><text fill="#000000" font-family="sans-serif" font-size="11" lengthAdjust="spacingAndGlyphs" textLength="119" x="169" y="1421.8042">+add(Role) : boolean</text><text fill="#000000" font-family="sans-serif" font-size="11" lengthAdjust="spacingAndGlyphs" textLength="141" x="169" y="1434.6089">+remove(Role) : boolean</text><text fill="#000000" font-family="sans-serif" font-size="11" lengthAdjust="spacingAndGlyphs" textLength="119" x="169" y="1447.4136">+hasRole() : boolean</text><text fill="#000000" font-family="sans-serif" font-size="11" lengthAdjust="spacingAndGlyphs" textLength="186" x="169" y="1460.2183">+getRoles() : Streamable&lt;Role&gt;</text><!--class org.salespointframework.useraccount.Role--><rect fill="url(#g14defdnqde7jh0)" filter="url(#f14defdnqde7jh)" height="79.5469" id="org.salespointframework.useraccount.Role" style="stroke: #000000; stroke-width: 1.5;" width="110" x="680" y="560"/><ellipse cx="708.05" cy="578.9688" fill="#ADD1B2" rx="11" ry="11" style="stroke: #000000; stroke-width: 1.0;"/><path d="M711.0188,584.6094 Q710.4406,584.9063 709.8,585.0469 Q709.1594,585.2031 708.4563,585.2031 Q705.9563,585.2031 704.6281,583.5625 Q703.3156,581.9063 703.3156,578.7813 Q703.3156,575.6563 704.6281,574 Q705.9563,572.3438 708.4563,572.3438 Q709.1594,572.3438 709.8,572.5 Q710.4563,572.6563 711.0188,572.9531 L711.0188,575.6719 Q710.3938,575.0938 709.8,574.8281 Q709.2063,574.5469 708.5813,574.5469 Q707.2375,574.5469 706.55,575.625 Q705.8625,576.6875 705.8625,578.7813 Q705.8625,580.875 706.55,581.9531 Q707.2375,583.0156 708.5813,583.0156 Q709.2063,583.0156 709.8,582.75 Q710.3938,582.4688 711.0188,581.8906 L711.0188,584.6094 Z "/><text fill="#000000" font-family="sans-serif" font-size="12" font-style="italic" lengthAdjust="spacingAndGlyphs" textLength="53" x="722.95" y="576.1387">«Object»</text><text fill="#000000" font-family="sans-serif" font-size="12" lengthAdjust="spacingAndGlyphs" textLength="27" x="735.95" y="590.1074">Role</text><line style="stroke: #000000; stroke-width: 1.5;" x1="681" x2="789" y1="597.9375" y2="597.9375"/><text fill="#000000" font-family="sans-serif" font-size="11" lengthAdjust="spacingAndGlyphs" textLength="82" x="686" y="612.1479">-name : String</text><line style="stroke: #000000; stroke-width: 1.5;" x1="681" x2="789" y1="618.7422" y2="618.7422"/><text fill="#000000" font-family="sans-serif" font-size="11" lengthAdjust="spacingAndGlyphs" text-decoration="underline" textLength="98" x="686" y="632.9526">+of(String) : Role</text><line style="stroke: #000000; stroke-width: 1.0;" x1="686" x2="784" y1="634.9526" y2="634.9526"/><!--class org.salespointframework.useraccount.UserAccountRepository--><rect fill="url(#g14defdnqde7jh0)" filter="url(#f14defdnqde7jh)" height="220.3984" id="org.salespointframework.useraccount.UserAccountRepository" style="stroke: #000000; stroke-width: 1.5;" width="413" x="30.5" y="490"/><ellipse cx="160.25" cy="508.9688" fill="#B4A7E5" rx="11" ry="11" style="stroke: #000000; stroke-width: 1.0;"/><path d="M156.1719,504.7344 L156.1719,502.5781 L163.5625,502.5781 L163.5625,504.7344 L161.0938,504.7344 L161.0938,512.8125 L163.5625,512.8125 L163.5625,514.9688 L156.1719,514.9688 L156.1719,512.8125 L158.6406,512.8125 L158.6406,504.7344 L156.1719,504.7344 Z "/><text fill="#000000" font-family="sans-serif" font-size="12" font-style="italic" lengthAdjust="spacingAndGlyphs" textLength="80" x="213.25" y="506.1387">«Repository»</text><text fill="#000000" font-family="sans-serif" font-size="12" font-style="italic" lengthAdjust="spacingAndGlyphs" textLength="145" x="180.75" y="520.1074">UserAccountRepository</text><line style="stroke: #000000; stroke-width: 1.5;" x1="31.5" x2="442.5" y1="527.9375" y2="527.9375"/><line style="stroke: #000000; stroke-width: 1.5;" x1="31.5" x2="442.5" y1="535.9375" y2="535.9375"/><text fill="#000000" font-family="sans-serif" font-size="11" lengthAdjust="spacingAndGlyphs" textLength="198" x="36.5" y="550.1479">+save(UserAccount) : UserAccount</text><text fill="#000000" font-family="sans-serif" font-size="11" lengthAdjust="spacingAndGlyphs" textLength="333" x="36.5" y="562.9526">+saveAll(Iterable&lt;UserAccount&gt;) : Iterable&lt;UserAccount&gt;</text><text fill="#000000" font-family="sans-serif" font-size="11" lengthAdjust="spacingAndGlyphs" textLength="331" x="36.5" y="575.7573">+findById(UserAccountIdentifier) : Optional&lt;UserAccount&gt;</text><text fill="#000000" font-family="sans-serif" font-size="11" lengthAdjust="spacingAndGlyphs" textLength="253" x="36.5" y="588.562">+existsById(UserAccountIdentifier) : boolean</text><text fill="#000000" font-family="sans-serif" font-size="11" lengthAdjust="spacingAndGlyphs" textLength="195" x="36.5" y="601.3667">+findAll() : Iterable&lt;UserAccount&gt;</text><text fill="#000000" font-family="sans-serif" font-size="11" lengthAdjust="spacingAndGlyphs" textLength="401" x="36.5" y="614.1714">+findAllById(Iterable&lt;UserAccountIdentifier&gt;) : Iterable&lt;UserAccount&gt;</text><text fill="#000000" font-family="sans-serif" font-size="11" lengthAdjust="spacingAndGlyphs" textLength="84" x="36.5" y="626.9761">+count() : long</text><text fill="#000000" font-family="sans-serif" font-size="11" lengthAdjust="spacingAndGlyphs" textLength="232" x="36.5" y="639.7808">+deleteById(UserAccountIdentifier) : void</text><text fill="#000000" font-family="sans-serif" font-size="11" lengthAdjust="spacingAndGlyphs" textLength="158" x="36.5" y="652.5854">+delete(UserAccount) : void</text><text fill="#000000" font-family="sans-serif" font-size="11" lengthAdjust="spacingAndGlyphs" textLength="232" x="36.5" y="665.3901">+deleteAll(Iterable&lt;UserAccount&gt;) : void</text><text fill="#000000" font-family="sans-serif" font-size="11" lengthAdjust="spacingAndGlyphs" textLength="100" x="36.5" y="678.1948">+deleteAll() : void</text><text fill="#000000" font-family="sans-serif" font-size="11" lengthAdjust="spacingAndGlyphs" textLength="290" x="36.5" y="690.9995">+findByEnabledTrue() : Streamable&lt;UserAccount&gt;</text><text fill="#000000" font-family="sans-serif" font-size="11" lengthAdjust="spacingAndGlyphs" textLength="294" x="36.5" y="703.8042">+findByEnabledFalse() : Streamable&lt;UserAccount&gt;</text><!--class org.salespointframework.useraccount.UserAccountManager--><rect fill="url(#g14defdnqde7jh0)" filter="url(#f14defdnqde7jh)" height="53.9375" id="org.salespointframework.useraccount.UserAccountManager" style="stroke: #000000; stroke-width: 1.5;" width="166" x="479" y="573"/><ellipse cx="494" cy="591.9688" fill="#B4A7E5" rx="11" ry="11" style="stroke: #000000; stroke-width: 1.0;"/><path d="M489.9219,587.7344 L489.9219,585.5781 L497.3125,585.5781 L497.3125,587.7344 L494.8438,587.7344 L494.8438,595.8125 L497.3125,595.8125 L497.3125,597.9688 L489.9219,597.9688 L489.9219,595.8125 L492.3906,595.8125 L492.3906,587.7344 L489.9219,587.7344 Z "/><text fill="#000000" font-family="sans-serif" font-size="12" font-style="italic" lengthAdjust="spacingAndGlyphs" textLength="59" x="545.5" y="589.1387">«Service»</text><text fill="#000000" font-family="sans-serif" font-size="12" font-style="italic" lengthAdjust="spacingAndGlyphs" textLength="134" x="508" y="603.1074">UserAccountManager</text><line style="stroke: #000000; stroke-width: 1.5;" x1="480" x2="644" y1="610.9375" y2="610.9375"/><line style="stroke: #000000; stroke-width: 1.5;" x1="480" x2="644" y1="618.9375" y2="618.9375"/><!--class org.salespointframework.context.ApplicationEvent--><rect fill="url(#g14defdnqde7jh0)" filter="url(#f14defdnqde7jh)" height="48" id="org.salespointframework.context.ApplicationEvent" style="stroke: #000000; stroke-width: 1.5;" width="136" x="1204" y="576"/><ellipse cx="1219" cy="592" fill="#ADD1B2" rx="11" ry="11" style="stroke: #000000; stroke-width: 1.0;"/><path d="M1221.9688,597.6406 Q1221.3906,597.9375 1220.75,598.0781 Q1220.1094,598.2344 1219.4063,598.2344 Q1216.9063,598.2344 1215.5781,596.5938 Q1214.2656,594.9375 1214.2656,591.8125 Q1214.2656,588.6875 1215.5781,587.0313 Q1216.9063,585.375 1219.4063,585.375 Q1220.1094,585.375 1220.75,585.5313 Q1221.4063,585.6875 1221.9688,585.9844 L1221.9688,588.7031 Q1221.3438,588.125 1220.75,587.8594 Q1220.1563,587.5781 1219.5313,587.5781 Q1218.1875,587.5781 1217.5,588.6563 Q1216.8125,589.7188 1216.8125,591.8125 Q1216.8125,593.9063 1217.5,594.9844 Q1218.1875,596.0469 1219.5313,596.0469 Q1220.1563,596.0469 1220.75,595.7813 Q1221.3438,595.5 1221.9688,594.9219 L1221.9688,597.6406 Z "/><text fill="#000000" font-family="sans-serif" font-size="12" lengthAdjust="spacingAndGlyphs" textLength="104" x="1233" y="596.1543">ApplicationEvent</text><line style="stroke: #000000; stroke-width: 1.5;" x1="1205" x2="1339" y1="608" y2="608"/><line style="stroke: #000000; stroke-width: 1.5;" x1="1205" x2="1339" y1="616" y2="616"/><!--class BusinessTime--><rect fill="url(#g14defdnqde7jh0)" filter="url(#f14defdnqde7jh)" height="53.9375" id="BusinessTime" style="stroke: #000000; stroke-width: 1.5;" width="114" x="881" y="573"/><ellipse cx="896" cy="591.9688" fill="#B4A7E5" rx="11" ry="11" style="stroke: #000000; stroke-width: 1.0;"/><path d="M891.9219,587.7344 L891.9219,585.5781 L899.3125,585.5781 L899.3125,587.7344 L896.8438,587.7344 L896.8438,595.8125 L899.3125,595.8125 L899.3125,597.9688 L891.9219,597.9688 L891.9219,595.8125 L894.3906,595.8125 L894.3906,587.7344 L891.9219,587.7344 Z "/><text fill="#000000" font-family="sans-serif" font-size="12" font-style="italic" lengthAdjust="spacingAndGlyphs" textLength="59" x="921.5" y="589.1387">«Service»</text><text fill="#000000" font-family="sans-serif" font-size="12" font-style="italic" lengthAdjust="spacingAndGlyphs" textLength="82" x="910" y="603.1074">BusinessTime</text><line style="stroke: #000000; stroke-width: 1.5;" x1="882" x2="994" y1="610.9375" y2="610.9375"/><line style="stroke: #000000; stroke-width: 1.5;" x1="882" x2="994" y1="618.9375" y2="618.9375"/><!--class bioladen.user.UserManagement--><rect fill="url(#g14defdnqde7jh0)" filter="url(#f14defdnqde7jh)" height="105.1563" id="bioladen.user.UserManagement" style="stroke: #000000; stroke-width: 1.5;" width="233" x="821.5" y="246"/><ellipse cx="878.25" cy="264.9688" fill="#ADD1B2" rx="11" ry="11" style="stroke: #000000; stroke-width: 1.0;"/><path d="M881.2188,270.6094 Q880.6406,270.9063 880,271.0469 Q879.3594,271.2031 878.6563,271.2031 Q876.1563,271.2031 874.8281,269.5625 Q873.5156,267.9063 873.5156,264.7813 Q873.5156,261.6563 874.8281,260 Q876.1563,258.3438 878.6563,258.3438 Q879.3594,258.3438 880,258.5 Q880.6563,258.6563 881.2188,258.9531 L881.2188,261.6719 Q880.5938,261.0938 880,260.8281 Q879.4063,260.5469 878.7813,260.5469 Q877.4375,260.5469 876.75,261.625 Q876.0625,262.6875 876.0625,264.7813 Q876.0625,266.875 876.75,267.9531 Q877.4375,269.0156 878.7813,269.0156 Q879.4063,269.0156 880,268.75 Q880.5938,268.4688 881.2188,267.8906 L881.2188,270.6094 Z "/><text fill="#000000" font-family="sans-serif" font-size="12" font-style="italic" lengthAdjust="spacingAndGlyphs" textLength="59" x="924.75" y="262.1387">«Service»</text><text fill="#000000" font-family="sans-serif" font-size="12" lengthAdjust="spacingAndGlyphs" textLength="111" x="898.75" y="276.1074">UserManagement</text><line style="stroke: #000000; stroke-width: 1.5;" x1="822.5" x2="1053.5" y1="283.9375" y2="283.9375"/><line style="stroke: #000000; stroke-width: 1.5;" x1="822.5" x2="1053.5" y1="291.9375" y2="291.9375"/><text fill="#000000" font-family="sans-serif" font-size="11" lengthAdjust="spacingAndGlyphs" textLength="142" x="827.5" y="306.1479">+login(LoginForm) : User</text><text fill="#000000" font-family="sans-serif" font-size="11" lengthAdjust="spacingAndGlyphs" textLength="176" x="827.5" y="318.9526">+logout(LogoutForm) : boolean</text><text fill="#000000" font-family="sans-serif" font-size="11" lengthAdjust="spacingAndGlyphs" textLength="221" x="827.5" y="331.7573">+resetPassword(ResetForm) : boolean</text><text fill="#000000" font-family="sans-serif" font-size="11" lengthAdjust="spacingAndGlyphs" textLength="193" x="827.5" y="344.562">+createUser(UserForm) : boolean</text><!--class bioladen.user.UserAccount--><rect fill="url(#g14defdnqde7jh0)" filter="url(#f14defdnqde7jh)" height="66.7422" id="bioladen.user.UserAccount" style="stroke: #000000; stroke-width: 1.5;" width="226" x="1090" y="265"/><ellipse cx="1158.75" cy="283.9688" fill="#ADD1B2" rx="11" ry="11" style="stroke: #000000; stroke-width: 1.0;"/><path d="M1161.7188,289.6094 Q1161.1406,289.9063 1160.5,290.0469 Q1159.8594,290.2031 1159.1563,290.2031 Q1156.6563,290.2031 1155.3281,288.5625 Q1154.0156,286.9063 1154.0156,283.7813 Q1154.0156,280.6563 1155.3281,279 Q1156.6563,277.3438 1159.1563,277.3438 Q1159.8594,277.3438 1160.5,277.5 Q1161.1563,277.6563 1161.7188,277.9531 L1161.7188,280.6719 Q1161.0938,280.0938 1160.5,279.8281 Q1159.9063,279.5469 1159.2813,279.5469 Q1157.9375,279.5469 1157.25,280.625 Q1156.5625,281.6875 1156.5625,283.7813 Q1156.5625,285.875 1157.25,286.9531 Q1157.9375,288.0156 1159.2813,288.0156 Q1159.9063,288.0156 1160.5,287.75 Q1161.0938,287.4688 1161.7188,286.8906 L1161.7188,289.6094 Z "/><text fill="#000000" font-family="sans-serif" font-size="12" font-style="italic" lengthAdjust="spacingAndGlyphs" textLength="50" x="1194.25" y="281.1387">«Entity»</text><text fill="#000000" font-family="sans-serif" font-size="12" lengthAdjust="spacingAndGlyphs" textLength="80" x="1179.25" y="295.1074">UserAccount</text><line style="stroke: #000000; stroke-width: 1.5;" x1="1091" x2="1315" y1="302.9375" y2="302.9375"/><line style="stroke: #000000; stroke-width: 1.5;" x1="1091" x2="1315" y1="310.9375" y2="310.9375"/><text fill="#000000" font-family="sans-serif" font-size="11" lengthAdjust="spacingAndGlyphs" textLength="214" x="1096" y="325.1479">publishUserCreatedEvent(User) : void</text><!--class bioladen.event.EntityCreatedEvent--><rect fill="url(#g14defdnqde7jh0)" filter="url(#f14defdnqde7jh)" height="48" id="bioladen.event.EntityCreatedEvent" style="stroke: #000000; stroke-width: 1.5;" width="152" x="1146" y="70"/><ellipse cx="1161" cy="86" fill="#ADD1B2" rx="11" ry="11" style="stroke: #000000; stroke-width: 1.0;"/><path d="M1163.9688,91.6406 Q1163.3906,91.9375 1162.75,92.0781 Q1162.1094,92.2344 1161.4063,92.2344 Q1158.9063,92.2344 1157.5781,90.5938 Q1156.2656,88.9375 1156.2656,85.8125 Q1156.2656,82.6875 1157.5781,81.0313 Q1158.9063,79.375 1161.4063,79.375 Q1162.1094,79.375 1162.75,79.5313 Q1163.4063,79.6875 1163.9688,79.9844 L1163.9688,82.7031 Q1163.3438,82.125 1162.75,81.8594 Q1162.1563,81.5781 1161.5313,81.5781 Q1160.1875,81.5781 1159.5,82.6563 Q1158.8125,83.7188 1158.8125,85.8125 Q1158.8125,87.9063 1159.5,88.9844 Q1160.1875,90.0469 1161.5313,90.0469 Q1162.1563,90.0469 1162.75,89.7813 Q1163.3438,89.5 1163.9688,88.9219 L1163.9688,91.6406 Z "/><text fill="#000000" font-family="sans-serif" font-size="12" lengthAdjust="spacingAndGlyphs" textLength="120" x="1175" y="90.1543">EntityCreatedEvent</text><line style="stroke: #000000; stroke-width: 1.5;" x1="1147" x2="1297" y1="102" y2="102"/><line style="stroke: #000000; stroke-width: 1.5;" x1="1147" x2="1297" y1="110" y2="110"/><!--class CrudRepository--><rect fill="url(#g14defdnqde7jh0)" filter="url(#f14defdnqde7jh)" height="188.8516" id="CrudRepository" style="stroke: #000000; stroke-width: 1.5;" width="309" x="1379.5" y="834"/><ellipse cx="1466.25" cy="850" fill="#B4A7E5" rx="11" ry="11" style="stroke: #000000; stroke-width: 1.0;"/><path d="M1462.1719,845.7656 L1462.1719,843.6094 L1469.5625,843.6094 L1469.5625,845.7656 L1467.0938,845.7656 L1467.0938,853.8438 L1469.5625,853.8438 L1469.5625,856 L1462.1719,856 L1462.1719,853.8438 L1464.6406,853.8438 L1464.6406,845.7656 L1462.1719,845.7656 Z "/><text fill="#000000" font-family="sans-serif" font-size="12" font-style="italic" lengthAdjust="spacingAndGlyphs" textLength="95" x="1486.75" y="854.1543">CrudRepository</text><rect fill="#FFFFFF" height="15.9688" style="stroke: #000000; stroke-width: 1.0; stroke-dasharray: 2.0,2.0;" width="30" x="1661.5" y="831"/><text fill="#000000" font-family="sans-serif" font-size="12" font-style="italic" lengthAdjust="spacingAndGlyphs" textLength="28" x="1662.5" y="843.1387">T, ID</text><line style="stroke: #000000; stroke-width: 1.5;" x1="1380.5" x2="1687.5" y1="866" y2="866"/><line style="stroke: #000000; stroke-width: 1.5;" x1="1380.5" x2="1687.5" y1="874" y2="874"/><text fill="#000000" font-family="sans-serif" font-size="11" lengthAdjust="spacingAndGlyphs" textLength="162" x="1385.5" y="888.2104">&lt;S extends T&gt; +save(S) : S</text><text fill="#000000" font-family="sans-serif" font-size="11" lengthAdjust="spacingAndGlyphs" textLength="297" x="1385.5" y="901.0151">&lt;S extends T&gt; +saveAll(Iterable&lt;S​&gt;) : Iterable&lt;S&gt;</text><text fill="#000000" font-family="sans-serif" font-size="11" lengthAdjust="spacingAndGlyphs" textLength="157" x="1385.5" y="913.8198">+findById(ID) : Optional&lt;T&gt;</text><text fill="#000000" font-family="sans-serif" font-size="11" lengthAdjust="spacingAndGlyphs" textLength="143" x="1385.5" y="926.6245">+existsById(ID) : boolean</text><text fill="#000000" font-family="sans-serif" font-size="11" lengthAdjust="spacingAndGlyphs" textLength="131" x="1385.5" y="939.4292">+findAll() : Iterable&lt;T&gt;</text><text fill="#000000" font-family="sans-serif" font-size="11" lengthAdjust="spacingAndGlyphs" textLength="227" x="1385.5" y="952.2339">+findAllById(Iterable&lt;ID&gt;) : Iterable&lt;T&gt;</text><text fill="#000000" font-family="sans-serif" font-size="11" lengthAdjust="spacingAndGlyphs" textLength="84" x="1385.5" y="965.0386">+count() : long</text><text fill="#000000" font-family="sans-serif" font-size="11" lengthAdjust="spacingAndGlyphs" textLength="122" x="1385.5" y="977.8433">+deleteById(ID) : void</text><text fill="#000000" font-family="sans-serif" font-size="11" lengthAdjust="spacingAndGlyphs" textLength="94" x="1385.5" y="990.6479">+delete(T) : void</text><text fill="#000000" font-family="sans-serif" font-size="11" lengthAdjust="spacingAndGlyphs" textLength="227" x="1385.5" y="1003.4526">+deleteAll(Iterable&lt;? extends T&gt;) : void</text><text fill="#000000" font-family="sans-serif" font-size="11" lengthAdjust="spacingAndGlyphs" textLength="100" x="1385.5" y="1016.2573">+deleteAll() : void</text><!--link bioladen.event.EntityCreatedEvent to org.salespointframework.context.ApplicationEvent--><path d="M1298.191,94 C1315.044,94 1328,94 1328,94 C1328,94 1328,555.935 1328,555.935 " fill="none" id="bioladen.event.EntityCreatedEvent-org.salespointframework.context.ApplicationEvent" style="stroke: #000000; stroke-width: 1.0;"/><polygon fill="none" points="1335.0001,555.935,1328,575.935,1321.0001,555.9349,1335.0001,555.935" style="stroke: #000000; stroke-width: 1.0;"/><!--link bioladen.event.EntityCreatedEvent to bioladen.user.UserAccount--><path d="M1222,123.2619 C1222,123.2619 1222,264.774 1222,264.774 " fill="none" id="bioladen.event.EntityCreatedEvent-bioladen.user.UserAccount" style="stroke: #000000; stroke-width: 1.0;"/><polygon fill="#000000" points="1222,118.2619,1218,127.2619,1222,123.2619,1226,127.2619,1222,118.2619" style="stroke: #000000; stroke-width: 1.0;"/><!--link org.salespointframework.useraccount.UserAccountRepository to org.salespointframework.useraccount.UserAccount--><path d="M303.25,723.0128 C303.25,723.0128 303.25,1207.8386 303.25,1207.8386 " fill="none" id="org.salespointframework.useraccount.UserAccountRepository-org.salespointframework.useraccount.UserAccount" style="stroke: #000000; stroke-width: 1.0;"/><polygon fill="#000000" points="303.25,710.0128,299.25,716.0128,303.25,722.0128,307.25,716.0128,303.25,710.0128" style="stroke: #000000; stroke-width: 1.0;"/><!--link org.salespointframework.useraccount.UserAccountRepository to CrudRepository--><path d="M443.5888,675 C809.6529,675 1534,675 1534,675 C1534,675 1534,813.7455 1534,813.7455 " fill="none" id="org.salespointframework.useraccount.UserAccountRepository-CrudRepository" style="stroke: #000000; stroke-width: 1.0;"/><polygon fill="none" points="1541.0001,813.7455,1534,833.7455,1527.0001,813.7454,1541.0001,813.7455" style="stroke: #000000; stroke-width: 1.0;"/><text fill="#000000" font-family="sans-serif" font-size="13" lengthAdjust="spacingAndGlyphs" textLength="50" x="1126.5" y="753.0669">«binds»</text><text fill="#000000" font-family="sans-serif" font-size="13" lengthAdjust="spacingAndGlyphs" textLength="249" x="1027" y="768.1997">&lt;UserAccount, UserAccountIdentifier&gt;</text><!--link bioladen.user.UserManagement to org.salespointframework.useraccount.UserAccountManager--><path d="M821.3493,299 C710.9477,299 562,299 562,299 C562,299 562,567.7574 562,567.7574 " fill="none" id="bioladen.user.UserManagement-org.salespointframework.useraccount.UserAccountManager" style="stroke: #000000; stroke-width: 1.0;"/><polygon fill="#000000" points="562,572.7574,566,563.7574,562,567.7574,558,563.7574,562,572.7574" style="stroke: #000000; stroke-width: 1.0;"/><text fill="#000000" font-family="sans-serif" font-size="13" lengthAdjust="spacingAndGlyphs" textLength="0" x="740.5" y="394.0669"/><text fill="#000000" font-family="sans-serif" font-size="13" lengthAdjust="spacingAndGlyphs" textLength="0" x="740.5" y="409.1997"/><text fill="#000000" font-family="sans-serif" font-size="13" lengthAdjust="spacingAndGlyphs" textLength="115" x="681" y="424.3325">USER_ACCOUNTS</text><text fill="#000000" font-family="sans-serif" font-size="13" lengthAdjust="spacingAndGlyphs" textLength="8" x="805.6201" y="295.6177">1</text><text fill="#000000" font-family="sans-serif" font-size="13" lengthAdjust="spacingAndGlyphs" textLength="8" x="553.075" y="561.8127">1</text><!--link bioladen.user.UserManagement to org.salespointframework.useraccount.UserAccountRepository--><path d="M851.25,351.033 C851.25,417.9434 851.25,525 851.25,525 C851.25,525 448.6728,525 448.6728,525 " fill="none" id="bioladen.user.UserManagement-org.salespointframework.useraccount.UserAccountRepository" style="stroke: #000000; stroke-width: 1.0;"/><polygon fill="#000000" points="443.6728,525,452.6728,529,448.6728,525,452.6728,521,443.6728,525" style="stroke: #000000; stroke-width: 1.0;"/><text fill="#000000" font-family="sans-serif" font-size="13" lengthAdjust="spacingAndGlyphs" textLength="8" x="831.0555" y="371.1653">1</text><text fill="#000000" font-family="sans-serif" font-size="13" lengthAdjust="spacingAndGlyphs" textLength="8" x="451.2439" y="519.0973">1</text><!--link bioladen.user.UserManagement to BusinessTime--><path d="M938,351.0173 C938,351.0173 938,567.8538 938,567.8538 " fill="none" id="bioladen.user.UserManagement-BusinessTime" style="stroke: #000000; stroke-width: 1.0;"/><polygon fill="#000000" points="938,572.8538,942,563.8538,938,567.8538,934,563.8538,938,572.8538" style="stroke: #000000; stroke-width: 1.0;"/><!--link bioladen.user.UserAccount to org.salespointframework.useraccount.UserAccount--><path d="M1147,332.2013 C1147,510.7407 1147,1338 1147,1338 C1147,1338 677.2041,1338 677.2041,1338 " fill="none" id="bioladen.user.UserAccount-org.salespointframework.useraccount.UserAccount" style="stroke: #000000; stroke-width: 1.0;"/><polygon fill="none" points="677.2041,1344.9999,657.2041,1338,677.2041,1330.9999,677.2041,1344.9999" style="stroke: #000000; stroke-width: 1.0;"/><!--
@startuml

skinparam class {
	BackgroundColor #LightCoral/LightPink
    BorderColor Black
    ArrowColor  Black
}

skinparam package {
    FontColor Grey
    BorderColor DarkMagenta
}

skinparam classAttributeIconSize 0
skinparam linetype ortho

rectangle salespoint-framework-7.0.0.RELEASE.jar {

    namespace org.salespointframework.useraccount {
        class UserAccount <<Entity>>{
            -userAccountIdentifier : UserAccountIdentifier
            -password : Password
            -firstname : String
            -lastname : String
            -email : String
            -roles : Set<Role>
            -enable : boolean

            +UserAccount()
            +UserAccount(UserAccountIdentifier, String, Role...)
            +UserAccount(UserAccountIdentifier, String, String, String, String, Collection<Role>)
            +getID() : UserAccountIdentifier
            +getUserName() : String
            +add(Role) : boolean
            +remove(Role) : boolean
            +hasRole() : boolean
            +getRoles() : Streamable<Role>
        }

        class Role <<Object>>{
            -name : String

            +{static} of(String) : Role
        }

        interface UserAccountRepository <<Repository>> {
            +save(UserAccount) : UserAccount
            +saveAll(Iterable<UserAccount>) : Iterable<UserAccount>
            +findById(UserAccountIdentifier) : Optional<UserAccount>
            +existsById(UserAccountIdentifier) : boolean
            +findAll() : Iterable<UserAccount>
            +findAllById(Iterable<UserAccountIdentifier>) : Iterable<UserAccount>
            +count() : long
            +deleteById(UserAccountIdentifier) : void
            +delete(UserAccount) : void
            +deleteAll(Iterable<UserAccount>) : void
            +deleteAll() : void
            +findByEnabledTrue() : Streamable<UserAccount>
            +findByEnabledFalse() : Streamable<UserAccount>
        }

        interface UserAccountManager <<Service>>

    }

    namespace org.salespointframework.context {
        class ApplicationEvent {

        }

    }

    package org.salespointframework.time {
        interface BusinessTime <<Service>> {

        }
    }

}



rectangle Bioladen {

    namespace bioladen.user {

        class UserManagement <<Service>> {
            +login(LoginForm) : User
            +logout(LogoutForm) : boolean
            +resetPassword(ResetForm) : boolean
            +createUser(UserForm) : boolean

        }

        class UserAccount <<Entity>> {
            publishUserCreatedEvent(User) : void
        }
    }

    namespace bioladen.event {
        class EntityCreatedEvent {

        }
        EntityCreatedEvent - -|> org.salespointframework.context.ApplicationEvent

        EntityCreatedEvent <- - bioladen.user.UserAccount

    }

}





rectangle spring-data-comments-2.1.0.RELEASE.jar as spring {

    package org.springframework.data.repository {
        interface CrudRepository <T, ID>{
            <S extends T> +save(S) : S
            <S extends T> +saveAll(Iterable<S​>) : Iterable<S>
            +findById(ID) : Optional<T>
            +existsById(ID) : boolean
            +findAll() : Iterable<T>
            +findAllById(Iterable<ID>) : Iterable<T>
            +count() : long
            +deleteById(ID) : void
            +delete(T) : void
            +deleteAll(Iterable<? extends T>) : void
            +deleteAll() : void
        }
    }

}



org.salespointframework.useraccount.UserAccountRepository  *- -  org.salespointframework.useraccount.UserAccount
org.salespointframework.useraccount.UserAccountRepository - -|> CrudRepository: <<binds>>\n<UserAccount, UserAccountIdentifier>
bioladen.user.UserManagement "1" - -> "1" org.salespointframework.useraccount.UserAccountManager: \n\nUSER_ACCOUNTS
bioladen.user.UserManagement "1" - -> "1" org.salespointframework.useraccount.UserAccountRepository
bioladen.user.UserManagement - -> BusinessTime

bioladen.user.UserAccount - -|> org.salespointframework.useraccount.UserAccount

@enduml

PlantUML version 1.2018.12(Sun Oct 21 12:15:15 CEST 2018)
(GPL source distribution)
Java Runtime: OpenJDK Runtime Environment
JVM: OpenJDK 64-Bit Server VM
Java Version: 11.0.1+13-Debian-2
Operating System: Linux
OS Version: 4.18.0-parrot10-amd64
Default Encoding: UTF-8
Language: en
Country: US
--></g></svg>