<?xml version="1.0" encoding="UTF-8" standalone="no"?><svg xmlns="http://www.w3.org/2000/svg" xmlns:xlink="http://www.w3.org/1999/xlink" contentScriptType="application/ecmascript" contentStyleType="text/css" height="680px" preserveAspectRatio="none" style="width:346px;height:680px;" version="1.1" viewBox="0 0 346 680" width="346px" zoomAndPan="magnify"><defs><filter height="300%" id="f12liedv8sldjb" width="300%" x="-1" y="-1"><feGaussianBlur result="blurOut" stdDeviation="2.0"/><feColorMatrix in="blurOut" result="blurOut2" type="matrix" values="0 0 0 0 0 0 0 0 0 0 0 0 0 0 0 0 0 0 .4 0"/><feOffset dx="4.0" dy="4.0" in="blurOut2" result="blurOut3"/><feBlend in="SourceGraphic" in2="blurOut3" mode="normal"/></filter></defs><g><!--cluster Bioladen--><rect fill="#FFFFFF" filter="url(#f12liedv8sldjb)" height="653" style="stroke: #8B008B; stroke-width: 1.5;" width="321" x="14" y="16"/><text fill="#808080" font-family="sans-serif" font-size="14" font-weight="bold" lengthAdjust="spacingAndGlyphs" textLength="67" x="141" y="30.9951">Bioladen</text><polygon fill="#FFFFFF" filter="url(#f12liedv8sldjb)" points="193,43,307,43,314,65.2969,321,65.2969,321,95.5938,193,95.5938,193,43" style="stroke: #8B008B; stroke-width: 1.5;"/><line style="stroke: #8B008B; stroke-width: 1.5;" x1="193" x2="314" y1="65.2969" y2="65.2969"/><text fill="#808080" font-family="sans-serif" font-size="14" font-weight="bold" lengthAdjust="spacingAndGlyphs" textLength="108" x="197" y="57.9951">bioladen.user</text><polygon fill="#FFFFFF" filter="url(#f12liedv8sldjb)" points="131.5,382,276.5,382,283.5,404.2969,290.5,404.2969,290.5,434.5938,131.5,434.5938,131.5,382" style="stroke: #8B008B; stroke-width: 1.5;"/><line style="stroke: #8B008B; stroke-width: 1.5;" x1="131.5" x2="283.5" y1="404.2969" y2="404.2969"/><text fill="#808080" font-family="sans-serif" font-size="14" font-weight="bold" lengthAdjust="spacingAndGlyphs" textLength="139" x="135.5" y="396.9951">bioladen.finances</text><polygon fill="#FFFFFF" filter="url(#f12liedv8sldjb)" points="41.5,269,182.5,269,189.5,291.2969,196.5,291.2969,196.5,321.5938,41.5,321.5938,41.5,269" style="stroke: #8B008B; stroke-width: 1.5;"/><line style="stroke: #8B008B; stroke-width: 1.5;" x1="41.5" x2="189.5" y1="291.2969" y2="291.2969"/><text fill="#808080" font-family="sans-serif" font-size="14" font-weight="bold" lengthAdjust="spacingAndGlyphs" textLength="135" x="45.5" y="283.9951">bioladen.data.log</text><polygon fill="#FFFFFF" filter="url(#f12liedv8sldjb)" points="22.5,156,201.5,156,208.5,178.2969,215.5,178.2969,215.5,208.5938,22.5,208.5938,22.5,156" style="stroke: #8B008B; stroke-width: 1.5;"/><line style="stroke: #8B008B; stroke-width: 1.5;" x1="22.5" x2="208.5" y1="178.2969" y2="178.2969"/><text fill="#808080" font-family="sans-serif" font-size="14" font-weight="bold" lengthAdjust="spacingAndGlyphs" textLength="173" x="26.5" y="170.9951">bioladen.data.statistic</text><polygon fill="#FFFFFF" filter="url(#f12liedv8sldjb)" points="66,608,206,608,213,630.2969,220,630.2969,220,660.5938,66,660.5938,66,608" style="stroke: #8B008B; stroke-width: 1.5;"/><line style="stroke: #8B008B; stroke-width: 1.5;" x1="66" x2="213" y1="630.2969" y2="630.2969"/><text fill="#808080" font-family="sans-serif" font-size="14" font-weight="bold" lengthAdjust="spacingAndGlyphs" textLength="134" x="70" y="622.9951">bioladen.product</text><polygon fill="#FFFFFF" filter="url(#f12liedv8sldjb)" points="119,495,241,495,248,517.2969,255,517.2969,255,547.5938,119,547.5938,119,495" style="stroke: #8B008B; stroke-width: 1.5;"/><line style="stroke: #8B008B; stroke-width: 1.5;" x1="119" x2="248" y1="517.2969" y2="517.2969"/><text fill="#808080" font-family="sans-serif" font-size="14" font-weight="bold" lengthAdjust="spacingAndGlyphs" textLength="116" x="123" y="509.9951">bioladen.order</text><!--link bioladen.user to bioladen.finances--><path d="M265.5,101.1008 C265.5,101.1008 265.5,381.5537 265.5,381.5537 " fill="none" id="bioladen.user-bioladen.finances" style="stroke: #000000; stroke-width: 1.0;"/><polygon fill="#000000" points="265.5,96.1008,261.5,105.1008,265.5,101.1008,269.5,105.1008,265.5,96.1008" style="stroke: #000000; stroke-width: 1.0;"/><!--link bioladen.user to bioladen.data.log--><path d="M240.5,101.372 C240.5,101.372 240.5,296 240.5,296 C240.5,296 220.4478,296 196.6357,296 " fill="none" id="bioladen.user-bioladen.data.log" style="stroke: #000000; stroke-width: 1.0;"/><polygon fill="#000000" points="240.5,96.372,236.5,105.372,240.5,101.372,244.5,105.372,240.5,96.372" style="stroke: #000000; stroke-width: 1.0;"/><!--link bioladen.user to bioladen.data.statistic--><path d="M204.25,101.2794 C204.25,101.2794 204.25,155.9128 204.25,155.9128 " fill="none" id="bioladen.user-bioladen.data.statistic" style="stroke: #000000; stroke-width: 1.0;"/><polygon fill="#000000" points="204.25,96.2794,200.25,105.2794,204.25,101.2794,208.25,105.2794,204.25,96.2794" style="stroke: #000000; stroke-width: 1.0;"/><!--link bioladen.user to bioladen.order--><path d="M305.75,101.1166 C305.75,101.1166 305.75,522 305.75,522 C305.75,522 281.5777,522 255.0449,522 " fill="none" id="bioladen.user-bioladen.order" style="stroke: #000000; stroke-width: 1.0;"/><polygon fill="#000000" points="305.75,96.1166,301.75,105.1166,305.75,101.1166,309.75,105.1166,305.75,96.1166" style="stroke: #000000; stroke-width: 1.0;"/><!--link bioladen.finances to bioladen.order--><path d="M193.25,440.2794 C193.25,440.2794 193.25,494.9128 193.25,494.9128 " fill="none" id="bioladen.finances-bioladen.order" style="stroke: #000000; stroke-width: 1.0;"/><polygon fill="#000000" points="193.25,435.2794,189.25,444.2794,193.25,440.2794,197.25,444.2794,193.25,435.2794" style="stroke: #000000; stroke-width: 1.0;"/><!--link bioladen.data.statistic to bioladen.data.log--><path d="M119,209.2794 C119,209.2794 119,263.9128 119,263.9128 " fill="none" id="bioladen.data.statistic-bioladen.data.log" style="stroke: #000000; stroke-width: 1.0;"/><polygon fill="#000000" points="119,268.9128,123,259.9128,119,263.9128,115,259.9128,119,268.9128" style="stroke: #000000; stroke-width: 1.0;"/><!--link bioladen.order to bioladen.product--><path d="M169.5,548.2794 C169.5,548.2794 169.5,602.9128 169.5,602.9128 " fill="none" id="bioladen.order-bioladen.product" style="stroke: #000000; stroke-width: 1.0;"/><polygon fill="#000000" points="169.5,607.9128,173.5,598.9128,169.5,602.9128,165.5,598.9128,169.5,607.9128" style="stroke: #000000; stroke-width: 1.0;"/><!--link bioladen.data.log to bioladen.order--><path d="M125.25,322.3127 C125.25,322.3127 125.25,489.7222 125.25,489.7222 " fill="none" id="bioladen.data.log-bioladen.order" style="stroke: #000000; stroke-width: 1.0;"/><polygon fill="#000000" points="125.25,494.7222,129.25,485.7222,125.25,489.7222,121.25,485.7222,125.25,494.7222" style="stroke: #000000; stroke-width: 1.0;"/><!--link bioladen.data.log to bioladen.product--><path d="M92.5,322.1008 C92.5,322.1008 92.5,602.5537 92.5,602.5537 " fill="none" id="bioladen.data.log-bioladen.product" style="stroke: #000000; stroke-width: 1.0;"/><polygon fill="#000000" points="92.5,607.5537,96.5,598.5537,92.5,602.5537,88.5,598.5537,92.5,607.5537" style="stroke: #000000; stroke-width: 1.0;"/><!--link bioladen.data.log to bioladen.finances--><path d="M164,322.2794 C164,322.2794 164,376.9128 164,376.9128 " fill="none" id="bioladen.data.log-bioladen.finances" style="stroke: #000000; stroke-width: 1.0;"/><polygon fill="#000000" points="164,381.9128,168,372.9128,164,376.9128,160,372.9128,164,381.9128" style="stroke: #000000; stroke-width: 1.0;"/><!--
@startuml

skinparam class {
	BackgroundColor #LightCoral/LightPink
    BorderColor Black
    ArrowColor  Black
}

skinparam package {
    FontColor Grey
    BorderColor DarkMagenta
}

skinparam classAttributeIconSize 0
skinparam linetype ortho



rectangle Bioladen {
    namespace bioladen.user {

    }

    namespace bioladen.finances {

    }

    namespace bioladen.data.log {

    }

    namespace bioladen.data.statistic {

    }

    namespace bioladen.product {

    }

    namespace bioladen.order {

    }

    bioladen.user <- - bioladen.finances
    bioladen.user <- - bioladen.data.log
    bioladen.user <- - bioladen.data.statistic
    bioladen.user <- - bioladen.order

    bioladen.finances <- - bioladen.order

    bioladen.data.statistic - -> bioladen.data.log

    bioladen.order - -> bioladen.product

    bioladen.data.log - -> bioladen.order
    bioladen.data.log - -> bioladen.product
    bioladen.data.log - -> bioladen.finances

}

@enduml

PlantUML version 1.2018.12(Sun Oct 21 12:15:15 CEST 2018)
(GPL source distribution)
Java Runtime: OpenJDK Runtime Environment
JVM: OpenJDK 64-Bit Server VM
Java Version: 11.0.1+13-Debian-2
Operating System: Linux
OS Version: 4.18.0-parrot10-amd64
Default Encoding: UTF-8
Language: en
Country: US
--></g></svg>