<?xml version="1.0" encoding="UTF-8" standalone="no"?><svg xmlns="http://www.w3.org/2000/svg" xmlns:xlink="http://www.w3.org/1999/xlink" contentScriptType="application/ecmascript" contentStyleType="text/css" height="717px" preserveAspectRatio="none" style="width:350px;height:717px;" version="1.1" viewBox="0 0 350 717" width="350px" zoomAndPan="magnify"><defs><filter height="300%" id="f12liedv8sldjb" width="300%" x="-1" y="-1"><feGaussianBlur result="blurOut" stdDeviation="2.0"/><feColorMatrix in="blurOut" result="blurOut2" type="matrix" values="0 0 0 0 0 0 0 0 0 0 0 0 0 0 0 0 0 0 .4 0"/><feOffset dx="4.0" dy="4.0" in="blurOut2" result="blurOut3"/><feBlend in="SourceGraphic" in2="blurOut3" mode="normal"/></filter></defs><g><!--cluster Bioladen--><rect fill="#FFFFFF" filter="url(#f12liedv8sldjb)" height="682" style="stroke: #8B008B; stroke-width: 1.5;" width="317" x="22" y="24"/><text fill="#808080" font-family="sans-serif" font-size="14" font-weight="bold" lengthAdjust="spacingAndGlyphs" textLength="62" x="149.5" y="40.5332">Bioladen</text><polygon fill="#FFFFFF" filter="url(#f12liedv8sldjb)" points="197.5,60,300.5,60,307.5,83.6094,314.5,83.6094,314.5,115.2188,197.5,115.2188,197.5,60" style="stroke: #8B008B; stroke-width: 1.5;"/><line style="stroke: #8B008B; stroke-width: 1.5;" x1="197.5" x2="307.5" y1="83.6094" y2="83.6094"/><text fill="#808080" font-family="sans-serif" font-size="14" font-weight="bold" lengthAdjust="spacingAndGlyphs" textLength="97" x="201.5" y="76.5332">bioladen.user</text><polygon fill="#FFFFFF" filter="url(#f12liedv8sldjb)" points="140.5,405,271.5,405,278.5,428.6094,285.5,428.6094,285.5,460.2188,140.5,460.2188,140.5,405" style="stroke: #8B008B; stroke-width: 1.5;"/><line style="stroke: #8B008B; stroke-width: 1.5;" x1="140.5" x2="278.5" y1="428.6094" y2="428.6094"/><text fill="#808080" font-family="sans-serif" font-size="14" font-weight="bold" lengthAdjust="spacingAndGlyphs" textLength="125" x="144.5" y="421.5332">bioladen.finances</text><polygon fill="#FFFFFF" filter="url(#f12liedv8sldjb)" points="54.5,290,181.5,290,188.5,313.6094,195.5,313.6094,195.5,345.2188,54.5,345.2188,54.5,290" style="stroke: #8B008B; stroke-width: 1.5;"/><line style="stroke: #8B008B; stroke-width: 1.5;" x1="54.5" x2="188.5" y1="313.6094" y2="313.6094"/><text fill="#808080" font-family="sans-serif" font-size="14" font-weight="bold" lengthAdjust="spacingAndGlyphs" textLength="121" x="58.5" y="306.5332">bioladen.data.log</text><polygon fill="#FFFFFF" filter="url(#f12liedv8sldjb)" points="38,175,198,175,205,198.6094,212,198.6094,212,230.2188,38,230.2188,38,175" style="stroke: #8B008B; stroke-width: 1.5;"/><line style="stroke: #8B008B; stroke-width: 1.5;" x1="38" x2="205" y1="198.6094" y2="198.6094"/><text fill="#808080" font-family="sans-serif" font-size="14" font-weight="bold" lengthAdjust="spacingAndGlyphs" textLength="154" x="42" y="191.5332">bioladen.data.statistic</text><polygon fill="#FFFFFF" filter="url(#f12liedv8sldjb)" points="78,635,204,635,211,658.6094,218,658.6094,218,690.2188,78,690.2188,78,635" style="stroke: #8B008B; stroke-width: 1.5;"/><line style="stroke: #8B008B; stroke-width: 1.5;" x1="78" x2="211" y1="658.6094" y2="658.6094"/><text fill="#808080" font-family="sans-serif" font-size="14" font-weight="bold" lengthAdjust="spacingAndGlyphs" textLength="120" x="82" y="651.5332">bioladen.product</text><polygon fill="#FFFFFF" filter="url(#f12liedv8sldjb)" points="127,520,237,520,244,543.6094,251,543.6094,251,575.2188,127,575.2188,127,520" style="stroke: #8B008B; stroke-width: 1.5;"/><line style="stroke: #8B008B; stroke-width: 1.5;" x1="127" x2="244" y1="543.6094" y2="543.6094"/><text fill="#808080" font-family="sans-serif" font-size="14" font-weight="bold" lengthAdjust="spacingAndGlyphs" textLength="104" x="131" y="536.5332">bioladen.order</text><!--link bioladen.user to bioladen.finances--><path d="M261,120.15 C261,120.15 261,404.719 261,404.719 " fill="none" id="bioladen.user-bioladen.finances" style="stroke: #000000; stroke-width: 1.0;"/><polygon fill="#000000" points="261,115.15,257,124.15,261,120.15,265,124.15,261,115.15" style="stroke: #000000; stroke-width: 1.0;"/><!--link bioladen.user to bioladen.data.log--><path d="M236.5,120.304 C236.5,120.304 236.5,318 236.5,318 C236.5,318 217.743,318 195.615,318 " fill="none" id="bioladen.user-bioladen.data.log" style="stroke: #000000; stroke-width: 1.0;"/><polygon fill="#000000" points="236.5,115.304,232.5,124.304,236.5,120.304,240.5,124.304,236.5,115.304" style="stroke: #000000; stroke-width: 1.0;"/><!--link bioladen.user to bioladen.data.statistic--><path d="M204.75,120.045 C204.75,120.045 204.75,174.781 204.75,174.781 " fill="none" id="bioladen.user-bioladen.data.statistic" style="stroke: #000000; stroke-width: 1.0;"/><polygon fill="#000000" points="204.75,115.045,200.75,124.045,204.75,120.045,208.75,124.045,204.75,115.045" style="stroke: #000000; stroke-width: 1.0;"/><!--link bioladen.user to bioladen.order--><path d="M300,120.269 C300,120.269 300,548 300,548 C300,548 276.616,548 251.314,548 " fill="none" id="bioladen.user-bioladen.order" style="stroke: #000000; stroke-width: 1.0;"/><polygon fill="#000000" points="300,115.269,296,124.269,300,120.269,304,124.269,300,115.269" style="stroke: #000000; stroke-width: 1.0;"/><!--link bioladen.finances to bioladen.order--><path d="M195.75,465.045 C195.75,465.045 195.75,519.781 195.75,519.781 " fill="none" id="bioladen.finances-bioladen.order" style="stroke: #000000; stroke-width: 1.0;"/><polygon fill="#000000" points="195.75,460.045,191.75,469.045,195.75,465.045,199.75,469.045,195.75,460.045" style="stroke: #000000; stroke-width: 1.0;"/><!--link bioladen.data.statistic to bioladen.data.log--><path d="M125,230.045 C125,230.045 125,284.781 125,284.781 " fill="none" id="bioladen.data.statistic-bioladen.data.log" style="stroke: #000000; stroke-width: 1.0;"/><polygon fill="#000000" points="125,289.781,129,280.781,125,284.781,121,280.781,125,289.781" style="stroke: #000000; stroke-width: 1.0;"/><!--link bioladen.order to bioladen.product--><path d="M172.5,575.045 C172.5,575.045 172.5,629.7808 172.5,629.7808 " fill="none" id="bioladen.order-bioladen.product" style="stroke: #000000; stroke-width: 1.0;"/><polygon fill="#000000" points="172.5,634.7808,176.5,625.7808,172.5,629.7808,168.5,625.7808,172.5,634.7808" style="stroke: #000000; stroke-width: 1.0;"/><!--link bioladen.data.log to bioladen.order--><path d="M133.75,345.243 C133.75,345.243 133.75,514.658 133.75,514.658 " fill="none" id="bioladen.data.log-bioladen.order" style="stroke: #000000; stroke-width: 1.0;"/><polygon fill="#000000" points="133.75,519.658,137.75,510.658,133.75,514.658,129.75,510.658,133.75,519.658" style="stroke: #000000; stroke-width: 1.0;"/><!--link bioladen.data.log to bioladen.product--><path d="M102.5,345.15 C102.5,345.15 102.5,629.7187 102.5,629.7187 " fill="none" id="bioladen.data.log-bioladen.product" style="stroke: #000000; stroke-width: 1.0;"/><polygon fill="#000000" points="102.5,634.7187,106.5,625.7187,102.5,629.7187,98.5,625.7187,102.5,634.7187" style="stroke: #000000; stroke-width: 1.0;"/><!--link bioladen.data.log to bioladen.finances--><path d="M168,345.045 C168,345.045 168,399.781 168,399.781 " fill="none" id="bioladen.data.log-bioladen.finances" style="stroke: #000000; stroke-width: 1.0;"/><polygon fill="#000000" points="168,404.781,172,395.781,168,399.781,164,395.781,168,404.781" style="stroke: #000000; stroke-width: 1.0;"/><!--
@startuml

skinparam class {
	BackgroundColor #LightCoral/LightPink
    BorderColor Black
    ArrowColor  Black
}

skinparam package {
    FontColor Grey
    BorderColor DarkMagenta
}

skinparam classAttributeIconSize 0
skinparam linetype ortho



rectangle Bioladen {
    namespace bioladen.user {

    }

    namespace bioladen.finances {

    }

    namespace bioladen.data.log {

    }

    namespace bioladen.data.statistic {

    }

    namespace bioladen.product {

    }

    namespace bioladen.order {

    }

    bioladen.user <- - bioladen.finances
    bioladen.user <- - bioladen.data.log
    bioladen.user <- - bioladen.data.statistic
    bioladen.user <- - bioladen.order

    bioladen.finances <- - bioladen.order

    bioladen.data.statistic - -> bioladen.data.log

    bioladen.order - -> bioladen.product

    bioladen.data.log - -> bioladen.order
    bioladen.data.log - -> bioladen.product
    bioladen.data.log - -> bioladen.finances

}

@enduml

PlantUML version 1.2018.12(Sun Oct 21 12:15:15 CEST 2018)
(GPL source distribution)
Java Runtime: Java(TM) SE Runtime Environment
JVM: Java HotSpot(TM) Client VM
Java Version: 1.8.0_181-b13
Operating System: Windows 10
OS Version: 10.0
Default Encoding: Cp1252
Language: de
Country: DE
--></g></svg>