<?xml version="1.0" encoding="UTF-8" standalone="no"?><svg xmlns="http://www.w3.org/2000/svg" xmlns:xlink="http://www.w3.org/1999/xlink" contentScriptType="application/ecmascript" contentStyleType="text/css" height="680px" preserveAspectRatio="none" style="width:346px;height:680px;" version="1.1" viewBox="0 0 346 680" width="346px" zoomAndPan="magnify"><defs><filter height="300%" id="fl9bd31vatk9s" width="300%" x="-1" y="-1"><feGaussianBlur result="blurOut" stdDeviation="2.0"/><feColorMatrix in="blurOut" result="blurOut2" type="matrix" values="0 0 0 0 0 0 0 0 0 0 0 0 0 0 0 0 0 0 .4 0"/><feOffset dx="4.0" dy="4.0" in="blurOut2" result="blurOut3"/><feBlend in="SourceGraphic" in2="blurOut3" mode="normal"/></filter></defs><g><!--cluster Bioladen--><rect fill="#FFFFFF" filter="url(#fl9bd31vatk9s)" height="653" style="stroke: #000000; stroke-width: 1.5;" width="321" x="14" y="16"/><text fill="#000000" font-family="sans-serif" font-size="14" font-weight="bold" lengthAdjust="spacingAndGlyphs" textLength="68" x="140.5" y="30.9951">Bioladen</text><polygon fill="#FFFFFF" filter="url(#fl9bd31vatk9s)" points="193.5,43,306.5,43,313.5,65.2969,320.5,65.2969,320.5,95.5938,193.5,95.5938,193.5,43" style="stroke: #000000; stroke-width: 1.5;"/><line style="stroke: #000000; stroke-width: 1.5;" x1="193.5" x2="313.5" y1="65.2969" y2="65.2969"/><text fill="#000000" font-family="sans-serif" font-size="14" font-weight="bold" lengthAdjust="spacingAndGlyphs" textLength="107" x="197.5" y="57.9951">bioladen.user</text><polygon fill="#FFFFFF" filter="url(#fl9bd31vatk9s)" points="132,382,276,382,283,404.2969,290,404.2969,290,434.5938,132,434.5938,132,382" style="stroke: #000000; stroke-width: 1.5;"/><line style="stroke: #000000; stroke-width: 1.5;" x1="132" x2="283" y1="404.2969" y2="404.2969"/><text fill="#000000" font-family="sans-serif" font-size="14" font-weight="bold" lengthAdjust="spacingAndGlyphs" textLength="138" x="136" y="396.9951">bioladen.finances</text><polygon fill="#FFFFFF" filter="url(#fl9bd31vatk9s)" points="41.5,269,182.5,269,189.5,291.2969,196.5,291.2969,196.5,321.5938,41.5,321.5938,41.5,269" style="stroke: #000000; stroke-width: 1.5;"/><line style="stroke: #000000; stroke-width: 1.5;" x1="41.5" x2="189.5" y1="291.2969" y2="291.2969"/><text fill="#000000" font-family="sans-serif" font-size="14" font-weight="bold" lengthAdjust="spacingAndGlyphs" textLength="135" x="45.5" y="283.9951">bioladen.data.log</text><polygon fill="#FFFFFF" filter="url(#fl9bd31vatk9s)" points="22.5,156,201.5,156,208.5,178.2969,215.5,178.2969,215.5,208.5938,22.5,208.5938,22.5,156" style="stroke: #000000; stroke-width: 1.5;"/><line style="stroke: #000000; stroke-width: 1.5;" x1="22.5" x2="208.5" y1="178.2969" y2="178.2969"/><text fill="#000000" font-family="sans-serif" font-size="14" font-weight="bold" lengthAdjust="spacingAndGlyphs" textLength="173" x="26.5" y="170.9951">bioladen.data.statistic</text><polygon fill="#FFFFFF" filter="url(#fl9bd31vatk9s)" points="65.5,608,204.5,608,211.5,630.2969,218.5,630.2969,218.5,660.5938,65.5,660.5938,65.5,608" style="stroke: #000000; stroke-width: 1.5;"/><line style="stroke: #000000; stroke-width: 1.5;" x1="65.5" x2="211.5" y1="630.2969" y2="630.2969"/><text fill="#000000" font-family="sans-serif" font-size="14" font-weight="bold" lengthAdjust="spacingAndGlyphs" textLength="133" x="69.5" y="622.9951">bioladen.product</text><polygon fill="#FFFFFF" filter="url(#fl9bd31vatk9s)" points="119,495,239,495,246,517.2969,253,517.2969,253,547.5938,119,547.5938,119,495" style="stroke: #000000; stroke-width: 1.5;"/><line style="stroke: #000000; stroke-width: 1.5;" x1="119" x2="246" y1="517.2969" y2="517.2969"/><text fill="#000000" font-family="sans-serif" font-size="14" font-weight="bold" lengthAdjust="spacingAndGlyphs" textLength="114" x="123" y="509.9951">bioladen.order</text><!--link bioladen.user to bioladen.finances--><path d="M265.1667,101.1008 C265.1667,101.1008 265.1667,381.5537 265.1667,381.5537 " fill="none" id="bioladen.user-bioladen.finances" style="stroke: #000000; stroke-width: 1.0;"/><polygon fill="#000000" points="265.1667,96.1008,261.1667,105.1008,265.1667,101.1008,269.1667,105.1008,265.1667,96.1008" style="stroke: #000000; stroke-width: 1.0;"/><!--link bioladen.user to bioladen.data.log--><path d="M240.3333,101.372 C240.3333,101.372 240.3333,296 240.3333,296 C240.3333,296 220.3086,296 196.5292,296 " fill="none" id="bioladen.user-bioladen.data.log" style="stroke: #000000; stroke-width: 1.0;"/><polygon fill="#000000" points="240.3333,96.372,236.3333,105.372,240.3333,101.372,244.3333,105.372,240.3333,96.372" style="stroke: #000000; stroke-width: 1.0;"/><!--link bioladen.user to bioladen.data.statistic--><path d="M204.5,101.2794 C204.5,101.2794 204.5,155.9128 204.5,155.9128 " fill="none" id="bioladen.user-bioladen.data.statistic" style="stroke: #000000; stroke-width: 1.0;"/><polygon fill="#000000" points="204.5,96.2794,200.5,105.2794,204.5,101.2794,208.5,105.2794,204.5,96.2794" style="stroke: #000000; stroke-width: 1.0;"/><!--link bioladen.user to bioladen.order--><path d="M305.25,101.1166 C305.25,101.1166 305.25,522 305.25,522 C305.25,522 280.3414,522 253.2921,522 " fill="none" id="bioladen.user-bioladen.order" style="stroke: #000000; stroke-width: 1.0;"/><polygon fill="#000000" points="305.25,96.1166,301.25,105.1166,305.25,101.1166,309.25,105.1166,305.25,96.1166" style="stroke: #000000; stroke-width: 1.0;"/><!--link bioladen.finances to bioladen.order--><path d="M192.5,440.2794 C192.5,440.2794 192.5,494.9128 192.5,494.9128 " fill="none" id="bioladen.finances-bioladen.order" style="stroke: #000000; stroke-width: 1.0;"/><polygon fill="#000000" points="192.5,435.2794,188.5,444.2794,192.5,440.2794,196.5,444.2794,192.5,435.2794" style="stroke: #000000; stroke-width: 1.0;"/><!--link bioladen.data.statistic to bioladen.data.log--><path d="M119,209.2794 C119,209.2794 119,263.9128 119,263.9128 " fill="none" id="bioladen.data.statistic-bioladen.data.log" style="stroke: #000000; stroke-width: 1.0;"/><polygon fill="#000000" points="119,268.9128,123,259.9128,119,263.9128,115,259.9128,119,268.9128" style="stroke: #000000; stroke-width: 1.0;"/><!--link bioladen.order to bioladen.product--><path d="M168.75,548.2794 C168.75,548.2794 168.75,602.9128 168.75,602.9128 " fill="none" id="bioladen.order-bioladen.product" style="stroke: #000000; stroke-width: 1.0;"/><polygon fill="#000000" points="168.75,607.9128,172.75,598.9128,168.75,602.9128,164.75,598.9128,168.75,607.9128" style="stroke: #000000; stroke-width: 1.0;"/><!--link bioladen.data.log to bioladen.order--><path d="M125.5,322.3127 C125.5,322.3127 125.5,489.7222 125.5,489.7222 " fill="none" id="bioladen.data.log-bioladen.order" style="stroke: #000000; stroke-width: 1.0;"/><polygon fill="#000000" points="125.5,494.7222,129.5,485.7222,125.5,489.7222,121.5,485.7222,125.5,494.7222" style="stroke: #000000; stroke-width: 1.0;"/><!--link bioladen.data.log to bioladen.product--><path d="M92.25,322.1008 C92.25,322.1008 92.25,602.5537 92.25,602.5537 " fill="none" id="bioladen.data.log-bioladen.product" style="stroke: #000000; stroke-width: 1.0;"/><polygon fill="#000000" points="92.25,607.5537,96.25,598.5537,92.25,602.5537,88.25,598.5537,92.25,607.5537" style="stroke: #000000; stroke-width: 1.0;"/><!--link bioladen.data.log to bioladen.finances--><path d="M164.25,322.2794 C164.25,322.2794 164.25,376.9128 164.25,376.9128 " fill="none" id="bioladen.data.log-bioladen.finances" style="stroke: #000000; stroke-width: 1.0;"/><polygon fill="#000000" points="164.25,381.9128,168.25,372.9128,164.25,376.9128,160.25,372.9128,164.25,381.9128" style="stroke: #000000; stroke-width: 1.0;"/><!--
@startuml

skinparam class {
	BackgroundColor #Silver/white
    BorderColor Black
    ArrowColor  Black
}

skinparam package {
    FontColor black
    BorderColor black
}

skinparam classAttributeIconSize 0
skinparam linetype ortho



rectangle Bioladen {
    namespace bioladen.user {

    }

    namespace bioladen.finances {

    }

    namespace bioladen.data.log {

    }

    namespace bioladen.data.statistic {

    }

    namespace bioladen.product {

    }

    namespace bioladen.order {

    }

    bioladen.user <- - bioladen.finances
    bioladen.user <- - bioladen.data.log
    bioladen.user <- - bioladen.data.statistic
    bioladen.user <- - bioladen.order

    bioladen.finances <- - bioladen.order

    bioladen.data.statistic - -> bioladen.data.log

    bioladen.order - -> bioladen.product

    bioladen.data.log - -> bioladen.order
    bioladen.data.log - -> bioladen.product
    bioladen.data.log - -> bioladen.finances

}

@enduml

PlantUML version 1.2018.12(Sun Oct 21 12:15:15 CEST 2018)
(GPL source distribution)
Java Runtime: OpenJDK Runtime Environment
JVM: OpenJDK 64-Bit Server VM
Java Version: 11.0.1+13-Ubuntu-2ubuntu1
Operating System: Linux
OS Version: 4.18.0-10-generic
Default Encoding: UTF-8
Language: de
Country: DE
--></g></svg>