<?xml version="1.0" encoding="UTF-8" standalone="no"?><svg xmlns="http://www.w3.org/2000/svg" xmlns:xlink="http://www.w3.org/1999/xlink" contentScriptType="application/ecmascript" contentStyleType="text/css" height="975px" preserveAspectRatio="none" style="width:1145px;height:975px;" version="1.1" viewBox="0 0 1145 975" width="1145px" zoomAndPan="magnify"><defs><filter height="300%" id="f1jl3vwpc76u3v" width="300%" x="-1" y="-1"><feGaussianBlur result="blurOut" stdDeviation="2.0"/><feColorMatrix in="blurOut" result="blurOut2" type="matrix" values="0 0 0 0 0 0 0 0 0 0 0 0 0 0 0 0 0 0 .4 0"/><feOffset dx="4.0" dy="4.0" in="blurOut2" result="blurOut3"/><feBlend in="SourceGraphic" in2="blurOut3" mode="normal"/></filter><linearGradient id="g1jl3vwpc76u3v0" x1="0%" x2="100%" y1="0%" y2="100%"><stop offset="0%" stop-color="#C0C0C0"/><stop offset="100%" stop-color="#FFFFFF"/></linearGradient><linearGradient id="g1jl3vwpc76u3v1" x1="0%" x2="100%" y1="0%" y2="100%"><stop offset="0%" stop-color="#6495ED"/><stop offset="100%" stop-color="#00FFFF"/></linearGradient></defs><g><!--cluster Bioladen--><rect fill="#FFFFFF" filter="url(#f1jl3vwpc76u3v)" height="787" style="stroke: #A9A9A9; stroke-width: 1.5;" width="1112" x="22" y="24"/><text fill="#808080" font-family="sans-serif" font-size="14" font-weight="bold" lengthAdjust="spacingAndGlyphs" textLength="62" x="547" y="40.5332">Bioladen</text><!--cluster bioladen.product--><polygon fill="#FFFFFF" filter="url(#f1jl3vwpc76u3v)" points="46,68,172,68,179,91.6094,1110,91.6094,1110,787,46,787,46,68" style="stroke: #A9A9A9; stroke-width: 1.5;"/><line style="stroke: #A9A9A9; stroke-width: 1.5;" x1="46" x2="179" y1="91.6094" y2="91.6094"/><text fill="#808080" font-family="sans-serif" font-size="14" font-weight="bold" lengthAdjust="spacingAndGlyphs" textLength="120" x="50" y="84.5332">bioladen.product</text><!--class bioladen.product.InventoryProductCatalog--><rect fill="url(#g1jl3vwpc76u3v0)" filter="url(#f1jl3vwpc76u3v)" height="70.0234" id="bioladen.product.InventoryProductCatalog" style="stroke: #000000; stroke-width: 1.5;" width="204" x="849" y="536.5"/><ellipse cx="880.2" cy="556.5938" fill="#B4A7E5" rx="11" ry="11" style="stroke: #000000; stroke-width: 1.0;"/><path d="M881.1531,553.2344 L881.1531,559.8906 L882.8719,559.8906 Q883.4813,559.8906 883.7469,560.125 Q884.0125,560.3594 884.0125,560.75 Q884.0125,561.125 883.7469,561.3594 Q883.4813,561.5938 882.8719,561.5938 L877.7313,561.5938 Q877.1219,561.5938 876.8563,561.3594 Q876.5906,561.125 876.5906,560.7344 Q876.5906,560.3594 876.8563,560.125 Q877.1219,559.8906 877.7313,559.8906 L879.45,559.8906 L879.45,553.2344 L877.7313,553.2344 Q877.1219,553.2344 876.8563,553 Q876.5906,552.7656 876.5906,552.375 Q876.5906,552 876.8563,551.7656 Q877.1219,551.5313 877.7313,551.5313 L882.8719,551.5313 Q883.4813,551.5313 883.7469,551.7656 Q884.0125,552 884.0125,552.375 Q884.0125,552.7656 883.7469,553 Q883.4813,553.2344 882.8719,553.2344 L881.1531,553.2344 Z "/><text fill="#000000" font-family="sans-serif" font-size="12" font-style="italic" lengthAdjust="spacingAndGlyphs" textLength="73" x="929.3" y="553.957">«Repository»</text><text fill="#000000" font-family="sans-serif" font-size="12" font-style="italic" lengthAdjust="spacingAndGlyphs" textLength="136" x="897.8" y="569.0508">InventoryProductCatalog</text><line style="stroke: #000000; stroke-width: 1.5;" x1="850" x2="1052" y1="576.6875" y2="576.6875"/><line style="stroke: #000000; stroke-width: 1.5;" x1="850" x2="1052" y1="584.6875" y2="584.6875"/><text fill="#000000" font-family="sans-serif" font-size="11" lengthAdjust="spacingAndGlyphs" textLength="192" x="855" y="600.1064">+findAll() : ArrayList&lt;InventoryProduct&gt;</text><!--class bioladen.product.DistributorProductCatalog--><rect fill="url(#g1jl3vwpc76u3v0)" filter="url(#f1jl3vwpc76u3v)" height="70.0234" id="bioladen.product.DistributorProductCatalog" style="stroke: #000000; stroke-width: 1.5;" width="208" x="525" y="701"/><ellipse cx="555.3" cy="721.0938" fill="#B4A7E5" rx="11" ry="11" style="stroke: #000000; stroke-width: 1.0;"/><path d="M556.2531,717.7344 L556.2531,724.3906 L557.9719,724.3906 Q558.5813,724.3906 558.8469,724.625 Q559.1125,724.8594 559.1125,725.25 Q559.1125,725.625 558.8469,725.8594 Q558.5813,726.0938 557.9719,726.0938 L552.8313,726.0938 Q552.2219,726.0938 551.9563,725.8594 Q551.6906,725.625 551.6906,725.2344 Q551.6906,724.8594 551.9563,724.625 Q552.2219,724.3906 552.8313,724.3906 L554.55,724.3906 L554.55,717.7344 L552.8313,717.7344 Q552.2219,717.7344 551.9563,717.5 Q551.6906,717.2656 551.6906,716.875 Q551.6906,716.5 551.9563,716.2656 Q552.2219,716.0313 552.8313,716.0313 L557.9719,716.0313 Q558.5813,716.0313 558.8469,716.2656 Q559.1125,716.5 559.1125,716.875 Q559.1125,717.2656 558.8469,717.5 Q558.5813,717.7344 557.9719,717.7344 L556.2531,717.7344 Z "/><text fill="#000000" font-family="sans-serif" font-size="12" font-style="italic" lengthAdjust="spacingAndGlyphs" textLength="73" x="607.2" y="718.457">«Repository»</text><text fill="#000000" font-family="sans-serif" font-size="12" font-style="italic" lengthAdjust="spacingAndGlyphs" textLength="142" x="572.7" y="733.5508">DistributorProductCatalog</text><line style="stroke: #000000; stroke-width: 1.5;" x1="526" x2="732" y1="741.1875" y2="741.1875"/><line style="stroke: #000000; stroke-width: 1.5;" x1="526" x2="732" y1="749.1875" y2="749.1875"/><text fill="#000000" font-family="sans-serif" font-size="11" lengthAdjust="spacingAndGlyphs" textLength="196" x="531" y="764.6064">+findAll() : ArrayList&lt;DistributorProduct&gt;</text><!--class bioladen.product.DistributorProduct--><rect fill="url(#g1jl3vwpc76u3v0)" filter="url(#f1jl3vwpc76u3v)" height="139.2031" id="bioladen.product.DistributorProduct" style="stroke: #000000; stroke-width: 1.5;" width="337" x="460.5" y="502"/><ellipse cx="575.25" cy="522.0938" fill="#ADD1B2" rx="11" ry="11" style="stroke: #000000; stroke-width: 1.0;"/><path d="M578.0156,517.9688 Q578.1719,517.75 578.3594,517.6406 Q578.5469,517.5313 578.7656,517.5313 Q579.1406,517.5313 579.375,517.7891 Q579.6094,518.0469 579.6094,518.6563 L579.6094,520.1094 Q579.6094,520.7188 579.375,520.9844 Q579.1406,521.25 578.7656,521.25 Q578.4219,521.25 578.2188,521.0469 Q578.0156,520.8594 577.9063,520.3438 Q577.8594,519.9844 577.6719,519.7969 Q577.3438,519.4219 576.7344,519.2031 Q576.125,518.9844 575.5,518.9844 Q574.7344,518.9844 574.1016,519.3125 Q573.4688,519.6406 572.9766,520.3906 Q572.4844,521.1406 572.4844,522.1719 L572.4844,523.2656 Q572.4844,524.5 573.375,525.3203 Q574.2656,526.1406 575.8594,526.1406 Q576.7969,526.1406 577.4531,525.8906 Q577.8438,525.7344 578.2656,525.2969 Q578.5313,525.0313 578.6797,524.9531 Q578.8281,524.875 579.0313,524.875 Q579.3594,524.875 579.6172,525.1328 Q579.875,525.3906 579.875,525.7344 Q579.875,526.0781 579.5313,526.4844 Q579.0313,527.0625 578.2344,527.3906 Q577.1563,527.8438 575.8594,527.8438 Q574.3438,527.8438 573.1406,527.2188 Q572.1563,526.7188 571.4688,525.6484 Q570.7813,524.5781 570.7813,523.2969 L570.7813,522.1406 Q570.7813,520.8125 571.3984,519.6641 Q572.0156,518.5156 573.1094,517.8984 Q574.2031,517.2813 575.4375,517.2813 Q576.1719,517.2813 576.8203,517.4453 Q577.4688,517.6094 578.0156,517.9688 Z "/><text fill="#000000" font-family="sans-serif" font-size="12" font-style="italic" lengthAdjust="spacingAndGlyphs" textLength="44" x="623.25" y="519.457">«Entity»</text><text fill="#000000" font-family="sans-serif" font-size="12" lengthAdjust="spacingAndGlyphs" textLength="99" x="595.75" y="534.5508">DistributorProduct</text><line style="stroke: #000000; stroke-width: 1.5;" x1="461.5" x2="796.5" y1="542.1875" y2="542.1875"/><text fill="#000000" font-family="sans-serif" font-size="11" lengthAdjust="spacingAndGlyphs" textLength="163" x="466.5" y="557.6064">-distributorProductIdentifier : Long</text><text fill="#000000" font-family="sans-serif" font-size="11" lengthAdjust="spacingAndGlyphs" textLength="82" x="466.5" y="571.4424">-unit : BigDecimal</text><text fill="#000000" font-family="sans-serif" font-size="11" lengthAdjust="spacingAndGlyphs" textLength="89" x="466.5" y="585.2783">-price : BigDecimal</text><text fill="#000000" font-family="sans-serif" font-size="11" lengthAdjust="spacingAndGlyphs" textLength="110" x="466.5" y="599.1143">-distributor : Distributor</text><text fill="#000000" font-family="sans-serif" font-size="11" lengthAdjust="spacingAndGlyphs" textLength="138" x="466.5" y="612.9502">-minimumOrderAmount : long</text><line style="stroke: #000000; stroke-width: 1.5;" x1="461.5" x2="796.5" y1="619.3672" y2="619.3672"/><text fill="#000000" font-family="sans-serif" font-size="11" lengthAdjust="spacingAndGlyphs" textLength="325" x="466.5" y="634.7861">+DistributorProduct(String, Distributor, BigDecimal, BigDecimal, long)</text><!--class bioladen.product.InventoryProduct--><rect fill="url(#g1jl3vwpc76u3v0)" filter="url(#f1jl3vwpc76u3v)" height="153.0391" id="bioladen.product.InventoryProduct" style="stroke: #000000; stroke-width: 1.5;" width="285" x="808.5" y="289"/><ellipse cx="901.75" cy="309.0938" fill="#ADD1B2" rx="11" ry="11" style="stroke: #000000; stroke-width: 1.0;"/><path d="M904.5156,304.9688 Q904.6719,304.75 904.8594,304.6406 Q905.0469,304.5313 905.2656,304.5313 Q905.6406,304.5313 905.875,304.7891 Q906.1094,305.0469 906.1094,305.6563 L906.1094,307.1094 Q906.1094,307.7188 905.875,307.9844 Q905.6406,308.25 905.2656,308.25 Q904.9219,308.25 904.7188,308.0469 Q904.5156,307.8594 904.4063,307.3438 Q904.3594,306.9844 904.1719,306.7969 Q903.8438,306.4219 903.2344,306.2031 Q902.625,305.9844 902,305.9844 Q901.2344,305.9844 900.6016,306.3125 Q899.9688,306.6406 899.4766,307.3906 Q898.9844,308.1406 898.9844,309.1719 L898.9844,310.2656 Q898.9844,311.5 899.875,312.3203 Q900.7656,313.1406 902.3594,313.1406 Q903.2969,313.1406 903.9531,312.8906 Q904.3438,312.7344 904.7656,312.2969 Q905.0313,312.0313 905.1797,311.9531 Q905.3281,311.875 905.5313,311.875 Q905.8594,311.875 906.1172,312.1328 Q906.375,312.3906 906.375,312.7344 Q906.375,313.0781 906.0313,313.4844 Q905.5313,314.0625 904.7344,314.3906 Q903.6563,314.8438 902.3594,314.8438 Q900.8438,314.8438 899.6406,314.2188 Q898.6563,313.7188 897.9688,312.6484 Q897.2813,311.5781 897.2813,310.2969 L897.2813,309.1406 Q897.2813,307.8125 897.8984,306.6641 Q898.5156,305.5156 899.6094,304.8984 Q900.7031,304.2813 901.9375,304.2813 Q902.6719,304.2813 903.3203,304.4453 Q903.9688,304.6094 904.5156,304.9688 Z "/><text fill="#000000" font-family="sans-serif" font-size="12" font-style="italic" lengthAdjust="spacingAndGlyphs" textLength="44" x="945.25" y="306.457">«Entity»</text><text fill="#000000" font-family="sans-serif" font-size="12" lengthAdjust="spacingAndGlyphs" textLength="90" x="922.25" y="321.5508">InventoryProduct</text><line style="stroke: #000000; stroke-width: 1.5;" x1="809.5" x2="1092.5" y1="329.1875" y2="329.1875"/><text fill="#000000" font-family="sans-serif" font-size="11" lengthAdjust="spacingAndGlyphs" textLength="104" x="814.5" y="344.6064">// Inventory Attributes</text><line style="stroke: #000000; stroke-width: 1.5;" x1="809.5" x2="1092.5" y1="351.0234" y2="351.0234"/><text fill="#000000" font-family="sans-serif" font-size="11" lengthAdjust="spacingAndGlyphs" textLength="273" x="814.5" y="366.4424">// Methods() : Getter and Setter from Inventory Attributes</text><text fill="#000000" font-family="sans-serif" font-size="11" lengthAdjust="spacingAndGlyphs" textLength="252" x="814.5" y="380.2783">+InventoryProduct(String, DistributorProductCatalog)</text><text fill="#000000" font-family="sans-serif" font-size="11" lengthAdjust="spacingAndGlyphs" textLength="198" x="814.5" y="394.1143">+removeDisplayedAmount(long): boolean</text><text fill="#000000" font-family="sans-serif" font-size="11" lengthAdjust="spacingAndGlyphs" textLength="106" x="814.5" y="407.9502">+toEan13(Long) : long</text><text fill="#000000" font-family="sans-serif" font-size="11" lengthAdjust="spacingAndGlyphs" textLength="119" x="814.5" y="421.7861">+fromEan13(Long) : long</text><text fill="#000000" font-family="sans-serif" font-size="11" lengthAdjust="spacingAndGlyphs" textLength="126" x="814.5" y="435.6221">-getCheckSum(String) : int</text><!--class bioladen.product.Distributor--><rect fill="url(#g1jl3vwpc76u3v0)" filter="url(#f1jl3vwpc76u3v)" height="111.5313" id="bioladen.product.Distributor" style="stroke: #000000; stroke-width: 1.5;" width="289" x="484.5" y="309.5"/><ellipse cx="596.25" cy="329.5938" fill="#ADD1B2" rx="11" ry="11" style="stroke: #000000; stroke-width: 1.0;"/><path d="M599.0156,325.4688 Q599.1719,325.25 599.3594,325.1406 Q599.5469,325.0313 599.7656,325.0313 Q600.1406,325.0313 600.375,325.2891 Q600.6094,325.5469 600.6094,326.1563 L600.6094,327.6094 Q600.6094,328.2188 600.375,328.4844 Q600.1406,328.75 599.7656,328.75 Q599.4219,328.75 599.2188,328.5469 Q599.0156,328.3594 598.9063,327.8438 Q598.8594,327.4844 598.6719,327.2969 Q598.3438,326.9219 597.7344,326.7031 Q597.125,326.4844 596.5,326.4844 Q595.7344,326.4844 595.1016,326.8125 Q594.4688,327.1406 593.9766,327.8906 Q593.4844,328.6406 593.4844,329.6719 L593.4844,330.7656 Q593.4844,332 594.375,332.8203 Q595.2656,333.6406 596.8594,333.6406 Q597.7969,333.6406 598.4531,333.3906 Q598.8438,333.2344 599.2656,332.7969 Q599.5313,332.5313 599.6797,332.4531 Q599.8281,332.375 600.0313,332.375 Q600.3594,332.375 600.6172,332.6328 Q600.875,332.8906 600.875,333.2344 Q600.875,333.5781 600.5313,333.9844 Q600.0313,334.5625 599.2344,334.8906 Q598.1563,335.3438 596.8594,335.3438 Q595.3438,335.3438 594.1406,334.7188 Q593.1563,334.2188 592.4688,333.1484 Q591.7813,332.0781 591.7813,330.7969 L591.7813,329.6406 Q591.7813,328.3125 592.3984,327.1641 Q593.0156,326.0156 594.1094,325.3984 Q595.2031,324.7813 596.4375,324.7813 Q597.1719,324.7813 597.8203,324.9453 Q598.4688,325.1094 599.0156,325.4688 Z "/><text fill="#000000" font-family="sans-serif" font-size="12" font-style="italic" lengthAdjust="spacingAndGlyphs" textLength="44" x="623.25" y="326.957">«Entity»</text><text fill="#000000" font-family="sans-serif" font-size="12" lengthAdjust="spacingAndGlyphs" textLength="57" x="616.75" y="342.0508">Distributor</text><line style="stroke: #000000; stroke-width: 1.5;" x1="485.5" x2="772.5" y1="349.6875" y2="349.6875"/><text fill="#000000" font-family="sans-serif" font-size="11" lengthAdjust="spacingAndGlyphs" textLength="108" x="490.5" y="365.1064">// Distributor Attributes</text><line style="stroke: #000000; stroke-width: 1.5;" x1="485.5" x2="772.5" y1="371.5234" y2="371.5234"/><text fill="#000000" font-family="sans-serif" font-size="11" lengthAdjust="spacingAndGlyphs" textLength="277" x="490.5" y="386.9424">// Methods() : Getter and Setter from Distributor Attributes</text><text fill="#000000" font-family="sans-serif" font-size="11" lengthAdjust="spacingAndGlyphs" textLength="193" x="490.5" y="400.7783">+Distributor(String, String, String, String)</text><text fill="#000000" font-family="sans-serif" font-size="11" lengthAdjust="spacingAndGlyphs" textLength="240" x="490.5" y="414.6143">+publishDistributorCreatedEvent(Distributor) : void</text><!--class bioladen.product.InventoryProductController--><rect fill="url(#g1jl3vwpc76u3v1)" filter="url(#f1jl3vwpc76u3v)" height="125.3672" id="bioladen.product.InventoryProductController" style="stroke: #000000; stroke-width: 1.5;" width="400" x="694" y="104"/><ellipse cx="817.75" cy="124.0938" fill="#ADD1B2" rx="11" ry="11" style="stroke: #000000; stroke-width: 1.0;"/><path d="M820.5156,119.9688 Q820.6719,119.75 820.8594,119.6406 Q821.0469,119.5313 821.2656,119.5313 Q821.6406,119.5313 821.875,119.7891 Q822.1094,120.0469 822.1094,120.6563 L822.1094,122.1094 Q822.1094,122.7188 821.875,122.9844 Q821.6406,123.25 821.2656,123.25 Q820.9219,123.25 820.7188,123.0469 Q820.5156,122.8594 820.4063,122.3438 Q820.3594,121.9844 820.1719,121.7969 Q819.8438,121.4219 819.2344,121.2031 Q818.625,120.9844 818,120.9844 Q817.2344,120.9844 816.6016,121.3125 Q815.9688,121.6406 815.4766,122.3906 Q814.9844,123.1406 814.9844,124.1719 L814.9844,125.2656 Q814.9844,126.5 815.875,127.3203 Q816.7656,128.1406 818.3594,128.1406 Q819.2969,128.1406 819.9531,127.8906 Q820.3438,127.7344 820.7656,127.2969 Q821.0313,127.0313 821.1797,126.9531 Q821.3281,126.875 821.5313,126.875 Q821.8594,126.875 822.1172,127.1328 Q822.375,127.3906 822.375,127.7344 Q822.375,128.0781 822.0313,128.4844 Q821.5313,129.0625 820.7344,129.3906 Q819.6563,129.8438 818.3594,129.8438 Q816.8438,129.8438 815.6406,129.2188 Q814.6563,128.7188 813.9688,127.6484 Q813.2813,126.5781 813.2813,125.2969 L813.2813,124.1406 Q813.2813,122.8125 813.8984,121.6641 Q814.5156,120.5156 815.6094,119.8984 Q816.7031,119.2813 817.9375,119.2813 Q818.6719,119.2813 819.3203,119.4453 Q819.9688,119.6094 820.5156,119.9688 Z "/><text fill="#000000" font-family="sans-serif" font-size="12" font-style="italic" lengthAdjust="spacingAndGlyphs" textLength="68" x="876.25" y="121.457">«Controller»</text><text fill="#000000" font-family="sans-serif" font-size="12" lengthAdjust="spacingAndGlyphs" textLength="144" x="838.25" y="136.5508">InventoryProductController</text><line style="stroke: #000000; stroke-width: 1.5;" x1="695" x2="1093" y1="144.1875" y2="144.1875"/><text fill="#000000" font-family="sans-serif" font-size="11" lengthAdjust="spacingAndGlyphs" textLength="249" x="700" y="159.6064">-inventoryProductCatalog : InventoryProductCatalog</text><text fill="#000000" font-family="sans-serif" font-size="11" lengthAdjust="spacingAndGlyphs" textLength="256" x="700" y="173.4424">-distributorProductCatalog : DistributorProductCatalog</text><line style="stroke: #000000; stroke-width: 1.5;" x1="695" x2="1093" y1="179.8594" y2="179.8594"/><text fill="#000000" font-family="sans-serif" font-size="11" lengthAdjust="spacingAndGlyphs" textLength="388" x="700" y="195.2783">+InventoryProductController(InventoryProductCatalog, DistributorProductCatalog)</text><text fill="#000000" font-family="sans-serif" font-size="11" lengthAdjust="spacingAndGlyphs" textLength="122" x="700" y="209.1143">+showProducts() : String</text><text fill="#000000" font-family="sans-serif" font-size="11" lengthAdjust="spacingAndGlyphs" textLength="130" x="700" y="222.9502">+addProduct(Long) : String</text><!--class bioladen.product.DistributorController--><rect fill="url(#g1jl3vwpc76u3v1)" filter="url(#f1jl3vwpc76u3v)" height="125.3672" id="bioladen.product.DistributorController" style="stroke: #000000; stroke-width: 1.5;" width="260" x="399" y="104"/><ellipse cx="469.25" cy="124.0938" fill="#ADD1B2" rx="11" ry="11" style="stroke: #000000; stroke-width: 1.0;"/><path d="M472.0156,119.9688 Q472.1719,119.75 472.3594,119.6406 Q472.5469,119.5313 472.7656,119.5313 Q473.1406,119.5313 473.375,119.7891 Q473.6094,120.0469 473.6094,120.6563 L473.6094,122.1094 Q473.6094,122.7188 473.375,122.9844 Q473.1406,123.25 472.7656,123.25 Q472.4219,123.25 472.2188,123.0469 Q472.0156,122.8594 471.9063,122.3438 Q471.8594,121.9844 471.6719,121.7969 Q471.3438,121.4219 470.7344,121.2031 Q470.125,120.9844 469.5,120.9844 Q468.7344,120.9844 468.1016,121.3125 Q467.4688,121.6406 466.9766,122.3906 Q466.4844,123.1406 466.4844,124.1719 L466.4844,125.2656 Q466.4844,126.5 467.375,127.3203 Q468.2656,128.1406 469.8594,128.1406 Q470.7969,128.1406 471.4531,127.8906 Q471.8438,127.7344 472.2656,127.2969 Q472.5313,127.0313 472.6797,126.9531 Q472.8281,126.875 473.0313,126.875 Q473.3594,126.875 473.6172,127.1328 Q473.875,127.3906 473.875,127.7344 Q473.875,128.0781 473.5313,128.4844 Q473.0313,129.0625 472.2344,129.3906 Q471.1563,129.8438 469.8594,129.8438 Q468.3438,129.8438 467.1406,129.2188 Q466.1563,128.7188 465.4688,127.6484 Q464.7813,126.5781 464.7813,125.2969 L464.7813,124.1406 Q464.7813,122.8125 465.3984,121.6641 Q466.0156,120.5156 467.1094,119.8984 Q468.2031,119.2813 469.4375,119.2813 Q470.1719,119.2813 470.8203,119.4453 Q471.4688,119.6094 472.0156,119.9688 Z "/><text fill="#000000" font-family="sans-serif" font-size="12" font-style="italic" lengthAdjust="spacingAndGlyphs" textLength="68" x="511.25" y="121.457">«Controller»</text><text fill="#000000" font-family="sans-serif" font-size="12" lengthAdjust="spacingAndGlyphs" textLength="111" x="489.75" y="136.5508">DistributorController</text><line style="stroke: #000000; stroke-width: 1.5;" x1="400" x2="658" y1="144.1875" y2="144.1875"/><text fill="#000000" font-family="sans-serif" font-size="11" lengthAdjust="spacingAndGlyphs" textLength="214" x="405" y="159.6064">-distributorRepository : DistributorRepository</text><line style="stroke: #000000; stroke-width: 1.5;" x1="400" x2="658" y1="166.0234" y2="166.0234"/><text fill="#000000" font-family="sans-serif" font-size="11" lengthAdjust="spacingAndGlyphs" textLength="210" x="405" y="181.4424">+DistributorController(DistributorRepository)</text><text fill="#000000" font-family="sans-serif" font-size="11" lengthAdjust="spacingAndGlyphs" textLength="134" x="405" y="195.2783">+showDistributors() : String</text><text fill="#000000" font-family="sans-serif" font-size="11" lengthAdjust="spacingAndGlyphs" textLength="248" x="405" y="209.1143">+addDistributor(String, String, String, String) : String</text><text fill="#000000" font-family="sans-serif" font-size="11" lengthAdjust="spacingAndGlyphs" textLength="160" x="405" y="222.9502">+removeDistributor(Long) : String</text><!--class bioladen.product.DistributorRepository--><rect fill="url(#g1jl3vwpc76u3v0)" filter="url(#f1jl3vwpc76u3v)" height="70.0234" id="bioladen.product.DistributorRepository" style="stroke: #000000; stroke-width: 1.5;" width="171" x="192.5" y="131.5"/><ellipse cx="217.85" cy="151.5938" fill="#B4A7E5" rx="11" ry="11" style="stroke: #000000; stroke-width: 1.0;"/><path d="M218.8031,148.2344 L218.8031,154.8906 L220.5219,154.8906 Q221.1313,154.8906 221.3969,155.125 Q221.6625,155.3594 221.6625,155.75 Q221.6625,156.125 221.3969,156.3594 Q221.1313,156.5938 220.5219,156.5938 L215.3813,156.5938 Q214.7719,156.5938 214.5063,156.3594 Q214.2406,156.125 214.2406,155.7344 Q214.2406,155.3594 214.5063,155.125 Q214.7719,154.8906 215.3813,154.8906 L217.1,154.8906 L217.1,148.2344 L215.3813,148.2344 Q214.7719,148.2344 214.5063,148 Q214.2406,147.7656 214.2406,147.375 Q214.2406,147 214.5063,146.7656 Q214.7719,146.5313 215.3813,146.5313 L220.5219,146.5313 Q221.1313,146.5313 221.3969,146.7656 Q221.6625,147 221.6625,147.375 Q221.6625,147.7656 221.3969,148 Q221.1313,148.2344 220.5219,148.2344 L218.8031,148.2344 Z "/><text fill="#000000" font-family="sans-serif" font-size="12" font-style="italic" lengthAdjust="spacingAndGlyphs" textLength="73" x="255.65" y="148.957">«Repository»</text><text fill="#000000" font-family="sans-serif" font-size="12" font-style="italic" lengthAdjust="spacingAndGlyphs" textLength="116" x="234.15" y="164.0508">DistributorRepository</text><line style="stroke: #000000; stroke-width: 1.5;" x1="193.5" x2="362.5" y1="171.6875" y2="171.6875"/><line style="stroke: #000000; stroke-width: 1.5;" x1="193.5" x2="362.5" y1="179.6875" y2="179.6875"/><text fill="#000000" font-family="sans-serif" font-size="11" lengthAdjust="spacingAndGlyphs" textLength="159" x="198.5" y="195.1064">+findAll() : ArrayList&lt;Distributor&gt;</text><!--class bioladen.product.DistributorProductController--><rect fill="url(#g1jl3vwpc76u3v1)" filter="url(#f1jl3vwpc76u3v)" height="139.2031" id="bioladen.product.DistributorProductController" style="stroke: #000000; stroke-width: 1.5;" width="387" x="62.5" y="296"/><ellipse cx="175.25" cy="316.0938" fill="#ADD1B2" rx="11" ry="11" style="stroke: #000000; stroke-width: 1.0;"/><path d="M178.0156,311.9688 Q178.1719,311.75 178.3594,311.6406 Q178.5469,311.5313 178.7656,311.5313 Q179.1406,311.5313 179.375,311.7891 Q179.6094,312.0469 179.6094,312.6563 L179.6094,314.1094 Q179.6094,314.7188 179.375,314.9844 Q179.1406,315.25 178.7656,315.25 Q178.4219,315.25 178.2188,315.0469 Q178.0156,314.8594 177.9063,314.3438 Q177.8594,313.9844 177.6719,313.7969 Q177.3438,313.4219 176.7344,313.2031 Q176.125,312.9844 175.5,312.9844 Q174.7344,312.9844 174.1016,313.3125 Q173.4688,313.6406 172.9766,314.3906 Q172.4844,315.1406 172.4844,316.1719 L172.4844,317.2656 Q172.4844,318.5 173.375,319.3203 Q174.2656,320.1406 175.8594,320.1406 Q176.7969,320.1406 177.4531,319.8906 Q177.8438,319.7344 178.2656,319.2969 Q178.5313,319.0313 178.6797,318.9531 Q178.8281,318.875 179.0313,318.875 Q179.3594,318.875 179.6172,319.1328 Q179.875,319.3906 179.875,319.7344 Q179.875,320.0781 179.5313,320.4844 Q179.0313,321.0625 178.2344,321.3906 Q177.1563,321.8438 175.8594,321.8438 Q174.3438,321.8438 173.1406,321.2188 Q172.1563,320.7188 171.4688,319.6484 Q170.7813,318.5781 170.7813,317.2969 L170.7813,316.1406 Q170.7813,314.8125 171.3984,313.6641 Q172.0156,312.5156 173.1094,311.8984 Q174.2031,311.2813 175.4375,311.2813 Q176.1719,311.2813 176.8203,311.4453 Q177.4688,311.6094 178.0156,311.9688 Z "/><text fill="#000000" font-family="sans-serif" font-size="12" font-style="italic" lengthAdjust="spacingAndGlyphs" textLength="68" x="238.25" y="313.457">«Controller»</text><text fill="#000000" font-family="sans-serif" font-size="12" lengthAdjust="spacingAndGlyphs" textLength="153" x="195.75" y="328.5508">DistributorProductController</text><line style="stroke: #000000; stroke-width: 1.5;" x1="63.5" x2="448.5" y1="336.1875" y2="336.1875"/><text fill="#000000" font-family="sans-serif" font-size="11" lengthAdjust="spacingAndGlyphs" textLength="256" x="68.5" y="351.6064">-distributorProductCatalog : DistributorProductCatalog</text><text fill="#000000" font-family="sans-serif" font-size="11" lengthAdjust="spacingAndGlyphs" textLength="214" x="68.5" y="365.4424">-distributorRepository : DistributorRepository</text><line style="stroke: #000000; stroke-width: 1.5;" x1="63.5" x2="448.5" y1="371.8594" y2="371.8594"/><text fill="#000000" font-family="sans-serif" font-size="11" lengthAdjust="spacingAndGlyphs" textLength="375" x="68.5" y="387.2783">+DistributorProductController(DistributorProductCatalog. DistributorRepository)</text><text fill="#000000" font-family="sans-serif" font-size="11" lengthAdjust="spacingAndGlyphs" textLength="171" x="68.5" y="401.1143">+showDistributorProducts() : String</text><text fill="#000000" font-family="sans-serif" font-size="11" lengthAdjust="spacingAndGlyphs" textLength="123" x="68.5" y="414.9502">+distributorForm() : String</text><text fill="#000000" font-family="sans-serif" font-size="11" lengthAdjust="spacingAndGlyphs" textLength="270" x="68.5" y="428.7861">+addDistributor(String, Long, String, String, long) : String</text><!--link bioladen.product.InventoryProduct to bioladen.product.DistributorProduct--><path d="M795.165,439 C795.165,439 785.5,439 785.5,439 C785.5,439 785.5,469.837 785.5,501.758 " fill="none" id="bioladen.product.InventoryProduct-bioladen.product.DistributorProduct" style="stroke: #000000; stroke-width: 1.0;"/><polygon fill="#FFFFFF" points="808.165,439,802.165,435,796.165,439,802.165,443,808.165,439" style="stroke: #000000; stroke-width: 1.0;"/><!--link bioladen.product.DistributorProduct to bioladen.product.DistributorProductCatalog--><path d="M629,641.263 C629,641.263 629,687.663 629,687.663 " fill="none" id="bioladen.product.DistributorProduct-bioladen.product.DistributorProductCatalog" style="stroke: #000000; stroke-width: 1.0;"/><polygon fill="#000000" points="629,700.663,633,694.663,629,688.663,625,694.663,629,700.663" style="stroke: #000000; stroke-width: 1.0;"/><text fill="#000000" font-family="sans-serif" font-size="13" lengthAdjust="spacingAndGlyphs" textLength="7" x="621.3547" y="690.1981">1</text><!--link bioladen.product.InventoryProduct to bioladen.product.InventoryProductCatalog--><path d="M951,442.207 C951,442.207 951,523.471 951,523.471 " fill="none" id="bioladen.product.InventoryProduct-bioladen.product.InventoryProductCatalog" style="stroke: #000000; stroke-width: 1.0;"/><polygon fill="#000000" points="951,536.471,955,530.471,951,524.471,947,530.471,951,536.471" style="stroke: #000000; stroke-width: 1.0;"/><text fill="#000000" font-family="sans-serif" font-size="13" lengthAdjust="spacingAndGlyphs" textLength="7" x="943.3109" y="525.5271">1</text><!--link bioladen.product.InventoryProductController to bioladen.product.InventoryProduct--><path d="M951,229.192 C951,229.192 951,283.796 951,283.796 " fill="none" id="bioladen.product.InventoryProductController-bioladen.product.InventoryProduct" style="stroke: #000000; stroke-width: 1.0;"/><polygon fill="#000000" points="951,288.796,955,279.796,951,283.796,947,279.796,951,288.796" style="stroke: #000000; stroke-width: 1.0;"/><!--link bioladen.product.DistributorController to bioladen.product.Distributor--><path d="M600.833,229.192 C600.833,229.192 600.833,304.19 600.833,304.19 " fill="none" id="bioladen.product.DistributorController-bioladen.product.Distributor" style="stroke: #000000; stroke-width: 1.0;"/><polygon fill="#000000" points="600.833,309.19,604.833,300.19,600.833,304.19,596.833,300.19,600.833,309.19" style="stroke: #000000; stroke-width: 1.0;"/><!--link bioladen.product.DistributorProductController to bioladen.product.DistributorProduct--><path d="M449.74,429 C463.738,429 472.5,429 472.5,429 C472.5,429 472.5,496.92 472.5,496.92 " fill="none" id="bioladen.product.DistributorProductController-bioladen.product.DistributorProduct" style="stroke: #000000; stroke-width: 1.0;"/><polygon fill="#000000" points="472.5,501.92,476.5,492.92,472.5,496.92,468.5,492.92,472.5,501.92" style="stroke: #000000; stroke-width: 1.0;"/><!--link bioladen.product.DistributorRepository to bioladen.product.Distributor--><path d="M278,201.734 C278,227.875 278,259 278,259 C278,259 542.667,259 542.667,259 C542.667,259 542.667,304.443 542.667,304.443 " fill="none" id="bioladen.product.DistributorRepository-bioladen.product.Distributor" style="stroke: #000000; stroke-width: 1.0;"/><polygon fill="#000000" points="542.667,309.443,546.667,300.443,542.667,304.443,538.667,300.443,542.667,309.443" style="stroke: #000000; stroke-width: 1.0;"/><!--link bioladen.product.Distributor to bioladen.product.DistributorProduct--><path d="M629,434.518 C629,434.518 629,501.874 629,501.874 " fill="none" id="bioladen.product.Distributor-bioladen.product.DistributorProduct" style="stroke: #000000; stroke-width: 1.0;"/><polygon fill="#000000" points="629,421.518,625,427.518,629,433.518,633,427.518,629,421.518" style="stroke: #000000; stroke-width: 1.0;"/><text fill="#000000" font-family="sans-serif" font-size="13" lengthAdjust="spacingAndGlyphs" textLength="7" x="621.5953" y="442.4626">1</text><rect fill="#DDDDDD" height="119.6563" rx="5" ry="5" style="stroke: #000000; stroke-width: 1.0;" width="194" x="486.5" y="845"/><text fill="#000000" font-family="sans-serif" font-size="14" font-weight="bold" lengthAdjust="spacingAndGlyphs" textLength="85" x="496.5" y="866.5332">Background</text><text fill="#000000" font-family="sans-serif" font-size="14" font-weight="bold" lengthAdjust="spacingAndGlyphs" textLength="81" x="589.5" y="866.5332">Component</text><rect fill="#3DD13F" height="17.6094" style="stroke: none; stroke-width: 1.0;" width="93" x="492.5" y="869.6094"/><text fill="#000000" font-family="sans-serif" font-size="14" lengthAdjust="spacingAndGlyphs" textLength="0" x="512.5" y="884.1426"/><text fill="#000000" font-family="sans-serif" font-size="14" lengthAdjust="spacingAndGlyphs" textLength="29" x="589.5" y="884.1426">View</text><rect fill="#5F9AEA" height="17.6094" style="stroke: none; stroke-width: 1.0;" width="93" x="492.5" y="887.2188"/><text fill="#000000" font-family="sans-serif" font-size="14" lengthAdjust="spacingAndGlyphs" textLength="0" x="512.5" y="901.752"/><text fill="#000000" font-family="sans-serif" font-size="14" lengthAdjust="spacingAndGlyphs" textLength="62" x="589.5" y="901.752">Controller</text><rect fill="#CEF6CE" height="17.6094" style="stroke: none; stroke-width: 1.0;" width="93" x="492.5" y="904.8281"/><text fill="#000000" font-family="sans-serif" font-size="14" lengthAdjust="spacingAndGlyphs" textLength="0" x="512.5" y="919.3613"/><text fill="#000000" font-family="sans-serif" font-size="14" lengthAdjust="spacingAndGlyphs" textLength="41" x="589.5" y="919.3613">Spring</text><rect fill="#F5A9BC" height="17.6094" style="stroke: none; stroke-width: 1.0;" width="93" x="492.5" y="922.4375"/><text fill="#000000" font-family="sans-serif" font-size="14" lengthAdjust="spacingAndGlyphs" textLength="0" x="512.5" y="936.9707"/><text fill="#000000" font-family="sans-serif" font-size="14" lengthAdjust="spacingAndGlyphs" textLength="66" x="589.5" y="936.9707">Salespoint</text><rect fill="#F9ED93" height="17.6094" style="stroke: none; stroke-width: 1.0;" width="93" x="492.5" y="940.0469"/><text fill="#000000" font-family="sans-serif" font-size="14" lengthAdjust="spacingAndGlyphs" textLength="0" x="512.5" y="954.5801"/><text fill="#000000" font-family="sans-serif" font-size="14" lengthAdjust="spacingAndGlyphs" textLength="29" x="589.5" y="954.5801">Java</text><line style="stroke: #000000; stroke-width: 1.0;" x1="492.5" x2="674.5" y1="852" y2="852"/><line style="stroke: #000000; stroke-width: 1.0;" x1="492.5" x2="674.5" y1="869.6094" y2="869.6094"/><line style="stroke: #000000; stroke-width: 1.0;" x1="492.5" x2="674.5" y1="887.2188" y2="887.2188"/><line style="stroke: #000000; stroke-width: 1.0;" x1="492.5" x2="674.5" y1="904.8281" y2="904.8281"/><line style="stroke: #000000; stroke-width: 1.0;" x1="492.5" x2="674.5" y1="922.4375" y2="922.4375"/><line style="stroke: #000000; stroke-width: 1.0;" x1="492.5" x2="674.5" y1="940.0469" y2="940.0469"/><line style="stroke: #000000; stroke-width: 1.0;" x1="492.5" x2="674.5" y1="957.6563" y2="957.6563"/><line style="stroke: #000000; stroke-width: 1.0;" x1="492.5" x2="492.5" y1="852" y2="957.6563"/><line style="stroke: #000000; stroke-width: 1.0;" x1="585.5" x2="585.5" y1="852" y2="957.6563"/><line style="stroke: #000000; stroke-width: 1.0;" x1="674.5" x2="674.5" y1="852" y2="957.6563"/><!--
@startuml




skinparam class {
	BackgroundColor #Silver/white
	BackgroundColor<<Spring>> #a9f5e1/cef6ce
	BackgroundColor<<Salespoint>> #f5a9bc/fcc4f0
	BackgroundColor<<Java>> #f9ed93/f7f583
	BackgroundColor<<Controller>> #Cornflowerblue/Cyan
    BorderColor Black
    ArrowColor  Black
}

skinparam package {
    FontColor Grey
    BorderColor Darkgrey
}

skinparam classAttributeIconSize 0
skinparam linetype ortho

legend
| Background | Component |
|<#3dd13f>     | View |
|<#5f9aea>     | Controller |
|<#cef6ce>     | Spring |
|<#f5a9bc>     | Salespoint |
|<#f9ed93>     | Java |
endlegend




rectangle Bioladen {

    namespace bioladen.product {

        interface InventoryProductCatalog <<Repository>> {
            +findAll() : ArrayList<InventoryProduct>
        }

        interface DistributorProductCatalog <<Repository>>  {
            +findAll() : ArrayList<DistributorProduct>
        }

        class DistributorProduct <<Entity>> {
            -distributorProductIdentifier : Long
            -unit : BigDecimal
            -price : BigDecimal
            -distributor : Distributor
            -minimumOrderAmount : long

            +DistributorProduct(String, Distributor, BigDecimal, BigDecimal, long)
        }

        class InventoryProduct <<Entity>> {
            // Inventory Attributes

            // Methods() : Getter and Setter from Inventory Attributes
            +InventoryProduct(String, DistributorProductCatalog)
            +removeDisplayedAmount(long): boolean
            +toEan13(Long) : long
            +fromEan13(Long) : long
            -getCheckSum(String) : int
        }

        class Distributor <<Entity>> {
            // Distributor Attributes

            // Methods() : Getter and Setter from Distributor Attributes
            +Distributor(String, String, String, String)
            +publishDistributorCreatedEvent(Distributor) : void
         }




        InventoryProduct  o- -  DistributorProduct
        DistributorProduct  - -* "1" DistributorProductCatalog
        InventoryProduct - -* "1" InventoryProductCatalog


        class InventoryProductController <<Controller>> {
            -inventoryProductCatalog : InventoryProductCatalog
            -distributorProductCatalog : DistributorProductCatalog

            +InventoryProductController(InventoryProductCatalog, DistributorProductCatalog)
            +showProducts() : String
            +addProduct(Long) : String
        }

        class DistributorController <<Controller>> {
            -distributorRepository : DistributorRepository

            +DistributorController(DistributorRepository)
            +showDistributors() : String
            +addDistributor(String, String, String, String) : String
            +removeDistributor(Long) : String
        }

        interface DistributorRepository <<Repository>> {
            +findAll() : ArrayList<Distributor>
        }

        class DistributorProductController <<Controller>> {
            -distributorProductCatalog : DistributorProductCatalog
            -distributorRepository : DistributorRepository

            +DistributorProductController(DistributorProductCatalog. DistributorRepository)
            +showDistributorProducts() : String
            +distributorForm() : String
            +addDistributor(String, Long, String, String, long) : String
        }



        InventoryProductController - -> InventoryProduct
        DistributorController - -> Distributor
        DistributorProductController - -> DistributorProduct
        DistributorRepository - -> Distributor

    }









}


bioladen.product.Distributor "1" *- -  bioladen.product.DistributorProduct


@enduml

PlantUML version 1.2018.12(Sun Oct 21 12:15:15 CEST 2018)
(GPL source distribution)
Java Runtime: Java(TM) SE Runtime Environment
JVM: Java HotSpot(TM) Client VM
Java Version: 1.8.0_181-b13
Operating System: Windows 10
OS Version: 10.0
Default Encoding: Cp1252
Language: de
Country: DE
--></g></svg>