<?xml version="1.0" encoding="UTF-8" standalone="no"?><svg xmlns="http://www.w3.org/2000/svg" xmlns:xlink="http://www.w3.org/1999/xlink" contentScriptType="application/ecmascript" contentStyleType="text/css" height="907px" preserveAspectRatio="none" style="width:1108px;height:907px;" version="1.1" viewBox="0 0 1108 907" width="1108px" zoomAndPan="magnify"><defs><filter height="300%" id="fw0p7eyv63hpa" width="300%" x="-1" y="-1"><feGaussianBlur result="blurOut" stdDeviation="2.0"/><feColorMatrix in="blurOut" result="blurOut2" type="matrix" values="0 0 0 0 0 0 0 0 0 0 0 0 0 0 0 0 0 0 .4 0"/><feOffset dx="4.0" dy="4.0" in="blurOut2" result="blurOut3"/><feBlend in="SourceGraphic" in2="blurOut3" mode="normal"/></filter><linearGradient id="gw0p7eyv63hpa0" x1="0%" x2="100%" y1="0%" y2="100%"><stop offset="0%" stop-color="#C0C0C0"/><stop offset="100%" stop-color="#FFFFFF"/></linearGradient><linearGradient id="gw0p7eyv63hpa1" x1="0%" x2="100%" y1="0%" y2="100%"><stop offset="0%" stop-color="#6495ED"/><stop offset="100%" stop-color="#00FFFF"/></linearGradient></defs><g><!--cluster bioladen.product--><polygon fill="#FFFFFF" filter="url(#fw0p7eyv63hpa)" points="22,24,148,24,155,47.6094,1086,47.6094,1086,743,22,743,22,24" style="stroke: #A9A9A9; stroke-width: 1.5;"/><line style="stroke: #A9A9A9; stroke-width: 1.5;" x1="22" x2="155" y1="47.6094" y2="47.6094"/><text fill="#808080" font-family="sans-serif" font-size="14" font-weight="bold" lengthAdjust="spacingAndGlyphs" textLength="120" x="26" y="40.5332">bioladen.product</text><!--class bioladen.product.InventoryProductCatalog--><rect fill="url(#gw0p7eyv63hpa0)" filter="url(#fw0p7eyv63hpa)" height="70.0234" id="bioladen.product.InventoryProductCatalog" style="stroke: #000000; stroke-width: 1.5;" width="204" x="825" y="492.5"/><ellipse cx="856.2" cy="512.5938" fill="#B4A7E5" rx="11" ry="11" style="stroke: #000000; stroke-width: 1.0;"/><path d="M857.1531,509.2344 L857.1531,515.8906 L858.8719,515.8906 Q859.4813,515.8906 859.7469,516.125 Q860.0125,516.3594 860.0125,516.75 Q860.0125,517.125 859.7469,517.3594 Q859.4813,517.5938 858.8719,517.5938 L853.7313,517.5938 Q853.1219,517.5938 852.8563,517.3594 Q852.5906,517.125 852.5906,516.7344 Q852.5906,516.3594 852.8563,516.125 Q853.1219,515.8906 853.7313,515.8906 L855.45,515.8906 L855.45,509.2344 L853.7313,509.2344 Q853.1219,509.2344 852.8563,509 Q852.5906,508.7656 852.5906,508.375 Q852.5906,508 852.8563,507.7656 Q853.1219,507.5313 853.7313,507.5313 L858.8719,507.5313 Q859.4813,507.5313 859.7469,507.7656 Q860.0125,508 860.0125,508.375 Q860.0125,508.7656 859.7469,509 Q859.4813,509.2344 858.8719,509.2344 L857.1531,509.2344 Z "/><text fill="#000000" font-family="sans-serif" font-size="12" font-style="italic" lengthAdjust="spacingAndGlyphs" textLength="73" x="905.3" y="509.957">«Repository»</text><text fill="#000000" font-family="sans-serif" font-size="12" font-style="italic" lengthAdjust="spacingAndGlyphs" textLength="136" x="873.8" y="525.0508">InventoryProductCatalog</text><line style="stroke: #000000; stroke-width: 1.5;" x1="826" x2="1028" y1="532.6875" y2="532.6875"/><line style="stroke: #000000; stroke-width: 1.5;" x1="826" x2="1028" y1="540.6875" y2="540.6875"/><text fill="#000000" font-family="sans-serif" font-size="11" lengthAdjust="spacingAndGlyphs" textLength="192" x="831" y="556.1064">+findAll() : ArrayList&lt;InventoryProduct&gt;</text><!--class bioladen.product.DistributorProductCatalog--><rect fill="url(#gw0p7eyv63hpa0)" filter="url(#fw0p7eyv63hpa)" height="70.0234" id="bioladen.product.DistributorProductCatalog" style="stroke: #000000; stroke-width: 1.5;" width="208" x="501" y="657"/><ellipse cx="531.3" cy="677.0938" fill="#B4A7E5" rx="11" ry="11" style="stroke: #000000; stroke-width: 1.0;"/><path d="M532.2531,673.7344 L532.2531,680.3906 L533.9719,680.3906 Q534.5813,680.3906 534.8469,680.625 Q535.1125,680.8594 535.1125,681.25 Q535.1125,681.625 534.8469,681.8594 Q534.5813,682.0938 533.9719,682.0938 L528.8313,682.0938 Q528.2219,682.0938 527.9563,681.8594 Q527.6906,681.625 527.6906,681.2344 Q527.6906,680.8594 527.9563,680.625 Q528.2219,680.3906 528.8313,680.3906 L530.55,680.3906 L530.55,673.7344 L528.8313,673.7344 Q528.2219,673.7344 527.9563,673.5 Q527.6906,673.2656 527.6906,672.875 Q527.6906,672.5 527.9563,672.2656 Q528.2219,672.0313 528.8313,672.0313 L533.9719,672.0313 Q534.5813,672.0313 534.8469,672.2656 Q535.1125,672.5 535.1125,672.875 Q535.1125,673.2656 534.8469,673.5 Q534.5813,673.7344 533.9719,673.7344 L532.2531,673.7344 Z "/><text fill="#000000" font-family="sans-serif" font-size="12" font-style="italic" lengthAdjust="spacingAndGlyphs" textLength="73" x="583.2" y="674.457">«Repository»</text><text fill="#000000" font-family="sans-serif" font-size="12" font-style="italic" lengthAdjust="spacingAndGlyphs" textLength="142" x="548.7" y="689.5508">DistributorProductCatalog</text><line style="stroke: #000000; stroke-width: 1.5;" x1="502" x2="708" y1="697.1875" y2="697.1875"/><line style="stroke: #000000; stroke-width: 1.5;" x1="502" x2="708" y1="705.1875" y2="705.1875"/><text fill="#000000" font-family="sans-serif" font-size="11" lengthAdjust="spacingAndGlyphs" textLength="196" x="507" y="720.6064">+findAll() : ArrayList&lt;DistributorProduct&gt;</text><!--class bioladen.product.DistributorProduct--><rect fill="url(#gw0p7eyv63hpa0)" filter="url(#fw0p7eyv63hpa)" height="139.2031" id="bioladen.product.DistributorProduct" style="stroke: #000000; stroke-width: 1.5;" width="337" x="436.5" y="458"/><ellipse cx="551.25" cy="478.0938" fill="#ADD1B2" rx="11" ry="11" style="stroke: #000000; stroke-width: 1.0;"/><path d="M554.0156,473.9688 Q554.1719,473.75 554.3594,473.6406 Q554.5469,473.5313 554.7656,473.5313 Q555.1406,473.5313 555.375,473.7891 Q555.6094,474.0469 555.6094,474.6563 L555.6094,476.1094 Q555.6094,476.7188 555.375,476.9844 Q555.1406,477.25 554.7656,477.25 Q554.4219,477.25 554.2188,477.0469 Q554.0156,476.8594 553.9063,476.3438 Q553.8594,475.9844 553.6719,475.7969 Q553.3438,475.4219 552.7344,475.2031 Q552.125,474.9844 551.5,474.9844 Q550.7344,474.9844 550.1016,475.3125 Q549.4688,475.6406 548.9766,476.3906 Q548.4844,477.1406 548.4844,478.1719 L548.4844,479.2656 Q548.4844,480.5 549.375,481.3203 Q550.2656,482.1406 551.8594,482.1406 Q552.7969,482.1406 553.4531,481.8906 Q553.8438,481.7344 554.2656,481.2969 Q554.5313,481.0313 554.6797,480.9531 Q554.8281,480.875 555.0313,480.875 Q555.3594,480.875 555.6172,481.1328 Q555.875,481.3906 555.875,481.7344 Q555.875,482.0781 555.5313,482.4844 Q555.0313,483.0625 554.2344,483.3906 Q553.1563,483.8438 551.8594,483.8438 Q550.3438,483.8438 549.1406,483.2188 Q548.1563,482.7188 547.4688,481.6484 Q546.7813,480.5781 546.7813,479.2969 L546.7813,478.1406 Q546.7813,476.8125 547.3984,475.6641 Q548.0156,474.5156 549.1094,473.8984 Q550.2031,473.2813 551.4375,473.2813 Q552.1719,473.2813 552.8203,473.4453 Q553.4688,473.6094 554.0156,473.9688 Z "/><text fill="#000000" font-family="sans-serif" font-size="12" font-style="italic" lengthAdjust="spacingAndGlyphs" textLength="44" x="599.25" y="475.457">«Entity»</text><text fill="#000000" font-family="sans-serif" font-size="12" lengthAdjust="spacingAndGlyphs" textLength="99" x="571.75" y="490.5508">DistributorProduct</text><line style="stroke: #000000; stroke-width: 1.5;" x1="437.5" x2="772.5" y1="498.1875" y2="498.1875"/><text fill="#000000" font-family="sans-serif" font-size="11" lengthAdjust="spacingAndGlyphs" textLength="163" x="442.5" y="513.6064">-distributorProductIdentifier : Long</text><text fill="#000000" font-family="sans-serif" font-size="11" lengthAdjust="spacingAndGlyphs" textLength="82" x="442.5" y="527.4424">-unit : BigDecimal</text><text fill="#000000" font-family="sans-serif" font-size="11" lengthAdjust="spacingAndGlyphs" textLength="89" x="442.5" y="541.2783">-price : BigDecimal</text><text fill="#000000" font-family="sans-serif" font-size="11" lengthAdjust="spacingAndGlyphs" textLength="110" x="442.5" y="555.1143">-distributor : Distributor</text><text fill="#000000" font-family="sans-serif" font-size="11" lengthAdjust="spacingAndGlyphs" textLength="138" x="442.5" y="568.9502">-minimumOrderAmount : long</text><line style="stroke: #000000; stroke-width: 1.5;" x1="437.5" x2="772.5" y1="575.3672" y2="575.3672"/><text fill="#000000" font-family="sans-serif" font-size="11" lengthAdjust="spacingAndGlyphs" textLength="325" x="442.5" y="590.7861">+DistributorProduct(String, Distributor, BigDecimal, BigDecimal, long)</text><!--class bioladen.product.InventoryProduct--><rect fill="url(#gw0p7eyv63hpa0)" filter="url(#fw0p7eyv63hpa)" height="153.0391" id="bioladen.product.InventoryProduct" style="stroke: #000000; stroke-width: 1.5;" width="285" x="784.5" y="245"/><ellipse cx="877.75" cy="265.0938" fill="#ADD1B2" rx="11" ry="11" style="stroke: #000000; stroke-width: 1.0;"/><path d="M880.5156,260.9688 Q880.6719,260.75 880.8594,260.6406 Q881.0469,260.5313 881.2656,260.5313 Q881.6406,260.5313 881.875,260.7891 Q882.1094,261.0469 882.1094,261.6563 L882.1094,263.1094 Q882.1094,263.7188 881.875,263.9844 Q881.6406,264.25 881.2656,264.25 Q880.9219,264.25 880.7188,264.0469 Q880.5156,263.8594 880.4063,263.3438 Q880.3594,262.9844 880.1719,262.7969 Q879.8438,262.4219 879.2344,262.2031 Q878.625,261.9844 878,261.9844 Q877.2344,261.9844 876.6016,262.3125 Q875.9688,262.6406 875.4766,263.3906 Q874.9844,264.1406 874.9844,265.1719 L874.9844,266.2656 Q874.9844,267.5 875.875,268.3203 Q876.7656,269.1406 878.3594,269.1406 Q879.2969,269.1406 879.9531,268.8906 Q880.3438,268.7344 880.7656,268.2969 Q881.0313,268.0313 881.1797,267.9531 Q881.3281,267.875 881.5313,267.875 Q881.8594,267.875 882.1172,268.1328 Q882.375,268.3906 882.375,268.7344 Q882.375,269.0781 882.0313,269.4844 Q881.5313,270.0625 880.7344,270.3906 Q879.6563,270.8438 878.3594,270.8438 Q876.8438,270.8438 875.6406,270.2188 Q874.6563,269.7188 873.9688,268.6484 Q873.2813,267.5781 873.2813,266.2969 L873.2813,265.1406 Q873.2813,263.8125 873.8984,262.6641 Q874.5156,261.5156 875.6094,260.8984 Q876.7031,260.2813 877.9375,260.2813 Q878.6719,260.2813 879.3203,260.4453 Q879.9688,260.6094 880.5156,260.9688 Z "/><text fill="#000000" font-family="sans-serif" font-size="12" font-style="italic" lengthAdjust="spacingAndGlyphs" textLength="44" x="921.25" y="262.457">«Entity»</text><text fill="#000000" font-family="sans-serif" font-size="12" lengthAdjust="spacingAndGlyphs" textLength="90" x="898.25" y="277.5508">InventoryProduct</text><line style="stroke: #000000; stroke-width: 1.5;" x1="785.5" x2="1068.5" y1="285.1875" y2="285.1875"/><text fill="#000000" font-family="sans-serif" font-size="11" lengthAdjust="spacingAndGlyphs" textLength="104" x="790.5" y="300.6064">// Inventory Attributes</text><line style="stroke: #000000; stroke-width: 1.5;" x1="785.5" x2="1068.5" y1="307.0234" y2="307.0234"/><text fill="#000000" font-family="sans-serif" font-size="11" lengthAdjust="spacingAndGlyphs" textLength="273" x="790.5" y="322.4424">// Methods() : Getter and Setter from Inventory Attributes</text><text fill="#000000" font-family="sans-serif" font-size="11" lengthAdjust="spacingAndGlyphs" textLength="252" x="790.5" y="336.2783">+InventoryProduct(String, DistributorProductCatalog)</text><text fill="#000000" font-family="sans-serif" font-size="11" lengthAdjust="spacingAndGlyphs" textLength="198" x="790.5" y="350.1143">+removeDisplayedAmount(long): boolean</text><text fill="#000000" font-family="sans-serif" font-size="11" lengthAdjust="spacingAndGlyphs" textLength="106" x="790.5" y="363.9502">+toEan13(Long) : long</text><text fill="#000000" font-family="sans-serif" font-size="11" lengthAdjust="spacingAndGlyphs" textLength="119" x="790.5" y="377.7861">+fromEan13(Long) : long</text><text fill="#000000" font-family="sans-serif" font-size="11" lengthAdjust="spacingAndGlyphs" textLength="126" x="790.5" y="391.6221">-getCheckSum(String) : int</text><!--class bioladen.product.Distributor--><rect fill="url(#gw0p7eyv63hpa0)" filter="url(#fw0p7eyv63hpa)" height="111.5313" id="bioladen.product.Distributor" style="stroke: #000000; stroke-width: 1.5;" width="289" x="460.5" y="265.5"/><ellipse cx="572.25" cy="285.5938" fill="#ADD1B2" rx="11" ry="11" style="stroke: #000000; stroke-width: 1.0;"/><path d="M575.0156,281.4688 Q575.1719,281.25 575.3594,281.1406 Q575.5469,281.0313 575.7656,281.0313 Q576.1406,281.0313 576.375,281.2891 Q576.6094,281.5469 576.6094,282.1563 L576.6094,283.6094 Q576.6094,284.2188 576.375,284.4844 Q576.1406,284.75 575.7656,284.75 Q575.4219,284.75 575.2188,284.5469 Q575.0156,284.3594 574.9063,283.8438 Q574.8594,283.4844 574.6719,283.2969 Q574.3438,282.9219 573.7344,282.7031 Q573.125,282.4844 572.5,282.4844 Q571.7344,282.4844 571.1016,282.8125 Q570.4688,283.1406 569.9766,283.8906 Q569.4844,284.6406 569.4844,285.6719 L569.4844,286.7656 Q569.4844,288 570.375,288.8203 Q571.2656,289.6406 572.8594,289.6406 Q573.7969,289.6406 574.4531,289.3906 Q574.8438,289.2344 575.2656,288.7969 Q575.5313,288.5313 575.6797,288.4531 Q575.8281,288.375 576.0313,288.375 Q576.3594,288.375 576.6172,288.6328 Q576.875,288.8906 576.875,289.2344 Q576.875,289.5781 576.5313,289.9844 Q576.0313,290.5625 575.2344,290.8906 Q574.1563,291.3438 572.8594,291.3438 Q571.3438,291.3438 570.1406,290.7188 Q569.1563,290.2188 568.4688,289.1484 Q567.7813,288.0781 567.7813,286.7969 L567.7813,285.6406 Q567.7813,284.3125 568.3984,283.1641 Q569.0156,282.0156 570.1094,281.3984 Q571.2031,280.7813 572.4375,280.7813 Q573.1719,280.7813 573.8203,280.9453 Q574.4688,281.1094 575.0156,281.4688 Z "/><text fill="#000000" font-family="sans-serif" font-size="12" font-style="italic" lengthAdjust="spacingAndGlyphs" textLength="44" x="599.25" y="282.957">«Entity»</text><text fill="#000000" font-family="sans-serif" font-size="12" lengthAdjust="spacingAndGlyphs" textLength="57" x="592.75" y="298.0508">Distributor</text><line style="stroke: #000000; stroke-width: 1.5;" x1="461.5" x2="748.5" y1="305.6875" y2="305.6875"/><text fill="#000000" font-family="sans-serif" font-size="11" lengthAdjust="spacingAndGlyphs" textLength="108" x="466.5" y="321.1064">// Distributor Attributes</text><line style="stroke: #000000; stroke-width: 1.5;" x1="461.5" x2="748.5" y1="327.5234" y2="327.5234"/><text fill="#000000" font-family="sans-serif" font-size="11" lengthAdjust="spacingAndGlyphs" textLength="277" x="466.5" y="342.9424">// Methods() : Getter and Setter from Distributor Attributes</text><text fill="#000000" font-family="sans-serif" font-size="11" lengthAdjust="spacingAndGlyphs" textLength="193" x="466.5" y="356.7783">+Distributor(String, String, String, String)</text><text fill="#000000" font-family="sans-serif" font-size="11" lengthAdjust="spacingAndGlyphs" textLength="240" x="466.5" y="370.6143">+publishDistributorCreatedEvent(Distributor) : void</text><!--class bioladen.product.InventoryProductController--><rect fill="url(#gw0p7eyv63hpa1)" filter="url(#fw0p7eyv63hpa)" height="125.3672" id="bioladen.product.InventoryProductController" style="stroke: #000000; stroke-width: 1.5;" width="400" x="670" y="60"/><ellipse cx="793.75" cy="80.0938" fill="#ADD1B2" rx="11" ry="11" style="stroke: #000000; stroke-width: 1.0;"/><path d="M796.5156,75.9688 Q796.6719,75.75 796.8594,75.6406 Q797.0469,75.5313 797.2656,75.5313 Q797.6406,75.5313 797.875,75.7891 Q798.1094,76.0469 798.1094,76.6563 L798.1094,78.1094 Q798.1094,78.7188 797.875,78.9844 Q797.6406,79.25 797.2656,79.25 Q796.9219,79.25 796.7188,79.0469 Q796.5156,78.8594 796.4063,78.3438 Q796.3594,77.9844 796.1719,77.7969 Q795.8438,77.4219 795.2344,77.2031 Q794.625,76.9844 794,76.9844 Q793.2344,76.9844 792.6016,77.3125 Q791.9688,77.6406 791.4766,78.3906 Q790.9844,79.1406 790.9844,80.1719 L790.9844,81.2656 Q790.9844,82.5 791.875,83.3203 Q792.7656,84.1406 794.3594,84.1406 Q795.2969,84.1406 795.9531,83.8906 Q796.3438,83.7344 796.7656,83.2969 Q797.0313,83.0313 797.1797,82.9531 Q797.3281,82.875 797.5313,82.875 Q797.8594,82.875 798.1172,83.1328 Q798.375,83.3906 798.375,83.7344 Q798.375,84.0781 798.0313,84.4844 Q797.5313,85.0625 796.7344,85.3906 Q795.6563,85.8438 794.3594,85.8438 Q792.8438,85.8438 791.6406,85.2188 Q790.6563,84.7188 789.9688,83.6484 Q789.2813,82.5781 789.2813,81.2969 L789.2813,80.1406 Q789.2813,78.8125 789.8984,77.6641 Q790.5156,76.5156 791.6094,75.8984 Q792.7031,75.2813 793.9375,75.2813 Q794.6719,75.2813 795.3203,75.4453 Q795.9688,75.6094 796.5156,75.9688 Z "/><text fill="#000000" font-family="sans-serif" font-size="12" font-style="italic" lengthAdjust="spacingAndGlyphs" textLength="68" x="852.25" y="77.457">«Controller»</text><text fill="#000000" font-family="sans-serif" font-size="12" lengthAdjust="spacingAndGlyphs" textLength="144" x="814.25" y="92.5508">InventoryProductController</text><line style="stroke: #000000; stroke-width: 1.5;" x1="671" x2="1069" y1="100.1875" y2="100.1875"/><text fill="#000000" font-family="sans-serif" font-size="11" lengthAdjust="spacingAndGlyphs" textLength="249" x="676" y="115.6064">-inventoryProductCatalog : InventoryProductCatalog</text><text fill="#000000" font-family="sans-serif" font-size="11" lengthAdjust="spacingAndGlyphs" textLength="256" x="676" y="129.4424">-distributorProductCatalog : DistributorProductCatalog</text><line style="stroke: #000000; stroke-width: 1.5;" x1="671" x2="1069" y1="135.8594" y2="135.8594"/><text fill="#000000" font-family="sans-serif" font-size="11" lengthAdjust="spacingAndGlyphs" textLength="388" x="676" y="151.2783">+InventoryProductController(InventoryProductCatalog, DistributorProductCatalog)</text><text fill="#000000" font-family="sans-serif" font-size="11" lengthAdjust="spacingAndGlyphs" textLength="122" x="676" y="165.1143">+showProducts() : String</text><text fill="#000000" font-family="sans-serif" font-size="11" lengthAdjust="spacingAndGlyphs" textLength="130" x="676" y="178.9502">+addProduct(Long) : String</text><!--class bioladen.product.DistributorController--><rect fill="url(#gw0p7eyv63hpa1)" filter="url(#fw0p7eyv63hpa)" height="125.3672" id="bioladen.product.DistributorController" style="stroke: #000000; stroke-width: 1.5;" width="260" x="375" y="60"/><ellipse cx="445.25" cy="80.0938" fill="#ADD1B2" rx="11" ry="11" style="stroke: #000000; stroke-width: 1.0;"/><path d="M448.0156,75.9688 Q448.1719,75.75 448.3594,75.6406 Q448.5469,75.5313 448.7656,75.5313 Q449.1406,75.5313 449.375,75.7891 Q449.6094,76.0469 449.6094,76.6563 L449.6094,78.1094 Q449.6094,78.7188 449.375,78.9844 Q449.1406,79.25 448.7656,79.25 Q448.4219,79.25 448.2188,79.0469 Q448.0156,78.8594 447.9063,78.3438 Q447.8594,77.9844 447.6719,77.7969 Q447.3438,77.4219 446.7344,77.2031 Q446.125,76.9844 445.5,76.9844 Q444.7344,76.9844 444.1016,77.3125 Q443.4688,77.6406 442.9766,78.3906 Q442.4844,79.1406 442.4844,80.1719 L442.4844,81.2656 Q442.4844,82.5 443.375,83.3203 Q444.2656,84.1406 445.8594,84.1406 Q446.7969,84.1406 447.4531,83.8906 Q447.8438,83.7344 448.2656,83.2969 Q448.5313,83.0313 448.6797,82.9531 Q448.8281,82.875 449.0313,82.875 Q449.3594,82.875 449.6172,83.1328 Q449.875,83.3906 449.875,83.7344 Q449.875,84.0781 449.5313,84.4844 Q449.0313,85.0625 448.2344,85.3906 Q447.1563,85.8438 445.8594,85.8438 Q444.3438,85.8438 443.1406,85.2188 Q442.1563,84.7188 441.4688,83.6484 Q440.7813,82.5781 440.7813,81.2969 L440.7813,80.1406 Q440.7813,78.8125 441.3984,77.6641 Q442.0156,76.5156 443.1094,75.8984 Q444.2031,75.2813 445.4375,75.2813 Q446.1719,75.2813 446.8203,75.4453 Q447.4688,75.6094 448.0156,75.9688 Z "/><text fill="#000000" font-family="sans-serif" font-size="12" font-style="italic" lengthAdjust="spacingAndGlyphs" textLength="68" x="487.25" y="77.457">«Controller»</text><text fill="#000000" font-family="sans-serif" font-size="12" lengthAdjust="spacingAndGlyphs" textLength="111" x="465.75" y="92.5508">DistributorController</text><line style="stroke: #000000; stroke-width: 1.5;" x1="376" x2="634" y1="100.1875" y2="100.1875"/><text fill="#000000" font-family="sans-serif" font-size="11" lengthAdjust="spacingAndGlyphs" textLength="214" x="381" y="115.6064">-distributorRepository : DistributorRepository</text><line style="stroke: #000000; stroke-width: 1.5;" x1="376" x2="634" y1="122.0234" y2="122.0234"/><text fill="#000000" font-family="sans-serif" font-size="11" lengthAdjust="spacingAndGlyphs" textLength="210" x="381" y="137.4424">+DistributorController(DistributorRepository)</text><text fill="#000000" font-family="sans-serif" font-size="11" lengthAdjust="spacingAndGlyphs" textLength="134" x="381" y="151.2783">+showDistributors() : String</text><text fill="#000000" font-family="sans-serif" font-size="11" lengthAdjust="spacingAndGlyphs" textLength="248" x="381" y="165.1143">+addDistributor(String, String, String, String) : String</text><text fill="#000000" font-family="sans-serif" font-size="11" lengthAdjust="spacingAndGlyphs" textLength="160" x="381" y="178.9502">+removeDistributor(Long) : String</text><!--class bioladen.product.DistributorRepository--><rect fill="url(#gw0p7eyv63hpa0)" filter="url(#fw0p7eyv63hpa)" height="70.0234" id="bioladen.product.DistributorRepository" style="stroke: #000000; stroke-width: 1.5;" width="171" x="168.5" y="87.5"/><ellipse cx="193.85" cy="107.5938" fill="#B4A7E5" rx="11" ry="11" style="stroke: #000000; stroke-width: 1.0;"/><path d="M194.8031,104.2344 L194.8031,110.8906 L196.5219,110.8906 Q197.1313,110.8906 197.3969,111.125 Q197.6625,111.3594 197.6625,111.75 Q197.6625,112.125 197.3969,112.3594 Q197.1313,112.5938 196.5219,112.5938 L191.3813,112.5938 Q190.7719,112.5938 190.5063,112.3594 Q190.2406,112.125 190.2406,111.7344 Q190.2406,111.3594 190.5063,111.125 Q190.7719,110.8906 191.3813,110.8906 L193.1,110.8906 L193.1,104.2344 L191.3813,104.2344 Q190.7719,104.2344 190.5063,104 Q190.2406,103.7656 190.2406,103.375 Q190.2406,103 190.5063,102.7656 Q190.7719,102.5313 191.3813,102.5313 L196.5219,102.5313 Q197.1313,102.5313 197.3969,102.7656 Q197.6625,103 197.6625,103.375 Q197.6625,103.7656 197.3969,104 Q197.1313,104.2344 196.5219,104.2344 L194.8031,104.2344 Z "/><text fill="#000000" font-family="sans-serif" font-size="12" font-style="italic" lengthAdjust="spacingAndGlyphs" textLength="73" x="231.65" y="104.957">«Repository»</text><text fill="#000000" font-family="sans-serif" font-size="12" font-style="italic" lengthAdjust="spacingAndGlyphs" textLength="116" x="210.15" y="120.0508">DistributorRepository</text><line style="stroke: #000000; stroke-width: 1.5;" x1="169.5" x2="338.5" y1="127.6875" y2="127.6875"/><line style="stroke: #000000; stroke-width: 1.5;" x1="169.5" x2="338.5" y1="135.6875" y2="135.6875"/><text fill="#000000" font-family="sans-serif" font-size="11" lengthAdjust="spacingAndGlyphs" textLength="159" x="174.5" y="151.1064">+findAll() : ArrayList&lt;Distributor&gt;</text><!--class bioladen.product.DistributorProductController--><rect fill="url(#gw0p7eyv63hpa1)" filter="url(#fw0p7eyv63hpa)" height="139.2031" id="bioladen.product.DistributorProductController" style="stroke: #000000; stroke-width: 1.5;" width="387" x="38.5" y="252"/><ellipse cx="151.25" cy="272.0938" fill="#ADD1B2" rx="11" ry="11" style="stroke: #000000; stroke-width: 1.0;"/><path d="M154.0156,267.9688 Q154.1719,267.75 154.3594,267.6406 Q154.5469,267.5313 154.7656,267.5313 Q155.1406,267.5313 155.375,267.7891 Q155.6094,268.0469 155.6094,268.6563 L155.6094,270.1094 Q155.6094,270.7188 155.375,270.9844 Q155.1406,271.25 154.7656,271.25 Q154.4219,271.25 154.2188,271.0469 Q154.0156,270.8594 153.9063,270.3438 Q153.8594,269.9844 153.6719,269.7969 Q153.3438,269.4219 152.7344,269.2031 Q152.125,268.9844 151.5,268.9844 Q150.7344,268.9844 150.1016,269.3125 Q149.4688,269.6406 148.9766,270.3906 Q148.4844,271.1406 148.4844,272.1719 L148.4844,273.2656 Q148.4844,274.5 149.375,275.3203 Q150.2656,276.1406 151.8594,276.1406 Q152.7969,276.1406 153.4531,275.8906 Q153.8438,275.7344 154.2656,275.2969 Q154.5313,275.0313 154.6797,274.9531 Q154.8281,274.875 155.0313,274.875 Q155.3594,274.875 155.6172,275.1328 Q155.875,275.3906 155.875,275.7344 Q155.875,276.0781 155.5313,276.4844 Q155.0313,277.0625 154.2344,277.3906 Q153.1563,277.8438 151.8594,277.8438 Q150.3438,277.8438 149.1406,277.2188 Q148.1563,276.7188 147.4688,275.6484 Q146.7813,274.5781 146.7813,273.2969 L146.7813,272.1406 Q146.7813,270.8125 147.3984,269.6641 Q148.0156,268.5156 149.1094,267.8984 Q150.2031,267.2813 151.4375,267.2813 Q152.1719,267.2813 152.8203,267.4453 Q153.4688,267.6094 154.0156,267.9688 Z "/><text fill="#000000" font-family="sans-serif" font-size="12" font-style="italic" lengthAdjust="spacingAndGlyphs" textLength="68" x="214.25" y="269.457">«Controller»</text><text fill="#000000" font-family="sans-serif" font-size="12" lengthAdjust="spacingAndGlyphs" textLength="153" x="171.75" y="284.5508">DistributorProductController</text><line style="stroke: #000000; stroke-width: 1.5;" x1="39.5" x2="424.5" y1="292.1875" y2="292.1875"/><text fill="#000000" font-family="sans-serif" font-size="11" lengthAdjust="spacingAndGlyphs" textLength="256" x="44.5" y="307.6064">-distributorProductCatalog : DistributorProductCatalog</text><text fill="#000000" font-family="sans-serif" font-size="11" lengthAdjust="spacingAndGlyphs" textLength="214" x="44.5" y="321.4424">-distributorRepository : DistributorRepository</text><line style="stroke: #000000; stroke-width: 1.5;" x1="39.5" x2="424.5" y1="327.8594" y2="327.8594"/><text fill="#000000" font-family="sans-serif" font-size="11" lengthAdjust="spacingAndGlyphs" textLength="375" x="44.5" y="343.2783">+DistributorProductController(DistributorProductCatalog. DistributorRepository)</text><text fill="#000000" font-family="sans-serif" font-size="11" lengthAdjust="spacingAndGlyphs" textLength="171" x="44.5" y="357.1143">+showDistributorProducts() : String</text><text fill="#000000" font-family="sans-serif" font-size="11" lengthAdjust="spacingAndGlyphs" textLength="123" x="44.5" y="370.9502">+distributorForm() : String</text><text fill="#000000" font-family="sans-serif" font-size="11" lengthAdjust="spacingAndGlyphs" textLength="270" x="44.5" y="384.7861">+addDistributor(String, Long, String, String, long) : String</text><!--link bioladen.product.InventoryProduct to bioladen.product.DistributorProduct--><path d="M771.165,395 C771.165,395 761.5,395 761.5,395 C761.5,395 761.5,425.837 761.5,457.758 " fill="none" id="bioladen.product.InventoryProduct-bioladen.product.DistributorProduct" style="stroke: #000000; stroke-width: 1.0;"/><polygon fill="#FFFFFF" points="784.165,395,778.165,391,772.165,395,778.165,399,784.165,395" style="stroke: #000000; stroke-width: 1.0;"/><!--link bioladen.product.DistributorProduct to bioladen.product.DistributorProductCatalog--><path d="M605,597.263 C605,597.263 605,643.663 605,643.663 " fill="none" id="bioladen.product.DistributorProduct-bioladen.product.DistributorProductCatalog" style="stroke: #000000; stroke-width: 1.0;"/><polygon fill="#000000" points="605,656.663,609,650.663,605,644.663,601,650.663,605,656.663" style="stroke: #000000; stroke-width: 1.0;"/><text fill="#000000" font-family="sans-serif" font-size="13" lengthAdjust="spacingAndGlyphs" textLength="7" x="597.3547" y="646.1981">1</text><!--link bioladen.product.InventoryProduct to bioladen.product.InventoryProductCatalog--><path d="M927,398.207 C927,398.207 927,479.471 927,479.471 " fill="none" id="bioladen.product.InventoryProduct-bioladen.product.InventoryProductCatalog" style="stroke: #000000; stroke-width: 1.0;"/><polygon fill="#000000" points="927,492.471,931,486.471,927,480.471,923,486.471,927,492.471" style="stroke: #000000; stroke-width: 1.0;"/><text fill="#000000" font-family="sans-serif" font-size="13" lengthAdjust="spacingAndGlyphs" textLength="7" x="919.3109" y="481.5271">1</text><!--link bioladen.product.InventoryProductController to bioladen.product.InventoryProduct--><path d="M927,185.192 C927,185.192 927,239.796 927,239.796 " fill="none" id="bioladen.product.InventoryProductController-bioladen.product.InventoryProduct" style="stroke: #000000; stroke-width: 1.0;"/><polygon fill="#000000" points="927,244.796,931,235.796,927,239.796,923,235.796,927,244.796" style="stroke: #000000; stroke-width: 1.0;"/><!--link bioladen.product.DistributorController to bioladen.product.Distributor--><path d="M576.833,185.192 C576.833,185.192 576.833,260.19 576.833,260.19 " fill="none" id="bioladen.product.DistributorController-bioladen.product.Distributor" style="stroke: #000000; stroke-width: 1.0;"/><polygon fill="#000000" points="576.833,265.19,580.833,256.19,576.833,260.19,572.833,256.19,576.833,265.19" style="stroke: #000000; stroke-width: 1.0;"/><!--link bioladen.product.DistributorProductController to bioladen.product.DistributorProduct--><path d="M425.74,385 C439.738,385 448.5,385 448.5,385 C448.5,385 448.5,452.92 448.5,452.92 " fill="none" id="bioladen.product.DistributorProductController-bioladen.product.DistributorProduct" style="stroke: #000000; stroke-width: 1.0;"/><polygon fill="#000000" points="448.5,457.92,452.5,448.92,448.5,452.92,444.5,448.92,448.5,457.92" style="stroke: #000000; stroke-width: 1.0;"/><!--link bioladen.product.DistributorRepository to bioladen.product.Distributor--><path d="M254,157.734 C254,183.875 254,215 254,215 C254,215 518.667,215 518.667,215 C518.667,215 518.667,260.443 518.667,260.443 " fill="none" id="bioladen.product.DistributorRepository-bioladen.product.Distributor" style="stroke: #000000; stroke-width: 1.0;"/><polygon fill="#000000" points="518.667,265.443,522.667,256.443,518.667,260.443,514.667,256.443,518.667,265.443" style="stroke: #000000; stroke-width: 1.0;"/><!--link bioladen.product.Distributor to bioladen.product.DistributorProduct--><path d="M605,390.518 C605,390.518 605,457.874 605,457.874 " fill="none" id="bioladen.product.Distributor-bioladen.product.DistributorProduct" style="stroke: #000000; stroke-width: 1.0;"/><polygon fill="#000000" points="605,377.518,601,383.518,605,389.518,609,383.518,605,377.518" style="stroke: #000000; stroke-width: 1.0;"/><text fill="#000000" font-family="sans-serif" font-size="13" lengthAdjust="spacingAndGlyphs" textLength="7" x="597.5953" y="398.4626">1</text><rect fill="#DDDDDD" height="119.6563" rx="5" ry="5" style="stroke: #000000; stroke-width: 1.0;" width="194" x="462.5" y="777"/><text fill="#000000" font-family="sans-serif" font-size="14" font-weight="bold" lengthAdjust="spacingAndGlyphs" textLength="85" x="472.5" y="798.5332">Background</text><text fill="#000000" font-family="sans-serif" font-size="14" font-weight="bold" lengthAdjust="spacingAndGlyphs" textLength="81" x="565.5" y="798.5332">Component</text><rect fill="#3DD13F" height="17.6094" style="stroke: none; stroke-width: 1.0;" width="93" x="468.5" y="801.6094"/><text fill="#000000" font-family="sans-serif" font-size="14" lengthAdjust="spacingAndGlyphs" textLength="0" x="488.5" y="816.1426"/><text fill="#000000" font-family="sans-serif" font-size="14" lengthAdjust="spacingAndGlyphs" textLength="29" x="565.5" y="816.1426">View</text><rect fill="#5F9AEA" height="17.6094" style="stroke: none; stroke-width: 1.0;" width="93" x="468.5" y="819.2188"/><text fill="#000000" font-family="sans-serif" font-size="14" lengthAdjust="spacingAndGlyphs" textLength="0" x="488.5" y="833.752"/><text fill="#000000" font-family="sans-serif" font-size="14" lengthAdjust="spacingAndGlyphs" textLength="62" x="565.5" y="833.752">Controller</text><rect fill="#CEF6CE" height="17.6094" style="stroke: none; stroke-width: 1.0;" width="93" x="468.5" y="836.8281"/><text fill="#000000" font-family="sans-serif" font-size="14" lengthAdjust="spacingAndGlyphs" textLength="0" x="488.5" y="851.3613"/><text fill="#000000" font-family="sans-serif" font-size="14" lengthAdjust="spacingAndGlyphs" textLength="41" x="565.5" y="851.3613">Spring</text><rect fill="#F5A9BC" height="17.6094" style="stroke: none; stroke-width: 1.0;" width="93" x="468.5" y="854.4375"/><text fill="#000000" font-family="sans-serif" font-size="14" lengthAdjust="spacingAndGlyphs" textLength="0" x="488.5" y="868.9707"/><text fill="#000000" font-family="sans-serif" font-size="14" lengthAdjust="spacingAndGlyphs" textLength="66" x="565.5" y="868.9707">Salespoint</text><rect fill="#F9ED93" height="17.6094" style="stroke: none; stroke-width: 1.0;" width="93" x="468.5" y="872.0469"/><text fill="#000000" font-family="sans-serif" font-size="14" lengthAdjust="spacingAndGlyphs" textLength="0" x="488.5" y="886.5801"/><text fill="#000000" font-family="sans-serif" font-size="14" lengthAdjust="spacingAndGlyphs" textLength="29" x="565.5" y="886.5801">Java</text><line style="stroke: #000000; stroke-width: 1.0;" x1="468.5" x2="650.5" y1="784" y2="784"/><line style="stroke: #000000; stroke-width: 1.0;" x1="468.5" x2="650.5" y1="801.6094" y2="801.6094"/><line style="stroke: #000000; stroke-width: 1.0;" x1="468.5" x2="650.5" y1="819.2188" y2="819.2188"/><line style="stroke: #000000; stroke-width: 1.0;" x1="468.5" x2="650.5" y1="836.8281" y2="836.8281"/><line style="stroke: #000000; stroke-width: 1.0;" x1="468.5" x2="650.5" y1="854.4375" y2="854.4375"/><line style="stroke: #000000; stroke-width: 1.0;" x1="468.5" x2="650.5" y1="872.0469" y2="872.0469"/><line style="stroke: #000000; stroke-width: 1.0;" x1="468.5" x2="650.5" y1="889.6563" y2="889.6563"/><line style="stroke: #000000; stroke-width: 1.0;" x1="468.5" x2="468.5" y1="784" y2="889.6563"/><line style="stroke: #000000; stroke-width: 1.0;" x1="561.5" x2="561.5" y1="784" y2="889.6563"/><line style="stroke: #000000; stroke-width: 1.0;" x1="650.5" x2="650.5" y1="784" y2="889.6563"/><!--
@startuml




skinparam class {
	BackgroundColor #Silver/white
	BackgroundColor<<Spring>> #a9f5e1/cef6ce
	BackgroundColor<<Salespoint>> #f5a9bc/fcc4f0
	BackgroundColor<<Java>> #f9ed93/f7f583
	BackgroundColor<<Controller>> #Cornflowerblue/Cyan
    BorderColor Black
    ArrowColor  Black
}

skinparam package {
    FontColor Grey
    BorderColor Darkgrey
}

skinparam classAttributeIconSize 0
skinparam linetype ortho

legend
| Background | Component |
|<#3dd13f>     | View |
|<#5f9aea>     | Controller |
|<#cef6ce>     | Spring |
|<#f5a9bc>     | Salespoint |
|<#f9ed93>     | Java |
endlegend






    namespace bioladen.product {

        interface InventoryProductCatalog <<Repository>> {
            +findAll() : ArrayList<InventoryProduct>
        }

        interface DistributorProductCatalog <<Repository>>  {
            +findAll() : ArrayList<DistributorProduct>
        }

        class DistributorProduct <<Entity>> {
            -distributorProductIdentifier : Long
            -unit : BigDecimal
            -price : BigDecimal
            -distributor : Distributor
            -minimumOrderAmount : long

            +DistributorProduct(String, Distributor, BigDecimal, BigDecimal, long)
        }

        class InventoryProduct <<Entity>> {
            // Inventory Attributes

            // Methods() : Getter and Setter from Inventory Attributes
            +InventoryProduct(String, DistributorProductCatalog)
            +removeDisplayedAmount(long): boolean
            +toEan13(Long) : long
            +fromEan13(Long) : long
            -getCheckSum(String) : int
        }

        class Distributor <<Entity>> {
            // Distributor Attributes

            // Methods() : Getter and Setter from Distributor Attributes
            +Distributor(String, String, String, String)
            +publishDistributorCreatedEvent(Distributor) : void
         }




        InventoryProduct  o- -  DistributorProduct
        DistributorProduct  - -* "1" DistributorProductCatalog
        InventoryProduct - -* "1" InventoryProductCatalog


        class InventoryProductController <<Controller>> {
            -inventoryProductCatalog : InventoryProductCatalog
            -distributorProductCatalog : DistributorProductCatalog

            +InventoryProductController(InventoryProductCatalog, DistributorProductCatalog)
            +showProducts() : String
            +addProduct(Long) : String
        }

        class DistributorController <<Controller>> {
            -distributorRepository : DistributorRepository

            +DistributorController(DistributorRepository)
            +showDistributors() : String
            +addDistributor(String, String, String, String) : String
            +removeDistributor(Long) : String
        }

        interface DistributorRepository <<Repository>> {
            +findAll() : ArrayList<Distributor>
        }

        class DistributorProductController <<Controller>> {
            -distributorProductCatalog : DistributorProductCatalog
            -distributorRepository : DistributorRepository

            +DistributorProductController(DistributorProductCatalog. DistributorRepository)
            +showDistributorProducts() : String
            +distributorForm() : String
            +addDistributor(String, Long, String, String, long) : String
        }



        InventoryProductController - -> InventoryProduct
        DistributorController - -> Distributor
        DistributorProductController - -> DistributorProduct
        DistributorRepository - -> Distributor

    }




bioladen.product.Distributor "1" *- -  bioladen.product.DistributorProduct


@enduml

PlantUML version 1.2018.12(Sun Oct 21 12:15:15 CEST 2018)
(GPL source distribution)
Java Runtime: Java(TM) SE Runtime Environment
JVM: Java HotSpot(TM) Client VM
Java Version: 1.8.0_181-b13
Operating System: Windows 10
OS Version: 10.0
Default Encoding: Cp1252
Language: de
Country: DE
--></g></svg>