<?xml version="1.0" encoding="UTF-8" standalone="no"?><svg xmlns="http://www.w3.org/2000/svg" xmlns:xlink="http://www.w3.org/1999/xlink" contentScriptType="application/ecmascript" contentStyleType="text/css" height="686px" preserveAspectRatio="none" style="width:1637px;height:686px;" version="1.1" viewBox="0 0 1637 686" width="1637px" zoomAndPan="magnify"><defs><filter height="300%" id="f1gkwl3rpi7adh" width="300%" x="-1" y="-1"><feGaussianBlur result="blurOut" stdDeviation="2.0"/><feColorMatrix in="blurOut" result="blurOut2" type="matrix" values="0 0 0 0 0 0 0 0 0 0 0 0 0 0 0 0 0 0 .4 0"/><feOffset dx="4.0" dy="4.0" in="blurOut2" result="blurOut3"/><feBlend in="SourceGraphic" in2="blurOut3" mode="normal"/></filter><linearGradient id="g1gkwl3rpi7adh0" x1="0%" x2="100%" y1="0%" y2="100%"><stop offset="0%" stop-color="#F5A9BC"/><stop offset="100%" stop-color="#FCC4F0"/></linearGradient><linearGradient id="g1gkwl3rpi7adh1" x1="0%" x2="100%" y1="0%" y2="100%"><stop offset="0%" stop-color="#6495ED"/><stop offset="100%" stop-color="#00FFFF"/></linearGradient><linearGradient id="g1gkwl3rpi7adh2" x1="0%" x2="100%" y1="0%" y2="100%"><stop offset="0%" stop-color="#C0C0C0"/><stop offset="100%" stop-color="#FFFFFF"/></linearGradient></defs><g><!--cluster org.salespointframework.useraccount--><polygon fill="#FFFFFF" filter="url(#f1gkwl3rpi7adh)" points="1101,227,1374,227,1381,250.6094,1615,250.6094,1615,494,1101,494,1101,227" style="stroke: #A9A9A9; stroke-width: 1.5;"/><line style="stroke: #A9A9A9; stroke-width: 1.5;" x1="1101" x2="1381" y1="250.6094" y2="250.6094"/><text fill="#808080" font-family="sans-serif" font-size="14" font-weight="bold" lengthAdjust="spacingAndGlyphs" textLength="267" x="1105" y="243.5332">org.salespointframework.useraccount</text><!--cluster bioladen.customer--><polygon fill="#FFFFFF" filter="url(#f1gkwl3rpi7adh)" points="22,24,159,24,166,47.6094,1077,47.6094,1077,522,22,522,22,24" style="stroke: #A9A9A9; stroke-width: 1.5;"/><line style="stroke: #A9A9A9; stroke-width: 1.5;" x1="22" x2="166" y1="47.6094" y2="47.6094"/><text fill="#808080" font-family="sans-serif" font-size="14" font-weight="bold" lengthAdjust="spacingAndGlyphs" textLength="131" x="26" y="40.5332">bioladen.customer</text><!--class org.salespointframework.useraccount.UserAccount--><rect fill="url(#g1gkwl3rpi7adh0)" filter="url(#f1gkwl3rpi7adh)" height="56.1875" id="org.salespointframework.useraccount.UserAccount" style="stroke: #000000; stroke-width: 1.5;" width="102" x="1124" y="422"/><ellipse cx="1139" cy="442.0938" fill="#ADD1B2" rx="11" ry="11" style="stroke: #000000; stroke-width: 1.0;"/><path d="M1141.7656,437.9688 Q1141.9219,437.75 1142.1094,437.6406 Q1142.2969,437.5313 1142.5156,437.5313 Q1142.8906,437.5313 1143.125,437.7891 Q1143.3594,438.0469 1143.3594,438.6563 L1143.3594,440.1094 Q1143.3594,440.7188 1143.125,440.9844 Q1142.8906,441.25 1142.5156,441.25 Q1142.1719,441.25 1141.9688,441.0469 Q1141.7656,440.8594 1141.6563,440.3438 Q1141.6094,439.9844 1141.4219,439.7969 Q1141.0938,439.4219 1140.4844,439.2031 Q1139.875,438.9844 1139.25,438.9844 Q1138.4844,438.9844 1137.8516,439.3125 Q1137.2188,439.6406 1136.7266,440.3906 Q1136.2344,441.1406 1136.2344,442.1719 L1136.2344,443.2656 Q1136.2344,444.5 1137.125,445.3203 Q1138.0156,446.1406 1139.6094,446.1406 Q1140.5469,446.1406 1141.2031,445.8906 Q1141.5938,445.7344 1142.0156,445.2969 Q1142.2813,445.0313 1142.4297,444.9531 Q1142.5781,444.875 1142.7813,444.875 Q1143.1094,444.875 1143.3672,445.1328 Q1143.625,445.3906 1143.625,445.7344 Q1143.625,446.0781 1143.2813,446.4844 Q1142.7813,447.0625 1141.9844,447.3906 Q1140.9063,447.8438 1139.6094,447.8438 Q1138.0938,447.8438 1136.8906,447.2188 Q1135.9063,446.7188 1135.2188,445.6484 Q1134.5313,444.5781 1134.5313,443.2969 L1134.5313,442.1406 Q1134.5313,440.8125 1135.1484,439.6641 Q1135.7656,438.5156 1136.8594,437.8984 Q1137.9531,437.2813 1139.1875,437.2813 Q1139.9219,437.2813 1140.5703,437.4453 Q1141.2188,437.6094 1141.7656,437.9688 Z "/><text fill="#000000" font-family="sans-serif" font-size="12" font-style="italic" lengthAdjust="spacingAndGlyphs" textLength="72" x="1152" y="439.457">«Salespoint»</text><text fill="#000000" font-family="sans-serif" font-size="12" lengthAdjust="spacingAndGlyphs" textLength="70" x="1153" y="454.5508">UserAccount</text><line style="stroke: #000000; stroke-width: 1.5;" x1="1125" x2="1225" y1="462.1875" y2="462.1875"/><line style="stroke: #000000; stroke-width: 1.5;" x1="1125" x2="1225" y1="470.1875" y2="470.1875"/><!--class org.salespointframework.useraccount.Role--><rect fill="url(#g1gkwl3rpi7adh0)" filter="url(#f1gkwl3rpi7adh)" height="56.1875" id="org.salespointframework.useraccount.Role" style="stroke: #000000; stroke-width: 1.5;" width="100" x="1499" y="263"/><ellipse cx="1514" cy="283.0938" fill="#ADD1B2" rx="11" ry="11" style="stroke: #000000; stroke-width: 1.0;"/><path d="M1516.7656,278.9688 Q1516.9219,278.75 1517.1094,278.6406 Q1517.2969,278.5313 1517.5156,278.5313 Q1517.8906,278.5313 1518.125,278.7891 Q1518.3594,279.0469 1518.3594,279.6563 L1518.3594,281.1094 Q1518.3594,281.7188 1518.125,281.9844 Q1517.8906,282.25 1517.5156,282.25 Q1517.1719,282.25 1516.9688,282.0469 Q1516.7656,281.8594 1516.6563,281.3438 Q1516.6094,280.9844 1516.4219,280.7969 Q1516.0938,280.4219 1515.4844,280.2031 Q1514.875,279.9844 1514.25,279.9844 Q1513.4844,279.9844 1512.8516,280.3125 Q1512.2188,280.6406 1511.7266,281.3906 Q1511.2344,282.1406 1511.2344,283.1719 L1511.2344,284.2656 Q1511.2344,285.5 1512.125,286.3203 Q1513.0156,287.1406 1514.6094,287.1406 Q1515.5469,287.1406 1516.2031,286.8906 Q1516.5938,286.7344 1517.0156,286.2969 Q1517.2813,286.0313 1517.4297,285.9531 Q1517.5781,285.875 1517.7813,285.875 Q1518.1094,285.875 1518.3672,286.1328 Q1518.625,286.3906 1518.625,286.7344 Q1518.625,287.0781 1518.2813,287.4844 Q1517.7813,288.0625 1516.9844,288.3906 Q1515.9063,288.8438 1514.6094,288.8438 Q1513.0938,288.8438 1511.8906,288.2188 Q1510.9063,287.7188 1510.2188,286.6484 Q1509.5313,285.5781 1509.5313,284.2969 L1509.5313,283.1406 Q1509.5313,281.8125 1510.1484,280.6641 Q1510.7656,279.5156 1511.8594,278.8984 Q1512.9531,278.2813 1514.1875,278.2813 Q1514.9219,278.2813 1515.5703,278.4453 Q1516.2188,278.6094 1516.7656,278.9688 Z "/><text fill="#000000" font-family="sans-serif" font-size="12" font-style="italic" lengthAdjust="spacingAndGlyphs" textLength="72" x="1526" y="280.457">«Salespoint»</text><text fill="#000000" font-family="sans-serif" font-size="12" lengthAdjust="spacingAndGlyphs" textLength="26" x="1549" y="295.5508">Role</text><line style="stroke: #000000; stroke-width: 1.5;" x1="1500" x2="1598" y1="303.1875" y2="303.1875"/><line style="stroke: #000000; stroke-width: 1.5;" x1="1500" x2="1598" y1="311.1875" y2="311.1875"/><!--class org.salespointframework.useraccount.UserAccountRepository--><rect fill="url(#g1gkwl3rpi7adh0)" filter="url(#f1gkwl3rpi7adh)" height="56.1875" id="org.salespointframework.useraccount.UserAccountRepository" style="stroke: #000000; stroke-width: 1.5;" width="161" x="1117.5" y="263"/><ellipse cx="1132.5" cy="283.0938" fill="#B4A7E5" rx="11" ry="11" style="stroke: #000000; stroke-width: 1.0;"/><path d="M1133.4531,279.7344 L1133.4531,286.3906 L1135.1719,286.3906 Q1135.7813,286.3906 1136.0469,286.625 Q1136.3125,286.8594 1136.3125,287.25 Q1136.3125,287.625 1136.0469,287.8594 Q1135.7813,288.0938 1135.1719,288.0938 L1130.0313,288.0938 Q1129.4219,288.0938 1129.1563,287.8594 Q1128.8906,287.625 1128.8906,287.2344 Q1128.8906,286.8594 1129.1563,286.625 Q1129.4219,286.3906 1130.0313,286.3906 L1131.75,286.3906 L1131.75,279.7344 L1130.0313,279.7344 Q1129.4219,279.7344 1129.1563,279.5 Q1128.8906,279.2656 1128.8906,278.875 Q1128.8906,278.5 1129.1563,278.2656 Q1129.4219,278.0313 1130.0313,278.0313 L1135.1719,278.0313 Q1135.7813,278.0313 1136.0469,278.2656 Q1136.3125,278.5 1136.3125,278.875 Q1136.3125,279.2656 1136.0469,279.5 Q1135.7813,279.7344 1135.1719,279.7344 L1133.4531,279.7344 Z "/><text fill="#000000" font-family="sans-serif" font-size="12" font-style="italic" lengthAdjust="spacingAndGlyphs" textLength="72" x="1175" y="280.457">«Salespoint»</text><text fill="#000000" font-family="sans-serif" font-size="12" font-style="italic" lengthAdjust="spacingAndGlyphs" textLength="129" x="1146.5" y="295.5508">UserAccountRepository</text><line style="stroke: #000000; stroke-width: 1.5;" x1="1118.5" x2="1277.5" y1="303.1875" y2="303.1875"/><line style="stroke: #000000; stroke-width: 1.5;" x1="1118.5" x2="1277.5" y1="311.1875" y2="311.1875"/><!--class org.salespointframework.useraccount.UserAccountManager--><rect fill="url(#g1gkwl3rpi7adh0)" filter="url(#f1gkwl3rpi7adh)" height="56.1875" id="org.salespointframework.useraccount.UserAccountManager" style="stroke: #000000; stroke-width: 1.5;" width="150" x="1314" y="263"/><ellipse cx="1329" cy="283.0938" fill="#B4A7E5" rx="11" ry="11" style="stroke: #000000; stroke-width: 1.0;"/><path d="M1329.9531,279.7344 L1329.9531,286.3906 L1331.6719,286.3906 Q1332.2813,286.3906 1332.5469,286.625 Q1332.8125,286.8594 1332.8125,287.25 Q1332.8125,287.625 1332.5469,287.8594 Q1332.2813,288.0938 1331.6719,288.0938 L1326.5313,288.0938 Q1325.9219,288.0938 1325.6563,287.8594 Q1325.3906,287.625 1325.3906,287.2344 Q1325.3906,286.8594 1325.6563,286.625 Q1325.9219,286.3906 1326.5313,286.3906 L1328.25,286.3906 L1328.25,279.7344 L1326.5313,279.7344 Q1325.9219,279.7344 1325.6563,279.5 Q1325.3906,279.2656 1325.3906,278.875 Q1325.3906,278.5 1325.6563,278.2656 Q1325.9219,278.0313 1326.5313,278.0313 L1331.6719,278.0313 Q1332.2813,278.0313 1332.5469,278.2656 Q1332.8125,278.5 1332.8125,278.875 Q1332.8125,279.2656 1332.5469,279.5 Q1332.2813,279.7344 1331.6719,279.7344 L1329.9531,279.7344 Z "/><text fill="#000000" font-family="sans-serif" font-size="12" font-style="italic" lengthAdjust="spacingAndGlyphs" textLength="72" x="1366" y="280.457">«Salespoint»</text><text fill="#000000" font-family="sans-serif" font-size="12" font-style="italic" lengthAdjust="spacingAndGlyphs" textLength="118" x="1343" y="295.5508">UserAccountManager</text><line style="stroke: #000000; stroke-width: 1.5;" x1="1315" x2="1463" y1="303.1875" y2="303.1875"/><line style="stroke: #000000; stroke-width: 1.5;" x1="1315" x2="1463" y1="311.1875" y2="311.1875"/><!--class bioladen.customer.CustomerController--><rect fill="url(#g1gkwl3rpi7adh1)" filter="url(#f1gkwl3rpi7adh)" height="70.0234" id="bioladen.customer.CustomerController" style="stroke: #000000; stroke-width: 1.5;" width="209" x="241.5" y="60"/><ellipse cx="287.25" cy="80.0938" fill="#ADD1B2" rx="11" ry="11" style="stroke: #000000; stroke-width: 1.0;"/><path d="M290.0156,75.9688 Q290.1719,75.75 290.3594,75.6406 Q290.5469,75.5313 290.7656,75.5313 Q291.1406,75.5313 291.375,75.7891 Q291.6094,76.0469 291.6094,76.6563 L291.6094,78.1094 Q291.6094,78.7188 291.375,78.9844 Q291.1406,79.25 290.7656,79.25 Q290.4219,79.25 290.2188,79.0469 Q290.0156,78.8594 289.9063,78.3438 Q289.8594,77.9844 289.6719,77.7969 Q289.3438,77.4219 288.7344,77.2031 Q288.125,76.9844 287.5,76.9844 Q286.7344,76.9844 286.1016,77.3125 Q285.4688,77.6406 284.9766,78.3906 Q284.4844,79.1406 284.4844,80.1719 L284.4844,81.2656 Q284.4844,82.5 285.375,83.3203 Q286.2656,84.1406 287.8594,84.1406 Q288.7969,84.1406 289.4531,83.8906 Q289.8438,83.7344 290.2656,83.2969 Q290.5313,83.0313 290.6797,82.9531 Q290.8281,82.875 291.0313,82.875 Q291.3594,82.875 291.6172,83.1328 Q291.875,83.3906 291.875,83.7344 Q291.875,84.0781 291.5313,84.4844 Q291.0313,85.0625 290.2344,85.3906 Q289.1563,85.8438 287.8594,85.8438 Q286.3438,85.8438 285.1406,85.2188 Q284.1563,84.7188 283.4688,83.6484 Q282.7813,82.5781 282.7813,81.2969 L282.7813,80.1406 Q282.7813,78.8125 283.3984,77.6641 Q284.0156,76.5156 285.1094,75.8984 Q286.2031,75.2813 287.4375,75.2813 Q288.1719,75.2813 288.8203,75.4453 Q289.4688,75.6094 290.0156,75.9688 Z "/><text fill="#000000" font-family="sans-serif" font-size="12" font-style="italic" lengthAdjust="spacingAndGlyphs" textLength="68" x="328.25" y="77.457">«Controller»</text><text fill="#000000" font-family="sans-serif" font-size="12" lengthAdjust="spacingAndGlyphs" textLength="109" x="307.75" y="92.5508">CustomerController</text><line style="stroke: #000000; stroke-width: 1.5;" x1="242.5" x2="449.5" y1="100.1875" y2="100.1875"/><line style="stroke: #000000; stroke-width: 1.5;" x1="242.5" x2="449.5" y1="108.1875" y2="108.1875"/><text fill="#000000" font-family="sans-serif" font-size="11" lengthAdjust="spacingAndGlyphs" textLength="197" x="247.5" y="123.6064">//Methods (): create and delete Customer</text><!--class bioladen.customer.Customer--><rect fill="url(#g1gkwl3rpi7adh2)" filter="url(#f1gkwl3rpi7adh)" height="83.8594" id="bioladen.customer.Customer" style="stroke: #000000; stroke-width: 1.5;" width="277" x="207.5" y="249"/><ellipse cx="314.25" cy="269.0938" fill="#ADD1B2" rx="11" ry="11" style="stroke: #000000; stroke-width: 1.0;"/><path d="M317.0156,264.9688 Q317.1719,264.75 317.3594,264.6406 Q317.5469,264.5313 317.7656,264.5313 Q318.1406,264.5313 318.375,264.7891 Q318.6094,265.0469 318.6094,265.6563 L318.6094,267.1094 Q318.6094,267.7188 318.375,267.9844 Q318.1406,268.25 317.7656,268.25 Q317.4219,268.25 317.2188,268.0469 Q317.0156,267.8594 316.9063,267.3438 Q316.8594,266.9844 316.6719,266.7969 Q316.3438,266.4219 315.7344,266.2031 Q315.125,265.9844 314.5,265.9844 Q313.7344,265.9844 313.1016,266.3125 Q312.4688,266.6406 311.9766,267.3906 Q311.4844,268.1406 311.4844,269.1719 L311.4844,270.2656 Q311.4844,271.5 312.375,272.3203 Q313.2656,273.1406 314.8594,273.1406 Q315.7969,273.1406 316.4531,272.8906 Q316.8438,272.7344 317.2656,272.2969 Q317.5313,272.0313 317.6797,271.9531 Q317.8281,271.875 318.0313,271.875 Q318.3594,271.875 318.6172,272.1328 Q318.875,272.3906 318.875,272.7344 Q318.875,273.0781 318.5313,273.4844 Q318.0313,274.0625 317.2344,274.3906 Q316.1563,274.8438 314.8594,274.8438 Q313.3438,274.8438 312.1406,274.2188 Q311.1563,273.7188 310.4688,272.6484 Q309.7813,271.5781 309.7813,270.2969 L309.7813,269.1406 Q309.7813,267.8125 310.3984,266.6641 Q311.0156,265.5156 312.1094,264.8984 Q313.2031,264.2813 314.4375,264.2813 Q315.1719,264.2813 315.8203,264.4453 Q316.4688,264.6094 317.0156,264.9688 Z "/><text fill="#000000" font-family="sans-serif" font-size="12" font-style="italic" lengthAdjust="spacingAndGlyphs" textLength="44" x="340.25" y="266.457">«Entity»</text><text fill="#000000" font-family="sans-serif" font-size="12" lengthAdjust="spacingAndGlyphs" textLength="55" x="334.75" y="281.5508">Customer</text><line style="stroke: #000000; stroke-width: 1.5;" x1="208.5" x2="483.5" y1="289.1875" y2="289.1875"/><text fill="#000000" font-family="sans-serif" font-size="11" lengthAdjust="spacingAndGlyphs" textLength="99" x="213.5" y="304.6064">//CustomerAttributes</text><line style="stroke: #000000; stroke-width: 1.5;" x1="208.5" x2="483.5" y1="311.0234" y2="311.0234"/><text fill="#000000" font-family="sans-serif" font-size="11" lengthAdjust="spacingAndGlyphs" textLength="265" x="213.5" y="326.4424">//Methods(): Getter and Setter from CustomerAttributes</text><!--class bioladen.customer.CustomerType--><rect fill="url(#g1gkwl3rpi7adh2)" filter="url(#f1gkwl3rpi7adh)" height="111.5313" id="bioladen.customer.CustomerType" style="stroke: #000000; stroke-width: 1.5;" width="113" x="257.5" y="394"/><ellipse cx="272.5" cy="414.0938" fill="#EB937F" rx="11" ry="11" style="stroke: #000000; stroke-width: 1.0;"/><path d="M271.3594,414.8906 L271.3594,417.3906 L275.6875,417.3906 L275.6875,416.4688 Q275.6875,415.8594 275.9297,415.5938 Q276.1719,415.3281 276.5469,415.3281 Q276.9219,415.3281 277.1563,415.5938 Q277.3906,415.8594 277.3906,416.4688 L277.3906,419.0938 L269.3906,419.0938 Q268.7656,419.0938 268.5078,418.8594 Q268.25,418.625 268.25,418.2344 Q268.25,417.8594 268.5156,417.625 Q268.7813,417.3906 269.3906,417.3906 L269.6563,417.3906 L269.6563,410.7344 L269.3906,410.7344 Q268.7656,410.7344 268.5078,410.5 Q268.25,410.2656 268.25,409.875 Q268.25,409.5 268.5078,409.2656 Q268.7656,409.0313 269.3906,409.0313 L277.0156,409.0313 L277.0156,411.625 Q277.0156,412.2344 276.7891,412.4922 Q276.5625,412.75 276.1719,412.75 Q275.7969,412.75 275.5625,412.4922 Q275.3281,412.2344 275.3281,411.625 L275.3281,410.7344 L271.3594,410.7344 L271.3594,413.1875 L272.8438,413.1875 Q272.8438,412.5313 272.9688,412.3438 Q273.2344,411.9375 273.7031,411.9375 Q274.0781,411.9375 274.3125,412.1953 Q274.5469,412.4531 274.5469,413.0625 L274.5469,415.0313 Q274.5469,415.5781 274.4219,415.7656 Q274.1563,416.1563 273.7031,416.1563 Q273.2344,416.1563 272.9688,415.75 Q272.8438,415.5625 272.8438,414.8906 L271.3594,414.8906 Z "/><text fill="#000000" font-family="sans-serif" font-size="12" font-style="italic" lengthAdjust="spacingAndGlyphs" textLength="44" x="305" y="411.457">«Entity»</text><text fill="#000000" font-family="sans-serif" font-size="12" lengthAdjust="spacingAndGlyphs" textLength="81" x="286.5" y="426.5508">CustomerType</text><line style="stroke: #000000; stroke-width: 1.5;" x1="258.5" x2="369.5" y1="434.1875" y2="434.1875"/><text fill="#000000" font-family="sans-serif" font-size="11" lengthAdjust="spacingAndGlyphs" textLength="52" x="263.5" y="449.6064">MANAGER</text><text fill="#000000" font-family="sans-serif" font-size="11" lengthAdjust="spacingAndGlyphs" textLength="33" x="263.5" y="463.4424">STAFF</text><text fill="#000000" font-family="sans-serif" font-size="11" lengthAdjust="spacingAndGlyphs" textLength="98" x="263.5" y="477.2783">MAJOR_CUSTOMER</text><text fill="#000000" font-family="sans-serif" font-size="11" lengthAdjust="spacingAndGlyphs" textLength="97" x="263.5" y="491.1143">HOUSE_CUSTOMER</text><line style="stroke: #000000; stroke-width: 1.5;" x1="258.5" x2="369.5" y1="497.5313" y2="497.5313"/><!--class bioladen.customer.Sex--><rect fill="url(#g1gkwl3rpi7adh2)" filter="url(#f1gkwl3rpi7adh)" height="89.5078" id="bioladen.customer.Sex" style="stroke: #000000; stroke-width: 1.5;" width="59" x="405.5" y="405"/><ellipse cx="423.65" cy="421" fill="#EB937F" rx="11" ry="11" style="stroke: #000000; stroke-width: 1.0;"/><path d="M422.5094,421.7969 L422.5094,424.2969 L426.8375,424.2969 L426.8375,423.375 Q426.8375,422.7656 427.0797,422.5 Q427.3219,422.2344 427.6969,422.2344 Q428.0719,422.2344 428.3063,422.5 Q428.5406,422.7656 428.5406,423.375 L428.5406,426 L420.5406,426 Q419.9156,426 419.6578,425.7656 Q419.4,425.5313 419.4,425.1406 Q419.4,424.7656 419.6656,424.5313 Q419.9313,424.2969 420.5406,424.2969 L420.8063,424.2969 L420.8063,417.6406 L420.5406,417.6406 Q419.9156,417.6406 419.6578,417.4063 Q419.4,417.1719 419.4,416.7813 Q419.4,416.4063 419.6578,416.1719 Q419.9156,415.9375 420.5406,415.9375 L428.1656,415.9375 L428.1656,418.5313 Q428.1656,419.1406 427.9391,419.3984 Q427.7125,419.6563 427.3219,419.6563 Q426.9469,419.6563 426.7125,419.3984 Q426.4781,419.1406 426.4781,418.5313 L426.4781,417.6406 L422.5094,417.6406 L422.5094,420.0938 L423.9938,420.0938 Q423.9938,419.4375 424.1188,419.25 Q424.3844,418.8438 424.8531,418.8438 Q425.2281,418.8438 425.4625,419.1016 Q425.6969,419.3594 425.6969,419.9688 L425.6969,421.9375 Q425.6969,422.4844 425.5719,422.6719 Q425.3063,423.0625 424.8531,423.0625 Q424.3844,423.0625 424.1188,422.6563 Q423.9938,422.4688 423.9938,421.7969 L422.5094,421.7969 Z "/><text fill="#000000" font-family="sans-serif" font-size="12" lengthAdjust="spacingAndGlyphs" textLength="20" x="438.35" y="425.9102">Sex</text><line style="stroke: #000000; stroke-width: 1.5;" x1="406.5" x2="463.5" y1="437" y2="437"/><text fill="#000000" font-family="sans-serif" font-size="11" lengthAdjust="spacingAndGlyphs" textLength="28" x="411.5" y="452.4189">MALE</text><text fill="#000000" font-family="sans-serif" font-size="11" lengthAdjust="spacingAndGlyphs" textLength="40" x="411.5" y="466.2549">FEMALE</text><text fill="#000000" font-family="sans-serif" font-size="11" lengthAdjust="spacingAndGlyphs" textLength="47" x="411.5" y="480.0908">VARIOUS</text><line style="stroke: #000000; stroke-width: 1.5;" x1="406.5" x2="463.5" y1="486.5078" y2="486.5078"/><!--class bioladen.customer.CustomerRepository--><rect fill="url(#g1gkwl3rpi7adh2)" filter="url(#f1gkwl3rpi7adh)" height="70.0234" id="bioladen.customer.CustomerRepository" style="stroke: #000000; stroke-width: 1.5;" width="168" x="38" y="60"/><ellipse cx="63.35" cy="80.0938" fill="#B4A7E5" rx="11" ry="11" style="stroke: #000000; stroke-width: 1.0;"/><path d="M64.3031,76.7344 L64.3031,83.3906 L66.0219,83.3906 Q66.6313,83.3906 66.8969,83.625 Q67.1625,83.8594 67.1625,84.25 Q67.1625,84.625 66.8969,84.8594 Q66.6313,85.0938 66.0219,85.0938 L60.8813,85.0938 Q60.2719,85.0938 60.0063,84.8594 Q59.7406,84.625 59.7406,84.2344 Q59.7406,83.8594 60.0063,83.625 Q60.2719,83.3906 60.8813,83.3906 L62.6,83.3906 L62.6,76.7344 L60.8813,76.7344 Q60.2719,76.7344 60.0063,76.5 Q59.7406,76.2656 59.7406,75.875 Q59.7406,75.5 60.0063,75.2656 Q60.2719,75.0313 60.8813,75.0313 L66.0219,75.0313 Q66.6313,75.0313 66.8969,75.2656 Q67.1625,75.5 67.1625,75.875 Q67.1625,76.2656 66.8969,76.5 Q66.6313,76.7344 66.0219,76.7344 L64.3031,76.7344 Z "/><text fill="#000000" font-family="sans-serif" font-size="12" font-style="italic" lengthAdjust="spacingAndGlyphs" textLength="73" x="99.65" y="77.457">«Repository»</text><text fill="#000000" font-family="sans-serif" font-size="12" font-style="italic" lengthAdjust="spacingAndGlyphs" textLength="113" x="79.65" y="92.5508">CustomerRepository</text><line style="stroke: #000000; stroke-width: 1.5;" x1="39" x2="205" y1="100.1875" y2="100.1875"/><line style="stroke: #000000; stroke-width: 1.5;" x1="39" x2="205" y1="108.1875" y2="108.1875"/><text fill="#000000" font-family="sans-serif" font-size="11" lengthAdjust="spacingAndGlyphs" textLength="156" x="44" y="123.6064">+findAll() : ArrayList&lt;Customer&gt;</text><!--class bioladen.customer.UserAccController--><rect fill="url(#g1gkwl3rpi7adh1)" filter="url(#f1gkwl3rpi7adh)" height="70.0234" id="bioladen.customer.UserAccController" style="stroke: #000000; stroke-width: 1.5;" width="193" x="867.5" y="60"/><ellipse cx="909.95" cy="80.0938" fill="#ADD1B2" rx="11" ry="11" style="stroke: #000000; stroke-width: 1.0;"/><path d="M912.7156,75.9688 Q912.8719,75.75 913.0594,75.6406 Q913.2469,75.5313 913.4656,75.5313 Q913.8406,75.5313 914.075,75.7891 Q914.3094,76.0469 914.3094,76.6563 L914.3094,78.1094 Q914.3094,78.7188 914.075,78.9844 Q913.8406,79.25 913.4656,79.25 Q913.1219,79.25 912.9188,79.0469 Q912.7156,78.8594 912.6063,78.3438 Q912.5594,77.9844 912.3719,77.7969 Q912.0438,77.4219 911.4344,77.2031 Q910.825,76.9844 910.2,76.9844 Q909.4344,76.9844 908.8016,77.3125 Q908.1688,77.6406 907.6766,78.3906 Q907.1844,79.1406 907.1844,80.1719 L907.1844,81.2656 Q907.1844,82.5 908.075,83.3203 Q908.9656,84.1406 910.5594,84.1406 Q911.4969,84.1406 912.1531,83.8906 Q912.5438,83.7344 912.9656,83.2969 Q913.2313,83.0313 913.3797,82.9531 Q913.5281,82.875 913.7313,82.875 Q914.0594,82.875 914.3172,83.1328 Q914.575,83.3906 914.575,83.7344 Q914.575,84.0781 914.2313,84.4844 Q913.7313,85.0625 912.9344,85.3906 Q911.8563,85.8438 910.5594,85.8438 Q909.0438,85.8438 907.8406,85.2188 Q906.8563,84.7188 906.1688,83.6484 Q905.4813,82.5781 905.4813,81.2969 L905.4813,80.1406 Q905.4813,78.8125 906.0984,77.6641 Q906.7156,76.5156 907.8094,75.8984 Q908.9031,75.2813 910.1375,75.2813 Q910.8719,75.2813 911.5203,75.4453 Q912.1688,75.6094 912.7156,75.9688 Z "/><text fill="#000000" font-family="sans-serif" font-size="12" font-style="italic" lengthAdjust="spacingAndGlyphs" textLength="68" x="946.05" y="77.457">«Controller»</text><text fill="#000000" font-family="sans-serif" font-size="12" lengthAdjust="spacingAndGlyphs" textLength="100" x="930.05" y="92.5508">UserAccController</text><line style="stroke: #000000; stroke-width: 1.5;" x1="868.5" x2="1059.5" y1="100.1875" y2="100.1875"/><line style="stroke: #000000; stroke-width: 1.5;" x1="868.5" x2="1059.5" y1="108.1875" y2="108.1875"/><text fill="#000000" font-family="sans-serif" font-size="11" lengthAdjust="spacingAndGlyphs" textLength="181" x="873.5" y="123.6064">//Methods() : reset and set Password</text><!--class bioladen.customer.UserAccEventListener--><rect fill="url(#g1gkwl3rpi7adh2)" filter="url(#f1gkwl3rpi7adh)" height="48" id="bioladen.customer.UserAccEventListener" style="stroke: #000000; stroke-width: 1.5;" width="153" x="679.5" y="71"/><ellipse cx="694.5" cy="87" fill="#ADD1B2" rx="11" ry="11" style="stroke: #000000; stroke-width: 1.0;"/><path d="M697.2656,82.875 Q697.4219,82.6563 697.6094,82.5469 Q697.7969,82.4375 698.0156,82.4375 Q698.3906,82.4375 698.625,82.6953 Q698.8594,82.9531 698.8594,83.5625 L698.8594,85.0156 Q698.8594,85.625 698.625,85.8906 Q698.3906,86.1563 698.0156,86.1563 Q697.6719,86.1563 697.4688,85.9531 Q697.2656,85.7656 697.1563,85.25 Q697.1094,84.8906 696.9219,84.7031 Q696.5938,84.3281 695.9844,84.1094 Q695.375,83.8906 694.75,83.8906 Q693.9844,83.8906 693.3516,84.2188 Q692.7188,84.5469 692.2266,85.2969 Q691.7344,86.0469 691.7344,87.0781 L691.7344,88.1719 Q691.7344,89.4063 692.625,90.2266 Q693.5156,91.0469 695.1094,91.0469 Q696.0469,91.0469 696.7031,90.7969 Q697.0938,90.6406 697.5156,90.2031 Q697.7813,89.9375 697.9297,89.8594 Q698.0781,89.7813 698.2813,89.7813 Q698.6094,89.7813 698.8672,90.0391 Q699.125,90.2969 699.125,90.6406 Q699.125,90.9844 698.7813,91.3906 Q698.2813,91.9688 697.4844,92.2969 Q696.4063,92.75 695.1094,92.75 Q693.5938,92.75 692.3906,92.125 Q691.4063,91.625 690.7188,90.5547 Q690.0313,89.4844 690.0313,88.2031 L690.0313,87.0469 Q690.0313,85.7188 690.6484,84.5703 Q691.2656,83.4219 692.3594,82.8047 Q693.4531,82.1875 694.6875,82.1875 Q695.4219,82.1875 696.0703,82.3516 Q696.7188,82.5156 697.2656,82.875 Z "/><text fill="#000000" font-family="sans-serif" font-size="12" lengthAdjust="spacingAndGlyphs" textLength="121" x="708.5" y="91.9102">UserAccEventListener</text><line style="stroke: #000000; stroke-width: 1.5;" x1="680.5" x2="831.5" y1="103" y2="103"/><line style="stroke: #000000; stroke-width: 1.5;" x1="680.5" x2="831.5" y1="111" y2="111"/><path d="M485.5,82 L485.5,108.3516 A0,0 0 0 0 485.5,108.3516 L644.5,108.3516 A0,0 0 0 0 644.5,108.3516 L644.5,100 L679.267,95 L644.5,92 L644.5,92 L634.5,82 L485.5,82 A0,0 0 0 0 485.5,82 " fill="#FBFB77" filter="url(#f1gkwl3rpi7adh)" style="stroke: #A80036; stroke-width: 1.0;"/><path d="M634.5,82 L634.5,92 L644.5,92 L634.5,82 " fill="#FBFB77" style="stroke: #A80036; stroke-width: 1.0;"/><text fill="#000000" font-family="sans-serif" font-size="13" lengthAdjust="spacingAndGlyphs" textLength="138" x="491.5" y="100.4951">listen to CustomerEvent</text><!--link bioladen.customer.Customer to bioladen.customer.Sex--><path d="M435,333.192 C435,333.192 435,399.822 435,399.822 " fill="none" id="bioladen.customer.Customer-bioladen.customer.Sex" style="stroke: #000000; stroke-width: 1.0;"/><polygon fill="#000000" points="435,404.822,439,395.822,435,399.822,431,395.822,435,404.822" style="stroke: #000000; stroke-width: 1.0;"/><!--link bioladen.customer.Customer to bioladen.customer.CustomerType--><path d="M314,333.192 C314,333.192 314,388.829 314,388.829 " fill="none" id="bioladen.customer.Customer-bioladen.customer.CustomerType" style="stroke: #000000; stroke-width: 1.0;"/><polygon fill="#000000" points="314,393.829,318,384.829,314,388.829,310,384.829,314,393.829" style="stroke: #000000; stroke-width: 1.0;"/><!--link bioladen.customer.CustomerRepository to bioladen.customer.Customer--><path d="M206.175,95 C217.054,95 224.5,95 224.5,95 C224.5,95 224.5,243.953 224.5,243.953 " fill="none" id="bioladen.customer.CustomerRepository-bioladen.customer.Customer" style="stroke: #000000; stroke-width: 1.0;"/><polygon fill="#000000" points="224.5,248.953,228.5,239.953,224.5,243.953,220.5,239.953,224.5,248.953" style="stroke: #000000; stroke-width: 1.0;"/><!--link bioladen.customer.CustomerController to bioladen.customer.Customer--><path d="M346,130.041 C346,130.041 346,243.761 346,243.761 " fill="none" id="bioladen.customer.CustomerController-bioladen.customer.Customer" style="stroke: #000000; stroke-width: 1.0;"/><polygon fill="#000000" points="346,248.761,350,239.761,346,243.761,342,239.761,346,248.761" style="stroke: #000000; stroke-width: 1.0;"/><!--link org.salespointframework.useraccount.UserAccountRepository to org.salespointframework.useraccount.UserAccount--><path d="M1175,332.06 C1175,332.06 1175,421.954 1175,421.954 " fill="none" id="org.salespointframework.useraccount.UserAccountRepository-org.salespointframework.useraccount.UserAccount" style="stroke: #000000; stroke-width: 1.0;"/><polygon fill="#000000" points="1175,319.06,1171,325.06,1175,331.06,1179,325.06,1175,319.06" style="stroke: #000000; stroke-width: 1.0;"/><!--link bioladen.customer.UserAccController to org.salespointframework.useraccount.UserAccountManager--><path d="M1060.7,84 C1186.12,84 1389,84 1389,84 C1389,84 1389,257.652 1389,257.652 " fill="none" id="bioladen.customer.UserAccController-org.salespointframework.useraccount.UserAccountManager" style="stroke: #000000; stroke-width: 1.0;"/><polygon fill="#000000" points="1389,262.652,1393,253.652,1389,257.652,1385,253.652,1389,262.652" style="stroke: #000000; stroke-width: 1.0;"/><text fill="#000000" font-family="sans-serif" font-size="13" lengthAdjust="spacingAndGlyphs" textLength="0" x="1266" y="174.4951"/><text fill="#000000" font-family="sans-serif" font-size="13" lengthAdjust="spacingAndGlyphs" textLength="0" x="1266" y="190.8467"/><text fill="#000000" font-family="sans-serif" font-size="13" lengthAdjust="spacingAndGlyphs" textLength="114" x="1207" y="207.1982">USER_ACCOUNTS</text><text fill="#000000" font-family="sans-serif" font-size="13" lengthAdjust="spacingAndGlyphs" textLength="7" x="1068.3716" y="80.053">1</text><text fill="#000000" font-family="sans-serif" font-size="13" lengthAdjust="spacingAndGlyphs" textLength="7" x="1381.2344" y="252.2139">1</text><!--link bioladen.customer.UserAccController to org.salespointframework.useraccount.UserAccountRepository--><path d="M1060.53,107 C1124.99,107 1198,107 1198,107 C1198,107 1198,257.653 1198,257.653 " fill="none" id="bioladen.customer.UserAccController-org.salespointframework.useraccount.UserAccountRepository" style="stroke: #000000; stroke-width: 1.0;"/><polygon fill="#000000" points="1198,262.653,1202,253.653,1198,257.653,1194,253.653,1198,262.653" style="stroke: #000000; stroke-width: 1.0;"/><text fill="#000000" font-family="sans-serif" font-size="13" lengthAdjust="spacingAndGlyphs" textLength="7" x="1068.5011" y="104.8269">1</text><text fill="#000000" font-family="sans-serif" font-size="13" lengthAdjust="spacingAndGlyphs" textLength="7" x="1190.2344" y="252.2152">1</text><!--link bioladen.customer.Customer to org.salespointframework.useraccount.UserAccount--><path d="M474.5,333.321 C474.5,384.537 474.5,464 474.5,464 C474.5,464 1118.77,464 1118.77,464 " fill="none" id="bioladen.customer.Customer-org.salespointframework.useraccount.UserAccount" style="stroke: #000000; stroke-width: 1.0;"/><polygon fill="#000000" points="1123.77,464,1114.77,460,1118.77,464,1114.77,468,1123.77,464" style="stroke: #000000; stroke-width: 1.0;"/><!--link bioladen.customer.UserAccController to org.salespointframework.useraccount.UserAccount--><path d="M964,130.209 C964,217.334 964,436 964,436 C964,436 1118.92,436 1118.92,436 " fill="none" id="bioladen.customer.UserAccController-org.salespointframework.useraccount.UserAccount" style="stroke: #000000; stroke-width: 1.0;"/><polygon fill="#000000" points="1123.92,436,1114.92,432,1118.92,436,1114.92,440,1123.92,436" style="stroke: #000000; stroke-width: 1.0;"/><!--link bioladen.customer.UserAccEventListener to org.salespointframework.useraccount.UserAccount--><path d="M756,119.121 C756,199.023 756,450 756,450 C756,450 1118.62,450 1118.62,450 " fill="none" id="bioladen.customer.UserAccEventListener-org.salespointframework.useraccount.UserAccount" style="stroke: #000000; stroke-width: 1.0;"/><polygon fill="#000000" points="1123.62,450,1114.62,446,1118.62,450,1114.62,454,1123.62,450" style="stroke: #000000; stroke-width: 1.0;"/><rect fill="#DDDDDD" height="119.6563" rx="5" ry="5" style="stroke: #000000; stroke-width: 1.0;" width="194" x="727" y="556"/><text fill="#000000" font-family="sans-serif" font-size="14" font-weight="bold" lengthAdjust="spacingAndGlyphs" textLength="85" x="737" y="577.5332">Background</text><text fill="#000000" font-family="sans-serif" font-size="14" font-weight="bold" lengthAdjust="spacingAndGlyphs" textLength="81" x="830" y="577.5332">Component</text><rect fill="#3DD13F" height="17.6094" style="stroke: none; stroke-width: 1.0;" width="93" x="733" y="580.6094"/><text fill="#000000" font-family="sans-serif" font-size="14" lengthAdjust="spacingAndGlyphs" textLength="0" x="753" y="595.1426"/><text fill="#000000" font-family="sans-serif" font-size="14" lengthAdjust="spacingAndGlyphs" textLength="29" x="830" y="595.1426">View</text><rect fill="#5F9AEA" height="17.6094" style="stroke: none; stroke-width: 1.0;" width="93" x="733" y="598.2188"/><text fill="#000000" font-family="sans-serif" font-size="14" lengthAdjust="spacingAndGlyphs" textLength="0" x="753" y="612.752"/><text fill="#000000" font-family="sans-serif" font-size="14" lengthAdjust="spacingAndGlyphs" textLength="62" x="830" y="612.752">Controller</text><rect fill="#CEF6CE" height="17.6094" style="stroke: none; stroke-width: 1.0;" width="93" x="733" y="615.8281"/><text fill="#000000" font-family="sans-serif" font-size="14" lengthAdjust="spacingAndGlyphs" textLength="0" x="753" y="630.3613"/><text fill="#000000" font-family="sans-serif" font-size="14" lengthAdjust="spacingAndGlyphs" textLength="41" x="830" y="630.3613">Spring</text><rect fill="#F5A9BC" height="17.6094" style="stroke: none; stroke-width: 1.0;" width="93" x="733" y="633.4375"/><text fill="#000000" font-family="sans-serif" font-size="14" lengthAdjust="spacingAndGlyphs" textLength="0" x="753" y="647.9707"/><text fill="#000000" font-family="sans-serif" font-size="14" lengthAdjust="spacingAndGlyphs" textLength="66" x="830" y="647.9707">Salespoint</text><rect fill="#F9ED93" height="17.6094" style="stroke: none; stroke-width: 1.0;" width="93" x="733" y="651.0469"/><text fill="#000000" font-family="sans-serif" font-size="14" lengthAdjust="spacingAndGlyphs" textLength="0" x="753" y="665.5801"/><text fill="#000000" font-family="sans-serif" font-size="14" lengthAdjust="spacingAndGlyphs" textLength="29" x="830" y="665.5801">Java</text><line style="stroke: #000000; stroke-width: 1.0;" x1="733" x2="915" y1="563" y2="563"/><line style="stroke: #000000; stroke-width: 1.0;" x1="733" x2="915" y1="580.6094" y2="580.6094"/><line style="stroke: #000000; stroke-width: 1.0;" x1="733" x2="915" y1="598.2188" y2="598.2188"/><line style="stroke: #000000; stroke-width: 1.0;" x1="733" x2="915" y1="615.8281" y2="615.8281"/><line style="stroke: #000000; stroke-width: 1.0;" x1="733" x2="915" y1="633.4375" y2="633.4375"/><line style="stroke: #000000; stroke-width: 1.0;" x1="733" x2="915" y1="651.0469" y2="651.0469"/><line style="stroke: #000000; stroke-width: 1.0;" x1="733" x2="915" y1="668.6563" y2="668.6563"/><line style="stroke: #000000; stroke-width: 1.0;" x1="733" x2="733" y1="563" y2="668.6563"/><line style="stroke: #000000; stroke-width: 1.0;" x1="826" x2="826" y1="563" y2="668.6563"/><line style="stroke: #000000; stroke-width: 1.0;" x1="915" x2="915" y1="563" y2="668.6563"/><!--
@startuml




skinparam class {
	BackgroundColor #Silver/white
	BackgroundColor<<Spring>> #a9f5e1/cef6ce
	BackgroundColor<<Salespoint>> #f5a9bc/fcc4f0
	BackgroundColor<<Java>> #f9ed93/f7f583
	BackgroundColor<<Controller>> #Cornflowerblue/Cyan
    BorderColor Black
    ArrowColor  Black
}

skinparam package {
    FontColor Grey
    BorderColor Darkgrey
}

skinparam classAttributeIconSize 0
skinparam linetype ortho

legend
| Background | Component |
|<#3dd13f>     | View |
|<#5f9aea>     | Controller |
|<#cef6ce>     | Spring |
|<#f5a9bc>     | Salespoint |
|<#f9ed93>     | Java |
endlegend




namespace org.salespointframework.useraccount {
    class UserAccount <<Salespoint>> {

    }

    class Role <<Salespoint>>{

    }

    interface UserAccountRepository <<Salespoint>> {

    }

    interface UserAccountManager <<Salespoint>>

}




    namespace bioladen.customer {

        class CustomerController <<Controller>> {
            //Methods (): create and delete Customer
        }

        class Customer <<Entity>> {
            //CustomerAttributes
            //Methods(): Getter and Setter from CustomerAttributes

        }

        enum CustomerType <<Entity>>{
            MANAGER
            STAFF
            MAJOR_CUSTOMER
            HOUSE_CUSTOMER

        }

        enum Sex {
            MALE
            FEMALE
            VARIOUS
        }


        interface CustomerRepository <<Repository>> {
            +findAll() : ArrayList<Customer>
        }
        
        class UserAccController <<Controller>>  {
       
            //Methods() : reset and set Password
        
        }
        
     

        class UserAccEventListener {

        }
        note left: listen to CustomerEvent

       
       
        Customer - -> Sex
        Customer - -> CustomerType
        CustomerRepository - -> Customer
        CustomerController - -> Customer
    }
    





org.salespointframework.useraccount.UserAccountRepository  *- -  org.salespointframework.useraccount.UserAccount
bioladen.customer.UserAccController "1" - -> "1" org.salespointframework.useraccount.UserAccountManager: \n\nUSER_ACCOUNTS
bioladen.customer.UserAccController "1" - -> "1" org.salespointframework.useraccount.UserAccountRepository

bioladen.customer.Customer - -> org.salespointframework.useraccount.UserAccount
bioladen.customer.UserAccController - -> org.salespointframework.useraccount.UserAccount
bioladen.customer.UserAccEventListener - -> org.salespointframework.useraccount.UserAccount

@endumll

PlantUML version 1.2018.12(Sun Oct 21 12:15:15 CEST 2018)
(GPL source distribution)
Java Runtime: Java(TM) SE Runtime Environment
JVM: Java HotSpot(TM) Client VM
Java Version: 1.8.0_181-b13
Operating System: Windows 10
OS Version: 10.0
Default Encoding: Cp1252
Language: de
Country: DE
--></g></svg>